<svg width="312" height="203" viewBox="0 0 312 203" fill="none" xmlns="http://www.w3.org/2000/svg">
  <g clip-path="url(#clip0_893_10886)">
    <rect y="0.628906" width="312" height="202.094" rx="8" fill="white"/>
    <rect width="280" height="0.00122257" transform="translate(59.0996 202.722) rotate(-46.2)" fill="#1B1B1D"/>
    <path d="M264.566 173.801C265.422 178.326 265.484 182.964 264.754 187.51C263.828 191.918 256.235 217.076 255.695 216.944C255.155 216.812 245.711 216.007 243.452 216.536C241.193 217.065 225.467 216.536 225.467 216.536C225.467 216.536 217.279 217.01 217.18 216.911C217.081 216.812 217.533 202.045 217.533 202.045L231.352 184.016L264.566 173.801Z" fill="white"/>
    <path d="M247.265 216.738C247.265 216.738 248.213 156.393 248.213 155.621C248.213 154.85 248.301 153.417 243.43 154.111C238.559 154.806 162.929 153.219 162.929 153.219L60.9936 155.18C60.9936 155.18 59.0541 166.322 60.2002 170.212C61.3462 174.102 59.8475 182.51 59.8475 187.116C59.8475 191.723 60.0238 202.335 60.2883 203.481C60.5528 204.627 59.1863 209.586 60.4646 210.644C61.743 211.702 127.356 211.14 127.356 211.14H201.19L201.984 217.642C211.902 217.322 208.398 217.488 217.203 216.937L217.555 202.071L235.606 177.826L237.733 216.132C238.722 216.784 239.859 217.181 241.039 217.289C242.306 217.179 247.265 216.738 247.265 216.738Z" fill="white"/>
    <path d="M266.771 158.748C266.958 159.211 267.156 159.123 262.638 161.955C258.451 164.578 255.883 165.382 250.582 166.683C248.808 167.112 248.654 167.267 248.665 166.804C248.742 155.078 249.216 154.307 247.342 153.679C246.835 153.514 222.525 153.789 221.6 153.613C221.732 153.26 222.757 151.034 223.131 151.089C224.729 151.354 226.294 150.406 228.101 150.208C233.997 149.601 232.829 148.797 238.637 149.546C243.441 150.164 240.587 149.282 250.703 149.646C251.221 149.646 252.753 149.348 254.01 149.271C257.646 149.006 262.826 146.34 263.057 147.166C265.404 154.483 264.159 150.582 265.404 153.778C266.074 155.368 266.534 157.039 266.771 158.748Z" fill="white"/>
    <path d="M252.5 115.859C256.434 128.532 261.393 126.736 253.349 129.149C247.761 130.824 245.734 130.395 240.676 130.339C237.91 130.339 238.901 131.232 240.114 125.678C241.138 120.994 240.786 121.799 243.188 116.553C244.169 114.427 244.29 114.03 244.566 114.118C248.213 115.374 251.674 112.895 251.927 113.644C252.079 114.392 252.271 115.131 252.5 115.859Z" fill="white"/>
    <path d="M184.529 119.725C185.476 123.703 187.835 127.891 187.526 128.662C184.407 135.671 186.766 134.073 184.044 131.649C182.534 130.304 177.652 125.257 174.599 124.365C173.497 124.056 173.641 124.265 173.707 123.263C173.883 120.155 174.203 117.907 174.104 116.067C174.074 115.565 174.145 115.063 174.313 114.59C177.079 115.692 175.701 115.097 178.17 116.684C183.911 120.353 184.297 118.656 184.529 119.725Z" fill="white"/>
    <path d="M200.925 119.052C209.058 116.594 210.425 114.831 209.83 115.878C205.422 123.592 206.931 121.631 205.697 123.427C205.37 124.048 205.241 124.756 205.327 125.453C205.414 126.151 205.713 126.806 206.182 127.328C206.821 127.868 207.383 128.43 207.989 129.069C208.221 129.29 208.254 128.992 206.424 132.463C205.62 134.006 205.664 134.26 205.036 134.304C201.73 134.502 199.096 136.056 192.385 135.119C190.831 134.91 192.385 134.348 189.905 129.301C187.316 124.033 188.958 127.207 187.878 124.54C184.517 116.187 185.806 123.658 200.925 119.052Z" fill="white"/>
    <path d="M242.537 109.82C244.323 110.845 244.367 110.789 241.524 116.641C237.799 124.355 239.496 125.854 237.799 124.432C236.53 123.356 235.098 122.488 233.556 121.865C230.944 120.399 230.735 118.382 227.01 116.994C218.613 113.853 222.514 114.558 217.191 113.423C213.951 112.729 212.343 113.544 212.563 112.806C213.665 109.28 213.411 109.588 214.767 107.748C217.467 103.99 217.059 104.883 217.864 103.274C218.448 102.172 221.974 102.436 221.974 102.293C225.137 102.535 222.305 102.084 230.493 104.497C232.785 105.224 232.465 103.968 242.537 109.82Z" fill="white"/>
    <path d="M245.677 85.9711C246.644 88.0791 247.339 90.3008 247.749 92.5831C246.867 92.484 241.137 88.671 233.974 88.0429C230.04 87.7123 230.073 88.2633 226.723 88.638C222.612 89.1008 222.006 91.6905 224.144 87.536C224.585 86.6764 225.18 85.6956 224.243 85.4752C223.307 85.2548 219.593 93.4647 218.832 94.137C216.65 96.0861 214.196 97.7082 211.548 98.9527C211.174 99.1511 211.196 98.8756 211.196 98.4899C211.328 97.2226 211.967 88.8914 212.022 88.4506C212.077 88.0098 212.11 88.5278 215.813 85.894C231.682 74.6205 238.294 78.9734 240.828 79.5795C242.096 79.833 245.082 84.8361 245.677 85.9711Z" fill="white"/>
    <path d="M193.828 104.223C193.917 104.752 193.674 104.433 193.233 104.642C192.065 105.215 191.151 105.138 189.002 105.513C181.96 105.072 180.285 104.301 177.001 102.934C176.185 102.592 176.207 102.493 176.516 101.832C179.029 96.3221 182.191 94.3164 182.643 95.22C183.076 95.7673 183.618 96.2191 184.234 96.5472C184.852 96.8753 185.528 97.0725 186.225 97.1265C187.348 97.4607 188.535 97.5175 189.685 97.2918C191.988 96.9061 191.889 96.9392 192.01 97.2918C193.795 103.165 192.98 98.7024 193.828 104.223Z" fill="white"/>
    <path d="M235.462 179.553C235.671 183.521 235.682 183.256 235.352 183.322C234.039 183.661 232.702 183.893 231.352 184.016C231.561 183.51 234.415 179.785 234.768 179.333C235.44 178.44 235.396 178.275 235.462 179.553Z" fill="#592466"/>
    <path d="M267.089 160.801C267.706 166.388 267.838 166.311 267.221 168.515C266.89 169.694 265.447 171.887 265.149 172.923C265.061 173.231 264.73 173.474 264.565 173.771C263.661 175.358 260.157 176.725 259.22 177.165C257.105 178.201 255.518 177.97 253.887 178.984C250.415 181.188 249.479 181.033 248.784 181.188C248.454 181.276 248.498 181.276 248.542 178.576C248.762 166.189 247.991 168.239 249.644 167.787C254.878 166.388 254.603 166.851 257.92 165.583C263.981 163.335 266.945 159.754 267.089 160.801Z" fill="#592466"/>
    <path d="M184.956 134.581C185.364 135.011 185.1 135.154 184.196 137.556C183.546 139.297 183.744 140.157 182.829 142.041C182.058 143.617 182.973 143.672 177.584 137.292C175.655 135 174.146 135.231 174.113 133.743C173.903 125.776 173.374 125.159 173.881 125.137C175.424 125.633 175.71 125.291 183.799 132.851C184.207 133.258 183.964 133.578 184.956 134.581Z" fill="#592466"/>
    <path d="M262.33 144.6C262.484 145.779 262.738 145.624 261.515 146.054C254.329 148.534 249.877 148.556 249.866 148.534C247.236 148.382 244.598 148.432 241.976 148.688C239.519 148.688 236.268 148.038 234.328 148.247C226.405 149.096 224.928 150.308 223.484 150.209C223.793 149.503 222.955 150.892 228.994 141.26C229.446 140.533 230.879 142.362 233.777 141.624C234.064 141.547 234.284 141.26 234.548 141.073C235.312 140.343 235.829 139.39 236.025 138.351C239.706 128.202 235.849 131.816 244.94 131.508C248.213 131.571 251.468 131.005 254.528 129.844C259.531 128.169 257.448 127.53 259.806 133.976C260.998 137.426 261.843 140.984 262.33 144.6Z" fill="#592466"/>
    <path d="M192.088 136.059C199.802 137.349 205.312 134.682 204.684 135.718C200.683 142.33 201.984 143.74 194.865 145.9C194.281 146.076 195.184 146.165 192.584 139.784C192.182 138.667 191.916 137.505 191.79 136.324C191.746 136.048 191.834 135.993 192.088 136.059Z" fill="#592466"/>
    <path d="M236.951 125.285C237.778 126.045 238.45 125.979 238.307 126.673C237.767 129.34 236.83 130.453 235.805 133.88C233.921 140.184 235.067 138.641 232.124 136.668C225.215 132.04 226.262 129.406 219.187 128.613C215.462 128.194 211.859 124.469 208.872 123.885C207.384 123.587 207.858 123.885 207.318 123.808C207.484 122.915 210.624 117.824 212.046 114.661C212.343 113.978 212.288 114.165 213.545 114C221.611 114.992 219.848 115.433 222.217 116.38C229.182 119.135 227.727 118.155 229.546 119.918C232.279 122.607 231.981 122.474 233.182 122.992C234.555 123.546 235.828 124.319 236.951 125.285Z" fill="#592466"/>
    <path d="M251.035 110.704C251.167 110.957 251.63 112.346 251.354 112.511C250.344 112.863 249.313 113.154 248.269 113.382C247.439 113.489 246.598 113.489 245.767 113.382C244.665 113.382 244.72 113.272 244.908 112.666C247.001 105.855 245.657 110.539 246.55 105.04C246.825 103.332 246.55 104.026 246.66 103.034C246.66 102.747 247.046 101.866 246.219 101.701C244.908 101.447 245.117 110.373 244.147 109.558C242.142 107.949 241.458 107.971 238.031 106.087C236.264 104.95 234.296 104.157 232.235 103.75C222.592 101.392 224.697 100.984 219.506 101.546C218.404 101.668 217.964 103.111 219.595 97.2154C219.98 95.8049 221.204 91.9258 222.537 91.3197C224.454 90.4602 223.639 90.1626 226.592 89.6777C231.662 88.8072 232.929 88.708 237.469 89.7769C239.95 90.4217 242.37 91.2846 244.698 92.3556C248.632 94.4274 248.004 93.3143 248.875 98.2513C250.12 105.238 249.801 108.235 251.035 110.704Z" fill="#592466"/>
    <path d="M235.362 75.7662C236.464 76.1519 239.891 78.0804 238.878 77.8269C232.53 76.2511 229.092 77.8269 222.579 80.4828C221.755 80.7684 221.002 81.231 220.375 81.8382C219.626 82.4994 219.163 82.235 216.959 83.8439C212.407 87.1499 212.661 86.9736 212.551 86.9956C212.253 87.0948 212.319 86.9075 212.33 86.9295C213.686 79.3697 214.314 79.491 213.95 78.3008C213.829 77.9151 213.95 78.0584 216.441 77.4082C227.549 74.565 229.202 73.5953 235.362 75.7662Z" fill="#592466"/>
    <path d="M229.359 136.882C230.108 137.345 226.229 142.921 223.22 147.77C213.424 163.551 216.608 162.824 207.991 164.179C188.331 167.276 181.091 164.697 168.594 164.973C167.624 164.973 167.768 158.878 167.79 158.526C167.812 158.173 167.79 158.118 168.131 157.964C171.085 156.619 170.589 155.859 171.338 155.528C172.087 155.198 173.2 154.889 176.584 153.831C178.424 153.247 183.835 151.451 184.992 150.966C194.238 147.131 201.048 146.856 203.142 141.467C203.649 140.144 208.949 130.788 210.911 126.744C211.098 126.358 210.911 126.601 213.655 128.133C217.137 130.061 216.84 129.83 221.744 130.877C224.951 131.538 226.416 135.031 229.359 136.882Z" fill="white"/>
    <path d="M226.989 38.8973C227.121 43.9555 228.091 46.2697 227.298 49.0578C226.118 52.9478 225.799 53.4658 224.565 54.5678C222.096 56.904 224.653 57.6644 221.391 59.4827C221.27 59.5599 221.226 59.4827 221.237 59.3835C221.588 54.9437 221.051 50.4785 219.661 46.2477C218.922 44.4183 219.11 43.4596 218.129 43.8673C217.148 44.2751 220.443 52.3748 220.013 57.2236C219.881 58.7774 219.022 60.1109 219.077 61.6316C219.143 63.505 217.644 65.2682 217.06 65.3674C216.079 65.5327 215.231 65.3674 214.459 65.5988C212.938 65.9294 212.332 67.0976 210.712 66.7008C209.61 66.3923 211.341 63.3067 211.131 60.9043C210.139 49.6749 210.029 47.6803 205.28 41.1344C202.723 37.63 200.133 36.8035 196.937 35.1835C189.036 31.2163 191.978 29.4642 184.496 26.5328C183.588 26.0572 182.603 25.7474 181.587 25.6182C180.485 25.6182 181.829 25.8937 179.746 25.5631C179.305 25.4969 179.371 23.9652 180.848 23.1938C183.702 21.7391 183.669 19.8877 187.063 19.8877C188.992 19.6673 190.755 21.4306 194.436 23.1938C196.331 24.1194 197.026 25.2435 198.315 26.4998C199.116 27.1714 200.083 27.6166 201.114 27.7891C202.062 28.1528 202.602 28.7478 203.02 28.1197C203.439 27.4916 202.216 26.7973 201.378 26.5108C200.078 26.0369 199.88 26.3565 198.778 25.1443C196.1 22.202 195.582 22.4334 194.304 21.7832C193.025 21.133 193.951 21.4967 192.728 20.8134C192.331 20.582 192.298 20.5269 192.618 20.1853C192.76 20.0206 192.942 19.8955 193.147 19.8216C196.199 18.5984 197.874 19.7335 200.541 20.7142C204.321 22.1138 204.111 18.4111 211.109 21.0008C214.856 22.3783 216.509 23.348 219.077 27.2491C221.402 30.7866 222.846 30.8196 224.961 33.7069C226.058 35.2418 226.754 37.0257 226.989 38.8973Z" fill="#592466"/>
    <path d="M218.272 95.9922C218.272 96.2236 216.971 101.172 216.586 102.219C215.88 104.18 214.492 105.238 212.552 108.224C211.836 109.326 211.594 110.428 210.591 114.065C210.403 114.77 210.117 114.065 209.368 114.583C206.657 116.434 200.034 118.187 199.681 118.33C196.97 119.432 188.661 119.829 187.559 119.509C185.267 118.848 186.545 122.297 184.253 109.999C184.219 109.879 184.146 109.774 184.047 109.699C183.948 109.624 183.826 109.583 183.702 109.583C183.577 109.583 183.456 109.624 183.357 109.699C183.258 109.774 183.185 109.879 183.151 109.999C183.303 112.713 183.671 115.41 184.253 118.065C184.55 119.553 176.748 114.55 176.429 114.418C173.552 113.183 174.037 115.696 176.054 104.114C176.329 102.516 176.23 104.489 182.17 105.712C188.562 107.023 189.884 106.351 191.438 106.23C192.259 106.188 193.06 105.966 193.785 105.58C194.391 105.425 193.917 106.45 194.887 108.786C196.331 112.203 199.978 115.398 202.601 114.44C208.828 112.059 209.39 107.133 210.745 100.521C210.855 99.9814 211.12 100.114 212.949 99.4194C214.811 98.4193 216.591 97.2733 218.272 95.9922Z" fill="#592466"/>
    <path d="M204.806 70.2706C205.908 72.2102 212.443 80.0674 212.365 80.354C211.1 84.9331 210.379 89.6455 210.217 94.3935C209.952 98.2836 208.2 107.959 206.359 109.822C204.155 112.026 204.299 112.202 201.852 113.028C200.75 113.414 197.191 111.309 195.89 107.518C195.362 105.389 194.993 103.223 194.788 101.039C194.601 99.8043 193.543 99.0439 192.86 93.5449C192.618 91.5173 193.014 92.5972 194.271 94.3714C196.871 98.0521 197.213 98.504 197.731 98.1513C198.48 97.6334 197.268 96.3881 197.092 96.1346C192.033 88.641 188.573 83.8583 185.311 83.4506C176.837 82.3486 176.11 85.2579 169.101 79.0426C168.869 78.8332 169.872 78.0838 169.674 76.0231C169.743 75.687 169.731 75.3391 169.636 75.009C169.543 74.679 169.37 74.3766 169.134 74.1276C168.671 73.753 169.696 73.4885 170.39 73.4885C171.713 73.3783 171.944 74.5244 172.748 73.3452C174.115 71.3616 175.129 74.1276 178.258 74.9541C178.765 75.0864 179.085 75.1415 179.206 74.6786C179.471 73.6758 177.983 73.8521 176.231 72.3975C175.865 72.032 175.427 71.7456 174.946 71.556C174.464 71.3665 173.948 71.2778 173.432 71.2955C172.671 71.2294 172.23 72.1661 171.768 72.3093C171.305 72.4526 171.349 72.1551 170.115 72.144C169.553 72.144 170.346 71.5269 170.037 70.6012C169.641 69.4441 168.638 69.3229 167.371 68.8711C166.985 68.7278 167.47 68.805 167.459 68.3862C167.448 67.9674 167.944 65.3006 167.955 65.2786C168.065 64.7055 168.34 65.5541 169.762 65.2786C170.588 65.4298 171.441 65.2771 172.164 64.8488C173.266 64.0443 172.264 63.2399 171.062 63.6917C168.241 64.7165 165.398 61.6199 167.525 60.2314C168.726 59.449 171.933 59.7575 172.098 56.2972C172.098 55.8895 172.241 55.9887 172.87 56.2972C173.498 56.6058 172.98 58.2147 174.556 60.044C175.074 60.6965 175.748 61.2073 176.516 61.5289C177.285 61.8506 178.123 61.9724 178.95 61.8834C179.779 61.7942 180.572 61.497 181.254 61.0193C181.936 60.5417 182.487 59.8991 182.854 59.1514C183.504 57.829 185.763 57.3662 187.262 57.6417C190.965 58.3139 190.733 58.1486 190.402 58.8539C190.072 59.5592 189.84 60.1542 189.521 60.7934C189.323 61.1791 189.047 61.5207 188.849 61.8954C188.055 63.4272 189.367 63.846 191.053 64.7386C194.788 66.7552 194.359 65.8406 197.059 60.9697C197.621 60 197.709 61.0799 198.304 60.1763C198.644 59.5213 199.142 58.9621 199.755 58.5501C200.368 58.138 201.073 57.8863 201.808 57.818C209.137 57.245 208.167 64.5512 202.91 69.5103C201.885 70.469 199.736 70.0502 198.502 69.2348C198.119 68.9091 197.774 68.5393 197.477 68.1327C196.981 67.6699 196.023 68.0776 196.849 69.4111C197.676 70.7445 200.298 71.4608 201.489 71.4167C204.442 71.3286 204.133 69.0033 204.806 70.2706ZM205.357 62.777C205.93 62.9533 206.172 61.675 205.72 60.8926C205.351 60.4226 204.884 60.039 204.351 59.7687C203.817 59.4984 203.232 59.3479 202.635 59.3277C201.18 58.9861 198.403 61.7081 200.354 63.9011C200.971 64.5953 201.775 65.0031 201.048 65.8516C200.045 66.9536 201.301 67.5817 201.951 66.8434C203.715 64.8157 201.544 63.2399 201.312 62.9754C200.265 61.8734 201.852 60.1983 203.395 60.7052C205.709 61.4656 204.321 62.4464 205.357 62.777ZM181.631 77.4557C182.292 76.9818 183.405 75.957 182.733 75.6594C182.325 75.4831 182.435 75.2296 180.98 76.6071C180.253 77.2463 180.925 77.9736 181.631 77.4557ZM179.36 76.4419C179.944 77.5439 183.008 74.6456 181.564 74.1166C181.035 73.9293 181.057 74.3921 180.264 75.2186C179.944 75.4941 179.03 75.8247 179.36 76.4419Z" fill="white"/>
    <path d="M209.047 54.3453C209.543 58.6541 210.689 61.1336 208.738 66.0596C207.548 69.0681 208.738 69.0901 208.033 69.6742C207.008 70.5117 207.306 71.6357 206.931 71.1508C203.834 67.1506 206.501 69.6521 208.33 62.9079C208.579 61.557 208.386 60.162 207.779 58.9296C207.284 57.1554 203.206 55.7889 200.242 56.9791C199.658 57.2105 199.889 57.2546 197.52 58.4888C197.288 58.61 197.729 58.4888 195.481 57.8717C191.503 56.8909 192.902 57.5301 192.594 56.384C192.463 55.7571 192.573 55.1039 192.902 54.5547C193.63 53.067 192.748 52.4388 191.15 48.9565C190.269 47.05 193.288 46.0582 191.007 44.3391C189.828 43.4575 192.484 41.8816 191.327 41.3196C190.423 40.8788 190.081 41.1433 189.629 40.5813C188.087 38.7079 186.643 40.438 185.144 39.1376C183.238 37.4846 182.94 37.2642 182.235 37.4516C177.827 38.5536 178.058 37.7932 175.722 37.2863C175.459 37.1989 175.173 37.2036 174.913 37.2997C174.653 37.3958 174.433 37.5777 174.29 37.8152C173.838 38.5315 173.011 38.1238 171.876 37.694C169.948 36.9447 170.774 39.4462 168.669 38.212C165.363 36.2394 164.669 31.0269 164.812 30.6302C165.519 31.7028 166.389 32.6583 167.391 33.4623C167.717 34.0809 168.007 34.7174 168.262 35.3688C168.537 35.9418 169.364 35.8647 169.242 35.2366C168.395 33.2521 168.018 31.0985 168.14 28.9441C168.213 28.1647 168.398 27.3999 168.691 26.674C168.87 27.6578 169.204 28.6066 169.683 29.4841C169.948 29.9469 169.683 30.3657 170.179 31.9305C170.388 32.6028 171.281 32.2832 171.149 31.655C170.922 30.9864 170.899 30.2651 171.083 29.5833C171.204 29.3408 171.083 27.9523 172.57 27.9854C175.116 27.9854 173.43 28.9111 174.774 32.0187C175.645 34.1015 176.538 32.9664 176.053 32.0187C174.752 29.407 175.777 24.8777 176.053 24.3047C176.391 25.6369 177.08 26.8543 178.047 27.8311C178.875 28.8447 179.612 29.9288 180.251 31.071C180.332 31.1844 180.45 31.2656 180.584 31.3C180.719 31.3344 180.861 31.3197 180.985 31.2588C181.11 31.1977 181.209 31.0942 181.264 30.967C181.319 30.8397 181.328 30.6969 181.287 30.5641C180.946 28.9551 178.29 26.9495 179.855 26.8283C182.422 26.6189 185.001 27.9854 187.458 29.6384C187.745 29.8257 187.458 29.7596 186.169 30.4979C185.391 31.2637 184.748 32.1538 184.263 33.1317C183.326 34.8729 184.803 35.2806 184.913 34.5864C185.289 33.3456 186.025 32.2446 187.029 31.4236C188.638 30.7294 188.682 30.4208 188.979 30.7404C192.869 35.0051 193.255 34.8619 194.93 35.6663C195.679 36.019 192.638 35.8867 191.315 36.6581C190.489 37.132 189.861 37.3855 190.213 37.9365C190.566 38.4875 190.842 38.0797 191.966 37.5618C192.583 37.2753 192.682 37.3304 194.17 37.1981C196.814 36.9557 197.123 36.8124 197.894 37.1981C200.958 38.774 201.807 38.796 205.035 43.0938C205.642 43.8983 202.975 41.9918 199.525 44.0085C198.423 44.6697 197.95 44.2179 195.845 43.6889C195.195 43.5236 194.743 44.0305 195.128 44.4824C195.514 44.9342 196.23 44.9232 197.542 45.4411C199.415 46.2015 200.109 44.6807 201.95 44.4934C204.661 44.2069 204.352 44.846 205.608 44.9342C206.369 44.9893 206.303 45.7386 207.515 47.601C208.87 49.8271 208.727 51.4911 209.047 54.3453ZM204.991 52.527C207.261 52.6813 206.347 50.9952 204.826 51.2156C202.997 51.4801 203.195 51.0944 201.167 50.6866C200.135 50.6013 199.097 50.7599 198.137 51.1495C197.487 51.4911 198.005 52.1633 198.456 52.1192C199.832 51.7279 201.3 51.8253 202.611 52.3947C203.548 52.8356 203.933 52.5931 204.991 52.527Z" fill="#AA3CC5"/>
    <path d="M201.685 186.056C203.426 185.967 204.66 181.592 203.768 180.81C202.016 179.267 201.476 180.402 201.564 179.157C201.564 178.253 201.476 178.231 202.401 178.198C208.198 177.989 205.608 188.987 200.296 187.466C199.613 187.268 199.536 186.827 200.065 186.364C200.594 185.901 200.385 186.122 201.685 186.056Z" fill="white"/>
    <path d="M199.262 179.344C200.551 178.385 200.694 177.889 199.791 181.878C198.887 185.868 198.633 188.292 194.666 189.328C189.751 190.606 181.299 190.43 178.93 186.022C177.968 183.735 177.487 181.273 177.519 178.793C180.88 181.912 194.611 182.815 199.262 179.344Z" fill="white"/>
    <path d="M199.857 176.932C199.857 177.284 199.56 177.483 198.38 178.375C198.204 178.507 198.028 178.067 197.962 177.868C196.959 174.827 185.928 174.992 181.927 175.664C178.985 176.182 178.919 178.21 178.621 177.604C178.015 176.579 177.927 176.502 178.214 176.05C178.875 175.102 181.586 173.923 181.619 174.188C186.214 173.526 199.725 172.237 199.857 176.932Z" fill="white"/>
    <path d="M199.725 191.785C199.439 192.81 199.373 193.989 198.326 194.595C193.741 197.438 181.531 196.568 179.448 193.713C179.21 193.448 179.029 193.137 178.914 192.8C178.798 192.464 178.751 192.107 178.776 191.751C178.8 191.396 178.896 191.049 179.057 190.731C179.218 190.413 179.441 190.131 179.713 189.9C180.738 189.074 181.046 189.702 181.509 189.9C182.71 190.374 178.589 193.449 190.524 193.735C193.631 193.813 194.281 193.449 195.626 192.501C196.463 191.917 197.334 191.256 196.882 190.297C196.706 189.933 196.97 189.933 197.676 189.449C198.072 189.173 199.505 190.275 199.725 191.785Z" fill="white"/>
    <path d="M195.866 59.1628C196.132 59.2095 196.384 59.315 196.605 59.4714C192.792 65.1797 194.842 65.1467 190.61 63.0308C189.717 62.579 189.905 63.0308 191.943 58.7991C192.153 58.3804 192.009 58.3914 195.866 59.1628Z" fill="#AA3CC5"/>
    <path d="M195.67 190.697C195.869 191.083 193.841 192.427 191.957 192.427C190.304 192.427 182.931 192.427 182.832 190.796C182.832 190.036 183.614 190.708 184.617 190.884C191.097 191.986 195.439 190.245 195.67 190.697Z" fill="white"/>
    <path d="M187.988 92.3308C189.211 91.6696 192.131 88.9366 191.768 91.4602C190.985 96.871 193.972 95.747 188.175 96.5074C184.406 95.9343 184.594 95.9233 182.896 94.4136C186.103 92.452 184.737 94.083 187.988 92.3308Z" fill="#592466"/>
    <path d="M189.983 49.5736C191.889 53.9045 192.187 52.8135 191.393 54.9073C190.6 57.0011 193.134 57.3868 188.517 56.5162C187.036 56.17 185.534 55.916 184.021 55.7559C183.304 55.7559 184.153 54.4004 182.522 52.2956C180.891 50.1907 177.012 48.9014 174.246 52.7584C173.254 54.1249 173.618 55.3261 172.946 54.9624C172.667 54.764 172.334 54.6574 171.992 54.6574C171.651 54.6574 171.318 54.764 171.039 54.9624C170.631 55.2159 170.852 54.7751 169.937 53.5518C168.725 51.976 167.524 52.549 167.524 51.7997C167.524 47.7333 167.292 49.21 169.651 48.4937C170.246 48.3284 170.279 46.6753 169.133 46.488C168.339 46.3668 168.405 46.9619 168.196 47.039C167.799 47.1933 167.766 47.039 167.799 46.7855C168.097 44.4558 168.671 42.1697 169.507 39.9752C169.673 39.5123 170.257 39.9752 171.171 39.0274C171.645 38.4985 171.932 39.5344 173.717 39.4903C175.502 39.4462 174.819 38.2671 176.097 38.7079C180.23 40.2176 182.037 37.8373 183.249 39.1707C185.971 42.1351 187.768 40.4711 188.451 41.2866C189.553 42.5428 190.159 41.9918 189.883 42.6861C188.781 45.364 191.085 45.1436 190.468 45.9921C190.101 46.5041 189.864 47.0982 189.78 47.7226C189.695 48.3469 189.764 48.9824 189.983 49.5736ZM183.062 49.5075C183.062 49.232 183.404 49.1438 183.338 48.9014C183.249 47.8655 182.236 47.6671 181.949 47.4467C181.255 46.8737 180.351 47.4468 179.635 46.9619C179.172 46.6643 177.651 47.2814 177.343 46.6423C177.297 46.5485 177.229 46.4675 177.144 46.4071C177.061 46.3466 176.961 46.3086 176.858 46.2965C176.754 46.2844 176.649 46.2987 176.554 46.3379C176.457 46.3771 176.372 46.4402 176.307 46.5211C176.119 46.7304 176.064 46.6643 175.888 46.5211C175.106 45.9039 174.995 46.8627 174.544 46.9508C174.434 46.9839 174.334 47.0411 174.25 47.1182C174.167 47.1953 174.101 47.2902 174.059 47.3959C174.016 47.5018 173.998 47.6158 174.006 47.7294C174.014 47.8431 174.047 47.9537 174.103 48.0528C174.34 48.409 174.673 48.6918 175.062 48.869C175.452 49.0463 175.883 49.1109 176.307 49.0557C177.332 48.7692 176.615 50.0585 180.715 48.7361C182.136 48.2732 182.324 49.3532 182.522 49.4304C182.699 49.4706 182.88 49.4964 183.062 49.5075Z" fill="white"/>
    <path d="M181.112 52.5829C181.74 53.1564 182.2 53.8906 182.442 54.7063C182.684 55.522 182.698 56.3883 182.484 57.2116C182.27 58.0349 181.834 58.7841 181.225 59.3783C180.617 59.9725 179.857 60.3892 179.029 60.5835C176.737 60.9802 174.312 59.206 174.389 55.5363C174.224 52.4397 178.621 50.0263 181.112 52.5829ZM180.957 56.991C181.872 56.6493 180.825 55.0955 178.059 55.1065C177.034 55.1947 175.084 55.5253 175.392 56.4951C175.535 56.9689 176.263 56.7044 176.637 56.6493C177.012 56.5942 176.847 56.9248 177.21 57.9828C177.475 58.7211 178.863 59.0848 178.941 57.7624C178.985 57.3783 178.899 56.9906 178.698 56.6604C178.279 55.9881 180.296 57.2003 180.99 56.9579L180.957 56.991Z" fill="white"/>
    <path d="M178.787 141.207C182.093 145.329 182.093 143.775 179.768 147.213C179.768 147.213 155.259 144.227 155.237 144.216C153.242 143.588 153.033 137.064 152.824 135.256C152.008 127.873 155.733 123.564 162.742 102.406C162.742 102.406 164.946 95.1105 164.946 95.0774C167.778 86.3496 166.753 90.6694 166.863 87.2973C166.863 86.7353 166.621 86.6361 164.604 85.0933C162.973 83.815 163.381 82.8232 161.298 81.8865C158.863 80.7845 157.882 77.3462 160.064 76.134C160.927 75.7824 161.747 75.3351 162.51 74.8006C166.136 72.0786 164.626 72.5966 167.183 74.0292C167.808 74.3968 168.321 74.926 168.67 75.561C168.582 77.765 168.67 77.3242 168.064 78.305C167.976 78.4482 167.37 78.1507 165.86 77.7099C165.309 77.5446 166.962 75.8034 165.75 75.4067C164.78 75.0871 165.023 77.787 164.329 76.8834C164.227 76.7602 164.091 76.6687 163.939 76.6199C163.787 76.5711 163.624 76.5669 163.469 76.6079C163.353 76.7217 163.269 76.8644 163.227 77.0212C163.184 77.1782 163.184 77.3436 163.227 77.5005C163.767 79.2968 162.764 80.4428 163.568 80.6192C164.67 80.8726 164.296 78.4152 165.023 78.7237C168.009 79.9249 167.491 79.5061 169.354 80.9277C171.668 82.713 173.365 83.5615 173.288 85.6223C173.288 87.0549 172.968 87.5287 173.652 87.7381C174.335 87.9475 174.599 86.9006 174.665 86.0961C174.82 84.2337 174.081 83.7929 174.82 84.0354C177.894 85.0272 178.5 84.1015 178.566 84.917C178.787 87.683 176.792 89.4021 176.043 94.835C175.711 98.2691 175.155 101.678 174.379 105.04C171.789 118.991 173.464 112.048 172.638 119.366C172.032 124.776 172.098 122.605 172.417 131.091C172.891 143.599 173.023 139.554 173.09 141.262C173.09 141.409 173.148 141.549 173.25 141.652C173.354 141.755 173.494 141.813 173.641 141.813C173.787 141.813 173.927 141.755 174.031 141.652C174.133 141.549 174.192 141.409 174.192 141.262C174.258 140.227 174.092 137.064 174.192 136.491C175.393 136.711 178.721 141.185 178.787 141.207Z" fill="white"/>
    <path d="M174.379 152.114C178.787 148.422 178.522 148.323 178.39 150.67C178.39 151.772 178.456 151.772 178.181 151.937C176.404 152.67 174.586 153.299 172.737 153.822C172.549 153.822 172.373 153.822 172.56 153.656C173.178 153.116 174.379 152.136 174.379 152.114Z" fill="white"/>
    <path d="M134.497 182.476C134.199 182.707 85.8873 172.426 85.8652 172.415C86.5485 171.511 135.808 145.702 139.544 143.575C139.963 143.333 177.111 148.171 177.387 148.314C176.924 148.821 146.101 173.021 134.497 182.476Z" fill="white"/>
    <path d="M166.027 60.282C165.531 60.9432 165.2 61.2848 164.748 60.4693C164.297 59.6538 163.095 57.2184 164.021 55.345C164.947 53.4716 167.041 52.2814 168.749 53.7801C169.277 54.2062 169.707 54.7404 170.012 55.3467C170.316 55.9532 170.487 56.6176 170.512 57.2955C170.6 57.8686 170.721 58.0339 169.862 58.2102C168.422 58.5487 167.099 59.2637 166.027 60.282Z" fill="white"/>
    <path d="M169.253 153.878C169.771 155.046 168.658 156.446 165.143 156.666C161.429 156.887 160.889 154.363 162.939 153.195C165.297 151.862 168.449 152.049 169.253 153.878Z" fill="#AA3CC5"/>
    <path d="M168.605 70.9636C169.167 71.724 167.976 72.286 166.974 72.1648C165.971 72.0436 165.629 71.173 164.329 71.6468C163.436 71.9774 163.139 72.4733 161.078 73.939C160.384 74.4349 159.249 74.6112 158.543 75.4047C158.279 75.6912 158.279 75.2283 158.18 74.6443C158.18 72.2199 160.869 71.9554 164.031 70.0269C164.369 69.8426 164.749 69.7461 165.133 69.7461C165.518 69.7461 165.897 69.8426 166.235 70.0269C167.932 70.5558 168.406 70.6881 168.605 70.9636Z" fill="white"/>
    <path d="M166.566 64.1539C167.249 64.4845 167.018 65.0465 166.93 65.5645C166.731 66.6665 164.659 64.2311 161.508 66.3028C161.188 66.5122 159.59 67.1954 158.665 67.6583C157.739 68.1211 157.221 65.6637 162.114 64.0437C164.152 63.3715 165.288 64.1098 166.059 63.8894C166.268 63.8454 166.5 64.1539 166.566 64.1539Z" fill="white"/>
    <path d="M166.213 67.2157C166.753 67.3038 166.378 68.3177 166.213 68.4389C166.048 68.5601 164.527 67.8769 163.304 68.8026C162.357 69.3776 161.366 69.875 160.339 70.2903C158.202 71.4584 158.378 71.778 158.135 71.227C157.551 69.596 158.918 68.7805 160.56 68.2405C161.552 67.9209 162.83 66.8189 163.568 66.874C164.462 66.8507 165.355 66.966 166.213 67.2157Z" fill="white"/>
    <path d="M162.4 160.643C162.4 161.822 162.477 163.497 162.488 163.718C162.499 163.938 162.488 164.015 161.452 164.114C160.506 164.247 159.553 164.324 158.598 164.346C154.95 164.853 153.088 162.957 150.785 162.847C148.481 162.737 148.052 161.8 147.082 162.66C146.882 162.941 146.608 163.16 146.292 163.297C145.975 163.432 145.627 163.48 145.286 163.431C144.602 163.431 144.261 163.883 144.294 164.214C144.294 164.875 145.528 164.776 146.123 164.776C146.718 164.776 145.781 165.426 146.498 165.812C147.027 166.098 147.159 165.238 147.985 164.015C148.14 163.784 148.581 163.916 148.812 164.225C149.043 164.533 149.01 164.985 148.812 165.701C148.724 166.12 148.614 166.748 147.412 167.288C146.784 167.596 146.077 167.707 145.385 167.608C144.701 167.476 144.106 167.531 143.677 167.453C142.663 167.266 142.299 166.902 141.98 165.856C140.811 161.91 141.076 162.55 142.068 161.811C142.591 161.379 143.031 160.857 143.368 160.268C143.445 160.147 145.495 158.064 145.517 158.064C145.958 157.635 145.517 157.029 144.922 157.282C143.831 157.915 142.858 158.731 142.046 159.695C140.944 161.238 139.577 161.249 139.842 163.178C139.963 164.28 140.106 163.971 140.249 165.029C140.327 165.591 139.687 165.305 139.489 165.327C137.538 165.525 138.078 161.602 138.387 159.673C138.53 158.825 141.627 156.797 142.332 155.453C142.402 155.363 142.441 155.253 142.443 155.14C142.446 155.027 142.412 154.916 142.346 154.823C142.281 154.731 142.187 154.661 142.08 154.626C141.972 154.591 141.856 154.591 141.748 154.626C141.307 154.913 141.307 154.979 137.781 158.12C136.348 159.387 137.45 160.852 136.095 161.624C134.53 163.272 132.793 164.75 130.915 166.032C129.968 166.671 128.59 166.484 128.469 165.778C128.304 164.82 129.637 164.059 131.279 162.88C134.1 160.852 134.089 159.299 135.687 158.538C137.285 157.778 136.987 156.731 140.382 153.976C140.777 153.748 141.146 153.478 141.484 153.172C142.057 152.598 141.153 150.273 135.841 156.566C135.257 157.26 135.059 157.006 133.197 158.77C132.095 159.817 131.896 159.486 132.557 158.197C135.588 152.235 134.761 155.111 137.726 151.794C138.497 150.934 139.544 149.866 140.767 150.053C142.464 150.328 143.732 149.612 146.277 150.846C150.685 152.973 148.305 151.276 154.586 153.943C156.303 154.603 158.058 155.155 159.843 155.596C160.504 155.772 160.074 156.907 162.234 157.91C163.028 158.274 162.367 158.505 162.4 160.643Z" fill="white"/>
    <path d="M161.463 165.711C161.033 166.152 164.185 163.507 136.117 186.175C135.423 186.726 135.29 186.704 135.268 186.285C135.059 183.497 135.147 183.795 134.971 183.74C135.5 183.001 151.501 170.516 156.647 166.317C157.121 165.909 157.143 166.119 161.463 165.711Z" fill="white"/>
    <path d="M126.993 106.723C140.372 145.293 139.688 142.053 139.027 142.417C139.027 142.417 87.3321 169.967 86.8362 170.099C85.591 170.385 87.8391 174.65 69.6119 126.206C67.5953 120.861 65.8651 117.533 68.3997 116.542C76.1137 113.544 98.5836 103.714 121.031 94.7109C123.379 95.0746 123.246 95.9452 126.993 106.723Z" fill="#E0ACEC"/>
    <path d="M134.035 186.39C134.123 187.492 132.547 186.819 117.505 183.491C83.7612 176.009 85.304 176.439 85.2489 175.127C85.1828 173.562 85.0505 173.452 85.5685 173.562C139.6 185.442 133.748 182.511 134.035 186.39Z" fill="white"/>
    <path d="M123.996 119.627C126.432 125.82 126.773 123.869 111.456 131.429C110.585 131.87 85.0075 144.653 83.9055 144.653C82.528 144.554 82.4949 144.785 80.0595 138.173C79.6187 136.994 79.4424 136.41 81.7566 135.033C85.1507 133.005 93.8786 129.258 115.147 119.329C121.539 116.332 122.321 115.395 123.996 119.627ZM109.274 129.743C110.442 128.928 109.527 127.275 108.634 126.184C107.742 125.093 106.673 126.084 95.0357 131.374C82.0321 137.325 82.7263 136.763 82.55 138.184C83.9606 142.692 81.999 142.372 99.8184 134.184C107.477 130.68 108.194 130.503 109.274 129.743Z" fill="white"/>
    <path d="M65.8427 119.254C65.8427 119.254 85.3702 171.048 85.1168 171.511C84.5676 172.005 84.2187 172.683 84.136 173.417C84.1225 173.467 84.104 173.514 84.0809 173.561C83.6731 173.153 79.3313 160.821 69.6336 135.112C64.6085 121.8 63.782 121.381 65.8427 119.254Z" fill="white"/>
    <path d="M269.051 164.546C269.375 168.128 268.269 171.693 265.976 174.464C264.709 176.139 268.775 178.343 263.574 194.641L260.984 202.047C260.378 203.48 260.422 204.482 258.967 209.111C258.306 210.837 257.743 212.6 257.281 214.389C256.631 216.715 256.587 217.233 255.959 217.574C255.331 217.916 254.626 217.486 255.099 216.307C255.915 214.334 255.992 212.747 256.785 210.609C257.679 208.131 258.415 205.599 258.99 203.028C261.249 194.829 265.811 187.996 264.5 176.37C264.433 175.753 263.904 176.987 261.844 177.803C259.166 178.905 260.345 178.729 257.05 179.621C255.448 179.977 253.919 180.606 252.532 181.484C252.057 181.819 251.532 182.079 250.978 182.255C250.237 182.553 249.451 182.72 248.653 182.751C248.157 182.751 248.421 212.847 247.936 216.913C247.87 217.398 247.066 217.64 246.834 217.045C246.515 216.109 247.496 162.738 247.507 162.474C247.518 162.21 247.418 162.232 247.275 162.397C244.472 165.811 241.878 169.391 239.506 173.119C239.76 173.836 239.627 172.017 241.203 216.505C241.203 217.321 241.203 217.706 240.685 217.739C239.958 217.739 240.035 217.288 239.991 216.02L238.647 174.144C238.305 174.42 236.443 177.031 236.443 177.053C236.288 177.263 236.2 175.423 237.721 202.058C238.536 216.384 238.823 217.574 237.666 217.1C237.093 216.869 235.693 185.142 235.693 185.076C235.693 184.393 234.349 185.396 231.55 185.506C229.467 185.583 231.34 184.051 220.089 198.983C217.554 202.289 218.094 199.545 217.885 211.811C217.939 213.612 217.884 215.415 217.719 217.21C217.51 218.026 216.617 217.739 216.617 217.078C216.617 216.417 217.058 203.634 217.003 203.226C216.929 203.257 216.862 203.302 216.805 203.358C207.989 214.918 211.096 210.202 210.413 217.607C210.413 218.092 209.543 218.037 209.443 217.684C209.3 217.155 209.333 217.244 209.311 212.472C209.311 211.623 209.454 211.888 205.642 211.899C201.443 211.899 201.597 211.678 201.696 212.384C202.501 218.191 202.468 217.828 202.313 218.059C202.267 218.162 202.189 218.247 202.091 218.303C201.993 218.359 201.879 218.381 201.768 218.368C201.656 218.354 201.551 218.305 201.468 218.228C201.387 218.151 201.331 218.049 201.311 217.938C201.311 217.938 200.903 214.191 200.649 212.604C200.583 212.141 200.649 211.965 199.437 211.943C186.345 211.778 67.1969 212.285 60.4416 211.491C60.1772 211.491 60.089 211.249 60.0559 211.028C60.0229 210.808 60.0559 210.543 60.3425 210.532C60.629 210.521 208.099 210.984 208.937 210.819C209.41 210.731 209.289 210.907 209.278 207.777C209.278 205.033 209.41 204.879 208.903 204.879C202.468 204.879 60.8824 204.604 60.2543 204.571C59.8906 204.571 59.8245 204.449 59.7915 204.229C59.7584 204.008 59.527 203.667 60.1331 203.579C64.0231 203.028 196.164 203.909 208.463 203.711C208.798 203.725 209.13 203.65 209.427 203.494C209.723 203.337 209.972 203.104 210.149 202.818C218.171 192.063 246.261 155.432 246.427 155.058C246.702 154.518 247.121 154.815 236.255 154.859C219.923 154.925 220.981 154.771 220.772 155.135C219.439 157.581 219.152 157.746 218.568 158.683C217.609 160.336 217.653 160.887 216.573 162.088C213.598 165.46 210.435 165.042 203.779 166.155C187.095 168.943 171.744 164.788 168.129 165.978C166.73 166.441 164.603 166.651 163.92 166.089C163.435 165.692 163.435 166.089 153.131 174.42C139.047 185.881 142.585 182.464 139.213 185.44C137.009 187.368 135.091 188.691 132.248 188.04C83.4625 176.954 85.5673 178.277 83.4845 175.279C82.7021 174.177 76.1231 156.093 76.1121 156.071C75.9248 155.531 76.1121 155.741 71.2082 155.763C60.2984 155.763 61.4334 155.763 60.9816 155.763C60.5298 155.763 60.5959 155.509 60.5518 155.311C60.5415 155.208 60.5695 155.105 60.6305 155.021C60.6916 154.939 60.7813 154.88 60.8824 154.859C61.4004 154.705 65.6982 154.76 75.2085 154.65C75.7154 154.65 75.6272 154.848 73.324 148.699C62.4583 119.253 62.3481 121.457 65.8525 117.049C67.263 115.286 66.4586 116.366 105.172 99.759C124.633 91.4168 122.517 90.5352 126.595 102.139C126.595 102.139 140.282 141.051 140.414 142.076C140.414 142.539 140.48 142.462 151.886 143.773C153.958 144.015 151.754 144.049 151.765 139.288C151.765 134.704 150.057 134.494 152.867 125.491C153.385 123.849 166.598 88.9373 165.341 87.7251C165.046 87.3852 164.722 87.0718 164.372 86.7884C161.55 84.904 162.465 84.0004 160.393 83.1077C157.363 81.8074 157.186 78.0826 157.594 76.8814C157.704 76.5619 156.283 75.537 157.22 73.0905C157.352 72.7599 157.418 72.4844 157.032 71.702C156.129 69.8837 157.693 69.1784 157.22 68.396C155.655 65.9055 158.828 63.7566 161.628 62.7648C164.427 61.773 165.474 62.7648 165.518 62.4232C165.595 61.773 164.416 62.0815 163.446 60.2191C161.694 56.8029 163.446 52.979 165.947 52.2737C166.366 52.1525 166.278 52.0864 166.322 49.695C166.322 49.0559 165.925 50.1799 165.341 50.1028C164.989 50.1028 164.889 49.9815 164.867 49.6289C164.779 47.9539 166.289 48.7804 166.553 46.7196C166.789 44.2855 167.465 41.9144 168.548 39.7219C168.857 39.1268 167.358 39.6448 165.573 36.7906C162.366 31.6552 163.534 25.1865 165.573 29.5063C165.912 30.2473 166.4 30.911 167.005 31.4569C167.237 30.41 166.476 28.1509 168.438 24.5473C168.502 24.4404 168.598 24.3562 168.712 24.307C168.827 24.2576 168.955 24.2454 169.076 24.2723C169.198 24.299 169.308 24.3634 169.391 24.4563C169.475 24.5491 169.527 24.6658 169.54 24.7898C170.399 30.2116 169.804 26.9938 171.953 26.8064C175.821 26.4758 173.177 28.8451 175.05 23.1918C176.042 20.1834 177.662 25.2416 177.882 25.5501C179.072 27.2362 177.507 24.4481 179.149 22.7621C179.943 21.9576 180.725 21.9135 182.136 20.5581C183.136 19.4911 184.461 18.7858 185.905 18.5525C187.348 18.3192 188.829 18.5711 190.114 19.2687C190.853 19.6765 190.93 19.9079 191.216 19.6434C192.748 18.1116 194.875 17.8802 197.035 18.0455C198.269 18.1447 199.239 18.8389 201.707 19.5773C202.644 19.8638 203.911 19.0263 205.289 18.7508C207.438 18.299 208.837 18.7508 212.066 19.8528C218.954 22.178 219.02 26.0791 222.546 29.2418C228.982 35.0053 228.056 37.0881 228.839 44.7801C229.144 48.0283 228.473 51.2938 226.91 54.1581C226.346 54.8872 225.731 55.5757 225.07 56.2189C224.111 57.1886 225.07 58.511 223.318 59.8996C221.565 61.2881 220.309 61.1118 220.364 62.1036C220.346 62.9445 220.137 63.7704 219.756 64.52C219.374 65.2697 218.829 65.924 218.16 66.4344C217.719 66.765 217.18 66.9083 214.854 66.9854C213.697 66.9854 213.598 68.1646 211.273 68.1425C209.708 68.1425 209.377 67.0405 209.377 67.8009C209.44 68.3607 209.469 68.9238 209.465 69.487C209.377 70.9086 207.956 70.8425 208.253 72.7159C208.253 72.7159 210.138 75.3166 210.303 75.537C211.912 77.741 211.879 77.741 212.187 77.5206C213.907 75.9998 220.574 75.2615 222.701 74.457C225.334 73.4652 225.797 73.9721 228.144 73.355C232.365 72.253 242.239 75.019 247.584 86.3807C249.512 90.4912 251.815 107.605 252.311 109.809C253.283 114.581 255.032 119.16 257.491 123.364C262.582 132.466 262.318 141.811 266.472 152.38C268.908 158.463 268.5 160.557 269.051 164.546ZM267.221 168.524C267.839 166.32 267.706 166.386 267.089 160.81C266.968 159.763 263.982 163.323 257.943 165.648C254.637 166.926 254.901 166.463 249.667 167.852C247.992 168.304 248.763 166.254 248.565 178.64C248.565 181.34 248.476 181.34 248.807 181.252C249.468 181.065 250.438 181.186 253.909 179.048C255.54 178.034 257.127 178.266 259.243 177.23C260.147 176.789 263.651 175.423 264.588 173.836C264.764 173.538 265.095 173.296 265.172 172.987C265.447 171.896 266.946 169.703 267.221 168.524ZM262.637 161.912C267.155 159.08 266.957 159.168 266.77 158.705C266.518 156.978 266.04 155.292 265.348 153.691C264.136 150.539 265.348 154.44 263.001 147.079C262.736 146.253 257.59 148.919 253.953 149.184C252.752 149.261 251.22 149.57 250.647 149.559C240.531 149.195 243.385 150.076 238.58 149.459C232.773 148.71 233.941 149.459 228.045 150.121C226.238 150.319 224.673 151.223 223.075 151.002C222.701 151.002 221.676 153.206 221.543 153.526C222.469 153.702 246.779 153.427 247.286 153.592C249.16 154.22 248.686 154.991 248.609 166.717C248.609 167.18 248.752 167.025 250.526 166.596C255.926 165.383 258.45 164.579 262.637 161.956V161.912ZM261.535 145.999C262.758 145.569 262.505 145.724 262.351 144.544C261.873 140.93 261.039 137.371 259.86 133.921C257.502 127.474 259.585 128.114 254.581 129.789C251.521 130.95 248.267 131.515 244.994 131.453C235.903 131.761 239.76 128.147 236.079 138.296C235.883 139.335 235.366 140.287 234.602 141.018C234.338 141.205 234.117 141.492 233.831 141.569C230.932 142.351 229.5 140.467 229.048 141.205C222.976 150.837 223.814 149.448 223.538 150.154C224.982 150.253 226.458 149.052 234.382 148.192C236.321 147.983 239.572 148.644 242.03 148.633C244.651 148.377 247.29 148.326 249.92 148.479C249.92 148.479 254.328 148.523 261.513 146.043L261.535 145.999ZM253.347 129.171C261.392 126.758 256.279 128.609 252.499 115.881C252.264 115.159 252.073 114.423 251.926 113.677C251.672 112.928 248.212 115.407 244.564 114.151C244.3 114.063 244.168 114.46 243.187 116.587C240.784 121.832 241.137 120.995 240.112 125.711C238.9 131.221 237.908 130.34 240.674 130.373C245.732 130.395 247.76 130.824 253.347 129.171ZM251.353 112.531C251.617 112.366 251.165 110.977 251.033 110.724C249.799 108.2 250.118 105.214 248.829 98.2713C247.958 93.3343 248.587 94.4474 244.652 92.3756C242.324 91.3046 239.904 90.4417 237.423 89.7969C232.883 88.6949 231.616 88.8271 226.547 89.6977C223.637 90.1826 224.409 90.4801 222.491 91.3397C221.158 91.9458 219.935 95.8249 219.549 97.2354C217.918 103.131 218.326 101.643 219.461 101.566C224.651 101.004 222.546 101.412 232.189 103.77C234.251 104.177 236.218 104.97 237.985 106.107C241.413 107.991 242.096 107.969 244.101 109.578C245.104 110.393 244.862 101.467 246.173 101.721C247 101.886 246.658 102.823 246.614 103.054C246.471 104.046 246.779 103.352 246.504 105.06C245.611 110.57 246.956 105.875 244.862 112.686C244.674 113.292 244.575 113.347 245.721 113.402C246.552 113.509 247.392 113.509 248.223 113.402C249.283 113.167 250.328 112.869 251.353 112.509V112.531ZM247.749 92.6952C247.339 90.4127 246.644 88.1912 245.677 86.0832C245.082 84.9812 242.096 79.945 240.828 79.6585C238.239 79.0854 231.66 74.7325 215.813 86.017C212.11 88.6508 212.11 88.0006 212.022 88.5737C211.934 89.1467 211.328 97.3897 211.196 98.6129C211.196 98.9986 211.196 99.2741 211.548 99.0758C214.196 97.8313 216.651 96.2091 218.833 94.26C219.593 93.5878 223.362 85.444 224.243 85.5983C225.125 85.7526 224.585 86.7995 224.144 87.659C222.006 91.8356 222.612 89.2459 226.723 88.761C230.029 88.3863 230.029 87.8353 233.974 88.1659C241.181 88.7059 246.867 92.5189 247.749 92.618V92.6952ZM247.661 159.355C247.716 154.529 248.267 154.738 245.38 158.518C209.234 205.805 210.479 203.358 210.369 205.617C210.369 206.168 210.446 209.849 210.479 209.959C210.512 210.07 247.639 160.612 247.661 159.278V159.355ZM241.523 116.719C244.366 110.867 244.322 110.922 242.537 109.897C232.464 104.046 232.729 105.302 230.415 104.63C222.227 102.161 225.059 102.613 221.896 102.426C221.896 102.569 218.37 102.25 217.786 103.407C216.981 105.016 217.389 104.123 214.689 107.881C213.367 109.721 213.587 109.413 212.485 112.939C212.265 113.677 213.873 112.862 217.113 113.556C222.436 114.658 218.535 113.986 226.932 117.127C230.657 118.515 230.866 120.532 233.478 121.997C235.02 122.621 236.452 123.488 237.721 124.565C239.495 125.865 237.787 124.334 241.523 116.642V116.719ZM238.878 77.9063C239.892 78.1598 236.465 76.2313 235.363 75.8456C229.202 73.6415 227.549 74.6444 216.452 77.4875C213.929 78.1377 213.84 77.9945 213.962 78.3802C214.325 79.5703 213.697 79.4822 212.342 87.0088C212.342 87.0088 212.265 87.1741 212.562 87.075C212.65 87.075 212.397 87.2182 216.97 83.9232C219.174 82.3143 219.637 82.5788 220.386 81.9176C221.013 81.3104 221.766 80.8478 222.59 80.5621C229.092 77.7961 232.53 76.2753 238.878 77.8292V77.9063ZM238.294 126.67C238.437 125.976 237.765 126.042 236.938 125.281C235.815 124.316 234.543 123.542 233.17 122.989C231.968 122.471 232.266 122.604 229.533 119.915C227.748 118.151 229.169 119.132 222.205 116.377C219.835 115.429 221.599 114.989 213.532 113.997C212.276 114.162 212.331 113.997 212.033 114.658C210.656 117.821 207.471 122.912 207.306 123.805C207.846 123.805 207.372 123.584 208.859 123.882C211.846 124.466 215.471 128.191 219.174 128.609C226.249 129.403 225.202 132.037 232.112 136.665C235.054 138.638 233.919 140.18 235.792 133.877C236.828 130.45 237.754 129.337 238.294 126.67ZM235.341 183.324C235.671 183.258 235.671 183.522 235.451 179.555C235.385 178.277 235.451 178.453 234.756 179.335C234.404 179.786 231.55 183.511 231.34 184.018C232.694 183.895 234.036 183.663 235.352 183.324H235.341ZM223.218 147.74C226.227 142.891 230.106 137.315 229.357 136.852C226.414 135.034 224.949 131.541 221.742 130.847C216.838 129.745 217.135 130.031 213.653 128.103C210.909 126.571 211.096 126.328 210.909 126.714C208.948 130.758 203.647 140.114 203.14 141.437C201.046 146.826 194.236 147.101 184.99 150.936C183.888 151.421 178.378 153.217 176.582 153.801C173.199 154.903 172.008 155.201 171.336 155.498C170.664 155.796 171.083 156.6 168.129 157.934C167.799 158.088 167.799 158.088 167.788 158.496C167.777 158.904 167.622 164.965 168.592 164.943C181.056 164.667 188.351 167.246 207.989 164.149C216.562 162.794 213.422 163.521 223.218 147.74ZM227.274 49.0559C228.122 46.2678 227.087 43.9536 226.965 38.8954C226.736 37.0123 226.039 35.2165 224.938 33.6719C222.822 30.7846 221.378 30.7516 219.053 27.2142C216.485 23.3131 214.832 22.3433 211.085 20.9658C204.088 18.3761 204.297 22.0678 200.517 20.6793C197.85 19.6985 196.175 18.5634 193.123 19.7867C192.918 19.8605 192.736 19.9857 192.594 20.1503C192.274 20.4919 192.307 20.547 192.704 20.7785C193.927 21.4617 192.913 21.0429 194.28 21.7482C195.646 22.4535 196.076 22.167 198.754 25.1093C199.856 26.3215 200.054 26.002 201.355 26.4758C202.192 26.7623 203.471 27.3574 202.997 28.0847C202.523 28.8121 202.038 28.0847 201.09 27.7541C200.072 27.5793 199.118 27.1382 198.324 26.4758C197.035 25.2195 196.341 24.0955 194.445 23.1698C190.764 21.3625 189.001 19.5993 187.073 19.8638C183.679 19.8638 183.712 21.7372 180.857 23.1698C179.348 23.9412 179.282 25.473 179.755 25.5391C181.838 25.8697 180.516 25.5391 181.596 25.5942C182.612 25.7235 183.597 26.0333 184.505 26.5089C191.988 29.4402 189.045 31.1924 196.947 35.1596C200.143 36.7795 202.732 37.606 205.289 41.1104C210.072 47.6453 210.149 49.6509 211.141 60.8803C211.35 63.2827 209.576 66.3904 210.722 66.6769C212.353 67.1177 212.926 65.9496 214.469 65.5749C215.24 65.3986 216.089 65.5088 217.069 65.3435C217.653 65.2443 219.152 63.4811 219.086 61.6077C219.031 60.12 219.89 58.7865 220.023 57.1997C220.452 52.3508 217.102 44.2842 218.138 43.8434C219.174 43.4026 218.932 44.3944 219.67 46.2237C221.061 50.4545 221.597 54.9197 221.246 59.3596C221.246 59.4808 221.246 59.5359 221.4 59.4588C224.706 57.6405 222.105 56.8801 224.574 54.5438C225.797 53.4308 226.172 52.9459 227.274 49.0559ZM216.584 102.216C216.97 101.114 218.304 96.2216 218.27 95.9902C216.589 97.229 214.812 98.3344 212.959 99.2962C211.152 100.023 210.887 99.8913 210.755 100.398C209.366 107.01 208.804 111.991 202.501 114.339C199.889 115.308 196.241 112.135 194.787 108.685C193.784 106.349 194.258 105.379 193.685 105.478C192.96 105.865 192.159 106.087 191.338 106.129C189.839 106.25 188.461 106.922 182.07 105.611C176.13 104.387 176.229 102.415 175.954 104.013C173.937 115.595 173.452 113.082 176.328 114.316C176.648 114.449 184.45 119.452 184.152 117.964C183.571 115.309 183.203 112.611 183.05 109.897C183.085 109.778 183.157 109.672 183.257 109.597C183.356 109.522 183.477 109.482 183.601 109.482C183.726 109.482 183.847 109.522 183.946 109.597C184.046 109.672 184.118 109.778 184.152 109.897C186.489 122.196 185.254 118.713 187.458 119.408C188.56 119.727 196.848 119.408 199.581 118.229C199.933 118.085 206.556 116.333 209.267 114.482C210.016 113.975 210.303 114.669 210.49 113.964C211.592 110.437 211.846 109.335 212.551 108.233C214.491 105.236 215.868 104.178 216.584 102.216ZM212.364 80.3527C212.441 80.0662 205.906 72.2089 204.804 70.2694C204.088 69.0021 204.44 71.3714 201.498 71.4375C200.308 71.4375 197.74 70.8755 196.859 69.4319C195.977 67.9883 196.991 67.6907 197.487 68.1536C197.783 68.56 198.128 68.9299 198.512 69.2556C199.691 70.0711 201.818 70.4898 202.92 69.5311C208.22 64.5721 209.19 57.2658 201.818 57.8388C201.083 57.9071 200.377 58.1588 199.765 58.5709C199.152 58.9829 198.654 59.5421 198.313 60.1971C197.718 61.1007 197.63 60.0208 197.068 60.9906C194.335 65.8063 194.798 66.7761 191.062 64.7594C189.398 63.8558 188.087 63.448 188.858 61.9162C189.056 61.5305 189.332 61.1889 189.53 60.8142C189.85 60.1751 190.114 59.5139 190.412 58.8747C190.709 58.2355 190.974 58.3347 187.271 57.6625C185.728 57.387 183.469 57.8498 182.863 59.1722C182.496 59.92 181.945 60.5625 181.263 61.0401C180.581 61.5179 179.789 61.8151 178.96 61.9041C178.132 61.9933 177.295 61.8714 176.526 61.5497C175.757 61.2281 175.083 60.7174 174.565 60.0649C172.989 58.2355 173.606 56.7589 172.879 56.3181C172.152 55.8773 172.13 55.8773 172.108 56.3181C171.964 59.7783 168.735 59.4698 167.534 60.2522C165.407 61.6407 168.251 64.7374 171.072 63.7125C172.284 63.2607 173.276 64.0651 172.174 64.8696C171.451 65.298 170.598 65.4506 169.771 65.2994C168.361 65.6079 168.074 64.7594 167.964 65.2994C167.964 65.2994 167.457 67.9221 167.468 68.407C167.479 68.8919 166.994 68.7486 167.38 68.8919C168.647 69.3437 169.65 69.465 170.047 70.6221C170.355 71.5477 169.562 72.1649 170.124 72.1649C171.358 72.1649 171.457 72.4183 171.777 72.3302C172.097 72.242 172.681 71.2282 173.441 71.3163C173.958 71.2986 174.474 71.3873 174.955 71.5768C175.437 71.7664 175.874 72.0528 176.24 72.4183C177.992 73.873 179.48 73.6966 179.215 74.6995C179.094 75.1623 178.775 75.1072 178.268 74.975C175.149 74.1485 174.135 71.3824 172.758 73.366C171.953 74.5452 171.722 73.366 170.399 73.5093C169.705 73.5093 168.68 73.7738 169.143 74.1485C169.379 74.3974 169.552 74.6998 169.646 75.0298C169.74 75.3599 169.753 75.7078 169.683 76.0439C169.882 78.1047 168.879 78.854 169.11 79.0634C176.119 85.2677 176.824 82.3694 185.321 83.4714C188.627 83.8792 192.043 88.6618 197.101 96.1555C197.277 96.4089 198.49 97.6542 197.74 98.1721C197.222 98.5248 196.881 98.0729 194.28 94.3923C193.024 92.618 192.627 91.5381 192.869 93.5658C193.553 99.0758 194.61 99.8251 194.798 101.059C195.003 103.244 195.371 105.41 195.9 107.539C197.2 111.319 200.749 113.424 201.862 113.049C204.308 112.223 204.154 112.046 206.369 109.842C208.209 108.013 209.961 98.3374 210.226 94.4143C210.382 89.6593 211.101 84.9395 212.364 80.3527ZM209.829 115.881C210.424 114.779 209.058 116.598 200.925 119.055C185.816 123.639 184.516 116.19 187.877 124.565C188.979 127.232 187.315 124.058 189.905 129.326C192.384 134.373 190.831 134.935 192.384 135.144C199.096 136.081 201.762 134.527 205.035 134.329C205.664 134.329 205.619 134.031 206.424 132.489C208.253 129.017 208.22 129.315 207.989 129.094C207.383 128.51 206.821 127.893 206.182 127.353C205.712 126.831 205.413 126.176 205.326 125.479C205.24 124.781 205.369 124.074 205.697 123.452C206.931 121.634 205.366 123.661 209.829 115.881ZM208.727 66.0598C210.678 61.1338 209.532 58.6543 209.036 54.3455C208.716 51.4913 208.859 49.7832 207.427 47.5461C206.215 45.6837 206.325 44.9344 205.52 44.8793C204.264 44.7911 204.573 44.1519 201.862 44.4385C200.021 44.6258 199.327 46.1466 197.454 45.3862C196.164 44.8682 195.404 44.8131 195.04 44.4274C194.677 44.0417 195.106 43.4687 195.757 43.634C197.861 44.163 198.302 44.6148 199.437 43.9536C202.909 41.959 205.575 43.8434 204.947 43.0389C201.718 38.7411 200.87 38.7191 197.806 37.1432C197.035 36.7465 196.704 36.8897 194.082 37.1432C192.605 37.2754 192.506 37.2203 191.878 37.5069C190.776 38.0248 190.434 38.3334 190.125 37.8815C189.817 37.4297 190.379 37.0771 191.227 36.6032C192.55 35.8318 195.635 35.9641 194.842 35.6114C193.167 34.807 192.781 34.9502 188.891 30.6855C188.594 30.3659 188.549 30.6855 186.941 31.3687C185.937 32.1897 185.2 33.2907 184.825 34.5315C184.715 35.2257 183.238 34.818 184.175 33.0768C184.656 32.0972 185.301 31.2067 186.081 30.443C187.37 29.7047 187.657 29.7708 187.37 29.5835C184.913 27.9305 182.334 26.564 179.767 26.7734C178.202 26.8946 180.869 28.9002 181.199 30.5091C181.24 30.6419 181.231 30.7848 181.176 30.912C181.121 31.0393 181.022 31.1428 180.897 31.2038C180.773 31.2648 180.63 31.2794 180.496 31.2451C180.362 31.2107 180.244 31.1295 180.163 31.0161C179.524 29.8738 178.787 28.7898 177.959 27.7762C176.992 26.7994 176.303 25.582 175.965 24.2498C175.678 24.8559 174.653 29.3851 175.965 31.9638C176.449 32.9446 175.557 34.0796 174.686 31.9638C173.386 28.8561 175.072 27.9745 172.482 27.9305C171.039 27.9305 171.116 29.2859 170.995 29.5284C170.811 30.2102 170.834 30.9314 171.061 31.6001C171.138 32.2283 170.3 32.5479 170.091 31.8756C169.595 30.3108 169.86 29.892 169.595 29.4292C169.116 28.5517 168.782 27.6028 168.603 26.6191C168.31 27.345 168.125 28.1098 168.052 28.8892C167.93 31.0436 168.307 33.1972 169.154 35.1816C169.286 35.8098 168.449 35.8869 168.173 35.3139C167.92 34.6625 167.629 34.026 167.303 33.4074C166.301 32.6034 165.431 31.6478 164.724 30.5753C164.581 30.972 165.308 36.1845 168.581 38.157C170.631 39.3913 169.859 36.8897 171.788 37.6391C172.89 38.0689 173.75 38.4766 174.201 37.7603C174.345 37.5227 174.565 37.3409 174.825 37.2448C175.085 37.1487 175.371 37.144 175.634 37.2314C177.97 37.7383 177.728 38.4987 182.147 37.3967C182.896 37.2093 183.15 37.3967 185.056 39.0827C186.555 40.3831 187.998 38.6529 189.541 40.5264C189.993 41.0884 190.335 40.8239 191.238 41.2647C192.395 41.8267 189.74 43.4026 190.919 44.2842C193.2 46.0033 190.18 46.9951 191.062 48.9016C192.66 52.3839 193.542 53.0121 192.814 54.4998C192.485 55.049 192.375 55.7021 192.506 56.3291C192.814 57.4311 191.404 56.836 195.393 57.8168C197.597 58.3788 197.2 58.5551 197.432 58.4339C199.801 57.1997 199.57 57.1556 200.154 56.9242C203.118 55.734 207.195 57.1005 207.691 58.8747C208.297 60.1071 208.491 61.5021 208.242 62.8529C206.413 69.5972 203.746 67.0956 206.843 71.0959C207.217 71.5808 206.92 70.4568 207.945 69.6192C208.749 69.0903 207.548 69.0682 208.738 66.0598H208.727ZM204.672 135.717C205.3 134.681 199.735 137.348 192.076 136.059C191.822 135.993 191.734 136.059 191.778 136.323C191.904 137.505 192.171 138.666 192.572 139.784C195.173 146.164 194.269 146.076 194.853 145.9C201.983 143.74 200.683 142.307 204.683 135.717H204.672ZM196.594 59.4698C196.371 59.3178 196.12 59.2128 195.856 59.1612C191.966 58.467 192.142 58.3788 191.933 58.7976C189.894 63.0072 189.729 62.5774 190.599 63.0293C194.842 65.1451 192.792 65.1782 196.605 59.4698H196.594ZM193.222 104.652C193.663 104.443 193.905 104.762 193.817 104.233C192.969 98.7231 193.817 103.131 191.999 97.3015C191.9 96.9709 191.999 96.9379 189.674 97.3015C188.524 97.5272 187.336 97.4705 186.213 97.1362C185.517 97.0822 184.84 96.885 184.223 96.5569C183.607 96.2289 183.065 95.777 182.632 95.2298C182.18 94.271 179.017 96.3318 176.505 101.842C176.196 102.536 176.174 102.635 176.989 102.944C180.295 104.31 181.948 105.082 188.99 105.522C191.15 105.137 192.065 105.214 193.233 104.641L193.222 104.652ZM192.484 146.804C193.332 146.539 193.442 146.627 193.233 146.153C189.53 137.425 190.368 133.657 189.167 131.023C188.318 129.171 188.065 130.957 186.963 134.164C186.566 135.398 185.861 136.963 185.508 137.965C184.329 141.558 185.232 139.905 183.701 143.266C183.326 144.082 182.852 144.368 182.599 144.82C181.772 146.837 181.937 146.462 180.295 148.412C179.48 149.393 179.436 148.038 179.436 149.79C179.623 151.586 179.535 151.52 179.778 151.432C189.056 148.027 192.01 146.892 192.484 146.804ZM191.767 91.505C192.131 88.9814 189.211 91.7144 187.987 92.3756C184.737 94.1278 186.103 92.4968 182.896 94.4584C184.593 95.9681 184.406 95.9791 188.175 96.5522C193.982 95.7477 190.985 96.8718 191.767 91.4609V91.505ZM191.393 54.9516C192.208 52.8578 191.889 53.9488 189.982 49.6179C189.775 49.0415 189.708 48.4241 189.786 47.8167C189.864 47.2091 190.087 46.6291 190.434 46.1245C191.051 45.2319 188.803 45.4523 189.85 42.8185C190.125 42.1353 189.464 42.6753 188.417 41.419C187.734 40.6035 185.938 42.2675 183.216 39.3031C182.004 37.9697 180.196 40.35 176.064 38.8403C174.83 38.3995 175.358 39.5897 173.683 39.6227C172.008 39.6558 171.612 38.6309 171.138 39.1599C170.223 40.1627 169.639 39.6448 169.474 40.1076C168.644 42.2738 168.07 44.53 167.766 46.8298C167.766 47.0612 167.766 47.2376 168.162 47.0833C168.372 47.0061 168.306 46.411 169.099 46.5323C170.201 46.7196 170.201 48.3726 169.617 48.5379C167.259 49.1991 167.512 47.7224 167.49 51.8439C167.49 52.5933 168.691 52.0202 169.904 53.5961C170.851 54.8193 170.631 55.2601 171.006 55.0067C171.284 54.8083 171.617 54.7016 171.959 54.7016C172.3 54.7016 172.634 54.8083 172.912 55.0067C173.584 55.3483 173.221 54.1471 174.212 52.8027C177.023 48.9457 180.824 50.1689 182.488 52.3398C184.152 54.5108 183.271 55.7891 183.987 55.8001C185.5 55.9602 187.002 56.2142 188.483 56.5605C193.112 57.387 190.621 56.8911 191.393 54.9075V54.9516ZM188.638 90.0283C189.916 88.9263 190.577 89.4222 190.026 88.7831C186.323 84.4742 187.194 84.6065 179.866 84.5293C179.436 84.5293 179.634 84.7938 179.612 85.9179C179.524 89.0916 177.474 89.841 176.956 97.7644C176.956 98.7562 177.86 95.4392 182.808 92.6842C184.869 91.483 186.5 91.8907 188.638 89.9842V90.0283ZM187.536 128.709C187.877 127.937 185.486 123.75 184.538 119.771C184.285 118.669 183.921 120.389 178.18 116.719C175.711 115.132 177.078 115.738 174.323 114.625C174.155 115.098 174.083 115.6 174.113 116.102C174.212 117.942 173.893 120.19 173.717 123.298C173.65 124.312 173.551 124.102 174.609 124.4C177.662 125.292 182.544 130.34 184.053 131.684C186.764 134.075 184.395 135.673 187.525 128.665L187.536 128.709ZM184.23 137.602C185.133 135.199 185.398 135.056 184.99 134.626C183.998 133.59 184.241 133.304 183.8 132.885C175.744 125.337 175.458 125.678 173.882 125.171C173.375 125.171 173.882 125.81 174.113 133.778C174.113 135.266 175.656 135.034 177.585 137.326C182.973 143.707 182.059 143.652 182.83 142.076C183.745 140.191 183.546 139.299 184.197 137.558L184.23 137.602ZM179.061 60.6269C179.89 60.4326 180.649 60.0159 181.258 59.4217C181.867 58.8275 182.302 58.0783 182.516 57.255C182.731 56.4316 182.717 55.5654 182.474 54.7497C182.233 53.934 181.772 53.1998 181.144 52.6263C178.653 50.0807 174.256 52.4831 174.422 55.5797C174.312 59.2053 176.736 60.9795 179.028 60.5828L179.061 60.6269ZM179.744 147.255C182.103 143.817 182.07 145.371 178.764 141.249C178.764 141.249 175.458 136.753 174.223 136.489C174.146 137.062 174.312 140.225 174.223 141.26C174.223 141.407 174.165 141.547 174.063 141.651C173.959 141.753 173.819 141.811 173.672 141.811C173.526 141.811 173.386 141.753 173.282 141.651C173.18 141.547 173.121 141.407 173.121 141.26C173.055 139.552 172.923 143.597 172.449 131.089C172.13 122.604 172.063 124.774 172.67 119.364C173.496 112.068 171.821 119 174.411 105.038C175.115 101.678 175.601 98.2771 175.865 94.8551C176.615 89.3451 178.609 87.6811 178.389 84.9371C178.323 84.1216 177.717 85.0473 174.642 84.0555C173.904 83.813 174.642 84.2538 174.488 86.1162C174.422 86.9207 174.245 87.9896 173.474 87.7582C172.703 87.5268 173.055 87.075 173.11 85.6424C173.188 83.5816 171.49 82.7331 169.176 80.9478C167.314 79.4932 167.832 79.9119 164.845 78.7438C164.118 78.4463 164.537 80.9478 163.391 80.6393C162.586 80.4629 163.589 79.3169 163.049 77.5206C163.007 77.3637 163.007 77.1983 163.049 77.0413C163.092 76.8845 163.176 76.7418 163.292 76.628C163.49 76.4957 163.964 76.628 164.151 76.9035C164.845 77.8071 164.603 75.1072 165.573 75.4268C166.796 75.8235 165.132 77.5647 165.683 77.73C167.16 78.1708 167.766 78.4683 167.887 78.3251C168.46 77.3443 168.405 77.741 168.493 75.5811C168.144 74.9461 167.63 74.4169 167.005 74.0493C164.449 72.6057 165.903 72.0987 162.333 74.8207C161.57 75.3552 160.749 75.8025 159.886 76.1541C157.682 77.3663 158.685 80.8486 161.121 81.9066C163.247 82.8433 162.84 83.8351 164.427 85.1134C166.443 86.6893 166.697 86.7884 166.686 87.3174C166.576 90.6234 167.6 86.3697 164.768 95.0975C164.768 95.0975 162.564 102.404 162.564 102.426C155.611 123.584 151.886 127.893 152.646 135.277C152.845 137.084 153.065 143.608 155.06 144.236C155.203 144.225 179.7 147.233 179.711 147.211L179.744 147.255ZM178.433 150.716C178.565 148.368 178.885 148.512 174.422 152.159C174.422 152.159 173.21 153.162 172.603 153.702C172.416 153.867 172.603 153.922 172.78 153.867C174.629 153.345 176.447 152.716 178.224 151.983C178.466 151.796 178.4 151.763 178.4 150.672L178.433 150.716ZM171.259 153.25C173.375 151.52 176.945 148.842 177.419 148.357C177.144 148.214 139.951 143.376 139.576 143.619C135.808 145.702 86.5481 171.51 85.8648 172.414C85.8648 172.414 134.199 182.707 134.496 182.475C136.259 181.032 154.839 166.287 155.214 165.945C154.707 165.593 155.533 166.089 151.809 164.722C151.236 164.513 150.101 164.149 150.112 164.722C150.079 165.194 149.99 165.66 149.847 166.111C149.72 166.926 149.276 167.658 148.613 168.149C148 168.574 147.285 168.828 146.541 168.888C143.929 168.788 143.081 168.954 142.012 168.083C141.626 167.775 141.174 167.235 140.91 167.191C139.191 166.827 139.092 166.838 138.794 167.069C138.496 167.301 133.218 171.477 125.416 177.726C125.008 178.045 125.857 178.067 117.437 176.337C102.748 173.252 97.7665 172.293 96.1355 171.896C95.1768 171.654 94.8241 171.147 95.849 170.475C96.8738 169.802 99.5958 168.271 106.153 164.634C143.753 143.63 139.433 145.492 141.318 145.492C141.968 145.338 160.415 147.696 160.437 147.696C160.867 147.696 161.363 147.696 161.617 148.269C161.771 148.622 161.837 148.6 161.561 148.897C160.537 149.999 156.051 152.931 156.768 153.129C161.594 154.551 159.666 154.54 161.176 153.008C162.105 152.148 163.24 151.543 164.472 151.25C165.703 150.956 166.99 150.985 168.206 151.333C171.006 152.314 170.388 153.889 171.226 153.206L171.259 153.25ZM170.157 57.7396C170.366 57.5743 170.245 57.4201 170.267 57.1776C170.201 56.6046 170.267 56.7809 170.025 56.5825C169.309 57.5743 169.121 56.5825 169.176 57.9931C169.154 58.1915 169.705 58.0151 170.135 57.6956L170.157 57.7396ZM168.328 55.745C169.749 55.6789 170.036 56.4172 169.65 55.5136C169.473 55.0199 169.181 54.5755 168.797 54.2171C168.414 53.8588 167.951 53.5968 167.446 53.4529C167.446 53.9708 167.578 54.0038 167.6 54.2904C167.636 54.4175 167.619 54.5534 167.553 54.668C167.488 54.7827 167.38 54.8669 167.253 54.902C167.127 54.937 166.99 54.9202 166.875 54.855C166.761 54.79 166.677 54.682 166.642 54.5549C166.267 53.7284 166.465 53.4528 165.947 53.7173C163.865 54.9736 163.181 57.9049 165.198 60.4395C165.738 61.1118 165.584 59.6241 166.884 58.9629C167.611 58.5992 167.281 58.467 167.193 58.1584C166.994 57.4972 166.983 57.7617 166.52 57.916C165.837 58.1364 165.418 57.4641 166.124 56.814C166.3 56.6487 166.609 56.5825 166.741 56.3952C166.937 56.1741 167.178 55.9977 167.448 55.8779C167.718 55.7581 168.01 55.6977 168.306 55.7009L168.328 55.745ZM165.143 156.722C168.658 156.512 169.771 155.102 169.253 153.933C168.449 152.093 165.297 151.917 162.95 153.25C160.889 154.363 161.429 156.887 165.143 156.722ZM166.972 72.22C167.975 72.3412 169.176 71.7792 168.603 71.0188C168.405 70.7433 167.931 70.611 166.267 70.06C165.929 69.8758 165.55 69.7792 165.165 69.7792C164.78 69.7792 164.401 69.8758 164.063 70.06C160.9 71.9885 158.211 72.264 158.211 74.6774C158.311 75.2615 158.311 75.7243 158.575 75.4378C159.28 74.6444 160.415 74.468 161.11 73.9721C163.17 72.5065 163.468 72.0106 164.361 71.68C165.628 71.1731 165.892 72.0436 166.972 72.1649V72.22ZM166.972 65.6079C167.06 65.09 167.292 64.5059 166.609 64.1974C166.542 64.1974 166.311 63.8778 166.102 63.9329C165.33 64.1643 164.195 63.415 162.157 64.0872C157.264 65.7071 157.748 68.1866 158.707 67.7017C159.666 67.2169 161.231 66.5997 161.55 66.3463C164.658 64.2415 166.73 66.6879 166.928 65.5749L166.972 65.6079ZM166.3 68.4731C166.421 68.374 166.796 67.3711 166.3 67.2499C165.469 67.0091 164.607 66.894 163.743 66.9083C163.005 66.9083 161.727 68.0103 160.735 68.2748C159.093 68.8148 157.726 69.6303 158.311 71.2612C158.509 71.8122 158.311 71.4926 160.515 70.3245C161.501 69.8929 162.451 69.3844 163.358 68.8038C164.57 67.8781 166.135 68.5613 166.256 68.4401L166.3 68.4731ZM162.443 160.678C162.443 158.54 163.071 158.297 162.333 157.956C160.129 156.953 160.603 155.818 159.941 155.642C158.157 155.201 156.401 154.649 154.685 153.989C148.403 151.322 150.751 153.019 146.376 150.892C143.841 149.658 142.574 150.374 140.866 150.099C139.643 149.911 138.596 150.98 137.824 151.84C134.849 155.146 135.686 152.28 132.656 158.242C131.995 159.532 132.182 159.862 133.295 158.815C135.157 157.063 135.356 157.317 135.94 156.611C141.252 150.319 142.155 152.644 141.582 153.217C141.242 153.52 140.873 153.79 140.48 154.022C137.086 156.777 137.339 157.824 135.786 158.584C134.232 159.344 134.221 160.898 131.378 162.926C129.736 164.105 128.402 164.876 128.567 165.824C128.689 166.529 130.066 166.717 131.014 166.078C132.892 164.796 134.628 163.318 136.193 161.67C137.549 160.898 136.447 159.466 137.879 158.165C141.406 155.024 141.406 154.958 141.847 154.672C141.954 154.637 142.071 154.637 142.178 154.672C142.286 154.707 142.379 154.777 142.445 154.869C142.51 154.962 142.544 155.073 142.542 155.185C142.539 155.299 142.5 155.409 142.431 155.498C141.725 156.843 138.629 158.87 138.485 159.719C138.155 161.648 137.615 165.571 139.587 165.372C139.786 165.372 140.425 165.637 140.348 165.075C140.205 163.973 140.061 164.336 139.94 163.223C139.709 161.295 141.042 161.284 142.144 159.741C142.957 158.777 143.93 157.96 145.02 157.328C145.593 157.074 146.056 157.68 145.615 158.11C145.615 158.11 143.544 160.171 143.467 160.314C143.13 160.903 142.689 161.425 142.166 161.857C141.174 162.617 140.91 161.956 142.078 165.901C142.398 167.003 142.761 167.312 143.775 167.499C144.205 167.576 144.8 167.499 145.483 167.653C146.176 167.753 146.883 167.641 147.511 167.334C148.712 166.794 148.822 166.166 148.91 165.747C149.065 165.031 149.164 164.645 148.91 164.27C148.657 163.896 148.238 163.829 148.084 164.061C147.257 165.284 147.125 166.144 146.596 165.857C145.88 165.471 146.773 164.821 146.222 164.821C145.671 164.821 144.436 164.92 144.392 164.259C144.392 163.929 144.701 163.488 145.384 163.477C145.725 163.525 146.073 163.478 146.39 163.342C146.707 163.206 146.98 162.986 147.18 162.705C148.15 161.846 148.569 162.772 150.883 162.893C153.197 163.014 155.049 164.898 158.696 164.391C159.651 164.369 160.604 164.292 161.55 164.16C162.652 164.061 162.652 164.072 162.586 163.763C162.52 163.455 162.41 161.824 162.399 160.645L162.443 160.678ZM155.743 152.567C160.581 148.688 160.735 148.831 160.25 148.666C160.25 148.666 141.108 146.087 140.557 146.462C139.279 147.09 96.6975 171.048 96.6865 171.048C97.3146 171.312 95.5845 170.893 106.715 173.152C126.408 177.142 124.732 177.186 125.449 176.624C138.673 165.879 138.342 166.596 137.99 166.276C136.667 165.053 137.009 163.433 136.491 163.829C133.042 166.485 133.648 166.033 133.383 166.298C134.199 166.607 135.587 166.584 135.4 167.18C135.135 168.171 132.909 166.596 131.973 167.334C126.408 171.742 126.551 171.312 127.333 171.521C128.116 171.731 129.085 171.632 128.832 172.337C128.797 172.432 128.728 172.51 128.638 172.557C128.549 172.604 128.445 172.616 128.347 172.59C125.151 172.083 126.352 171.731 123.124 174.122C122.727 174.42 122.198 174.045 122.716 173.615C124.777 171.929 124.92 171.973 124.192 171.852C115.123 170.254 118.804 170.287 113.977 172.954C113.591 173.174 113.228 172.701 113.602 172.436C113.602 172.436 116.104 170.607 116.225 170.441L116.049 170.364C107.541 168.8 109.613 168.777 106.957 170.364C104.698 171.698 104.753 171.654 104.61 171.466C104.235 171.048 104.918 170.739 105.514 170.364C108.235 168.623 108.213 169.086 105.227 168.513C104.224 168.326 103.905 168.204 104.015 167.863C104.301 166.937 108.07 168.799 109.326 167.995C111.993 166.298 115.365 164.336 115.696 163.984C115.035 163.62 113.261 163.796 113.426 163.058C113.525 162.617 113.646 162.738 116.39 163.234C117.063 163.356 116.589 163.499 122.595 159.807C124.06 158.915 123.796 159.069 123.906 158.881C122.639 158.562 121.702 158.705 121.515 158.132C121.327 157.559 122.914 157.912 124.953 158.231C125.801 157.879 130.959 154.639 131.124 154.507C130.771 154.363 130.231 154.308 129.218 154.066C128.711 153.933 128.523 153.548 128.766 153.382C128.853 153.335 128.948 153.306 129.047 153.297C129.145 153.288 129.245 153.298 129.339 153.327C131.62 153.724 132.105 153.9 132.502 153.669C138.728 149.977 136.733 150.627 135.929 150.297C135.124 149.966 135.576 149.559 136.061 149.636L137.273 149.812C138.012 149.933 137.968 149.525 138.596 149.272C140.954 148.324 140.337 148.853 141.196 148.346C142.056 147.839 142.662 147.244 142.971 147.652C143.279 148.06 142.684 148.236 142.309 148.699C143.103 148.985 144.117 148.468 146.552 149.426C146.927 149.581 146.905 149.503 148.238 148.6C148.278 148.563 148.325 148.535 148.377 148.517C148.428 148.499 148.482 148.492 148.537 148.496C148.591 148.501 148.644 148.515 148.692 148.54C148.74 148.566 148.782 148.601 148.816 148.643C148.85 148.686 148.875 148.734 148.889 148.787C148.904 148.839 148.907 148.894 148.9 148.948C148.892 149.002 148.873 149.054 148.845 149.1C148.816 149.145 148.779 149.186 148.734 149.217C148.106 149.779 147.632 149.823 148.095 150.054C150.74 151.443 149.594 150.517 151.004 151.079C151.489 151.267 151.39 151.189 153.351 149.658C153.947 149.195 154.365 149.834 153.969 150.198C152.294 151.729 152.062 151.3 153.065 151.752C155.313 152.699 155.324 152.842 155.699 152.534L155.743 152.567ZM136.127 186.211C164.228 163.587 161.077 166.188 161.473 165.747C157.153 166.155 157.131 165.945 156.624 166.353C151.467 170.574 135.477 183.037 134.948 183.776C135.124 183.776 135.036 183.533 135.246 186.321C135.257 186.707 135.389 186.729 136.083 186.178L136.127 186.211ZM139.025 142.396C139.687 142.021 140.37 145.217 126.992 106.702C123.245 95.924 123.377 95.0535 121.03 94.6898C98.5819 103.715 76.079 113.545 68.3981 116.543C65.8635 117.534 67.5936 120.862 69.6103 126.207C87.8374 174.695 85.5893 170.386 86.8346 170.1C87.3195 169.946 139.003 142.396 139.025 142.396ZM117.558 183.489C132.546 186.795 134.088 187.489 134.088 186.387C133.802 182.508 139.598 185.44 85.6775 173.56C85.1596 173.45 85.2918 173.56 85.3579 175.125C85.3579 176.436 83.8151 176.007 117.558 183.489ZM130.937 158.926C132.799 154.716 133.361 154.727 132.48 154.716C130.429 155.831 128.435 157.049 126.507 158.364C126.694 158.474 126.352 158.43 128.457 158.782C130.893 159.223 130.793 159.267 130.937 158.926ZM130.154 162.232C130.595 161.846 130.584 161.747 130.154 161.989C129.052 162.617 125.978 164.865 125.967 164.876C126.165 164.998 125.967 164.931 126.903 165.13C127.51 165.13 127.344 164.557 128.005 164.028C128.975 163.179 129.824 162.562 130.154 162.232ZM126 170.937C129.096 168.392 130.573 167.499 129.912 167.631C129.288 167.724 128.652 167.603 128.105 167.29C127.366 166.805 127.465 166.243 127.256 166.188C126.617 166.044 125.669 165.802 124.909 165.67C124.17 166.078 118.98 169.604 118.682 169.957C118.903 170.045 118.682 170.023 120.38 170.32C125.89 171.235 125.592 171.29 126 170.959V170.937ZM125.03 164.469C132.38 159.333 132.876 160.325 125.438 159.102C122.959 160.423 120.563 161.895 118.264 163.51C118.264 163.51 124.446 164.898 125.03 164.491V164.469ZM118.01 169.306C121.162 167.003 122.98 166 123.52 165.416C122.914 165.185 117.404 164.204 117.173 164.16C116.71 164.369 110.439 168.171 110.208 168.436C110.473 168.568 112.412 168.899 112.743 168.954C116.941 169.714 117.25 169.879 118.01 169.328V169.306ZM85.1045 171.51C85.3579 171.048 65.8525 119.253 65.8414 119.253C63.7807 121.391 64.6072 121.81 69.6213 135.122C83.4845 171.874 83.9473 174.254 84.1237 173.428C84.2066 172.688 84.5598 172.005 85.1155 171.51H85.1045Z" fill="#1B1B1D"/>
    <path d="M204.133 177.243C205.022 177.567 205.779 178.174 206.292 178.97C206.803 179.766 207.039 180.707 206.965 181.651C206.326 190.742 199.251 188.604 199.086 188.615C199.218 188.836 202.392 190.29 200.243 194.39C198.755 197.189 193.157 197.476 189.983 197.465C186.677 197.465 184.142 197.685 180.01 195.701C179.482 195.452 179.009 195.101 178.618 194.668C178.227 194.235 177.926 193.729 177.732 193.178C177.538 192.627 177.455 192.044 177.49 191.461C177.523 190.878 177.671 190.308 177.927 189.784C178.412 188.682 179.69 188.869 179.029 188.197C176.583 185.75 176.142 180.13 176.428 176.67C176.957 170.576 200.672 170.157 201.29 176.526C201.389 177.529 201.929 176.427 204.133 177.243ZM203.747 180.813C204.64 181.596 203.405 185.971 201.664 186.059C200.364 186.125 200.474 185.849 200 186.323C199.526 186.797 199.548 187.271 200.232 187.425C205.543 188.946 208.133 177.948 202.336 178.157C201.411 178.157 201.532 178.157 201.499 179.116C201.477 180.406 202.017 179.27 203.769 180.813H203.747ZM202.898 181.915C202.898 181.276 202.303 181.067 201.664 181.023C200.661 180.946 201.455 181.386 200.452 183.877C200.395 184.105 200.354 184.337 200.331 184.571C200.331 184.747 200.331 184.858 200.551 184.847C201.444 184.847 201.774 184.913 202.028 184.516C202.554 183.745 202.862 182.846 202.92 181.915H202.898ZM199.769 181.915C200.672 177.926 200.529 178.422 199.24 179.381C194.589 182.852 180.858 181.948 177.497 178.786C177.465 181.266 177.946 183.728 178.908 186.015C181.277 190.511 189.73 190.643 194.644 189.321C198.623 188.296 198.865 185.96 199.791 181.882L199.769 181.915ZM198.358 178.411C199.537 177.518 199.846 177.309 199.835 176.967C199.692 172.273 186.192 173.562 181.542 174.245C181.542 173.97 178.798 175.16 178.136 176.108C177.85 176.538 177.938 176.637 178.544 177.662C178.897 178.268 178.963 176.24 181.85 175.722C185.85 175.028 196.882 174.862 197.884 177.926C198.028 178.08 198.204 178.51 198.38 178.378L198.358 178.411ZM198.303 194.632C199.405 193.982 199.405 192.847 199.703 191.822C199.482 190.313 198.05 189.211 197.653 189.486C196.948 189.971 196.683 189.971 196.859 190.335C197.311 191.282 196.441 191.944 195.603 192.539C194.259 193.486 193.609 193.85 190.501 193.773C178.566 193.486 182.688 190.412 181.487 189.938C181.024 189.751 180.715 189.122 179.69 189.938C179.418 190.168 179.195 190.45 179.035 190.769C178.874 191.086 178.778 191.433 178.754 191.788C178.728 192.144 178.776 192.501 178.891 192.837C179.006 193.174 179.189 193.485 179.426 193.751C181.531 196.572 193.741 197.498 198.325 194.599L198.303 194.632ZM191.934 192.428C193.818 192.428 195.846 191.084 195.647 190.698C195.449 190.313 191.074 191.988 184.627 190.886C183.624 190.709 182.798 190.037 182.842 190.797C182.93 192.428 190.303 192.428 192.011 192.428H191.934Z" fill="#1B1B1D"/>
    <path d="M205.72 60.8481C206.172 61.5864 205.929 62.9088 205.356 62.7325C204.32 62.4019 205.709 61.4211 203.394 60.6607C201.852 60.1538 200.265 61.7627 201.312 62.9309C201.543 63.1953 203.714 64.7712 201.951 66.7989C201.301 67.5372 200.044 66.9532 201.047 65.8071C201.775 64.9806 200.97 64.5508 200.353 63.8565C198.402 61.6525 201.179 58.9416 202.634 59.2832C203.231 59.3034 203.818 59.4538 204.35 59.7241C204.883 59.9945 205.351 60.3781 205.72 60.8481Z" fill="#1B1B1D"/>
    <path d="M204.826 51.2155C206.347 50.9951 207.261 52.6811 204.991 52.5269C203.889 52.593 203.548 52.8354 202.611 52.3946C201.299 51.8252 199.832 51.7278 198.456 52.1191C198.004 52.1191 197.486 51.491 198.137 51.1493C199.097 50.7598 200.135 50.6012 201.167 50.6865C203.195 51.0942 203.03 51.4799 204.826 51.2155Z" fill="#1B1B1D"/>
    <path d="M183.338 48.9C183.404 49.1424 183.029 49.2306 183.062 49.5061C182.872 49.4854 182.684 49.4484 182.5 49.3959C182.302 49.3187 182.115 48.2939 180.693 48.7016C176.616 50.024 177.387 48.7016 176.285 49.0212C175.861 49.0764 175.43 49.0118 175.04 48.8345C174.651 48.6573 174.318 48.3746 174.081 48.0184C174.025 47.9192 173.992 47.8087 173.984 47.6949C173.976 47.5813 173.995 47.4674 174.037 47.3615C174.079 47.2557 174.145 47.1608 174.229 47.0838C174.313 47.0067 174.413 46.9494 174.522 46.9164C174.974 46.8282 175.084 45.8695 175.866 46.4866C176.043 46.6188 176.098 46.6849 176.285 46.4866C176.35 46.4057 176.436 46.3427 176.532 46.3034C176.628 46.2642 176.734 46.2499 176.836 46.262C176.94 46.2741 177.039 46.3121 177.124 46.3726C177.207 46.433 177.276 46.514 177.321 46.6078C177.63 47.247 179.15 46.6078 179.613 46.9274C180.329 47.3792 181.233 46.8392 181.927 47.4123C182.214 47.6217 183.25 47.8641 183.338 48.9Z" fill="#1B1B1D"/>
    <path d="M182.688 75.6565C183.405 75.954 182.292 76.9789 181.586 77.4528C180.881 77.9266 180.209 77.2434 180.892 76.6042C182.391 75.2267 182.281 75.4802 182.688 75.6565Z" fill="#1B1B1D"/>
    <path d="M181.585 74.069C183.007 74.5979 179.954 77.4741 179.381 76.3942C179.051 75.7771 179.965 75.4465 180.307 75.1159C181.078 74.3885 181.056 73.9257 181.585 74.069Z" fill="#1B1B1D"/>
    <path d="M178.059 55.0703C180.825 55.0703 181.872 56.6131 180.957 56.9547C180.296 57.1972 178.279 55.985 178.753 56.6792C178.953 57.0095 179.039 57.3972 178.995 57.7812C178.918 59.1257 177.53 58.74 177.265 58.0016C176.902 56.8996 177.188 56.5911 176.692 56.6682C176.196 56.7454 175.59 56.9878 175.447 56.5139C175.083 55.4891 177.034 55.1585 178.059 55.0703Z" fill="#1B1B1D"/>
    <path d="M158.818 92.0355C159.523 92.0355 160.019 93.0053 159.236 93.2477C157.532 93.6524 155.866 94.2017 154.255 94.8897C144.15 99.2977 138.353 109.216 141.869 121.062C142.254 122.352 140.359 124.005 139.665 114.538C139.665 106.053 145.175 97.0386 156.063 93.1265C156.636 92.9171 155.809 92.7738 155.181 92.6306C147.147 90.8343 139.643 75.9352 146.684 59.4382C147.897 56.6061 148.888 55.978 145.527 59.0746C137.053 66.8988 124.16 73.1031 117.349 63.8903C112.368 57.1571 114.23 46.677 113.371 48.9582C109.26 59.9782 102.781 68.5959 91.3308 65.7748C86.0633 64.4854 81.9528 60.8488 80.7075 59.9562C80.0904 59.5044 81.1263 60.7937 82.3716 63.9234C86.6253 74.5908 82.6801 86.3602 69.5993 86.9112C68.872 86.9112 71.8034 88.0132 74.4592 92.7738C77.4236 98.0414 78.0958 105.601 73.8641 109.304C72.6078 110.406 72.2662 109.436 72.9164 108.929C78.8672 104.323 75.6053 92.0906 68.5084 87.4842C68.0235 87.1757 67.1088 86.7459 66.9766 86.6467C66.635 86.4043 66.668 85.7431 67.2851 85.8092C82.1512 87.5393 90.2619 71.1856 74.6906 54.2368C73.7098 53.1348 74.6245 52.716 75.462 53.5976C83.727 62.2594 94.0308 69.6538 103.596 62.5459C112.721 55.7686 113.426 41.8062 114.748 41.9384C115.211 41.9384 115.255 42.4233 115.134 42.8751C114.267 47.6832 114.387 52.6173 115.487 57.3775C119.366 72.6513 134.496 70.304 150.431 52.705C150.696 52.4075 151.445 52.5066 151.401 53.1017C151.401 53.267 140.139 67.7584 147.202 83.6933C148.635 86.9222 151.137 90.0188 154.376 91.3302C155.788 91.8866 157.303 92.1273 158.818 92.0355Z" fill="#1B1B1D"/>
    <path d="M125.107 119.465C128.281 126.419 126.672 125.471 102.924 137.097C85.3252 145.704 85.5015 145.704 84.0138 145.759C83.4896 145.858 82.9475 145.788 82.466 145.558C81.9846 145.327 81.5887 144.95 81.3359 144.481C77.1042 133.979 75.5504 136.491 95.3644 127.235C123.036 114.297 122.154 112.986 125.107 119.465ZM111.454 131.433C126.783 123.884 126.43 125.824 123.994 119.631C122.319 115.399 121.537 116.325 115.178 119.333C92.1356 130.111 83.7714 133.659 81.0164 135.522C79.5176 136.569 79.6939 137.142 80.0797 138.177C82.5151 144.789 82.5481 144.558 83.9256 144.657C84.9505 144.602 110.583 131.874 111.454 131.433Z" fill="#1B1B1D"/>
    <path d="M108.631 126.185C109.524 127.287 110.439 128.929 109.271 129.745C108.102 130.56 107.474 130.682 99.8485 134.153C82.0291 142.396 84.0127 142.704 82.5801 138.197C82.7564 136.776 82.0621 137.338 95.0658 131.387C106.67 126.086 107.827 125.216 108.631 126.185Z" fill="#1B1B1D"/>
    <path d="M94.6367 106.975C94.6367 105.642 96.3228 105.785 96.2236 106.777C96.2498 106.887 96.2526 107.001 96.2316 107.112C96.2108 107.223 96.1666 107.329 96.1023 107.422C96.0378 107.515 95.9545 107.593 95.8578 107.652C95.7611 107.71 95.6531 107.748 95.5409 107.762C95.4287 107.776 95.3148 107.766 95.2066 107.733C95.0985 107.7 94.9984 107.645 94.9131 107.57C94.8278 107.496 94.759 107.405 94.7114 107.302C94.6638 107.2 94.6384 107.088 94.6367 106.975Z" fill="#1B1B1D"/>
  </g>
  <rect x="1" y="1.62891" width="310" height="200.094" rx="7" stroke="#1B1B1D" stroke-width="2"/>
  <defs>
    <clipPath id="clip0_893_10886">
      <rect y="0.628906" width="312" height="202.094" rx="8" fill="white"/>
    </clipPath>
  </defs>
</svg>
