<svg width="21" height="16" viewBox="0 0 21 16" fill="none" xmlns="http://www.w3.org/2000/svg">
<path d="M4.51101 7.68282H4.86344C6.03818 7.68282 7.02496 8.08223 7.82379 8.88106C8.62261 9.67988 9.02203 10.6667 9.02203 11.8414C9.02203 13.0162 8.62261 14.0029 7.82379 14.8018C7.02496 15.6006 5.89721 16 4.44053 16C3.03084 16 1.92658 15.3891 1.12775 14.1674C0.375918 12.8987 0 11.301 0 9.37445C0 6.13216 0.728341 3.75918 2.18502 2.25551C3.6417 0.751836 5.4978 0 7.7533 0V3.38326C6.90749 3.38326 6.15565 3.71219 5.4978 4.37004C4.83994 4.98091 4.51101 5.89721 4.51101 7.11894V7.68282ZM16.141 7.68282H16.4934C17.6681 7.68282 18.6549 8.08223 19.4537 8.88106C20.2526 9.67988 20.652 10.6667 20.652 11.8414C20.652 13.0162 20.2526 14.0029 19.4537 14.8018C18.6549 15.6006 17.5272 16 16.0705 16C14.6608 16 13.5565 15.3891 12.7577 14.1674C12.0059 12.8987 11.63 11.301 11.63 9.37445C11.63 6.13216 12.3583 3.75918 13.815 2.25551C15.2717 0.751836 17.1278 0 19.3833 0V3.38326C18.5374 3.38326 17.7856 3.71219 17.1278 4.37004C16.4699 4.98091 16.141 5.89721 16.141 7.11894V7.68282Z" fill="#FF9100"/>
</svg>
