<svg width="24" height="25" viewBox="0 0 24 25" fill="none" xmlns="http://www.w3.org/2000/svg">
    <path d="M16.24 2.91797H7.76C5 2.91797 4 3.91797 4 6.72797V19.108C4 21.918 5 22.918 7.76 22.918H16.23C19 22.918 20 21.918 20 19.108V6.72797C20 3.91797 19 2.91797 16.24 2.91797ZM12 20.218C11.04 20.218 10.25 19.428 10.25 18.468C10.25 17.508 11.04 16.718 12 16.718C12.96 16.718 13.75 17.508 13.75 18.468C13.75 19.428 12.96 20.218 12 20.218ZM14 7.16797H10C9.59 7.16797 9.25 6.82797 9.25 6.41797C9.25 6.00797 9.59 5.66797 10 5.66797H14C14.41 5.66797 14.75 6.00797 14.75 6.41797C14.75 6.82797 14.41 7.16797 14 7.16797Z" fill="#1B1B1D"/>
</svg>
