<svg width="24" height="25" viewBox="0 0 24 25" fill="none" xmlns="http://www.w3.org/2000/svg">
  <path d="M16.7502 3.65375V2.09375C16.7502 1.68375 16.4102 1.34375 16.0002 1.34375C15.5902 1.34375 15.2502 1.68375 15.2502 2.09375V3.59375H8.75023V2.09375C8.75023 1.68375 8.41023 1.34375 8.00023 1.34375C7.59023 1.34375 7.25023 1.68375 7.25023 2.09375V3.65375C4.55023 3.90375 3.24023 5.51375 3.04023 7.90375C3.02023 8.19375 3.26023 8.43375 3.54023 8.43375H20.4602C20.7502 8.43375 20.9902 8.18375 20.9602 7.90375C20.7602 5.51375 19.4502 3.90375 16.7502 3.65375Z" fill="#1B1B1D"/>
  <path d="M20 9.93372H4C3.45 9.93372 3 10.3837 3 10.9337V17.0937C3 20.0937 4.5 22.0937 8 22.0937H16C19.5 22.0937 21 20.0937 21 17.0937V10.9337C21 10.3837 20.55 9.93372 20 9.93372ZM9.21 18.3037C9.11 18.3937 9 18.4637 8.88 18.5137C8.76 18.5637 8.63 18.5937 8.5 18.5937C8.37 18.5937 8.24 18.5637 8.12 18.5137C8 18.4637 7.89 18.3937 7.79 18.3037C7.61 18.1137 7.5 17.8537 7.5 17.5937C7.5 17.3337 7.61 17.0737 7.79 16.8837C7.89 16.7937 8 16.7237 8.12 16.6737C8.36 16.5737 8.64 16.5737 8.88 16.6737C9 16.7237 9.11 16.7937 9.21 16.8837C9.39 17.0737 9.5 17.3337 9.5 17.5937C9.5 17.8537 9.39 18.1137 9.21 18.3037ZM9.42 14.4737C9.37 14.5937 9.3 14.7037 9.21 14.8037C9.11 14.8937 9 14.9637 8.88 15.0137C8.76 15.0637 8.63 15.0937 8.5 15.0937C8.37 15.0937 8.24 15.0637 8.12 15.0137C8 14.9637 7.89 14.8937 7.79 14.8037C7.7 14.7037 7.63 14.5937 7.58 14.4737C7.53 14.3537 7.5 14.2237 7.5 14.0937C7.5 13.9637 7.53 13.8337 7.58 13.7137C7.63 13.5937 7.7 13.4837 7.79 13.3837C7.89 13.2937 8 13.2237 8.12 13.1737C8.36 13.0737 8.64 13.0737 8.88 13.1737C9 13.2237 9.11 13.2937 9.21 13.3837C9.3 13.4837 9.37 13.5937 9.42 13.7137C9.47 13.8337 9.5 13.9637 9.5 14.0937C9.5 14.2237 9.47 14.3537 9.42 14.4737ZM12.71 14.8037C12.61 14.8937 12.5 14.9637 12.38 15.0137C12.26 15.0637 12.13 15.0937 12 15.0937C11.87 15.0937 11.74 15.0637 11.62 15.0137C11.5 14.9637 11.39 14.8937 11.29 14.8037C11.11 14.6137 11 14.3537 11 14.0937C11 13.8337 11.11 13.5737 11.29 13.3837C11.39 13.2937 11.5 13.2237 11.62 13.1737C11.86 13.0637 12.14 13.0637 12.38 13.1737C12.5 13.2237 12.61 13.2937 12.71 13.3837C12.89 13.5737 13 13.8337 13 14.0937C13 14.3537 12.89 14.6137 12.71 14.8037Z" fill="#1B1B1D"/>
</svg>
