<svg width="24" height="25" viewBox="0 0 24 25" fill="none" xmlns="http://www.w3.org/2000/svg">
  <path
    d="M14.65 21.5V15.8774L16.2611 15.8499L16.2787 15.8496L16.2963 15.8484C16.7151 15.8184 17.083 15.5184 17.1756 15.0862L17.1776 15.0767L17.1794 15.0672L17.5294 13.1572L17.5295 13.1572L17.5312 13.1469C17.6271 12.5714 17.1824 12.04 16.59 12.04V12.0399L16.5808 12.0401L14.5975 12.068L14.5657 10.1242L16.6168 10.09C17.1425 10.0864 17.56 9.66682 17.56 9.14001H17.5601L17.5599 9.12918L17.52 6.73311C17.5163 6.20736 17.0967 5.79 16.57 5.79V5.78993L16.5604 5.79007L13.8604 5.83008L13.8582 5.83012C11.8417 5.86656 10.2336 7.52044 10.2701 9.54174L10.2701 9.54181L10.3174 12.1426L9.27314 12.16C8.74738 12.1636 8.33001 12.5833 8.33001 13.11H8.32993L8.33009 13.1202L8.36003 15.0165C8.36344 15.5424 8.78316 15.96 9.31 15.96V15.9601L9.32082 15.9599L10.3725 15.9424L10.4601 21.4903L10.4601 21.4916C10.4636 21.6898 10.3048 21.85 10.11 21.85H7.81C6.11928 21.85 4.84799 21.3486 3.99991 20.4994C3.15173 19.6502 2.65 18.3762 2.65 16.68V8.31C2.65 6.61926 3.15146 5.34778 3.99962 4.49962C4.84778 3.65146 6.11926 3.15 7.81 3.15H16.19C17.8807 3.15 19.1522 3.65146 20.0004 4.49962C20.8485 5.34778 21.35 6.61926 21.35 8.31V16.69C21.35 18.3807 20.8485 19.6522 20.0004 20.5004C19.1522 21.3485 17.8807 21.85 16.19 21.85H15C14.809 21.85 14.65 21.691 14.65 21.5Z"
    stroke="white" stroke-width="1.3"/>
</svg>
