<svg width="16" height="17" viewBox="0 0 16 17" fill="none" xmlns="http://www.w3.org/2000/svg">
<path d="M5.99967 15.3604H9.99967C11.8212 15.3604 13.1448 14.9717 14.0112 14.1053C14.8776 13.2389 15.2663 11.9152 15.2663 10.0937V6.09373C15.2663 4.27225 14.8776 2.94858 14.0112 2.08219C13.1448 1.21579 11.8212 0.827063 9.99967 0.827063H5.99967C4.1782 0.827063 2.85452 1.21579 1.98813 2.08219C1.12174 2.94858 0.733008 4.27225 0.733008 6.09373V10.0937C0.733008 11.9152 1.12174 13.2389 1.98813 14.1053C2.85452 14.9717 4.1782 15.3604 5.99967 15.3604ZM1.93301 6.09373C1.93301 4.56412 2.20613 3.55703 2.83455 2.92861C3.46298 2.30018 4.47006 2.02706 5.99967 2.02706H9.99967C11.5293 2.02706 12.5364 2.30018 13.1648 2.92861C13.7932 3.55703 14.0663 4.56412 14.0663 6.09373V10.0937C14.0663 11.6233 13.7932 12.6304 13.1648 13.2589C12.5364 13.8873 11.5293 14.1604 9.99967 14.1604H5.99967C4.47006 14.1604 3.46298 13.8873 2.83455 13.2589C2.20613 12.6304 1.93301 11.6233 1.93301 10.0937V6.09373Z" fill="#1B1B1D" stroke="#1B1B1D" stroke-width="0.2"/>
<path d="M8.00033 10.9271C6.44033 10.9271 5.16699 9.65377 5.16699 8.09377C5.16699 6.53377 6.44033 5.26044 8.00033 5.26044C9.56033 5.26044 10.8337 6.53377 10.8337 8.09377C10.8337 9.65377 9.56033 10.9271 8.00033 10.9271ZM8.00033 6.26044C6.98699 6.26044 6.16699 7.08044 6.16699 8.09377C6.16699 9.1071 6.98699 9.9271 8.00033 9.9271C9.01366 9.9271 9.83366 9.1071 9.83366 8.09377C9.83366 7.08044 9.01366 6.26044 8.00033 6.26044Z" fill="#1B1B1D"/>
<path d="M11.3337 5.09375C11.247 5.09375 11.1603 5.07375 11.0803 5.04041C11.0003 5.00708 10.927 4.96041 10.8603 4.90041C10.8003 4.83375 10.747 4.76041 10.7137 4.68041C10.6803 4.60041 10.667 4.51375 10.667 4.42708C10.667 4.34041 10.6803 4.25375 10.7137 4.17375C10.7537 4.08708 10.8003 4.02041 10.8603 3.95375C10.8937 3.92708 10.927 3.89375 10.9603 3.87375C11.0003 3.84708 11.0403 3.82708 11.0803 3.81375C11.1203 3.79375 11.1603 3.78041 11.207 3.77375C11.4203 3.72708 11.647 3.80041 11.807 3.95375C11.867 4.02041 11.9137 4.08708 11.947 4.17375C11.9803 4.25375 12.0003 4.34041 12.0003 4.42708C12.0003 4.51375 11.9803 4.60041 11.947 4.68041C11.9137 4.76041 11.867 4.83375 11.807 4.90041C11.7403 4.96041 11.667 5.00708 11.587 5.04041C11.507 5.07375 11.4203 5.09375 11.3337 5.09375Z" fill="#1B1B1D"/>
</svg>
