<svg width="24" height="25" viewBox="0 0 24 25" fill="none" xmlns="http://www.w3.org/2000/svg">
    <path d="M10.7497 5.55832L6.31973 3.36832C3.92973 2.19832 1.96973 3.38832 1.96973 6.00832V20.8483C1.96973 21.9883 2.91973 22.9183 4.07973 22.9183H11.4997C12.0497 22.9183 12.4997 22.4683 12.4997 21.9183V8.32832C12.4997 7.27832 11.7097 6.02832 10.7497 5.55832ZM8.96973 14.6683H5.49973C5.08973 14.6683 4.74973 14.3283 4.74973 13.9183C4.74973 13.5083 5.08973 13.1683 5.49973 13.1683H8.96973C9.37973 13.1683 9.71973 13.5083 9.71973 13.9183C9.71973 14.3283 9.38973 14.6683 8.96973 14.6683ZM8.96973 10.6683H5.49973C5.08973 10.6683 4.74973 10.3283 4.74973 9.91832C4.74973 9.50832 5.08973 9.16832 5.49973 9.16832H8.96973C9.37973 9.16832 9.71973 9.50832 9.71973 9.91832C9.71973 10.3283 9.38973 10.6683 8.96973 10.6683Z" fill="#1B1B1D"/>
    <path d="M22 18.957V20.417C22 21.797 20.88 22.917 19.5 22.917H14.97C14.43 22.917 14 22.487 14 21.947V19.787C15.07 19.917 16.2 19.607 17.01 18.957C17.69 19.507 18.56 19.837 19.51 19.837C20.44 19.837 21.31 19.507 22 18.957Z" fill="#1B1B1D"/>
    <path d="M22 15.9685V15.9785C21.92 17.2885 20.85 18.3385 19.51 18.3385C18.12 18.3385 17.01 17.2085 17.01 15.8385C17.01 17.3685 15.6 18.5985 14 18.2885V12.9185C14 12.2785 14.59 11.7985 15.22 11.9385L17.01 12.3385L17.49 12.4485L19.53 12.9085C20.02 13.0085 20.47 13.1785 20.86 13.4285C20.86 13.4385 20.87 13.4385 20.87 13.4385C20.97 13.5085 21.07 13.5885 21.16 13.6785C21.62 14.1385 21.92 14.8085 21.99 15.7885C21.99 15.8485 22 15.9085 22 15.9685Z" fill="#1B1B1D"/>
</svg>
