<svg width="22" height="22" viewBox="0 0 22 22" fill="none" xmlns="http://www.w3.org/2000/svg">
  <path
    d="M9.86161 9.49554H10.8929V9.91071V10.6607H11.6429H11.683H11.8039C11.6285 10.8183 11.4897 11.0012 11.3821 11.1972C11.057 11.7897 11.0134 12.5126 11.0134 13.0848V16.5536H9.86161V9.49554ZM13.3705 10.125C12.9827 10.125 12.6251 10.19 12.3079 10.3333L12.3459 10.2616C12.5861 9.80782 13.2243 9.25446 14.2143 9.25446C15.3699 9.25446 15.8998 9.62573 16.1971 10.0957C16.5427 10.642 16.6786 11.4792 16.6786 12.6027V16.5536H15.4866V13.125C15.4866 13.1079 15.4866 13.0903 15.4866 13.0724C15.487 12.6261 15.4876 11.943 15.2654 11.3681C15.1413 11.0469 14.9351 10.7198 14.5928 10.4782C14.2487 10.2353 13.8325 10.125 13.3705 10.125ZM20.75 3.20089C20.75 2.07843 19.8263 1.125 18.7143 1.125H3.24554C2.10343 1.125 1.25 2.1098 1.25 3.20089V18.5893C1.25 19.7111 2.13283 20.625 3.24554 20.625H18.7143C19.7962 20.625 20.75 19.7418 20.75 18.5893V3.20089ZM5.52232 9.49554H6.67411V16.5536H5.52232V9.49554ZM6.875 6.01339C6.875 6.44293 6.52775 6.79018 6.09821 6.79018C5.6157 6.79018 5.28125 6.43025 5.28125 6.01339C5.28125 5.57129 5.64096 5.19643 6.09821 5.19643C6.50273 5.19643 6.875 5.55838 6.875 6.01339Z"
    stroke="white" stroke-width="1.5"/>
</svg>
