<svg width="24" height="25" viewBox="0 0 24 25" fill="none" xmlns="http://www.w3.org/2000/svg">
    <path d="M20.99 10.628C20.65 10.488 20.2 10.418 19.64 10.418H14.36C12.62 10.418 12 11.038 12 12.798V20.538C12 21.118 12.07 21.568 12.22 21.918C12.53 22.638 13.19 22.918 14.36 22.918H19.64C21.38 22.918 22 22.288 22 20.538V12.798C22 11.608 21.72 10.938 20.99 10.628ZM18 20.668H16C15.98 20.668 15.95 20.668 15.93 20.658C15.78 20.648 15.65 20.598 15.54 20.498C15.36 20.368 15.25 20.158 15.25 19.918C15.25 19.508 15.59 19.168 16 19.168H18C18.41 19.168 18.75 19.508 18.75 19.918C18.75 20.328 18.41 20.668 18 20.668Z" fill="#1B1B1D"/>
    <path d="M20.9898 7.10797V7.91797C20.9898 8.46797 20.5398 8.91797 19.9898 8.91797H14.3598C11.7998 8.91797 10.4998 10.228 10.4998 12.798V21.918C10.4998 22.468 10.0498 22.918 9.49977 22.918H7.54977C7.14977 22.918 6.82977 22.598 6.82977 22.208C6.82977 21.808 7.14977 21.498 7.54977 21.498H9.49977V17.668H5.99977C3.77977 17.558 2.00977 15.728 2.00977 13.478V7.10797C2.00977 4.79797 3.88977 2.91797 6.20977 2.91797H16.7998C19.1098 2.91797 20.9898 4.79797 20.9898 7.10797Z" fill="#1B1B1D"/>
</svg>
