<svg width="24" height="25" viewBox="0 0 24 25" fill="none" xmlns="http://www.w3.org/2000/svg">
  <path
    d="M15 23.25H9C3.57 23.25 1.25 20.93 1.25 15.5V9.5C1.25 4.07 3.57 1.75 9 1.75H15C20.43 1.75 22.75 4.07 22.75 9.5V15.5C22.75 20.93 20.43 23.25 15 23.25ZM9 3.25C4.39 3.25 2.75 4.89 2.75 9.5V15.5C2.75 20.11 4.39 21.75 9 21.75H15C19.61 21.75 21.25 20.11 21.25 15.5V9.5C21.25 4.89 19.61 3.25 15 3.25H9Z"
    fill="white"/>
  <path
    d="M12 16.75C9.66 16.75 7.75 14.84 7.75 12.5C7.75 10.16 9.66 8.25 12 8.25C14.34 8.25 16.25 10.16 16.25 12.5C16.25 14.84 14.34 16.75 12 16.75ZM12 9.75C10.48 9.75 9.25 10.98 9.25 12.5C9.25 14.02 10.48 15.25 12 15.25C13.52 15.25 14.75 14.02 14.75 12.5C14.75 10.98 13.52 9.75 12 9.75Z"
    fill="white"/>
  <path
    d="M17 7.9999C16.87 7.9999 16.74 7.9699 16.62 7.9199C16.5 7.8699 16.39 7.7999 16.29 7.7099C16.2 7.6099 16.12 7.4999 16.07 7.3799C16.02 7.2599 16 7.1299 16 6.9999C16 6.8699 16.02 6.7399 16.07 6.6199C16.13 6.4899 16.2 6.3899 16.29 6.2899C16.34 6.2499 16.39 6.1999 16.44 6.1699C16.5 6.1299 16.56 6.0999 16.62 6.0799C16.68 6.0499 16.74 6.0299 16.81 6.0199C17.13 5.9499 17.47 6.0599 17.71 6.2899C17.8 6.3899 17.87 6.4899 17.92 6.6199C17.97 6.7399 18 6.8699 18 6.9999C18 7.1299 17.97 7.2599 17.92 7.3799C17.87 7.4999 17.8 7.6099 17.71 7.7099C17.61 7.7999 17.5 7.8699 17.38 7.9199C17.26 7.9699 17.13 7.9999 17 7.9999Z"
    fill="white"/>
</svg>
