<svg width="24" height="25" viewBox="0 0 24 25" fill="none" xmlns="http://www.w3.org/2000/svg">
    <path d="M16.8301 16.5581C17.5001 16.1181 18.3801 16.5981 18.3801 17.3981V18.6881C18.3801 19.9581 17.3901 21.3181 16.2001 21.7181L13.0101 22.7781C12.4501 22.9681 11.5401 22.9681 10.9901 22.7781L7.80012 21.7181C6.60012 21.3181 5.62012 19.9581 5.62012 18.6881V17.3881C5.62012 16.5981 6.50012 16.1181 7.16012 16.5481L9.22012 17.8881C10.0101 18.4181 11.0101 18.6781 12.0101 18.6781C13.0101 18.6781 14.0101 18.4181 14.8001 17.8881L16.8301 16.5581Z" fill="#1B1B1D"/>
    <path d="M19.9795 7.37852L13.9895 3.44852C12.9095 2.73852 11.1295 2.73852 10.0495 3.44852L4.02953 7.37852C2.09953 8.62852 2.09953 11.4585 4.02953 12.7185L5.62953 13.7585L10.0495 16.6385C11.1295 17.3485 12.9095 17.3485 13.9895 16.6385L18.3795 13.7585L19.7495 12.8585V15.9185C19.7495 16.3285 20.0895 16.6685 20.4995 16.6685C20.9095 16.6685 21.2495 16.3285 21.2495 15.9185V10.9985C21.6495 9.70852 21.2395 8.20852 19.9795 7.37852Z" fill="#1B1B1D"/>
</svg>
