<svg width="24" height="25" viewBox="0 0 24 25" fill="none" xmlns="http://www.w3.org/2000/svg">
  <path
    d="M14.2755 14.1733L14.2759 14.1731C14.8927 13.803 15.3525 13.2211 15.3525 12.4987C15.3525 11.7782 14.8948 11.1947 14.2808 10.8199L14.2808 10.8198L14.2755 10.8166L11.8059 9.33689C11.1727 8.95702 10.4165 8.81115 9.76635 9.17811C9.11538 9.5455 8.84998 10.2692 8.84998 11.01V13.98C8.84998 14.7208 9.11538 15.4445 9.76635 15.8119C10.4164 16.1788 11.1724 16.0331 11.8055 15.6534C11.8056 15.6533 11.8057 15.6532 11.8059 15.6531L14.2755 14.1733ZM7 5.25H17C18.3296 5.25 19.3793 5.68991 20.0947 6.40533C20.8101 7.12075 21.25 8.17044 21.25 9.5V15.5C21.25 16.8296 20.8101 17.8793 20.0947 18.5947C19.3793 19.3101 18.3296 19.75 17 19.75H7C5.67044 19.75 4.62075 19.3101 3.90533 18.5947C3.18991 17.8793 2.75 16.8296 2.75 15.5V9.5C2.75 8.17044 3.18991 7.12075 3.90533 6.40533C4.62075 5.68991 5.67044 5.25 7 5.25Z"
    stroke="white" stroke-width="1.5"/>
</svg>
