<svg width="80" height="80" viewBox="0 0 80 80" fill="none" xmlns="http://www.w3.org/2000/svg">
  <circle cx="40" cy="40" r="40" fill="white"/>
  <path d="M36.0013 26.6667C32.508 26.6667 29.668 29.5067 29.668 33C29.668 36.4267 32.348 39.2 35.8413 39.32C35.948 39.3067 36.0546 39.3067 36.1346 39.32C36.1613 39.32 36.1746 39.32 36.2013 39.32C36.2146 39.32 36.2146 39.32 36.228 39.32C39.6413 39.2 42.3213 36.4267 42.3346 33C42.3346 29.5067 39.4946 26.6667 36.0013 26.6667Z" fill="#292D32"/>
  <path d="M42.7733 42.8667C39.0533 40.3867 32.9866 40.3867 29.2399 42.8667C27.5466 44 26.6133 45.5333 26.6133 47.1733C26.6133 48.8133 27.5466 50.3333 29.2266 51.4533C31.0933 52.7067 33.5466 53.3333 35.9999 53.3333C38.4533 53.3333 40.9066 52.7067 42.7733 51.4533C44.4533 50.32 45.3866 48.8 45.3866 47.1467C45.3733 45.5067 44.4533 43.9867 42.7733 42.8667Z" fill="#292D32"/>
  <path d="M50.6525 33.7867C50.8658 36.3733 49.0258 38.64 46.4792 38.9467C46.4658 38.9467 46.4658 38.9467 46.4525 38.9467H46.4125C46.3325 38.9467 46.2525 38.9467 46.1858 38.9733C44.8925 39.04 43.7058 38.6267 42.8125 37.8667C44.1858 36.64 44.9725 34.8 44.8125 32.8C44.7192 31.72 44.3458 30.7333 43.7858 29.8933C44.2925 29.64 44.8792 29.48 45.4792 29.4267C48.0925 29.2 50.4258 31.1467 50.6525 33.7867Z" fill="#292D32"/>
  <path d="M53.319 46.12C53.2123 47.4133 52.3857 48.5333 50.999 49.2933C49.6657 50.0267 47.9857 50.3733 46.319 50.3333C47.279 49.4667 47.839 48.3867 47.9457 47.24C48.079 45.5867 47.2923 44 45.719 42.7333C44.8257 42.0267 43.7857 41.4667 42.6523 41.0533C45.599 40.2 49.3057 40.7733 51.5857 42.6133C52.8123 43.6 53.439 44.84 53.319 46.12Z" fill="#292D32"/>
</svg>
