<svg width="80" height="80" viewBox="0 0 80 80" fill="none" xmlns="http://www.w3.org/2000/svg">
  <circle cx="40" cy="40" r="40" fill="white"/>
  <path d="M52.1214 33.3067C50.988 32.0533 49.0947 31.4267 46.348 31.4267H46.028V31.3733C46.028 29.1333 46.028 26.36 41.0147 26.36H38.988C33.9747 26.36 33.9747 29.1467 33.9747 31.3733V31.44H33.6547C30.8947 31.44 29.0147 32.0667 27.8814 33.32C26.5614 34.7867 26.6014 36.76 26.7347 38.1067L26.748 38.2L26.8588 39.3633C26.8731 39.5131 26.9539 39.6484 27.0797 39.731C27.3867 39.9326 27.9773 40.3155 28.3214 40.5067C28.508 40.6267 28.708 40.7333 28.908 40.84C31.188 42.0933 33.6947 42.9333 36.2414 43.3467C36.3614 44.6 36.908 46.0667 39.828 46.0667C42.748 46.0667 43.3214 44.6133 43.4147 43.32C46.1347 42.88 48.7614 41.9333 51.1347 40.5467C51.2147 40.5067 51.268 40.4667 51.3347 40.4267C51.8845 40.1159 52.4558 39.7301 52.9717 39.3558C53.0844 39.2739 53.1568 39.1479 53.1722 39.0094L53.2014 38.7467L53.268 38.12C53.2814 38.04 53.2814 37.9733 53.2947 37.88C53.4014 36.5333 53.3747 34.6933 52.1214 33.3067ZM41.4547 42.44C41.4547 43.8533 41.4547 44.0667 39.8147 44.0667C38.1747 44.0667 38.1747 43.8133 38.1747 42.4533V40.7733H41.4547V42.44ZM35.8814 31.4267V31.3733C35.8814 29.1067 35.8814 28.2667 38.988 28.2667H41.0147C44.1214 28.2667 44.1214 29.12 44.1214 31.3733V31.44H35.8814V31.4267Z" fill="#292D32"/>
  <path d="M52.1039 42.1825C52.4569 42.013 52.8621 42.2939 52.8267 42.6839L52.3211 48.2533C52.0411 50.92 50.9478 53.64 45.0811 53.64H34.9211C29.0544 53.64 27.9611 50.92 27.6811 48.2667L27.2004 42.9788C27.1653 42.5934 27.562 42.3132 27.9141 42.4739C29.3718 43.139 32.4947 44.5169 34.3236 44.9779C34.4883 45.0195 34.6222 45.1371 34.6911 45.2924C35.4828 47.0764 37.2533 48.0267 39.8278 48.0267C42.3768 48.0267 44.1705 47.0399 44.9643 45.2526C45.0333 45.0972 45.1677 44.9795 45.3325 44.9378C47.2721 44.4474 50.585 42.9116 52.1039 42.1825Z" fill="#292D32"/>
</svg>
