<svg width="80" height="80" viewBox="0 0 80 80" fill="none" xmlns="http://www.w3.org/2000/svg">
  <circle cx="40" cy="40" r="40" fill="white"/>
  <path d="M49.7613 26.6667H30.2413C28.2813 26.6667 26.668 28.28 26.668 30.24V33.7467C26.668 35.72 28.2813 37.3333 30.2413 37.3333H49.748C51.7213 37.3333 53.3346 35.72 53.3346 33.76V30.24C53.3346 28.28 51.7213 26.6667 49.7613 26.6667ZM33.0013 33.3333C33.0013 33.88 32.548 34.3333 32.0013 34.3333C31.4546 34.3333 31.0013 33.88 31.0013 33.3333V30.6667C31.0013 30.12 31.4546 29.6667 32.0013 29.6667C32.548 29.6667 33.0013 30.12 33.0013 30.6667V33.3333ZM38.3346 33.3333C38.3346 33.88 37.8813 34.3333 37.3346 34.3333C36.788 34.3333 36.3346 33.88 36.3346 33.3333V30.6667C36.3346 30.12 36.788 29.6667 37.3346 29.6667C37.8813 29.6667 38.3346 30.12 38.3346 30.6667V33.3333ZM48.0013 33H42.668C42.1213 33 41.668 32.5467 41.668 32C41.668 31.4533 42.1213 31 42.668 31H48.0013C48.548 31 49.0013 31.4533 49.0013 32C49.0013 32.5467 48.548 33 48.0013 33Z" fill="#292D32"/>
  <path d="M49.7613 42.6667H30.2413C28.2813 42.6667 26.668 44.28 26.668 46.24V49.7467C26.668 51.72 28.2813 53.3333 30.2413 53.3333H49.748C51.7213 53.3333 53.3213 51.72 53.3213 49.76V46.2533C53.3346 44.28 51.7213 42.6667 49.7613 42.6667ZM33.0013 49.3333C33.0013 49.88 32.548 50.3333 32.0013 50.3333C31.4546 50.3333 31.0013 49.88 31.0013 49.3333V46.6667C31.0013 46.12 31.4546 45.6667 32.0013 45.6667C32.548 45.6667 33.0013 46.12 33.0013 46.6667V49.3333ZM38.3346 49.3333C38.3346 49.88 37.8813 50.3333 37.3346 50.3333C36.788 50.3333 36.3346 49.88 36.3346 49.3333V46.6667C36.3346 46.12 36.788 45.6667 37.3346 45.6667C37.8813 45.6667 38.3346 46.12 38.3346 46.6667V49.3333ZM48.0013 49H42.668C42.1213 49 41.668 48.5467 41.668 48C41.668 47.4533 42.1213 47 42.668 47H48.0013C48.548 47 49.0013 47.4533 49.0013 48C49.0013 48.5467 48.548 49 48.0013 49Z" fill="#292D32"/>
</svg>
