<svg width="80" height="80" viewBox="0 0 80 80" fill="none" xmlns="http://www.w3.org/2000/svg">
  <circle cx="40" cy="40" r="40" fill="white"/>
  <path d="M46.7997 26.6667H41.1997C36.9609 26.6667 35.043 28.2177 34.7262 31.9876C34.6796 32.5425 35.1347 33 35.6916 33H38.7997C44.3997 33 46.9997 35.6 46.9997 41.2V44.3081C46.9997 44.865 47.4572 45.3201 48.0121 45.2735C51.782 44.9567 53.333 43.0388 53.333 38.8V33.2C53.333 28.5333 51.4664 26.6667 46.7997 26.6667Z" fill="#292D32"/>
  <path d="M38.8013 34.6667H33.2013C28.5346 34.6667 26.668 36.5333 26.668 41.2V46.8C26.668 51.4667 28.5346 53.3333 33.2013 53.3333H38.8013C43.468 53.3333 45.3346 51.4667 45.3346 46.8V41.2C45.3346 36.5333 43.468 34.6667 38.8013 34.6667ZM40.388 42.2L35.4413 47.1467C35.2546 47.3333 35.0146 47.4267 34.7613 47.4267C34.508 47.4267 34.268 47.3333 34.0813 47.1467L31.6013 44.6667C31.228 44.2933 31.228 43.6933 31.6013 43.32C31.9746 42.9467 32.5746 42.9467 32.948 43.32L34.748 45.12L39.028 40.84C39.4013 40.4667 40.0013 40.4667 40.3746 40.84C40.748 41.2133 40.7613 41.8267 40.388 42.2Z" fill="#292D32"/>
</svg>
