<svg width="80" height="80" viewBox="0 0 80 80" fill="none" xmlns="http://www.w3.org/2000/svg">
  <circle cx="40" cy="40" r="40" fill="white"/>
  <path d="M47.3734 34.36C47.2801 34.3467 47.1867 34.3467 47.0934 34.36C45.0267 34.2933 43.3867 32.6 43.3867 30.52C43.3867 28.4 45.1067 26.6667 47.2401 26.6667C49.3601 26.6667 51.0934 28.3867 51.0934 30.52C51.0801 32.6 49.4401 34.2933 47.3734 34.36Z" fill="#292D32"/>
  <path d="M51.7195 43.6C50.2261 44.6 48.1328 44.9733 46.1995 44.72C46.7061 43.6267 46.9728 42.4133 46.9861 41.1333C46.9861 39.8 46.6928 38.5333 46.1328 37.4267C48.1061 37.16 50.1995 37.5333 51.7061 38.5333C53.8128 39.92 53.8128 42.2 51.7195 43.6Z" fill="#292D32"/>
  <path d="M32.5856 34.36C32.6789 34.3467 32.7722 34.3467 32.8656 34.36C34.9322 34.2933 36.5722 32.6 36.5722 30.52C36.5722 28.3867 34.8522 26.6667 32.7189 26.6667C30.5989 26.6667 28.8789 28.3867 28.8789 30.52C28.8789 32.6 30.5189 34.2933 32.5856 34.36Z" fill="#292D32"/>
  <path d="M32.7335 41.1333C32.7335 42.4267 33.0135 43.6533 33.5202 44.76C31.6402 44.96 29.6802 44.56 28.2402 43.6133C26.1335 42.2133 26.1335 39.9333 28.2402 38.5333C29.6668 37.5733 31.6802 37.1867 33.5735 37.4C33.0268 38.52 32.7335 39.7867 32.7335 41.1333Z" fill="#292D32"/>
  <path d="M40.1584 45.16C40.0518 45.1467 39.9318 45.1467 39.8118 45.16C37.3584 45.08 35.3984 43.0667 35.3984 40.5867C35.4118 38.0533 37.4518 36 39.9984 36C42.5318 36 44.5851 38.0533 44.5851 40.5867C44.5718 43.0667 42.6251 45.08 40.1584 45.16Z" fill="#292D32"/>
  <path d="M35.8264 47.92C33.8131 49.2667 33.8131 51.48 35.8264 52.8133C38.1197 54.3467 41.8797 54.3467 44.1731 52.8133C46.1864 51.4667 46.1864 49.2533 44.1731 47.92C41.8931 46.3867 38.1331 46.3867 35.8264 47.92Z" fill="#292D32"/>
</svg>
