<svg width="80" height="80" viewBox="0 0 80 80" fill="none" xmlns="http://www.w3.org/2000/svg">
  <circle cx="40" cy="40" r="40" fill="white"/>
  <path d="M45.588 26.6667H34.4146C29.5613 26.6667 26.668 29.56 26.668 34.4133V45.5733C26.668 50.44 29.5613 53.3333 34.4146 53.3333H45.5746C50.428 53.3333 53.3213 50.44 53.3213 45.5867V34.4133C53.3346 29.56 50.4413 26.6667 45.588 26.6667ZM39.3346 47C39.3346 47.48 38.8546 47.8 38.4146 47.6133C36.8013 46.92 34.6946 46.28 33.228 46.0933L32.9746 46.0667C32.1613 45.96 31.4946 45.2 31.4946 44.3733V34.1067C31.4946 33.08 32.3213 32.32 33.3346 32.4C35.0013 32.5333 37.468 33.3333 39.0146 34.2133C39.228 34.3333 39.3346 34.56 39.3346 34.7867V47ZM48.508 44.36C48.508 45.1867 47.8413 45.9467 47.028 46.0533L46.748 46.08C45.2946 46.28 43.2013 46.9067 41.588 47.5867C41.148 47.7733 40.668 47.4533 40.668 46.9733V34.7733C40.668 34.5333 40.788 34.3067 41.0013 34.1867C42.548 33.32 44.9613 32.5467 46.6013 32.4H46.6546C47.6813 32.4 48.508 33.2267 48.508 34.2533V44.36Z" fill="#292D32"/>
</svg>
