<svg width="80" height="80" viewBox="0 0 80 80" fill="none" xmlns="http://www.w3.org/2000/svg">
  <circle cx="40" cy="40" r="40" fill="white"/>
  <path d="M39.0013 32V50.5467C39.0013 51.4933 38.0413 52.1467 37.1746 51.7867C34.6946 50.7467 31.6146 49.84 29.428 49.5467L29.0146 49.4933C27.7213 49.3333 26.668 48.1467 26.668 46.8533V31C26.668 29.4 27.9613 28.1067 29.5613 28.1067H29.6546C32.1613 28.32 35.8546 29.4933 38.2946 30.8133C38.7346 31.0533 39.0013 31.4933 39.0013 32Z" fill="#292D32"/>
  <path d="M50.44 28.1067H50.36C50.04 28.1333 49.6933 28.1733 49.3333 28.24C47.6933 28.5067 45.7467 29.0667 44 29.76C43.1733 30.0933 42.4 30.4533 41.72 30.8133C41.28 31.0533 41 31.5067 41 32V50.5467C41 51.4933 41.96 52.1467 42.8267 51.7867C45.3067 50.7467 48.3867 49.84 50.5733 49.5467L50.9867 49.4933C52.28 49.3333 53.3333 48.1467 53.3333 46.8533V31C53.3333 29.4 52.04 28.1067 50.44 28.1067ZM49.6933 42.3067C49.6933 42.8267 49.32 43.0533 48.8667 42.8L47.4533 42.0133C47.3067 41.9333 47.0667 41.9333 46.9067 42.0133L45.4933 42.8C45.04 43.0533 44.6667 42.8267 44.6667 42.3067V38.2133C44.6667 37.6 45.1733 37.0933 45.7867 37.0933H48.5867C49.2 37.0933 49.7067 37.6 49.7067 38.2133V42.3067H49.6933Z" fill="#292D32"/>
</svg>
