<svg width="14" height="14" viewBox="0 0 14 14" fill="none" xmlns="http://www.w3.org/2000/svg">
  <g clip-path="url(#clip0_3848_11797)">
    <path d="M13.9921 -1.52588e-05H-0.000244141V12.6189H13.9921V-1.52588e-05Z" fill="black"/>
    <path d="M13.9921 13.1321H-0.000244141V13.9924H13.9921V13.1321Z" fill="black"/>
    <path d="M1.29541 5.19999C1.29541 5.1698 1.31827 5.14716 1.34876 5.14716H2.03466C2.39285 5.14716 2.69008 5.43395 2.69008 5.78867C2.69008 6.15093 2.39285 6.43772 2.03466 6.43772H1.67647V7.11697C1.67647 7.14716 1.6536 7.1698 1.62312 7.1698H1.35638C1.32589 7.1698 1.30303 7.14716 1.30303 7.11697V5.19999H1.29541ZM2.01942 6.083C2.18708 6.083 2.32426 5.9547 2.32426 5.78112C2.32426 5.62263 2.18708 5.50187 2.01942 5.50187H1.67647V6.083H2.01942Z" fill="white"/>
    <path d="M4.48853 5.19999C4.48853 5.1698 4.51139 5.14716 4.54187 5.14716H5.3802C5.73077 5.14716 6.02037 5.4264 6.02037 5.77357C6.02037 6.03772 5.84509 6.25659 5.58597 6.36225L5.98989 7.10187C6.01275 7.13961 5.98989 7.18489 5.93654 7.18489H5.63169C5.60883 7.18489 5.59359 7.1698 5.58597 7.16225L5.19729 6.39244H4.86958V7.13206C4.86958 7.16225 4.84672 7.18489 4.81623 7.18489H4.54949C4.51901 7.18489 4.49615 7.16225 4.49615 7.13206V5.19999H4.48853ZM5.34971 6.06791C5.50213 6.06791 5.63931 5.93206 5.63931 5.77357C5.63931 5.62263 5.50213 5.49433 5.34971 5.49433H4.86958V6.06791H5.34971Z" fill="white"/>
    <path d="M7.90283 5.19999C7.90283 5.1698 7.9257 5.14716 7.95618 5.14716H9.14508C9.17556 5.14716 9.19842 5.1698 9.19842 5.19999V5.43395C9.19842 5.46414 9.17556 5.48678 9.14508 5.48678H8.27627V5.96225H9.00027C9.03076 5.96225 9.05362 5.98489 9.05362 6.01508V6.26414C9.05362 6.29433 9.03076 6.31697 9.00027 6.31697H8.27627V6.82263H9.14508C9.17556 6.82263 9.19842 6.84527 9.19842 6.87546V7.10942C9.19842 7.13961 9.17556 7.16225 9.14508 7.16225H7.95618C7.9257 7.16225 7.90283 7.13961 7.90283 7.10942V5.19999Z" fill="white"/>
    <path d="M11.0504 5.19999C11.0504 5.1698 11.0733 5.14716 11.1037 5.14716H11.3781C11.4086 5.14716 11.4315 5.1698 11.4315 5.19999V6.38489C11.4315 6.63395 11.5991 6.82263 11.8582 6.82263C12.1097 6.82263 12.285 6.6264 12.285 6.38489V5.19999C12.285 5.1698 12.3079 5.14716 12.3384 5.14716H12.6127C12.6432 5.14716 12.6661 5.1698 12.6661 5.19999V6.40753C12.6661 6.84527 12.3155 7.20753 11.8506 7.20753C11.3933 7.20753 11.0352 6.85282 11.0352 6.40753V5.19999H11.0504Z" fill="white"/>
    <path d="M1.30298 7.51697H2.6824C2.90341 7.51697 3.11681 7.53961 3.30733 7.58489C3.49786 7.63018 3.67315 7.6981 3.81033 7.79621C3.95513 7.88678 4.06945 7.99999 4.14566 8.14338C4.22949 8.27923 4.2676 8.44527 4.2676 8.6264C4.2676 8.81508 4.22949 8.97357 4.14566 9.10942C4.06183 9.24527 3.95513 9.35848 3.82557 9.45659C3.69601 9.54716 3.54359 9.61508 3.3683 9.66036C3.20064 9.70565 3.02535 9.72829 2.84245 9.72829H2.27086V11.4415H1.30298V7.51697ZM2.27848 9.37357H2.59857C2.70526 9.37357 2.80434 9.35093 2.88817 9.31319C2.972 9.27546 3.04059 9.22263 3.09394 9.1547C3.14729 9.08678 3.19302 9.01131 3.21588 8.92074C3.24636 8.83017 3.25399 8.73961 3.25399 8.6415C3.25399 8.52074 3.23874 8.42263 3.20064 8.32452C3.16253 8.23395 3.11681 8.15848 3.05584 8.09055C2.99487 8.03018 2.91866 7.97735 2.83482 7.94716C2.75099 7.91697 2.65954 7.89433 2.56808 7.89433H2.27848V9.37357Z" fill="#FFD100"/>
    <path d="M4.77832 7.51697H6.21871C6.58453 7.51697 6.92748 7.56225 7.23994 7.64527C7.55241 7.72829 7.81915 7.85659 8.04016 8.02263C8.26117 8.18867 8.43646 8.39244 8.56602 8.6264C8.68796 8.86791 8.74893 9.13961 8.74893 9.44904C8.74893 9.72829 8.69558 9.98489 8.58888 10.2264C8.48219 10.4679 8.32976 10.6792 8.13161 10.8604C7.92584 11.0415 7.68197 11.1849 7.38474 11.2906C7.08752 11.3962 6.75219 11.449 6.37113 11.449H4.77832V7.51697ZM5.7462 11.0415H6.26444C6.45497 11.0415 6.63787 11.0038 6.80554 10.9358C6.9732 10.8679 7.12563 10.7623 7.24756 10.6264C7.37712 10.4906 7.4762 10.3245 7.54479 10.1283C7.621 9.93206 7.65148 9.70565 7.65148 9.44904C7.65148 9.23017 7.61338 9.0264 7.54479 8.83772C7.4762 8.64904 7.37712 8.49055 7.25518 8.34716C7.13325 8.21131 6.98845 8.10565 6.81316 8.02263C6.6455 7.94716 6.45497 7.90942 6.25682 7.90942H5.73858V11.0415H5.7462Z" fill="#FFD100"/>
    <path d="M9.56434 7.51697L10.8752 10.2339L12.0869 7.51697H12.7195L10.9285 11.5094H10.4713L8.55835 7.51697H9.56434Z" fill="#FFD100"/>
  </g>
  <defs>
    <clipPath id="clip0_3848_11797">
      <rect width="14" height="14" fill="white" transform="translate(-0.000244141 -1.52588e-05)"/>
    </clipPath>
  </defs>
</svg>
