<svg width="226" height="232" viewBox="0 0 226 232" fill="none" xmlns="http://www.w3.org/2000/svg">
  <rect width="226" height="232" rx="8" fill="#1B1B1D"/>
  <g clip-path="url(#clip0_3850_11809)">
    <path d="M90.9628 -1.52588e-05H22.9998V61.2916H90.9628V-1.52588e-05Z" fill="#FFD200"/>
    <path d="M90.9628 63.7843H22.9998V67.9633H90.9628V63.7843Z" fill="#FFD200"/>
    <path d="M29.2927 25.2571C29.2927 25.1105 29.4038 25.0005 29.5518 25.0005H32.8834C34.6232 25.0005 36.0668 26.3935 36.0668 28.1164C36.0668 29.876 34.6232 31.269 32.8834 31.269H31.1436V34.5682C31.1436 34.7148 31.0325 34.8248 30.8845 34.8248H29.5889C29.4408 34.8248 29.3297 34.7148 29.3297 34.5682V25.2571H29.2927ZM32.8093 29.5461C33.6237 29.5461 34.29 28.9229 34.29 28.0798C34.29 27.31 33.6237 26.7234 32.8093 26.7234H31.1436V29.5461H32.8093Z" fill="#1B1B1D"/>
    <path d="M44.8025 25.2571C44.8025 25.1105 44.9135 25.0005 45.0616 25.0005H49.1335C50.8362 25.0005 52.2429 26.3569 52.2429 28.0431C52.2429 29.3261 51.3915 30.3892 50.1329 30.9024L52.0948 34.4949C52.2059 34.6781 52.0948 34.8981 51.8357 34.8981H50.355C50.244 34.8981 50.1699 34.8248 50.1329 34.7881L48.2451 31.049H46.6533V34.6415C46.6533 34.7881 46.5423 34.8981 46.3942 34.8981H45.0986C44.9506 34.8981 44.8395 34.7881 44.8395 34.6415V25.2571H44.8025ZM48.9854 29.4728C49.7257 29.4728 50.392 28.8129 50.392 28.0431C50.392 27.31 49.7257 26.6868 48.9854 26.6868H46.6533V29.4728H48.9854Z" fill="#1B1B1D"/>
    <path d="M61.3862 25.2571C61.3862 25.1105 61.4973 25.0005 61.6454 25.0005H67.42C67.5681 25.0005 67.6791 25.1105 67.6791 25.2571V26.3935C67.6791 26.5401 67.5681 26.6501 67.42 26.6501H63.2001V28.9595H66.7167C66.8647 28.9595 66.9758 29.0695 66.9758 29.2162V30.4259C66.9758 30.5725 66.8647 30.6825 66.7167 30.6825H63.2001V33.1385H67.42C67.5681 33.1385 67.6791 33.2485 67.6791 33.3951V34.5315C67.6791 34.6781 67.5681 34.7881 67.42 34.7881H61.6454C61.4973 34.7881 61.3862 34.6781 61.3862 34.5315V25.2571Z" fill="#1B1B1D"/>
    <path d="M76.6741 25.2571C76.6741 25.1105 76.7852 25.0005 76.9332 25.0005H78.2659C78.4139 25.0005 78.525 25.1105 78.525 25.2571V31.0124C78.525 32.2221 79.3393 33.1385 80.5979 33.1385C81.8195 33.1385 82.6709 32.1854 82.6709 31.0124V25.2571C82.6709 25.1105 82.7819 25.0005 82.93 25.0005H84.2626C84.4107 25.0005 84.5217 25.1105 84.5217 25.2571V31.1224C84.5217 33.2485 82.8189 35.0081 80.5609 35.0081C78.3399 35.0081 76.6001 33.2852 76.6001 31.1224V25.2571H76.6741Z" fill="#1B1B1D"/>
    <path d="M29.3296 36.511H36.0296C37.1031 36.511 38.1396 36.621 39.065 36.841C39.9905 37.0609 40.8418 37.3908 41.5081 37.8674C42.2115 38.3073 42.7667 38.8571 43.1369 39.5536C43.5441 40.2135 43.7292 41.0199 43.7292 41.8997C43.7292 42.8162 43.5441 43.586 43.1369 44.2458C42.7297 44.9057 42.2115 45.4555 41.5822 45.9321C40.9529 46.372 40.2126 46.7019 39.3612 46.9218C38.5468 47.1418 37.6954 47.2517 36.807 47.2517H34.0307V55.573H29.3296V36.511ZM34.0678 45.5288H35.6225C36.1407 45.5288 36.6219 45.4189 37.0291 45.2356C37.4363 45.0523 37.7694 44.7957 38.0286 44.4658C38.2877 44.1358 38.5098 43.7693 38.6208 43.3294C38.7689 42.8895 38.8059 42.4496 38.8059 41.973C38.8059 41.3865 38.7319 40.91 38.5468 40.4334C38.3617 39.9935 38.1396 39.6269 37.8435 39.297C37.5473 39.0038 37.1772 38.7472 36.77 38.6005C36.3628 38.4539 35.9186 38.3439 35.4744 38.3439H34.0678V45.5288Z" fill="#1B1B1D"/>
    <path d="M46.2092 36.511H53.2054C54.9822 36.511 56.648 36.731 58.1657 37.1342C59.6834 37.5375 60.979 38.1606 62.0525 38.9671C63.1259 39.7736 63.9773 40.7633 64.6066 41.8997C65.1989 43.0728 65.495 44.3924 65.495 45.8954C65.495 47.2517 65.2359 48.4981 64.7177 49.6712C64.1994 50.8442 63.4591 51.8706 62.4967 52.7504C61.4972 53.6302 60.3127 54.3267 58.869 54.8399C57.4253 55.3531 55.7966 55.6097 53.9458 55.6097H46.2092V36.511ZM50.9104 53.6302H53.4275C54.3529 53.6302 55.2413 53.4469 56.0557 53.117C56.8701 52.7871 57.6104 52.2739 58.2027 51.614C58.832 50.9542 59.3132 50.1477 59.6464 49.1946C60.0165 48.2415 60.1646 47.1418 60.1646 45.8954C60.1646 44.8323 59.9795 43.8426 59.6464 42.9261C59.3132 42.0097 58.832 41.2399 58.2397 40.5434C57.6474 39.8836 56.9441 39.3703 56.0927 38.9671C55.2784 38.6005 54.3529 38.4172 53.3905 38.4172H50.8734V53.6302H50.9104Z" fill="#1B1B1D"/>
    <path d="M69.4561 36.511L75.823 49.7078L81.7086 36.511H84.781L76.0821 55.903H73.8611L64.5698 36.511H69.4561Z" fill="#1B1B1D"/>
  </g>
  <defs>
    <clipPath id="clip0_3850_11809">
      <rect width="68" height="68" fill="white" transform="translate(22.9998 -1.52588e-05)"/>
    </clipPath>
  </defs>
</svg>
