<svg width="93" height="94" viewBox="0 0 93 94" fill="none" xmlns="http://www.w3.org/2000/svg">
  <g clip-path="url(#clip0_1816_28245)">
    <path d="M92.9494 0.5H0V84.3253H92.9494V0.5Z" fill="#FFD200"/>
    <path d="M92.9494 87.7344H0V93.4497H92.9494V87.7344Z" fill="#FFD200"/>
    <path d="M8.65723 50.4341H17.8205C19.2887 50.4341 20.7062 50.5845 21.9719 50.8853C23.2375 51.1861 24.4019 51.6373 25.3132 52.2891C26.2751 52.8907 27.0345 53.6427 27.5407 54.5953C28.0976 55.4977 28.3508 56.6007 28.3508 57.8039C28.3508 59.0573 28.0976 60.1101 27.5407 61.0125C26.9839 61.9149 26.2751 62.667 25.4144 63.3187C24.5538 63.9203 23.5413 64.3715 22.3769 64.6724C21.2631 64.9732 20.0987 65.1236 18.8837 65.1236H15.0867V76.5042H8.65723V50.4341ZM15.1374 62.7672H17.2637C17.9724 62.7672 18.6306 62.6168 19.1874 62.3662C19.7443 62.1155 20.2 61.7645 20.5543 61.3133C20.9087 60.8621 21.2125 60.3608 21.3644 59.7591C21.5669 59.1575 21.6175 58.5559 21.6175 57.9042C21.6175 57.102 21.5162 56.4503 21.2631 55.7985C21.01 55.1969 20.7062 54.6955 20.3012 54.2443C19.8962 53.8432 19.3899 53.4923 18.8331 53.2918C18.2762 53.0912 17.6687 52.9408 17.0611 52.9408H15.1374V62.7672Z" fill="#0C0B0B"/>
    <path d="M31.7422 50.4341H41.3105C43.7406 50.4341 46.0187 50.7349 48.0944 51.2864C50.1701 51.8379 51.942 52.6901 53.4101 53.7931C54.8783 54.8961 56.0427 56.2497 56.9033 57.8039C57.7133 59.4082 58.1184 61.2131 58.1184 63.2686C58.1184 65.1236 57.764 66.8282 57.0552 68.4325C56.3464 70.0368 55.3339 71.4405 54.0176 72.6438C52.6507 73.847 51.0307 74.7996 49.0563 75.5015C47.0819 76.2034 44.8543 76.5543 42.323 76.5543H31.7422V50.4341ZM38.1717 73.847H41.6143C42.8799 73.847 44.0949 73.5963 45.2087 73.1451C46.3225 72.6939 47.335 71.992 48.145 71.0896C49.0057 70.1872 49.6638 69.0842 50.1194 67.7807C50.6257 66.4772 50.8282 64.9732 50.8282 63.2686C50.8282 61.8147 50.5751 60.461 50.1194 59.2077C49.6638 57.9543 49.0057 56.9015 48.1956 55.9489C47.3856 55.0465 46.4237 54.3446 45.2593 53.7931C44.1456 53.2918 42.8799 53.0411 41.5636 53.0411H38.1211V73.847H38.1717Z" fill="#0C0B0B"/>
    <path d="M63.5362 50.4341L72.2438 68.4826L80.2934 50.4341H84.4953L72.5982 76.9554H69.5606L56.8535 50.4341H63.5362Z" fill="#0C0B0B"/>
  </g>
  <g clip-path="url(#clip1_1816_28245)">
    <path d="M9.142 46.9069L14.7841 34.701C14.8381 34.5931 14.9312 34.5 15.093 34.5H15.2743C15.4557 34.5 15.5292 34.5931 15.5832 34.701L21.1714 46.9069C21.2792 47.1422 21.1371 47.3775 20.8626 47.3775H19.2842C19.0096 47.3775 18.8871 47.2696 18.7596 47.0147L17.8724 45.0539H12.4508L11.5636 47.0147C11.49 47.1961 11.3283 47.3775 11.0391 47.3775H9.46063C9.19102 47.3775 9.04396 47.1422 9.1518 46.9069H9.142ZM16.9802 43.0441L15.1665 39.0539H15.1126L13.3332 43.0441H16.9802Z" fill="#0C0B0B"/>
    <path d="M22.8184 35.0248C22.8184 34.8434 22.9654 34.6816 23.1615 34.6816H24.8282C25.0095 34.6816 25.1713 34.8434 25.1713 35.0248V45.2012H29.7987C29.9997 45.2012 30.1419 45.363 30.1419 45.5444V47.0297C30.1419 47.2111 29.9948 47.3728 29.7987 47.3728H23.1615C22.9605 47.3728 22.8184 47.2111 22.8184 47.0297V35.0248Z" fill="#0C0B0B"/>
    <path d="M31.9756 35.0248C31.9756 34.8434 32.1374 34.6816 32.3187 34.6816H34.005C34.1864 34.6816 34.3481 34.8434 34.3481 35.0248V47.0346C34.3481 47.216 34.1864 47.3777 34.005 47.3777H32.3187C32.1374 47.3777 31.9756 47.216 31.9756 47.0346V35.0248Z" fill="#0C0B0B"/>
    <path d="M36.0053 46.9069L41.6425 34.701C41.6965 34.5931 41.7896 34.5 41.9514 34.5H42.1327C42.3141 34.5 42.3876 34.5931 42.4416 34.701L48.0298 46.9069C48.1376 47.1422 47.9955 47.3775 47.721 47.3775H46.1425C45.868 47.3775 45.7455 47.2696 45.618 47.0147L44.7308 45.0539H39.3092L38.422 47.0147C38.3484 47.1961 38.1867 47.3775 37.8975 47.3775H36.319C36.0494 47.3775 35.9024 47.1422 36.0102 46.9069H36.0053ZM43.8386 43.0441L42.0249 39.0539H41.971L40.1916 43.0441H43.8386Z" fill="#0C0B0B"/>
    <path d="M49.6768 34.8284C49.6768 34.6471 49.8386 34.5 50.0199 34.5H50.4709L58.015 42.5196H58.0346V35.0245C58.0346 34.8431 58.1817 34.6814 58.3778 34.6814H60.0444C60.2258 34.6814 60.3876 34.8431 60.3876 35.0245V47.2304C60.3876 47.4118 60.2258 47.5588 60.0444 47.5588H59.6082L52.0248 39.2353H52.0052V47.0343C52.0052 47.2157 51.8582 47.3775 51.6621 47.3775H50.0101C49.8288 47.3775 49.667 47.2157 49.667 47.0343V34.8284H49.6768Z" fill="#0C0B0B"/>
    <path d="M62.5 46.7062L67.9068 36.9463V36.8728H63.3725C63.1912 36.8728 63.0294 36.7111 63.0294 36.5297V35.0248C63.0294 34.8434 63.1912 34.6816 63.3725 34.6816H70.9559C71.1373 34.6816 71.299 34.8434 71.299 35.0248V35.2601L65.9657 45.1473V45.1816H70.5931C70.7941 45.1816 70.9363 45.3434 70.9363 45.5248V47.0297C70.9363 47.2111 70.7892 47.3728 70.5931 47.3728H62.848C62.6667 47.3728 62.5049 47.2111 62.5049 47.0297V46.7012L62.5 46.7062Z" fill="#0C0B0B"/>
    <path d="M71.8041 46.9069L77.4463 34.701C77.5002 34.5931 77.5933 34.5 77.7551 34.5H77.9365C78.1178 34.5 78.1914 34.5931 78.2453 34.701L83.8335 46.9069C83.9413 47.1422 83.7992 47.3775 83.5247 47.3775H81.9463C81.6717 47.3775 81.5492 47.2696 81.4217 47.0147L80.5345 45.0539H75.1129L74.2257 47.0147C74.1521 47.1961 73.9904 47.3775 73.7012 47.3775H72.1227C71.8531 47.3775 71.7061 47.1422 71.8139 46.9069H71.8041ZM79.6423 43.0441L77.8286 39.0539H77.7747L75.9953 43.0441H79.6423Z" fill="#0C0B0B"/>
  </g>
  <defs>
    <clipPath id="clip0_1816_28245">
      <rect width="93" height="93" fill="white" transform="translate(0 0.5)"/>
    </clipPath>
    <clipPath id="clip1_1816_28245">
      <rect width="75" height="13.2353" fill="white" transform="translate(9 34.5)"/>
    </clipPath>
  </defs>
</svg>

