<svg width="92" height="93" viewBox="0 0 92 93" fill="none" xmlns="http://www.w3.org/2000/svg">
  <g clip-path="url(#clip0_592_8083)">
    <path d="M91.9497 0.5H-0.000244141V83.424H91.9497V0.5Z" fill="black"/>
    <path d="M91.9497 86.7965H-0.000244141V92.4504H91.9497V86.7965Z" fill="black"/>
    <path d="M8.56372 49.8973H17.6285C19.0809 49.8973 20.4832 50.0461 21.7352 50.3437C22.9872 50.6413 24.1391 51.0876 25.0406 51.7324C25.9921 52.3275 26.7434 53.0715 27.2442 54.0138C27.7951 54.9065 28.0455 55.9976 28.0455 57.1879C28.0455 58.4278 27.7951 59.4693 27.2442 60.362C26.6933 61.2547 25.9921 61.9987 25.1408 62.6434C24.2894 63.2386 23.2877 63.6849 22.1359 63.9825C21.0341 64.2801 19.8822 64.4289 18.6802 64.4289H14.9241V75.6871H8.56372V49.8973ZM14.9742 62.0979H17.0776C17.7787 62.0979 18.4298 61.9491 18.9807 61.7011C19.5316 61.4531 19.9823 61.106 20.3329 60.6596C20.6835 60.2132 20.984 59.7173 21.1342 59.1221C21.3345 58.527 21.3846 57.9318 21.3846 57.2871C21.3846 56.4936 21.2845 55.8488 21.0341 55.2041C20.7836 54.6089 20.4832 54.113 20.0825 53.6666C19.6818 53.2698 19.181 52.9227 18.6301 52.7243C18.0792 52.5259 17.4783 52.3771 16.8773 52.3771H14.9742V62.0979Z" fill="#FFD100"/>
    <path d="M31.401 49.8973H40.8664C43.2704 49.8973 45.524 50.1949 47.5774 50.7405C49.6307 51.286 51.3836 52.1291 52.836 53.2203C54.2883 54.3114 55.4402 55.6504 56.2916 57.1879C57.0929 58.775 57.4935 60.5604 57.4935 62.5938C57.4935 64.4289 57.143 66.1151 56.4418 67.7022C55.7407 69.2892 54.7391 70.6779 53.4369 71.8682C52.0847 73.0585 50.4821 74.0008 48.5289 74.6952C46.5757 75.3895 44.3721 75.7367 41.8681 75.7367H31.401V49.8973ZM37.7614 73.0585H41.1669C42.419 73.0585 43.6209 72.8105 44.7227 72.3642C45.8245 71.9178 46.8262 71.2235 47.6275 70.3308C48.4788 69.438 49.1299 68.3469 49.5806 67.0574C50.0815 65.768 50.2818 64.2801 50.2818 62.5938C50.2818 61.1556 50.0314 59.8165 49.5806 58.5766C49.1299 57.3367 48.4788 56.2952 47.6775 55.3529C46.8762 54.4601 45.9247 53.7658 44.7728 53.2203C43.671 52.7243 42.419 52.4763 41.1168 52.4763H37.7113V73.0585H37.7614Z" fill="#FFD100"/>
    <path d="M62.8524 49.8973L71.4664 67.7518L79.4294 49.8973H83.5862L71.817 76.1335H68.8121L56.2416 49.8973H62.8524Z" fill="#FFD100"/>
  </g>
  <g clip-path="url(#clip1_592_8083)">
    <path d="M9.04382 46.4079L14.6253 34.3332C14.6786 34.2265 14.7708 34.1344 14.9308 34.1344H15.1102C15.2896 34.1344 15.3624 34.2265 15.4157 34.3332L20.9439 46.4079C21.0506 46.6406 20.9099 46.8734 20.6384 46.8734H19.0769C18.8054 46.8734 18.6841 46.7667 18.5581 46.5145L17.6803 44.5748H12.3171L11.4394 46.5145C11.3666 46.694 11.2066 46.8734 10.9205 46.8734H9.35902C9.09231 46.8734 8.94683 46.6406 9.05352 46.4079H9.04382ZM16.7978 42.5866L15.0035 38.6394H14.9502L13.1899 42.5866H16.7978Z" fill="white"/>
    <path d="M22.5732 34.6533C22.5732 34.4739 22.7187 34.3138 22.9127 34.3138H24.5614C24.7409 34.3138 24.9009 34.4739 24.9009 34.6533V44.7203H29.4786C29.6774 44.7203 29.818 44.8804 29.818 45.0598V46.5291C29.818 46.7085 29.6725 46.8686 29.4786 46.8686H22.9127C22.7139 46.8686 22.5732 46.7085 22.5732 46.5291V34.6533Z" fill="white"/>
    <path d="M31.6317 34.6533C31.6317 34.4739 31.7917 34.3138 31.9712 34.3138H33.6393C33.8187 34.3138 33.9788 34.4739 33.9788 34.6533V46.534C33.9788 46.7134 33.8187 46.8734 33.6393 46.8734H31.9712C31.7917 46.8734 31.6317 46.7134 31.6317 46.534V34.6533Z" fill="white"/>
    <path d="M35.6178 46.4079L41.1944 34.3332C41.2477 34.2265 41.3399 34.1344 41.4999 34.1344H41.6793C41.8587 34.1344 41.9315 34.2265 41.9848 34.3332L47.513 46.4079C47.6197 46.6406 47.479 46.8734 47.2075 46.8734H45.646C45.3744 46.8734 45.2532 46.7667 45.1271 46.5145L44.2494 44.5748H38.8861L38.0084 46.5145C37.9357 46.694 37.7757 46.8734 37.4896 46.8734H35.9281C35.6614 46.8734 35.5159 46.6406 35.6226 46.4079H35.6178ZM43.3669 42.5866L41.5726 38.6394H41.5193L39.759 42.5866H43.3669Z" fill="white"/>
    <path d="M49.1423 34.4593C49.1423 34.2799 49.3023 34.1344 49.4817 34.1344H49.9279L57.3908 42.0678H57.4102V34.6533C57.4102 34.4738 57.5557 34.3138 57.7497 34.3138H59.3984C59.5779 34.3138 59.7379 34.4738 59.7379 34.6533V46.7279C59.7379 46.9073 59.5779 47.0528 59.3984 47.0528H58.9669L51.4651 38.8188H51.4457V46.5339C51.4457 46.7134 51.3002 46.8734 51.1062 46.8734H49.472C49.2926 46.8734 49.1326 46.7134 49.1326 46.5339V34.4593H49.1423Z" fill="white"/>
    <path d="M61.8279 46.2091L67.1766 36.5542V36.4815H62.691C62.5116 36.4815 62.3516 36.3214 62.3516 36.142V34.6533C62.3516 34.4739 62.5116 34.3138 62.691 34.3138H70.1928C70.3723 34.3138 70.5323 34.4739 70.5323 34.6533V34.8861L65.2563 44.667V44.7009H69.834C70.0328 44.7009 70.1734 44.861 70.1734 45.0404V46.5291C70.1734 46.7085 70.028 46.8686 69.834 46.8686H62.1722C61.9928 46.8686 61.8327 46.7085 61.8327 46.5291V46.2042L61.8279 46.2091Z" fill="white"/>
    <path d="M71.0318 46.4079L76.6133 34.3332C76.6667 34.2265 76.7588 34.1344 76.9188 34.1344H77.0983C77.2777 34.1344 77.3504 34.2265 77.4038 34.3332L82.9319 46.4079C83.0386 46.6406 82.898 46.8734 82.6264 46.8734H81.065C80.7934 46.8734 80.6722 46.7667 80.5461 46.5145L79.6684 44.5748H74.3051L73.4274 46.5145C73.3546 46.694 73.1946 46.8734 72.9085 46.8734H71.3471C71.0803 46.8734 70.9349 46.6406 71.0416 46.4079H71.0318ZM78.7858 42.5866L76.9916 38.6394H76.9382L75.178 42.5866H78.7858Z" fill="white"/>
  </g>
  <defs>
    <clipPath id="clip0_592_8083">
      <rect width="92" height="92" fill="white" transform="translate(-0.000244141 0.5)"/>
    </clipPath>
    <clipPath id="clip1_592_8083">
      <rect width="74.1936" height="13.093" fill="white" transform="translate(8.9032 34.1344)"/>
    </clipPath>
  </defs>
</svg>

