<svg width="211" height="186" viewBox="0 0 211 186" fill="none" xmlns="http://www.w3.org/2000/svg">
    <path d="M205.566 156.266C206.422 160.79 206.484 165.429 205.754 169.975C204.828 174.383 197.235 199.541 196.695 199.409C196.155 199.277 186.711 198.472 184.452 199.001C182.193 199.53 166.467 199.001 166.467 199.001C166.467 199.001 158.279 199.475 158.18 199.376C158.081 199.277 158.533 184.51 158.533 184.51L172.352 166.481L205.566 156.266Z" fill="white"/>
    <path d="M188.265 199.203C188.265 199.203 189.213 138.857 189.213 138.086C189.213 137.315 189.301 135.882 184.43 136.576C179.559 137.27 103.929 135.684 103.929 135.684L1.99361 137.645C1.99361 137.645 0.0540811 148.786 1.20016 152.676C2.34625 156.567 0.847524 164.975 0.847524 169.581C0.847524 174.188 1.02384 184.8 1.28832 185.946C1.55281 187.092 0.186322 192.051 1.46465 193.109C2.74297 194.167 68.3562 193.605 68.3562 193.605H142.19L142.984 200.107C152.902 199.787 149.398 199.952 158.203 199.401L158.555 184.535L176.606 160.291L178.733 198.597C179.722 199.249 180.859 199.646 182.039 199.754C183.306 199.644 188.265 199.203 188.265 199.203Z" fill="white"/>
    <path d="M207.771 141.213C207.958 141.676 208.156 141.588 203.638 144.42C199.451 147.043 196.883 147.847 191.582 149.147C189.808 149.577 189.654 149.731 189.665 149.269C189.742 137.543 190.216 136.772 188.342 136.144C187.835 135.978 163.525 136.254 162.6 136.078C162.732 135.725 163.757 133.499 164.131 133.554C165.729 133.819 167.294 132.871 169.101 132.672C174.997 132.066 173.829 131.262 179.637 132.011C184.441 132.628 181.587 131.747 191.703 132.11C192.221 132.11 193.753 131.813 195.01 131.736C198.646 131.471 203.826 128.804 204.057 129.631C206.404 136.948 205.159 133.047 206.404 136.243C207.074 137.833 207.534 139.504 207.771 141.213Z" fill="white"/>
    <path d="M193.5 98.324C197.434 110.997 202.393 109.201 194.349 111.614C188.761 113.289 186.734 112.859 181.676 112.804C178.91 112.804 179.901 113.697 181.114 108.143C182.138 103.459 181.786 104.264 184.188 99.0182C185.169 96.8914 185.29 96.4946 185.566 96.5828C189.213 97.8391 192.674 95.3596 192.927 96.1089C193.079 96.8568 193.271 97.5962 193.5 98.324Z" fill="white"/>
    <path d="M125.529 102.19C126.476 106.168 128.835 110.356 128.526 111.127C125.407 118.136 127.766 116.538 125.044 114.114C123.534 112.769 118.652 107.722 115.599 106.829C114.497 106.521 114.641 106.73 114.707 105.727C114.883 102.62 115.203 100.372 115.104 98.5314C115.074 98.0301 115.145 97.528 115.313 97.0547C118.079 98.1567 116.701 97.5616 119.17 99.1485C124.911 102.818 125.297 101.121 125.529 102.19Z" fill="white"/>
    <path d="M141.925 101.517C150.058 99.0593 151.425 97.2961 150.83 98.343C146.422 106.057 147.931 104.095 146.697 105.892C146.37 106.513 146.241 107.221 146.327 107.918C146.414 108.616 146.713 109.27 147.182 109.793C147.821 110.333 148.383 110.895 148.989 111.534C149.221 111.754 149.254 111.457 147.424 114.928C146.62 116.471 146.664 116.724 146.036 116.769C142.73 116.967 140.096 118.521 133.385 117.584C131.831 117.375 133.385 116.813 130.905 111.765C128.316 106.498 129.958 109.672 128.878 107.005C125.517 98.6516 126.806 106.123 141.925 101.517Z" fill="white"/>
    <path d="M183.537 92.2845C185.323 93.3094 185.367 93.2543 182.524 99.1059C178.799 106.82 180.496 108.319 178.799 106.897C177.53 105.82 176.098 104.953 174.556 104.329C171.944 102.864 171.735 100.847 168.01 99.4585C159.613 96.3178 163.514 97.0231 158.191 95.888C154.951 95.1938 153.343 96.0093 153.563 95.2709C154.665 91.7445 154.411 92.0531 155.767 90.2127C158.467 86.4549 158.059 87.3475 158.864 85.7386C159.448 84.6366 162.974 84.9011 162.974 84.7578C166.137 85.0003 163.305 84.5484 171.493 86.9618C173.785 87.6891 173.465 86.4329 183.537 92.2845Z" fill="white"/>
    <path d="M186.677 68.436C187.644 70.544 188.339 72.7656 188.749 75.048C187.867 74.9488 182.137 71.1359 174.974 70.5077C171.04 70.1771 171.073 70.7281 167.723 71.1028C163.612 71.5656 163.006 74.1554 165.144 70.0008C165.585 69.1412 166.18 68.1605 165.243 67.9401C164.307 67.7197 160.593 75.9296 159.832 76.6018C157.65 78.5509 155.196 80.1731 152.548 81.4176C152.174 81.6159 152.196 81.3404 152.196 80.9547C152.328 79.6874 152.967 71.3563 153.022 70.9155C153.077 70.4747 153.11 70.9926 156.813 68.3588C172.682 57.0853 179.294 61.4382 181.828 62.0443C183.096 62.2978 186.082 67.3009 186.677 68.436Z" fill="white"/>
    <path d="M134.828 86.6883C134.917 87.2172 134.674 86.8976 134.233 87.107C133.065 87.6801 132.151 87.6029 130.002 87.9776C122.96 87.5368 121.285 86.7654 118.001 85.3989C117.185 85.0573 117.207 84.9581 117.516 84.2969C120.029 78.7869 123.191 76.7813 123.643 77.6849C124.076 78.2321 124.618 78.684 125.234 79.012C125.852 79.3401 126.528 79.5374 127.225 79.5914C128.348 79.9256 129.535 79.9823 130.685 79.7567C132.988 79.371 132.889 79.404 133.01 79.7567C134.795 85.6303 133.98 81.1672 134.828 86.6883Z" fill="white"/>
    <path d="M176.462 162.018C176.671 165.985 176.682 165.721 176.352 165.787C175.039 166.125 173.702 166.358 172.352 166.481C172.561 165.974 175.415 162.25 175.768 161.798C176.44 160.905 176.396 160.74 176.462 162.018Z" fill="#592466"/>
    <path d="M208.089 143.265C208.706 148.853 208.838 148.775 208.221 150.979C207.89 152.159 206.447 154.352 206.149 155.387C206.061 155.696 205.73 155.938 205.565 156.236C204.661 157.823 201.157 159.189 200.22 159.63C198.105 160.666 196.518 160.435 194.887 161.449C191.415 163.653 190.479 163.498 189.784 163.653C189.454 163.741 189.498 163.741 189.542 161.041C189.762 148.654 188.991 150.704 190.644 150.252C195.878 148.853 195.603 149.315 198.92 148.048C204.981 145.8 207.945 142.219 208.089 143.265Z" fill="#592466"/>
    <path d="M125.956 117.046C126.364 117.476 126.1 117.619 125.196 120.021C124.546 121.762 124.744 122.622 123.829 124.506C123.058 126.082 123.973 126.137 118.584 119.757C116.655 117.464 115.146 117.696 115.113 116.208C114.903 108.241 114.374 107.624 114.881 107.602C116.424 108.097 116.71 107.756 124.799 115.316C125.207 115.723 124.964 116.043 125.956 117.046Z" fill="#592466"/>
    <path d="M203.33 127.064C203.484 128.244 203.738 128.089 202.515 128.519C195.329 130.999 190.877 131.021 190.866 130.999C188.236 130.846 185.598 130.897 182.976 131.153C180.519 131.153 177.268 130.503 175.328 130.712C167.405 131.561 165.928 132.773 164.484 132.674C164.793 131.968 163.955 133.357 169.994 123.725C170.446 122.998 171.879 124.827 174.777 124.089C175.064 124.012 175.284 123.725 175.548 123.538C176.312 122.807 176.829 121.855 177.025 120.816C180.706 110.667 176.849 114.281 185.94 113.973C189.213 114.035 192.468 113.47 195.528 112.309C200.531 110.634 198.448 109.994 200.806 116.441C201.998 119.89 202.843 123.449 203.33 127.064Z" fill="#592466"/>
    <path d="M133.088 118.524C140.802 119.813 146.312 117.147 145.684 118.182C141.683 124.794 142.984 126.205 135.865 128.365C135.281 128.541 136.184 128.629 133.584 122.249C133.182 121.131 132.916 119.97 132.79 118.788C132.746 118.513 132.834 118.458 133.088 118.524Z" fill="#592466"/>
    <path d="M177.951 107.749C178.778 108.51 179.45 108.444 179.307 109.138C178.767 111.805 177.83 112.918 176.805 116.345C174.921 122.648 176.067 121.106 173.124 119.133C166.215 114.505 167.262 111.871 160.187 111.077C156.462 110.659 152.859 106.934 149.872 106.35C148.384 106.052 148.858 106.35 148.318 106.273C148.484 105.38 151.624 100.289 153.046 97.126C153.343 96.4428 153.288 96.6301 154.545 96.4648C162.611 97.4566 160.848 97.8974 163.217 98.8452C170.182 101.6 168.727 100.619 170.546 102.383C173.279 105.071 172.981 104.939 174.182 105.457C175.555 106.01 176.828 106.784 177.951 107.749Z" fill="#592466"/>
    <path d="M192.035 93.1688C192.167 93.4223 192.63 94.8108 192.354 94.9761C191.344 95.3278 190.313 95.6187 189.269 95.8467C188.439 95.9542 187.598 95.9542 186.767 95.8467C185.665 95.8467 185.72 95.7365 185.908 95.1304C188.001 88.32 186.657 93.0035 187.55 87.5045C187.825 85.7964 187.55 86.4907 187.66 85.4988C187.66 85.2123 188.046 84.3307 187.219 84.1654C185.908 83.912 186.117 92.8382 185.147 92.0227C183.142 90.4138 182.458 90.4358 179.031 88.5514C177.264 87.4145 175.296 86.6218 173.235 86.2152C163.592 83.8569 165.697 83.4491 160.506 84.0111C159.404 84.1324 158.964 85.576 160.595 79.6803C160.98 78.2697 162.204 74.3907 163.537 73.7846C165.454 72.925 164.639 72.6275 167.592 72.1426C172.662 71.272 173.929 71.1728 178.469 72.2418C180.95 72.8865 183.37 73.7494 185.698 74.8204C189.632 76.8922 189.004 75.7792 189.875 80.7162C191.12 87.7029 190.801 90.7003 192.035 93.1688Z" fill="#592466"/>
    <path d="M176.362 58.231C177.464 58.6167 180.891 60.5453 179.878 60.2918C173.53 58.7159 170.092 60.2918 163.579 62.9476C162.755 63.2333 162.002 63.6959 161.375 64.3031C160.626 64.9643 160.163 64.6998 157.959 66.3087C153.407 69.6147 153.661 69.4384 153.551 69.4605C153.253 69.5596 153.319 69.3723 153.33 69.3943C154.686 61.8346 155.314 61.9558 154.95 60.7657C154.829 60.38 154.95 60.5232 157.441 59.873C168.549 57.0299 170.202 56.0601 176.362 58.231Z" fill="#592466"/>
    <path d="M170.359 119.347C171.108 119.81 167.229 125.386 164.22 130.235C154.424 146.016 157.608 145.288 148.991 146.644C129.331 149.741 122.091 147.162 109.594 147.437C108.624 147.437 108.768 141.343 108.79 140.991C108.812 140.638 108.79 140.583 109.131 140.429C112.085 139.084 111.589 138.324 112.338 137.993C113.087 137.663 114.2 137.354 117.584 136.296C119.424 135.712 124.835 133.916 125.992 133.431C135.238 129.596 142.048 129.32 144.142 123.932C144.649 122.609 149.949 113.253 151.911 109.209C152.098 108.823 151.911 109.066 154.655 110.597C158.137 112.526 157.84 112.295 162.744 113.341C165.951 114.003 167.416 117.496 170.359 119.347Z" fill="white"/>
    <path d="M167.989 21.3621C168.121 26.4203 169.091 28.7345 168.298 31.5226C167.118 35.4127 166.799 35.9306 165.565 37.0326C163.096 39.3689 165.653 40.1293 162.391 41.9476C162.27 42.0247 162.226 41.9476 162.237 41.8484C162.588 37.4085 162.051 32.9433 160.661 28.7125C159.922 26.8832 160.11 25.9244 159.129 26.3322C158.148 26.7399 161.443 34.8396 161.013 39.6885C160.881 41.2423 160.022 42.5757 160.077 44.0965C160.143 45.9699 158.644 47.7331 158.06 47.8323C157.079 47.9976 156.231 47.8323 155.459 48.0637C153.938 48.3943 153.332 49.5624 151.712 49.1657C150.61 48.8571 152.341 45.7715 152.131 43.3691C151.139 32.1397 151.029 30.1451 146.28 23.5992C143.723 20.0948 141.133 19.2683 137.937 17.6484C130.036 13.6812 132.978 11.929 125.496 8.99767C124.588 8.52204 123.603 8.21227 122.587 8.08301C121.485 8.08301 122.829 8.35851 120.746 8.0279C120.305 7.96178 120.371 6.43 121.848 5.6586C124.702 4.20395 124.669 2.35259 128.063 2.35259C129.992 2.13219 131.755 3.89539 135.436 5.6586C137.331 6.58428 138.026 7.70832 139.315 8.96461C140.116 9.63628 141.083 10.0815 142.114 10.254C143.062 10.6176 143.602 11.2127 144.02 10.5846C144.439 9.95641 143.216 9.26215 142.378 8.97563C141.078 8.50177 140.88 8.82135 139.778 7.60914C137.1 4.6668 136.582 4.89822 135.304 4.24804C134.025 3.59785 134.951 3.96151 133.728 3.27827C133.331 3.04685 133.298 2.99175 133.618 2.65013C133.76 2.48549 133.942 2.3603 134.147 2.28647C137.199 1.06324 138.874 2.19831 141.541 3.17909C145.321 4.57864 145.111 0.875895 152.109 3.46561C155.856 4.84312 157.509 5.81288 160.077 9.71397C162.402 13.2514 163.846 13.2845 165.961 16.1717C167.058 17.7067 167.754 19.4905 167.989 21.3621Z" fill="#592466"/>
    <path d="M159.272 78.457C159.272 78.6885 157.971 83.6364 157.586 84.6834C156.88 86.6449 155.492 87.7028 153.552 90.6893C152.836 91.7913 152.594 92.8933 151.591 96.5299C151.403 97.2352 151.117 96.5299 150.368 97.0478C147.657 98.8992 141.034 100.651 140.681 100.795C137.97 101.897 129.661 102.293 128.559 101.974C126.267 101.313 127.545 104.762 125.253 92.4635C125.219 92.3437 125.146 92.2383 125.047 92.1634C124.948 92.0884 124.826 92.0478 124.702 92.0478C124.577 92.0478 124.456 92.0884 124.357 92.1634C124.258 92.2383 124.185 92.3437 124.151 92.4635C124.303 95.1774 124.671 97.8749 125.253 100.53C125.55 102.018 117.748 97.0148 117.429 96.8825C114.552 95.6483 115.037 98.1609 117.054 86.5788C117.329 84.9809 117.23 86.9535 123.17 88.1767C129.562 89.4881 130.884 88.8159 132.438 88.6946C133.259 88.6532 134.06 88.4311 134.785 88.0445C135.391 87.8902 134.917 88.915 135.887 91.2513C137.331 94.6675 140.978 97.8633 143.601 96.9046C149.828 94.5242 150.39 89.5983 151.745 82.9863C151.855 82.4463 152.12 82.5785 153.949 81.8843C155.811 80.8842 157.591 79.7381 159.272 78.457Z" fill="#592466"/>
    <path d="M145.806 52.7355C146.908 54.675 153.443 62.5323 153.365 62.8188C152.1 67.398 151.379 72.1103 151.217 76.8583C150.952 80.7484 149.2 90.424 147.359 92.2864C145.155 94.4904 145.299 94.6667 142.852 95.4932C141.75 95.8789 138.191 93.7741 136.89 89.9832C136.362 87.8539 135.993 85.6879 135.788 83.5034C135.601 82.2692 134.543 81.5088 133.86 76.0098C133.618 73.9821 134.014 75.0621 135.271 76.8363C137.871 80.517 138.213 80.9688 138.731 80.6162C139.48 80.0982 138.268 78.8529 138.092 78.5995C133.033 71.1059 129.573 66.3232 126.311 65.9154C117.837 64.8134 117.11 67.7227 110.101 61.5074C109.869 61.298 110.872 60.5487 110.674 58.4879C110.743 58.1518 110.731 57.8039 110.636 57.4739C110.543 57.1438 110.37 56.8414 110.134 56.5925C109.671 56.2178 110.696 55.9533 111.39 55.9533C112.713 55.8431 112.944 56.9892 113.748 55.8101C115.115 53.8265 116.129 56.5925 119.258 57.419C119.765 57.5512 120.085 57.6063 120.206 57.1435C120.471 56.1407 118.983 56.317 117.231 54.8623C116.865 54.4968 116.427 54.2104 115.946 54.0209C115.464 53.8313 114.948 53.7426 114.432 53.7603C113.671 53.6942 113.23 54.6309 112.768 54.7742C112.305 54.9174 112.349 54.6199 111.115 54.6089C110.553 54.6089 111.346 53.9918 111.037 53.0661C110.641 51.909 109.638 51.7878 108.371 51.3359C107.985 51.1927 108.47 51.2698 108.459 50.8511C108.448 50.4323 108.944 47.7654 108.955 47.7434C109.065 47.1704 109.34 48.0189 110.762 47.7434C111.588 47.8946 112.441 47.742 113.164 47.3136C114.266 46.5092 113.264 45.7047 112.062 46.1565C109.241 47.1814 106.398 44.0848 108.525 42.6962C109.726 41.9138 112.933 42.2224 113.098 38.7621C113.098 38.3543 113.241 38.4535 113.87 38.7621C114.498 39.0706 113.98 40.6796 115.556 42.5089C116.074 43.1614 116.748 43.6722 117.516 43.9937C118.285 44.3154 119.123 44.4373 119.95 44.3482C120.779 44.2591 121.572 43.9619 122.254 43.4842C122.936 43.0066 123.487 42.364 123.854 41.6163C124.504 40.2939 126.763 39.831 128.262 40.1065C131.965 40.7787 131.733 40.6134 131.402 41.3187C131.072 42.024 130.84 42.6191 130.521 43.2583C130.323 43.644 130.047 43.9856 129.849 44.3603C129.055 45.892 130.367 46.3108 132.053 47.2034C135.788 49.2201 135.359 48.3054 138.059 43.4346C138.621 42.4648 138.709 43.5448 139.304 42.6411C139.644 41.9861 140.142 41.4269 140.755 41.0149C141.368 40.6029 142.073 40.3512 142.808 40.2828C150.137 39.7098 149.167 47.0161 143.91 51.9751C142.885 52.9338 140.736 52.5151 139.502 51.6996C139.119 51.374 138.774 51.0041 138.477 50.5976C137.981 50.1348 137.023 50.5425 137.849 51.8759C138.676 53.2093 141.298 53.9256 142.489 53.8816C145.442 53.7934 145.133 51.4682 145.806 52.7355ZM146.357 45.2419C146.93 45.4182 147.172 44.1399 146.72 43.3574C146.351 42.8874 145.884 42.5038 145.351 42.2335C144.817 41.9633 144.232 41.8128 143.635 41.7926C142.18 41.451 139.403 44.1729 141.354 46.3659C141.971 47.0602 142.775 47.4679 142.048 48.3164C141.045 49.4184 142.301 50.0466 142.951 49.3082C144.715 47.2806 142.544 45.7047 142.312 45.4402C141.265 44.3382 142.852 42.6632 144.395 43.1701C146.709 43.9305 145.321 44.9113 146.357 45.2419ZM122.631 59.9205C123.292 59.4467 124.405 58.4218 123.733 58.1243C123.325 57.948 123.435 57.6945 121.98 59.072C121.253 59.7112 121.925 60.4385 122.631 59.9205ZM120.36 58.9067C120.944 60.0087 124.008 57.1104 122.564 56.5815C122.035 56.3941 122.057 56.857 121.264 57.6835C120.944 57.959 120.03 58.2896 120.36 58.9067Z" fill="white"/>
    <path d="M150.047 36.8101C150.543 41.119 151.689 43.5985 149.738 48.5244C148.548 51.5329 149.738 51.5549 149.033 52.139C148.008 52.9765 148.306 54.1006 147.931 53.6157C144.834 49.6154 147.501 52.117 149.33 45.3727C149.579 44.0219 149.386 42.6268 148.779 41.3945C148.284 39.6202 144.206 38.2538 141.242 39.4439C140.658 39.6753 140.889 39.7194 138.52 40.9537C138.288 41.0749 138.729 40.9537 136.481 40.3365C132.503 39.3558 133.902 39.9949 133.594 38.8488C133.463 38.2219 133.573 37.5688 133.902 37.0195C134.63 35.5318 133.748 34.9037 132.15 31.4213C131.269 29.5149 134.288 28.5231 132.007 26.8039C130.828 25.9223 133.484 24.3465 132.327 23.7845C131.423 23.3437 131.081 23.6081 130.629 23.0461C129.087 21.1727 127.643 22.9029 126.144 21.6025C124.238 19.9495 123.94 19.7291 123.235 19.9164C118.827 21.0184 119.058 20.258 116.722 19.7511C116.459 19.6637 116.173 19.6685 115.913 19.7646C115.653 19.8607 115.433 20.0425 115.29 20.2801C114.838 20.9964 114.011 20.5886 112.876 20.1589C110.948 19.4095 111.774 21.9111 109.669 20.6768C106.363 18.7042 105.669 13.4917 105.812 13.095C106.519 14.1676 107.389 15.1232 108.391 15.9272C108.717 16.5457 109.007 17.1822 109.262 17.8336C109.537 18.4067 110.364 18.3295 110.242 17.7014C109.395 15.7169 109.018 13.5634 109.14 11.409C109.213 10.6295 109.398 9.86473 109.691 9.13884C109.87 10.1226 110.204 11.0714 110.683 11.9489C110.948 12.4118 110.683 12.8305 111.179 14.3954C111.388 15.0676 112.281 14.748 112.149 14.1199C111.922 13.4512 111.899 12.7299 112.083 12.0481C112.204 11.8057 112.083 10.4172 113.57 10.4502C116.116 10.4502 114.43 11.3759 115.774 14.4836C116.645 16.5663 117.538 15.4313 117.053 14.4836C115.752 11.8718 116.777 7.34257 117.053 6.76953C117.391 8.10174 118.08 9.31913 119.047 10.2959C119.875 11.3096 120.612 12.3936 121.251 13.5358C121.332 13.6492 121.45 13.7304 121.584 13.7648C121.719 13.7992 121.861 13.7846 121.985 13.7236C122.11 13.6626 122.209 13.5591 122.264 13.4318C122.319 13.3045 122.328 13.1617 122.287 13.0289C121.946 11.42 119.29 9.41434 120.855 9.29312C123.422 9.08374 126.001 10.4502 128.458 12.1032C128.745 12.2906 128.458 12.2244 127.169 12.9628C126.391 13.7286 125.748 14.6187 125.263 15.5966C124.326 17.3377 125.803 17.7455 125.913 17.0512C126.289 15.8105 127.025 14.7095 128.029 13.8885C129.638 13.1942 129.682 12.8856 129.979 13.2052C133.869 17.47 134.255 17.3267 135.93 18.1312C136.679 18.4838 133.638 18.3516 132.315 19.123C131.489 19.5968 130.861 19.8503 131.213 20.4013C131.566 20.9523 131.842 20.5446 132.966 20.0266C133.583 19.7401 133.682 19.7952 135.17 19.663C137.814 19.4205 138.123 19.2773 138.894 19.663C141.958 21.2388 142.807 21.2609 146.035 25.5587C146.642 26.3631 143.975 24.4567 140.525 26.4733C139.423 27.1346 138.95 26.6827 136.845 26.1538C136.195 25.9885 135.743 26.4954 136.128 26.9472C136.514 27.399 137.23 27.388 138.542 27.906C140.415 28.6663 141.109 27.1456 142.95 26.9582C145.661 26.6717 145.352 27.3109 146.608 27.399C147.369 27.4541 147.303 28.2035 148.515 30.0659C149.87 32.2919 149.727 33.9559 150.047 36.8101ZM145.991 34.9918C148.261 35.1461 147.347 33.46 145.826 33.6804C143.997 33.9449 144.195 33.5592 142.167 33.1515C141.135 33.0662 140.097 33.2248 139.137 33.6143C138.487 33.9559 139.005 34.6282 139.456 34.5841C140.832 34.1928 142.3 34.2902 143.611 34.8596C144.548 35.3004 144.933 35.058 145.991 34.9918Z" fill="#AA3CC5"/>
    <path d="M142.685 168.52C144.426 168.432 145.66 164.057 144.768 163.275C143.016 161.732 142.476 162.867 142.564 161.622C142.564 160.718 142.476 160.696 143.401 160.663C149.198 160.454 146.608 171.452 141.296 169.931C140.613 169.733 140.536 169.292 141.065 168.829C141.594 168.366 141.385 168.587 142.685 168.52Z" fill="white"/>
    <path d="M140.262 161.809C141.551 160.85 141.694 160.354 140.791 164.343C139.887 168.333 139.633 170.757 135.666 171.793C130.751 173.071 122.299 172.895 119.93 168.487C118.968 166.2 118.487 163.738 118.519 161.258C121.88 164.376 135.611 165.28 140.262 161.809Z" fill="white"/>
    <path d="M140.857 159.396C140.857 159.749 140.56 159.947 139.38 160.84C139.204 160.972 139.028 160.531 138.962 160.333C137.959 157.292 126.928 157.457 122.927 158.129C119.985 158.647 119.919 160.675 119.621 160.069C119.015 159.044 118.927 158.967 119.214 158.515C119.875 157.567 122.586 156.388 122.619 156.652C127.214 155.991 140.725 154.702 140.857 159.396Z" fill="white"/>
    <path d="M140.725 174.25C140.439 175.275 140.373 176.454 139.326 177.06C134.741 179.903 122.531 179.032 120.448 176.178C120.21 175.913 120.029 175.602 119.914 175.265C119.798 174.929 119.751 174.571 119.776 174.216C119.8 173.861 119.896 173.514 120.057 173.196C120.218 172.878 120.441 172.596 120.713 172.365C121.738 171.539 122.046 172.167 122.509 172.365C123.71 172.839 119.589 175.914 131.524 176.2C134.631 176.277 135.281 175.914 136.626 174.966C137.463 174.382 138.334 173.721 137.882 172.762C137.706 172.398 137.97 172.398 138.676 171.913C139.072 171.638 140.505 172.74 140.725 174.25Z" fill="white"/>
    <path d="M136.866 41.6276C137.132 41.6744 137.384 41.7798 137.605 41.9362C133.792 47.6446 135.842 47.6115 131.61 45.4957C130.717 45.0439 130.905 45.4957 132.943 41.264C133.153 40.8452 133.009 40.8562 136.866 41.6276Z" fill="#AA3CC5"/>
    <path d="M136.67 173.162C136.869 173.547 134.841 174.892 132.957 174.892C131.304 174.892 123.931 174.892 123.832 173.261C123.832 172.501 124.614 173.173 125.617 173.349C132.097 174.451 136.439 172.71 136.67 173.162Z" fill="white"/>
    <path d="M128.988 74.7956C130.211 74.1344 133.131 71.4014 132.768 73.925C131.985 79.3359 134.972 78.2118 129.175 78.9722C125.406 78.3992 125.594 78.3881 123.896 76.8784C127.103 74.9168 125.737 76.5478 128.988 74.7956Z" fill="#592466"/>
    <path d="M130.983 32.0385C132.889 36.3693 133.187 35.2783 132.393 37.3722C131.6 39.466 134.134 39.8517 129.517 38.9811C128.036 38.6348 126.534 38.3808 125.021 38.2207C124.304 38.2207 125.153 36.8652 123.522 34.7604C121.891 32.6556 118.012 31.3662 115.246 35.2232C114.254 36.5897 114.618 37.7909 113.946 37.4273C113.667 37.2289 113.334 37.1222 112.992 37.1222C112.651 37.1222 112.318 37.2289 112.039 37.4273C111.631 37.6807 111.852 37.2399 110.937 36.0167C109.725 34.4408 108.524 35.0139 108.524 34.2645C108.524 30.1981 108.292 31.6748 110.651 30.9585C111.246 30.7932 111.279 29.1402 110.133 28.9529C109.339 28.8316 109.405 29.4267 109.196 29.5039C108.799 29.6581 108.766 29.5039 108.799 29.2504C109.097 26.9206 109.671 24.6345 110.507 22.44C110.673 21.9772 111.257 22.44 112.171 21.4923C112.645 20.9633 112.932 21.9992 114.717 21.9551C116.502 21.9111 115.819 20.7319 117.097 21.1727C121.23 22.6825 123.037 20.3021 124.249 21.6355C126.971 24.5999 128.768 22.9359 129.451 23.7514C130.553 25.0077 131.159 24.4567 130.883 25.1509C129.781 27.8288 132.085 27.6084 131.468 28.4569C131.101 28.9689 130.864 29.563 130.78 30.1874C130.695 30.8117 130.764 31.4472 130.983 32.0385ZM124.062 31.9723C124.062 31.6968 124.404 31.6087 124.338 31.3662C124.249 30.3304 123.236 30.132 122.949 29.9116C122.255 29.3386 121.351 29.9116 120.635 29.4267C120.172 29.1292 118.651 29.7463 118.343 29.1071C118.297 29.0134 118.229 28.9324 118.144 28.872C118.061 28.8115 117.961 28.7734 117.858 28.7613C117.754 28.7492 117.649 28.7635 117.554 28.8028C117.457 28.842 117.372 28.905 117.307 28.9859C117.119 29.1953 117.064 29.1292 116.888 28.9859C116.106 28.3688 115.995 29.3275 115.544 29.4157C115.434 29.4488 115.334 29.5059 115.25 29.5831C115.167 29.6601 115.101 29.755 115.059 29.8608C115.016 29.9667 114.998 30.0806 115.006 30.1943C115.014 30.308 115.047 30.4185 115.103 30.5177C115.34 30.8739 115.673 31.1566 116.062 31.3338C116.452 31.5111 116.883 31.5757 117.307 31.5205C118.332 31.234 117.615 32.5233 121.715 31.2009C123.136 30.7381 123.324 31.8181 123.522 31.8952C123.699 31.9354 123.88 31.9612 124.062 31.9723Z" fill="white"/>
    <path d="M122.112 35.0478C122.74 35.6213 123.2 36.3554 123.442 37.1711C123.684 37.9868 123.698 38.8531 123.484 39.6764C123.27 40.4997 122.834 41.249 122.225 41.8432C121.617 42.4374 120.857 42.854 120.029 43.0483C117.737 43.4451 115.312 41.6708 115.389 38.0012C115.224 34.9045 119.621 32.4911 122.112 35.0478ZM121.957 39.4558C122.872 39.1142 121.825 37.5604 119.059 37.5714C118.034 37.6595 116.084 37.9901 116.392 38.9599C116.535 39.4338 117.263 39.1693 117.637 39.1142C118.012 39.0591 117.847 39.3897 118.21 40.4476C118.475 41.1859 119.863 41.5496 119.941 40.2272C119.985 39.8432 119.899 39.4555 119.698 39.1252C119.279 38.453 121.296 39.6652 121.99 39.4227L121.957 39.4558Z" fill="white"/>
    <path d="M119.787 123.672C123.093 127.794 123.093 126.24 120.768 129.678C120.768 129.678 96.2591 126.692 96.2371 126.681C94.2424 126.052 94.0331 119.529 93.8237 117.721C93.0082 110.338 96.733 106.029 103.742 84.8706C103.742 84.8706 105.946 77.5753 105.946 77.5423C108.778 68.8144 107.753 73.1343 107.863 69.7621C107.863 69.2001 107.621 69.1009 105.604 67.5581C103.973 66.2798 104.381 65.288 102.298 64.3513C99.8626 63.2493 98.8819 59.8111 101.064 58.5989C101.927 58.2472 102.747 57.7999 103.51 57.2654C107.136 54.5435 105.626 55.0614 108.183 56.494C108.808 56.8617 109.321 57.3908 109.67 58.0258C109.582 60.2298 109.67 59.789 109.064 60.7698C108.976 60.9131 108.37 60.6155 106.86 60.1747C106.309 60.0094 107.962 58.2683 106.75 57.8715C105.78 57.5519 106.023 60.2519 105.329 59.3482C105.227 59.225 105.091 59.1335 104.939 59.0847C104.787 59.0359 104.624 59.0317 104.469 59.0727C104.353 59.1866 104.269 59.3293 104.227 59.4861C104.184 59.643 104.184 59.8084 104.227 59.9653C104.767 61.7616 103.764 62.9077 104.568 63.084C105.67 63.3375 105.296 60.88 106.023 61.1886C109.009 62.3897 108.491 61.971 110.354 63.3926C112.668 65.1778 114.365 66.0264 114.288 68.0871C114.288 69.5197 113.968 69.9936 114.652 70.2029C115.335 70.4123 115.599 69.3654 115.665 68.561C115.82 66.6986 115.081 66.2578 115.82 66.5002C118.894 67.492 119.5 66.5663 119.566 67.3818C119.787 70.1478 117.792 71.867 117.043 77.2998C116.711 80.7339 116.155 84.1426 115.379 87.5044C112.789 101.456 114.464 94.5131 113.638 101.83C113.032 107.241 113.098 105.07 113.417 113.556C113.891 126.063 114.023 122.019 114.09 123.727C114.09 123.874 114.148 124.014 114.25 124.117C114.354 124.22 114.494 124.278 114.641 124.278C114.787 124.278 114.927 124.22 115.031 124.117C115.133 124.014 115.192 123.874 115.192 123.727C115.258 122.691 115.092 119.529 115.192 118.956C116.393 119.176 119.721 123.65 119.787 123.672Z" fill="white"/>
    <path d="M115.379 134.578C119.787 130.887 119.522 130.787 119.39 133.135C119.39 134.237 119.456 134.237 119.181 134.402C117.404 135.135 115.586 135.764 113.737 136.286C113.549 136.286 113.373 136.286 113.56 136.121C114.178 135.581 115.379 134.6 115.379 134.578Z" fill="white"/>
    <path d="M75.4966 164.941C75.1991 165.172 26.8873 154.891 26.8652 154.879C27.5485 153.976 76.808 128.167 80.5438 126.04C80.9626 125.798 118.111 130.635 118.387 130.779C117.924 131.286 87.1007 155.486 75.4966 164.941Z" fill="white"/>
    <path d="M107.027 42.7468C106.531 43.408 106.2 43.7496 105.748 42.9341C105.297 42.1187 104.095 39.6832 105.021 37.8098C105.947 35.9364 108.041 34.7463 109.749 36.245C110.277 36.671 110.707 37.2053 111.012 37.8116C111.316 38.418 111.487 39.0824 111.512 39.7604C111.6 40.3334 111.721 40.4987 110.862 40.675C109.422 41.0136 108.099 41.7285 107.027 42.7468Z" fill="white"/>
    <path d="M110.253 136.343C110.771 137.511 109.658 138.911 106.143 139.131C102.429 139.352 101.889 136.828 103.939 135.66C106.297 134.326 109.449 134.514 110.253 136.343Z" fill="#AA3CC5"/>
    <path d="M109.605 53.4284C110.167 54.1888 108.976 54.7508 107.974 54.6296C106.971 54.5084 106.629 53.6378 105.329 54.1117C104.436 54.4423 104.139 54.9382 102.078 56.4038C101.384 56.8997 100.249 57.0761 99.5433 57.8695C99.2789 58.156 99.2789 57.6932 99.1797 57.1091C99.1797 54.6847 101.869 54.4202 105.031 52.4917C105.369 52.3075 105.749 52.2109 106.133 52.2109C106.518 52.2109 106.897 52.3075 107.235 52.4917C108.932 53.0207 109.406 53.1529 109.605 53.4284Z" fill="white"/>
    <path d="M107.566 46.6188C108.249 46.9494 108.018 47.5114 107.93 48.0293C107.731 49.1313 105.659 46.6959 102.508 48.7677C102.188 48.9771 100.59 49.6603 99.6645 50.1231C98.7388 50.586 98.2209 48.1285 103.114 46.5086C105.152 45.8363 106.288 46.5747 107.059 46.3543C107.268 46.3102 107.5 46.6188 107.566 46.6188Z" fill="white"/>
    <path d="M107.213 49.6805C107.753 49.7687 107.378 50.7825 107.213 50.9037C107.048 51.025 105.527 50.3417 104.304 51.2674C103.357 51.8424 102.366 52.3399 101.339 52.7551C99.2016 53.9232 99.3779 54.2428 99.1355 53.6918C98.5514 52.0608 99.9179 51.2454 101.56 50.7054C102.552 50.3858 103.83 49.2838 104.568 49.3389C105.462 49.3155 106.355 49.4308 107.213 49.6805Z" fill="white"/>
    <path d="M103.4 143.108C103.4 144.287 103.477 145.962 103.488 146.183C103.499 146.403 103.488 146.48 102.452 146.579C101.506 146.712 100.553 146.789 99.5977 146.811C95.9501 147.318 94.0877 145.422 91.7845 145.312C89.4813 145.202 89.0516 144.265 88.0818 145.125C87.8816 145.406 87.6083 145.625 87.2916 145.762C86.9748 145.897 86.6269 145.945 86.2855 145.896C85.6023 145.896 85.2607 146.348 85.2937 146.678C85.2937 147.34 86.528 147.24 87.1231 147.24C87.7181 147.24 86.7814 147.891 87.4977 148.276C88.0267 148.563 88.1589 147.703 88.9854 146.48C89.1397 146.249 89.5805 146.381 89.8119 146.689C90.0434 146.998 90.0103 147.45 89.8119 148.166C89.7238 148.585 89.6136 149.213 88.4124 149.753C87.784 150.06 87.0774 150.172 86.3847 150.073C85.7015 149.94 85.1064 149.995 84.6766 149.918C83.6628 149.731 83.2991 149.367 82.9795 148.32C81.8114 144.375 82.0759 145.014 83.0677 144.276C83.5908 143.844 84.0314 143.322 84.368 142.733C84.4452 142.612 86.4949 140.529 86.517 140.529C86.9578 140.099 86.517 139.493 85.9219 139.747C84.8311 140.379 83.858 141.196 83.0456 142.16C81.9436 143.703 80.5772 143.714 80.8416 145.643C80.9629 146.745 81.1061 146.436 81.2494 147.494C81.3265 148.056 80.6874 147.769 80.489 147.791C78.5384 147.99 79.0784 144.067 79.387 142.138C79.5302 141.29 82.6269 139.262 83.3322 137.918C83.4017 137.828 83.4406 137.718 83.4431 137.605C83.4457 137.492 83.4117 137.381 83.3463 137.288C83.2809 137.196 83.1874 137.126 83.0797 137.091C82.972 137.056 82.8558 137.056 82.7481 137.091C82.3073 137.378 82.3073 137.444 78.7809 140.584C77.3483 141.852 78.4503 143.317 77.0948 144.089C75.5295 145.737 73.7933 147.215 71.9154 148.497C70.9677 149.136 69.5902 148.949 69.469 148.243C69.3037 147.285 70.6371 146.524 72.2791 145.345C75.1002 143.317 75.0892 141.764 76.6871 141.003C78.285 140.243 77.9874 139.196 81.3816 136.441C81.7766 136.213 82.1461 135.943 82.4836 135.636C83.0567 135.063 82.153 132.738 76.8414 139.031C76.2573 139.725 76.0589 139.471 74.1966 141.235C73.0946 142.281 72.8962 141.951 73.5574 140.661C76.5879 134.7 75.7614 137.576 78.7258 134.259C79.4972 133.399 80.5441 132.33 81.7673 132.518C83.4644 132.793 84.7317 132.077 87.2773 133.311C91.6854 135.438 89.305 133.741 95.5864 136.408C97.3026 137.068 99.0582 137.62 100.843 138.061C101.504 138.237 101.074 139.372 103.234 140.375C104.028 140.739 103.367 140.97 103.4 143.108Z" fill="white"/>
    <path d="M102.463 148.176C102.033 148.617 105.185 145.972 77.1168 168.64C76.4225 169.191 76.2903 169.169 76.2682 168.75C76.0589 165.962 76.147 166.26 75.9707 166.205C76.4997 165.466 92.5008 152.981 97.6471 148.782C98.121 148.374 98.143 148.584 102.463 148.176Z" fill="white"/>
    <path d="M67.9932 89.1876C81.3715 127.758 80.6883 124.518 80.0271 124.881C80.0271 124.881 28.3321 152.432 27.8362 152.564C26.591 152.85 28.8391 157.115 10.6119 108.671C8.59526 103.326 6.86512 99.9983 9.39972 99.0065C17.1137 96.009 39.5836 86.1791 62.0314 77.1758C64.3787 77.5394 64.2464 78.41 67.9932 89.1876Z" fill="#E0ACEC"/>
    <path d="M75.0346 168.854C75.1227 169.956 73.5469 169.284 58.5045 165.956C24.7612 158.474 26.304 158.903 26.2489 157.592C26.1828 156.027 26.0505 155.917 26.5685 156.027C80.5997 167.907 74.7481 164.975 75.0346 168.854Z" fill="white"/>
    <path d="M64.9963 102.092C67.4318 108.285 67.7734 106.334 52.4555 113.894C51.585 114.335 26.0075 127.118 24.9055 127.118C23.528 127.019 23.4949 127.25 21.0595 120.638C20.6187 119.459 20.4424 118.875 22.7566 117.498C26.1507 115.47 34.8786 111.723 56.1473 101.794C62.5389 98.7965 63.3213 97.8598 64.9963 102.092ZM50.2736 112.208C51.4417 111.392 50.527 109.739 49.6344 108.648C48.7418 107.557 47.6728 108.549 36.0357 113.839C23.0321 119.79 23.7263 119.228 23.55 120.649C24.9606 125.156 22.999 124.837 40.8184 116.649C48.4773 113.145 49.1936 112.968 50.2736 112.208Z" fill="white"/>
    <path d="M6.84274 101.719C6.84274 101.719 26.3702 153.513 26.1168 153.976C25.5676 154.469 25.2187 155.148 25.136 155.882C25.1225 155.932 25.104 155.979 25.0809 156.025C24.6731 155.618 20.3313 143.286 10.6336 117.577C5.60851 104.264 4.78201 103.846 6.84274 101.719Z" fill="white"/>
    <path d="M210.051 147.011C210.375 150.593 209.269 154.158 206.976 156.929C205.709 158.604 209.775 160.808 204.574 177.106L201.984 184.512C201.378 185.944 201.422 186.947 199.967 191.576C199.306 193.301 198.743 195.065 198.281 196.854C197.631 199.179 197.587 199.697 196.959 200.039C196.331 200.381 195.626 199.951 196.099 198.772C196.915 196.799 196.992 195.212 197.785 193.074C198.679 190.596 199.415 188.064 199.99 185.493C202.249 177.294 206.811 170.461 205.5 158.835C205.433 158.218 204.904 159.452 202.844 160.268C200.166 161.37 201.345 161.193 198.05 162.086C196.448 162.442 194.919 163.071 193.532 163.948C193.057 164.283 192.532 164.543 191.978 164.72C191.237 165.017 190.451 165.185 189.653 165.216C189.157 165.216 189.421 195.311 188.936 199.378C188.87 199.863 188.066 200.105 187.834 199.51C187.515 198.573 188.496 145.203 188.507 144.939C188.518 144.674 188.418 144.696 188.275 144.862C185.472 148.276 182.878 151.856 180.506 155.584C180.76 156.301 180.627 154.482 182.203 198.97C182.203 199.786 182.203 200.171 181.685 200.204C180.958 200.204 181.035 199.752 180.991 198.485L179.647 156.609C179.305 156.885 177.443 159.496 177.443 159.518C177.288 159.728 177.2 157.887 178.721 184.523C179.536 198.849 179.823 200.039 178.666 199.565C178.093 199.334 176.693 167.607 176.693 167.541C176.693 166.858 175.349 167.861 172.55 167.971C170.467 168.048 172.34 166.516 161.089 181.448C158.554 184.754 159.094 182.01 158.885 194.276C158.939 196.077 158.884 197.88 158.719 199.675C158.51 200.491 157.617 200.204 157.617 199.543C157.617 198.882 158.058 186.099 158.003 185.691C157.929 185.722 157.862 185.767 157.805 185.823C148.989 197.383 152.096 192.667 151.413 200.072C151.413 200.557 150.543 200.502 150.443 200.149C150.3 199.62 150.333 199.708 150.311 194.937C150.311 194.088 150.454 194.353 146.642 194.364C142.443 194.364 142.597 194.143 142.696 194.849C143.501 200.656 143.468 200.292 143.313 200.524C143.267 200.626 143.189 200.712 143.091 200.767C142.993 200.824 142.879 200.846 142.768 200.832C142.656 200.819 142.551 200.77 142.468 200.692C142.387 200.615 142.331 200.514 142.311 200.403C142.311 200.403 141.903 196.656 141.649 195.069C141.583 194.606 141.649 194.43 140.437 194.408C127.345 194.242 8.1969 194.749 1.44163 193.956C1.17715 193.956 1.08899 193.714 1.05593 193.493C1.02287 193.273 1.05593 193.008 1.34245 192.997C1.62897 192.986 149.099 193.449 149.937 193.284C150.41 193.196 150.289 193.372 150.278 190.242C150.278 187.498 150.41 187.344 149.903 187.344C143.468 187.344 1.88244 187.068 1.25429 187.035C0.890633 187.035 0.824513 186.914 0.791453 186.694C0.758393 186.473 0.526972 186.132 1.13307 186.044C5.02314 185.493 137.164 186.374 149.463 186.176C149.798 186.19 150.13 186.115 150.427 185.959C150.723 185.802 150.972 185.569 151.149 185.283C159.171 174.528 187.261 137.897 187.427 137.522C187.702 136.982 188.121 137.28 177.255 137.324C160.923 137.39 161.981 137.236 161.772 137.6C160.439 140.046 160.152 140.211 159.568 141.148C158.609 142.801 158.653 143.352 157.573 144.553C154.598 147.925 151.435 147.507 144.779 148.62C128.095 151.408 112.744 147.253 109.129 148.443C107.73 148.906 105.603 149.115 104.92 148.553C104.435 148.157 104.435 148.553 94.1311 156.885C80.0475 168.345 83.5849 164.929 80.2128 167.905C78.0088 169.833 76.0913 171.156 73.2481 170.505C24.4625 159.419 26.5673 160.742 24.4845 157.744C23.7021 156.642 17.1231 138.558 17.1121 138.536C16.9248 137.996 17.1121 138.206 12.2082 138.228C1.29837 138.228 2.43344 138.228 1.98162 138.228C1.52979 138.228 1.59591 137.974 1.55183 137.776C1.54148 137.673 1.5695 137.57 1.63053 137.486C1.69157 137.403 1.78128 137.345 1.88244 137.324C2.40038 137.17 6.69818 137.225 16.2085 137.115C16.7154 137.115 16.6272 137.313 14.324 131.164C3.4583 101.718 3.3481 103.922 6.85246 99.5143C8.26302 97.7511 7.45856 98.831 46.1719 82.2239C65.6333 73.8817 63.5174 73.0001 67.5949 84.6042C67.5949 84.6042 81.2817 123.516 81.414 124.541C81.414 125.004 81.4801 124.926 92.8858 126.238C94.9576 126.48 92.7536 126.513 92.7646 121.753C92.7646 117.168 91.0565 116.959 93.8666 107.956C94.3846 106.314 107.598 71.4022 106.341 70.19C106.046 69.85 105.722 69.5366 105.372 69.2533C102.55 67.3689 103.465 66.4652 101.393 65.5726C98.3628 64.2722 98.1865 60.5475 98.5942 59.3463C98.7044 59.0267 97.2828 58.0018 98.2195 55.5554C98.3518 55.2248 98.4179 54.9493 98.0322 54.1669C97.1285 52.3486 98.6934 51.6433 98.2195 50.8609C96.6547 48.3703 99.8284 46.2214 102.628 45.2296C105.427 44.2378 106.474 45.2296 106.518 44.888C106.595 44.2378 105.416 44.5464 104.446 42.684C102.694 39.2678 104.446 35.4438 106.947 34.7386C107.366 34.6173 107.278 34.5512 107.322 32.1599C107.322 31.5207 106.925 32.6447 106.341 32.5676C105.989 32.5676 105.889 32.4464 105.867 32.0937C105.779 30.4187 107.289 31.2452 107.553 29.1845C107.789 26.7504 108.465 24.3793 109.548 22.1867C109.857 21.5917 108.358 22.1096 106.573 19.2554C103.366 14.1201 104.534 7.65132 106.573 11.9712C106.912 12.7122 107.4 13.3759 108.005 13.9217C108.237 12.8748 107.476 10.6157 109.438 7.01216C109.502 6.90526 109.598 6.82107 109.712 6.77181C109.827 6.72244 109.955 6.71021 110.076 6.73709C110.198 6.76387 110.308 6.82823 110.391 6.92113C110.475 7.01392 110.527 7.13062 110.54 7.25459C111.399 12.6764 110.804 9.4586 112.953 9.27126C116.821 8.94066 114.177 11.31 116.05 5.65669C117.042 2.64822 118.662 7.70642 118.882 8.01498C120.072 9.70104 118.507 6.91297 120.149 5.22691C120.943 4.42245 121.725 4.37837 123.136 3.0229C124.136 1.95594 125.461 1.25062 126.905 1.01732C128.348 0.784019 129.829 1.0359 131.114 1.73356C131.853 2.1413 131.93 2.37272 132.216 2.10824C133.748 0.576457 135.875 0.345036 138.035 0.510337C139.269 0.609517 140.239 1.30378 142.707 2.04212C143.644 2.32864 144.911 1.49112 146.289 1.21562C148.438 0.763798 149.837 1.21562 153.066 2.31762C159.954 4.64285 160.02 8.54394 163.546 11.7067C169.982 17.4702 169.056 19.5529 169.839 27.2449C170.144 30.4932 169.473 33.7586 167.91 36.623C167.346 37.3521 166.731 38.0406 166.07 38.6837C165.111 39.6535 166.07 40.9759 164.318 42.3644C162.565 43.7529 161.309 43.5766 161.364 44.5684C161.346 45.4094 161.137 46.2352 160.756 46.9849C160.374 47.7346 159.829 48.3888 159.16 48.8993C158.719 49.2299 158.18 49.3731 155.854 49.4503C154.697 49.4503 154.598 50.6294 152.273 50.6074C150.708 50.6074 150.377 49.5054 150.377 50.2658C150.44 50.8256 150.469 51.3886 150.465 51.9518C150.377 53.3734 148.956 53.3073 149.253 55.1807C149.253 55.1807 151.138 57.7814 151.303 58.0018C152.912 60.2058 152.879 60.2058 153.187 59.9854C154.907 58.4647 161.574 57.7263 163.701 56.9219C166.334 55.9301 166.797 56.437 169.144 55.8199C173.365 54.7179 183.239 57.4839 188.584 68.8455C190.512 72.956 192.815 90.0701 193.311 92.2741C194.283 97.0458 196.032 101.625 198.491 105.829C203.582 114.931 203.318 124.276 207.472 134.844C209.908 140.928 209.5 143.021 210.051 147.011ZM208.221 150.989C208.839 148.785 208.706 148.851 208.089 143.275C207.968 142.228 204.982 145.787 198.943 148.113C195.637 149.391 195.901 148.928 190.667 150.317C188.992 150.768 189.763 148.719 189.565 161.105C189.565 163.805 189.476 163.805 189.807 163.717C190.468 163.53 191.438 163.651 194.909 161.513C196.54 160.499 198.127 160.731 200.243 159.695C201.147 159.254 204.651 157.887 205.588 156.301C205.764 156.003 206.095 155.761 206.172 155.452C206.447 154.361 207.946 152.168 208.221 150.989ZM203.637 144.377C208.155 141.545 207.957 141.633 207.77 141.17C207.518 139.443 207.04 137.757 206.348 136.156C205.136 133.004 206.348 136.905 204.001 129.544C203.736 128.717 198.59 131.384 194.953 131.649C193.752 131.726 192.22 132.034 191.647 132.023C181.531 131.66 184.385 132.541 179.58 131.924C173.773 131.175 174.941 131.924 169.045 132.585C167.238 132.784 165.673 133.687 164.075 133.467C163.701 133.467 162.676 135.671 162.543 135.991C163.469 136.167 187.779 135.891 188.286 136.057C190.16 136.685 189.686 137.456 189.609 149.182C189.609 149.644 189.752 149.49 191.526 149.06C196.926 147.848 199.45 147.044 203.637 144.421V144.377ZM202.535 128.464C203.758 128.034 203.505 128.188 203.351 127.009C202.873 123.395 202.039 119.836 200.86 116.386C198.502 109.939 200.585 110.578 195.581 112.253C192.521 113.415 189.267 113.98 185.994 113.917C176.903 114.226 180.76 110.611 177.079 120.761C176.883 121.8 176.366 122.752 175.602 123.483C175.338 123.67 175.117 123.957 174.831 124.034C171.932 124.816 170.5 122.932 170.048 123.67C163.976 133.302 164.814 131.913 164.538 132.618C165.982 132.718 167.458 131.516 175.382 130.657C177.321 130.448 180.572 131.109 183.03 131.098C185.651 130.842 188.29 130.791 190.92 130.943C190.92 130.943 195.328 130.987 202.513 128.508L202.535 128.464ZM194.347 111.636C202.392 109.223 197.279 111.074 193.499 98.3462C193.264 97.6235 193.073 96.8876 192.926 96.1422C192.672 95.3928 189.212 97.8723 185.564 96.616C185.3 96.5279 185.168 96.9246 184.187 99.0514C181.784 104.297 182.137 103.459 181.112 108.176C179.9 113.686 178.908 112.804 181.674 112.837C186.732 112.86 188.76 113.289 194.347 111.636ZM192.353 94.9961C192.617 94.8308 192.165 93.4422 192.033 93.1888C190.799 90.6652 191.118 87.6788 189.829 80.7362C188.958 75.7992 189.587 76.9122 185.652 74.8404C183.324 73.7694 180.904 72.9065 178.423 72.2617C173.883 71.1597 172.616 71.292 167.547 72.1626C164.637 72.6474 165.409 72.945 163.491 73.8046C162.158 74.4107 160.935 78.2897 160.549 79.7003C158.918 85.596 159.326 84.1083 160.461 84.0311C165.651 83.4691 163.546 83.8769 173.189 86.2351C175.251 86.6418 177.218 87.4345 178.985 88.5714C182.413 90.4558 183.096 90.4338 185.101 92.0427C186.104 92.8582 185.862 83.932 187.173 84.1854C188 84.3507 187.658 85.2874 187.614 85.5188C187.471 86.5107 187.779 85.8164 187.504 87.5245C186.611 93.0345 187.956 88.34 185.862 95.1504C185.674 95.7565 185.575 95.8116 186.721 95.8667C187.552 95.9743 188.392 95.9743 189.223 95.8667C190.283 95.6316 191.328 95.3335 192.353 94.974V94.9961ZM188.749 75.16C188.339 72.8775 187.644 70.656 186.677 68.548C186.082 67.446 183.096 62.4098 181.828 62.1233C179.239 61.5503 172.66 57.1974 156.813 68.4819C153.11 71.1157 153.11 70.4655 153.022 71.0385C152.934 71.6116 152.328 79.8545 152.196 81.0778C152.196 81.4635 152.196 81.739 152.548 81.5406C155.196 80.2961 157.651 78.674 159.833 76.7249C160.593 76.0526 164.362 67.9088 165.243 68.0631C166.125 68.2174 165.585 69.2643 165.144 70.1239C163.006 74.3005 163.612 71.7107 167.723 71.2259C171.029 70.8512 171.029 70.3002 174.974 70.6308C182.181 71.1708 187.867 74.9837 188.749 75.0829V75.16ZM188.661 141.82C188.716 136.993 189.267 137.203 186.38 140.983C150.234 188.27 151.479 185.823 151.369 188.082C151.369 188.633 151.446 192.314 151.479 192.424C151.512 192.534 188.639 143.076 188.661 141.743V141.82ZM182.523 99.1837C185.366 93.332 185.322 93.3871 183.537 92.3623C173.464 86.5107 173.729 87.7669 171.415 87.0947C163.227 84.6262 166.059 85.078 162.896 84.8907C162.896 85.034 159.37 84.7144 158.786 85.8715C157.981 87.4804 158.389 86.5878 155.689 90.3456C154.367 92.186 154.587 91.8774 153.485 95.4038C153.265 96.1422 154.873 95.3267 158.113 96.0209C163.436 97.1229 159.535 96.4507 167.932 99.5914C171.657 100.98 171.866 102.997 174.478 104.462C176.02 105.086 177.452 105.953 178.721 107.03C180.495 108.33 178.787 106.799 182.523 99.1065V99.1837ZM179.878 60.3711C180.892 60.6246 177.465 58.6961 176.363 58.3104C170.202 56.1064 168.549 57.1092 157.452 59.9524C154.929 60.6026 154.84 60.4593 154.962 60.845C155.325 62.0352 154.697 61.947 153.342 69.4737C153.342 69.4737 153.265 69.639 153.562 69.5398C153.65 69.5398 153.397 69.6831 157.97 66.3881C160.174 64.7792 160.637 65.0436 161.386 64.3824C162.013 63.7752 162.766 63.3126 163.59 63.027C170.092 60.2609 173.53 58.7402 179.878 60.294V60.3711ZM179.294 109.135C179.437 108.441 178.765 108.507 177.938 107.746C176.815 106.781 175.543 106.007 174.17 105.454C172.968 104.936 173.266 105.068 170.533 102.379C168.748 100.616 170.169 101.597 163.205 98.8421C160.835 97.8943 162.599 97.4535 154.532 96.4617C153.276 96.627 153.331 96.4617 153.033 97.1229C151.656 100.286 148.471 105.377 148.306 106.27C148.846 106.27 148.372 106.049 149.859 106.347C152.846 106.931 156.471 110.656 160.174 111.074C167.249 111.868 166.202 114.502 173.112 119.13C176.054 121.103 174.919 122.645 176.792 116.342C177.828 112.915 178.754 111.802 179.294 109.135ZM176.341 165.789C176.671 165.723 176.671 165.987 176.451 162.02C176.385 160.742 176.451 160.918 175.756 161.799C175.404 162.251 172.55 165.976 172.34 166.483C173.694 166.36 175.036 166.128 176.352 165.789H176.341ZM164.218 130.205C167.227 125.356 171.106 119.78 170.357 119.317C167.414 117.499 165.949 114.006 162.742 113.311C157.838 112.209 158.135 112.496 154.653 110.567C151.909 109.036 152.096 108.793 151.909 109.179C149.948 113.223 144.647 122.579 144.14 123.902C142.046 129.29 135.236 129.566 125.99 133.401C124.888 133.886 119.378 135.682 117.582 136.266C114.199 137.368 113.008 137.666 112.336 137.963C111.664 138.261 112.083 139.065 109.129 140.399C108.799 140.553 108.799 140.553 108.788 140.961C108.777 141.368 108.622 147.429 109.592 147.407C122.056 147.132 129.351 149.711 148.989 146.614C157.562 145.258 154.422 145.986 164.218 130.205ZM168.274 31.5207C169.122 28.7326 168.087 26.4184 167.965 21.3602C167.736 19.4771 167.039 17.6813 165.938 16.1367C163.822 13.2495 162.378 13.2164 160.053 9.679C157.485 5.77791 155.832 4.80815 152.085 3.43065C145.088 0.840938 145.297 4.53265 141.517 3.14412C138.85 2.16334 137.175 1.02828 134.123 2.2515C133.918 2.32534 133.736 2.45052 133.594 2.61516C133.274 2.95678 133.307 3.01188 133.704 3.2433C134.927 3.92655 133.913 3.50779 135.28 4.21307C136.646 4.91835 137.076 4.63183 139.754 7.57418C140.856 8.78638 141.054 8.4668 142.355 8.94066C143.192 9.22718 144.471 9.82226 143.997 10.5496C143.523 11.2769 143.038 10.5496 142.09 10.219C141.072 10.0441 140.118 9.60307 139.324 8.94066C138.035 7.68438 137.341 6.56033 135.445 5.63465C131.764 3.82737 130.001 2.06416 128.073 2.32864C124.679 2.32864 124.712 4.20205 121.857 5.63465C120.348 6.40605 120.282 7.93784 120.755 8.00396C122.838 8.33456 121.516 8.00396 122.596 8.05906C123.612 8.18832 124.597 8.4981 125.505 8.97372C132.988 11.905 130.045 13.6572 137.947 17.6244C141.143 19.2444 143.732 20.0709 146.289 23.5753C151.072 30.1101 151.149 32.1158 152.141 43.3452C152.35 45.7476 150.576 48.8552 151.722 49.1417C153.353 49.5825 153.926 48.4144 155.469 48.0397C156.24 47.8634 157.089 47.9736 158.069 47.8083C158.653 47.7091 160.152 45.9459 160.086 44.0725C160.031 42.5848 160.89 41.2514 161.023 39.6645C161.452 34.8157 158.102 26.749 159.138 26.3082C160.174 25.8674 159.932 26.8592 160.67 28.6886C162.061 32.9194 162.597 37.3846 162.246 41.8244C162.246 41.9457 162.246 42.0008 162.4 41.9236C165.706 40.1053 163.105 39.3449 165.574 37.0087C166.797 35.8957 167.172 35.4108 168.274 31.5207ZM157.584 84.6813C157.97 83.5793 159.304 78.6864 159.27 78.455C157.589 79.6939 155.812 80.7993 153.959 81.761C152.152 82.4883 151.887 82.3561 151.755 82.863C150.366 89.475 149.804 94.4561 143.501 96.8034C140.889 97.7731 137.241 94.5993 135.787 91.1501C134.784 88.8138 135.258 87.8441 134.685 87.9433C133.96 88.3299 133.159 88.552 132.338 88.5934C130.839 88.7146 129.461 89.3869 123.07 88.0755C117.13 86.8523 117.229 84.8797 116.954 86.4776C114.937 98.0596 114.452 95.5471 117.328 96.7813C117.648 96.9136 125.45 101.917 125.152 100.429C124.571 97.7738 124.203 95.0763 124.05 92.3623C124.085 92.2425 124.157 92.1371 124.257 92.0622C124.356 91.9872 124.477 91.9466 124.601 91.9466C124.726 91.9466 124.847 91.9872 124.946 92.0622C125.046 92.1371 125.118 92.2425 125.152 92.3623C127.489 104.661 126.254 101.178 128.458 101.873C129.56 102.192 137.848 101.873 140.581 100.693C140.933 100.55 147.556 98.798 150.267 96.9466C151.016 96.4397 151.303 97.1339 151.49 96.4287C152.592 92.9023 152.846 91.8003 153.551 90.6983C155.491 87.7008 156.868 86.6429 157.584 84.6813ZM153.364 62.8176C153.441 62.5311 146.906 54.6738 145.804 52.7343C145.088 51.467 145.44 53.8363 142.498 53.9024C141.308 53.9024 138.74 53.3404 137.859 51.8967C136.977 50.4531 137.991 50.1556 138.487 50.6184C138.783 51.0248 139.128 51.3948 139.512 51.7204C140.691 52.5359 142.818 52.9547 143.92 51.9959C149.22 47.0369 150.19 39.7306 142.818 40.3037C142.083 40.372 141.377 40.6237 140.765 41.0357C140.152 41.4478 139.654 42.0069 139.313 42.662C138.718 43.5656 138.63 42.4856 138.068 43.4554C135.335 48.2711 135.798 49.2409 132.062 47.2242C130.398 46.3206 129.087 45.9129 129.858 44.3811C130.056 43.9954 130.332 43.6538 130.53 43.2791C130.85 42.6399 131.114 41.9787 131.412 41.3395C131.709 40.7004 131.974 40.7996 128.271 40.1273C126.728 39.8518 124.469 40.3147 123.863 41.6371C123.496 42.3848 122.945 43.0274 122.263 43.505C121.581 43.9827 120.789 44.2799 119.96 44.369C119.132 44.4581 118.295 44.3362 117.526 44.0146C116.757 43.693 116.083 43.1822 115.565 42.5297C113.989 40.7004 114.606 39.2237 113.879 38.7829C113.152 38.3421 113.13 38.3421 113.108 38.7829C112.964 42.2432 109.735 41.9346 108.534 42.7171C106.407 44.1056 109.251 47.2022 112.072 46.1773C113.284 45.7255 114.276 46.53 113.174 47.3344C112.451 47.7628 111.598 47.9154 110.771 47.7642C109.361 48.0728 109.074 47.2242 108.964 47.7642C108.964 47.7642 108.457 50.387 108.468 50.8719C108.479 51.3568 107.994 51.2135 108.38 51.3568C109.647 51.8086 110.65 51.9298 111.047 53.0869C111.355 54.0126 110.562 54.6297 111.124 54.6297C112.358 54.6297 112.457 54.8832 112.777 54.795C113.097 54.7068 113.681 53.693 114.441 53.7812C114.958 53.7634 115.474 53.8521 115.955 54.0417C116.437 54.2312 116.874 54.5176 117.24 54.8832C118.992 56.3378 120.48 56.1615 120.215 57.1643C120.094 57.6272 119.775 57.5721 119.268 57.4398C116.149 56.6133 115.135 53.8473 113.758 55.8309C112.953 57.01 112.722 55.8309 111.399 55.9741C110.705 55.9741 109.68 56.2386 110.143 56.6133C110.379 56.8623 110.552 57.1646 110.646 57.4947C110.74 57.8247 110.753 58.1726 110.683 58.5088C110.882 60.5695 109.879 61.3189 110.11 61.5282C117.119 67.7325 117.824 64.8343 126.321 65.9363C129.627 66.344 133.043 71.1267 138.101 78.6203C138.277 78.8738 139.49 80.119 138.74 80.637C138.222 80.9896 137.881 80.5378 135.28 76.8571C134.024 75.0829 133.627 74.0029 133.869 76.0306C134.553 81.5406 135.61 82.29 135.798 83.5242C136.003 85.7087 136.371 87.8747 136.9 90.004C138.2 93.7839 141.749 95.8887 142.862 95.514C145.308 94.6875 145.154 94.5112 147.369 92.3072C149.209 90.4779 150.961 80.8023 151.226 76.8791C151.382 72.1241 152.101 67.4043 153.364 62.8176ZM150.829 98.3462C151.424 97.2442 150.058 99.0625 141.925 101.52C126.816 106.104 125.516 98.6547 128.877 107.03C129.979 109.697 128.315 106.523 130.905 111.791C133.384 116.838 131.831 117.4 133.384 117.609C140.096 118.546 142.762 116.992 146.035 116.794C146.664 116.794 146.619 116.496 147.424 114.953C149.253 111.482 149.22 111.78 148.989 111.559C148.383 110.975 147.821 110.358 147.182 109.818C146.712 109.296 146.413 108.641 146.326 107.944C146.24 107.246 146.369 106.538 146.697 105.917C147.931 104.099 146.366 106.126 150.829 98.3462ZM149.727 48.5246C151.678 43.5987 150.532 41.1191 150.036 36.8103C149.716 33.9561 149.859 32.248 148.427 30.011C147.215 28.1486 147.325 27.3992 146.52 27.3441C145.264 27.2559 145.573 26.6168 142.862 26.9033C141.021 27.0907 140.327 28.6114 138.454 27.851C137.164 27.3331 136.404 27.278 136.04 26.8923C135.677 26.5066 136.106 25.9335 136.757 26.0988C138.861 26.6278 139.302 27.0796 140.437 26.4184C143.909 24.4238 146.575 26.3082 145.947 25.5038C142.718 21.206 141.87 21.1839 138.806 19.608C138.035 19.2113 137.704 19.3546 135.082 19.608C133.605 19.7403 133.506 19.6852 132.878 19.9717C131.776 20.4897 131.434 20.7982 131.125 20.3464C130.817 19.8946 131.379 19.5419 132.227 19.0681C133.55 18.2967 136.635 18.4289 135.842 18.0763C134.167 17.2718 133.781 17.4151 129.891 13.1503C129.594 12.8307 129.549 13.1503 127.941 13.8336C126.937 14.6545 126.2 15.7556 125.825 16.9963C125.715 17.6906 124.238 17.2828 125.175 15.5417C125.656 14.5621 126.301 13.6716 127.081 12.9079C128.37 12.1695 128.657 12.2356 128.37 12.0483C125.913 10.3953 123.334 9.02882 120.767 9.2382C119.202 9.35942 121.869 11.3651 122.199 12.974C122.24 13.1068 122.231 13.2496 122.176 13.3769C122.121 13.5042 122.022 13.6076 121.897 13.6687C121.773 13.7296 121.63 13.7443 121.496 13.7099C121.362 13.6755 121.244 13.5943 121.163 13.4809C120.524 12.3387 119.787 11.2546 118.959 10.241C117.992 9.26421 117.303 8.04682 116.965 6.71461C116.678 7.32072 115.653 11.8499 116.965 14.4286C117.449 15.4094 116.557 16.5445 115.686 14.4286C114.386 11.321 116.072 10.4394 113.482 10.3953C112.039 10.3953 112.116 11.7508 111.995 11.9932C111.811 12.675 111.834 13.3963 112.061 14.065C112.138 14.6931 111.3 15.0127 111.091 14.3405C110.595 12.7756 110.86 12.3569 110.595 11.894C110.116 11.0165 109.782 10.0677 109.603 9.08392C109.31 9.80981 109.125 10.5746 109.052 11.354C108.93 13.5085 109.307 15.662 110.154 17.6465C110.286 18.2746 109.449 18.3518 109.173 17.7787C108.92 17.1273 108.629 16.4908 108.303 15.8723C107.301 15.0682 106.431 14.1127 105.724 13.0401C105.581 13.4368 106.308 18.6493 109.581 20.6219C111.631 21.8561 110.859 19.3546 112.788 20.104C113.89 20.5337 114.75 20.9415 115.201 20.2252C115.345 19.9876 115.565 19.8057 115.825 19.7097C116.085 19.6136 116.371 19.6088 116.634 19.6962C118.97 20.2031 118.728 20.9635 123.147 19.8615C123.896 19.6742 124.15 19.8615 126.056 21.5476C127.555 22.8479 128.998 21.1178 130.541 22.9912C130.993 23.5532 131.335 23.2887 132.238 23.7295C133.395 24.2916 130.74 25.8674 131.919 26.749C134.2 28.4682 131.18 29.46 132.062 31.3664C133.66 34.8488 134.542 35.4769 133.814 36.9646C133.485 37.5138 133.375 38.167 133.506 38.7939C133.814 39.8959 132.404 39.3008 136.393 40.2816C138.597 40.8436 138.2 41.02 138.432 40.8987C140.801 39.6645 140.57 39.6204 141.154 39.389C144.118 38.1988 148.195 39.5653 148.691 41.3395C149.297 42.5719 149.491 43.9669 149.242 45.3178C147.413 52.062 144.746 49.5605 147.843 53.5608C148.217 54.0456 147.92 52.9216 148.945 52.0841C149.749 51.5551 148.548 51.5331 149.738 48.5246H149.727ZM145.672 118.182C146.3 117.146 140.735 119.813 133.076 118.524C132.822 118.458 132.734 118.524 132.778 118.788C132.904 119.97 133.171 121.131 133.572 122.249C136.173 128.629 135.269 128.541 135.853 128.365C142.983 126.205 141.683 124.772 145.683 118.182H145.672ZM137.594 41.9346C137.371 41.7827 137.12 41.6776 136.856 41.6261C132.966 40.9318 133.142 40.8436 132.933 41.2624C130.894 45.4721 130.729 45.0423 131.599 45.4941C135.842 47.6099 133.792 47.643 137.605 41.9346H137.594ZM134.222 87.1167C134.663 86.9074 134.905 87.227 134.817 86.698C133.969 81.188 134.817 85.596 132.999 79.7664C132.9 79.4358 132.999 79.4027 130.674 79.7664C129.524 79.9921 128.336 79.9353 127.213 79.6011C126.517 79.5471 125.84 79.3498 125.223 79.0218C124.607 78.6937 124.065 78.2419 123.632 77.6946C123.18 76.7359 120.017 78.7966 117.505 84.3066C117.196 85.0009 117.174 85.1001 117.989 85.4086C121.295 86.7751 122.948 87.5465 129.99 87.9873C132.15 87.6016 133.065 87.6788 134.233 87.1057L134.222 87.1167ZM133.484 129.268C134.332 129.004 134.442 129.092 134.233 128.618C130.53 119.89 131.368 116.121 130.167 113.488C129.318 111.636 129.065 113.422 127.963 116.628C127.566 117.863 126.861 119.427 126.508 120.43C125.329 124.023 126.232 122.37 124.701 125.731C124.326 126.546 123.852 126.833 123.599 127.285C122.772 129.301 122.937 128.927 121.295 130.877C120.48 131.858 120.436 130.503 120.436 132.255C120.623 134.051 120.535 133.985 120.778 133.897C130.056 130.492 133.01 129.357 133.484 129.268ZM132.767 73.9698C133.131 71.4463 130.211 74.1792 128.987 74.8404C125.737 76.5926 127.103 74.9617 123.896 76.9232C125.593 78.433 125.406 78.444 129.175 79.017C134.982 78.2126 131.985 79.3366 132.767 73.9258V73.9698ZM132.393 37.4164C133.208 35.3226 132.889 36.4136 130.982 32.0827C130.775 31.5064 130.708 30.8889 130.786 30.2815C130.864 29.674 131.087 29.094 131.434 28.5894C132.051 27.6968 129.803 27.9172 130.85 25.2834C131.125 24.6001 130.464 25.1401 129.417 23.8838C128.734 23.0683 126.938 24.7324 124.216 21.768C123.004 20.4346 121.196 22.8149 117.064 21.3051C115.83 20.8643 116.358 22.0545 114.683 22.0876C113.008 22.1206 112.612 21.0958 112.138 21.6247C111.223 22.6275 110.639 22.1096 110.474 22.5724C109.644 24.7386 109.07 26.9949 108.766 29.2947C108.766 29.5261 108.766 29.7024 109.162 29.5481C109.372 29.471 109.306 28.8759 110.099 28.9971C111.201 29.1845 111.201 30.8375 110.617 31.0028C108.259 31.664 108.512 30.1873 108.49 34.3088C108.49 35.0581 109.691 34.4851 110.904 36.061C111.851 37.2842 111.631 37.725 112.006 37.4715C112.284 37.2732 112.617 37.1665 112.959 37.1665C113.3 37.1665 113.634 37.2732 113.912 37.4715C114.584 37.8131 114.221 36.612 115.212 35.2675C118.023 31.4105 121.824 32.6337 123.488 34.8047C125.152 36.9756 124.271 38.2539 124.987 38.265C126.5 38.4251 128.002 38.6791 129.483 39.0253C134.112 39.8518 131.621 39.3559 132.393 37.3723V37.4164ZM129.638 72.4932C130.916 71.3912 131.577 71.8871 131.026 71.2479C127.323 66.9391 128.194 67.0713 120.866 66.9942C120.436 66.9942 120.634 67.2587 120.612 68.3827C120.524 71.5565 118.474 72.3058 117.956 80.2292C117.956 81.221 118.86 77.904 123.808 75.149C125.869 73.9478 127.5 74.3556 129.638 72.4491V72.4932ZM128.536 111.173C128.877 110.402 126.486 106.214 125.538 102.236C125.285 101.134 124.921 102.853 119.18 99.1837C116.711 97.5968 118.078 98.2029 115.323 97.0899C115.155 97.5632 115.083 98.0653 115.113 98.5666C115.212 100.407 114.893 102.655 114.717 105.763C114.65 106.776 114.551 106.567 115.609 106.865C118.662 107.757 123.544 112.804 125.053 114.149C127.764 116.54 125.395 118.138 128.525 111.129L128.536 111.173ZM125.23 120.067C126.133 117.664 126.398 117.521 125.99 117.091C124.998 116.055 125.241 115.769 124.8 115.35C116.744 107.801 116.458 108.143 114.882 107.636C114.375 107.636 114.882 108.275 115.113 116.243C115.113 117.73 116.656 117.499 118.585 119.791C123.973 126.172 123.059 126.117 123.83 124.541C124.745 122.656 124.546 121.764 125.197 120.023L125.23 120.067ZM120.061 43.0917C120.89 42.8974 121.649 42.4808 122.258 41.8866C122.867 41.2924 123.302 40.5431 123.516 39.7198C123.731 38.8964 123.717 38.0302 123.474 37.2145C123.233 36.3988 122.772 35.6647 122.144 35.0912C119.653 32.5456 115.256 34.9479 115.422 38.0446C115.312 41.6702 117.736 43.4444 120.028 43.0476L120.061 43.0917ZM120.744 129.72C123.103 126.282 123.07 127.836 119.764 123.714C119.764 123.714 116.458 119.218 115.223 118.954C115.146 119.527 115.312 122.689 115.223 123.725C115.223 123.872 115.165 124.012 115.063 124.115C114.959 124.218 114.819 124.276 114.672 124.276C114.526 124.276 114.386 124.218 114.282 124.115C114.18 124.012 114.121 123.872 114.121 123.725C114.055 122.017 113.923 126.062 113.449 113.554C113.13 105.068 113.063 107.239 113.67 101.828C114.496 94.5332 112.821 101.465 115.411 87.5024C116.115 84.1433 116.601 80.742 116.865 77.3199C117.615 71.8099 119.609 70.1459 119.389 67.4019C119.323 66.5864 118.717 67.5121 115.642 66.5203C114.904 66.2779 115.642 66.7187 115.488 68.5811C115.422 69.3855 115.245 70.4545 114.474 70.223C113.703 69.9916 114.055 69.5398 114.11 68.1072C114.188 66.0465 112.49 65.1979 110.176 63.4127C108.314 61.958 108.832 62.3768 105.845 61.2087C105.118 60.9111 105.537 63.4127 104.391 63.1041C103.586 62.9278 104.589 61.7817 104.049 59.9854C104.007 59.8285 104.007 59.6631 104.049 59.5062C104.092 59.3494 104.176 59.2067 104.292 59.0928C104.49 58.9606 104.964 59.0928 105.151 59.3683C105.845 60.272 105.603 57.5721 106.573 57.8916C107.796 58.2884 106.132 60.0295 106.683 60.1948C108.16 60.6356 108.766 60.9332 108.887 60.7899C109.46 59.8091 109.405 60.2058 109.493 58.0459C109.144 57.4109 108.63 56.8818 108.005 56.5141C105.449 55.0705 106.903 54.5636 103.333 57.2855C102.57 57.82 101.749 58.2673 100.886 58.619C98.6824 59.8312 99.6852 63.3135 102.121 64.3714C104.247 65.3081 103.84 66.2999 105.427 67.5782C107.443 69.1541 107.697 69.2533 107.686 69.7822C107.576 73.0882 108.6 68.8345 105.768 77.5624C105.768 77.5624 103.564 84.8687 103.564 84.8907C96.6106 106.049 92.8858 110.358 93.6462 117.741C93.8446 119.549 94.065 126.073 96.0596 126.701C96.2029 126.69 120.7 129.698 120.711 129.676L120.744 129.72ZM119.433 133.18C119.565 130.833 119.885 130.976 115.422 134.624C115.422 134.624 114.21 135.627 113.603 136.167C113.416 136.332 113.603 136.387 113.78 136.332C115.629 135.81 117.447 135.181 119.224 134.448C119.466 134.26 119.4 134.227 119.4 133.136L119.433 133.18ZM112.259 135.715C114.375 133.985 117.945 131.307 118.419 130.822C118.144 130.679 80.9511 125.841 80.5765 126.084C76.8076 128.166 27.5481 153.975 26.8648 154.879C26.8648 154.879 75.1987 165.172 75.4962 164.94C77.2594 163.497 95.8392 148.752 96.2139 148.41C95.707 148.058 96.5335 148.553 92.8087 147.187C92.2356 146.978 91.1006 146.614 91.1116 147.187C91.079 147.659 90.9902 148.125 90.8471 148.575C90.7195 149.391 90.2762 150.123 89.6129 150.614C88.9995 151.038 88.2847 151.293 87.5411 151.353C84.9294 151.253 84.0808 151.419 83.0119 150.548C82.6262 150.239 82.1744 149.7 81.9099 149.655C80.1908 149.292 80.0916 149.303 79.794 149.534C79.4965 149.766 74.2179 153.942 66.4157 160.191C66.008 160.51 66.8565 160.532 58.4372 158.802C43.7475 155.716 38.7665 154.758 37.1355 154.361C36.1768 154.119 35.8241 153.612 36.849 152.939C37.8738 152.267 40.5958 150.735 47.1527 147.099C84.753 126.095 80.4332 127.957 82.3176 127.957C82.9678 127.803 101.415 130.161 101.437 130.161C101.867 130.161 102.363 130.161 102.617 130.734C102.771 131.087 102.837 131.065 102.561 131.362C101.537 132.464 97.0514 135.396 97.7677 135.594C102.594 137.015 100.666 137.004 102.176 135.473C103.105 134.613 104.24 134.008 105.472 133.715C106.703 133.421 107.99 133.449 109.206 133.798C112.006 134.778 111.388 136.354 112.226 135.671L112.259 135.715ZM111.157 40.2045C111.366 40.0392 111.245 39.8849 111.267 39.6425C111.201 39.0694 111.267 39.2457 111.025 39.0474C110.309 40.0392 110.121 39.0474 110.176 40.4579C110.154 40.6563 110.705 40.48 111.135 40.1604L111.157 40.2045ZM109.328 38.2099C110.749 38.1437 111.036 38.8821 110.65 37.9784C110.473 37.4847 110.181 37.0403 109.797 36.6819C109.414 36.3237 108.951 36.0616 108.446 35.9177C108.446 36.4356 108.578 36.4687 108.6 36.7552C108.636 36.8824 108.619 37.0183 108.553 37.1329C108.488 37.2476 108.38 37.3318 108.253 37.3668C108.127 37.4019 107.99 37.385 107.875 37.3199C107.761 37.2549 107.677 37.1469 107.642 37.0197C107.267 36.1932 107.465 35.9177 106.947 36.1822C104.865 37.4385 104.181 40.3698 106.198 42.9044C106.738 43.5766 106.584 42.0889 107.884 41.4277C108.611 41.064 108.281 40.9318 108.193 40.6232C107.994 39.962 107.983 40.2265 107.52 40.3808C106.837 40.6012 106.418 39.929 107.124 39.2788C107.3 39.1135 107.609 39.0474 107.741 38.86C107.937 38.639 108.178 38.4626 108.448 38.3428C108.718 38.223 109.01 38.1626 109.306 38.1658L109.328 38.2099ZM106.143 139.186C109.658 138.977 110.771 137.566 110.253 136.398C109.449 134.558 106.297 134.382 103.95 135.715C101.889 136.828 102.429 139.352 106.143 139.186ZM107.972 54.6848C108.975 54.806 110.176 54.244 109.603 53.4836C109.405 53.2081 108.931 53.0759 107.267 52.5249C106.929 52.3406 106.55 52.2441 106.165 52.2441C105.78 52.2441 105.401 52.3406 105.063 52.5249C101.9 54.4534 99.2113 54.7289 99.2113 57.1423C99.3105 57.7263 99.3105 58.1892 99.575 57.9027C100.28 57.1092 101.415 56.9329 102.11 56.437C104.17 54.9713 104.468 54.4754 105.361 54.1448C106.628 53.6379 106.892 54.5085 107.972 54.6297V54.6848ZM107.972 48.0728C108.06 47.5548 108.292 46.9708 107.609 46.6622C107.542 46.6622 107.311 46.3426 107.102 46.3977C106.33 46.6292 105.195 45.8798 103.157 46.552C98.2636 48.172 98.7485 50.6515 99.7072 50.1666C100.666 49.6817 102.231 49.0646 102.55 48.8111C105.658 46.7063 107.73 49.1527 107.928 48.0397L107.972 48.0728ZM107.3 50.938C107.421 50.8388 107.796 49.836 107.3 49.7148C106.469 49.474 105.607 49.3588 104.743 49.3731C104.005 49.3731 102.727 50.4752 101.735 50.7396C100.093 51.2796 98.7264 52.0951 99.3105 53.7261C99.5089 54.2771 99.3105 53.9575 101.515 52.7894C102.501 52.3577 103.451 51.8492 104.358 51.2686C105.57 50.3429 107.135 51.0262 107.256 50.9049L107.3 50.938ZM103.443 143.143C103.443 141.005 104.071 140.762 103.333 140.421C101.129 139.418 101.603 138.283 100.941 138.106C99.1567 137.666 97.4011 137.114 95.6849 136.453C89.4035 133.787 91.7508 135.484 87.3758 133.357C84.8412 132.123 83.5739 132.839 81.8658 132.563C80.6426 132.376 79.5957 133.445 78.8243 134.305C75.8489 137.611 76.6864 134.745 73.6559 140.707C72.9947 141.997 73.182 142.327 74.295 141.28C76.1574 139.528 76.3558 139.781 76.9398 139.076C82.2515 132.784 83.1551 135.109 82.5821 135.682C82.2419 135.985 81.8727 136.255 81.4801 136.486C78.0859 139.241 78.3394 140.288 76.7856 141.049C75.2317 141.809 75.2207 143.363 72.3776 145.391C70.7356 146.57 69.4021 147.341 69.5674 148.289C69.6887 148.994 71.0662 149.182 72.0139 148.542C73.8918 147.261 75.628 145.783 77.1933 144.134C78.5488 143.363 77.4468 141.93 78.8794 140.63C82.4058 137.489 82.4058 137.423 82.8466 137.137C82.9543 137.101 83.0705 137.101 83.1782 137.137C83.2858 137.172 83.3793 137.241 83.4447 137.334C83.5102 137.426 83.5442 137.538 83.5416 137.65C83.5391 137.764 83.5002 137.874 83.4306 137.963C82.7254 139.308 79.6287 141.335 79.4855 142.184C79.1549 144.112 78.6149 148.035 80.5875 147.837C80.7858 147.837 81.425 148.102 81.3479 147.54C81.2046 146.438 81.0613 146.801 80.9401 145.688C80.7087 143.76 82.0421 143.749 83.1441 142.206C83.9565 141.242 84.9296 140.425 86.0203 139.792C86.5934 139.539 87.0562 140.145 86.6154 140.575C86.6154 140.575 84.5437 142.636 84.4665 142.779C84.1299 143.367 83.6893 143.89 83.1662 144.322C82.1744 145.082 81.9099 144.421 83.078 148.366C83.3976 149.468 83.7612 149.777 84.7751 149.964C85.2049 150.041 85.7999 149.964 86.4832 150.118C87.1759 150.217 87.8825 150.106 88.5109 149.799C89.7121 149.259 89.8223 148.631 89.9104 148.212C90.0647 147.495 90.1639 147.11 89.9104 146.735C89.657 146.36 89.2382 146.294 89.0839 146.526C88.2574 147.749 88.1252 148.609 87.5962 148.322C86.8799 147.936 87.7725 147.286 87.2215 147.286C86.6705 147.286 85.4363 147.385 85.3922 146.724C85.3922 146.393 85.7008 145.953 86.384 145.942C86.7253 145.99 87.0733 145.943 87.39 145.807C87.7067 145.671 87.98 145.451 88.1803 145.17C89.15 144.311 89.5688 145.236 91.883 145.358C94.1972 145.479 96.0486 147.363 99.6962 146.856C100.651 146.834 101.604 146.757 102.55 146.625C103.652 146.526 103.652 146.537 103.586 146.228C103.52 145.92 103.41 144.289 103.399 143.11L103.443 143.143ZM96.7428 135.032C101.581 131.153 101.735 131.296 101.25 131.131C101.25 131.131 82.1082 128.552 81.5572 128.927C80.2789 129.555 37.6975 153.512 37.6865 153.512C38.3146 153.777 36.5845 153.358 47.7147 155.617C67.4075 159.607 65.7325 159.651 66.4488 159.089C79.6728 148.344 79.3422 149.06 78.9896 148.741C77.6672 147.518 78.0088 145.898 77.4909 146.294C74.0416 148.95 74.6477 148.498 74.3832 148.763C75.1987 149.071 76.5872 149.049 76.3999 149.644C76.1354 150.636 73.9093 149.06 72.9726 149.799C67.4075 154.207 67.5508 153.777 68.3332 153.986C69.1156 154.196 70.0854 154.096 69.8319 154.802C69.7969 154.897 69.7279 154.975 69.6383 155.022C69.5487 155.068 69.4449 155.081 69.347 155.055C66.1512 154.548 67.3524 154.196 64.1236 156.587C63.7268 156.885 63.1979 156.51 63.7158 156.08C65.7766 154.394 65.9198 154.438 65.1925 154.317C56.123 152.719 59.8037 152.752 54.9769 155.419C54.5912 155.639 54.2276 155.165 54.6022 154.901C54.6022 154.901 57.1038 153.072 57.225 152.906L57.0487 152.829C48.5412 151.264 50.613 151.242 47.9572 152.829C45.6981 154.163 45.7532 154.119 45.6099 153.931C45.2352 153.512 45.9185 153.204 46.5135 152.829C49.2355 151.088 49.2135 151.551 46.227 150.978C45.2242 150.79 44.9046 150.669 45.0148 150.328C45.3013 149.402 49.0702 151.264 50.3265 150.46C52.9933 148.763 56.3655 146.801 56.6961 146.449C56.0349 146.085 54.2606 146.261 54.4259 145.523C54.5251 145.082 54.6463 145.203 57.3903 145.699C58.0625 145.82 57.5887 145.964 63.5946 142.272C65.0602 141.379 64.7958 141.534 64.906 141.346C63.6387 141.027 62.702 141.17 62.5146 140.597C62.3273 140.024 63.9142 140.377 65.9529 140.696C66.8014 140.343 71.9588 137.104 72.1241 136.971C71.7715 136.828 71.2315 136.773 70.2176 136.531C69.7107 136.398 69.5234 136.013 69.7658 135.847C69.8528 135.8 69.9483 135.771 70.0467 135.761C70.1452 135.753 70.2445 135.762 70.3388 135.792C72.62 136.189 73.1049 136.365 73.5016 136.134C79.7279 132.442 77.7333 133.092 76.9288 132.762C76.1244 132.431 76.5762 132.023 77.0611 132.101L78.2733 132.277C79.0116 132.398 78.9675 131.99 79.5957 131.737C81.954 130.789 81.3368 131.318 82.1964 130.811C83.056 130.304 83.6621 129.709 83.9706 130.117C84.2792 130.525 83.6841 130.701 83.3094 131.164C84.1029 131.45 85.1167 130.932 87.5521 131.891C87.9268 132.045 87.9048 131.968 89.2382 131.065C89.2782 131.028 89.3253 131 89.3766 130.982C89.428 130.964 89.4824 130.957 89.5365 130.961C89.5907 130.965 89.6435 130.98 89.6916 131.005C89.7396 131.03 89.782 131.066 89.816 131.108C89.85 131.151 89.8751 131.199 89.8894 131.252C89.9037 131.304 89.9072 131.359 89.8995 131.413C89.8918 131.467 89.8732 131.519 89.8447 131.565C89.8163 131.61 89.7786 131.651 89.7341 131.682C89.106 132.244 88.6321 132.288 89.0949 132.519C91.7397 133.908 90.5937 132.982 92.0042 133.544C92.4891 133.731 92.3899 133.654 94.3515 132.123C94.9466 131.66 95.3653 132.299 94.9686 132.663C93.2936 134.194 93.0622 133.765 94.065 134.216C96.3131 135.164 96.3241 135.307 96.6988 134.999L96.7428 135.032ZM77.1272 168.676C105.228 146.052 102.077 148.653 102.473 148.212C98.1534 148.62 98.1314 148.41 97.6244 148.818C92.4671 153.039 76.477 165.502 75.948 166.241C76.1244 166.241 76.0362 165.998 76.2456 168.786C76.2566 169.172 76.3888 169.194 77.0831 168.643L77.1272 168.676ZM80.0255 124.86C80.6867 124.486 81.3699 127.681 67.9916 89.1665C64.2448 78.3889 64.377 77.5183 62.0297 77.1546C39.5819 86.18 17.079 96.0099 9.39808 99.0074C6.86348 99.9992 8.59362 103.327 10.6103 108.672C28.8374 157.16 26.5893 152.851 27.8346 152.565C28.3195 152.41 80.0034 124.86 80.0255 124.86ZM58.5584 165.954C73.5457 169.26 75.0885 169.954 75.0885 168.852C74.802 164.973 80.5985 167.905 26.6775 156.025C26.1596 155.915 26.2918 156.025 26.3579 157.59C26.3579 158.901 24.8151 158.471 58.5584 165.954ZM71.9368 141.39C73.7991 137.181 74.3612 137.192 73.4796 137.181C71.4288 138.296 69.4354 139.514 67.5067 140.828C67.694 140.939 67.3524 140.894 69.4572 141.247C71.8927 141.688 71.7935 141.732 71.9368 141.39ZM71.1543 144.696C71.5951 144.311 71.5841 144.212 71.1543 144.454C70.0523 145.082 66.9777 147.33 66.9667 147.341C67.1651 147.462 66.9667 147.396 67.9034 147.595C68.5095 147.595 68.3442 147.022 69.0054 146.493C69.9752 145.644 70.8237 145.027 71.1543 144.696ZM66.9998 153.402C70.0964 150.857 71.5731 149.964 70.9119 150.096C70.2882 150.189 69.6516 150.068 69.1046 149.755C68.3663 149.27 68.4654 148.708 68.2561 148.653C67.6169 148.509 66.6692 148.267 65.9088 148.135C65.1705 148.542 59.98 152.069 59.6825 152.421C59.9029 152.51 59.6825 152.488 61.3796 152.785C66.8896 153.7 66.592 153.755 66.9998 153.424V153.402ZM66.03 146.933C73.3804 141.798 73.8763 142.79 66.4378 141.567C63.9587 142.888 61.5628 144.36 59.2637 145.975C59.2637 145.975 65.446 147.363 66.03 146.956V146.933ZM59.0103 151.771C62.162 149.468 63.9803 148.465 64.5203 147.881C63.9142 147.65 58.4042 146.669 58.1727 146.625C57.7099 146.834 51.4395 150.636 51.2081 150.901C51.4726 151.033 53.4121 151.364 53.7427 151.419C57.9413 152.179 58.2499 152.344 59.0103 151.793V151.771ZM26.1045 153.975C26.3579 153.512 6.85246 101.718 6.84144 101.718C4.7807 103.856 5.60721 104.275 10.6213 117.587C24.4845 154.339 24.9473 156.719 25.1237 155.893C25.2066 155.153 25.5598 154.47 26.1155 153.975H26.1045Z" fill="#1B1B1D"/>
    <path d="M145.133 159.708C146.022 160.032 146.779 160.639 147.292 161.434C147.803 162.231 148.039 163.172 147.965 164.116C147.326 173.207 140.251 171.069 140.086 171.08C140.218 171.301 143.392 172.755 141.243 176.855C139.755 179.654 134.157 179.94 130.983 179.929C127.677 179.929 125.142 180.15 121.01 178.166C120.482 177.917 120.009 177.566 119.618 177.133C119.227 176.699 118.926 176.194 118.732 175.643C118.538 175.092 118.455 174.509 118.49 173.926C118.523 173.343 118.671 172.773 118.927 172.248C119.412 171.146 120.69 171.334 120.029 170.662C117.583 168.215 117.142 162.595 117.428 159.135C117.957 153.041 141.672 152.622 142.29 158.991C142.389 159.994 142.929 158.892 145.133 159.708ZM144.747 163.278C145.64 164.061 144.405 168.435 142.664 168.524C141.364 168.59 141.474 168.314 141 168.788C140.526 169.262 140.548 169.736 141.232 169.89C146.543 171.411 149.133 160.413 143.336 160.622C142.411 160.622 142.532 160.622 142.499 161.581C142.477 162.87 143.017 161.735 144.769 163.278H144.747ZM143.898 164.38C143.898 163.741 143.303 163.532 142.664 163.488C141.661 163.41 142.455 163.851 141.452 166.342C141.395 166.57 141.354 166.802 141.331 167.036C141.331 167.212 141.331 167.322 141.551 167.311C142.444 167.311 142.774 167.378 143.028 166.981C143.554 166.209 143.862 165.311 143.92 164.38H143.898ZM140.769 164.38C141.672 160.391 141.529 160.887 140.24 161.846C135.589 165.317 121.858 164.413 118.497 161.25C118.465 163.731 118.946 166.193 119.908 168.48C122.277 172.976 130.73 173.108 135.644 171.786C139.623 170.761 139.865 168.424 140.791 164.347L140.769 164.38ZM139.358 160.876C140.537 159.983 140.846 159.774 140.835 159.432C140.692 154.738 127.192 156.027 122.542 156.71C122.542 156.435 119.798 157.625 119.136 158.573C118.85 159.002 118.938 159.102 119.544 160.126C119.897 160.732 119.963 158.705 122.85 158.187C126.85 157.493 137.882 157.327 138.884 160.391C139.028 160.545 139.204 160.975 139.38 160.843L139.358 160.876ZM139.303 177.097C140.405 176.447 140.405 175.312 140.703 174.287C140.482 172.777 139.05 171.675 138.653 171.951C137.948 172.436 137.683 172.436 137.859 172.799C138.311 173.747 137.441 174.408 136.603 175.003C135.259 175.951 134.609 176.315 131.501 176.238C119.566 175.951 123.688 172.877 122.487 172.403C122.024 172.215 121.715 171.587 120.69 172.403C120.418 172.633 120.195 172.915 120.035 173.234C119.874 173.551 119.778 173.898 119.754 174.253C119.728 174.609 119.776 174.966 119.891 175.302C120.006 175.639 120.189 175.95 120.426 176.216C122.531 179.037 134.741 179.962 139.325 177.064L139.303 177.097ZM132.934 174.893C134.818 174.893 136.846 173.549 136.647 173.163C136.449 172.777 132.074 174.452 125.627 173.35C124.624 173.174 123.798 172.502 123.842 173.262C123.93 174.893 131.303 174.893 133.011 174.893H132.934Z" fill="#1B1B1D"/>
    <path d="M146.72 43.3129C147.172 44.0513 146.929 45.3737 146.356 45.1973C145.32 44.8667 146.709 43.886 144.394 43.1256C142.852 42.6187 141.265 44.2276 142.312 45.3957C142.543 45.6602 144.714 47.2361 142.951 49.2637C142.301 50.0021 141.044 49.418 142.047 48.2719C142.775 47.4454 141.97 47.0157 141.353 46.3214C139.402 44.1174 142.179 41.4065 143.634 41.7481C144.231 41.7682 144.818 41.9187 145.35 42.189C145.883 42.4593 146.351 42.8429 146.72 43.3129Z" fill="#1B1B1D"/>
    <path d="M145.826 33.6803C147.347 33.4599 148.261 35.146 145.991 34.9917C144.889 35.0578 144.548 35.3003 143.611 34.8595C142.299 34.2901 140.832 34.1926 139.456 34.584C139.004 34.584 138.486 33.9558 139.137 33.6142C140.097 33.2246 141.135 33.0661 142.167 33.1513C144.195 33.5591 144.03 33.9448 145.826 33.6803Z" fill="#1B1B1D"/>
    <path d="M124.338 31.3648C124.404 31.6073 124.029 31.6954 124.062 31.9709C123.872 31.9502 123.684 31.9133 123.5 31.8607C123.302 31.7836 123.115 30.7587 121.693 31.1665C117.616 32.4889 118.387 31.1665 117.285 31.486C116.861 31.5412 116.43 31.4767 116.04 31.2994C115.651 31.1222 115.318 30.8395 115.081 30.4832C115.025 30.384 114.992 30.2735 114.984 30.1598C114.976 30.0462 114.995 29.9322 115.037 29.8263C115.079 29.7205 115.145 29.6256 115.229 29.5486C115.313 29.4716 115.413 29.4143 115.522 29.3812C115.974 29.2931 116.084 28.3343 116.866 28.9514C117.043 29.0837 117.098 29.1498 117.285 28.9514C117.35 28.8705 117.436 28.8075 117.532 28.7683C117.628 28.729 117.734 28.7147 117.836 28.7268C117.94 28.739 118.039 28.777 118.124 28.8375C118.207 28.8979 118.276 28.9789 118.321 29.0727C118.63 29.7118 120.15 29.0726 120.613 29.3922C121.329 29.8441 122.233 29.3041 122.927 29.8771C123.214 30.0865 124.25 30.3289 124.338 31.3648Z" fill="#1B1B1D"/>
    <path d="M123.688 58.1213C124.405 58.4189 123.292 59.4438 122.586 59.9176C121.881 60.3915 121.209 59.7082 121.892 59.0691C123.391 57.6916 123.281 57.945 123.688 58.1213Z" fill="#1B1B1D"/>
    <path d="M122.585 56.5338C124.007 57.0628 120.954 59.939 120.381 58.859C120.051 58.2419 120.965 57.9113 121.307 57.5807C122.078 56.8534 122.056 56.3905 122.585 56.5338Z" fill="#1B1B1D"/>
    <path d="M119.059 37.5352C121.825 37.5352 122.872 39.078 121.957 39.4196C121.296 39.662 119.279 38.4498 119.753 39.1441C119.953 39.4744 120.039 39.862 119.995 40.2461C119.918 41.5905 118.53 41.2048 118.265 40.4665C117.902 39.3645 118.188 39.0559 117.692 39.1331C117.196 39.2102 116.59 39.4526 116.447 38.9788C116.083 37.9539 118.034 37.6233 119.059 37.5352Z" fill="#1B1B1D"/>
    <path d="M99.8175 74.5003C100.523 74.5003 101.019 75.4701 100.236 75.7125C98.5323 76.1172 96.8659 76.6665 95.2552 77.3545C85.1499 81.7625 79.3533 91.6806 82.8687 103.527C83.2544 104.816 81.359 106.469 80.6647 97.0032C80.6647 88.5178 86.1747 79.5034 97.0625 75.5913C97.6356 75.3819 96.8091 75.2387 96.1809 75.0954C88.1473 73.2991 80.6427 58.4001 87.6845 41.9031C88.8967 39.0709 89.8885 38.4428 86.5274 41.5394C78.053 49.3636 65.1595 55.5679 58.3491 46.3552C53.3681 39.6219 55.2305 29.1419 54.3709 31.423C50.2604 42.4431 43.7807 51.0607 32.3308 48.2396C27.0633 46.9503 22.9528 43.3136 21.7075 42.421C21.0904 41.9692 22.1263 43.2586 23.3716 46.3882C27.6253 57.0556 23.6801 68.825 10.5993 69.376C9.87202 69.376 12.8034 70.478 15.4592 75.2387C18.4236 80.5063 19.0958 88.066 14.8641 91.7687C13.6078 92.8707 13.2662 91.901 13.9164 91.394C19.8672 86.7877 16.6053 74.5554 9.50836 69.9491C9.02348 69.6405 8.10882 69.2107 7.97658 69.1115C7.63496 68.8691 7.66802 68.2079 8.28514 68.274C23.1512 70.0042 31.2619 53.6504 15.6906 36.7016C14.7098 35.5996 15.6245 35.1809 16.462 36.0625C24.727 44.7242 35.0308 52.1187 44.5961 45.0107C53.7207 38.2334 54.426 24.271 55.7484 24.4033C56.2113 24.4033 56.2553 24.8882 56.1341 25.34C55.2671 30.148 55.3871 35.0821 56.4868 39.8423C60.3658 55.1161 75.4963 52.7688 91.4313 35.1698C91.6958 34.8723 92.4451 34.9715 92.401 35.5666C92.401 35.7319 81.1386 50.2232 88.2024 66.1582C89.635 69.387 92.1366 72.4837 95.3764 73.7951C96.7876 74.3515 98.3035 74.5921 99.8175 74.5003Z" fill="#1B1B1D"/>
    <path d="M66.1075 101.93C69.2813 108.884 67.6723 107.936 43.9242 119.562C26.3252 128.169 26.5015 128.169 25.0138 128.224C24.4896 128.323 23.9475 128.253 23.466 128.022C22.9846 127.792 22.5887 127.415 22.3359 126.946C18.1042 116.444 16.5504 118.956 36.3644 109.699C64.0357 96.7619 63.1541 95.4505 66.1075 101.93ZM52.4537 113.898C67.7825 106.349 67.4299 108.289 64.9945 102.096C63.3194 97.8639 62.537 98.7896 56.1784 101.798C33.1356 112.576 24.7714 116.124 22.0164 117.986C20.5176 119.033 20.6939 119.606 21.0797 120.642C23.5151 127.254 23.5481 127.023 24.9256 127.122C25.9505 127.067 51.5831 114.339 52.4537 113.898Z" fill="#1B1B1D"/>
    <path d="M49.6314 108.65C50.5241 109.752 51.4387 111.394 50.2706 112.21C49.1025 113.025 48.4743 113.146 40.8485 116.618C23.0291 124.861 25.0127 125.169 23.5801 120.662C23.7564 119.241 23.0621 119.803 36.0658 113.852C47.6699 108.551 48.827 107.681 49.6314 108.65Z" fill="#1B1B1D"/>
    <path d="M35.6367 89.44C35.6367 88.1066 37.3228 88.2498 37.2236 89.2417C37.2498 89.3516 37.2526 89.4659 37.2316 89.5771C37.2108 89.6882 37.1666 89.7936 37.1023 89.8867C37.0378 89.9795 36.9545 90.0579 36.8578 90.1164C36.7611 90.175 36.6531 90.2125 36.5409 90.2265C36.4287 90.2406 36.3148 90.2308 36.2066 90.1979C36.0985 90.1649 35.9984 90.1095 35.9131 90.0352C35.8278 89.961 35.759 89.8697 35.7114 89.7671C35.6638 89.6645 35.6384 89.5531 35.6367 89.44Z" fill="#1B1B1D"/>
</svg>
