<svg width="157" height="52" viewBox="0 0 157 52" fill="none" xmlns="http://www.w3.org/2000/svg">
  <g clip-path="url(#clip0_3559_65072)">
    <path d="M144.426 0.000168301H12.5016C12.0207 0.000168301 11.5456 0.000168301 11.066 0.00275755C10.6645 0.00534679 10.2662 0.0128686 9.86087 0.0191993C8.9803 0.0294291 8.10181 0.105908 7.23301 0.247972C6.36544 0.393129 5.52505 0.66679 4.74025 1.0597C3.95642 1.45594 3.24021 1.9708 2.6176 2.58562C1.99173 3.19871 1.47001 3.90736 1.07252 4.68432C0.673928 5.45974 0.397544 6.29066 0.252912 7.14841C0.106905 8.00506 0.0283374 8.8716 0.0179142 9.74024C0.00574463 10.1372 0.00445948 10.5354 -0.00195312 10.9324V40.8567C0.00445948 41.2586 0.00574463 41.6481 0.0179142 42.0502C0.0283406 42.9188 0.106908 43.7853 0.252912 44.6419C0.397144 45.5001 0.673545 46.3315 1.07252 47.1072C1.46983 47.8817 1.99162 48.5875 2.6176 49.1971C3.23785 49.8147 3.95452 50.3299 4.74025 50.7231C5.52504 51.1171 6.36535 51.3924 7.23301 51.5398C8.10195 51.6807 8.98036 51.7572 9.86087 51.7687C10.2662 51.7775 10.6645 51.7825 11.066 51.7825C11.5456 51.7851 12.0207 51.7851 12.5016 51.7851H144.426C144.897 51.7851 145.376 51.7851 145.847 51.7825C146.247 51.7825 146.657 51.7775 147.056 51.7687C147.935 51.7578 148.812 51.6813 149.679 51.5398C150.549 51.3913 151.393 51.1161 152.181 50.7231C152.966 50.3297 153.682 49.8145 154.302 49.1971C154.926 48.5851 155.449 47.8798 155.851 47.1072C156.247 46.331 156.521 45.4996 156.663 44.6419C156.81 43.7852 156.891 42.9188 156.907 42.0502C156.912 41.6481 156.912 41.2586 156.912 40.8567C156.922 40.3863 156.922 39.9186 156.922 39.4406V12.3459C156.922 11.8718 156.922 11.4014 156.912 10.9324C156.912 10.5354 156.912 10.1372 156.907 9.74019C156.891 8.87147 156.81 8.00513 156.663 7.14835C156.521 6.29111 156.247 5.46025 155.851 4.68427C155.042 3.12694 153.758 1.85928 152.181 1.05958C151.393 0.667634 150.549 0.394045 149.679 0.247856C148.812 0.105166 147.935 0.0286601 147.056 0.019018C146.657 0.0127003 146.247 0.00511376 145.847 0.00258925C145.376 0 144.897 0 144.426 0V0.000168301Z" fill="#3B3C3F"/>
    <path d="M11.0718 50.6517C10.6723 50.6517 10.2824 50.6466 9.88594 50.6378C9.06474 50.6272 8.24545 50.5567 7.4348 50.4267C6.67892 50.2981 5.94667 50.0591 5.2622 49.7173C4.58402 49.3784 3.96546 48.9341 3.43022 48.4012C2.88723 47.8747 2.43517 47.264 2.09195 46.5933C1.74495 45.9182 1.5048 45.1947 1.37988 44.4478C1.24497 43.6453 1.17198 42.8338 1.16153 42.0204C1.15322 41.7474 1.14233 40.8383 1.14233 40.8383V10.9318C1.14233 10.9318 1.15393 10.0367 1.1616 9.77368C1.1716 8.96153 1.24416 8.15132 1.37867 7.35005C1.50383 6.60114 1.74416 5.8755 2.09135 5.19826C2.43331 4.52805 2.88286 3.91688 3.42257 3.38844C3.96168 2.85498 4.58222 2.40831 5.26156 2.06472C5.94445 1.72409 6.67532 1.4867 7.42968 1.36053C8.24299 1.22921 9.06512 1.15821 9.88917 1.14813L11.0724 1.13232H145.84L147.038 1.14877C147.854 1.15835 148.669 1.22871 149.475 1.35926C150.237 1.48702 150.975 1.72606 151.666 2.06852C153.027 2.76094 154.134 3.85642 154.833 5.20142C155.174 5.87398 155.411 6.5937 155.535 7.33615C155.671 8.14399 155.747 8.96057 155.763 9.77937C155.766 10.146 155.766 10.5398 155.766 10.9318C155.777 11.4173 155.777 11.8793 155.777 12.3452V39.44C155.777 39.9103 155.777 40.3692 155.766 40.8319C155.766 41.253 155.766 41.6386 155.761 42.0356C155.746 42.8397 155.671 43.6418 155.537 44.4351C155.415 45.1874 155.176 45.9166 154.829 46.5972C154.483 47.2606 154.034 47.866 153.497 48.3911C152.961 48.9268 152.342 49.3738 151.662 49.7149C150.973 50.0592 150.236 50.2992 149.475 50.4267C148.664 50.5574 147.845 50.6279 147.023 50.6378C146.639 50.6466 146.237 50.6517 145.847 50.6517L144.425 50.6543L11.0718 50.6517Z" fill="#1B1B1D"/>
    <path d="M32.4751 26.2847C32.4892 25.2042 32.7799 24.1447 33.3202 23.2048C33.8606 22.265 34.6329 21.4753 35.5654 20.9094C34.973 20.0741 34.1915 19.3868 33.283 18.9019C32.3744 18.417 31.3638 18.1479 30.3315 18.116C28.1294 17.8878 25.9946 19.4169 24.8724 19.4169C23.7285 19.4169 22.0008 18.1386 20.1403 18.1764C18.9369 18.2148 17.7641 18.5603 16.7361 19.1792C15.7082 19.7981 14.8602 20.6693 14.2747 21.708C11.7385 26.0429 13.6302 32.4138 16.0597 35.9179C17.2752 37.6337 18.6958 39.5503 20.5546 39.4824C22.3736 39.4079 23.0529 38.3373 25.2485 38.3373C27.4238 38.3373 28.0611 39.4824 29.9577 39.4392C31.9095 39.4079 33.1392 37.7157 34.3121 35.9836C35.1854 34.761 35.8575 33.4098 36.3033 31.98C35.1693 31.5065 34.2017 30.714 33.5209 29.7012C32.8401 28.6884 32.4764 27.5002 32.4751 26.2847V26.2847Z" fill="white"/>
    <path d="M28.8929 15.8123C29.9572 14.551 30.4815 12.9299 30.3545 11.2932C28.7286 11.4618 27.2268 12.2289 26.1482 13.4418C25.6208 14.0343 25.2169 14.7236 24.9596 15.4703C24.7022 16.217 24.5964 17.0064 24.6483 17.7935C25.4616 17.8018 26.2661 17.6278 27.0013 17.2846C27.7366 16.9414 28.3833 16.438 28.8929 15.8123Z" fill="white"/>
    <path d="M55.4723 35.1334H49.2651L47.7744 39.4787H45.1453L51.0247 23.4021H53.7563L59.6357 39.4787H56.9617L55.4723 35.1334ZM49.9079 33.1282H54.8282L52.4027 26.0761H52.3348L49.9079 33.1282Z" fill="white"/>
    <path d="M72.3323 33.6164C72.3323 37.2588 70.3575 39.599 67.3775 39.599C66.6226 39.6379 65.8718 39.4663 65.2112 39.1036C64.5505 38.7409 64.0067 38.2019 63.6419 37.5483H63.5855V43.3539H61.1484V27.7552H63.5074V29.7047H63.5522C63.9338 29.0542 64.4868 28.518 65.1525 28.1531C65.8182 27.7882 66.5716 27.6083 67.3327 27.6325C70.3459 27.6325 72.3323 29.9841 72.3323 33.6164ZM69.8273 33.6164C69.8273 31.2433 68.5851 29.6832 66.6898 29.6832C64.8277 29.6832 63.5753 31.2762 63.5753 33.6164C63.5753 35.9781 64.8277 37.5597 66.6898 37.5597C68.5851 37.5597 69.8273 36.0109 69.8273 33.6164Z" fill="white"/>
    <path d="M85.404 33.6164C85.404 37.2588 83.4293 39.5989 80.4493 39.5989C79.6944 39.6379 78.9436 39.4663 78.283 39.1036C77.6223 38.7409 77.0784 38.2019 76.7137 37.5483H76.6573V43.3538H74.2202V27.7552H76.5791V29.7047H76.624C77.0055 29.0542 77.5586 28.518 78.2242 28.1531C78.8899 27.7882 79.6434 27.6083 80.4044 27.6325C83.4178 27.6325 85.404 29.9841 85.404 33.6164ZM82.8991 33.6164C82.8991 31.2433 81.6569 29.6832 79.7616 29.6832C77.8995 29.6832 76.6471 31.2762 76.6471 33.6164C76.6471 35.9781 77.8995 37.5597 79.7616 37.5597C81.6569 37.5597 82.8991 36.0109 82.8991 33.6164H82.8991Z" fill="white"/>
    <path d="M94.0382 34.9986C94.2188 36.5929 95.7875 37.6397 97.9313 37.6397C99.9855 37.6397 101.463 36.5929 101.463 35.1554C101.463 33.9075 100.572 33.1603 98.4615 32.6483L96.351 32.1464C93.3607 31.4333 91.9725 30.0527 91.9725 27.8124C91.9725 25.0386 94.4211 23.1333 97.898 23.1333C101.339 23.1333 103.698 25.0386 103.777 27.8124H101.317C101.17 26.208 99.8266 25.2396 97.8634 25.2396C95.9002 25.2396 94.5568 26.2194 94.5568 27.6455C94.5568 28.7821 95.4148 29.4509 97.5138 29.9629L99.3079 30.3978C102.649 31.1779 104.037 32.5029 104.037 34.8544C104.037 37.8621 101.611 39.7459 97.7507 39.7459C94.1393 39.7459 91.701 37.9064 91.5435 34.9985L94.0382 34.9986Z" fill="white"/>
    <path d="M109.296 24.9832V27.757H111.554V29.6623H109.296V36.124C109.296 37.1278 109.748 37.5956 110.741 37.5956C111.009 37.591 111.276 37.5724 111.542 37.54V39.4338C111.096 39.5162 110.642 39.5534 110.189 39.5451C107.785 39.5451 106.847 38.6538 106.847 36.3806V29.6623H105.121V27.757H106.847V24.9832H109.296Z" fill="white"/>
    <path d="M112.862 33.6181C112.862 29.9302 115.062 27.6128 118.493 27.6128C121.935 27.6128 124.125 29.9302 124.125 33.6181C124.125 37.3161 121.947 39.6235 118.493 39.6235C115.04 39.6235 112.862 37.3161 112.862 33.6181ZM121.642 33.6181C121.642 31.0883 120.468 29.5952 118.493 29.5952C116.518 29.5952 115.345 31.0997 115.345 33.6181C115.345 36.1581 116.518 37.6398 118.493 37.6398C120.468 37.6398 121.642 36.1581 121.642 33.6181H121.642Z" fill="white"/>
    <path d="M126.134 27.7563H128.459V29.7513H128.515C128.672 29.1282 129.042 28.5776 129.562 28.1919C130.082 27.8063 130.721 27.6091 131.371 27.6336C131.652 27.6327 131.932 27.6628 132.206 27.7234V29.9738C131.851 29.8669 131.481 29.8178 131.111 29.8284C130.757 29.8143 130.404 29.8759 130.076 30.0091C129.749 30.1423 129.454 30.3439 129.213 30.6001C128.971 30.8563 128.789 31.161 128.679 31.4933C128.568 31.8256 128.531 32.1776 128.571 32.5251V39.4774H126.134L126.134 27.7563Z" fill="white"/>
    <path d="M143.443 36.0354C143.115 38.1632 141.016 39.6235 138.331 39.6235C134.877 39.6235 132.733 37.3389 132.733 33.6738C132.733 29.9972 134.888 27.6128 138.228 27.6128C141.513 27.6128 143.579 29.8404 143.579 33.3943V34.2187H135.193V34.364C135.154 34.7954 135.209 35.23 135.353 35.6389C135.498 36.0478 135.729 36.4216 136.031 36.7356C136.333 37.0496 136.699 37.2966 137.106 37.4601C137.512 37.6236 137.949 37.7 138.387 37.684C138.963 37.7373 139.541 37.6056 140.035 37.3086C140.529 37.0116 140.912 36.565 141.129 36.0354L143.443 36.0354ZM135.205 32.5372H141.14C141.162 32.1493 141.103 31.7612 140.965 31.3971C140.828 31.033 140.616 30.7009 140.343 30.4216C140.069 30.1422 139.74 29.9217 139.376 29.7739C139.012 29.626 138.622 29.554 138.228 29.5623C137.831 29.56 137.438 29.6353 137.071 29.7838C136.703 29.9323 136.37 30.1512 136.088 30.4278C135.807 30.7044 135.585 31.0332 135.433 31.3952C135.281 31.7573 135.204 32.1454 135.205 32.5372V32.5372Z" fill="white"/>
    <path d="M46.4597 15.1722C46.4597 12.667 47.8095 11.1195 49.984 11.1195C50.7678 11.0812 51.5374 11.3352 52.1403 11.8311C52.7431 12.3271 53.135 13.0287 53.2381 13.7966H52.0279C51.9264 13.3415 51.6661 12.9361 51.2925 12.6513C50.9188 12.3664 50.4557 12.2203 49.984 12.2384C48.5792 12.2384 47.7007 13.368 47.7007 15.1722C47.7007 16.9712 48.5792 18.1002 49.9892 18.1002C50.4436 18.1338 50.8957 18.0101 51.2678 17.7503C51.6398 17.4905 51.9086 17.1109 52.0279 16.6766H53.2381C53.1201 17.4263 52.72 18.1045 52.1178 18.5758C51.5155 19.047 50.7554 19.2768 49.9892 19.2191C47.8147 19.2191 46.4597 17.6723 46.4597 15.1722Z" fill="white"/>
    <path d="M54.5679 16.1124C54.5307 15.7293 54.5751 15.3427 54.6982 14.9776C54.8212 14.6124 55.0203 14.2766 55.2825 13.9918C55.5447 13.7071 55.8642 13.4795 56.2207 13.3238C56.5772 13.1681 56.9628 13.0876 57.3526 13.0876C57.7424 13.0876 58.128 13.1681 58.4845 13.3238C58.841 13.4795 59.1606 13.7071 59.4228 13.9918C59.685 14.2766 59.884 14.6124 60.007 14.9776C60.1301 15.3427 60.1745 15.7293 60.1373 16.1124C60.1752 16.4959 60.1313 16.8829 60.0086 17.2487C59.8858 17.6145 59.687 17.9508 59.4247 18.2362C59.1624 18.5215 58.8426 18.7496 58.4857 18.9056C58.1289 19.0617 57.7429 19.1423 57.3526 19.1423C56.9623 19.1423 56.5763 19.0617 56.2195 18.9056C55.8626 18.7496 55.5428 18.5215 55.2805 18.2362C55.0183 17.9508 54.8194 17.6145 54.6966 17.2487C54.5739 16.8829 54.53 16.4959 54.5679 16.1124V16.1124ZM58.9387 16.1124C58.9387 14.8487 58.3637 14.1098 57.3545 14.1098C56.3415 14.1098 55.7717 14.8487 55.7717 16.1124C55.7717 17.3862 56.3416 18.1194 57.3545 18.1194C58.3637 18.1194 58.9387 17.3811 58.9387 16.1124H58.9387Z" fill="white"/>
    <path d="M61.699 13.2015H62.8208V14.1276H62.9079C63.0556 13.795 63.3048 13.5162 63.6207 13.33C63.9365 13.1438 64.3034 13.0596 64.6701 13.089C64.9574 13.0677 65.2459 13.1104 65.5142 13.2141C65.7825 13.3178 66.0237 13.4798 66.22 13.688C66.4163 13.8962 66.5626 14.1454 66.6481 14.4171C66.7336 14.6887 66.7561 14.9758 66.7139 15.2572V19.0311H65.5486V15.5461C65.5486 14.6093 65.1362 14.1434 64.2743 14.1434C64.0793 14.1344 63.8845 14.1672 63.7035 14.2395C63.5224 14.3118 63.3594 14.4218 63.2254 14.5622C63.0915 14.7025 62.9899 14.8697 62.9276 15.0524C62.8653 15.2352 62.8437 15.429 62.8644 15.6207V19.0311H61.699V13.2015Z" fill="white"/>
    <path d="M70.6775 13.0876C72.0055 13.0876 72.8737 13.6977 72.9877 14.7255H71.8697C71.7622 14.2976 71.3383 14.0245 70.6775 14.0245C70.0269 14.0245 69.5326 14.3292 69.5326 14.7843C69.5326 15.1326 69.831 15.352 70.4713 15.4967L71.4522 15.7211C72.5754 15.9784 73.1017 16.4551 73.1017 17.3116C73.1017 18.409 72.0657 19.1423 70.6557 19.1423C69.2508 19.1423 68.3352 18.5158 68.2314 17.4829H69.3981C69.4987 17.7288 69.68 17.9341 69.9129 18.0661C70.1458 18.198 70.4169 18.2489 70.6826 18.2105C71.4087 18.2105 71.9248 17.8894 71.9248 17.4235C71.9248 17.0758 71.6482 16.8508 71.0566 16.7117L70.0269 16.4759C68.9038 16.2136 68.3839 15.7161 68.3839 14.8488C68.3838 13.8152 69.3431 13.0876 70.6775 13.0876Z" fill="white"/>
    <path d="M74.572 12.2267L75.9333 10.3853H77.2998L75.7758 12.2267H74.572ZM74.6924 13.2014H75.8527V19.031H74.6924V13.2014Z" fill="white"/>
    <path d="M77.6686 19.6131H78.8609C78.9595 20.036 79.4526 20.309 80.2389 20.309C81.2096 20.309 81.7846 19.8539 81.7846 19.0833V17.9644H81.6975C81.5147 18.2776 81.2478 18.5349 80.9262 18.7077C80.6046 18.8805 80.2408 18.9621 79.8752 18.9436C78.3679 18.9436 77.4355 17.7931 77.4355 16.0478C77.4355 14.2703 78.3781 13.1033 79.8867 13.1033C80.2615 13.0904 80.6327 13.1794 80.9597 13.3607C81.2868 13.542 81.557 13.8085 81.741 14.1311H81.8332V13.2H82.95V19.0776C82.95 20.4108 81.8922 21.2566 80.2222 21.2566C78.7469 21.2567 77.7928 20.6036 77.6686 19.6131ZM81.8064 16.0421C81.8064 14.8808 81.1981 14.1368 80.2056 14.1368C79.2028 14.1368 78.6393 14.8809 78.6393 16.0421C78.6393 17.204 79.2028 17.948 80.2056 17.948C81.2045 17.948 81.8064 17.2097 81.8064 16.0421V16.0421Z" fill="white"/>
    <path d="M89.7846 19.0295H88.6615V18.1035H88.5693C88.42 18.4395 88.1674 18.7207 87.8472 18.9071C87.527 19.0935 87.1556 19.1757 86.7854 19.1421C86.4998 19.1621 86.2133 19.1187 85.9468 19.0151C85.6804 18.9115 85.4409 18.7504 85.2458 18.5435C85.0507 18.3366 84.905 18.0892 84.8194 17.8194C84.7338 17.5497 84.7105 17.2644 84.7511 16.9846V13.2H85.9184V16.6849C85.9184 17.6268 86.3027 18.0769 87.1594 18.0769C87.358 18.0955 87.5583 18.0701 87.7458 18.0026C87.9332 17.935 88.103 17.827 88.2428 17.6864C88.3825 17.5458 88.4887 17.3762 88.5537 17.1899C88.6186 17.0037 88.6406 16.8054 88.618 16.6097V13.2H89.7846V19.0295Z" fill="white"/>
    <path d="M96.6349 17.4558C96.4766 17.9886 96.1335 18.4495 95.6658 18.7578C95.198 19.0661 94.6353 19.2023 94.0762 19.1424C93.6871 19.1525 93.3005 19.079 92.9432 18.9268C92.5858 18.7747 92.2663 18.5475 92.0068 18.2613C91.7472 17.975 91.5539 17.6363 91.4402 17.2689C91.3265 16.9015 91.2952 16.514 91.3484 16.1334C91.2966 15.7516 91.3285 15.3633 91.4419 14.9948C91.5553 14.6262 91.7476 14.2861 92.0058 13.9973C92.264 13.7085 92.582 13.4778 92.9383 13.3209C93.2946 13.164 93.6809 13.0845 94.0711 13.0877C95.7141 13.0877 96.7053 14.1959 96.7053 16.0265V16.428H92.5355V16.4925C92.5173 16.7064 92.5445 16.9217 92.6155 17.1247C92.6865 17.3276 92.7996 17.5137 92.9477 17.6709C93.0958 17.8281 93.2755 17.9531 93.4753 18.0378C93.6752 18.1224 93.8907 18.1649 94.1082 18.1625C94.3869 18.1956 94.6694 18.146 94.9195 18.0202C95.1697 17.8943 95.3763 17.6979 95.513 17.4558L96.6349 17.4558ZM92.5355 15.5771H95.5181C95.5328 15.3815 95.5059 15.1849 95.4391 15.0002C95.3723 14.8154 95.267 14.6465 95.1301 14.5043C94.9932 14.362 94.8277 14.2497 94.6442 14.1743C94.4607 14.099 94.2633 14.0624 94.0646 14.0669C93.8631 14.0644 93.663 14.1018 93.4763 14.1768C93.2896 14.2518 93.12 14.363 92.9775 14.5037C92.835 14.6445 92.7225 14.812 92.6466 14.9963C92.5707 15.1807 92.5329 15.3781 92.5355 15.5771V15.5771Z" fill="white"/>
    <path d="M98.325 10.9241H99.4903V19.0294H98.325V10.9241Z" fill="white"/>
    <path d="M101.111 16.1124C101.074 15.7293 101.118 15.3427 101.241 14.9776C101.364 14.6124 101.563 14.2766 101.825 13.9918C102.088 13.7071 102.407 13.4795 102.764 13.3238C103.12 13.1681 103.506 13.0876 103.896 13.0876C104.285 13.0876 104.671 13.1681 105.027 13.3238C105.384 13.4795 105.704 13.7071 105.966 13.9918C106.228 14.2766 106.427 14.6124 106.55 14.9776C106.673 15.3427 106.717 15.7293 106.68 16.1124C106.718 16.4959 106.674 16.8829 106.552 17.2487C106.429 17.6145 106.23 17.9508 105.968 18.2362C105.705 18.5215 105.386 18.7496 105.029 18.9056C104.672 19.0617 104.286 19.1423 103.896 19.1423C103.505 19.1423 103.119 19.0617 102.762 18.9056C102.406 18.7496 102.086 18.5215 101.823 18.2362C101.561 17.9508 101.362 17.6145 101.24 17.2487C101.117 16.8829 101.073 16.4959 101.111 16.1124V16.1124ZM105.482 16.1124C105.482 14.8487 104.907 14.1098 103.897 14.1098C102.885 14.1098 102.315 14.8487 102.315 16.1124C102.315 17.3862 102.885 18.1194 103.897 18.1194C104.907 18.1194 105.482 17.3811 105.482 16.1124H105.482Z" fill="white"/>
    <path d="M116.442 17.4558C116.283 17.9886 115.94 18.4495 115.472 18.7578C115.005 19.0661 114.442 19.2023 113.883 19.1424C113.494 19.1525 113.107 19.079 112.75 18.9268C112.392 18.7747 112.073 18.5475 111.813 18.2613C111.554 17.975 111.361 17.6363 111.247 17.2689C111.133 16.9015 111.102 16.514 111.155 16.1334C111.103 15.7516 111.135 15.3633 111.249 14.9948C111.362 14.6262 111.554 14.2861 111.812 13.9973C112.071 13.7085 112.389 13.4778 112.745 13.3209C113.101 13.164 113.488 13.0845 113.878 13.0877C115.521 13.0877 116.512 14.1959 116.512 16.0265V16.428H112.342V16.4925C112.324 16.7064 112.351 16.9217 112.422 17.1247C112.493 17.3276 112.606 17.5137 112.754 17.6709C112.902 17.8281 113.082 17.9531 113.282 18.0378C113.482 18.1224 113.697 18.1649 113.915 18.1625C114.194 18.1956 114.476 18.146 114.726 18.0202C114.976 17.8943 115.183 17.6979 115.32 17.4558L116.442 17.4558ZM112.342 15.5771H115.325C115.34 15.3815 115.313 15.1849 115.246 15.0002C115.179 14.8154 115.074 14.6465 114.937 14.5043C114.8 14.362 114.634 14.2497 114.451 14.1743C114.267 14.099 114.07 14.0624 113.871 14.0669C113.67 14.0644 113.47 14.1018 113.283 14.1768C113.096 14.2518 112.927 14.363 112.784 14.5037C112.642 14.6445 112.529 14.8119 112.453 14.9963C112.377 15.1806 112.34 15.3781 112.342 15.5771H112.342Z" fill="white"/>
    <path d="M118.074 13.2015H119.196V14.1276H119.283C119.43 13.795 119.68 13.5162 119.995 13.33C120.311 13.1438 120.678 13.0596 121.045 13.089C121.332 13.0677 121.621 13.1104 121.889 13.2141C122.157 13.3178 122.398 13.4798 122.595 13.688C122.791 13.8962 122.937 14.1454 123.023 14.4171C123.108 14.6887 123.131 14.9758 123.089 15.2572V19.0311H121.923V15.5461C121.923 14.6093 121.511 14.1434 120.649 14.1434C120.454 14.1344 120.259 14.1672 120.078 14.2395C119.897 14.3118 119.734 14.4218 119.6 14.5622C119.466 14.7025 119.365 14.8697 119.302 15.0524C119.24 15.2352 119.218 15.429 119.239 15.6207V19.0311H118.074V13.2015Z" fill="white"/>
    <path d="M133.09 17.4558C132.932 17.9886 132.589 18.4495 132.121 18.7578C131.653 19.0661 131.09 19.2023 130.531 19.1424C130.142 19.1525 129.756 19.079 129.398 18.9268C129.041 18.7747 128.721 18.5475 128.462 18.2613C128.202 17.975 128.009 17.6363 127.895 17.2689C127.782 16.9015 127.75 16.514 127.804 16.1334C127.752 15.7516 127.784 15.3633 127.897 14.9948C128.01 14.6262 128.203 14.2861 128.461 13.9973C128.719 13.7085 129.037 13.4778 129.393 13.3209C129.75 13.164 130.136 13.0845 130.526 13.0877C132.169 13.0877 133.16 14.1959 133.16 16.0265V16.428H128.991V16.4925C128.972 16.7064 129 16.9217 129.071 17.1247C129.142 17.3276 129.255 17.5137 129.403 17.6709C129.551 17.8281 129.731 17.9531 129.93 18.0378C130.13 18.1224 130.346 18.1649 130.563 18.1625C130.842 18.1956 131.124 18.146 131.375 18.0202C131.625 17.8943 131.831 17.6979 131.968 17.4558L133.09 17.4558ZM128.991 15.5771H131.973C131.988 15.3815 131.961 15.1849 131.894 15.0002C131.827 14.8154 131.722 14.6465 131.585 14.5043C131.448 14.362 131.283 14.2497 131.099 14.1743C130.916 14.099 130.718 14.0624 130.52 14.0669C130.318 14.0644 130.118 14.1018 129.931 14.1768C129.745 14.2518 129.575 14.363 129.433 14.5037C129.29 14.6445 129.178 14.812 129.102 14.9963C129.026 15.1807 128.988 15.3781 128.991 15.5771H128.991Z" fill="white"/>
    <path d="M134.778 10.9241H135.943V19.0294H134.778V10.9241Z" fill="white"/>
  </g>
  <defs>
    <clipPath id="clip0_3559_65072">
      <rect width="156.924" height="51.7849" fill="white"/>
    </clipPath>
  </defs>
</svg>
