<svg width="51" height="101" viewBox="0 0 51 101" fill="none" xmlns="http://www.w3.org/2000/svg">
  <mask id="path-1-outside-1_2295_5394" maskUnits="userSpaceOnUse" x="0" y="0" width="101" height="101" fill="black">
    <rect fill="white" width="101" height="101"/>
    <path d="M52.4189 6.62245C51.3605 7.68085 49.6487 7.68085 48.5903 6.62245C47.5319 5.56405 47.5319 3.8522 48.5903 2.7938C49.6487 1.7354 51.3605 1.7354 52.4189 2.7938C53.4681 3.843 53.4681 5.56405 52.4189 6.62245ZM63.868 14.2337C62.8097 13.1753 61.0978 13.1753 60.0394 14.2337C58.981 15.2921 58.981 17.004 60.0394 18.0624C61.0978 19.1208 62.8097 19.1208 63.868 18.0624C64.9172 17.0132 64.9172 15.2921 63.868 14.2337ZM75.308 25.6828C74.2496 24.6244 72.5377 24.6244 71.4793 25.6828C70.4209 26.7412 70.4209 28.4531 71.4793 29.5115C72.5377 30.5699 74.2496 30.5699 75.308 29.5115C76.3664 28.4531 76.3664 26.7412 75.308 25.6828ZM86.7571 37.1319C85.6987 36.0735 83.9868 36.0735 82.9284 37.1319C81.87 38.1903 81.87 39.9022 82.9284 40.9606C83.9868 42.019 85.6987 42.019 86.7571 40.9606C87.8155 39.9022 87.8155 38.1903 86.7571 37.1319ZM98.2062 48.581C97.1478 47.5226 95.436 47.5226 94.3775 48.581C93.3192 49.6394 93.3192 51.3513 94.3775 52.4097C95.436 53.4681 97.1478 53.4681 98.2062 52.4097C99.2646 51.3513 99.2646 49.6394 98.2062 48.581ZM40.9698 14.2337C39.9114 13.1753 38.1996 13.1753 37.1412 14.2337C36.0828 15.2921 36.0828 17.004 37.1412 18.0624C38.1996 19.1208 39.9114 19.1208 40.9698 18.0624C42.0282 17.0132 42.0282 15.2921 40.9698 14.2337ZM52.4189 25.6828C51.3605 24.6244 49.6487 24.6244 48.5903 25.6828C47.5319 26.7412 47.5319 28.4531 48.5903 29.5115C49.6487 30.5699 51.3605 30.5699 52.4189 29.5115C53.4681 28.4531 53.4681 26.7412 52.4189 25.6828ZM63.868 37.1319C62.8097 36.0735 61.0978 36.0735 60.0394 37.1319C58.981 38.1903 58.981 39.9022 60.0394 40.9606C61.0978 42.019 62.8097 42.019 63.868 40.9606C64.9172 39.9022 64.9172 38.1903 63.868 37.1319ZM75.308 48.581C74.2496 47.5226 72.5377 47.5226 71.4793 48.581C70.4209 49.6394 70.4209 51.3513 71.4793 52.4097C72.5377 53.4681 74.2496 53.4681 75.308 52.4097C76.3664 51.3513 76.3664 49.6394 75.308 48.581ZM86.7571 60.0302C85.6987 58.9718 83.9868 58.9718 82.9284 60.0302C81.87 61.0886 81.87 62.8004 82.9284 63.8588C83.9868 64.9172 85.6987 64.9172 86.7571 63.8588C87.8155 62.8004 87.8155 61.0886 86.7571 60.0302ZM29.5207 25.6828C28.4623 24.6244 26.7504 24.6244 25.692 25.6828C24.6336 26.7412 24.6336 28.4531 25.692 29.5115C26.7504 30.5699 28.4623 30.5699 29.5207 29.5115C30.5791 28.4531 30.5791 26.7412 29.5207 25.6828ZM40.9698 37.1319C39.9114 36.0735 38.1996 36.0735 37.1412 37.1319C36.0828 38.1903 36.0828 39.9022 37.1412 40.9606C38.1996 42.019 39.9114 42.019 40.9698 40.9606C42.0282 39.9022 42.0282 38.1903 40.9698 37.1319ZM52.4189 48.581C51.3605 47.5226 49.6487 47.5226 48.5903 48.581C47.5319 49.6394 47.5319 51.3513 48.5903 52.4097C49.6487 53.4681 51.3605 53.4681 52.4189 52.4097C53.4681 51.3513 53.4681 49.6394 52.4189 48.581ZM63.868 60.0302C62.8097 58.9718 61.0978 58.9718 60.0394 60.0302C58.981 61.0886 58.981 62.8004 60.0394 63.8588C61.0978 64.9172 62.8097 64.9172 63.868 63.8588C64.9172 62.8004 64.9172 61.0886 63.868 60.0302ZM75.308 71.4793C74.2496 70.4209 72.5377 70.4209 71.4793 71.4793C70.4209 72.5377 70.4209 74.2496 71.4793 75.308C72.5377 76.3664 74.2496 76.3664 75.308 75.308C76.3664 74.2496 76.3664 72.5377 75.308 71.4793ZM18.0716 37.1319C17.0132 36.0735 15.3013 36.0735 14.2429 37.1319C13.1845 38.1903 13.1845 39.9022 14.2429 40.9606C15.3013 42.019 17.0132 42.019 18.0716 40.9606C19.13 39.9022 19.13 38.1903 18.0716 37.1319ZM29.5207 48.581C28.4623 47.5226 26.7504 47.5226 25.692 48.581C24.6336 49.6394 24.6336 51.3513 25.692 52.4097C26.7504 53.4681 28.4623 53.4681 29.5207 52.4097C30.5791 51.3513 30.5791 49.6394 29.5207 48.581ZM40.9698 60.0302C39.9114 58.9718 38.1996 58.9718 37.1412 60.0302C36.0828 61.0886 36.0828 62.8004 37.1412 63.8588C38.1996 64.9172 39.9114 64.9172 40.9698 63.8588C42.0282 62.8004 42.0282 61.0886 40.9698 60.0302ZM52.4189 71.4793C51.3605 70.4209 49.6487 70.4209 48.5903 71.4793C47.5319 72.5377 47.5319 74.2496 48.5903 75.308C49.6487 76.3664 51.3605 76.3664 52.4189 75.308C53.4681 74.2496 53.4681 72.5377 52.4189 71.4793ZM63.868 82.9284C62.8097 81.87 61.0978 81.87 60.0394 82.9284C58.981 83.9868 58.981 85.6987 60.0394 86.7571C61.0978 87.8155 62.8097 87.8155 63.868 86.7571C64.9172 85.6987 64.9172 83.9868 63.868 82.9284ZM6.62245 48.581C5.56405 47.5226 3.8522 47.5226 2.7938 48.581C1.7354 49.6394 1.7354 51.3513 2.7938 52.4097C3.8522 53.4681 5.56405 53.4681 6.62245 52.4097C7.68085 51.3513 7.68085 49.6394 6.62245 48.581ZM18.0716 60.0302C17.0132 58.9718 15.3013 58.9718 14.2429 60.0302C13.1845 61.0886 13.1845 62.8004 14.2429 63.8588C15.3013 64.9172 17.0132 64.9172 18.0716 63.8588C19.13 62.8004 19.13 61.0886 18.0716 60.0302ZM29.5207 71.4793C28.4623 70.4209 26.7504 70.4209 25.692 71.4793C24.6336 72.5377 24.6336 74.2496 25.692 75.308C26.7504 76.3664 28.4623 76.3664 29.5207 75.308C30.5791 74.2496 30.5791 72.5377 29.5207 71.4793ZM40.9698 82.9284C39.9114 81.87 38.1996 81.87 37.1412 82.9284C36.0828 83.9868 36.0828 85.6987 37.1412 86.7571C38.1996 87.8155 39.9114 87.8155 40.9698 86.7571C42.0282 85.6987 42.0282 83.9868 40.9698 82.9284ZM52.4189 94.3775C51.3605 93.3191 49.6487 93.3191 48.5903 94.3775C47.5319 95.4359 47.5319 97.1478 48.5903 98.2062C49.6487 99.2646 51.3605 99.2646 52.4189 98.2062C53.4773 97.1478 53.4681 95.4359 52.4189 94.3775Z"/>
  </mask>
  <path d="M52.4189 6.62245C51.3605 7.68085 49.6487 7.68085 48.5903 6.62245C47.5319 5.56405 47.5319 3.8522 48.5903 2.7938C49.6487 1.7354 51.3605 1.7354 52.4189 2.7938C53.4681 3.843 53.4681 5.56405 52.4189 6.62245ZM63.868 14.2337C62.8097 13.1753 61.0978 13.1753 60.0394 14.2337C58.981 15.2921 58.981 17.004 60.0394 18.0624C61.0978 19.1208 62.8097 19.1208 63.868 18.0624C64.9172 17.0132 64.9172 15.2921 63.868 14.2337ZM75.308 25.6828C74.2496 24.6244 72.5377 24.6244 71.4793 25.6828C70.4209 26.7412 70.4209 28.4531 71.4793 29.5115C72.5377 30.5699 74.2496 30.5699 75.308 29.5115C76.3664 28.4531 76.3664 26.7412 75.308 25.6828ZM86.7571 37.1319C85.6987 36.0735 83.9868 36.0735 82.9284 37.1319C81.87 38.1903 81.87 39.9022 82.9284 40.9606C83.9868 42.019 85.6987 42.019 86.7571 40.9606C87.8155 39.9022 87.8155 38.1903 86.7571 37.1319ZM98.2062 48.581C97.1478 47.5226 95.436 47.5226 94.3775 48.581C93.3192 49.6394 93.3192 51.3513 94.3775 52.4097C95.436 53.4681 97.1478 53.4681 98.2062 52.4097C99.2646 51.3513 99.2646 49.6394 98.2062 48.581ZM40.9698 14.2337C39.9114 13.1753 38.1996 13.1753 37.1412 14.2337C36.0828 15.2921 36.0828 17.004 37.1412 18.0624C38.1996 19.1208 39.9114 19.1208 40.9698 18.0624C42.0282 17.0132 42.0282 15.2921 40.9698 14.2337ZM52.4189 25.6828C51.3605 24.6244 49.6487 24.6244 48.5903 25.6828C47.5319 26.7412 47.5319 28.4531 48.5903 29.5115C49.6487 30.5699 51.3605 30.5699 52.4189 29.5115C53.4681 28.4531 53.4681 26.7412 52.4189 25.6828ZM63.868 37.1319C62.8097 36.0735 61.0978 36.0735 60.0394 37.1319C58.981 38.1903 58.981 39.9022 60.0394 40.9606C61.0978 42.019 62.8097 42.019 63.868 40.9606C64.9172 39.9022 64.9172 38.1903 63.868 37.1319ZM75.308 48.581C74.2496 47.5226 72.5377 47.5226 71.4793 48.581C70.4209 49.6394 70.4209 51.3513 71.4793 52.4097C72.5377 53.4681 74.2496 53.4681 75.308 52.4097C76.3664 51.3513 76.3664 49.6394 75.308 48.581ZM86.7571 60.0302C85.6987 58.9718 83.9868 58.9718 82.9284 60.0302C81.87 61.0886 81.87 62.8004 82.9284 63.8588C83.9868 64.9172 85.6987 64.9172 86.7571 63.8588C87.8155 62.8004 87.8155 61.0886 86.7571 60.0302ZM29.5207 25.6828C28.4623 24.6244 26.7504 24.6244 25.692 25.6828C24.6336 26.7412 24.6336 28.4531 25.692 29.5115C26.7504 30.5699 28.4623 30.5699 29.5207 29.5115C30.5791 28.4531 30.5791 26.7412 29.5207 25.6828ZM40.9698 37.1319C39.9114 36.0735 38.1996 36.0735 37.1412 37.1319C36.0828 38.1903 36.0828 39.9022 37.1412 40.9606C38.1996 42.019 39.9114 42.019 40.9698 40.9606C42.0282 39.9022 42.0282 38.1903 40.9698 37.1319ZM52.4189 48.581C51.3605 47.5226 49.6487 47.5226 48.5903 48.581C47.5319 49.6394 47.5319 51.3513 48.5903 52.4097C49.6487 53.4681 51.3605 53.4681 52.4189 52.4097C53.4681 51.3513 53.4681 49.6394 52.4189 48.581ZM63.868 60.0302C62.8097 58.9718 61.0978 58.9718 60.0394 60.0302C58.981 61.0886 58.981 62.8004 60.0394 63.8588C61.0978 64.9172 62.8097 64.9172 63.868 63.8588C64.9172 62.8004 64.9172 61.0886 63.868 60.0302ZM75.308 71.4793C74.2496 70.4209 72.5377 70.4209 71.4793 71.4793C70.4209 72.5377 70.4209 74.2496 71.4793 75.308C72.5377 76.3664 74.2496 76.3664 75.308 75.308C76.3664 74.2496 76.3664 72.5377 75.308 71.4793ZM18.0716 37.1319C17.0132 36.0735 15.3013 36.0735 14.2429 37.1319C13.1845 38.1903 13.1845 39.9022 14.2429 40.9606C15.3013 42.019 17.0132 42.019 18.0716 40.9606C19.13 39.9022 19.13 38.1903 18.0716 37.1319ZM29.5207 48.581C28.4623 47.5226 26.7504 47.5226 25.692 48.581C24.6336 49.6394 24.6336 51.3513 25.692 52.4097C26.7504 53.4681 28.4623 53.4681 29.5207 52.4097C30.5791 51.3513 30.5791 49.6394 29.5207 48.581ZM40.9698 60.0302C39.9114 58.9718 38.1996 58.9718 37.1412 60.0302C36.0828 61.0886 36.0828 62.8004 37.1412 63.8588C38.1996 64.9172 39.9114 64.9172 40.9698 63.8588C42.0282 62.8004 42.0282 61.0886 40.9698 60.0302ZM52.4189 71.4793C51.3605 70.4209 49.6487 70.4209 48.5903 71.4793C47.5319 72.5377 47.5319 74.2496 48.5903 75.308C49.6487 76.3664 51.3605 76.3664 52.4189 75.308C53.4681 74.2496 53.4681 72.5377 52.4189 71.4793ZM63.868 82.9284C62.8097 81.87 61.0978 81.87 60.0394 82.9284C58.981 83.9868 58.981 85.6987 60.0394 86.7571C61.0978 87.8155 62.8097 87.8155 63.868 86.7571C64.9172 85.6987 64.9172 83.9868 63.868 82.9284ZM6.62245 48.581C5.56405 47.5226 3.8522 47.5226 2.7938 48.581C1.7354 49.6394 1.7354 51.3513 2.7938 52.4097C3.8522 53.4681 5.56405 53.4681 6.62245 52.4097C7.68085 51.3513 7.68085 49.6394 6.62245 48.581ZM18.0716 60.0302C17.0132 58.9718 15.3013 58.9718 14.2429 60.0302C13.1845 61.0886 13.1845 62.8004 14.2429 63.8588C15.3013 64.9172 17.0132 64.9172 18.0716 63.8588C19.13 62.8004 19.13 61.0886 18.0716 60.0302ZM29.5207 71.4793C28.4623 70.4209 26.7504 70.4209 25.692 71.4793C24.6336 72.5377 24.6336 74.2496 25.692 75.308C26.7504 76.3664 28.4623 76.3664 29.5207 75.308C30.5791 74.2496 30.5791 72.5377 29.5207 71.4793ZM40.9698 82.9284C39.9114 81.87 38.1996 81.87 37.1412 82.9284C36.0828 83.9868 36.0828 85.6987 37.1412 86.7571C38.1996 87.8155 39.9114 87.8155 40.9698 86.7571C42.0282 85.6987 42.0282 83.9868 40.9698 82.9284ZM52.4189 94.3775C51.3605 93.3191 49.6487 93.3191 48.5903 94.3775C47.5319 95.4359 47.5319 97.1478 48.5903 98.2062C49.6487 99.2646 51.3605 99.2646 52.4189 98.2062C53.4773 97.1478 53.4681 95.4359 52.4189 94.3775Z" stroke="#FF9100" stroke-width="3" mask="url(#path-1-outside-1_2295_5394)"/>
</svg>

