<svg xmlns="http://www.w3.org/2000/svg" width="168" height="248" viewBox="0 0 168 248" fill="none">
  <mask id="path-1-outside-1_3247_15977" maskUnits="userSpaceOnUse" x="-1.0753e-05" y="-1.0753e-05" width="248" height="248" fill="black">
    <rect fill="white" x="-1.0753e-05" y="-1.0753e-05" width="248" height="248"/>
    <path d="M234.372 128.827C231.71 126.165 231.71 121.859 234.372 119.196C237.035 116.534 241.341 116.534 244.003 119.196C246.666 121.859 246.666 126.165 244.003 128.827C241.364 131.466 237.035 131.466 234.372 128.827ZM215.227 157.627C217.889 154.964 217.889 150.658 215.227 147.996C212.564 145.334 208.258 145.334 205.596 147.996C202.933 150.658 202.933 154.964 205.596 157.627C208.235 160.266 212.564 160.266 215.227 157.627ZM186.427 186.404C189.089 183.741 189.089 179.435 186.427 176.773C183.764 174.11 179.458 174.11 176.796 176.773C174.134 179.435 174.134 183.741 176.796 186.404C179.458 189.066 183.764 189.066 186.427 186.404ZM157.627 215.203C160.289 212.541 160.289 208.235 157.627 205.573C154.965 202.91 150.658 202.91 147.996 205.573C145.334 208.235 145.334 212.541 147.996 215.203C150.658 217.866 154.965 217.866 157.627 215.203ZM128.827 244.003C131.489 241.341 131.489 237.035 128.827 234.372C126.165 231.71 121.859 231.71 119.196 234.372C116.534 237.035 116.534 241.341 119.196 244.003C121.859 246.666 126.165 246.666 128.827 244.003ZM215.227 100.027C217.889 97.3648 217.889 93.0587 215.227 90.3963C212.564 87.734 208.258 87.734 205.596 90.3963C202.933 93.0587 202.933 97.3648 205.596 100.027C208.235 102.69 212.564 102.69 215.227 100.027ZM186.427 128.827C189.089 126.165 189.089 121.859 186.427 119.196C183.764 116.534 179.458 116.534 176.796 119.196C174.134 121.859 174.134 126.165 176.796 128.827C179.458 131.466 183.764 131.466 186.427 128.827ZM157.627 157.627C160.289 154.964 160.289 150.658 157.627 147.996C154.965 145.334 150.658 145.334 147.996 147.996C145.334 150.658 145.334 154.964 147.996 157.627C150.658 160.266 154.965 160.266 157.627 157.627ZM128.827 186.404C131.489 183.741 131.489 179.435 128.827 176.773C126.165 174.11 121.859 174.11 119.196 176.773C116.534 179.435 116.534 183.741 119.196 186.404C121.859 189.066 126.165 189.066 128.827 186.404ZM100.027 215.203C102.69 212.541 102.69 208.235 100.027 205.573C97.3649 202.91 93.0587 202.91 90.3963 205.573C87.734 208.235 87.734 212.541 90.3963 215.203C93.0587 217.866 97.3649 217.866 100.027 215.203ZM186.427 71.2273C189.089 68.5649 189.089 64.2588 186.427 61.5965C183.764 58.9341 179.458 58.9341 176.796 61.5965C174.134 64.2588 174.134 68.5649 176.796 71.2273C179.458 73.8897 183.764 73.8897 186.427 71.2273ZM157.627 100.027C160.289 97.3648 160.289 93.0587 157.627 90.3963C154.965 87.734 150.658 87.734 147.996 90.3963C145.334 93.0587 145.334 97.3648 147.996 100.027C150.658 102.69 154.965 102.69 157.627 100.027ZM128.827 128.827C131.489 126.165 131.489 121.859 128.827 119.196C126.165 116.534 121.859 116.534 119.196 119.196C116.534 121.859 116.534 126.165 119.196 128.827C121.859 131.466 126.165 131.466 128.827 128.827ZM100.027 157.627C102.69 154.964 102.69 150.658 100.027 147.996C97.3649 145.334 93.0587 145.334 90.3963 147.996C87.734 150.658 87.734 154.964 90.3963 157.627C93.0587 160.266 97.3649 160.266 100.027 157.627ZM71.2274 186.404C73.8897 183.741 73.8897 179.435 71.2274 176.773C68.565 174.11 64.2588 174.11 61.5965 176.773C58.9341 179.435 58.9341 183.741 61.5965 186.404C64.2588 189.066 68.565 189.066 71.2274 186.404ZM157.627 42.4274C160.289 39.7651 160.289 35.459 157.627 32.7966C154.965 30.1343 150.658 30.1343 147.996 32.7966C145.334 35.459 145.334 39.7651 147.996 42.4274C150.658 45.0898 154.965 45.0898 157.627 42.4274ZM128.827 71.2273C131.489 68.5649 131.489 64.2588 128.827 61.5965C126.165 58.9341 121.859 58.9341 119.196 61.5965C116.534 64.2588 116.534 68.5649 119.196 71.2273C121.859 73.8897 126.165 73.8897 128.827 71.2273ZM100.027 100.027C102.69 97.3648 102.69 93.0587 100.027 90.3963C97.3649 87.734 93.0587 87.734 90.3963 90.3963C87.734 93.0587 87.734 97.3648 90.3963 100.027C93.0587 102.69 97.3649 102.69 100.027 100.027ZM71.2274 128.827C73.8897 126.165 73.8897 121.859 71.2274 119.196C68.565 116.534 64.2588 116.534 61.5965 119.196C58.9341 121.859 58.9341 126.165 61.5965 128.827C64.2588 131.466 68.565 131.466 71.2274 128.827ZM42.4275 157.627C45.0899 154.964 45.0899 150.658 42.4275 147.996C39.7652 145.334 35.459 145.334 32.7966 147.996C30.1343 150.658 30.1343 154.964 32.7966 157.627C35.459 160.266 39.7652 160.266 42.4275 157.627ZM128.827 13.6276C131.489 10.9652 131.489 6.65913 128.827 3.99677C126.165 1.3344 121.859 1.3344 119.196 3.99677C116.534 6.65913 116.534 10.9652 119.196 13.6276C121.859 16.29 126.165 16.29 128.827 13.6276ZM100.027 42.4274C102.69 39.7651 102.69 35.459 100.027 32.7966C97.3649 30.1343 93.0587 30.1343 90.3963 32.7966C87.734 35.459 87.734 39.7651 90.3963 42.4274C93.0587 45.0898 97.3649 45.0898 100.027 42.4274ZM71.2274 71.2273C73.8897 68.5649 73.8897 64.2588 71.2274 61.5965C68.565 58.9341 64.2588 58.9341 61.5965 61.5965C58.9341 64.2588 58.9341 68.5649 61.5965 71.2273C64.2588 73.8897 68.565 73.8897 71.2274 71.2273ZM42.4275 100.027C45.0899 97.3648 45.0899 93.0587 42.4275 90.3963C39.7652 87.734 35.459 87.734 32.7966 90.3963C30.1343 93.0587 30.1343 97.3648 32.7966 100.027C35.459 102.69 39.7652 102.69 42.4275 100.027ZM13.6277 128.827C16.29 126.165 16.29 121.859 13.6277 119.196C10.9653 116.534 6.65913 116.534 3.99678 119.196C1.33441 121.859 1.33441 126.165 3.99677 128.827C6.65913 131.489 10.9653 131.466 13.6277 128.827Z"/>
  </mask>
  <path d="M234.372 128.827C231.71 126.165 231.71 121.859 234.372 119.196C237.035 116.534 241.341 116.534 244.003 119.196C246.666 121.859 246.666 126.165 244.003 128.827C241.364 131.466 237.035 131.466 234.372 128.827ZM215.227 157.627C217.889 154.964 217.889 150.658 215.227 147.996C212.564 145.334 208.258 145.334 205.596 147.996C202.933 150.658 202.933 154.964 205.596 157.627C208.235 160.266 212.564 160.266 215.227 157.627ZM186.427 186.404C189.089 183.741 189.089 179.435 186.427 176.773C183.764 174.11 179.458 174.11 176.796 176.773C174.134 179.435 174.134 183.741 176.796 186.404C179.458 189.066 183.764 189.066 186.427 186.404ZM157.627 215.203C160.289 212.541 160.289 208.235 157.627 205.573C154.965 202.91 150.658 202.91 147.996 205.573C145.334 208.235 145.334 212.541 147.996 215.203C150.658 217.866 154.965 217.866 157.627 215.203ZM128.827 244.003C131.489 241.341 131.489 237.035 128.827 234.372C126.165 231.71 121.859 231.71 119.196 234.372C116.534 237.035 116.534 241.341 119.196 244.003C121.859 246.666 126.165 246.666 128.827 244.003ZM215.227 100.027C217.889 97.3648 217.889 93.0587 215.227 90.3963C212.564 87.734 208.258 87.734 205.596 90.3963C202.933 93.0587 202.933 97.3648 205.596 100.027C208.235 102.69 212.564 102.69 215.227 100.027ZM186.427 128.827C189.089 126.165 189.089 121.859 186.427 119.196C183.764 116.534 179.458 116.534 176.796 119.196C174.134 121.859 174.134 126.165 176.796 128.827C179.458 131.466 183.764 131.466 186.427 128.827ZM157.627 157.627C160.289 154.964 160.289 150.658 157.627 147.996C154.965 145.334 150.658 145.334 147.996 147.996C145.334 150.658 145.334 154.964 147.996 157.627C150.658 160.266 154.965 160.266 157.627 157.627ZM128.827 186.404C131.489 183.741 131.489 179.435 128.827 176.773C126.165 174.11 121.859 174.11 119.196 176.773C116.534 179.435 116.534 183.741 119.196 186.404C121.859 189.066 126.165 189.066 128.827 186.404ZM100.027 215.203C102.69 212.541 102.69 208.235 100.027 205.573C97.3649 202.91 93.0587 202.91 90.3963 205.573C87.734 208.235 87.734 212.541 90.3963 215.203C93.0587 217.866 97.3649 217.866 100.027 215.203ZM186.427 71.2273C189.089 68.5649 189.089 64.2588 186.427 61.5965C183.764 58.9341 179.458 58.9341 176.796 61.5965C174.134 64.2588 174.134 68.5649 176.796 71.2273C179.458 73.8897 183.764 73.8897 186.427 71.2273ZM157.627 100.027C160.289 97.3648 160.289 93.0587 157.627 90.3963C154.965 87.734 150.658 87.734 147.996 90.3963C145.334 93.0587 145.334 97.3648 147.996 100.027C150.658 102.69 154.965 102.69 157.627 100.027ZM128.827 128.827C131.489 126.165 131.489 121.859 128.827 119.196C126.165 116.534 121.859 116.534 119.196 119.196C116.534 121.859 116.534 126.165 119.196 128.827C121.859 131.466 126.165 131.466 128.827 128.827ZM100.027 157.627C102.69 154.964 102.69 150.658 100.027 147.996C97.3649 145.334 93.0587 145.334 90.3963 147.996C87.734 150.658 87.734 154.964 90.3963 157.627C93.0587 160.266 97.3649 160.266 100.027 157.627ZM71.2274 186.404C73.8897 183.741 73.8897 179.435 71.2274 176.773C68.565 174.11 64.2588 174.11 61.5965 176.773C58.9341 179.435 58.9341 183.741 61.5965 186.404C64.2588 189.066 68.565 189.066 71.2274 186.404ZM157.627 42.4274C160.289 39.7651 160.289 35.459 157.627 32.7966C154.965 30.1343 150.658 30.1343 147.996 32.7966C145.334 35.459 145.334 39.7651 147.996 42.4274C150.658 45.0898 154.965 45.0898 157.627 42.4274ZM128.827 71.2273C131.489 68.5649 131.489 64.2588 128.827 61.5965C126.165 58.9341 121.859 58.9341 119.196 61.5965C116.534 64.2588 116.534 68.5649 119.196 71.2273C121.859 73.8897 126.165 73.8897 128.827 71.2273ZM100.027 100.027C102.69 97.3648 102.69 93.0587 100.027 90.3963C97.3649 87.734 93.0587 87.734 90.3963 90.3963C87.734 93.0587 87.734 97.3648 90.3963 100.027C93.0587 102.69 97.3649 102.69 100.027 100.027ZM71.2274 128.827C73.8897 126.165 73.8897 121.859 71.2274 119.196C68.565 116.534 64.2588 116.534 61.5965 119.196C58.9341 121.859 58.9341 126.165 61.5965 128.827C64.2588 131.466 68.565 131.466 71.2274 128.827ZM42.4275 157.627C45.0899 154.964 45.0899 150.658 42.4275 147.996C39.7652 145.334 35.459 145.334 32.7966 147.996C30.1343 150.658 30.1343 154.964 32.7966 157.627C35.459 160.266 39.7652 160.266 42.4275 157.627ZM128.827 13.6276C131.489 10.9652 131.489 6.65913 128.827 3.99677C126.165 1.3344 121.859 1.3344 119.196 3.99677C116.534 6.65913 116.534 10.9652 119.196 13.6276C121.859 16.29 126.165 16.29 128.827 13.6276ZM100.027 42.4274C102.69 39.7651 102.69 35.459 100.027 32.7966C97.3649 30.1343 93.0587 30.1343 90.3963 32.7966C87.734 35.459 87.734 39.7651 90.3963 42.4274C93.0587 45.0898 97.3649 45.0898 100.027 42.4274ZM71.2274 71.2273C73.8897 68.5649 73.8897 64.2588 71.2274 61.5965C68.565 58.9341 64.2588 58.9341 61.5965 61.5965C58.9341 64.2588 58.9341 68.5649 61.5965 71.2273C64.2588 73.8897 68.565 73.8897 71.2274 71.2273ZM42.4275 100.027C45.0899 97.3648 45.0899 93.0587 42.4275 90.3963C39.7652 87.734 35.459 87.734 32.7966 90.3963C30.1343 93.0587 30.1343 97.3648 32.7966 100.027C35.459 102.69 39.7652 102.69 42.4275 100.027ZM13.6277 128.827C16.29 126.165 16.29 121.859 13.6277 119.196C10.9653 116.534 6.65913 116.534 3.99678 119.196C1.33441 121.859 1.33441 126.165 3.99677 128.827C6.65913 131.489 10.9653 131.466 13.6277 128.827Z" stroke="#FF7324" stroke-width="3" mask="url(#path-1-outside-1_3247_15977)"/>
</svg>
