<?xml version="1.0" encoding="UTF-8" standalone="no"?>
<svg
   width="102"
   height="131.39999"
   viewBox="0 0 102 131.39999"
   fill="none"
   version="1.1"
   id="svg9"
   sodipodi:docname="dot-pattern.svg"
   inkscape:version="1.2.2 (b0a8486541, 2022-12-01)"
   xmlns:inkscape="http://www.inkscape.org/namespaces/inkscape"
   xmlns:sodipodi="http://sodipodi.sourceforge.net/DTD/sodipodi-0.dtd"
   xmlns="http://www.w3.org/2000/svg"
   xmlns:svg="http://www.w3.org/2000/svg">
  <sodipodi:namedview
     id="namedview8"
     pagecolor="#ffffff"
     bordercolor="#000000"
     borderopacity="0.25"
     inkscape:showpageshadow="2"
     inkscape:pageopacity="0"
     inkscape:pagecheckerboard="0"
     inkscape:deskcolor="#d1d1d1"
     showgrid="false"
     inkscape:zoom="2.7534321"
     inkscape:cx="32.86807"
     inkscape:cy="67.188872"
     inkscape:window-width="1920"
     inkscape:window-height="1031"
     inkscape:window-x="1360"
     inkscape:window-y="218"
     inkscape:window-maximized="1"
     inkscape:current-layer="svg9" />
  <defs
     id="defs13" />
  <mask
     id="path-1-outside-1_1505_25916"
     maskUnits="userSpaceOnUse"
     x="-60.2437"
     y="-60.2425"
     width="247.487"
     height="247.487"
     fill="#000000">
    <rect
       fill="#ffffff"
       x="-60.243698"
       y="-60.2425"
       width="247.487"
       height="247.487"
       id="rect2" />
    <path
       d="m 120.588,11.1977 c -2.639,0 -4.773,-2.13389 -4.773,-4.77258 0,-2.6387 2.134,-4.7726 4.773,-4.7726 2.638,0 4.772,2.1339 4.772,4.77259 0,2.61575 -2.145,4.76109 -4.772,4.77259 z m 4.784,23.7597 c 0,-2.6387 -2.134,-4.7726 -4.773,-4.7726 -2.639,0 -4.773,2.1339 -4.773,4.7726 0,2.6387 2.134,4.7726 4.773,4.7726 2.616,0 4.761,-2.1454 4.773,-4.7726 z m -0.012,28.5323 c 0,-2.6387 -2.134,-4.7726 -4.772,-4.7726 -2.639,0 -4.773,2.1339 -4.773,4.7726 0,2.6387 2.134,4.7726 4.773,4.7726 2.638,0 4.772,-2.1339 4.772,-4.7726 z m 0,28.5438 c 0,-2.6387 -2.134,-4.7726 -4.772,-4.7726 -2.639,0 -4.773,2.1339 -4.773,4.7726 0,2.6387 2.134,4.7726 4.773,4.7726 2.638,0 4.772,-2.1339 4.772,-4.7726 z m 0,28.5435 c 0,-2.638 -2.134,-4.772 -4.772,-4.772 -2.639,0 -4.773,2.134 -4.773,4.772 0,2.639 2.134,4.773 4.773,4.773 2.638,0 4.772,-2.134 4.772,-4.773 z M 96.8279,6.41363 c 0,-2.63869 -2.1339,-4.77259 -4.7726,-4.77259 -2.6387,0 -4.7726,2.1339 -4.7726,4.77259 0,2.63869 2.1339,4.77257 4.7726,4.77257 2.6272,0.0115 4.7726,-2.13387 4.7726,-4.77257 z m 0,28.54377 c 0,-2.6387 -2.1339,-4.7726 -4.7726,-4.7726 -2.6387,0 -4.7726,2.1339 -4.7726,4.7726 0,2.6387 2.1339,4.7726 4.7726,4.7726 2.6272,-0.0115 4.7611,-2.1454 4.7726,-4.7726 z m 0,28.5438 c 0,-2.6387 -2.1339,-4.7726 -4.7726,-4.7726 -2.6387,0 -4.7726,2.1339 -4.7726,4.7726 0,2.6387 2.1339,4.7726 4.7726,4.7726 2.6272,-0.0115 4.7611,-2.1454 4.7726,-4.7726 z m -0.0115,28.5323 c 0,-2.6387 -2.1339,-4.7726 -4.7726,-4.7726 -2.6387,0 -4.7726,2.1339 -4.7726,4.7726 0,2.6387 2.1339,4.7726 4.7726,4.7726 2.6387,0 4.7726,-2.1339 4.7726,-4.7726 z m 0,28.5435 c 0,-2.638 -2.1339,-4.772 -4.7726,-4.772 -2.6387,0 -4.7726,2.134 -4.7726,4.772 0,2.639 2.1339,4.773 4.7726,4.773 2.6387,0 4.7726,-2.134 4.7726,-4.773 z M 68.2841,6.41363 c 0,-2.63869 -2.1339,-4.77259 -4.7726,-4.77259 -2.6387,0 -4.7726,2.1339 -4.7726,4.77259 0,2.63869 2.1339,4.77257 4.7726,4.77257 2.6387,0 4.7726,-2.13388 4.7726,-4.77257 z m 0,28.54377 c 0,-2.6387 -2.1339,-4.7726 -4.7726,-4.7726 -2.6387,0 -4.7726,2.1339 -4.7726,4.7726 0,2.6387 2.1339,4.7726 4.7726,4.7726 2.6387,0 4.7726,-2.1339 4.7726,-4.7726 z m 0,28.5438 c 0,-2.6387 -2.1339,-4.7726 -4.7726,-4.7726 -2.6387,0 -4.7726,2.1339 -4.7726,4.7726 0,2.6387 2.1339,4.7726 4.7726,4.7726 2.6272,-0.0115 4.7611,-2.1454 4.7726,-4.7726 z m 0,28.5437 c 0,-2.6387 -2.1339,-4.7726 -4.7726,-4.7726 -2.6387,0 -4.7726,2.134 -4.7726,4.7727 0,2.6387 2.1339,4.7726 4.7726,4.7726 2.6272,-0.0115 4.7611,-2.1454 4.7726,-4.7727 z m -0.0115,28.5321 c 0,-2.638 -2.1339,-4.772 -4.7726,-4.772 -2.6387,0 -4.7726,2.134 -4.7726,4.772 0,2.639 2.1339,4.773 4.7726,4.773 2.6387,0 4.7726,-2.134 4.7726,-4.773 z M 39.7403,6.41359 c 0,-2.63869 -2.1339,-4.77259 -4.7726,-4.77259 -2.6387,0 -4.7726,2.13394 -4.7726,4.77263 0,2.63869 2.1339,4.77257 4.7726,4.77257 2.6387,0 4.7726,-2.13391 4.7726,-4.77261 z m 0,28.54381 c 0,-2.6387 -2.1339,-4.7726 -4.7726,-4.7726 -2.6387,0 -4.7726,2.1339 -4.7726,4.7726 0,2.6387 2.1339,4.7726 4.7726,4.7726 2.6387,0 4.7726,-2.1339 4.7726,-4.7726 z m 0,28.5438 c 0,-2.6387 -2.1339,-4.7726 -4.7726,-4.7726 -2.6387,0 -4.7726,2.1339 -4.7726,4.7726 0,2.6387 2.1339,4.7726 4.7726,4.7726 2.6387,0 4.7726,-2.134 4.7726,-4.7726 z m 0,28.5437 c 0,-2.6387 -2.1339,-4.7726 -4.7726,-4.7726 -2.6387,0 -4.7726,2.134 -4.7726,4.7727 0,2.6387 2.1339,4.7726 4.7726,4.7726 2.6272,-0.0115 4.7612,-2.1454 4.7726,-4.7727 z m 0,28.5441 c 0,-2.639 -2.1339,-4.773 -4.7726,-4.773 -2.6387,0 -4.7726,2.134 -4.7726,4.773 0,2.638 2.1339,4.772 4.7726,4.772 2.6272,-0.011 4.7612,-2.145 4.7726,-4.772 z M 11.1966,6.4136 c 0,-2.63869 -2.13395,-4.7726 -4.77264,-4.7726 -2.6387,0 -4.77264,2.13394 -4.77264,4.77263 0,2.6387 2.13391,4.77257 4.7726,4.77257 2.63869,0 4.77268,-2.13391 4.77268,-4.7726 z m 0,28.5438 c 0,-2.6387 -2.13395,-4.7726 -4.77264,-4.7726 -2.63869,0 -4.77264,2.1339 -4.77264,4.7726 0,2.6387 2.13391,4.7726 4.7726,4.7726 2.63869,0 4.77268,-2.1339 4.77268,-4.7726 z m -10e-5,28.5438 c 0,-2.6387 -2.13385,-4.7726 -4.77255,-4.7726 -2.63869,0 -4.77263,2.1339 -4.77263,4.7726 -10e-6,2.6387 2.1339,4.7726 4.77259,4.7726 2.6387,0 4.77259,-2.1339 4.77259,-4.7726 z m 10e-5,28.5437 c 0,-2.6387 -2.13395,-4.7726 -4.77265,-4.7726 -2.63869,1e-4 -4.77263,2.134 -4.77263,4.7727 -10e-6,2.6387 2.1339,4.7726 4.7726,4.7726 2.63869,0 4.77258,-2.134 4.77268,-4.7727 z m -10e-5,28.5441 c 10e-5,-2.639 -2.13385,-4.773 -4.77255,-4.773 -2.63869,0 -4.77263,2.134 -4.77263,4.773 -10e-6,2.638 2.13389,4.772 4.77259,4.772 2.6387,0 4.76119,-2.145 4.77259,-4.772 z"
       id="path4" />
  </mask>
  <path
     d="m 120.588,11.1977 c -2.639,0 -4.773,-2.13389 -4.773,-4.77258 0,-2.6387 2.134,-4.7726 4.773,-4.7726 2.638,0 4.772,2.1339 4.772,4.77259 0,2.61575 -2.145,4.76109 -4.772,4.77259 z m 4.784,23.7597 c 0,-2.6387 -2.134,-4.7726 -4.773,-4.7726 -2.639,0 -4.773,2.1339 -4.773,4.7726 0,2.6387 2.134,4.7726 4.773,4.7726 2.616,0 4.761,-2.1454 4.773,-4.7726 z m -0.012,28.5323 c 0,-2.6387 -2.134,-4.7726 -4.772,-4.7726 -2.639,0 -4.773,2.1339 -4.773,4.7726 0,2.6387 2.134,4.7726 4.773,4.7726 2.638,0 4.772,-2.1339 4.772,-4.7726 z m 0,28.5438 c 0,-2.6387 -2.134,-4.7726 -4.772,-4.7726 -2.639,0 -4.773,2.1339 -4.773,4.7726 0,2.6387 2.134,4.7726 4.773,4.7726 2.638,0 4.772,-2.1339 4.772,-4.7726 z m 0,28.5435 c 0,-2.638 -2.134,-4.772 -4.772,-4.772 -2.639,0 -4.773,2.134 -4.773,4.772 0,2.639 2.134,4.773 4.773,4.773 2.638,0 4.772,-2.134 4.772,-4.773 z M 96.8279,6.41363 c 0,-2.63869 -2.1339,-4.77259 -4.7726,-4.77259 -2.6387,0 -4.7726,2.1339 -4.7726,4.77259 0,2.63869 2.1339,4.77257 4.7726,4.77257 2.6272,0.0115 4.7726,-2.13387 4.7726,-4.77257 z m 0,28.54377 c 0,-2.6387 -2.1339,-4.7726 -4.7726,-4.7726 -2.6387,0 -4.7726,2.1339 -4.7726,4.7726 0,2.6387 2.1339,4.7726 4.7726,4.7726 2.6272,-0.0115 4.7611,-2.1454 4.7726,-4.7726 z m 0,28.5438 c 0,-2.6387 -2.1339,-4.7726 -4.7726,-4.7726 -2.6387,0 -4.7726,2.1339 -4.7726,4.7726 0,2.6387 2.1339,4.7726 4.7726,4.7726 2.6272,-0.0115 4.7611,-2.1454 4.7726,-4.7726 z m -0.0115,28.5323 c 0,-2.6387 -2.1339,-4.7726 -4.7726,-4.7726 -2.6387,0 -4.7726,2.1339 -4.7726,4.7726 0,2.6387 2.1339,4.7726 4.7726,4.7726 2.6387,0 4.7726,-2.1339 4.7726,-4.7726 z m 0,28.5435 c 0,-2.638 -2.1339,-4.772 -4.7726,-4.772 -2.6387,0 -4.7726,2.134 -4.7726,4.772 0,2.639 2.1339,4.773 4.7726,4.773 2.6387,0 4.7726,-2.134 4.7726,-4.773 z M 68.2841,6.41363 c 0,-2.63869 -2.1339,-4.77259 -4.7726,-4.77259 -2.6387,0 -4.7726,2.1339 -4.7726,4.77259 0,2.63869 2.1339,4.77257 4.7726,4.77257 2.6387,0 4.7726,-2.13388 4.7726,-4.77257 z m 0,28.54377 c 0,-2.6387 -2.1339,-4.7726 -4.7726,-4.7726 -2.6387,0 -4.7726,2.1339 -4.7726,4.7726 0,2.6387 2.1339,4.7726 4.7726,4.7726 2.6387,0 4.7726,-2.1339 4.7726,-4.7726 z m 0,28.5438 c 0,-2.6387 -2.1339,-4.7726 -4.7726,-4.7726 -2.6387,0 -4.7726,2.1339 -4.7726,4.7726 0,2.6387 2.1339,4.7726 4.7726,4.7726 2.6272,-0.0115 4.7611,-2.1454 4.7726,-4.7726 z m 0,28.5437 c 0,-2.6387 -2.1339,-4.7726 -4.7726,-4.7726 -2.6387,0 -4.7726,2.134 -4.7726,4.7727 0,2.6387 2.1339,4.7726 4.7726,4.7726 2.6272,-0.0115 4.7611,-2.1454 4.7726,-4.7727 z m -0.0115,28.5321 c 0,-2.638 -2.1339,-4.772 -4.7726,-4.772 -2.6387,0 -4.7726,2.134 -4.7726,4.772 0,2.639 2.1339,4.773 4.7726,4.773 2.6387,0 4.7726,-2.134 4.7726,-4.773 z M 39.7403,6.41359 c 0,-2.63869 -2.1339,-4.77259 -4.7726,-4.77259 -2.6387,0 -4.7726,2.13394 -4.7726,4.77263 0,2.63869 2.1339,4.77257 4.7726,4.77257 2.6387,0 4.7726,-2.13391 4.7726,-4.77261 z m 0,28.54381 c 0,-2.6387 -2.1339,-4.7726 -4.7726,-4.7726 -2.6387,0 -4.7726,2.1339 -4.7726,4.7726 0,2.6387 2.1339,4.7726 4.7726,4.7726 2.6387,0 4.7726,-2.1339 4.7726,-4.7726 z m 0,28.5438 c 0,-2.6387 -2.1339,-4.7726 -4.7726,-4.7726 -2.6387,0 -4.7726,2.1339 -4.7726,4.7726 0,2.6387 2.1339,4.7726 4.7726,4.7726 2.6387,0 4.7726,-2.134 4.7726,-4.7726 z m 0,28.5437 c 0,-2.6387 -2.1339,-4.7726 -4.7726,-4.7726 -2.6387,0 -4.7726,2.134 -4.7726,4.7727 0,2.6387 2.1339,4.7726 4.7726,4.7726 2.6272,-0.0115 4.7612,-2.1454 4.7726,-4.7727 z m 0,28.5441 c 0,-2.639 -2.1339,-4.773 -4.7726,-4.773 -2.6387,0 -4.7726,2.134 -4.7726,4.773 0,2.638 2.1339,4.772 4.7726,4.772 2.6272,-0.011 4.7612,-2.145 4.7726,-4.772 z M 11.1966,6.4136 c 0,-2.63869 -2.13395,-4.7726 -4.77264,-4.7726 -2.6387,0 -4.77264,2.13394 -4.77264,4.77263 0,2.6387 2.13391,4.77257 4.7726,4.77257 2.63869,0 4.77268,-2.13391 4.77268,-4.7726 z m 0,28.5438 c 0,-2.6387 -2.13395,-4.7726 -4.77264,-4.7726 -2.63869,0 -4.77264,2.1339 -4.77264,4.7726 0,2.6387 2.13391,4.7726 4.7726,4.7726 2.63869,0 4.77268,-2.1339 4.77268,-4.7726 z m -10e-5,28.5438 c 0,-2.6387 -2.13385,-4.7726 -4.77255,-4.7726 -2.63869,0 -4.77263,2.1339 -4.77263,4.7726 -10e-6,2.6387 2.1339,4.7726 4.77259,4.7726 2.6387,0 4.77259,-2.1339 4.77259,-4.7726 z m 10e-5,28.5437 c 0,-2.6387 -2.13395,-4.7726 -4.77265,-4.7726 -2.63869,1e-4 -4.77263,2.134 -4.77263,4.7727 -10e-6,2.6387 2.1339,4.7726 4.7726,4.7726 2.63869,0 4.77258,-2.134 4.77268,-4.7727 z m -10e-5,28.5441 c 10e-5,-2.639 -2.13385,-4.773 -4.77255,-4.773 -2.63869,0 -4.77263,2.134 -4.77263,4.773 -10e-6,2.638 2.13389,4.772 4.77259,4.772 2.6387,0 4.76119,-2.145 4.77259,-4.772 z"
     stroke="#ff9100"
     stroke-width="3"
     mask="url(#path-1-outside-1_1505_25916)"
     id="path7"
     transform="matrix(1.0365943,0,0,1.0365943,-0.15666719,-0.14596954)"
     style="display:inline;fill:#000000;fill-opacity:0;stroke-width:3.00082;stroke-dasharray:none" />
</svg>
