<svg width="157" height="52" viewBox="0 0 157 52" fill="none" xmlns="http://www.w3.org/2000/svg">
  <g clip-path="url(#clip0_3559_65108)">
    <path d="M149.395 51.5273H6.59699C2.96811 51.5273 -0.000976562 48.6289 -0.000976562 45.0864V6.44096C-0.000976562 2.89846 2.96811 4.57764e-05 6.59699 4.57764e-05H149.395C153.024 4.57764e-05 155.993 2.89846 155.993 6.44096V45.0864C155.993 48.6289 153.024 51.5273 149.395 51.5273Z" fill="#1B1B1D"/>
    <path d="M150.402 4.57764e-05H6.59699C2.96811 4.57764e-05 -0.000976562 2.89846 -0.000976562 6.44096V45.0864C-0.000976562 48.6289 2.96811 51.5273 6.59699 51.5273H150.402C154.031 51.5273 157 48.6289 157 45.0864V6.44096C157 2.89846 154.031 4.57764e-05 150.402 4.57764e-05ZM150.402 1.03059C153.458 1.03059 155.944 3.45804 155.944 6.44096V45.0864C155.944 48.0699 153.458 50.4973 150.402 50.4973H6.59699C3.54134 50.4973 1.0547 48.0699 1.0547 45.0864V6.44096C1.0547 3.45804 3.54134 1.03059 6.59699 1.03059H150.402Z" fill="#3B3C3F"/>
    <path d="M119.385 35.7437H121.384V22.6709H119.385V35.7437ZM137.389 27.38L135.097 33.0478H135.029L132.651 27.38H130.498L134.064 35.3017L132.03 39.7081H134.116L139.612 27.38H137.389ZM126.053 34.2589C125.397 34.2589 124.485 33.9394 124.485 33.1487C124.485 32.1396 125.622 31.7528 126.604 31.7528C127.483 31.7528 127.896 31.9378 128.43 32.1904C128.275 33.4011 127.207 34.2589 126.053 34.2589V34.2589ZM126.294 27.094C124.847 27.094 123.348 27.7165 122.728 29.0956L124.502 29.8186C124.881 29.0956 125.587 28.8599 126.328 28.8599C127.362 28.8599 128.413 29.4657 128.43 30.5421V30.6765C128.068 30.4746 127.293 30.172 126.345 30.172C124.433 30.172 122.486 31.1976 122.486 33.1151C122.486 34.8643 124.054 35.9913 125.811 35.9913C127.155 35.9913 127.896 35.4026 128.362 34.7132H128.43V35.7221H130.359V30.7099C130.359 28.3893 128.585 27.094 126.294 27.094V27.094ZM113.941 28.9714H111.098V24.4903H113.941C115.435 24.4903 116.283 25.6982 116.283 26.7308C116.283 27.7439 115.435 28.9714 113.941 28.9714ZM113.889 22.6709H109.1V35.7437H111.098V30.7909H113.889C116.105 30.7909 118.282 29.2251 118.282 26.7308C118.282 24.2366 116.105 22.6709 113.889 22.6709ZM87.7716 34.2613C86.3907 34.2613 85.2345 33.1327 85.2345 31.5825C85.2345 30.016 86.3907 28.8702 87.7716 28.8702C89.1349 28.8702 90.2049 30.016 90.2049 31.5825C90.2049 33.1327 89.1349 34.2613 87.7716 34.2613V34.2613ZM90.0668 28.112H89.9977C89.5492 27.5899 88.6859 27.1182 87.5988 27.1182C85.3207 27.1182 83.2327 29.0723 83.2327 31.5825C83.2327 34.0759 85.3207 36.0133 87.5988 36.0133C88.6859 36.0133 89.5492 35.5415 89.9977 35.0027H90.0668V35.6428C90.0668 37.3447 89.1349 38.2543 87.6335 38.2543C86.4082 38.2543 85.6488 37.3948 85.3379 36.6706L83.5951 37.3781C84.0956 38.5574 85.4245 40.0063 87.6335 40.0063C89.9806 40.0063 91.9652 38.6583 91.9652 35.3732V27.3877H90.0668V28.112ZM93.3457 35.7437H95.3476V22.6705H93.3457V35.7437ZM98.2989 31.431C98.247 29.7124 99.6622 28.8366 100.68 28.8366C101.475 28.8366 102.147 29.2238 102.371 29.7803L98.2989 31.431ZM104.512 29.9485C104.132 28.9542 102.976 27.1182 100.611 27.1182C98.2642 27.1182 96.3142 28.9208 96.3142 31.5657C96.3142 34.0592 98.247 36.0133 100.836 36.0133C102.924 36.0133 104.132 34.7666 104.633 34.0423L103.079 33.0313C102.562 33.7728 101.854 34.2613 100.836 34.2613C99.8174 34.2613 99.0928 33.8063 98.6266 32.9137L104.718 30.4538L104.512 29.9485ZM55.9762 28.4828V30.3696H60.6013C60.4632 31.431 60.1008 32.2058 59.5485 32.745C58.8756 33.4023 57.8228 34.1265 55.9762 34.1265C53.1286 34.1265 50.9025 31.8859 50.9025 29.1062C50.9025 26.3264 53.1286 24.0855 55.9762 24.0855C57.5123 24.0855 58.6337 24.6753 59.4622 25.4335L60.8256 24.1027C59.6694 23.0242 58.1333 22.1987 55.9762 22.1987C52.0758 22.1987 48.7969 25.2987 48.7969 29.1062C48.7969 32.9137 52.0758 36.0133 55.9762 36.0133C58.0819 36.0133 59.6694 35.3398 60.9118 34.0759C62.1889 32.8292 62.586 31.0772 62.586 29.6622C62.586 29.2238 62.5517 28.8199 62.4822 28.4828H55.9762ZM67.8443 34.2613C66.4634 34.2613 65.2725 33.1494 65.2725 31.5657C65.2725 29.9653 66.4634 28.8702 67.8443 28.8702C69.2247 28.8702 70.4155 29.9653 70.4155 31.5657C70.4155 33.1494 69.2247 34.2613 67.8443 34.2613V34.2613ZM67.8443 27.1182C65.3243 27.1182 63.2706 28.9881 63.2706 31.5657C63.2706 34.1265 65.3243 36.0133 67.8443 36.0133C70.3637 36.0133 72.4175 34.1265 72.4175 31.5657C72.4175 28.9881 70.3637 27.1182 67.8443 27.1182ZM77.8208 34.2613C76.4405 34.2613 75.2495 33.1494 75.2495 31.5657C75.2495 29.9653 76.4405 28.8702 77.8208 28.8702C79.2013 28.8702 80.3922 29.9653 80.3922 31.5657C80.3922 33.1494 79.2013 34.2613 77.8208 34.2613ZM77.8208 27.1182C75.301 27.1182 73.2477 28.9881 73.2477 31.5657C73.2477 34.1265 75.301 36.0133 77.8208 36.0133C80.3404 36.0133 82.3941 34.1265 82.3941 31.5657C82.3941 28.9881 80.3404 27.1182 77.8208 27.1182Z" fill="white"/>
    <path d="M13.6205 40.5088L13.5281 40.4225C13.1664 40.0489 12.9529 39.4688 12.9529 38.7176V38.8944V12.0601C12.9529 12.0576 12.9529 12.0558 12.9529 12.0539C12.9529 12.0562 12.9529 12.0581 12.9529 12.0606V12.2378C12.9529 11.4244 13.2018 10.8117 13.619 10.4443L29.0186 25.477L13.6205 40.5088ZM12.9529 12.0524C12.9529 11.9856 12.9547 11.9207 12.9582 11.8567C12.9547 11.9202 12.9529 11.9856 12.9529 12.0524ZM12.9582 11.8538C12.9582 11.853 12.9582 11.852 12.9586 11.851C12.9582 11.852 12.9582 11.853 12.9582 11.8538ZM12.9586 11.8453C12.9586 11.8448 12.9586 11.8443 12.9586 11.8439C12.9586 11.8443 12.9586 11.8448 12.9586 11.8453Z" fill="url(#paint0_linear_3559_65108)"/>
    <path d="M34.1503 30.6638L34.2673 30.5989L40.3489 27.2257C40.9287 26.9039 41.3151 26.5138 41.5079 26.101C41.3156 26.5138 40.9291 26.9044 40.3489 27.2262L34.2673 30.5994L34.1503 30.6638V30.6638ZM34.1518 30.4861L29.0178 25.4735L34.1513 20.4618L40.3489 23.8989C41.1359 24.3355 41.5778 24.8981 41.6516 25.473C41.6516 25.4735 41.6516 25.4745 41.6516 25.4753C41.5778 26.0489 41.1359 26.612 40.3489 27.0484L34.1518 30.4861" fill="url(#paint1_linear_3559_65108)"/>
    <path d="M14.7184 41.0796C14.2882 41.0796 13.9129 40.9431 13.6202 40.6853L13.6207 40.6848C13.9134 40.9426 14.2892 41.0796 14.7194 41.0796C14.7567 41.0796 14.7946 41.0786 14.833 41.0768C14.7941 41.0786 14.7557 41.0796 14.7184 41.0796V41.0796ZM14.7189 40.9018C14.2887 40.9023 13.9134 40.7653 13.6207 40.5075V40.5071L29.0188 25.4754L34.1528 30.4879L16.1114 40.4948C15.6122 40.771 15.1393 40.9018 14.7189 40.9018V40.9018ZM13.6163 40.682C13.5891 40.6578 13.5624 40.6322 13.5361 40.6057L13.6163 40.682Z" fill="url(#paint2_linear_3559_65108)"/>
    <path d="M29.0183 25.4751L13.6187 10.4424C13.9114 10.185 14.2862 10.0485 14.7159 10.0485C15.1374 10.0485 15.6107 10.1798 16.1109 10.4565L34.1518 20.4634L29.0183 25.4751V25.4751ZM34.2679 20.3502L16.1109 10.2794C15.6107 10.0025 15.1374 9.87123 14.7159 9.87123C14.7139 9.87123 14.7126 9.87123 14.7106 9.87123C14.7131 9.87123 14.7149 9.87123 14.7179 9.87123C15.1384 9.87123 15.6112 10.002 16.1109 10.2789L34.2679 20.3502V20.3502Z" fill="url(#paint3_linear_3559_65108)"/>
    <path d="M15.1567 42.3281C15.5715 42.3049 16.0309 42.1656 16.5139 41.8984L35.6664 31.2749L16.5139 41.8984C16.0313 42.1661 15.5715 42.3049 15.1567 42.3281V42.3281ZM13.869 41.9124L13.8649 41.909C13.8664 41.91 13.8679 41.9114 13.869 41.9124ZM13.7798 41.8279L13.7715 41.8199V41.8194C13.7747 41.8224 13.7772 41.8253 13.7798 41.8279Z" fill="#1B1B1D"/>
    <path d="M35.668 31.2732L35.794 31.2035L35.668 31.2732Z" fill="url(#paint4_linear_3559_65108)"/>
    <path d="M13.7694 41.8206C13.3854 41.4239 13.1587 40.808 13.1587 40.0105V40.01C13.1587 40.808 13.3854 41.4234 13.7694 41.82V41.8206" fill="#1B1B1D"/>
    <path d="M13.7673 41.8171L13.8653 41.7204V41.7208L13.7673 41.8171" fill="url(#paint5_linear_3559_65108)"/>
    <path d="M43.4763 26.4309C43.578 26.2135 43.6291 25.9901 43.6291 25.7666C43.6291 25.7662 43.6291 25.7657 43.6291 25.7657C43.6291 25.9896 43.578 26.2129 43.4763 26.4309Z" fill="#1B1B1D"/>
    <path d="M43.6295 25.7654V25.7649C43.629 25.091 43.1677 24.4173 42.2465 23.906L35.7898 20.3247H35.7893L35.7898 20.3244L42.2465 23.9055C43.1687 24.4168 43.6306 25.0915 43.6295 25.7654Z" fill="#3A243F"/>
    <path d="M13.1587 11.5142C13.1587 11.5136 13.1587 11.5131 13.1587 11.5126C13.1587 11.5131 13.1587 11.5136 13.1587 11.5142ZM13.1644 11.3048C13.1644 11.3038 13.1644 11.3028 13.1644 11.3017C13.1644 11.3028 13.1644 11.3038 13.1644 11.3048ZM13.1648 11.2988C13.1648 11.2967 13.1648 11.2948 13.1648 11.2927C13.1648 11.2948 13.1648 11.2967 13.1648 11.2988ZM13.1648 11.2912C13.2412 9.96783 13.9783 9.20342 15.021 9.19891C14.5689 9.20149 14.1752 9.34641 13.8669 9.61757V9.61706L13.8632 9.62066C13.8308 9.64926 13.7999 9.67953 13.7694 9.71071C13.423 10.0684 13.2045 10.6043 13.1648 11.2912Z" fill="#3A243F"/>
    <path d="M49.8772 17.1967H51.0174C51.7589 17.1967 52.3469 16.9892 52.7812 16.5742C53.2155 16.1596 53.4318 15.5778 53.4318 14.8303C53.4318 14.0885 53.2155 13.5089 52.7812 13.0906C52.3469 12.6735 51.7589 12.464 51.0174 12.464H49.8772V17.1967ZM49.052 17.9675V11.6932H51.0174C52.0049 11.6932 52.7946 11.9836 53.3879 12.5653C53.9801 13.1462 54.2759 13.901 54.2759 14.8303C54.2759 15.7593 53.9801 16.5145 53.3879 17.0954C52.7946 17.6771 52.0049 17.9675 51.0174 17.9675H49.052Z" fill="white"/>
    <path d="M49.8759 17.1966V17.3012H51.0161C51.7773 17.302 52.3987 17.0859 52.8548 16.6489C53.3135 16.2114 53.5385 15.5966 53.5377 14.8303C53.5385 14.0697 53.3135 13.4565 52.8552 13.0161C52.3987 12.5766 51.7778 12.3585 51.0161 12.3593H49.8759H49.7688V17.3012H49.8759V17.1966H49.983V12.5685H51.0161C51.738 12.5697 52.2928 12.7703 52.705 13.1653L52.7046 13.1648C53.1146 13.5611 53.3227 14.1072 53.3234 14.8303C53.3227 15.559 53.1147 16.1072 52.705 16.4993C52.2928 16.8923 51.7384 17.0908 51.0161 17.0921H49.8759V17.1966H49.983H49.8759ZM49.0507 17.9674H49.1578V11.7976H51.0161C51.9828 11.7985 52.7384 12.0791 53.3109 12.6391C53.8816 13.2004 54.1667 13.9221 54.1675 14.8303C54.1667 15.738 53.8816 16.4601 53.3105 17.0214C52.7384 17.5815 51.9828 17.862 51.0161 17.8629H49.0507V17.9674H49.1578H49.0507V18.072H51.0161C52.0246 18.0729 52.8486 17.7726 53.4624 17.1692C54.0759 16.5684 54.383 15.78 54.3817 14.8303C54.383 13.8797 54.0759 13.0922 53.4624 12.4917C52.8486 11.8879 52.0246 11.5877 51.0161 11.5885H48.9436V18.072H49.0507V17.9674Z" fill="white"/>
    <path d="M55.4346 17.9675V11.6932H56.2597V17.9675H55.4346Z" fill="white"/>
    <path d="M55.4345 17.9674H55.5416V11.7976H56.1526V17.8629H55.4345V17.9674H55.5416H55.4345V18.072H56.2597H56.3668V11.5885H55.4345H55.3274V18.072H55.4345V17.9674Z" fill="white"/>
    <path d="M59.5447 18.1072C59.078 18.1072 58.6219 17.9585 58.1763 17.6607C57.7293 17.3625 57.4378 16.9451 57.3005 16.407L58.0549 16.1092C58.1449 16.454 58.3277 16.7448 58.6065 16.9809C58.8855 17.2175 59.1974 17.336 59.5447 17.336C59.9032 17.336 60.2107 17.244 60.4652 17.0602C60.7196 16.8764 60.846 16.6264 60.846 16.3106C60.846 15.9605 60.7196 15.6902 60.4652 15.5002C60.2107 15.3103 59.8083 15.1338 59.258 14.97C58.6889 14.7951 58.2579 14.5684 57.965 14.2907C57.672 14.0133 57.5243 13.6588 57.5243 13.2261C57.5243 12.7759 57.7076 12.3851 58.0726 12.0521C58.4379 11.7192 58.9136 11.5521 59.4999 11.5521C60.0447 11.5521 60.4874 11.6858 60.828 11.9513C61.1695 12.2172 61.3908 12.5076 61.4925 12.8233L60.7393 13.1293C60.6849 12.9317 60.5523 12.747 60.3397 12.5775C60.1271 12.4088 59.8535 12.3238 59.5174 12.3238C59.2007 12.3238 58.9296 12.4095 58.7057 12.5824C58.4805 12.7547 58.3688 12.9692 58.3688 13.2261C58.3688 13.4597 58.4726 13.6571 58.6785 13.8176C58.8855 13.9781 59.1889 14.1232 59.5899 14.2515C59.9066 14.3511 60.171 14.4471 60.3848 14.5406C60.597 14.6338 60.8126 14.7583 61.0301 14.9132C61.249 15.0676 61.413 15.2608 61.5239 15.4916C61.6347 15.7224 61.6904 15.9896 61.6904 16.293C61.6904 16.5969 61.6264 16.8686 61.4975 17.108C61.3691 17.3482 61.1975 17.5378 60.9854 17.6778C60.7728 17.8179 60.5448 17.9246 60.2991 17.9977C60.0531 18.0708 59.802 18.1072 59.5447 18.1072" fill="white"/>
    <path d="M59.5456 18.1069V18.0023C59.1028 18.0019 58.6693 17.8622 58.2379 17.5742C57.8119 17.2891 57.5379 16.8977 57.4056 16.3818L57.3015 16.4067L57.3416 16.504L58.096 16.2061L58.0558 16.1089L57.9521 16.135C58.0467 16.499 58.243 16.8107 58.5367 17.0595L58.5371 17.0599C58.8321 17.3103 59.1727 17.441 59.5456 17.4402C59.9225 17.4406 60.2561 17.3421 60.5297 17.1441C60.8093 16.9443 60.9562 16.653 60.954 16.3103C60.9562 15.9361 60.8126 15.6252 60.5314 15.4169C60.259 15.2144 59.8472 15.0359 59.2903 14.8696H59.2912C58.7321 14.6984 58.3161 14.4774 58.0404 14.2152C57.7688 13.9566 57.6336 13.6351 57.6324 13.2258C57.6336 12.8043 57.7998 12.4464 58.1467 12.1282C58.4911 11.8153 58.9351 11.6572 59.5008 11.6564C60.0285 11.6568 60.4436 11.7847 60.7624 12.0326C61.0917 12.2896 61.2976 12.5632 61.3913 12.8541L61.4934 12.823L61.4525 12.7263L60.6987 13.0326L60.7402 13.129L60.8436 13.102C60.7821 12.8778 60.6331 12.6751 60.4083 12.4962C60.1741 12.3095 59.872 12.2185 59.5184 12.2189C59.1819 12.2185 58.8836 12.3116 58.6401 12.5L58.6405 12.4996C58.3944 12.6862 58.261 12.9382 58.2626 13.2258C58.261 13.4905 58.3861 13.7246 58.6124 13.899L58.6129 13.8994C58.8355 14.0714 59.1489 14.2197 59.5572 14.3504L59.5577 14.3508C59.872 14.4492 60.1335 14.5444 60.3414 14.6359H60.3418C60.5461 14.7254 60.7553 14.8463 60.9678 14.9974H60.9683C61.1729 15.1424 61.3243 15.3205 61.4277 15.5358C61.5311 15.7503 61.5842 16.0015 61.5842 16.2927C61.5838 16.5828 61.5236 16.836 61.4038 17.0595C61.2821 17.2853 61.1231 17.4606 60.926 17.5909C60.7222 17.7253 60.5042 17.8274 60.2687 17.8973C60.0327 17.9676 59.7924 18.0023 59.5456 18.0023V18.1069V18.2114C59.8134 18.2114 60.0753 18.1735 60.331 18.0974C60.587 18.0214 60.8252 17.9099 61.0462 17.7645V17.7641C61.2734 17.6142 61.4574 17.4104 61.5934 17.1563C61.7311 16.9006 61.7985 16.6109 61.7985 16.2927C61.7985 15.977 61.7403 15.6939 61.6219 15.4467C61.5035 15.2005 61.3265 14.9922 61.0938 14.8279L61.0942 14.8283C60.8716 14.6699 60.6498 14.5415 60.4293 14.4451L60.4285 14.4447L60.4298 14.4451C60.2109 14.3487 59.9431 14.252 59.6233 14.1515H59.6238C59.2304 14.026 58.9375 13.8843 58.7459 13.7356H58.7463C58.5605 13.5886 58.4785 13.4285 58.4768 13.2258C58.4785 12.9995 58.5689 12.8227 58.7727 12.6641L58.7731 12.6637C58.9773 12.5069 59.2208 12.4284 59.5184 12.428C59.8364 12.4284 60.0824 12.5069 60.2728 12.6584L60.2741 12.6592L60.2728 12.658C60.4728 12.8182 60.5896 12.9844 60.6368 13.1564L60.6682 13.2716L61.5344 12.9194L61.6248 12.8827L61.5955 12.7916C61.4863 12.4513 61.2486 12.1441 60.8959 11.8688C60.5327 11.5857 60.0628 11.4468 59.5008 11.4472C58.8945 11.4464 58.3868 11.6225 58.0006 11.9754C57.6174 12.323 57.4174 12.7475 57.4181 13.2258C57.4174 13.6813 57.5776 14.0697 57.8914 14.3654C58.2015 14.6588 58.6476 14.8912 59.2267 15.0693H59.2275C59.7711 15.2311 60.1648 15.4059 60.4013 15.5828C60.628 15.7548 60.7377 15.9839 60.7398 16.3103C60.7377 16.5987 60.6314 16.8078 60.4026 16.9757C60.1677 17.1453 59.8858 17.2306 59.5456 17.2311C59.2238 17.2302 58.9409 17.124 58.6772 16.9018C58.4145 16.678 58.245 16.4088 58.1596 16.0832L58.1295 15.9672L57.2616 16.3099L57.175 16.3438L57.1977 16.432C57.3395 16.9913 57.6487 17.4353 58.117 17.7466C58.5764 18.0541 59.0552 18.2114 59.5456 18.2114V18.1069" fill="white"/>
    <path d="M63.7019 14.6547H65.0849C65.4322 14.6547 65.7105 14.5411 65.9197 14.3136C66.1289 14.0853 66.233 13.8348 66.233 13.56C66.233 13.2855 66.1289 13.0338 65.9197 12.8063C65.7105 12.5779 65.4322 12.464 65.0849 12.464H63.7019V14.6547ZM63.7019 17.9675H62.8762V11.6932H65.0669C65.6109 11.6932 66.0824 11.8696 66.4799 12.2229C66.8788 12.5763 67.0775 13.0224 67.0775 13.56C67.0775 14.0971 66.8788 14.5423 66.4799 14.8957C66.0824 15.2495 65.6109 15.4263 65.0669 15.4263H63.7019V17.9675Z" fill="white"/>
    <path d="M63.7021 14.6546V14.7592H65.0851C65.4554 14.7604 65.7709 14.6338 65.9994 14.3834C66.2232 14.1403 66.3412 13.8609 66.3403 13.5599C66.3412 13.2588 66.2232 12.979 65.9994 12.7364C65.7709 12.4851 65.4558 12.3581 65.0851 12.3593H63.7021H63.5946V14.7592H63.7021V14.6546H63.8092V12.5685H65.0851C65.4085 12.5701 65.6499 12.6706 65.84 12.876C66.0345 13.0889 66.1258 13.3115 66.1261 13.5599C66.1258 13.8083 66.0345 14.0301 65.84 14.2437C65.6499 14.4488 65.4089 14.5489 65.0851 14.55H63.7021V14.6546H63.8092H63.7021ZM63.7021 17.9674V17.8629H62.9835V11.7976H65.0671C65.5872 11.7985 66.0282 11.9639 66.4081 12.3005C66.7856 12.6366 66.9694 13.0472 66.9705 13.5599C66.9694 14.0717 66.7856 14.4818 66.4081 14.8184C66.0282 15.1554 65.5872 15.3208 65.0671 15.3216H63.7021H63.5946V17.9674H63.7021V17.8629V17.9674H63.8092V15.5308H65.0671C65.6348 15.5316 66.1374 15.3433 66.5525 14.9728C66.9723 14.6027 67.1861 14.1223 67.1848 13.5599C67.1861 12.997 66.9723 12.5162 66.5525 12.1457C66.1374 11.7756 65.6348 11.5877 65.0671 11.5885H62.7693V18.072H63.7021H63.8092V17.9674H63.7021Z" fill="white"/>
    <path d="M69.2694 16.6309C69.7452 17.1011 70.3268 17.336 71.0152 17.336C71.7035 17.336 72.2864 17.1011 72.7609 16.6309C73.2372 16.1608 73.4756 15.5598 73.4756 14.8299C73.4756 14.0999 73.2372 13.499 72.7609 13.0288C72.2864 12.5586 71.7035 12.3238 71.0152 12.3238C70.3268 12.3238 69.7452 12.5586 69.2694 13.0288C68.794 13.499 68.556 14.0999 68.556 14.8299C68.556 15.5598 68.794 16.1608 69.2694 16.6309ZM73.3722 17.1562C72.74 17.7905 71.9546 18.1072 71.0152 18.1072C70.0757 18.1072 69.2899 17.7905 68.6593 17.1562C68.0274 16.5226 67.7124 15.747 67.7124 14.8299C67.7124 13.9128 68.0274 13.137 68.6593 12.5035C69.2899 11.8691 70.0757 11.5521 71.0152 11.5521C71.9491 11.5521 72.7329 11.8708 73.3677 12.5076C74.0016 13.1445 74.3188 13.9185 74.3188 14.8299C74.3188 15.747 74.0029 16.5226 73.3722 17.1562Z" fill="white"/>
    <path d="M69.2723 16.6306L69.1957 16.7041C69.6894 17.1931 70.3045 17.4415 71.0181 17.4402C71.7315 17.4415 72.3479 17.1931 72.8404 16.7041C73.3367 16.2147 73.5865 15.5815 73.5856 14.8295C73.5865 14.0776 73.3367 13.4444 72.8404 12.955L72.8388 12.9537L72.8404 12.955C72.3479 12.466 71.7315 12.2176 71.0181 12.2189C70.3045 12.2176 69.6894 12.466 69.1957 12.955L69.1924 12.9586L69.1957 12.955C68.7003 13.4444 68.4505 14.0776 68.4517 14.8295C68.4505 15.5815 68.7003 16.2147 69.1957 16.7041L69.2723 16.6306L69.3485 16.5571C68.8939 16.1056 68.6667 15.5378 68.666 14.8295C68.6667 14.1213 68.8939 13.5534 69.3485 13.102C69.8066 12.6507 70.3548 12.4293 71.0181 12.428C71.6813 12.4293 72.2303 12.6507 72.6877 13.102C73.1433 13.5534 73.3706 14.1213 73.3714 14.8295C73.3706 15.5378 73.1433 16.1056 72.6877 16.5571C72.2303 17.0084 71.6813 17.2298 71.0181 17.2311C70.3548 17.2298 69.8066 17.0084 69.3485 16.5571L69.2723 16.6306ZM73.3751 17.1559L73.2982 17.0832C72.6843 17.6976 71.9328 18.001 71.0181 18.0023C70.1034 18.001 69.3518 17.6976 68.7392 17.0832H68.7387C68.1261 16.4667 67.8236 15.7233 67.8224 14.8295C67.8236 13.9358 68.1261 13.1923 68.7387 12.5759H68.7392C69.3518 11.9615 70.1034 11.6576 71.0181 11.6564C71.9273 11.6576 72.6768 11.9628 73.294 12.5804C73.9091 13.1997 74.2138 13.9419 74.2145 14.8295C74.2138 15.7233 73.91 16.4667 73.2982 17.0832L73.3751 17.1559L73.4517 17.2285C74.1016 16.5775 74.4296 15.7699 74.4288 14.8295C74.4296 13.8946 74.1003 13.0886 73.4475 12.4346C72.7948 11.7781 71.9772 11.4461 71.0181 11.4472C70.054 11.4461 69.2342 11.7765 68.5852 12.4305L68.5857 12.4301C67.9345 13.0816 67.6073 13.8892 67.6082 14.8295C67.6073 15.7699 67.9345 16.5775 68.5857 17.229L68.5881 17.2319L68.5852 17.2285C69.2342 17.8825 70.054 18.2123 71.0181 18.2114C71.9822 18.2123 72.8019 17.8825 73.4517 17.2285L73.3751 17.1559" fill="white"/>
    <path d="M75.479 17.9675V11.6932H76.4841L79.6083 16.5742H79.6438L79.6083 15.365V11.6932H80.4343V17.9675H79.5727L76.3046 12.8499H76.269L76.3046 14.0595V17.9675H75.479Z" fill="white"/>
    <path d="M75.4809 17.9674H75.588V11.7976H76.427L79.5507 16.6787H79.6457H79.7557L79.7169 15.3634L79.7173 11.7976H80.3291V17.8629H79.6335L76.3658 12.7453H76.2709H76.1604L76.1994 14.0607V17.8629H75.4809V17.9674H75.588H75.4809V18.072H76.3065H76.4136V14.0578L76.3776 12.847L76.2709 12.8499V12.9544H76.3065V12.8499L76.2152 12.9055L79.5151 18.072H80.4362H80.5433V11.5885H79.6102H79.503V15.3662L79.5386 16.5769L79.6457 16.5741V16.4695H79.6102V16.5741L79.7009 16.5186L76.5454 11.5885H75.4809H75.3738V18.072H75.4809V17.9674Z" fill="white"/>
    <path d="M81.906 17.9675V11.6932H82.7316V17.9675H81.906Z" fill="white"/>
    <path d="M81.906 17.9674H82.0131V11.7976H82.6244V17.8629H81.906V17.9674H82.0131H81.906V18.072H82.7315H82.8387V11.5885H81.906H81.7988V18.072H81.906V17.9674Z" fill="white"/>
    <path d="M85.03 17.1967H86.6917C87.0085 17.1967 87.2658 17.0885 87.4637 16.8716C87.6613 16.6563 87.7596 16.4193 87.7596 16.162C87.7596 15.905 87.6578 15.6702 87.4541 15.4569C87.2512 15.2437 86.9841 15.1367 86.6548 15.1367H85.03V17.1967ZM85.03 14.3831H86.5293C86.841 14.3831 87.0908 14.283 87.2792 14.0808C87.4679 13.8794 87.5621 13.6592 87.5621 13.4194C87.5621 13.1801 87.4708 12.9603 87.2875 12.7626C87.1055 12.5636 86.8653 12.464 86.5657 12.464H85.03V14.3831ZM84.2048 17.9675V11.6932H86.5293C87.0327 11.6932 87.4679 11.8558 87.8361 12.1792C88.2044 12.504 88.3885 12.9112 88.3885 13.4019C88.3885 13.6996 88.309 13.9627 88.1495 14.1907C87.9918 14.4185 87.7805 14.591 87.5169 14.7078V14.7425C87.834 14.8475 88.0944 15.0288 88.2985 15.2858C88.5011 15.5431 88.6036 15.8414 88.6036 16.18C88.6036 16.6938 88.4103 17.1203 88.024 17.459C87.6382 17.798 87.1821 17.9675 86.6548 17.9675H84.2048Z" fill="white"/>
    <path d="M85.0307 17.1966V17.3012H86.6924C87.0338 17.3025 87.3279 17.1799 87.5443 16.9413H87.5439C87.7561 16.7113 87.8681 16.4458 87.8674 16.1619C87.8681 15.8777 87.7519 15.6133 87.5331 15.3854C87.3108 15.1505 87.0083 15.0308 86.6555 15.0321H84.9236V17.3012H85.0307V17.1966H85.1378V15.2412H86.6555C86.9619 15.2424 87.1929 15.3372 87.3766 15.528C87.5656 15.7273 87.6523 15.9328 87.6532 16.1619C87.6523 16.3927 87.5678 16.6011 87.3845 16.802H87.3841C87.205 16.9965 86.9844 17.0904 86.6924 17.0921H85.0307V17.1966H85.1378H85.0307ZM85.0307 14.383V14.4876H86.53C86.8647 14.4887 87.1514 14.376 87.3593 14.151L87.359 14.1514C87.5619 13.9356 87.6703 13.6864 87.6699 13.4194C87.6703 13.1539 87.5661 12.9055 87.3681 12.6923V12.6927C87.1672 12.4712 86.8899 12.3581 86.5664 12.3593H84.9236V14.4876H85.0307V14.383H85.1378V12.5685H86.5664C86.8417 12.5701 87.0456 12.6559 87.2087 12.832V12.8324C87.377 13.0154 87.4548 13.2066 87.4556 13.4194C87.4548 13.6313 87.3748 13.8233 87.2012 14.01L87.2008 14.0104C87.0322 14.1898 86.8188 14.2772 86.53 14.2784H85.0307V14.383H85.1378H85.0307ZM84.2055 17.9674H84.3126V11.7976H86.53C87.0096 11.7985 87.4142 11.9496 87.7649 12.2568C88.1122 12.5648 88.2804 12.937 88.2821 13.4018C88.2816 13.6816 88.2084 13.9214 88.0619 14.1317H88.0615C87.9142 14.3442 87.7205 14.5026 87.4732 14.6125L87.4104 14.6404V14.7424V14.8172L87.4833 14.8412C87.7816 14.941 88.0222 15.1084 88.2143 15.3499V15.3495C88.403 15.5897 88.4967 15.8617 88.4972 16.1799C88.4959 16.6684 88.3185 17.0593 87.9531 17.3813C87.5849 17.7036 87.1593 17.862 86.6555 17.8629H84.2055V17.9674H84.3126H84.2055V18.072H86.6555C87.2062 18.0729 87.6929 17.8923 88.0966 17.5365C88.5034 17.1815 88.713 16.7195 88.7114 16.1799C88.7122 15.8209 88.6009 15.4965 88.3837 15.222V15.2216C88.1678 14.9496 87.8874 14.7542 87.5518 14.6436L87.5175 14.7424H87.6247V14.7077H87.5175L87.5619 14.8029C87.8418 14.6792 88.0707 14.4932 88.2393 14.2489L88.2389 14.2494C88.4105 14.0039 88.4963 13.7175 88.4963 13.4018C88.4975 12.8858 88.2975 12.4431 87.9083 12.1015L87.9059 12.0995L87.9083 12.1015C87.5226 11.7613 87.0568 11.5877 86.53 11.5885H84.0984V18.072H84.2055V17.9674" fill="white"/>
    <path d="M89.7153 17.9675V11.6932H90.5409V17.1967H93.3237V17.9675H89.7153Z" fill="white"/>
    <path d="M89.7155 17.9674H89.8226V11.7976H90.434V17.3012H93.2167V17.8629H89.7155V17.9674H89.8226H89.7155V18.072H93.431V17.1966V17.0921H90.6482V11.5885H89.7155H89.6084V18.072H89.7155V17.9674Z" fill="white"/>
    <path d="M98.1187 12.464H95.1911V14.4534H97.8307V15.2073H95.1911V17.1967H98.1187V17.9675H94.366V11.6932H98.1187V12.464" fill="white"/>
    <path d="M98.1206 12.4639V12.3593H95.0859V14.5578H97.7255V15.1024L95.0859 15.1027V17.3012H98.0135V17.8629H94.475V11.7976H98.0135V12.4639H98.1206V12.3593V12.4639H98.2277V11.6931V11.5885H94.2607V18.072H98.2277V17.1966V17.0921H95.3002V15.3118H97.9398V14.4533V14.3487H95.3002V12.5685H98.2277V12.4639H98.1206" fill="white"/>
    <path d="M105.318 12.464H102.391V14.4534H105.03V15.2073H102.391V17.1967H105.318V17.9675H101.566V11.6932H105.318V12.464Z" fill="white"/>
    <path d="M105.318 12.4639V12.3593H102.284V14.5578H104.923V15.1024L102.284 15.1027V17.3012H105.211V17.8629H101.673V11.7976H105.211V12.4639H105.318V12.3593V12.4639H105.425V11.6931V11.5885H101.459V18.072H105.425V17.1966V17.0921H102.498V15.3118H105.137V14.4533V14.3487H102.498V12.5685H105.425V12.4639H105.318" fill="white"/>
    <path d="M106.611 17.9675V11.6932H107.616L110.74 16.5742H110.775L110.74 15.365V11.6932H111.567V17.9675H110.704L107.436 12.8499H107.401L107.436 14.0595V17.9675H106.611" fill="white"/>
    <path d="M106.61 17.9674H106.717V11.7976H107.556L110.68 16.6787H110.774H110.884L110.846 15.3634V11.7976H111.458V17.8629H110.762L107.495 12.7453H107.4H107.289L107.328 14.0607V17.8629H106.61V17.9674H106.717H106.61V18.072H107.435H107.542V14.0578L107.507 12.847L107.4 12.8499V12.9544H107.435V12.8499L107.344 12.9055L110.644 18.072H111.566H111.673V11.5885H110.739H110.631V15.3662L110.667 16.5769L110.774 16.5741V16.4695H110.739V16.5741L110.83 16.5186L107.675 11.5885H106.61H106.503V18.072H106.61V17.9674" fill="white"/>
  </g>
  <defs>
    <linearGradient id="paint0_linear_3559_65108" x1="27.6532" y1="11.777" x2="7.2961" y2="32.6305" gradientUnits="userSpaceOnUse">
      <stop stop-color="#00A0FF"/>
      <stop offset="0.00657445" stop-color="#00A1FF"/>
      <stop offset="0.2601" stop-color="#00BEFF"/>
      <stop offset="0.5122" stop-color="#00D2FF"/>
      <stop offset="0.7604" stop-color="#00DFFF"/>
      <stop offset="1" stop-color="#00E3FF"/>
    </linearGradient>
    <linearGradient id="paint1_linear_3559_65108" x1="42.6105" y1="25.4742" x2="12.5353" y2="25.4742" gradientUnits="userSpaceOnUse">
      <stop stop-color="#FFE000"/>
      <stop offset="0.4087" stop-color="#FFBD00"/>
      <stop offset="0.7754" stop-color="#FFA500"/>
      <stop offset="1" stop-color="#FF9C00"/>
    </linearGradient>
    <linearGradient id="paint2_linear_3559_65108" x1="31.416" y1="28.2603" x2="3.81027" y2="56.5392" gradientUnits="userSpaceOnUse">
      <stop stop-color="#FF3A44"/>
      <stop offset="1" stop-color="#C31162"/>
    </linearGradient>
    <linearGradient id="paint3_linear_3559_65108" x1="9.62722" y1="1.421" x2="21.9543" y2="14.0486" gradientUnits="userSpaceOnUse">
      <stop stop-color="#32A071"/>
      <stop offset="0.0685" stop-color="#2DA771"/>
      <stop offset="0.4762" stop-color="#15CF74"/>
      <stop offset="0.8009" stop-color="#06E775"/>
      <stop offset="1" stop-color="#00F076"/>
    </linearGradient>
    <linearGradient id="paint4_linear_3559_65108" x1="44.7732" y1="25.6984" x2="12.4053" y2="25.6984" gradientUnits="userSpaceOnUse">
      <stop stop-color="#CCB300"/>
      <stop offset="0.4087" stop-color="#CC9700"/>
      <stop offset="0.7754" stop-color="#CC8400"/>
      <stop offset="1" stop-color="#CC7D00"/>
    </linearGradient>
    <linearGradient id="paint5_linear_3559_65108" x1="32.7481" y1="28.6366" x2="3.25153" y2="58.6478" gradientUnits="userSpaceOnUse">
      <stop stop-color="#E0333C"/>
      <stop offset="1" stop-color="#AB0F56"/>
    </linearGradient>
    <clipPath id="clip0_3559_65108">
      <rect width="156.92" height="51.5273" fill="white" transform="translate(-0.000976562)"/>
    </clipPath>
  </defs>
</svg>
