<svg width="503" height="250" viewBox="0 0 503 250" fill="none" xmlns="http://www.w3.org/2000/svg">
  <g clip-path="url(#clip0_3923_14036)">
    <rect width="503" height="250" rx="8" fill="white"/>
    <rect width="280" height="0.00122257" transform="translate(154.6 202.093) rotate(-46.2)" fill="white"/>
    <path d="M367.195 295.616C287.279 295.695 130.616 295.821 120.94 295.565C107.917 295.226 87.7747 297.619 89.5592 278.433C91.3437 259.247 89.5592 219.575 89.5592 219.575H413.315C413.315 219.575 414.445 262.082 413.315 274.946C412.184 287.81 394.851 295.587 367.195 295.616Z" fill="white"/>
    <path d="M277.202 218.852C277.488 219.74 277.48 218.986 277.329 221.468C277.171 224.076 279.757 221.826 252.894 229.105C252.858 229.115 222.424 236.755 221.962 236.78C221.029 230.653 220.977 232.095 222.691 231.648C222.729 231.636 268.834 221.394 277.202 218.852Z" fill="#A0A1A6"/>
    <path d="M254.459 217.816C284.989 217.953 279.843 215.149 226.319 228.83C220.784 230.244 220.753 230.878 220.686 228.962C220.204 215.212 213.667 217.674 229.962 217.572C253.033 217.435 234.742 217.726 254.459 217.816Z" fill="#CACBCE"/>
    <path d="M164.865 179.112C166.363 180.121 167.592 181.469 168.447 183.047C169.303 184.624 169.76 186.383 169.779 188.172C170.063 196.221 161.313 200.711 155.866 193.183C150.087 185.189 156.96 174.241 164.865 179.112Z" fill="#EFEFF0"/>
    <path d="M210.845 173.586C215.912 215.866 219.928 235.921 219.779 237.062C219.743 237.062 135.67 230.813 130.857 230.352C126.537 229.938 127.479 230.352 117.707 158.77C115.928 145.724 114.308 145.046 126.199 145.868C132.016 146.271 127.077 145.712 135.869 146.276C151.574 147.282 146.3 147.123 148.359 147.162C149.51 147.184 151.447 146.799 151.755 146.864C152.635 147.047 167.496 147.821 173.223 147.808C175.454 147.808 190.539 149.561 193.728 149.671C209.769 150.232 207.765 147.886 210.845 173.586ZM162.487 199.017C176.286 199.226 173.843 174.11 159.399 176.082C157.859 176.467 156.456 177.263 155.346 178.385C148.376 184.166 152.688 198.87 162.487 199.017Z" fill="#A0A1A6"/>
    <path d="M291.099 102.41C290.156 103.024 288.816 103.956 287.827 104.489C282.486 107.37 278.375 106.606 275.578 104.613C275.063 104.247 279.083 103.098 280.741 99.5621C280.966 99.0843 280.372 98.393 280.343 98.3472C279.339 98.3472 280.604 98.1507 275.744 99.0826C273.299 99.1092 270.887 98.5178 268.738 97.3645C268.702 97.3391 265.07 95.4244 264.572 94.2298C269.72 93.2827 268.744 93.8334 272.465 92.2643C276.726 90.47 276.209 90.4429 276.688 89.9583C275.943 87.232 269.737 93.1776 263.069 85.4071C289.704 80.8323 272.7 57.7241 277.347 49.6978C278.047 52.0236 279.569 54.0241 281.636 55.335C279.811 69.8814 281.92 67.9515 281.444 73.1126C280.612 82.2759 278.629 84.1228 291.099 102.41Z" fill="#3B3C3F"/>
    <path d="M355.858 89.9378C358.467 92.252 361.827 93.5698 365.332 93.6536C359.868 99.7399 350.66 100.199 345.437 96.1207C343.341 94.4839 343.277 97.3796 345.587 98.4776C347.699 99.7275 350.079 100.468 352.534 100.64C349.71 101.807 346.565 101.977 343.629 101.121C338.897 99.6704 337.208 96.546 336.499 98.7114C337.472 100.604 341.446 102.254 343.476 103.015C339.806 103.868 335.956 103.514 332.508 102.007C331.048 97.4642 330.297 92.7283 330.278 87.9622C330.259 81.7692 330.219 84.3192 334.224 82.6909C335.254 85.2545 334.506 85.8171 338.198 90.5919C338.397 90.9126 338.701 91.1586 339.058 91.2908C339.415 91.4231 339.806 91.4342 340.17 91.3222C340.642 90.214 338.651 89.6464 336.764 84.5259C336.314 83.3111 335.611 81.5133 336.355 80.6966C337.96 78.3343 339.137 75.7156 339.835 72.9566C340.942 67.7921 340.072 66.7229 338.634 64.8337C339.531 59.9199 340.394 52.9017 338.531 48.2286C337.766 46.3055 336.987 43.1454 335.703 43.1217C334.224 45.033 338.147 48.0456 337.762 57.4021C337.816 59.1839 337.634 60.965 337.222 62.7004C336.523 65.0726 338.121 63.7594 333.79 63.8204C331.424 63.8543 331.216 64.7693 331.486 63.7001C333.555 55.3823 333.557 56.4413 332.097 56.0144C331.635 56.4508 331.328 57.0213 331.218 57.6427C329.353 67.726 323.71 77.6365 322.81 76.9994C325.513 65.9164 325.98 65.2962 325.11 53.8777C325.008 52.551 321.982 40.8309 322.879 38.4909C323.111 37.8894 324.307 33.9974 323.608 33.0587C322.708 32.8283 322.557 32.5775 322.236 34.0974C320.717 41.2138 317.998 42.5541 318.833 48.9098C316.671 48.478 314.717 47.3448 313.282 45.6904C310.932 42.9963 311.661 40.2057 312.378 36.4305C312.79 34.2668 312.008 34.726 311.253 34.6074C310.566 35.2428 309.895 39.3313 309.89 40.3683C309.667 43.2293 309.916 46.1069 310.625 48.8894C304.406 50.5144 302.14 40.1768 303.186 33.5958C303.358 32.4843 304.259 30.1714 301.996 31.122C301.133 34.0569 300.892 37.1357 301.287 40.1667C301.666 43.0983 302.601 45.9325 304.048 48.52C300.118 50.3432 296.023 47.5966 293.974 43.6148C293.899 43.4704 293.775 43.3564 293.626 43.2918C293.475 43.2274 293.305 43.2166 293.147 43.2615C292.989 43.3064 292.852 43.404 292.759 43.5377C292.667 43.6714 292.624 43.8328 292.637 43.9943C292.74 45.1126 292.969 46.5444 293.404 48.8538C294.058 52.3155 294.557 52.207 293.319 52.1884C286.654 52.0935 285.053 46.1886 285.053 39.6499C284.048 38.6333 281.817 40.9495 284.995 49.1724C284.278 50.7194 284.075 52.4509 284.417 54.1183C283.082 54.5097 278.24 52.0054 278.367 44.0723C278.477 37.2947 284.166 30.4121 288.79 28.9023C289.418 28.6973 288.104 30.551 289.026 32.0438C289.808 32.0438 290.27 32.2776 290.505 30.634C291.169 25.9982 300.819 18.4022 316.791 23.6768C323.514 25.8965 325.449 23.5769 333.545 26.6539C337.725 28.3642 341.403 31.0818 344.245 34.5582C360.266 58.4729 341.982 73.958 360.156 86.9269C354.246 88.9856 352.548 81.62 351.148 82.5859C350.633 82.9434 350.614 83.1331 350.938 83.8126C352.285 86.0678 353.941 88.1289 355.858 89.9378Z" fill="#3B3C3F"/>
    <path d="M342.955 114.726C344.007 117.684 341.203 123.696 339.65 125.38C334.674 130.765 336.311 130.658 333.816 133.03C332.318 134.459 331.576 136.182 329.328 138.596C328.561 139.265 327.65 139.753 326.665 140.026C325.965 139.066 325.006 129.409 321.606 129.459C320.162 129.479 320.956 132.305 318.907 131.538C318.556 130.892 319.115 127.929 320.735 127.715C322.826 127.142 324.748 126.079 326.335 124.616C327.162 123.676 327.873 122.64 328.449 121.532C332.113 116.991 338.116 113.101 337.01 105.988C338.827 107.413 340.139 109.371 340.76 111.579C341.066 113.516 342.524 113.509 342.955 114.726Z" fill="white"/>
    <path d="M309.94 127.899C311.118 129.254 310.249 131.677 309.45 130.174C308.702 128.766 307.504 129.036 307.159 129.947C305.495 134.334 306.523 134.183 305.251 138.067C303.456 136.937 299.589 129.683 299.191 128.287C297.147 121.026 298.381 116.587 304.841 112.334C305.292 114.015 305.687 115.497 306.095 117.014C303.451 120.862 308.52 126.255 309.94 127.899Z" fill="white"/>
    <path d="M384.038 150.972C385.192 154.482 383.907 175.403 383.228 183.475C381.512 203.766 392.799 202.339 382.835 220.45C380.09 225.435 381.143 225.522 379.606 226.719C370.124 234.156 354.726 228.036 352.808 225.588C350.405 222.512 349.687 223.554 348.75 221.645C345.4 214.827 346.358 213.971 346.196 208.393C346.164 207.239 348.346 203.544 349.877 201.712C351.013 200.356 350.713 198.626 351.191 197.007C351.905 195.37 352.919 193.877 354.18 192.601C355.038 191.461 354.558 189.57 353.388 190.443C352.32 191.237 352.202 193.475 352.207 186.618C352.217 177.165 351.118 162.92 351.246 160.086C351.404 156.568 351.859 155.316 351.459 154.037C346.483 153.774 351.485 178.068 349.915 192.374C349.735 193.155 349.656 193.955 349.681 194.756C349.324 195.699 349.052 196.671 348.868 197.661C349.167 200.024 347.444 200.792 346.363 202.693C343.223 208.212 343.127 211.038 344.575 217.211C345.11 219.491 345.4 219.254 344.216 219.208C309.97 217.912 319.771 220.055 287.436 218.858C286.67 218.829 287.34 216.024 287.48 213.247C287.595 211.001 287.271 208.752 286.528 206.624C284.032 199.484 284.297 202.4 283.354 197.49C278.659 173.026 280.464 176.037 283.666 152.125C285.43 138.953 285.553 138.87 284.96 137.586C283.805 137.765 283.702 137.176 282.856 141.918C279.912 158.44 284.829 150.343 273.865 156.539C267.036 160.399 269.854 159.25 263.949 163.605C256.101 169.398 261.47 164.632 253.095 171.569C247.687 176.052 248.692 175.169 247.134 176.144C243.208 178.585 242.894 179.285 243.774 176.384C243.854 176.169 243.851 175.932 243.766 175.717C243.681 175.503 243.519 175.327 243.312 175.223C243.105 175.118 242.866 175.093 242.64 175.151C242.415 175.208 242.219 175.345 242.089 175.537C241.42 176.384 241.494 177.401 241.098 178.743C240.444 180.978 239.21 181.738 237.383 183.445C236.999 183.804 236.424 184.904 235.219 185.249C226.748 187.672 234.807 186.249 234.801 175.376C234.801 174.529 234.644 172.519 233.438 172.13C231.333 171.452 233.654 174.747 231.238 181.788C230.58 183.357 229.616 184.785 228.402 185.988C227.123 187.123 225.656 188.033 224.065 188.677C220.653 190.227 217.247 188.58 214.518 185.902C218.366 184.507 219.615 184.297 222.112 179.407C223.968 175.767 221.597 177.672 224.832 164.157C224.976 163.551 224.71 162.658 224.857 161.955C225.223 160.231 224.591 154.33 222.112 153.8C220.957 151.573 220.053 148.66 219.107 146.312C222.766 143.698 223.328 147.135 226.981 144.035C231.099 140.532 232.34 141.247 234.409 142.849C235.463 143.64 236.304 144.675 236.86 145.861C239.881 152.598 239.433 158.556 241.171 160.889C241.796 161.724 241.636 162.107 242.057 166.728C242.054 166.865 242.08 167.001 242.13 167.129C242.181 167.256 242.257 167.372 242.354 167.472C242.548 167.67 242.815 167.785 243.096 167.79C243.376 167.794 243.647 167.688 243.848 167.497C244.05 167.304 244.166 167.04 244.171 166.763C244.191 164.977 244.077 163.192 243.828 161.423C243.656 159.2 242.717 160.462 242.064 156.639C239.926 144.153 237.524 144.121 238.289 143.391C240.006 142.02 241.796 140.74 243.651 139.556C249.915 134.999 262.472 126.191 266.07 123.609C273.819 118.043 279.702 113.087 289.92 112.719C291.121 112.677 294.333 112.561 295.674 112.612C304.51 112.951 300.938 111.189 298.304 115.732C293.62 123.81 297.911 132.65 303.966 139.88C304.915 141.014 306.662 141.124 307.036 139.697C307.842 136.62 307.736 132.843 308.568 132.115C309.846 132.783 311.198 133.308 312.595 133.679C317.015 134.594 314.594 135.078 322.351 133.141C324.309 136.341 323.285 144.17 327.393 142.178C332.398 139.751 330.567 140.031 335.014 135.002C337.931 131.706 337.844 130.491 339.874 128.418C344.179 124.021 344.446 120.703 345.568 116.106C346.498 116.152 350.919 117.045 351.003 117.077C357.681 119.656 365.74 119.512 370.58 122.457C370.44 122.755 370.249 123.178 370.112 123.473C370.086 123.526 370.045 123.571 369.995 123.601C369.944 123.631 369.885 123.646 369.825 123.643C368.494 123.424 367.13 123.718 366.011 124.465C364.894 125.212 364.11 126.354 363.82 127.655C363.791 127.769 363.731 127.874 363.647 127.958C363.564 128.042 363.46 128.104 363.345 128.136C362.808 128.285 362.295 128.426 361.783 128.56C361.135 128.748 360.538 129.083 360.043 129.539C359.549 129.995 359.168 130.558 358.933 131.184C358.696 131.811 358.612 132.483 358.686 133.147C358.76 133.811 358.99 134.449 359.357 135.01C360.095 136.076 361.09 138.128 362.008 139.336C362.866 140.47 361.836 140.893 362.041 147.549C362.325 148.835 362.303 150.17 361.972 151.446C361.613 153.882 362.195 156.361 363.602 158.393C364.491 159.684 360.232 197.137 358.454 199.694C357.768 198.381 358.142 198.532 356.864 198.872C355.176 203.645 359.863 205.224 362.198 211.633C363.463 215.101 369.68 218.22 373.6 215.869C375.978 214.437 378.885 214.527 380.733 212.461C382.449 210.536 383.887 207.344 381.992 205.514C380.963 204.526 381.328 202.89 381.198 199.723C380.606 189.634 380.579 179.522 381.114 169.432C381.392 162.729 381.073 159.615 384.038 150.972ZM322.532 139.053C323.269 136.134 320.394 138.037 317.698 137.906C315.545 137.806 312.679 138.196 310.148 136.92C309.826 136.818 309.488 136.77 309.15 136.776C307.271 140.412 318.41 140.365 322.532 139.053Z" fill="#00703F"/>
    <path d="M299.668 94.0871C300.239 90.073 306.017 86.8486 309.129 87.8364C308.316 89.6583 307.003 91.2186 305.337 92.3401C303.633 93.4005 301.679 94.0027 299.668 94.0871Z" fill="#C72527"/>
    <path d="M311.077 80.8714C312.166 80.6613 313.208 79.9818 312.758 80.785C311.837 82.4252 312.463 82.1405 308.101 83.496C303.711 84.8619 299.225 85.9158 294.682 86.6493C292.884 83.9705 292.77 85.4327 299.635 83.2317C302.748 82.2252 303.886 82.2642 311.077 80.8714Z" fill="white"/>
    <path d="M338.442 69.1271C338.732 74.2103 333.714 83.6192 329.9 80.9099C329.727 80.7594 329.509 80.6705 329.279 80.6571C329.049 80.6435 328.823 80.7066 328.632 80.8359C328.443 80.9653 328.304 81.1534 328.236 81.3704C328.167 81.5875 328.174 81.8208 328.256 82.0333C328.78 83.6904 327.227 92.6792 331.165 104.287C334.802 115.027 334.5 109.852 332.8 113.376C332.285 114.454 328.354 118.073 327.395 119.429C326.516 120.083 326.257 121.159 325.629 121.982C323.527 124.744 319.634 125.816 318.467 126.347C317.503 126.787 317.016 128.861 316.815 129.888C316.369 132.179 316.928 132.569 315.384 132.26C311.163 131.43 312.86 131.479 312.323 128.731C311.897 126.55 310.87 126.247 309.363 124.337C308.895 122.592 308.577 120.81 308.414 119.012C308.282 118.583 306.753 112.573 307.253 112.004C309.739 109.205 312.199 108.435 322.352 95.1343C322.513 94.9293 322.587 94.6699 322.558 94.4117C322.527 94.1535 322.397 93.9173 322.193 93.7534C320.242 92.2285 318.123 99.0958 306.482 104.767C303.955 106.018 301.209 106.783 298.394 107.022C294.264 107.344 284.324 89.6343 283.049 85.7389C280.776 78.7919 283.015 77.8634 282.617 71.0451C282.436 67.9546 282.531 68.9339 282.222 64.6302C282.165 63.8558 283.061 63.8897 283.325 63.1052C284.139 60.7195 288.178 60.5941 288.77 60.6297C289.7 60.6873 290.158 59.0149 289.022 58.2203C286.354 56.3564 284.14 58.8523 283.004 59.8554C282.958 58.5298 283.197 57.2097 283.704 55.982C288.135 56.6682 285.87 54.1859 286.17 51.1902C288.248 53.0269 288.687 53.7538 292.922 54.0571C298.756 54.474 295.105 50.6463 294.516 49.1434C292.692 44.477 293.608 45.4818 293.644 45.5852C294.243 46.9188 295.165 48.0874 296.326 48.9894C297.488 49.8913 298.855 50.4991 300.309 50.7598C302.309 51.0945 304.365 50.8739 306.247 50.1227C307.891 50.9378 309.761 51.1934 311.566 50.8496C313.371 50.6802 312.452 49.3874 312.302 47.6083C314.149 49.3328 316.45 50.5074 318.943 50.9971C324.209 51.912 318.485 48.3606 321.252 43.6807C321.767 46.7306 324.063 54.0639 323.74 60.4975C323.004 75.1151 320.254 80.0525 322.925 78.5699C330.087 73.402 327.349 64.0473 334.936 64.8538C335.957 65 336.885 65.5211 337.536 66.3132C338.186 67.1052 338.508 68.1099 338.442 69.1271ZM335.429 70.2437C338.409 70.7215 335.497 66.2381 333.056 68.0105C332.385 68.4588 331.81 69.0341 331.364 69.7028C330.919 70.3718 330.612 71.121 330.463 71.9076C330.281 73.9629 331.995 74.3645 332.228 75.3946C331.757 75.9436 330.882 76.269 331.067 77.2585C331.487 78.0091 331.87 78.1497 332.635 77.8193C333.852 77.2924 333.836 76.6333 334.07 75.4472C334.698 72.3702 330.66 73.8019 333.497 69.7201C333.62 69.5124 333.816 69.3557 334.047 69.2787C334.279 69.202 334.529 69.2099 334.756 69.3016C334.989 69.6201 335.214 69.9353 335.429 70.2437ZM317.134 82.8432C318.344 74.9033 308.186 74.4729 313.052 78.0379C311.546 79.1105 308.84 79.2003 302.414 80.4948C297.764 81.4318 298.596 81.9808 290.853 83.4498C289.815 83.6464 290.026 84.2462 290.094 84.8375C291.544 85.2967 291.678 85.2171 291.982 85.8135C293.512 88.8092 296.467 92.9469 295.769 94.7209C296.97 96.2035 299.742 96.2594 301.613 95.8867C306.105 94.9937 308.941 93.3688 312.251 86.1862C317.344 75.1456 313.31 84.0056 317.134 82.8432ZM291.52 74.4085C292.757 80.1101 301.572 77.7973 300.202 74.5474C299.978 74.0137 298.962 74.1493 298.5 74.6915C296.403 77.1517 292.718 74.4881 293.524 73.1496C294.113 72.1668 298.8 71.4636 297.327 66.4652C296.149 65.8518 295.811 66.5143 295.782 68.0715C295.726 71.0587 290.556 69.9726 291.52 74.4085Z" fill="#FDE6B9"/>
    <path d="M379.957 118.333C379.367 119.218 378.961 120.209 378.756 121.249C377.883 120.279 376.751 119.574 375.488 119.216C374.928 114.183 378.048 112.35 378.748 114.641C379.106 115.857 379.532 117.059 379.957 118.333Z" fill="#FDE6B9"/>
    <path d="M391.474 124.26C394.598 127.659 390.866 129.004 389.222 134.882C387.831 139.857 381.48 147.814 379.624 160.927C379.452 162.176 378.318 189.914 378.742 196.224C379.077 201.216 379.073 206.223 378.73 211.213C377.397 212.087 378.517 211.213 372.749 213.539C371.964 213.856 371.354 214.726 369.899 214.29C363.121 212.272 365.007 210.444 362.227 206.518C357.555 199.918 362.438 206.421 365.7 160.357C366.558 160.601 366.915 160.571 367.163 160.12C367.239 159.746 367.21 159.359 367.078 159.002C366.947 158.643 366.719 158.326 366.419 158.087C365.43 157.231 364.691 156.13 364.276 154.898C363.862 153.666 363.787 152.347 364.061 151.077C364.518 148.803 363.95 148.366 363.996 145.316C364.066 140.689 364.893 139.913 362.006 135.643C360.901 134.01 360.194 133.005 361.091 131.407C361.625 130.46 361.798 130.441 363.447 130.019C364.936 129.638 364.571 131.412 368.373 135.333C369.89 136.899 370.29 137.197 370.647 137.115C373.579 136.483 369.195 133.679 367.635 131.471C367.17 130.814 365.516 127.95 365.968 127.286C367.399 125.187 369.399 125.19 369.96 125.873C372.067 128.657 374.449 131.226 377.071 133.544C377.91 134.108 378.787 133.229 378.131 132.471C376.396 130.45 372.68 127.251 372.193 124.753C371.925 123.377 372.004 124.058 372.549 122.835C373.095 121.612 375.123 121.429 375.161 121.436C377.405 121.861 376.019 121.634 380.542 126.942C381.642 128.23 384.42 130.924 385.605 129.823C385.708 129.726 385.782 129.601 385.815 129.465C385.847 129.328 385.839 129.184 385.791 129.052C385.369 127.913 386.812 127.313 386.649 125.111C386.561 123.945 385.242 124.119 384.485 123.328C383.929 122.747 381.489 122.312 381.616 123.228C381.676 123.672 382.153 124.136 384.004 124.812C384.96 125.162 384.674 126.215 384.404 126.559C384.135 126.903 384.071 127.385 383.646 127.686C382.091 126.483 382.41 126.007 380.94 124.806C378.637 122.916 382.524 117.137 385.106 118.68C387.591 120.093 389.758 121.992 391.474 124.26Z" fill="#FDE6B9"/>
    <path d="M195.752 76.5645C198.927 78.225 198.139 76.844 196.095 81.5595C195.606 81.3731 194.968 79.8482 194.091 78.652C193.53 77.8861 193.311 78.0132 192.442 76.8254C193.638 76.6068 194.779 76.9948 195.752 76.5645Z" fill="#FDE6B9"/>
    <path d="M201.161 77.5964C204.25 71.3644 203.23 72.0269 203.23 67.1318C207.834 67.3318 205.602 79.5568 201.161 77.5964Z" fill="#FDE6B9"/>
    <path d="M201.707 70.1317C201.824 71.0895 201.739 72.0609 201.458 72.9849C201.176 73.9087 200.704 74.7649 200.07 75.4995C199.384 76.4298 198.893 75.5961 197.611 75.22C197.908 74.3728 199.629 71.0213 199.274 69.3929C198.929 67.603 198.298 65.8783 197.407 64.2827C197.667 64.1817 197.946 64.1402 198.224 64.161C198.502 64.1818 198.772 64.2645 199.013 64.403C201.524 65.8703 201.326 67.4495 201.707 70.1317Z" fill="#FDE6B9"/>
    <path d="M194.089 63.0108C196.209 65.571 197.833 68.3109 197.193 71.0693C196.225 75.2409 194.962 74.6276 193.184 74.6276C194.434 72.7704 194.981 70.5371 194.729 68.321C194.014 66.2029 192.599 64.3829 190.712 63.1531C190.787 62.7126 190.94 62.5076 191.409 62.4754C192.534 62.3771 193.612 62.2704 194.089 63.0108Z" fill="#FDE6B9"/>
    <path d="M214.803 140.226C219.951 157.17 224.259 161.975 221.917 167.857C221.416 169.504 221.072 171.193 220.888 172.903C220.517 175.764 221.66 176.502 219.407 179.985C218.126 181.629 216.341 182.818 214.318 183.374C213.94 182.825 213.329 176.366 212.411 169.377C209.211 144.996 211.181 149.166 193.537 147.251C192.317 139.089 193.335 134.931 191.543 106.159C190.567 90.4924 189.828 93.1272 185.109 87.3679C184.361 85.8219 183.471 84.3473 182.449 82.9625C181.327 81.8747 178.493 79.1959 178.16 77.2134C177.178 71.4525 179.936 71.8642 181.629 69.2803C182.901 67.3393 184.384 65.5406 186.049 63.9158C186.44 63.5766 186.939 63.3844 187.46 63.3733C187.98 63.3621 188.487 63.5327 188.892 63.8548C190.658 64.9019 193.832 67.6841 193.656 69.3734C193.395 71.8879 192.214 74.9294 189.814 74.6091C188.808 74.4753 187.207 73.4044 187.496 72.4454C187.839 71.2847 189.203 69.3328 187.997 69.1007C186.559 69.3514 186.387 70.8798 186.25 72.3641C184.761 70.9086 183.18 72.3539 184.829 73.828C187.189 75.9341 190.102 77.4032 191.018 78.4215C197.086 85.1652 196.828 89.1335 197.897 92.4308C200.435 92.7849 198.681 86.2039 197.944 84.2163C197.847 83.1394 198.02 82.0555 198.448 81.0604C198.876 80.0654 199.546 79.1899 200.399 78.5113C203.024 79.7703 204.423 79.3145 205.934 76.5814C208.336 72.2556 204.55 71.4626 209.527 60.2813C210.057 59.0953 210.788 57.1518 213.003 57.4703C213.626 57.5618 213.861 58.1583 213.69 58.975C211.822 64.1178 210.55 69.4529 209.898 74.8785C208.604 87.2696 203.578 86.087 205.78 97.9494C207.487 112.282 210.507 126.432 214.803 140.226Z" fill="#FDE6B9"/>
    <path d="M401.505 218.976C412.128 219.145 412.72 218.664 415 219.733C414.919 221.326 414.561 221.375 391.706 220.716C383.909 220.491 386.198 220.135 384.156 222.814C382.636 224.805 383.336 227.648 379.83 229.53C376.09 231.542 372.452 233.916 363.187 232.125C349.683 229.515 352.034 226.808 348.532 224.956C347.305 224.305 346.562 222.395 346.19 221.67C345.332 220.018 306.039 221.38 305.867 221.379C305.828 221.379 287.407 220.87 279.119 220.87C279.035 225.571 278.776 225.032 272.513 226.504C257.257 230.093 223.183 239.017 219.566 239.104C218.805 239.121 174.429 235.312 173.004 235.286C171.27 235.257 139.091 233.568 129.98 232.135C123.842 231.169 125.774 225.776 124.353 221.411C118.041 221.411 128.406 221.377 113.444 221.565C104.93 221.672 106.637 221.411 98.0994 221.318C92.4079 221.257 90.6217 221.892 89.1426 221.077C88.3585 217.858 89.829 220.06 119.378 219.403C127.687 219.218 122.888 226.306 114.824 153.152C113.556 141.654 116.411 143.106 143.416 144.829C146.054 144.999 146.152 145.224 146.457 145.168C151.74 144.152 188.258 147.202 191.335 147.32C190.848 142.008 190.902 129.722 189.504 106.228C189.202 101.144 189.492 98.7723 188.55 94.3669C188.092 92.2286 186.597 91.6779 182.876 87.0149C182.848 86.9777 177.557 80.1679 177.304 79.5799C175.302 74.7509 176.76 70.6573 179.636 68.7629C180.494 68.2038 179.684 68.5189 181.524 66.5077C183.56 64.2914 184.857 61.045 188.523 62.0633C190.379 60.5756 190.376 60.5044 192.469 60.3214C193.199 60.3501 193.914 60.5363 194.564 60.8667C195.214 61.1971 195.782 61.6641 196.23 62.2344C197.264 62.0619 198.325 62.1416 199.32 62.4664C200.316 62.7912 201.216 63.3515 201.942 64.0983C203.008 65.3233 203.425 64.9455 205.614 65.73C206.791 63.4374 205.957 63.2256 208.531 58.4915C210.139 55.5466 213.586 55.4145 214.744 56.648C216.782 58.8185 214.49 60.3418 212.471 70.6471C211.211 77.0858 212.985 76.547 208.84 86.5269C208.233 87.9724 207.78 89.476 207.488 91.0137C206.892 94.2212 207.16 95.1701 209.114 107.568C210.284 114.437 211.83 121.237 213.747 127.94C214.949 133.378 216.438 138.751 218.208 144.036C223.356 141.117 223.184 144.848 226.216 141.788C227.059 140.895 228.116 140.227 229.29 139.845C230.464 139.464 231.717 139.382 232.932 139.607C240.097 141.898 230.518 144.633 250.202 132.367C266.2 122.397 272.664 112.336 289.469 110.906C295.665 110.377 301.787 111.516 304.349 110.504C302.964 105.462 298.935 111.182 293.376 105.514C291.876 103.989 292.983 103.779 288.597 106.192C286.722 107.374 284.577 108.074 282.357 108.227C280.137 108.381 277.914 107.984 275.89 107.071C268.484 103.257 274.014 104.281 277.647 100.616C274.925 101.128 272.113 100.9 269.512 99.9567C266.981 99.1265 261.664 95.4903 261.902 93.1571C262.992 91.7355 263.618 92.9419 269.229 91.5491C270.924 91.1289 265.864 91.3204 262.51 87.5402C255.85 80.034 269.069 87.464 275.387 76.4707C276.348 74.6235 276.816 72.565 276.748 70.4895C276.897 62.5055 272.014 52.9932 276.681 47.2577C276.216 44.0654 276.597 40.8088 277.784 37.8046C278.971 34.8003 280.926 32.1508 283.458 30.1138C285.203 28.4463 287.365 27.2669 289.725 26.6962C291.428 26.5268 290.831 25.0679 294.757 23.0024C307.315 16.3943 315.956 22.7144 322.569 22.9922C346.123 23.9801 354.635 41.9152 353.163 64.9709C352.722 71.8908 353.612 80.0103 359.311 84.0972C361.838 86.3473 363.386 85.6781 363.216 87.2335C361.037 90.3326 355.791 88.2806 360.139 90.4003C362.976 91.7813 363.571 91.561 367.085 91.7982C367.317 91.8289 367.535 91.9248 367.713 92.0744C367.892 92.224 368.022 92.4211 368.091 92.6422C368.159 92.8633 368.161 93.099 368.097 93.3213C368.032 93.5436 367.905 93.743 367.73 93.8959C364.189 97.7438 362.452 99.5196 355.251 100.541C354.444 102.834 349.259 103.591 347.047 103.618C345.601 103.632 347.279 104.87 339.697 105.313C339.968 106.279 342.008 107.268 342.614 110.025C342.689 110.558 342.871 111.071 343.149 111.534C343.427 111.997 343.796 112.401 344.234 112.722C345.129 113.505 344.493 113.995 345.263 114.039C347.243 114.154 349.201 114.502 351.097 115.076C362.948 118.634 365.368 117.956 371.291 120.328C375.673 122.089 371.654 114.205 376.8 112.207C377.161 111.999 377.579 111.91 377.994 111.952C378.411 111.994 378.803 112.165 379.113 112.441C380.143 113.37 380.572 115.491 381.313 116.965C384.793 116.262 384.873 115.62 389.456 119.561C393.291 122.86 395.805 124.61 393.905 128.922C389.571 138.804 392.679 132.257 389.932 138.462C388.315 142.113 386.587 144.531 385.47 148.289C386.599 152.356 387.052 154.059 386.392 164.574C386.431 168.312 385.01 183.141 385.074 188.611C385.191 192.588 385.91 196.525 387.205 200.292C391.313 209.272 387.118 216.531 386.548 218.651C418.464 219.11 402.277 218.976 401.505 218.976ZM389.221 134.882C390.865 129.01 394.597 127.658 391.472 124.259C389.755 121.99 387.586 120.092 385.1 118.68C382.517 117.136 378.631 122.916 380.934 124.805C382.404 126.01 382.085 126.486 383.64 127.685C384.065 127.384 384.13 126.899 384.398 126.559C384.666 126.218 384.954 125.161 383.998 124.812C382.147 124.134 381.67 123.671 381.61 123.228C381.483 122.306 383.923 122.746 384.479 123.327C385.235 124.119 386.555 123.944 386.642 125.11C386.814 127.313 385.367 127.913 385.784 129.051C385.832 129.183 385.841 129.327 385.808 129.464C385.776 129.601 385.702 129.725 385.599 129.822C384.412 130.929 381.634 128.233 380.536 126.942C376.011 121.633 377.399 121.858 375.155 121.435C375.114 121.435 373.087 121.614 372.543 122.834C371.999 124.054 371.919 123.377 372.186 124.752C372.674 127.25 376.39 130.449 378.125 132.47C378.775 133.228 377.904 134.107 377.064 133.543C374.443 131.226 372.061 128.656 369.954 125.872C369.398 125.195 367.392 125.186 365.961 127.286C365.51 127.95 367.162 130.813 367.629 131.471C369.189 133.673 373.573 136.483 370.64 137.115C370.283 137.193 369.884 136.898 368.367 135.332C364.565 131.411 364.935 129.637 363.441 130.019C361.792 130.441 361.618 130.459 361.085 131.406C360.187 132.996 360.894 134 361.999 135.642C364.887 139.912 364.058 140.688 363.99 145.316C363.943 148.366 364.504 148.798 364.055 151.077C363.782 152.346 363.856 153.665 364.271 154.897C364.685 156.128 365.424 157.229 366.412 158.085C366.713 158.325 366.941 158.64 367.071 159C367.203 159.357 367.233 159.743 367.157 160.118C366.908 160.569 366.55 160.599 365.694 160.355C362.433 206.419 357.548 199.916 362.221 206.515C365 210.441 363.115 212.276 369.892 214.288C371.347 214.721 371.951 213.854 372.742 213.537C378.511 211.216 377.39 212.085 378.724 211.211C379.067 206.221 379.07 201.214 378.736 196.222C378.303 189.783 379.451 162.099 379.618 160.924C381.479 147.813 387.83 139.856 389.221 134.882ZM383.226 183.479C383.912 175.406 385.191 154.486 384.036 150.975C381.071 159.616 381.39 162.732 381.119 169.456C380.584 179.546 380.611 189.658 381.203 199.746C381.333 202.913 380.971 204.55 381.997 205.538C383.885 207.361 382.459 210.553 380.738 212.485C378.89 214.55 375.983 214.461 373.605 215.892C369.685 218.251 363.468 215.131 362.204 211.656C359.868 205.248 355.181 203.669 356.869 198.896C358.147 198.557 357.77 198.404 358.46 199.718C360.235 197.161 364.494 159.708 363.607 158.417C362.2 156.385 361.618 153.905 361.977 151.47C362.308 150.194 362.331 148.859 362.046 147.573C361.85 140.917 362.874 140.493 362.013 139.36C361.095 138.152 360.1 136.1 359.362 135.034C358.995 134.473 358.765 133.835 358.691 133.171C358.617 132.507 358.701 131.835 358.938 131.208C359.173 130.582 359.554 130.018 360.048 129.563C360.543 129.107 361.14 128.772 361.788 128.584C362.303 128.45 362.818 128.309 363.35 128.16C363.465 128.128 363.569 128.066 363.652 127.982C363.736 127.897 363.796 127.793 363.825 127.679C364.115 126.377 364.899 125.235 366.016 124.489C367.135 123.742 368.499 123.448 369.83 123.666C370.117 123.678 370.11 123.48 370.585 122.48C365.745 119.535 357.686 119.681 351.008 117.101C350.924 117.068 346.504 116.175 345.574 116.13C344.451 120.727 344.184 124.044 339.879 128.441C337.849 130.515 337.933 131.73 335.019 135.026C330.572 140.055 332.403 139.77 327.398 142.201C323.29 144.194 324.309 136.364 322.357 133.165C314.599 135.102 317.02 134.617 312.6 133.702C311.204 133.332 309.851 132.807 308.573 132.138C307.741 132.867 307.847 136.644 307.041 139.721C306.667 141.147 304.92 141.037 303.971 139.904C297.925 132.674 293.633 123.834 298.309 115.755C300.943 111.213 304.515 112.97 295.679 112.636C294.339 112.585 291.118 112.7 289.925 112.743C279.754 113.109 273.872 118.034 266.075 123.632C262.472 126.215 249.921 135.022 243.656 139.58C241.801 140.763 240.011 142.043 238.294 143.415C237.529 144.145 239.931 144.177 242.069 156.663C242.723 160.486 243.659 159.223 243.833 161.446C244.082 163.215 244.196 165.001 244.176 166.787C244.173 166.924 244.144 167.06 244.089 167.185C244.033 167.311 243.953 167.424 243.853 167.521C243.754 167.616 243.636 167.69 243.507 167.741C243.378 167.79 243.24 167.816 243.101 167.814C242.962 167.81 242.825 167.782 242.698 167.727C242.57 167.671 242.455 167.594 242.359 167.495C242.262 167.395 242.187 167.28 242.136 167.153C242.085 167.024 242.06 166.889 242.062 166.751C241.642 162.131 241.801 161.748 241.177 160.913C239.435 158.579 239.886 152.622 236.865 145.885C236.309 144.699 235.468 143.664 234.414 142.872C232.355 141.271 231.118 140.546 226.987 144.058C223.334 147.159 222.771 143.72 219.113 146.336C220.055 148.684 220.962 151.597 222.117 153.823C224.593 154.35 225.224 160.262 224.862 161.978C224.715 162.678 224.981 163.571 224.837 164.181C221.606 177.696 223.979 175.791 222.117 179.431C219.62 184.321 218.371 184.531 214.523 185.925C217.253 188.604 220.659 190.251 224.07 188.701C225.661 188.057 227.128 187.147 228.407 186.012C229.622 184.809 230.585 183.38 231.244 181.811C233.659 174.768 231.338 171.475 233.443 172.153C234.644 172.543 234.806 174.556 234.806 175.4C234.806 186.273 226.753 187.696 235.224 185.273C236.425 184.934 237.004 183.828 237.388 183.468C239.217 181.762 240.449 181.001 241.103 178.766C241.499 177.411 241.425 176.416 242.095 175.561C242.224 175.369 242.42 175.232 242.646 175.174C242.871 175.117 243.11 175.142 243.317 175.247C243.525 175.35 243.686 175.527 243.771 175.74C243.857 175.955 243.859 176.193 243.78 176.408C242.899 179.309 243.213 178.611 247.139 176.167C248.697 175.198 247.692 176.081 253.1 171.592C261.475 164.645 256.106 169.413 263.954 163.629C269.859 159.271 267.043 160.423 273.87 156.563C284.834 150.367 279.917 158.464 282.861 141.942C283.707 137.198 283.81 137.789 284.965 137.61C285.581 138.935 285.408 139.184 283.671 152.149C280.469 176.06 278.664 173.049 283.359 197.513C284.303 202.427 284.045 199.507 286.533 206.648C287.276 208.776 287.6 211.024 287.485 213.271C287.345 216.048 286.676 218.852 287.441 218.881C319.776 220.077 309.975 217.936 344.221 219.232C345.405 219.278 345.115 219.515 344.58 217.234C343.132 211.062 343.228 208.235 346.368 202.717C347.449 200.816 349.172 200.048 348.873 197.684C349.057 196.695 349.33 195.722 349.686 194.78C349.661 193.979 349.74 193.179 349.92 192.398C351.488 178.092 346.488 153.798 351.464 154.06C351.864 155.34 351.409 156.592 351.251 160.109C351.123 162.944 352.222 177.189 352.212 186.642C352.212 193.499 352.325 191.261 353.393 190.466C354.563 189.594 355.038 191.483 354.185 192.625C352.924 193.901 351.91 195.393 351.196 197.03C350.718 198.65 351.025 200.377 349.882 201.736C348.352 203.567 346.169 207.263 346.202 208.417C346.363 213.995 345.405 214.855 348.755 221.668C349.692 223.575 350.412 222.536 352.813 225.611C354.724 228.06 370.129 234.18 379.611 226.743C381.155 225.538 380.098 225.452 382.84 220.474C392.797 202.342 381.517 203.772 383.226 183.479ZM378.755 121.255C378.959 120.215 379.365 119.224 379.956 118.339C379.53 117.065 379.098 115.864 378.736 114.645C378.041 112.36 374.921 114.193 375.476 119.22C376.742 119.577 377.879 120.283 378.755 121.255ZM365.335 93.6536C361.829 93.5695 358.468 92.2518 355.86 89.9378C353.942 88.1298 352.284 86.07 350.936 83.8159C350.556 83.0229 350.64 82.9026 351.45 82.3977C352.943 83.0755 354.882 88.7652 360.157 86.9302C341.982 73.9613 360.266 58.4763 344.246 34.5616C341.404 31.0852 337.725 28.3675 333.546 26.6572C325.45 23.5802 323.515 25.8998 316.792 23.6802C300.819 18.4055 291.169 26.0015 290.505 30.6374C290.27 32.2809 289.809 32.0471 289.026 32.0471C288.112 30.5543 289.419 28.7007 288.791 28.9057C284.167 30.4154 278.477 37.2946 278.367 44.0756C278.24 52.0088 283.083 54.5131 284.418 54.1217C284.076 52.4542 284.279 50.7225 284.996 49.1757C281.818 40.9528 284.049 38.6281 285.054 39.6532C285.054 46.1987 286.655 52.1019 293.319 52.1917C294.558 52.2104 293.618 52.2104 292.408 48.8961C291.362 46.0309 290.864 39.9345 291.809 37.3522C292.578 37.2489 292.875 37.6115 293.076 39.25C293.784 45.0821 298.877 50.9226 304.057 48.5234C302.611 45.9359 301.675 43.1015 301.296 40.17C300.902 37.1391 301.142 34.0602 302.005 31.1253C304.268 30.1748 303.378 32.4809 303.196 33.5992C302.149 40.1802 304.416 50.5177 310.634 48.8928C309.925 46.1102 309.676 43.2326 309.899 40.3717C309.899 39.3313 310.572 35.2427 311.262 34.6107C312.017 34.7293 312.806 34.2718 312.387 36.4339C311.67 40.209 310.941 42.9997 313.292 45.6937C314.726 47.3482 316.681 48.4814 318.842 48.9131C318.007 42.5574 320.73 41.2188 322.245 34.1007C322.569 32.5757 322.72 32.8316 323.618 33.062C324.316 34.0007 323.12 37.8928 322.888 38.4943C321.989 40.8258 325.016 52.5577 325.119 53.8811C325.989 65.2996 325.522 65.9197 322.82 77.0028C323.724 77.6399 329.367 67.7293 331.227 57.646C331.337 57.0247 331.644 56.454 332.106 56.0177C333.566 56.4447 333.563 55.3857 331.495 63.7035C331.339 64.3321 331.595 64.0728 332.156 63.7475C333.441 63.169 334.904 63.1082 336.236 63.5781C337.518 63.917 336.713 64.4795 337.238 62.697C337.65 60.9614 337.832 59.1804 337.779 57.3986C338.156 48.0422 334.234 45.0295 335.719 43.1183C337.008 43.1437 337.779 46.302 338.547 48.2252C340.411 52.8983 339.548 59.9165 338.65 64.8302C340.085 66.7195 340.955 67.7886 339.851 72.9532C339.153 75.7121 337.976 78.3308 336.372 80.6931C335.627 81.5098 336.33 83.3076 336.78 84.5225C338.667 89.6429 340.658 90.2106 340.186 91.3187C339.822 91.4307 339.431 91.4195 339.074 91.2874C338.717 91.155 338.413 90.9092 338.214 90.5884C334.522 85.8136 335.268 85.2511 334.24 82.6875C330.231 84.3158 330.27 81.7657 330.294 87.9587C330.313 92.7249 331.064 97.4605 332.525 102.004C335.972 103.511 339.822 103.865 343.492 103.012C341.462 102.251 337.487 100.601 336.516 98.708C337.224 96.5442 338.918 99.667 343.645 101.117C346.581 101.973 349.726 101.803 352.55 100.636C350.095 100.465 347.715 99.7241 345.603 98.4741C343.293 97.3762 343.357 94.4804 345.453 96.1172C350.656 100.199 359.87 99.7365 365.335 93.6536ZM339.65 125.383C341.203 123.699 344.007 117.687 342.955 114.728C342.525 113.512 341.068 113.519 340.766 111.589C340.145 109.38 338.832 107.423 337.015 105.997C338.122 113.114 332.118 117.001 328.455 121.542C327.878 122.65 327.168 123.685 326.341 124.625C324.754 126.088 322.832 127.151 320.74 127.724C319.12 127.938 318.561 130.901 318.913 131.547C320.962 132.315 320.167 129.488 321.612 129.468C325.011 129.419 325.97 139.075 326.67 140.036C327.655 139.763 328.566 139.274 329.333 138.606C331.581 136.191 332.324 134.468 333.822 133.04C336.311 130.659 334.681 130.768 339.65 125.383ZM329.894 80.91C334.527 84.2022 341.299 69.3187 337.121 66.1027C336.435 65.537 335.574 65.2198 334.68 65.2037C333.786 65.1878 332.912 65.4738 332.205 66.0146C328.175 68.6392 328.247 76.2505 322.053 80.5017C321.857 80.6318 321.619 80.684 321.384 80.6479C321.15 80.6116 320.939 80.49 320.793 80.3068C319.642 79.1665 322.997 75.1152 323.733 60.4977C324.055 54.059 321.759 46.7222 321.245 43.6808C318.477 48.3607 324.201 51.9122 318.935 50.9972C316.442 50.5075 314.141 49.333 312.295 47.6084C312.444 49.3875 313.364 50.6854 311.559 50.8498C309.754 51.1936 307.883 50.9381 306.24 50.1229C304.357 50.874 302.302 51.0946 300.301 50.76C298.848 50.4994 297.48 49.8916 296.319 48.9897C295.157 48.0878 294.236 46.919 293.637 45.5853C293.601 45.4786 292.684 44.4738 294.508 49.1435C295.097 50.6498 298.755 54.4775 292.914 54.0573C288.68 53.754 288.24 53.0271 286.163 51.1904C285.862 54.186 288.127 56.6683 283.697 55.9821C283.189 57.21 282.95 58.5301 282.997 59.8555C284.133 58.8524 286.332 56.3752 289.014 58.2204C290.09 58.9609 289.701 60.7484 288.762 60.6298C288.17 60.5942 284.129 60.7196 283.318 63.1053C283.053 63.8831 282.758 63.6967 282.69 64.6438C282.594 66.8355 282.715 69.0313 283.053 71.1995C283.452 78.0177 281.188 78.6395 283.585 85.5408C284.328 87.6042 285.243 89.6036 286.319 91.5186C288.925 96.2782 292.54 102.558 295.684 105.152C298.601 107.556 303.086 106.407 306.48 104.765C315.539 100.38 318.027 95.9393 320.931 93.7756C321.119 93.6224 321.358 93.5429 321.602 93.5526C321.845 93.5622 322.077 93.6602 322.254 93.8278C322.429 93.9953 322.535 94.2209 322.554 94.4613C322.571 94.7016 322.499 94.9401 322.35 95.1311C312.194 108.432 309.731 109.195 307.25 112C306.735 112.58 308.316 118.695 308.412 119.008C308.575 120.807 308.892 122.589 309.361 124.334C310.867 126.244 311.895 126.547 312.321 128.728C312.858 131.476 311.161 131.427 315.382 132.257C316.926 132.56 316.367 132.171 316.813 129.885C317.013 128.858 317.499 126.784 318.465 126.344C319.632 125.813 323.525 124.741 325.627 121.979C326.255 121.155 326.514 120.079 327.393 119.425C328.352 118.07 332.276 114.451 332.797 113.373C334.498 109.849 334.8 115.023 331.162 104.284C327.231 92.6759 328.779 83.6871 328.254 82.03C328.175 81.8184 328.17 81.5868 328.238 81.3718C328.307 81.1566 328.446 80.9702 328.635 80.8419C328.822 80.7137 329.048 80.6506 329.277 80.663C329.505 80.6754 329.721 80.7623 329.894 80.91ZM309.445 130.176C310.244 131.679 311.113 129.263 309.936 127.901C308.971 126.786 303.254 121.143 306.09 117.016C305.682 115.499 305.287 114.017 304.836 112.336C298.376 116.589 297.142 121.028 299.186 128.289C299.572 129.659 303.415 136.915 305.246 138.069C306.518 134.192 305.49 134.341 307.154 129.949C307.499 129.036 308.697 128.768 309.445 130.176ZM287.825 104.481C288.814 103.947 290.154 103.015 291.097 102.402C278.627 84.1141 280.61 82.2672 281.451 73.104C281.926 67.9428 279.817 69.8728 281.643 55.3264C279.575 54.0156 278.053 52.015 277.353 49.6891C272.707 57.7155 289.707 80.8253 263.076 85.3985C269.744 93.1622 275.945 87.2233 276.695 89.9496C276.216 90.4342 276.732 90.4579 272.472 92.2557C268.747 93.8247 269.718 93.2723 264.579 94.2212C265.077 95.4157 268.709 97.3304 268.745 97.3558C270.893 98.5085 273.306 99.0999 275.751 99.0739C280.61 98.142 279.346 98.3386 280.349 98.3386C280.378 98.3843 280.972 99.0756 280.747 99.5535C279.09 103.09 275.071 104.238 275.584 104.604C278.373 106.602 282.484 107.376 287.825 104.481ZM284.84 218.802C285.183 212.442 285.764 212.3 284.443 207.81C282.142 199.987 282.123 203.859 279.769 191.442C275.341 168.076 282.872 154.865 279.912 156.019C268.637 160.413 249.999 178.485 242.496 181.523C234.26 191.469 230.058 187.972 227.893 189.417C225.521 190.964 222.671 191.632 219.849 191.3C218.099 191.146 216.432 190.498 215.044 189.436C215.044 190.341 217.917 213.429 218.677 215.491C220.317 215.904 272.463 215.66 275.655 216.158C279.007 216.678 278.79 217.539 279.145 218.712C281.025 219.054 282.949 219.086 284.84 218.808V218.802ZM277.329 221.458C277.48 218.976 277.489 219.73 277.202 218.842C268.834 221.384 222.73 231.63 222.692 231.638C220.976 232.086 221.029 230.644 221.963 236.771C222.424 236.745 252.858 229.105 252.894 229.095C279.757 221.823 277.172 224.074 277.329 221.465V221.458ZM226.324 228.832C279.843 215.145 284.989 217.949 254.464 217.819C234.747 217.729 253.038 217.436 229.972 217.582C213.672 217.683 220.214 215.221 220.696 228.971C220.767 230.883 220.789 230.254 226.324 228.839V228.832ZM221.918 167.851C224.26 161.97 219.958 157.163 214.804 140.221C210.504 126.428 207.48 112.279 205.768 97.9472C203.526 86.0864 208.596 87.2725 209.886 74.8763C211.215 62.1683 214.691 58.8321 212.803 58.0781C211.364 57.5003 210.472 58.8998 209.941 60.0893C207.285 66.0553 207.187 66.9431 207.223 69.2035C207.254 71.1808 207.368 74.7323 206.254 76.7503C204.742 79.4834 202.994 79.768 200.376 78.5091C199.523 79.1877 198.853 80.0632 198.425 81.0581C197.997 82.0532 197.823 83.1371 197.92 84.2141C198.658 86.2016 200.412 92.7827 197.874 92.4285C196.805 89.1312 197.062 85.163 190.995 78.4193C190.079 77.4026 187.165 75.9319 184.806 73.8258C183.157 72.3517 184.737 70.9063 186.227 72.3618C186.364 70.8775 186.536 69.3492 187.973 69.0984C189.175 69.3305 188.499 70.7708 188.145 71.9314C188.076 72.1581 188.057 72.3969 188.089 72.6316C188.121 72.8662 188.204 73.0914 188.332 73.2915C188.46 73.4918 188.63 73.6624 188.831 73.7921C189.032 73.9217 189.258 74.0071 189.495 74.0427C191.898 74.3815 191.985 72.9904 192.756 70.0083C193.258 68.0852 190.782 65.3165 189.017 64.2711C188.546 63.9525 187.985 63.7897 187.415 63.8065C186.845 63.8233 186.295 64.0186 185.844 64.3643C184.358 65.8365 183.047 67.4715 181.937 69.2374C180.292 71.8061 177.522 71.0639 178.574 77.2417C179.089 80.2662 185.139 86.4744 185.988 87.5114C190.712 93.2723 190.559 90.4986 191.536 106.165C193.327 134.937 192.309 139.096 193.529 147.257C211.18 149.172 209.21 145.002 212.404 169.383C213.322 176.372 213.932 182.831 214.31 183.38C216.333 182.824 218.118 181.635 219.399 179.991C221.652 176.508 220.509 175.771 220.88 172.909C221.066 171.194 221.414 169.501 221.918 167.851ZM219.78 237.057C219.929 235.917 215.913 215.862 210.846 173.582C207.757 147.881 209.77 150.221 193.728 149.667C190.54 149.557 175.462 147.803 173.224 147.803C167.497 147.817 152.634 147.042 151.755 146.859C151.443 146.795 149.511 147.179 148.36 147.157C146.301 147.118 151.575 147.278 135.87 146.271C127.078 145.707 132.016 146.271 126.2 145.863C114.309 145.038 115.929 145.726 117.708 158.766C127.488 230.351 126.538 229.93 130.858 230.347C135.671 230.81 219.737 237.06 219.78 237.057ZM201.592 76.9756C205.357 78.975 206.494 69.8592 204.792 67.8615C204.598 67.6399 204.359 67.4604 204.091 67.3344C203.823 67.2085 203.531 67.1387 203.234 67.1295C203.229 72.0263 204.682 70.7437 201.587 76.9773L201.592 76.9756ZM200.075 75.4964C200.709 74.7618 201.181 73.9056 201.463 72.9818C201.744 72.058 201.829 71.0864 201.712 70.1286C201.331 67.4464 201.529 65.8672 199.018 64.3999C198.777 64.2614 198.507 64.1787 198.229 64.1579C197.951 64.1371 197.672 64.1786 197.412 64.2796C198.304 65.8752 198.934 67.5999 199.279 69.3899C199.634 71.0182 197.906 74.3748 197.616 75.2169C198.893 75.5981 199.377 76.4284 200.07 75.5066L200.075 75.4964ZM197.189 71.0673C197.829 68.3088 196.206 65.569 194.085 63.0088C193.608 62.27 192.531 62.3768 191.4 62.4699C190.932 62.5089 190.781 62.7139 190.703 63.1477C192.591 64.3775 194.005 66.1974 194.72 68.3156C194.973 70.5317 194.426 72.7649 193.176 74.6221C194.954 74.6306 196.23 75.2406 197.189 71.0673ZM196.1 81.5556C198.138 76.8401 198.926 78.221 195.757 76.5605C194.784 76.9909 193.643 76.6029 192.452 76.8215C193.32 78.0075 193.54 77.8822 194.101 78.648C194.972 79.8443 195.611 81.3709 196.1 81.5556Z" fill="#1B1B1D"/>
    <path d="M350.41 93.0987C347.049 91.1887 344.59 88.0423 343.571 84.3471C343.552 84.288 343.545 84.2258 343.55 84.164C343.557 84.1021 343.575 84.0421 343.604 83.9871C343.633 83.9322 343.672 83.8834 343.72 83.8437C343.768 83.8041 343.825 83.7742 343.885 83.7558C345.675 83.2136 343.713 85.0706 351.606 92.4667C351.171 93.1275 351.037 93.3664 350.41 93.0987Z" fill="#1B1B1D"/>
    <path d="M345.535 51.5313C347.335 54.0848 346.976 64.6154 346.908 67.9042C346.712 77.4081 349.214 77.5199 346.666 78.1977C343.476 69.0107 346.472 61.452 344.487 52.365C344.277 51.4144 345.202 51.0586 345.535 51.5313Z" fill="#1B1B1D"/>
    <path d="M333.053 68.0071C335.495 66.2348 338.407 70.7181 335.426 70.2403C335.208 69.9319 334.987 69.6168 334.754 69.2915C334.527 69.2 334.277 69.1918 334.045 69.2686C333.814 69.3455 333.618 69.5023 333.494 69.71C330.658 73.7918 334.695 72.36 334.067 75.437C333.827 76.6231 333.85 77.2856 332.633 77.8092C331.868 78.1481 331.485 77.999 331.065 77.2483C330.879 76.2554 331.751 75.9301 332.226 75.3845C331.993 74.3543 330.279 73.9527 330.461 71.8974C330.612 71.1123 330.919 70.3642 331.363 69.6966C331.808 69.0288 332.382 68.4548 333.053 68.0071Z" fill="#1B1B1D"/>
    <path d="M317.696 137.909C320.391 138.034 323.267 136.136 322.529 139.056C318.411 140.365 307.269 140.411 309.146 136.778C309.484 136.772 309.822 136.821 310.144 136.922C312.677 138.198 315.542 137.809 317.696 137.909Z" fill="#1B1B1D"/>
    <path d="M313.051 78.0341C308.185 74.4758 318.343 74.8994 317.133 82.8394C313.308 84.0017 317.342 75.1417 312.257 86.1824C308.947 93.3649 306.11 94.9933 301.618 95.8828C299.748 96.2556 296.986 96.1997 295.774 94.7171C296.473 92.943 293.518 88.8053 291.987 85.8096C291.682 85.2132 291.548 85.3013 290.1 84.8337C290.031 84.2423 289.82 83.6476 290.858 83.446C298.602 81.9769 297.77 81.4279 302.42 80.4909C308.839 79.1964 311.545 79.1083 313.051 78.0341ZM312.754 80.7807C313.204 79.9775 312.162 80.657 311.073 80.8671C303.882 82.2599 302.744 82.2226 299.631 83.2206C292.768 85.4233 292.88 83.9594 294.678 86.6382C299.221 85.9045 303.707 84.8508 308.097 83.4849C312.459 82.1277 311.833 82.4208 312.754 80.7807ZM309.132 87.8327C306.026 86.8449 300.242 90.0693 299.671 94.0834C301.68 93.997 303.631 93.3949 305.333 92.3364C307.001 91.2161 308.317 89.6556 309.132 87.8327Z" fill="#1B1B1D"/>
    <path d="M317.849 56.7232C317.211 58.2837 313.254 55.466 307.961 56.9452C305.595 57.606 304.186 58.8988 302.673 59.2106C301.159 59.5223 300.042 56.8757 301.707 56.1234C303.503 55.4931 305.344 55.0019 307.218 54.6544C309.395 54.0444 316.938 54.7679 317.849 56.7232Z" fill="#1B1B1D"/>
    <path d="M310.14 62.2206C312.126 62.5849 315.188 62.5273 315.078 63.832C315.066 63.9716 315.006 64.1027 314.906 64.2027C314.807 64.3027 314.674 64.3652 314.534 64.3793C312.657 64.5809 312.279 63.8913 310.176 64.3623C307.391 64.2352 306.308 65.9517 304.285 65.8127C304.158 65.7968 304.038 65.7448 303.94 65.6633C303.841 65.5816 303.769 65.474 303.731 65.3529C303.693 65.2317 303.691 65.1024 303.726 64.9803C303.76 64.8581 303.829 64.7483 303.925 64.6639C305.816 63.1491 307.624 61.7614 310.14 62.2206Z" fill="#1B1B1D"/>
    <path d="M300.208 74.5434C301.581 77.7899 292.763 80.1061 291.526 74.4045C290.562 69.9685 295.732 71.0546 295.785 68.0674C295.814 66.5103 296.152 65.8478 297.329 66.4611C298.803 71.4596 294.115 72.1628 293.527 73.1455C292.724 74.4841 296.409 77.1477 298.503 74.6874C298.959 74.1469 299.975 74.0097 300.208 74.5434Z" fill="#1B1B1D"/>
    <path d="M292.011 67.0553C292.088 67.1271 292.143 67.2173 292.174 67.3171C292.205 67.4169 292.208 67.5228 292.184 67.6243C292.162 67.7259 292.112 67.8196 292.04 67.8964C291.968 67.9731 291.879 68.0301 291.777 68.0618C288.689 69.0293 290.499 66.9926 285.954 70.3882C285.379 70.8185 285.141 70.6898 284.94 69.9696C284.386 67.9737 289.83 65.0186 292.011 67.0553Z" fill="#1B1B1D"/>
    <path d="M159.405 176.076C173.843 174.119 176.284 199.22 162.494 199.011C152.695 198.864 148.383 184.16 155.361 178.379C156.469 177.259 157.869 176.462 159.405 176.076ZM169.774 188.171C169.755 186.381 169.298 184.623 168.442 183.045C167.586 181.468 166.358 180.119 164.86 179.111C156.955 174.239 150.082 185.187 155.861 193.174C161.308 200.719 170.057 196.217 169.774 188.171Z" fill="#1B1B1D"/>
  </g>
  <rect x="1" y="1" width="501" height="248" rx="7" stroke="#1B1B1D" stroke-width="2"/>
  <defs>
    <clipPath id="clip0_3923_14036">
      <rect width="503" height="250" rx="8" fill="white"/>
    </clipPath>
  </defs>
</svg>
