<svg width="502" height="272" viewBox="0 0 502 272" fill="none" xmlns="http://www.w3.org/2000/svg">
  <g clip-path="url(#clip0_3923_14030)">
    <rect width="502" height="272" rx="8" fill="white"/>
    <rect width="280" height="0.00122257" transform="translate(154.1 202.093) rotate(-46.2)" fill="white"/>
    <path d="M270.727 130.642C282.17 130.642 282.806 124.321 285.772 114.665C282.382 96.0545 264.582 97.1079 260.344 107.818C256.106 118.528 258.225 130.115 270.727 130.642Z" fill="#FDE6B9"/>
    <path d="M246.93 122.253C259.116 103.188 235.506 92.5115 239.314 116.153C237.791 127.591 237.029 132.168 246.93 122.253Z" fill="#FDE6B9"/>
    <path d="M189.498 243.867L195.364 261.436L203.036 257.479L195.075 240.872C195.075 240.872 189.877 243.576 189.498 243.867Z" fill="#AA3CC5"/>
    <path d="M227.476 194.027C237.323 191.232 246.851 187.406 255.904 182.611L300.704 189.689C300.704 189.689 308.899 194.463 309.892 194.608C312.697 194.379 315.504 195.011 317.942 196.423C321.245 198.728 327.852 198.728 329.566 199.018C332.043 199.824 334.407 200.939 336.606 202.34C338.321 203.356 345.938 205.807 347.237 206.678C348.537 207.549 351.533 208.493 352.255 212.123C353.264 216.584 353.869 221.129 354.06 225.699C353.916 229.02 353.067 237.968 351.768 241.435C350.468 244.902 344.873 262.943 344.548 265.03C344.223 267.117 343.555 281.202 342.743 284.106C341.931 287.01 338.014 302.256 337.328 305.033C336.642 307.81 331.444 321.64 330.577 324.09C329.711 326.54 328.411 331.023 328.772 332.893C329.294 334.918 329.44 337.022 329.205 339.1C328.917 341.423 330.794 352.822 330.216 353.62C329.639 354.419 309.531 355.344 302.509 353.185C295.488 351.025 267.474 354.056 256.121 353.475C244.767 352.894 214.768 352.604 210.472 351.66C206.177 350.716 200.852 350.516 203.433 347.631C206.014 344.745 206.303 340.697 206.447 336.741C206.825 333.165 207.545 329.633 208.595 326.195L199.57 264.032L212.819 236.807L227.476 194.027Z" fill="url(#paint0_linear_3923_14030)"/>
    <path d="M352.111 176.24C354.367 177.837 354.078 177.492 352.111 177.747C350.143 178.001 349.114 178.073 348.88 179.362C348.687 180.411 348.391 181.439 347.995 182.429C347.903 182.36 347.818 182.281 347.743 182.193C344.133 176.857 346.93 178.237 340.306 177.692C338.988 177.692 342.616 176.458 343.681 174.062C344.078 173.173 342.219 169.851 343.266 170.432C346.443 172.12 345.414 171.503 345.811 171.739C347.002 172.483 350.54 169.561 351.894 169.162C352.309 172.102 348.97 173.917 352.111 176.24Z" fill="#AA3CC5"/>
    <path d="M378.825 119.975C379.709 120.302 377.02 121.082 375.919 121.917C374.114 123.26 375.81 124.385 375.666 126.273C374.258 125.674 372.67 122.643 370.576 122.643C366.803 123.914 366.569 124.458 365.901 124.458C366.117 123.097 369.294 120.338 367.489 118.868C366.785 118.323 365.034 115.728 365.919 115.928C369.421 116.744 369.403 116.908 370.07 116.436C373.59 114.004 373.68 110.265 374.33 115.383C374.89 119.975 373.753 118.16 378.825 119.975Z" fill="#C875DD"/>
    <path d="M374.438 60.1891C374.348 60.3161 374.276 60.4795 374.15 60.5339C369.601 62.8934 369.294 62.603 369.565 64.1639C370.251 68.4655 370.088 67.7939 369.98 68.5381C365.161 64.1458 367.074 64.7084 366.37 64.5814C365.034 64.3817 362.544 65.8882 360.143 66.3964C359.313 66.3964 359.637 66.2149 361.713 62.7664C364.006 59.0093 352.851 54.5626 362.525 57.3214C364.33 57.8477 364.006 57.5936 367.291 53.1469C368.338 51.713 367.67 58.1926 370.106 58.4104C370.955 58.4104 372.128 59.4268 374.059 59.8624C374.202 59.9515 374.328 60.0617 374.438 60.1891Z" fill="#AA3CC5"/>
    <path d="M187.729 139.214C196.899 137.145 187.729 140.049 189.769 143.498C191.448 146.474 192.133 146.202 188.866 145.476C185.076 144.623 186.791 144.369 182.856 148.38C182.386 148.87 182.946 146.873 183.09 144.986C183.253 142.735 178.921 142.009 178.289 140.829C178.596 140.829 178.054 140.829 180.834 140.557C184.264 140.267 182.639 138.325 184.137 135.239C185.365 136.31 186.628 139.45 187.729 139.214Z" fill="#C875DD"/>
    <path d="M206.177 98.413C206.628 99.1753 204.372 98.413 201.177 97.2151C199.372 96.5435 199.787 95.1823 195.527 101.172C193.885 103.513 196.285 96.0172 193.56 95.0008C187.387 92.6776 187.387 93.1858 194.173 90.7174C195.654 90.1729 194.95 86.924 195.978 84.1289C202.422 90.191 196.989 89.6828 206.411 87.5048C205.021 91.2437 202.133 92.3146 203.794 94.2566C204.716 95.564 205.514 96.9555 206.177 98.413Z" fill="#AA3CC5"/>
    <path d="M255.399 204.935C256.247 208.965 257.077 209.437 256.139 209.291C247.962 208.003 239.984 199.872 238.341 193.047C238.035 191.758 237.818 191.886 239.19 191.414C243.215 189.98 245.291 188.437 244.785 189.345C243.774 191.16 244.496 193.501 244.37 194.336C243.901 197.476 246.067 200.126 249.189 201.795C249.605 202.013 249.46 201.977 252.222 202.158C254.027 201.723 254.261 201.541 254.478 202.158C254.882 203.048 255.191 203.979 255.399 204.935Z" fill="#FDE6B9"/>
    <path d="M319.729 66.759C324.674 68.8463 326.064 69.173 322.725 70.0079C320.631 69.4997 320.378 69.4634 319.115 66.8861C318.988 66.5594 319.386 66.6138 319.729 66.759Z" fill="#B5B6BA"/>
    <path d="M329.62 65.9608C329.927 65.9608 329.909 66.1786 329.783 66.3419C329.043 67.3402 328.194 68.8103 326.804 67.921C323.194 65.5796 316.155 64.5088 318.086 61.4777C318.88 60.2435 318.231 61.6592 322.346 63.4379C326.804 65.3618 328.411 66.106 329.62 65.9608Z" fill="#B5B6BA"/>
    <path d="M331.1 62.0403C332.201 62.1492 330.847 64.1276 329.097 64.0912C326.191 63.0749 317.436 59.8442 319.855 57.9203C320.144 57.7025 319.999 57.0854 320.415 57.1217C321.137 57.1217 320.18 57.884 324.963 59.8079C329.746 61.7318 330.162 61.8951 331.1 62.0403Z" fill="#B5B6BA"/>
    <path d="M322.057 53.2373C331.623 60.4973 335.414 56.7584 332.526 60.1343C331.984 60.7696 329.891 59.6987 329.097 59.4083C325.234 57.9745 318.79 55.9054 322.057 53.2373Z" fill="#B5B6BA"/>
    <path d="M347.363 40.3329C347.923 40.4963 347.508 41.8212 347.002 41.549C345.089 40.5689 346.695 40.1151 347.363 40.3329Z" fill="#FFF2B7"/>
    <path d="M328.285 35.3599C327.292 36.1767 326.841 34.5976 327.49 34.4161C327.707 34.3617 328.086 35.0514 328.285 35.3599Z" fill="#FFF2B7"/>
    <path d="M335.09 20.5132C357.454 20.3861 362.273 49.9706 339.025 52.6387C335.992 53.0017 335.415 52.1305 334.476 53.3465C332.779 55.7605 333.88 56.8495 332.491 56.4865C329.653 55.7576 326.947 54.5813 324.476 53.0017C322.184 51.6041 326.281 51.1867 325.09 48.5912C323.899 45.9958 323.845 47.9741 321.967 44.9612C313.285 31.0402 325.595 19.9868 335.09 20.5132ZM346.245 43.6363C347.382 46.4677 350.92 39.7703 348.194 38.881C345.469 37.9916 344.747 39.9155 344.313 39.8066C340.126 38.8628 342.725 39.4073 340.306 38.155C339.187 37.5742 338.303 38.9354 337.4 37.6468C335.974 35.5777 337.003 37.6468 330.307 34.9606C329.837 34.7791 329.585 34.1257 329.224 33.6901C328.863 33.2545 328.303 33.2545 327.635 33.073C325.686 32.5466 324.567 36.5578 327.635 37.0841C327.96 37.0841 328.195 37.0841 328.086 37.6468C327.4 40.6052 331.39 43.0918 330.595 44.5256C329.516 46.6005 328.754 48.8281 328.339 51.1322C328.249 51.6767 328.736 51.3863 328.935 51.5497C329.693 52.2031 330.054 48.7909 332.003 45.1064C333.321 42.6562 329.494 40.2059 329.585 38.1005C329.693 35.3962 330.74 36.9389 333.195 37.7194C334.566 38.155 335.613 37.7194 335.992 38.6269C336.238 39.1118 336.647 39.4921 337.147 39.6986C337.647 39.9052 338.205 39.9242 338.718 39.7522C340.378 39.3166 339.945 40.6052 341.895 41.0227C343.844 41.4401 343.826 41.3494 343.826 42.0754C343.826 42.3295 343.826 42.6017 343.519 42.6743C342.591 42.9927 341.705 43.4255 340.884 43.963C339.855 44.453 340.306 43.6181 338.591 44.7434C336.01 46.4314 336.444 45.3605 335.361 46.2136C333.556 47.6837 329.603 51.8764 330.866 52.8746C332.13 53.8729 332.274 51.2593 334.837 48.8998C337.4 46.5403 337.003 47.6837 337.869 47.0848C339.674 45.9595 339.927 45.7961 340.198 45.778C341.75 45.6509 342.942 44.3441 344.115 44.2352C345.703 44.09 345.288 42.6925 345.631 42.8014C345.974 42.9103 346.118 43.3277 346.245 43.6363Z" fill="#FFE25C"/>
    <path d="M191.538 37.3017C191.822 38.2447 191.814 39.2521 191.515 40.1906C191.217 41.1289 190.643 41.9542 189.868 42.5572C189.093 43.1599 188.154 43.5119 187.176 43.5665C186.197 43.6209 185.226 43.3756 184.389 42.8626C183.553 42.3497 182.891 41.5934 182.491 40.6939C182.091 39.7944 181.973 38.7939 182.151 37.8251C182.329 36.8564 182.796 35.9647 183.489 35.2685C184.182 34.5723 185.069 34.104 186.033 33.9258C187.202 33.7136 188.409 33.9399 189.423 34.5621C190.438 35.1843 191.19 36.1589 191.538 37.3017Z" fill="#62636A"/>
    <path d="M173.65 52.9287C174.444 52.0212 175.455 51.1137 175.942 52.3297C175.942 52.3297 159.535 70.7701 159.499 70.8064C158.163 69.8808 157.64 71.7684 173.65 52.9287Z" fill="#00703F"/>
    <path d="M184.535 68.9735C184.86 69.754 184.715 69.4636 173.344 80.7892C172.766 81.3881 173.037 81.37 172.405 72.2768C172.405 71.4238 179.625 65.7428 181.954 62.9477C184.282 60.1526 183.668 60.6245 184.535 68.9735Z" fill="#00703F"/>
    <path d="M164.752 45.5601C166.142 45.3786 162.207 48.5911 159.337 52.9471C158.687 53.8909 156.232 57.1942 155.276 57.3213C155.276 57.3213 146.251 57.5935 146.251 57.5391C145.998 57.1942 150.817 52.566 155.276 47.4295C155.835 46.5765 155.835 46.7217 164.752 45.5601Z" fill="#00703F"/>
    <path d="M208.631 19.2244C208.454 21.7926 207.894 24.3193 206.97 26.7203C202.62 37.3925 202.999 36.4306 201.808 34.2889C196.285 24.3972 188.631 23.3989 190.075 22.5096C193.736 19.799 197.85 17.7705 202.223 16.5201C209.064 14.7051 208.306 16.5201 208.631 19.2244Z" fill="#1FA863"/>
    <path d="M318.141 152.119C316.751 147.345 320.18 135.312 321.209 132.644C322.604 127.834 323.01 122.788 322.4 117.815C321.678 112.134 317.707 102.515 315.614 97.8501C313.52 93.1855 304.423 84.5461 301.535 82.2955C298.647 80.0449 284.802 74.2006 279.875 72.0226C274.947 69.8446 266.084 69.3546 266.084 69.3546C264.761 67.6906 262.917 66.5275 260.85 66.056C258.785 65.5845 256.621 65.8324 254.713 66.7591C249.298 69.1731 248.395 74.9811 247.926 75.1081C236.735 74.9811 235.165 84.0561 235.165 84.0561C231.013 88.285 232.168 90.9531 233.901 93.73C235.634 96.507 241.248 96.5796 241.248 96.5796C241.248 96.5796 275.38 89.1199 285.795 105.455C296.21 121.79 292.112 148.434 292.112 148.434L292.401 174.897C294.055 176.475 296.121 177.547 298.36 177.988C300.596 178.428 302.914 178.218 305.036 177.383C298.556 172.41 299.802 169.579 299.802 169.579C309.621 175.677 313.953 169.579 313.953 169.579C312.285 169.251 310.72 168.517 309.399 167.441C308.078 166.365 307.038 164.981 306.372 163.408C309.265 164.289 312.253 164.819 315.271 164.987C323.339 165.767 325.144 161.357 325.144 161.357C325.144 161.357 319.512 156.892 318.141 152.119Z" fill="#966A11"/>
    <path d="M249.009 165.35C248.504 164.784 248.225 164.05 248.225 163.29C248.225 162.53 248.504 161.796 249.009 161.23C237.909 154.351 240.291 148.67 237.909 149.814C235.354 150.948 232.625 151.635 229.84 151.846C229.118 152.064 231.844 156.747 237.854 158.762C242.944 160.468 232.439 165.35 230.833 165.477C228.216 165.677 239.262 172.338 245.526 168.091C245.673 167.971 245.854 167.9 246.043 167.889C246.232 167.879 246.42 167.928 246.579 168.03C246.739 168.133 246.863 168.283 246.933 168.46C247.003 168.637 247.016 168.832 246.97 169.016C246.461 171.553 245.554 173.992 244.28 176.24C247.403 176.803 250.977 174.734 253.576 172.955C254.262 172.501 254.009 171.703 254.28 171.14C254.388 170.886 252.114 169.198 249.009 165.35Z" fill="#B07E19"/>
    <path d="M220.581 187.711C223.884 194.608 224.028 194.263 223.216 194.554L186.52 206.732C186.087 206.732 186.683 207.767 178.524 191.541C178.109 190.724 175.925 191.831 201.682 183.155C206.159 181.649 210.419 180.142 215.202 178.563C216.429 178.164 215.4 176.93 220.581 187.711ZM215.653 193.61C214.877 192.267 214.263 193.192 213.307 193.229C213.072 193.229 189.697 200.489 188.037 201.287C187.224 201.632 186.484 202.721 187.477 202.975C187.856 203.066 214.263 195.225 215.653 193.61ZM209.985 185.95C210.563 185.66 210.96 184.644 209.733 184.39C209.516 184.39 208.126 184.807 206.123 185.315C198.993 187.13 198 188.473 196.159 188.437C194.029 188.437 194.119 189.308 190.943 190.016C183.723 191.631 184.896 192.321 182.965 192.412C182.73 192.412 182.351 192.974 182.279 193.192C182.116 193.846 184.084 194.227 185.022 193.701C187.029 192.615 189.221 191.92 191.484 191.65C194.462 191.123 194.354 190.161 196.105 190.252C199.444 189.798 200.708 188.437 203.74 187.675C206.773 186.912 207.675 187.13 209.985 185.95ZM205.238 192.575C205.54 192.595 205.84 192.506 206.081 192.323C206.323 192.14 206.492 191.875 206.556 191.577C206.556 189.49 199.336 192.811 195.924 193.392C192.82 193.918 185.762 195.987 184.733 197.113C184.011 197.911 184.409 198.365 185.383 198.42C188.993 197.185 188.506 197.022 189.806 196.604C197.314 194.481 192.152 196.223 200.112 193.918C203.722 192.938 203.957 192.575 205.238 192.575Z" fill="white"/>
    <path d="M191.935 236.698C192.477 237.805 190.491 238.422 189.336 238.64C188.65 238.186 190.166 240.709 173.632 207.222C163.055 186.059 163.055 186.912 164.138 186.912C169.77 186.93 161.052 174.425 191.935 236.698Z" fill="#FFD200"/>
    <path d="M168.145 200.107C188.253 241.126 187.874 239.239 187.007 239.547C176.177 243.286 181.592 250.437 180.473 252.888C179.877 252.034 142.568 175.169 142.315 174.534C142.604 174.425 141.63 173.935 157.441 183.427C162.513 186.477 159.571 182.593 168.145 200.107Z" fill="#FFD200"/>
    <path d="M223.703 179.997C217.548 167.165 217.963 167.927 217.458 168.109C212.043 170.051 183.704 179.507 178.921 181.086C167.135 185.006 167.875 184.244 168.597 185.66C196.213 239.947 192.062 236.879 195.22 236.026C198.921 235.935 196.448 242.125 196.574 242.451C196.7 242.778 197.603 245.047 198.108 244.865C199.199 244.388 200.313 243.97 201.448 243.613C203.999 243.233 206.484 242.495 208.83 241.417C213.884 238.821 213.956 246.971 207.567 250.111C205.838 251.167 203.982 251.996 202.043 252.579C201.718 252.579 201.646 252.833 201.791 253.123C203.09 255.882 202.765 255.664 203.596 255.664C213.343 255.664 212.187 254.085 218.938 252.652C220.924 252.216 221.754 254.666 220.978 256.282C220.797 256.645 221.104 256.608 221.483 256.499C221.483 256.499 253.973 246.825 255.381 246.372C256.789 245.918 256.121 247.551 223.703 179.997ZM224.425 195.987C224.136 196.096 190.563 207.295 186.52 208.493C185.022 208.329 185.311 209.146 176.954 191.668C175.835 189.344 174.355 190.433 215.491 176.676C217.115 176.131 217.043 176.676 219.299 181.322C225.4 193.918 226.736 195.189 224.425 195.987Z" fill="#FFD200"/>
    <path d="M321.751 285.939C323.556 288.643 323.971 284.396 308.972 305.686C307.345 307.898 305.585 310.007 303.701 312.002C301.156 314.961 299.116 318.264 295.091 321.367C285.669 328.628 278.612 326.812 270.399 317.139C269.155 315.013 268.271 312.694 267.782 310.278C266.608 305.504 264.514 304.179 263.052 298.771C259.226 284.632 263.395 216.315 263.774 215.97C265.327 214.537 262.908 215.244 259.424 210.671C256.591 207.041 257.908 203.157 252.204 193.827C252.091 193.575 251.921 193.352 251.708 193.176C251.495 193 251.245 192.875 250.977 192.811C249.876 192.63 250.778 194.063 251.284 195.189C252.042 196.84 250.49 195.788 250.201 195.77C249.461 195.679 248.955 196.532 251.482 198.02C251.789 198.202 252.62 198.22 252.836 198.51C253.047 198.915 253.201 199.349 253.287 199.799C253.287 200.053 253.287 200.125 253.053 200.144C251.067 200.38 250.201 200.797 248.558 199.4C247.62 198.601 245.941 196.786 245.977 195.552C246.067 191.922 245.454 190.107 248.558 188.292C249.768 187.62 249.984 186.477 250.056 185.134C250.183 182.665 252.656 184.008 253.666 180.796C255.11 176.222 261.717 180.251 260.76 177.692C257.836 169.978 248.667 164.987 249.93 162.773C251.121 160.831 255.471 164.443 256.591 165.749C260.092 169.724 266.518 175.133 267.096 178.908C267.457 181.177 269.027 181.957 270.597 187.257C273.431 196.768 276.644 200.815 277.023 211.324C277.619 227.659 294.387 290.349 294.405 290.404C294.875 291.384 295.994 290.966 295.94 289.95C295.29 277.771 288.539 264.34 290.2 264.249C292.938 264.059 295.676 264.598 298.142 265.81C299.802 267.063 310.055 276.228 310.957 277.081C314.892 280.603 319.062 281.8 321.751 285.939Z" fill="#FDE6B9"/>
    <path d="M301.318 131.972C308.935 125.493 317.942 130.756 310.343 142.989C308.827 145.403 307.311 147.49 300.686 150.249C292.076 153.879 291.048 131.718 290.885 172.029C290.885 183.464 292.113 186.894 308.087 194.68C308.719 194.989 303.177 199.145 303.141 199.163C293.521 206.097 299.17 202.793 288.521 207.095C286.716 207.785 279.261 210.888 279.135 209.745C277.691 197.602 274.803 194.826 272.817 187.711C271.012 181.431 268.991 179.834 268.81 177.728C268.557 174.643 261.59 168.653 260.742 167.564C260.435 167.201 260.471 167.056 260.922 166.893C281.265 160.232 278.178 155.168 276.12 156.384C271.933 158.834 253.179 165.586 244.443 155.513C234.858 144.441 234.641 124.785 238.612 126.019C240.254 126.384 241.963 126.289 243.554 125.745C245.145 125.201 246.558 124.229 247.637 122.933C248.684 121.881 247.637 125.892 252.691 126.817C253.738 127.017 254.135 125.728 253.504 125.42C251.969 124.639 250.525 124.276 249.695 121.681C249.045 119.666 255.291 121.282 255.11 116.563C255.11 115.31 253.901 115.274 253.63 116.399C253.143 118.341 253.63 118.051 250.742 118.596C250.489 118.596 250.417 118.596 250.507 118.287C252.096 113.259 251.59 111.826 253.215 110.61C253.919 110.196 254.72 109.98 255.534 109.984C256.35 109.989 257.148 110.213 257.848 110.634C258.547 111.055 259.121 111.658 259.509 112.378C259.897 113.098 260.086 113.911 260.056 114.73C260.29 120.665 266.012 129.358 272.691 129.104C282.149 128.723 284.875 118.922 286.589 117.851C287.726 117.125 288.918 117.579 293.719 120.538C295.127 121.391 291.03 129.994 297.708 132.934C298.412 133.243 296.878 134.186 298.593 134.749C298.791 134.967 299.766 133.279 301.318 131.972ZM309.964 137.671C310.213 137.164 310.318 136.597 310.264 136.034C310.21 135.47 310 134.933 309.657 134.484C309.316 134.034 308.856 133.69 308.329 133.49C307.803 133.29 307.231 133.242 306.679 133.351C303.755 133.987 300.56 137.726 302.112 140.757C302.636 141.791 302.112 143.933 301.029 144.187C298.881 144.659 298.737 143.643 298.213 144.623C297.69 145.603 298.845 146.438 300.018 146.438C303.737 146.438 304.982 142.154 303.791 139.849C303.638 139.598 303.549 139.313 303.529 139.019C303.511 138.725 303.564 138.43 303.683 138.161C304.441 136.346 308.213 132.916 308.574 137.78C308.664 138.288 309.585 138.47 309.964 137.671ZM252.998 139.722C252.998 139.069 252.601 137.163 251.085 137.127C249.28 137.127 249.009 139.831 250.309 141.156C251.085 141.973 252.565 142.154 252.998 139.722Z" fill="#FDE6B9"/>
    <path d="M223.83 274.994C229.1 278.624 228.288 275.157 225.743 292.364C224.51 299.787 222.779 307.118 220.563 314.307C220.057 315.795 220.815 310.042 220.563 303.943C220.31 295.667 211.826 281.837 210.924 282.163C209.119 282.762 212.729 284.886 217.133 297.155C220.148 305.758 218.559 317.592 216.447 320.75C213.704 324.816 211.321 326.54 204.408 325.487C201.307 325.017 198.414 323.634 196.094 321.511C193.775 319.389 192.133 316.623 191.376 313.563C190.401 309.534 188.813 304.887 189.571 300.005C193.181 273.869 191.015 285.975 195.527 292.218H196.34C196.087 290.24 195.906 290.403 193.488 282.417C192.73 279.876 192.712 279.513 191.917 279.005C188.506 276.864 189.138 276.519 188.47 272.889C188.055 270.693 185.365 271.273 185.708 268.188C185.802 267.319 185.674 266.438 185.336 265.631C184.998 264.825 184.461 264.119 183.777 263.578C182.531 262.398 182.82 258.913 184.986 256.644C188.849 252.615 189.282 250.818 193.036 248.023C193.632 247.569 193.776 247.733 199.336 246.426C200.545 246.136 199.805 245.845 202.35 245.392C209.155 244.157 210.87 241.761 210.798 243.286C210.642 244.513 210.149 245.673 209.374 246.635C208.6 247.597 207.574 248.323 206.411 248.731C204.948 249.588 203.399 250.288 201.791 250.818C190.961 253.287 191.538 260.583 193.307 258.496C195.618 255.773 195.275 255.211 196.141 256.808C196.791 258.006 196.466 257.461 194.336 259.385C192.531 261.019 186.502 265.919 189.426 265.484C189.842 265.484 190.076 265.211 193.903 261.981C196.628 259.657 197.729 257.57 206.538 257.479C211.61 257.479 215.563 255.138 219.01 254.467C220.328 254.194 219.985 258.441 210.743 260.946C208.727 261.759 206.635 262.367 204.498 262.761C202.808 262.846 201.179 263.42 199.805 264.413C198.542 265.611 197.603 266.228 198.253 266.899C198.488 267.153 198.704 267.353 199.047 266.99C201.231 264.703 203.487 264.812 208.072 263.886C209.444 263.614 209.155 262.924 211.339 262.707C213.573 262.32 215.785 261.812 217.963 261.182C219.768 261.182 218.379 265.03 208.938 268.696C204.372 270.511 202.224 271.001 200.617 273.415C200.184 274.068 199.823 275.049 200.617 275.412C201.935 276.011 201.141 273.234 205.852 271.509C206.664 271.219 206.863 271.146 207.152 274.776C207.765 282.653 204.877 286.102 204.643 289.296C204.643 289.732 205.148 290.295 205.69 289.623C206.509 287.846 207.238 286.029 207.874 284.178C211.917 272.018 202.459 268.061 215.094 271.963C220.815 273.742 221.61 273.47 223.83 274.994Z" fill="#FDE6B9"/>
    <path d="M194.606 238.132C197.061 237.569 195.021 242.905 190.527 245.392C186.917 247.443 186.556 247.642 186.05 248.259C185.545 248.876 186.05 249.657 186.52 249.493C189.48 248.622 194.389 243.304 184.317 254.938C181.935 257.697 182.296 257.897 181.971 255.465C181.992 254.541 182.077 253.619 182.224 252.706C182.675 250.546 180.31 245.446 182.837 243.831C186.107 241.831 189.581 240.188 193.198 238.93C193.633 238.607 194.106 238.338 194.606 238.132Z" fill="#FDE6B9"/>
    <path d="M239.442 103.64C239.442 103.386 240.886 96.3802 242.655 93.8211C244.424 91.2619 250.489 84.7461 250.489 84.7461C250.489 84.7461 255.001 87.1056 255.417 82.9311C255.417 82.9311 257.113 84.5464 259.027 81.5517C260.94 78.5569 265.94 78.8655 267.745 79.6641C269.55 80.4627 274.514 81.3701 277.257 85.9984C280.001 90.6266 289.405 106.762 291.083 109.085C292.762 111.408 298.087 118.16 294.134 119.304L286.914 115.165C286.914 115.165 284.405 107.778 278.105 106.726C271.806 105.673 264.315 105.038 261.247 110.356C261.247 110.356 255.2 106.726 250.994 110.592C250.994 110.592 250.038 104.911 244.785 104.021C239.533 103.132 239.442 103.64 239.442 103.64Z" fill="#FDE6B9"/>
    <path d="M118.562 138.452L117.713 133.315L121.775 136.764L127.009 134.296L125.24 140.158L128.958 145.603L122.749 144.532L120.294 150.05L118.724 143.425L113.327 140.848L118.562 138.452Z" fill="#AA3CC5"/>
    <path d="M378.536 136.909C370.106 143.661 369.204 156.602 364.962 153.498C360.107 149.868 357.002 146.075 356.858 140.63C356.858 139.123 356.045 137.653 354.601 138.198C353.428 138.712 352.222 139.149 350.991 139.505C346.858 140.594 347.02 136.818 345.107 138.579C344.336 139.115 343.616 139.722 342.959 140.394C342.364 140.938 342.652 140.63 341.281 139.595C339.909 138.561 337.923 139.976 338.194 140.775C338.326 140.969 338.519 141.113 338.741 141.182C338.965 141.251 339.205 141.242 339.421 141.156C340.486 140.684 340.649 141.701 341.732 142.572C343.537 144.042 344.963 139.25 346.515 140.358C349.096 142.173 350.269 141.556 354.204 140.212C356.641 139.396 351.966 144.823 361.731 153.153C367.146 157.818 368.067 156.348 372.308 147.817C373.861 144.695 376.911 139.613 379.673 137.907C380.81 137.2 382.146 136.837 384.925 138.815C391.441 143.461 388.535 144.641 387.687 146.656C387.543 147.019 388.319 147.672 388.662 147.2C390.81 144.242 390.214 145.167 390.665 143.734C389.889 139.232 382.579 133.678 378.536 136.909Z" fill="#1B1B1D"/>
    <path d="M375.828 113.768C375.684 112.86 375.395 111.953 375.214 111.063C375.193 110.848 375.108 110.645 374.969 110.479C374.83 110.314 374.646 110.195 374.438 110.138C373.734 109.92 373.644 110.319 371.225 113.205C369.077 115.764 370.359 115.328 365.088 114.022C364.798 114.074 364.522 114.19 364.282 114.363C364.042 114.535 363.841 114.76 363.699 115.02C363.338 115.546 363.374 115.746 364.98 118.359C366.352 120.592 366.785 120.047 366.135 121.009C362.724 126.146 361.19 127.834 367.471 125.529C371.081 124.222 370.937 124.022 371.46 124.549C373.897 126.999 377.254 131.137 377.453 127.67C377.538 126.31 377.328 124.948 376.839 123.677C376.586 122.371 381.55 121.699 381.839 119.83C381.864 119.748 381.871 119.663 381.86 119.579C381.851 119.495 381.824 119.414 381.781 119.341C381.74 119.268 381.684 119.204 381.615 119.154C381.546 119.104 381.469 119.068 381.388 119.049C374.511 116.599 376.64 118.995 375.828 113.768ZM375.918 121.881C374.113 123.224 375.81 124.349 375.666 126.237C374.258 125.638 372.669 122.607 370.576 122.607C366.803 123.877 366.569 124.422 365.901 124.422C366.117 123.06 369.294 120.302 367.489 118.831C366.785 118.287 365.034 115.691 365.919 115.891C369.42 116.708 369.402 116.871 370.07 116.399C373.59 113.967 373.68 110.228 374.33 115.347C374.89 119.957 373.752 118.069 378.824 119.92C379.655 120.265 377.056 121.046 375.918 121.881Z" fill="#1B1B1D"/>
    <path d="M353.302 84.2558C353.446 91.5158 357.977 95.1458 350.396 94.1657C338.772 92.6411 336.443 89.8278 337.544 98.322C337.689 99.4655 337.743 99.1025 332.129 101.389C329.313 102.551 330.595 103.985 332.129 103.386C337.255 101.28 339.512 100.972 339.349 98.7213C338.988 94.7465 338.483 94.0386 339.981 94.2927C350.107 95.9262 351.822 96.3074 353.645 96.1077C360.756 95.3454 351.695 83.9654 356.551 81.5877C359.962 79.8816 361.099 82.6041 377.471 89.1563C378.373 89.5193 379.276 89.8823 379.565 89.0292C379.853 88.1762 379.023 88.1217 378.572 87.9402C362.327 81.2429 363.987 80.9162 360.522 79.7727C359.76 79.4139 358.919 79.2517 358.08 79.3005C357.238 79.3493 356.424 79.6078 355.708 80.0526C354.991 80.4975 354.396 81.1146 353.975 81.8484C353.556 82.5822 353.323 83.4095 353.302 84.2558Z" fill="#1B1B1D"/>
    <path d="M360.306 62.0223C358.952 64.2547 355.811 69.1189 358.717 68.3929C359.8 68.1388 361.876 67.7395 362.327 67.558C365.089 66.6142 365.179 66.2331 365.558 66.6324C369.168 70.2624 371.749 74.2372 371.569 67.5943C371.46 64.4725 370.775 63.9643 371.659 63.6195C372.832 63.1113 375.161 61.8045 375.811 61.6411C378.031 60.9696 378.139 59.5176 377.182 59.082C376.226 58.6464 373.572 58.1382 371.93 57.4303C369.313 56.2506 370.432 57.8659 368.753 51.1867C368.713 50.988 368.612 50.8068 368.464 50.6693C368.316 50.5317 368.128 50.4446 367.928 50.4204C367.73 50.3963 367.526 50.4364 367.35 50.5348C367.174 50.6333 367.033 50.7852 366.948 50.9689C366.731 51.2593 365.973 52.3483 363.663 55.7605C363.121 56.5773 357.941 53.8366 357.093 54.853C354.963 57.3396 361.01 60.8607 360.306 62.0223ZM362.472 57.4122C364.277 57.9385 363.952 57.6844 367.237 53.2377C368.284 51.8038 367.616 58.2834 370.053 58.5012C370.883 58.5012 372.074 59.5176 374.006 59.9532C374.161 60.0098 374.307 60.0893 374.439 60.1891C374.348 60.3162 374.276 60.4795 374.15 60.534C369.601 62.8935 369.294 62.6031 369.565 64.164C370.251 68.4655 370.089 67.794 369.98 68.5381C365.161 64.1458 367.074 64.7085 366.37 64.5814C365.035 64.3818 362.544 65.8882 360.143 66.3964C359.313 66.3964 359.638 66.2149 361.713 62.7664C363.952 59.0457 352.797 54.6352 362.472 57.4122Z" fill="#1B1B1D"/>
    <path d="M317.635 66.1785C317.554 66.8873 317.622 67.6051 317.834 68.2859C318.045 68.9667 318.395 69.5958 318.862 70.1323C319.33 70.669 319.904 71.1014 320.548 71.4019C321.191 71.7025 321.889 71.8646 322.599 71.8776C325.234 72.1136 326.299 69.8448 327.292 70.0626C329.512 70.4982 331.281 68.0298 331.353 66.2693C331.353 65.3436 332.039 64.7265 332.4 63.8372C332.761 62.9478 332.292 62.3852 332.761 62.24C333.452 61.7623 334.008 61.1141 334.378 60.3577C334.748 59.6012 334.918 58.7619 334.873 57.9203C334.873 57.6843 335.487 56.8494 334.873 56.1053C334.746 55.9419 335.36 54.9618 335.505 54.8166C335.649 54.6714 352.833 56.0508 355.847 40.823C360.251 18.5711 324.711 9.5687 318.086 30.9494C314.476 42.4565 323.862 48.5549 323.303 49.7346C321.841 52.7657 320.902 51.5496 320.361 52.8746C318.917 56.2323 320.361 55.8149 319.584 56.2323C316.985 57.5754 318.429 59.2271 317.527 59.8623C316.823 60.3825 316.345 61.1561 316.193 62.0216C316.041 62.8872 316.229 63.7782 316.715 64.5087C317.418 65.3436 317.779 65.5251 317.635 66.1785ZM322.725 70.0082C320.631 69.5 320.379 69.4637 319.115 66.8864C318.953 66.5597 319.35 66.6141 319.693 66.7593C324.675 68.8284 326.064 69.1551 322.725 70.0082ZM321.895 44.9612C313.213 31.1127 325.505 19.9868 335.017 20.5131C357.381 20.3861 362.201 49.9706 338.952 52.6386C335.92 53.0016 335.342 52.1304 334.404 53.3465C332.707 55.7604 333.808 56.8494 332.418 56.4864C329.581 55.7575 326.875 54.5812 324.404 53.0016C322.111 51.6041 326.209 51.1866 325.018 48.5912C323.826 45.9957 323.844 47.9741 321.895 44.9612ZM321.985 53.2376C331.552 60.4976 335.342 56.7587 332.454 60.1346C331.913 60.7698 329.819 59.699 329.025 59.4086C325.234 57.9747 318.79 55.9056 322.057 53.2376H321.985ZM319.783 57.9203C320.072 57.7025 319.927 57.0854 320.343 57.1217C321.065 57.1217 320.108 57.884 324.891 59.8079C329.674 61.7318 330.09 61.9496 331.028 62.0403C331.967 62.1311 330.92 64.1276 329.115 64.0913C326.191 63.0749 317.455 59.8442 319.855 57.9203H319.783ZM317.978 61.5503C318.772 60.3161 318.122 61.7318 322.238 63.5105C326.696 65.4525 328.303 66.1785 329.458 66.0333C329.765 66.0333 329.747 66.2511 329.62 66.4145C328.88 67.4127 328.032 68.8829 326.642 67.9935C323.122 65.5251 316.155 64.5087 318.086 61.4777L317.978 61.5503Z" fill="#1B1B1D"/>
    <path d="M353.32 175.078C351.913 174.171 352.454 174.062 352.761 172.719C354.006 167.274 353.952 167.655 353.88 167.274C353.871 167.12 353.82 166.972 353.734 166.846C353.645 166.719 353.526 166.619 353.385 166.558C353.245 166.496 353.091 166.474 352.94 166.494C352.788 166.515 352.645 166.578 352.526 166.675C350.721 168.109 348.664 168.962 346.822 170.305C345.974 170.886 343.122 167.982 342.472 168.236C341.516 168.635 340.812 169.107 341.119 170.287C342.4 174.951 342.003 174.461 341.335 174.897C339.368 176.167 337.725 176.712 337.852 178.327C337.852 179.634 341.786 179.543 343.267 179.561C344.747 179.579 344.44 180.215 344.945 181.05C347.201 184.788 348.555 186.948 349.674 182.701C350.649 179.18 349.44 179.561 355.432 179.362C357.995 179.162 356.064 176.839 353.32 175.078ZM352.039 177.71C349.927 177.982 349.043 178.037 348.808 179.325C348.615 180.375 348.319 181.402 347.923 182.393C347.831 182.324 347.747 182.245 347.671 182.157C344.061 176.821 346.859 178.2 340.234 177.656C338.917 177.656 342.545 176.421 343.61 174.026C344.007 173.136 342.147 169.815 343.194 170.396C346.371 172.083 345.342 171.466 345.739 171.702C346.931 172.446 350.469 169.524 351.822 169.125C352.31 172.12 348.88 173.935 352.111 176.222C354.385 177.801 354.079 177.456 352.039 177.71Z" fill="#1B1B1D"/>
    <path d="M333.194 199.635C328.068 196.913 323.935 198.945 317.617 195.352C315.803 194.074 313.597 193.482 311.39 193.682C309.856 194.081 296.535 188.237 293.665 181.884C293.058 180.228 292.741 178.478 292.726 176.712C292.6 175.332 299.351 181.249 305.885 178.019C306.054 177.959 306.202 177.852 306.313 177.71C306.424 177.568 306.491 177.397 306.509 177.218C306.525 177.038 306.491 176.858 306.41 176.697C306.329 176.537 306.202 176.403 306.047 176.312C303.681 175.314 301.686 173.593 300.343 171.394C300.127 171.031 299.874 170.305 300.704 170.867C308.051 175.895 317.689 170.523 314.747 169.052C312.132 168.386 309.809 166.867 308.141 164.733C307.78 164.279 308.141 164.352 308.358 164.479C313.773 166.911 321.39 166.566 325.686 162.41C327.924 160.232 320.74 159.306 319.17 150.812C317.599 142.317 322.78 136.745 323.682 122.244C324.151 114.693 318.556 100.7 315.018 95.4723C305.397 81.279 291.553 74.3457 274.279 69.4089C270.189 68.4624 265.927 68.5811 261.897 69.7538C261.175 70.0442 261.337 71.2421 262.204 71.115C268.438 69.7309 274.956 70.5382 280.669 73.4019C287.708 76.7415 301.625 79.8996 312.184 94.8371C335.36 127.507 306.769 143.842 321.083 158.761C324.097 161.901 324.53 161.393 323.104 162.246C320.549 163.684 317.641 164.372 314.715 164.231C311.789 164.089 308.96 163.125 306.553 161.448C305.433 160.722 304.278 161.448 304.874 162.809C307.383 168.907 313.484 169.706 311.913 170.25C303.61 173.064 300.253 167.945 299.08 167.292C296.589 165.949 296.138 171.394 302.997 176.639C304.423 177.728 292.437 176.802 292.546 172.864C293.539 139.686 290.362 154.242 299.946 152.899C307.906 151.755 317.094 140.412 314.892 132.408C313.412 127.09 308.52 127.707 307.293 126.817C295.398 118.232 289.08 115.583 285.633 110.138C281.553 103.712 266.337 101.498 260.976 109.067C260.778 109.357 260.615 109.43 260.345 109.067C259.848 108.469 259.236 107.979 258.545 107.628C257.854 107.278 257.099 107.073 256.325 107.027C255.552 106.981 254.778 107.095 254.051 107.361C253.323 107.628 252.659 108.042 252.096 108.577C251.861 108.831 251.753 108.831 251.663 108.468C250.724 104.584 245.471 102.75 241.157 102.515C240.49 102.515 240.363 102.75 242.096 98.2311C242.421 97.3962 244.298 97.2147 247.078 99.2112C249.587 100.772 247.836 94.9278 243.847 95.0186C242.042 95.0186 249.117 87.2322 250.219 85.9436C250.796 85.2902 250.959 86.4155 252.385 86.5425C252.98 86.5425 253.359 85.5987 252.637 85.0361C243.378 77.7761 253.197 62.8568 261.933 67.6665C263.738 68.7011 264.622 66.7772 262.872 65.8515C256.698 62.8205 249.713 66.9587 247.764 73.7468C247.511 74.5817 247.457 73.6197 243.251 74.5998C241.368 75.047 239.635 75.9881 238.231 77.327C236.826 78.666 235.799 80.3552 235.255 82.2228C235.011 83.0797 234.536 83.8521 233.883 84.4553C229.732 88.9565 231.717 94.6919 236.446 96.1257C236.789 96.2346 238.143 96.398 238.251 95.7627C238.54 94.71 237.692 94.6919 237.024 94.4922C230.706 92.5865 234.407 84.0378 235.111 87.0689C235.815 90.0999 239.894 93.9114 240.778 92.3505C241.663 90.7896 234.353 88.902 237.06 82.0958C239.19 76.6508 247.258 74.8358 247.24 76.9593C247.132 83.6748 250.092 84.2193 249.37 84.9816C245.76 88.775 243.955 90.1181 241.735 94.8371C241.575 95.2444 241.273 95.5794 240.887 95.7809C238.161 97.0514 237.15 101.226 238.197 100.609C240.435 99.1023 239.713 99.1931 239.154 102.006C238.883 103.331 237.078 102.115 232.53 104.584C224.425 109.085 228.36 119.775 235.255 124.512C237.872 126.327 230.093 128.85 237.818 147.49C237.854 147.55 237.876 147.618 237.88 147.688C237.884 147.758 237.872 147.829 237.843 147.893C237.815 147.957 237.772 148.013 237.717 148.057C237.662 148.101 237.598 148.13 237.529 148.144C234.69 149.429 231.617 150.108 228.504 150.14C227.421 150.031 227.457 151.229 227.782 152.1C230.472 159.36 237.926 160.032 236.519 160.867C230.833 164.279 230.959 163.644 229.443 164.007C229.163 164.034 228.906 164.172 228.727 164.39C228.548 164.607 228.461 164.887 228.486 165.168C228.36 166.638 229.497 167.473 231.086 168.617C237.872 173.481 244.551 170.432 244.894 170.759C244.359 172.588 243.497 174.304 242.349 175.822C239.858 178.999 246.951 179.452 252.854 175.713C252.96 175.687 253.072 175.687 253.179 175.713C252.977 177.032 252.686 178.336 252.312 179.616C251.446 182.502 249.262 181.431 248.432 184.425C247.692 187.202 233.685 191.087 231.862 192.248C231.266 192.611 231.699 192.883 226.248 181.685C218.523 165.876 219.028 165.894 217.043 166.566C212.422 168.054 214.028 168.835 211.14 162.936C209.66 159.905 175.889 168.762 165.528 181.158C163.344 183.881 164.662 184.553 165.402 183.881C165.817 183.518 168.705 177.783 184.95 170.722C192.656 167.364 200.791 165.104 209.119 164.007C210.057 163.898 209.678 163.626 211.537 167.764C212.007 168.816 166.882 182.81 165.763 184.244C164.643 185.678 162.153 185.224 162.911 184.643C163.078 184.529 163.196 184.355 163.24 184.155C163.283 183.955 163.249 183.747 163.145 183.572C159.535 175.169 155.42 174.497 155.925 172.682C155.925 172.338 154.337 168.581 154.626 168.036C154.915 167.492 163.434 175.115 163.145 180.142C163.145 181.413 165.167 181.957 164.842 179.634C163.921 172.828 154.915 163.571 152.532 166.511C152.117 167.001 153.868 170.577 153.904 171.648C152.749 171.303 146.413 166.203 144.409 168.726C143.958 169.27 144.175 169.343 146.991 174.57C147.695 175.895 145.673 174.407 143.669 173.209C137.659 169.579 140.059 173.082 143.254 179.888C178.831 253.559 181.665 257.933 181.304 259.966C181.12 261.051 181.218 262.166 181.588 263.202C181.958 264.238 182.588 265.162 183.415 265.883C183.695 266.173 183.897 266.531 184.001 266.921C184.106 267.311 184.109 267.723 184.011 268.115C183.813 272.598 187.007 271.872 186.971 274.377C186.99 276.079 187.633 277.713 188.776 278.969C191.52 280.983 190.347 277.045 187.91 299.551C187.224 305.849 189.173 310.985 190.238 314.888C192.495 323.019 201.068 327.484 207.025 327.593C207.639 327.593 207.891 327.375 207.025 330.079C204.263 338.773 207.765 340.57 203.613 345.906C202.879 346.979 202.454 348.235 202.386 349.536C202.409 349.71 202.491 349.87 202.618 349.99C202.744 350.11 202.908 350.182 203.082 350.195C203.256 350.208 203.428 350.16 203.571 350.061C203.714 349.959 203.818 349.814 203.866 349.645C204.733 346.396 207.476 344.98 207.584 340.443C207.584 339.644 207.693 334.635 207.873 333.873C209.48 326.885 209.137 327.611 210.057 327.466C215.924 326.522 217.169 323.219 220.472 318.717C222.783 315.559 227.692 294.505 229.226 279.677C229.226 279.096 229.226 278.497 229.75 278.098C230.273 277.698 232.872 261.49 232.818 259.948C232.818 259.349 231.771 259.113 231.555 259.657C230.959 261.091 230.057 269.985 228.92 275.883C228.793 276.609 228.504 276.156 225.797 274.232C222.187 271.654 221.663 272.271 217.169 270.983C209.949 268.859 211.754 269.93 215.779 267.353C221.194 263.832 220.833 260.547 220.219 259.766C219.606 258.986 217.656 259.439 220.219 258.695C244.1 251.744 253.251 249.13 256.518 247.805C258.774 246.934 258.323 246.68 257.781 246.099C257.781 246.099 254.352 239.093 232.511 194.39C232.187 193.7 231.988 193.954 236.32 192.575C236.609 192.575 236.699 192.575 236.753 192.883C237.83 197.63 240.354 201.92 243.973 205.153C253.666 213.338 257.222 210.489 257.962 211.741C264.117 222.286 260.976 197.566 259.767 273.705C259.767 302.655 262.312 300.93 265.742 309.406C266.012 310.042 267.547 316.666 268.611 317.846C279.171 330.424 287.618 330.206 296.896 322.601C304.675 316.231 317.726 295.631 318.736 296.411C319.747 297.191 321.408 297.264 322.996 298.353C325.144 299.823 328.501 301.257 330.974 300.531C333.014 299.932 332.472 301.348 343.068 270.039C343.627 268.369 342.58 283.652 339.043 297.573C334.169 316.703 326.408 327.629 328.213 334.925C328.935 337.757 327.689 338.773 328.213 343.419C330.018 356.85 329.133 355.997 330.577 356.124C332.021 356.251 330.415 345.688 330.288 345.071C329.187 339.426 330.613 337.811 329.873 334.689C327.96 326.721 338.483 313.908 343.158 285.92C345.216 273.669 343.645 268.896 347.815 257.044C353.013 242.378 356.371 232.051 353.934 216.587C352.129 205.28 348.645 207.839 333.194 199.635ZM164.138 186.93C169.77 186.93 161.015 174.407 191.881 236.716C192.422 237.823 190.437 238.44 189.282 238.658C188.596 238.204 190.112 240.727 173.578 207.24C163.055 186.059 163.055 186.912 164.138 186.912V186.93ZM146.305 170.069C148.705 169.778 158.94 176.802 161.413 183.808C157.207 181.705 153.17 179.278 149.337 176.548C148.994 175.078 146.612 171.122 146.305 170.051V170.069ZM180.473 252.905C179.878 252.034 142.568 175.187 142.316 174.552C142.604 174.443 141.63 173.953 157.442 183.445C162.514 186.495 159.571 182.629 168.145 200.125C188.253 241.144 187.874 239.257 187.007 239.565C176.195 243.286 181.574 250.419 180.473 252.887V252.905ZM181.971 255.519C181.993 254.595 182.077 253.673 182.224 252.76C182.675 250.6 180.311 245.5 182.838 243.885C186.108 241.885 189.581 240.242 193.199 238.984C193.632 238.649 194.105 238.367 194.606 238.149C197.061 237.605 195.022 242.923 190.527 245.409C186.917 247.46 186.556 247.66 186.051 248.277C185.545 248.894 186.051 249.675 186.52 249.511C189.48 248.64 194.39 243.322 184.318 254.956C181.935 257.733 182.296 257.915 181.971 255.501V255.519ZM195.798 244.629C196.105 245.391 195.996 245.264 193.181 245.827C193.181 245.827 193.181 245.827 193.181 245.682C194.751 244.72 194.986 243.631 195.292 243.703C195.599 243.776 195.545 244.066 195.798 244.683V244.629ZM210.671 260.855C208.654 261.668 206.562 262.276 204.426 262.67C202.736 262.755 201.106 263.329 199.733 264.322C198.469 265.52 197.531 266.137 198.18 266.808C198.415 267.062 198.632 267.262 198.975 266.899C201.159 264.612 203.415 264.721 208 263.795C209.371 263.523 209.083 262.833 211.267 262.616C213.501 262.229 215.712 261.721 217.891 261.091C219.696 261.091 218.306 264.939 208.866 268.605C204.281 270.42 202.151 270.91 200.545 273.324C200.112 273.978 199.751 274.958 200.545 275.321C201.863 275.92 201.068 273.143 205.779 271.418C206.592 271.128 206.79 271.055 207.079 274.685C207.693 282.563 204.805 286.011 204.57 289.205C204.57 289.641 205.075 290.204 205.617 289.532C206.158 288.861 207.621 284.559 207.801 284.087C211.844 271.927 202.386 267.97 215.021 271.872C220.815 273.687 221.537 273.379 223.757 274.903C229.028 278.533 228.216 275.067 225.671 292.273C224.438 299.696 222.707 307.027 220.49 314.216C219.985 315.704 220.743 309.951 220.49 303.852C220.237 295.576 211.754 281.746 210.851 282.072C209.046 282.671 212.656 284.795 217.061 297.064C220.075 305.667 218.487 317.501 216.375 320.659C213.631 324.725 211.249 326.449 204.335 325.396C201.234 324.926 198.341 323.543 196.022 321.42C193.702 319.298 192.06 316.532 191.303 313.472C190.329 309.443 188.74 304.796 189.498 299.914C193.108 273.778 190.942 285.884 195.455 292.128H196.267C196.014 290.149 195.834 290.313 193.415 282.327C192.657 279.786 192.639 279.423 191.845 278.914C188.433 276.773 189.065 276.428 188.397 272.798C187.982 270.602 185.293 271.182 185.636 268.097C185.729 267.228 185.601 266.347 185.263 265.54C184.926 264.734 184.389 264.028 183.704 263.487C182.459 262.307 182.748 258.822 184.914 256.554C188.776 252.524 189.21 250.727 192.964 247.932C193.56 247.479 193.704 247.642 199.263 246.335C200.473 246.045 199.733 245.754 202.278 245.301C209.083 244.066 210.797 241.671 210.725 243.195C210.569 244.422 210.076 245.582 209.302 246.544C208.527 247.506 207.501 248.232 206.339 248.64C204.876 249.497 203.327 250.197 201.718 250.727C190.888 253.196 191.466 260.492 193.235 258.405C195.545 255.682 195.202 255.12 196.069 256.717C196.718 257.915 196.393 257.37 194.264 259.294C192.459 260.928 186.43 265.828 189.354 265.393C189.769 265.393 190.004 265.12 193.83 261.89C196.556 259.566 197.657 257.479 206.465 257.388C211.537 257.388 215.49 255.047 218.938 254.376C220.256 254.158 219.913 258.405 210.671 260.91V260.855ZM198.216 256.826C197.982 256.608 198.09 256.953 197.061 254.847C196.827 254.339 197.224 254.194 199.751 253.414C200.076 253.305 200.364 253.904 201.104 255.555C201.267 255.991 200.96 256.1 198.216 256.88V256.826ZM255.291 246.371C253.847 246.825 221.447 256.481 221.393 256.499C221.014 256.608 220.707 256.644 220.887 256.281C221.663 254.612 220.887 252.161 218.848 252.651C212.097 254.085 213.252 255.646 203.505 255.664C202.765 255.664 203.09 255.882 201.7 253.123C201.556 252.833 201.7 252.651 201.953 252.579C203.891 251.996 205.747 251.167 207.476 250.11C213.866 246.97 213.794 238.821 208.74 241.416C206.394 242.495 203.908 243.233 201.357 243.613C200.223 243.97 199.108 244.388 198.018 244.865C197.513 245.046 196.718 243.05 196.484 242.451C196.249 241.852 198.83 235.935 195.13 236.026C191.971 236.879 196.123 239.946 168.506 185.66C167.784 184.244 167.044 185.006 178.831 181.086C183.614 179.507 212.025 170.051 217.368 168.109C217.873 167.927 217.368 167.165 223.613 179.997C256.121 247.551 256.626 246.008 255.291 246.426V246.371ZM295.416 122.352C295.416 121.626 295.055 121.626 303.899 127.398C305.054 128.142 302.365 127.834 299.621 131.028C299.098 131.645 299.08 131.609 298.322 131.246C295.037 129.776 294.946 126.182 295.416 122.407V122.352ZM263.557 109.085C267.167 106.108 278.9 106.181 283.412 111.317C287.347 115.818 277.6 132.281 267.98 125.511C263.359 122.262 259.063 112.715 263.557 109.085ZM240.237 117.325C240.237 116.417 239.226 105.128 240.688 105.201C243.433 105.103 246.146 105.822 248.486 107.27C252.366 109.829 247.962 127.507 238.504 124.004C237.493 123.605 240.165 121.227 240.237 117.325ZM235.255 106.09C236.194 105.8 237.06 105.582 238.107 105.328C238.432 105.328 238.594 105.328 238.558 105.691C237.62 113.876 240.255 116.2 237.132 122.48C236.771 123.242 236.699 123.278 236.085 122.788C228.522 116.581 226.411 108.867 235.255 106.09ZM238.594 126.055C240.235 126.42 241.945 126.325 243.536 125.781C245.127 125.237 246.54 124.265 247.619 122.97C248.648 121.917 247.619 125.928 252.673 126.854C253.72 127.053 254.117 125.765 253.486 125.456C251.951 124.676 250.507 124.313 249.677 121.717C249.027 119.703 255.273 121.318 255.092 116.599C255.092 115.347 253.883 115.31 253.612 116.436C253.125 118.378 253.612 118.087 250.724 118.632C250.471 118.632 250.399 118.632 250.489 118.323C252.078 113.296 251.572 111.862 253.197 110.646C253.901 110.232 254.702 110.016 255.516 110.021C256.332 110.025 257.13 110.25 257.83 110.671C258.529 111.092 259.103 111.694 259.491 112.414C259.879 113.135 260.068 113.947 260.038 114.766C260.272 120.701 265.994 129.395 272.673 129.141C282.131 128.759 284.856 118.958 286.571 117.888C287.708 117.162 288.9 117.615 293.701 120.574C295.109 121.427 291.012 130.03 297.69 132.97C298.394 133.279 296.86 134.223 298.574 134.785C298.845 134.785 299.82 133.17 301.372 131.863C308.989 125.384 317.996 130.647 310.397 142.88C308.881 145.294 307.365 147.381 300.74 150.14C292.131 153.77 291.102 131.609 290.939 171.92C290.939 183.355 292.167 186.785 308.141 194.571C308.773 194.88 303.231 199.036 303.195 199.054C293.575 205.988 299.224 202.684 288.575 206.986C286.77 207.676 279.315 210.779 279.189 209.636C277.745 197.493 274.857 194.717 272.871 187.602C271.066 181.322 269.045 179.725 268.864 177.619C268.611 174.534 261.644 168.544 260.796 167.455C260.489 167.092 260.525 166.947 260.976 166.784C281.319 160.123 278.232 155.059 276.174 156.275C271.987 158.725 253.233 165.477 244.497 155.404C234.804 144.55 234.587 124.893 238.558 126.128L238.594 126.055ZM244.28 176.24C245.551 173.979 246.453 171.528 246.951 168.98C246.998 168.795 246.985 168.6 246.915 168.423C246.845 168.246 246.721 168.096 246.561 167.994C246.401 167.891 246.214 167.842 246.025 167.853C245.835 167.864 245.655 167.934 245.507 168.054C239.244 172.301 228.198 165.64 230.815 165.441C232.385 165.314 242.926 160.431 237.836 158.725C231.826 156.71 229.1 152.028 229.822 151.81C232.641 151.622 235.408 150.947 237.999 149.813C240.381 148.67 237.999 154.351 249.099 161.23C248.595 161.796 248.315 162.529 248.315 163.29C248.315 164.05 248.595 164.784 249.099 165.35C252.204 169.161 254.514 170.795 254.352 171.158C254.081 171.739 254.352 172.537 253.648 172.973C250.959 174.806 247.385 176.875 244.28 176.24ZM256.157 209.218C247.98 207.93 240.002 199.799 238.36 192.974C238.053 191.685 237.836 191.813 239.208 191.341C243.233 189.907 245.309 188.364 244.804 189.272C243.793 191.087 244.515 193.428 244.388 194.263C243.919 197.403 246.085 200.053 249.208 201.722C249.623 201.94 249.478 201.904 252.24 202.085C254.045 201.65 254.28 201.468 254.496 202.085C254.892 202.991 255.2 203.933 255.417 204.899C256.139 208.91 257.078 209.436 256.139 209.291L256.157 209.218ZM308.989 305.613C307.363 307.825 305.603 309.935 303.719 311.929C301.174 314.888 299.134 318.191 295.109 321.295C285.687 328.555 278.629 326.74 270.416 317.066C269.173 314.94 268.288 312.621 267.799 310.205C266.626 305.432 264.532 304.107 263.07 298.698C259.244 284.559 263.413 216.242 263.792 215.898C265.344 214.464 262.926 215.172 259.442 210.598C256.608 206.968 257.926 203.084 252.222 193.755C252.108 193.502 251.939 193.279 251.726 193.103C251.513 192.927 251.263 192.802 250.995 192.738C249.894 192.557 250.796 193.991 251.302 195.116C252.06 196.767 250.507 195.715 250.219 195.697C249.478 195.606 248.973 196.459 251.5 197.947C251.807 198.129 252.637 198.147 252.854 198.437C253.065 198.842 253.218 199.276 253.305 199.726C253.305 199.98 253.305 200.053 253.07 200.071C251.085 200.307 250.219 200.724 248.576 199.327C247.637 198.528 245.959 196.713 245.995 195.479C246.085 191.849 245.471 190.034 248.576 188.219C249.785 187.547 250.002 186.404 250.074 185.061C250.2 182.592 252.673 183.935 253.684 180.723C255.128 176.149 261.734 180.178 260.778 177.619C257.854 169.905 248.684 164.914 249.948 162.7C251.139 160.758 255.471 164.37 256.608 165.677C260.11 169.651 266.536 175.06 267.113 178.835C267.474 181.086 269.045 181.884 270.615 187.184C273.449 196.695 276.662 200.742 277.041 211.251C277.636 227.586 294.405 290.276 294.423 290.331C294.892 291.311 296.011 290.912 295.957 289.877C295.307 277.698 288.557 264.267 290.217 264.177C292.955 263.986 295.694 264.525 298.159 265.737C299.82 266.99 310.072 276.156 310.975 277.009C314.711 280.457 318.881 281.655 321.57 285.793C323.483 288.643 323.989 284.396 308.971 305.686L308.989 305.613ZM254.839 176.494C255.67 172.211 255.579 172.374 256.085 172.864C256.989 173.863 257.727 175.003 258.269 176.24C258.648 176.948 257.493 176.694 257.475 176.621C254.893 177.093 254.587 177.311 254.731 176.567L254.839 176.494ZM332.31 295.594C332.234 295.747 332.129 295.881 332.003 295.994C331.904 295.894 331.812 295.783 331.732 295.667C326.823 288.407 324.35 286.592 323.195 284.523C321.733 281.927 317.509 279.241 314.964 277.68C313.285 276.646 310.018 273.27 307.437 271.219C301.607 266.591 301.462 263.668 293.141 262.525C291.878 262.343 289.947 262.906 289.64 262.652C289.333 262.398 289.64 261.962 291.102 259.131C292.327 256.574 293.797 254.143 295.488 251.871C302.961 241.271 301.444 241.816 303.989 237.442C308.466 229.673 309.639 230.617 316.805 222.922C326.624 212.358 327.112 212.122 327.761 210.453C328.05 209.672 327.364 209.309 327.003 209.69C304.549 233.539 306.697 228.748 302.094 237.387C291.896 256.554 297.852 243.213 289.152 258.986C288.232 260.637 278.322 215.099 279.279 212.05C279.55 211.179 280.561 212.576 288.304 209.273C300.018 204.245 293.845 208.329 303.647 201.069C308.61 197.439 310.867 193.392 315.902 196.423C322.4 200.343 324.747 198.728 330.848 200.543C334.079 201.505 333.754 202.575 347.309 208.075C351.28 209.69 351.84 213.211 352.309 216.678C354.638 234.955 353.013 237.169 332.202 295.667L332.31 295.594Z" fill="#1B1B1D"/>
    <path d="M327.725 37.084C328.05 37.084 328.284 37.084 328.176 37.6466C327.49 40.6051 331.479 43.0916 330.685 44.5255C329.606 46.6004 328.844 48.8279 328.429 51.1321C328.339 51.6766 328.826 51.3862 329.025 51.5495C329.783 52.2029 330.144 48.7907 332.093 45.1063C333.411 42.656 329.584 40.2058 329.674 38.1004C329.783 35.396 330.83 36.9388 333.284 37.7192C334.656 38.1548 335.703 37.7192 336.082 38.6267C336.328 39.1117 336.737 39.4919 337.237 39.6985C337.737 39.905 338.295 39.9241 338.808 39.752C340.468 39.3164 340.035 40.6051 341.984 41.0225C343.934 41.44 343.916 41.3492 343.916 42.0752C343.916 42.3293 343.916 42.6016 343.609 42.6742C342.681 42.9925 341.795 43.4254 340.974 43.9628C339.945 44.4529 340.396 43.618 338.681 44.7433C336.1 46.4312 336.533 45.3604 335.45 46.2134C333.645 47.6836 329.692 51.8762 330.956 52.8745C332.219 53.8727 332.364 51.2591 334.927 48.8996C337.49 46.5401 337.093 47.6836 337.959 47.0846C339.764 45.9593 340.017 45.796 340.288 45.7778C341.84 45.6508 343.031 44.344 344.205 44.2351C345.793 44.0899 345.378 42.6923 345.721 42.8012C346.064 42.9101 346.064 43.255 346.19 43.5635C347.327 46.4131 350.865 39.6976 348.139 38.8082C345.414 37.9189 344.692 39.8428 344.259 39.7339C340.071 38.7901 346.028 34.2509 343.609 32.9986C342.49 32.4178 338.248 38.8627 337.346 37.574C335.92 35.5049 336.949 37.574 330.252 34.8878C329.783 34.7063 329.53 34.0529 329.169 33.6173C328.808 33.1817 328.248 33.1817 327.581 33.0002C325.685 32.5465 324.566 36.485 327.725 37.084ZM347.363 40.3328C347.923 40.4962 347.508 41.8211 347.002 41.5489C345.089 40.5688 346.695 40.115 347.363 40.3328ZM327.508 34.4159C327.725 34.4159 328.104 35.0512 328.303 35.3597C327.31 36.1765 326.841 34.67 327.49 34.4159H327.508Z" fill="#1B1B1D"/>
    <path d="M340.324 232.614C334.332 235.699 326.336 241.308 307.834 242.451C307.13 242.451 306.426 242.778 306.517 243.504C306.607 244.23 321.949 245.047 340.812 234.102C343.303 232.632 341.967 231.779 340.324 232.614Z" fill="#1B1B1D"/>
    <path d="M310.65 237.569C320.307 234.538 332.725 224.864 331.931 223.811C330.361 221.796 326.39 229.891 310.126 236.28C309.549 236.498 309.802 237.387 310.65 237.569Z" fill="#1B1B1D"/>
    <path d="M303.845 114.04C304.151 114.367 311.281 120.865 312.057 118.85C312.346 118.088 311.877 117.87 309.386 116.127C296.408 107.27 290.903 89.338 284.73 85.4902C284.314 85.2361 283.971 86.2344 284.134 86.5429C285.553 88.1149 286.838 89.8026 287.979 91.5886C295.542 103.749 293.664 102.95 303.845 114.04Z" fill="#1B1B1D"/>
    <path d="M304.765 206.097C300.668 208.547 300.578 209.727 298.448 210.652C297.04 211.269 285.813 215.68 286.77 217.332C287.293 218.185 287.203 217.495 299.405 212.032C301.139 210.946 302.793 209.732 304.35 208.402C310.523 203.919 311.39 203.991 311.083 202.957C310.541 201.305 307.184 204.663 304.765 206.097Z" fill="#1B1B1D"/>
    <path d="M300.072 146.365C303.791 146.365 305.036 142.082 303.845 139.777C303.691 139.525 303.601 139.24 303.583 138.946C303.565 138.652 303.617 138.358 303.737 138.089C304.495 136.274 308.267 132.844 308.628 137.708C308.628 138.289 309.567 138.47 309.964 137.708C310.213 137.201 310.318 136.633 310.263 136.07C310.209 135.507 310 134.97 309.657 134.52C309.316 134.071 308.856 133.727 308.329 133.526C307.803 133.326 307.231 133.278 306.679 133.388C303.755 134.023 300.56 137.762 302.112 140.793C302.636 141.828 302.112 143.969 301.029 144.224C298.881 144.695 298.737 143.679 298.213 144.659C297.69 145.639 298.845 146.365 300.072 146.365Z" fill="#1B1B1D"/>
    <path d="M287.6 63.7102C287.708 62.476 287.347 59.0094 290.397 58.1745C292.852 57.4848 294.206 57.7207 295.307 55.7968C296.246 54.1633 295.307 53.6551 296.192 51.9672C299.152 46.5222 297.636 47.3571 301.607 45.6147C312.22 40.8775 303.412 34.8336 302.473 37.8828C301.986 39.3529 302.924 40.1878 303.556 38.7721C303.881 38.028 307.328 40.7142 303.267 42.9466C299.513 44.9976 297.69 44.9794 296.679 47.5749C295.668 50.1703 294.044 51.822 294.098 54.2178C294.098 55.9239 292.527 55.8694 290.704 56.2324C289.262 56.6297 287.999 57.514 287.129 58.7368C286.257 59.9595 285.831 61.4466 285.921 62.9479C285.957 66.2149 287.365 66.5416 287.6 63.7102Z" fill="#1B1B1D"/>
    <path d="M264.857 78.3572C263.689 78.33 262.528 78.5521 261.451 79.009C260.375 79.4656 259.408 80.1466 258.612 81.0071C257.547 82.1506 258.612 83.1851 259.695 82.2595C260.501 81.4215 261.503 80.7998 262.61 80.4512C263.716 80.1025 264.893 80.0377 266.03 80.263C279.532 82.078 280.47 98.8304 294.278 115.383C295.921 117.325 297.202 116.617 296.571 115.474C294.022 112.31 291.665 108.995 289.513 105.546C278.124 85.0001 277.023 80.1722 264.857 78.3572Z" fill="#1B1B1D"/>
    <path d="M265.94 95.2001C265.308 95.8716 264.839 97.3236 265.777 97.0151C267.077 96.4887 268.304 94.946 271.571 94.9823C276.102 94.9823 277.745 101.661 278.051 98.2674C277.672 92.8769 271.102 89.628 265.94 95.2001Z" fill="#1B1B1D"/>
    <path d="M269.063 116.563C270.037 116.563 270.092 115.909 270.344 114.911C270.055 112.987 268.539 113.096 268.178 114.203C267.817 115.31 267.998 116.508 269.063 116.563Z" fill="#1B1B1D"/>
    <path d="M254.442 80.7708C254.442 81.9868 254.442 84.2011 255.687 84.0015C257.33 83.7474 254.623 80.6619 257.131 76.7415C257.411 76.1981 257.807 75.724 258.29 75.3535C258.774 74.9831 259.334 74.7256 259.929 74.5998C260.139 74.5141 260.321 74.3754 260.46 74.1972C260.599 74.019 260.689 73.8075 260.723 73.5834C260.633 71.1876 254.37 73.8193 254.442 80.7708Z" fill="#1B1B1D"/>
    <path d="M242.475 13.5433C243.017 13.6885 243.793 12.908 244.659 12.7628C245.959 12.545 249.407 12.4361 250.074 13.7611C252.222 17.9174 244.948 23.1083 244.064 28.8437C243.504 32.4737 247.295 33.4175 253.089 35.0329C258.089 36.4123 248.775 42.8192 251.627 46.6852C252.096 47.3023 253.432 48.5002 254.515 49.6436C257.24 52.5113 253.702 56.341 255.489 56.7221C257.276 57.1033 258.594 51.1138 255.489 48.0827C252.042 44.5979 251.681 45.814 255.345 39.3707C256.302 37.6828 256.825 34.7243 254.731 33.8168C252.637 32.9093 252.926 33.5809 247.908 31.6207C240.255 28.6622 254.803 19.8776 251.356 13.0351C250.562 11.0749 248.883 11.2927 246.591 11.0749C241.97 10.966 241.807 13.3618 242.475 13.5433Z" fill="#1B1B1D"/>
    <path d="M252.998 139.722C252.998 139.069 252.601 137.163 251.084 137.127C249.279 137.127 249.009 139.831 250.308 141.156C251.084 141.973 252.565 142.155 252.998 139.722Z" fill="#1B1B1D"/>
    <path d="M246.41 113.495C246.266 111.68 244.84 111.68 244.605 112.37C243.468 114.421 245.832 116.345 246.41 113.495Z" fill="#1B1B1D"/>
    <path d="M215.4 176.676C174.264 190.451 175.69 189.381 176.863 191.668C185.22 209.146 184.931 208.329 186.43 208.493C190.545 207.295 224.118 196.096 224.335 195.987C226.645 195.189 225.309 193.918 219.136 181.322C216.97 176.748 217.042 176.131 215.4 176.676ZM223.197 194.553L186.52 206.732C186.087 206.732 186.682 207.767 178.524 191.54C178.109 190.724 175.924 191.831 201.682 183.155C206.158 181.649 210.418 180.142 215.201 178.563C216.447 178.164 215.454 176.93 220.616 187.638C223.883 194.608 224.028 194.281 223.215 194.553H223.197Z" fill="#1B1B1D"/>
    <path d="M213.307 193.228C213.072 193.228 189.697 200.488 188.037 201.287C187.224 201.632 186.484 202.721 187.477 202.975C187.802 202.975 214.209 195.225 215.599 193.609C214.877 192.266 214.263 193.192 213.307 193.228Z" fill="#1B1B1D"/>
    <path d="M191.52 191.65C194.498 191.123 194.39 190.161 196.141 190.252C199.48 189.798 200.744 188.437 203.776 187.675C206.809 186.912 207.675 187.13 210.039 185.86C210.617 185.569 211.014 184.553 209.787 184.299C209.57 184.299 208.18 184.716 206.177 185.224C199.047 187.039 198.054 188.383 196.213 188.346C194.083 188.346 194.174 189.217 190.997 189.925C183.777 191.541 184.95 192.23 183.019 192.321C182.784 192.321 182.405 192.884 182.333 193.102C182.17 193.755 184.138 194.136 185.076 193.61C187.084 192.559 189.27 191.895 191.52 191.65Z" fill="#1B1B1D"/>
    <path d="M197.621 101.081C200.256 97.5597 198.704 98.0679 207.386 101.081C207.567 101.165 207.769 101.189 207.965 101.15C208.16 101.111 208.338 101.01 208.472 100.863C208.607 100.715 208.691 100.529 208.714 100.329C208.736 100.131 208.694 99.9296 208.596 99.7559C207.645 97.6824 206.547 95.6809 205.31 93.7664C204.57 92.8226 208.379 88.7389 208.451 86.5064C208.559 83.2213 201.863 88.6844 200.401 86.7605C199.228 85.2178 197.441 83.5117 196.267 81.6422C195.744 80.7892 194.733 80.4806 194.571 81.497C193.181 90.7716 195.419 88.4847 190.275 90.4812C187.405 91.6065 187.315 91.5884 187.152 92.514C186.647 95.4362 193.361 95.8536 193.379 97.1786C193.488 103.15 193.253 102.787 193.379 104.039C193.405 104.207 193.475 104.365 193.582 104.497C193.69 104.628 193.83 104.728 193.989 104.785C194.148 104.843 194.319 104.856 194.486 104.824C194.651 104.792 194.806 104.715 194.932 104.602C195.925 103.506 196.824 102.328 197.621 101.081ZM193.56 95.0006C187.387 92.6774 187.387 93.1856 194.174 90.7172C195.654 90.1727 194.95 86.9238 195.979 84.1287C202.422 90.1908 196.989 89.6826 206.412 87.5046C205.022 91.2435 202.134 92.3144 203.794 94.2565C204.723 95.5631 205.526 96.9546 206.195 98.4128C206.646 99.1751 204.39 98.4128 201.195 97.2149C199.39 96.5433 199.805 95.1821 195.545 101.172C193.885 103.513 196.285 96.017 193.56 95.0006Z" fill="#1B1B1D"/>
    <path d="M162.875 69.3548C163.741 68.411 163.759 68.411 164.553 69.3548C165.362 70.3215 165.975 71.4373 166.358 72.64C166.683 73.8016 165.456 73.1845 165.077 73.2026C163.272 73.2026 164.012 74.5639 164.463 74.7817C168.903 76.9415 170.817 71.8051 170.943 73.493C171.142 75.7799 171.124 78.2665 171.232 81.2612C171.232 82.6225 172.333 83.657 173.254 82.8221C174.174 81.9872 176.629 79.4825 180.112 76.0703C185.816 70.462 186.051 70.6253 185.979 69.5182C185.148 57.3577 184.174 60.4432 188.145 56.1053C192.946 50.8963 202.585 40.2967 205.707 33.9442C210.527 24.3428 212.44 14.2333 207.946 13.7251C201.935 13.0535 191.484 18.3352 186.286 22.9271C182.558 26.1373 179.076 29.6259 175.871 33.3634C165.041 45.3242 168.109 43.3822 163.236 44.0356C153.435 45.3061 156.864 43.1825 144.68 56.5409C143.182 58.1926 144.247 59.3179 145.222 59.3179C148.147 59.0106 151.091 58.9135 154.03 59.0275C153.52 59.5582 153.145 60.2052 152.938 60.9131C152.73 61.6211 152.697 62.3691 152.839 63.0931C153.215 64.5316 153.97 65.8417 155.023 66.8864C155.619 67.2676 156.052 66.596 155.817 65.8882C155.709 65.5252 153.85 62.7664 154.391 62.0948C154.933 61.4233 156.305 62.0948 160.294 65.144C161.395 65.9789 159.283 66.7775 157.496 69.4274C156.467 70.9883 158.29 71.7869 158.777 72.1499C159.265 72.5129 159.716 72.5855 160.203 72.2407L162.875 69.3548ZM154.03 81.5698C141.395 101.535 138.579 122.444 148.326 148.434C148.507 148.888 149.121 150.939 149.734 150.522C151.684 149.233 141.377 132.898 144.771 108.867C147.893 86.7607 162.405 74.0012 162.821 72.0773C163.037 71.1335 162.694 70.7342 161.575 71.1698C158.81 74.4457 156.288 77.9216 154.03 81.5698ZM159.662 62.603C156.142 59.935 154.752 61.1147 155.42 59.9713C155.745 59.4086 156.07 58.7734 156.593 59.0093C159.102 59.2271 159.969 60.1891 163.001 62.2582C163.525 62.6212 163.109 63.0205 162.279 63.8372C161.792 64.3817 161.9 64.2728 159.734 62.603H159.662ZM159.445 70.8068C158.11 69.8812 157.514 71.7688 173.596 52.9291C174.391 52.0216 175.401 51.1141 175.889 52.3301C175.943 52.3846 159.536 70.7705 159.445 70.8068ZM169.102 72.6218C167.514 73.9831 168.94 72.6218 166.196 68.9918C164.932 67.322 164.77 67.322 165.005 67.0498C166.467 65.3255 166.16 64.5088 169.662 71.3876C170.023 71.8777 169.662 72.1499 169.156 72.5855L169.102 72.6218ZM173.29 80.8256C172.712 81.4246 172.983 81.4064 172.351 72.3133C172.351 71.4602 179.571 65.7793 181.899 62.9841C184.228 60.1891 183.704 60.6609 184.481 69.0099C184.86 69.7541 184.715 69.4637 173.344 80.7893L173.29 80.8256ZM190.13 22.5097C193.775 19.8049 197.87 17.7766 202.224 16.5202C209.065 14.7052 208.307 16.5202 208.632 19.2245C208.456 21.7929 207.896 24.3199 206.971 26.7205C202.621 37.3927 203 36.4307 201.809 34.289C196.285 24.3973 188.65 23.4353 190.13 22.5097ZM187.802 24.3247C190.112 22.1285 203.235 35.6866 201.339 38.2276C195.798 45.7054 176.521 67.4854 171.43 70.6253C170.37 68.5508 169.164 66.5552 167.82 64.654C167.369 63.9824 167.315 64.4362 173.687 57.3032C177.297 53.165 178.326 52.6931 177.062 51.1322C176.521 50.4607 175.077 49.4806 174.156 50.4244C173.235 51.3682 172.73 52.0034 168.199 57.2306C164.03 62.0222 164.896 61.4777 163.416 60.3524C157.46 55.8331 156.395 59.3905 160.203 54.5081C168.745 43.8635 177.945 33.7703 187.748 24.2884L187.802 24.3247ZM155.149 47.3752C155.889 46.504 155.889 46.6492 164.752 45.5602C166.142 45.3787 162.207 48.5912 159.337 52.9472C158.687 53.891 156.232 57.1943 155.276 57.3214C155.276 57.3214 146.251 57.5936 146.251 57.5392C145.872 57.2125 150.691 52.5842 155.149 47.3752Z" fill="#1B1B1D"/>
    <path d="M200.112 193.991C203.722 192.938 203.957 192.611 205.238 192.593C205.54 192.613 205.84 192.524 206.081 192.341C206.323 192.157 206.492 191.892 206.556 191.595C206.556 189.508 199.336 192.829 195.924 193.41C192.82 193.936 185.762 196.005 184.733 197.131C184.011 197.929 184.408 198.383 185.383 198.437C188.993 197.203 188.506 197.04 189.805 196.622C197.35 194.553 192.152 196.296 200.112 193.991Z" fill="#1B1B1D"/>
    <path d="M193.74 136.31C192.621 136.455 188.903 137.272 188.325 137.435C187.261 137.707 183.921 130.284 183.073 133.043C180.997 139.831 183.849 138.724 178.56 139.178C176.394 139.359 176.358 139.94 176.412 140.993C176.412 141.7 176.665 141.846 177.965 142.644C183.831 146.274 181.268 143.642 180.781 150.358C180.781 151.284 181.25 151.719 181.99 151.483C183.669 150.921 186.322 146.038 187.549 146.674C189.325 147.291 191.133 147.812 192.964 148.234C193.993 148.525 194.426 147.98 194.3 147.182C194.101 145.911 192.712 145.367 191.322 142.789C191.015 142.19 191.087 142.463 194.535 138.306C195.13 137.544 195.401 136.11 193.74 136.31ZM189.769 143.57C191.448 146.546 192.134 146.274 188.867 145.548C185.076 144.695 186.791 144.441 182.856 148.452C182.387 148.942 182.947 146.946 183.091 145.058C183.253 142.808 178.921 142.082 178.29 140.902C178.597 140.902 178.055 140.902 180.835 140.63C184.264 140.339 182.64 138.397 184.138 135.312C185.365 136.364 186.629 139.522 187.748 139.286C196.899 137.145 187.784 140.049 189.769 143.57Z" fill="#1B1B1D"/>
    <path d="M186.989 45.2335C195.707 44.7797 195.094 31.9477 186.718 32.1473C177.495 33.2726 179.174 45.5602 186.989 45.2335ZM186.033 33.926C186.735 33.8006 187.457 33.8331 188.146 34.0213C188.835 34.2095 189.474 34.5486 190.017 35.0145C190.56 35.4802 190.994 36.061 191.287 36.7153C191.581 37.3694 191.727 38.0809 191.714 38.7986C191.702 39.5162 191.532 40.2223 191.217 40.866C190.901 41.5098 190.448 42.0754 189.889 42.5222C189.33 42.9691 188.68 43.286 187.985 43.4504C187.291 43.6147 186.568 43.6225 185.87 43.4729C184.773 43.2379 183.79 42.6264 183.092 41.7434C182.393 40.8602 182.022 39.7603 182.041 38.6321C182.06 37.5039 182.469 36.4175 183.197 35.559C183.925 34.7005 184.928 34.1231 186.033 33.926Z" fill="#1B1B1D"/>
    <path d="M167.08 165.967C165.889 166.185 165.654 167.782 167.188 167.782C175.022 167.655 175.419 153.389 167.874 153.498C167.054 153.468 166.235 153.585 165.455 153.843C165.347 152.809 167.26 148.289 165.239 144.768C163.001 140.884 156.521 141.138 154.409 146.492C153.598 148.808 153.251 151.263 153.387 153.714C153.524 156.166 154.141 158.566 155.203 160.776C155.618 161.593 156.665 161.121 156.412 160.032C150.997 144.55 161.593 140.557 163.975 146.147C165.961 150.812 161.665 155.967 163.524 157.037C164.842 157.782 165.51 154.859 168.055 155.222C171.358 155.803 171.953 159.415 171.412 161.829C170.491 165.804 168.001 165.786 167.08 165.967Z" fill="#1B1B1D"/>
    <path d="M148.398 152.173C138.308 135.511 135.763 106.381 148.236 82.6404C151.104 77.5824 154.319 72.7307 157.856 68.1204C159.535 66.4688 157.856 65.5976 156.936 66.6503C146.485 79.083 138.29 97.0878 138.29 113.314C138.29 137.09 144.21 148.67 147.171 152.228C148.615 153.897 149.355 153.752 148.398 152.173Z" fill="#1B1B1D"/>
    <path d="M140.023 166.512C130.998 169.361 132.027 158.834 140.962 162.482C141.072 162.55 141.196 162.592 141.324 162.606C141.452 162.62 141.581 162.606 141.703 162.564C141.825 162.523 141.937 162.455 142.03 162.366C142.124 162.276 142.196 162.167 142.243 162.047C142.731 160.94 141.774 160.667 140.854 160.359C135.926 158.707 141.413 149.251 148.236 160.795C148.796 161.738 149.752 161.085 149.536 160.359C148.092 155.186 142.316 151.284 138.706 154.46C137.938 155.113 137.425 156.017 137.256 157.014C137.088 158.01 137.275 159.034 137.785 159.905C133.525 160.014 132.37 161.72 131.883 163.953C130.908 169.216 139.337 169.833 141.485 167.764C142.316 166.929 141.63 166.004 140.023 166.512Z" fill="#1B1B1D"/>
    <path d="M127.767 134.259C127.497 133.714 127.316 132.662 126.071 133.424C120.999 136.528 122.027 136.038 120.656 134.567C118.598 132.408 118.074 131.573 117.046 131.827C116.594 131.954 116.703 132.88 116.811 133.37C118.056 139.178 118.454 137.635 116.107 138.506C115.566 138.724 115.096 138.978 112.894 139.904C112.687 139.999 112.511 140.153 112.388 140.346C112.265 140.539 112.199 140.763 112.199 140.993C112.199 141.222 112.265 141.446 112.388 141.64C112.511 141.833 112.687 141.986 112.894 142.082C119.609 144.604 118.093 144.133 118.544 146.982C119.067 150.249 119.157 151.066 119.843 151.138C120.123 151.176 120.407 151.12 120.652 150.979C120.897 150.838 121.088 150.62 121.197 150.358C124.013 143.479 122.172 145.294 124.807 145.766C129.338 146.583 129.572 147.037 130.222 146.238C130.872 145.439 129.554 144.26 128.904 143.515C124.645 138.579 125.908 141.846 127.767 134.259ZM126.432 144.187C125.467 144.115 124.531 143.829 123.688 143.352C121.414 142.608 121.414 147.182 120.511 147.962C120.293 147.003 120.172 146.024 120.15 145.04C120.15 143.044 119.067 142.898 115.782 141.083C115.06 140.666 116.703 140.503 118.562 139.559C120.421 138.615 118.941 136.8 118.905 135.529C118.905 134.767 120.168 136.6 120.962 137.599C122.19 139.141 122.334 136.691 125.782 135.656C125.204 138.651 123.201 139.432 125.132 141.501C127.948 144.532 127.19 144.26 126.432 144.187Z" fill="#1B1B1D"/>
  </g>
  <rect x="1" y="1" width="500" height="270" rx="7" stroke="#1B1B1D" stroke-width="2"/>
  <defs>
    <linearGradient id="paint0_linear_3923_14030" x1="220.637" y1="354.519" x2="396.149" y2="269.618" gradientUnits="userSpaceOnUse">
      <stop stop-color="#00703F"/>
      <stop offset="1" stop-color="#36AA73"/>
    </linearGradient>
    <clipPath id="clip0_3923_14030">
      <rect width="502" height="272" rx="8" fill="white"/>
    </clipPath>
  </defs>
</svg>
