<svg width="84" height="67" viewBox="0 0 84 67" fill="none" xmlns="http://www.w3.org/2000/svg">
<path d="M-1 2.09375L9.77681 14.8264C11.3746 16.7142 14.2854 16.7142 15.8832 14.8264L23.6068 5.70106C25.2046 3.81331 28.1154 3.81331 29.7132 5.70106L37.4368 14.8264C39.0346 16.7142 41.9454 16.7142 43.5432 14.8264L51.2679 5.69976C52.8653 3.81245 55.7753 3.81193 57.3734 5.69867L65.1077 14.8301C66.7054 16.7164 69.6146 16.7164 71.2123 14.8301L82 2.09375" stroke="#B5B6BA" stroke-width="4" stroke-miterlimit="10"/>
<path d="M-1 50.4336L9.77681 63.1663C11.3746 65.054 14.2854 65.054 15.8832 63.1663L23.6068 54.0409C25.2046 52.1532 28.1154 52.1532 29.7132 54.0409L37.4368 63.1663C39.0346 65.054 41.9454 65.054 43.5432 63.1663L51.2679 54.0396C52.8653 52.1523 55.7753 52.1518 57.3734 54.0385L65.1077 63.17C66.7054 65.0563 69.6146 65.0563 71.2123 63.17L82 50.4336" stroke="#B5B6BA" stroke-width="4" stroke-miterlimit="10"/>
<path d="M-1 26.0938L9.77681 38.8264C11.3746 40.7142 14.2854 40.7142 15.8832 38.8264L23.6068 29.7011C25.2046 27.8133 28.1154 27.8133 29.7132 29.7011L37.4368 38.8264C39.0346 40.7142 41.9454 40.7142 43.5432 38.8264L51.2679 29.6998C52.8653 27.8125 55.7753 27.8119 57.3734 29.6987L65.1077 38.8301C66.7054 40.7164 69.6146 40.7164 71.2123 38.8301L82 26.0938" stroke="#B5B6BA" stroke-width="4" stroke-miterlimit="10"/>
</svg>
