<svg width="205" height="316" viewBox="0 0 205 316" fill="none" xmlns="http://www.w3.org/2000/svg">
<path fill-rule="evenodd" clip-rule="evenodd" d="M-157 0H205V316H-157V0ZM-156.434 0.564286H-112.316V44.5786H-156.434V0.564286ZM-111.184 0.564286H-67.0656V44.5786H-111.184V0.564286ZM-21.8156 0.564286H-65.9344V44.5786H-21.8156V0.564286ZM-20.6844 0.564286H23.4344V44.5786H-20.6844V0.564286ZM68.6844 0.564286H24.5656V44.5786H68.6844V0.564286ZM69.8156 0.564286H113.934V44.5786H69.8156V0.564286ZM159.184 0.564286H115.066V44.5786H159.184V0.564286ZM160.316 0.564286H204.434V44.5786H160.316V0.564286ZM-112.316 45.7071H-156.434V89.7214H-112.316V45.7071ZM-111.184 45.7071H-67.0656V89.7214H-111.184V45.7071ZM-21.8156 45.7071H-65.9344V89.7214H-21.8156V45.7071ZM-20.6844 45.7071H23.4344V89.7214H-20.6844V45.7071ZM68.6844 45.7071H24.5656V89.7214H68.6844V45.7071ZM69.8156 45.7071H113.934V89.7214H69.8156V45.7071ZM159.184 45.7071H115.066V89.7214H159.184V45.7071ZM160.316 45.7071H204.434V89.7214H160.316V45.7071ZM-112.316 90.85H-156.434V134.864H-112.316V90.85ZM-111.184 90.85H-67.0656V134.864H-111.184V90.85ZM-21.8156 90.85H-65.9344V134.864H-21.8156V90.85ZM-20.6844 90.85H23.4344V134.864H-20.6844V90.85ZM68.6844 90.85H24.5656V134.864H68.6844V90.85ZM69.8156 90.85H113.934V134.864H69.8156V90.85ZM159.184 90.85H115.066V134.864H159.184V90.85ZM160.316 90.85H204.434V134.864H160.316V90.85ZM-112.316 135.993H-156.434V180.007H-112.316V135.993ZM-111.184 135.993H-67.0656V180.007H-111.184V135.993ZM-21.8156 135.993H-65.9344V180.007H-21.8156V135.993ZM-20.6844 135.993H23.4344V180.007H-20.6844V135.993ZM68.6844 135.993H24.5656V180.007H68.6844V135.993ZM69.8156 135.993H113.934V180.007H69.8156V135.993ZM159.184 135.993H115.066V180.007H159.184V135.993ZM160.316 135.993H204.434V180.007H160.316V135.993ZM-112.316 181.136H-156.434V225.15H-112.316V181.136ZM-111.184 181.136H-67.0656V225.15H-111.184V181.136ZM-21.8156 181.136H-65.9344V225.15H-21.8156V181.136ZM-20.6844 181.136H23.4344V225.15H-20.6844V181.136ZM68.6844 181.136H24.5656V225.15H68.6844V181.136ZM69.8156 181.136H113.934V225.15H69.8156V181.136ZM159.184 181.136H115.066V225.15H159.184V181.136ZM160.316 181.136H204.434V225.15H160.316V181.136ZM-112.316 226.279H-156.434V270.293H-112.316V226.279ZM-111.184 226.279H-67.0656V270.293H-111.184V226.279ZM-21.8156 226.279H-65.9344V270.293H-21.8156V226.279ZM-20.6844 226.279H23.4344V270.293H-20.6844V226.279ZM68.6844 226.279H24.5656V270.293H68.6844V226.279ZM69.8156 226.279H113.934V270.293H69.8156V226.279ZM159.184 226.279H115.066V270.293H159.184V226.279ZM160.316 226.279H204.434V270.293H160.316V226.279ZM-112.316 271.421H-156.434V315.436H-112.316V271.421ZM-111.184 271.421H-67.0656V315.436H-111.184V271.421ZM-21.8156 271.421H-65.9344V315.436H-21.8156V271.421ZM-20.6844 271.421H23.4344V315.436H-20.6844V271.421ZM68.6844 271.421H24.5656V315.436H68.6844V271.421ZM69.8156 271.421H113.934V315.436H69.8156V271.421ZM159.184 271.421H115.066V315.436H159.184V271.421ZM160.316 271.421H204.434V315.436H160.316V271.421Z" fill="#422648"/>
</svg>
