<svg width="257" height="316" viewBox="0 0 257 316" fill="none" xmlns="http://www.w3.org/2000/svg">
<path fill-rule="evenodd" clip-rule="evenodd" d="M0 0H362V316H0V0ZM0.565625 0.564286H44.6844V44.5786H0.565625V0.564286ZM45.8156 0.564286H89.9344V44.5786H45.8156V0.564286ZM135.184 0.564286H91.0656V44.5786H135.184V0.564286ZM136.316 0.564286H180.434V44.5786H136.316V0.564286ZM225.684 0.564286H181.566V44.5786H225.684V0.564286ZM226.816 0.564286H270.934V44.5786H226.816V0.564286ZM316.184 0.564286H272.066V44.5786H316.184V0.564286ZM317.316 0.564286H361.434V44.5786H317.316V0.564286ZM44.6844 45.7071H0.565625V89.7214H44.6844V45.7071ZM45.8156 45.7071H89.9344V89.7214H45.8156V45.7071ZM135.184 45.7071H91.0656V89.7214H135.184V45.7071ZM136.316 45.7071H180.434V89.7214H136.316V45.7071ZM225.684 45.7071H181.566V89.7214H225.684V45.7071ZM226.816 45.7071H270.934V89.7214H226.816V45.7071ZM316.184 45.7071H272.066V89.7214H316.184V45.7071ZM317.316 45.7071H361.434V89.7214H317.316V45.7071ZM44.6844 90.85H0.565625V134.864H44.6844V90.85ZM45.8156 90.85H89.9344V134.864H45.8156V90.85ZM135.184 90.85H91.0656V134.864H135.184V90.85ZM136.316 90.85H180.434V134.864H136.316V90.85ZM225.684 90.85H181.566V134.864H225.684V90.85ZM226.816 90.85H270.934V134.864H226.816V90.85ZM316.184 90.85H272.066V134.864H316.184V90.85ZM317.316 90.85H361.434V134.864H317.316V90.85ZM44.6844 135.993H0.565625V180.007H44.6844V135.993ZM45.8156 135.993H89.9344V180.007H45.8156V135.993ZM135.184 135.993H91.0656V180.007H135.184V135.993ZM136.316 135.993H180.434V180.007H136.316V135.993ZM225.684 135.993H181.566V180.007H225.684V135.993ZM226.816 135.993H270.934V180.007H226.816V135.993ZM316.184 135.993H272.066V180.007H316.184V135.993ZM317.316 135.993H361.434V180.007H317.316V135.993ZM44.6844 181.136H0.565625V225.15H44.6844V181.136ZM45.8156 181.136H89.9344V225.15H45.8156V181.136ZM135.184 181.136H91.0656V225.15H135.184V181.136ZM136.316 181.136H180.434V225.15H136.316V181.136ZM225.684 181.136H181.566V225.15H225.684V181.136ZM226.816 181.136H270.934V225.15H226.816V181.136ZM316.184 181.136H272.066V225.15H316.184V181.136ZM317.316 181.136H361.434V225.15H317.316V181.136ZM44.6844 226.279H0.565625V270.293H44.6844V226.279ZM45.8156 226.279H89.9344V270.293H45.8156V226.279ZM135.184 226.279H91.0656V270.293H135.184V226.279ZM136.316 226.279H180.434V270.293H136.316V226.279ZM225.684 226.279H181.566V270.293H225.684V226.279ZM226.816 226.279H270.934V270.293H226.816V226.279ZM316.184 226.279H272.066V270.293H316.184V226.279ZM317.316 226.279H361.434V270.293H317.316V226.279ZM44.6844 271.421H0.565625V315.436H44.6844V271.421ZM45.8156 271.421H89.9344V315.436H45.8156V271.421ZM135.184 271.421H91.0656V315.436H135.184V271.421ZM136.316 271.421H180.434V315.436H136.316V271.421ZM225.684 271.421H181.566V315.436H225.684V271.421ZM226.816 271.421H270.934V315.436H226.816V271.421ZM316.184 271.421H272.066V315.436H316.184V271.421ZM317.316 271.421H361.434V315.436H317.316V271.421Z" fill="#422648"/>
</svg>
