<svg width="102" height="127" viewBox="0 0 102 127" fill="none" xmlns="http://www.w3.org/2000/svg">
<mask id="path-1-outside-1_1950_113523" maskUnits="userSpaceOnUse" x="-60.2437" y="-60.2425" width="247.487" height="247.487" fill="black">
<rect fill="white" x="-60.2437" y="-60.2425" width="247.487" height="247.487"/>
<path d="M120.588 11.1977C117.949 11.1977 115.815 9.0638 115.815 6.42511C115.815 3.78642 117.949 1.65252 120.588 1.65251C123.226 1.65251 125.36 3.78642 125.36 6.42511C125.36 9.04085 123.215 11.1862 120.588 11.1977ZM125.372 34.9574C125.372 32.3187 123.238 30.1848 120.599 30.1848C117.96 30.1848 115.826 32.3187 115.826 34.9574C115.826 37.5961 117.96 39.73 120.599 39.73C123.215 39.73 125.36 37.5846 125.372 34.9574ZM125.36 63.4897C125.36 60.851 123.226 58.7171 120.588 58.7171C117.949 58.7171 115.815 60.851 115.815 63.4897C115.815 66.1284 117.949 68.2623 120.588 68.2623C123.226 68.2623 125.36 66.1284 125.36 63.4897ZM125.36 92.0334C125.36 89.3948 123.226 87.2609 120.588 87.2608C117.949 87.2608 115.815 89.3948 115.815 92.0335C115.815 94.6722 117.949 96.8061 120.588 96.8061C123.226 96.8061 125.36 94.6721 125.36 92.0334ZM125.36 120.577C125.36 117.939 123.226 115.805 120.588 115.805C117.949 115.805 115.815 117.939 115.815 120.577C115.815 123.216 117.949 125.35 120.588 125.35C123.226 125.35 125.36 123.216 125.36 120.577ZM96.8279 6.41363C96.8279 3.77494 94.694 1.64103 92.0553 1.64103C89.4166 1.64103 87.2827 3.77493 87.2827 6.41363C87.2827 9.05232 89.4166 11.1862 92.0553 11.1862C94.6825 11.1977 96.8279 9.05232 96.8279 6.41363ZM96.8279 34.9574C96.8279 32.3187 94.694 30.1848 92.0553 30.1848C89.4166 30.1848 87.2827 32.3187 87.2827 34.9574C87.2827 37.5961 89.4166 39.73 92.0553 39.73C94.6825 39.7185 96.8164 37.5846 96.8279 34.9574ZM96.8279 63.5011C96.8279 60.8625 94.694 58.7286 92.0553 58.7286C89.4166 58.7286 87.2827 60.8625 87.2827 63.5012C87.2827 66.1399 89.4166 68.2738 92.0553 68.2738C94.6825 68.2623 96.8164 66.1284 96.8279 63.5011ZM96.8164 92.0335C96.8164 89.3948 94.6825 87.2609 92.0438 87.2609C89.4051 87.2609 87.2712 89.3948 87.2712 92.0335C87.2712 94.6722 89.4051 96.8061 92.0438 96.8061C94.6825 96.8061 96.8164 94.6721 96.8164 92.0335ZM96.8164 120.577C96.8164 117.939 94.6825 115.805 92.0438 115.805C89.4051 115.805 87.2712 117.939 87.2712 120.577C87.2712 123.216 89.4051 125.35 92.0438 125.35C94.6825 125.35 96.8164 123.216 96.8164 120.577ZM68.2841 6.41363C68.2841 3.77493 66.1502 1.64103 63.5115 1.64103C60.8728 1.64103 58.7389 3.77493 58.7389 6.41363C58.7389 9.05232 60.8728 11.1862 63.5115 11.1862C66.1502 11.1862 68.2841 9.05232 68.2841 6.41363ZM68.2841 34.9574C68.2841 32.3187 66.1502 30.1848 63.5115 30.1848C60.8728 30.1848 58.7389 32.3187 58.7389 34.9574C58.7389 37.5961 60.8728 39.73 63.5115 39.73C66.1502 39.73 68.2841 37.5961 68.2841 34.9574ZM68.2841 63.5011C68.2841 60.8625 66.1502 58.7286 63.5115 58.7286C60.8728 58.7286 58.7389 60.8625 58.7389 63.5012C58.7389 66.1399 60.8728 68.2738 63.5115 68.2738C66.1387 68.2623 68.2726 66.1284 68.2841 63.5011ZM68.2841 92.0449C68.2841 89.4062 66.1502 87.2723 63.5115 87.2723C60.8728 87.2723 58.7389 89.4063 58.7389 92.045C58.7389 94.6837 60.8728 96.8176 63.5115 96.8176C66.1387 96.8061 68.2726 94.6721 68.2841 92.0449ZM68.2726 120.577C68.2726 117.939 66.1387 115.805 63.5 115.805C60.8613 115.805 58.7274 117.939 58.7274 120.577C58.7274 123.216 60.8613 125.35 63.5 125.35C66.1387 125.35 68.2726 123.216 68.2726 120.577ZM39.7403 6.41359C39.7403 3.7749 37.6064 1.64099 34.9677 1.64099C32.329 1.64099 30.1951 3.77494 30.1951 6.41363C30.1951 9.05232 32.329 11.1862 34.9677 11.1862C37.6064 11.1862 39.7403 9.05228 39.7403 6.41359ZM39.7403 34.9574C39.7403 32.3187 37.6064 30.1848 34.9677 30.1848C32.329 30.1848 30.1951 32.3187 30.1951 34.9574C30.1951 37.5961 32.329 39.73 34.9677 39.73C37.6064 39.73 39.7403 37.5961 39.7403 34.9574ZM39.7403 63.5011C39.7403 60.8625 37.6064 58.7285 34.9677 58.7285C32.329 58.7285 30.1951 60.8625 30.1951 63.5012C30.1951 66.1399 32.329 68.2738 34.9677 68.2738C37.6064 68.2738 39.7403 66.1398 39.7403 63.5011ZM39.7403 92.0449C39.7403 89.4062 37.6064 87.2723 34.9677 87.2723C32.329 87.2723 30.1951 89.4063 30.1951 92.045C30.1951 94.6837 32.329 96.8176 34.9677 96.8176C37.5949 96.8061 39.7289 94.6721 39.7403 92.0449ZM39.7403 120.589C39.7403 117.95 37.6064 115.816 34.9677 115.816C32.329 115.816 30.1951 117.95 30.1951 120.589C30.1951 123.227 32.329 125.361 34.9677 125.361C37.5949 125.35 39.7289 123.216 39.7403 120.589ZM11.1965 6.41359C11.1965 3.7749 9.06264 1.641 6.42395 1.641C3.78526 1.641 1.65132 3.77493 1.65132 6.41363C1.65132 9.05232 3.78522 11.1862 6.42392 11.1862C9.06261 11.1862 11.1965 9.05229 11.1965 6.41359ZM11.1966 34.9574C11.1966 32.3187 9.06265 30.1848 6.42396 30.1848C3.78526 30.1848 1.65132 32.3187 1.65132 34.9574C1.65132 37.5961 3.78522 39.73 6.42392 39.73C9.06261 39.73 11.1966 37.5961 11.1966 34.9574ZM11.1965 63.5011C11.1965 60.8625 9.06264 58.7286 6.42395 58.7286C3.78526 58.7286 1.65131 60.8625 1.65131 63.5012C1.65131 66.1399 3.78521 68.2738 6.42391 68.2738C9.0626 68.2738 11.1965 66.1398 11.1965 63.5011ZM11.1965 92.0449C11.1966 89.4062 9.06265 87.2723 6.42395 87.2723C3.78525 87.2723 1.65132 89.4063 1.65131 92.045C1.65131 94.6837 3.78521 96.8176 6.42391 96.8176C9.06261 96.8176 11.1965 94.6836 11.1965 92.0449ZM11.1965 120.589C11.1965 117.95 9.06265 115.816 6.42395 115.816C3.78525 115.816 1.65132 117.95 1.65131 120.589C1.65131 123.227 3.78521 125.361 6.42391 125.361C9.0626 125.361 11.1851 123.216 11.1965 120.589Z"/>
</mask>
<path d="M120.588 11.1977C117.949 11.1977 115.815 9.0638 115.815 6.42511C115.815 3.78642 117.949 1.65252 120.588 1.65251C123.226 1.65251 125.36 3.78642 125.36 6.42511C125.36 9.04085 123.215 11.1862 120.588 11.1977ZM125.372 34.9574C125.372 32.3187 123.238 30.1848 120.599 30.1848C117.96 30.1848 115.826 32.3187 115.826 34.9574C115.826 37.5961 117.96 39.73 120.599 39.73C123.215 39.73 125.36 37.5846 125.372 34.9574ZM125.36 63.4897C125.36 60.851 123.226 58.7171 120.588 58.7171C117.949 58.7171 115.815 60.851 115.815 63.4897C115.815 66.1284 117.949 68.2623 120.588 68.2623C123.226 68.2623 125.36 66.1284 125.36 63.4897ZM125.36 92.0334C125.36 89.3948 123.226 87.2609 120.588 87.2608C117.949 87.2608 115.815 89.3948 115.815 92.0335C115.815 94.6722 117.949 96.8061 120.588 96.8061C123.226 96.8061 125.36 94.6721 125.36 92.0334ZM125.36 120.577C125.36 117.939 123.226 115.805 120.588 115.805C117.949 115.805 115.815 117.939 115.815 120.577C115.815 123.216 117.949 125.35 120.588 125.35C123.226 125.35 125.36 123.216 125.36 120.577ZM96.8279 6.41363C96.8279 3.77494 94.694 1.64103 92.0553 1.64103C89.4166 1.64103 87.2827 3.77493 87.2827 6.41363C87.2827 9.05232 89.4166 11.1862 92.0553 11.1862C94.6825 11.1977 96.8279 9.05232 96.8279 6.41363ZM96.8279 34.9574C96.8279 32.3187 94.694 30.1848 92.0553 30.1848C89.4166 30.1848 87.2827 32.3187 87.2827 34.9574C87.2827 37.5961 89.4166 39.73 92.0553 39.73C94.6825 39.7185 96.8164 37.5846 96.8279 34.9574ZM96.8279 63.5011C96.8279 60.8625 94.694 58.7286 92.0553 58.7286C89.4166 58.7286 87.2827 60.8625 87.2827 63.5012C87.2827 66.1399 89.4166 68.2738 92.0553 68.2738C94.6825 68.2623 96.8164 66.1284 96.8279 63.5011ZM96.8164 92.0335C96.8164 89.3948 94.6825 87.2609 92.0438 87.2609C89.4051 87.2609 87.2712 89.3948 87.2712 92.0335C87.2712 94.6722 89.4051 96.8061 92.0438 96.8061C94.6825 96.8061 96.8164 94.6721 96.8164 92.0335ZM96.8164 120.577C96.8164 117.939 94.6825 115.805 92.0438 115.805C89.4051 115.805 87.2712 117.939 87.2712 120.577C87.2712 123.216 89.4051 125.35 92.0438 125.35C94.6825 125.35 96.8164 123.216 96.8164 120.577ZM68.2841 6.41363C68.2841 3.77493 66.1502 1.64103 63.5115 1.64103C60.8728 1.64103 58.7389 3.77493 58.7389 6.41363C58.7389 9.05232 60.8728 11.1862 63.5115 11.1862C66.1502 11.1862 68.2841 9.05232 68.2841 6.41363ZM68.2841 34.9574C68.2841 32.3187 66.1502 30.1848 63.5115 30.1848C60.8728 30.1848 58.7389 32.3187 58.7389 34.9574C58.7389 37.5961 60.8728 39.73 63.5115 39.73C66.1502 39.73 68.2841 37.5961 68.2841 34.9574ZM68.2841 63.5011C68.2841 60.8625 66.1502 58.7286 63.5115 58.7286C60.8728 58.7286 58.7389 60.8625 58.7389 63.5012C58.7389 66.1399 60.8728 68.2738 63.5115 68.2738C66.1387 68.2623 68.2726 66.1284 68.2841 63.5011ZM68.2841 92.0449C68.2841 89.4062 66.1502 87.2723 63.5115 87.2723C60.8728 87.2723 58.7389 89.4063 58.7389 92.045C58.7389 94.6837 60.8728 96.8176 63.5115 96.8176C66.1387 96.8061 68.2726 94.6721 68.2841 92.0449ZM68.2726 120.577C68.2726 117.939 66.1387 115.805 63.5 115.805C60.8613 115.805 58.7274 117.939 58.7274 120.577C58.7274 123.216 60.8613 125.35 63.5 125.35C66.1387 125.35 68.2726 123.216 68.2726 120.577ZM39.7403 6.41359C39.7403 3.7749 37.6064 1.64099 34.9677 1.64099C32.329 1.64099 30.1951 3.77494 30.1951 6.41363C30.1951 9.05232 32.329 11.1862 34.9677 11.1862C37.6064 11.1862 39.7403 9.05228 39.7403 6.41359ZM39.7403 34.9574C39.7403 32.3187 37.6064 30.1848 34.9677 30.1848C32.329 30.1848 30.1951 32.3187 30.1951 34.9574C30.1951 37.5961 32.329 39.73 34.9677 39.73C37.6064 39.73 39.7403 37.5961 39.7403 34.9574ZM39.7403 63.5011C39.7403 60.8625 37.6064 58.7285 34.9677 58.7285C32.329 58.7285 30.1951 60.8625 30.1951 63.5012C30.1951 66.1399 32.329 68.2738 34.9677 68.2738C37.6064 68.2738 39.7403 66.1398 39.7403 63.5011ZM39.7403 92.0449C39.7403 89.4062 37.6064 87.2723 34.9677 87.2723C32.329 87.2723 30.1951 89.4063 30.1951 92.045C30.1951 94.6837 32.329 96.8176 34.9677 96.8176C37.5949 96.8061 39.7289 94.6721 39.7403 92.0449ZM39.7403 120.589C39.7403 117.95 37.6064 115.816 34.9677 115.816C32.329 115.816 30.1951 117.95 30.1951 120.589C30.1951 123.227 32.329 125.361 34.9677 125.361C37.5949 125.35 39.7289 123.216 39.7403 120.589ZM11.1965 6.41359C11.1965 3.7749 9.06264 1.641 6.42395 1.641C3.78526 1.641 1.65132 3.77493 1.65132 6.41363C1.65132 9.05232 3.78522 11.1862 6.42392 11.1862C9.06261 11.1862 11.1965 9.05229 11.1965 6.41359ZM11.1966 34.9574C11.1966 32.3187 9.06265 30.1848 6.42396 30.1848C3.78526 30.1848 1.65132 32.3187 1.65132 34.9574C1.65132 37.5961 3.78522 39.73 6.42392 39.73C9.06261 39.73 11.1966 37.5961 11.1966 34.9574ZM11.1965 63.5011C11.1965 60.8625 9.06264 58.7286 6.42395 58.7286C3.78526 58.7286 1.65131 60.8625 1.65131 63.5012C1.65131 66.1399 3.78521 68.2738 6.42391 68.2738C9.0626 68.2738 11.1965 66.1398 11.1965 63.5011ZM11.1965 92.0449C11.1966 89.4062 9.06265 87.2723 6.42395 87.2723C3.78525 87.2723 1.65132 89.4063 1.65131 92.045C1.65131 94.6837 3.78521 96.8176 6.42391 96.8176C9.06261 96.8176 11.1965 94.6836 11.1965 92.0449ZM11.1965 120.589C11.1965 117.95 9.06265 115.816 6.42395 115.816C3.78525 115.816 1.65132 117.95 1.65131 120.589C1.65131 123.227 3.78521 125.361 6.42391 125.361C9.0626 125.361 11.1851 123.216 11.1965 120.589Z" stroke="#9d9d9d" stroke-width="3" mask="url(#path-1-outside-1_1950_113523)"/>
</svg>
