<svg width="375" height="61" viewBox="0 0 375 61" fill="none" xmlns="http://www.w3.org/2000/svg">
  <rect width="375" height="60" transform="translate(0 0.5)" fill="#FFDA2E"/>
  <g clip-path="url(#clip0_1816_28357)">
    <path d="M288.409 47.4785H86.5898V50.5001H288.409V47.4785Z" fill="#0C0B0B"/>
    <path d="M288.409 21.7212H86.5898V45.9451H288.409V21.7212Z" fill="#0C0B0B"/>
    <path d="M90.4004 27.9429H94.4271C95.076 27.9429 95.6803 28.0192 96.2464 28.1719C96.8126 28.3246 97.3024 28.5472 97.7223 28.8398C98.1421 29.1324 98.4665 29.5078 98.7083 29.953C98.95 30.3983 99.0709 30.9136 99.0709 31.5116C99.0709 32.1095 98.95 32.6312 98.7146 33.0765C98.4729 33.5218 98.1676 33.8907 97.7795 34.1897C97.3915 34.4887 96.9526 34.7113 96.45 34.8576C95.9538 35.0039 95.4449 35.0803 94.9233 35.0803H93.2503V40.6083H90.4004V27.9492V27.9429ZM93.2503 33.9289H94.1727C94.4907 33.9289 94.7706 33.8653 95.0123 33.738C95.2541 33.6108 95.4513 33.4391 95.6103 33.2164C95.7693 32.9938 95.8902 32.7457 95.9665 32.453C96.0429 32.1668 96.0811 31.8678 96.0811 31.5497C96.0811 31.1681 96.0302 30.8309 95.9284 30.5383C95.8266 30.2457 95.6803 29.9912 95.5022 29.794C95.3241 29.5905 95.1078 29.4378 94.866 29.3296C94.6243 29.2215 94.3635 29.1706 94.09 29.1706H93.2439V33.9289H93.2503Z" fill="#FFD200"/>
    <path d="M111.018 27.9429V29.0179H105.222V33.1973H110.038V34.2787H105.222V39.3042H111.018V40.6019H102.392V27.9429H111.018Z" fill="#FFD200"/>
    <path d="M114.325 27.9429H118.524C119.599 27.9429 120.591 28.0765 121.494 28.3564C122.398 28.6299 123.174 29.037 123.829 29.565C124.478 30.093 124.987 30.7482 125.349 31.5179C125.712 32.2877 125.89 33.1719 125.89 34.1579C125.89 35.0485 125.737 35.8818 125.432 36.6706C125.127 37.4594 124.681 38.1401 124.09 38.719C123.498 39.2978 122.773 39.7622 121.921 40.0994C121.062 40.4365 120.082 40.6083 118.969 40.6083H114.325V27.9492V27.9429ZM117.156 39.3042H118.664C119.223 39.3042 119.745 39.1897 120.235 38.967C120.725 38.738 121.157 38.4136 121.526 37.9747C121.895 37.5421 122.188 37.0078 122.398 36.3716C122.614 35.7355 122.716 35.0103 122.716 34.1833C122.716 33.4709 122.614 32.8156 122.417 32.2113C122.213 31.607 121.933 31.079 121.577 30.6401C121.221 30.1948 120.788 29.8513 120.292 29.5968C119.796 29.3487 119.249 29.2215 118.664 29.2215H117.156V39.3042Z" fill="#FFD200"/>
    <path d="M128.606 27.9429H132.951C133.695 27.9429 134.351 28.0319 134.917 28.2037C135.483 28.3754 135.947 28.6172 136.323 28.9225C136.698 29.2279 136.978 29.5968 137.162 30.0167C137.347 30.4365 137.442 30.8945 137.442 31.3971C137.442 31.7533 137.379 32.0905 137.251 32.4149C137.124 32.7393 136.946 33.0319 136.711 33.3055C136.475 33.5726 136.202 33.8144 135.877 34.0243C135.553 34.2342 135.19 34.406 134.796 34.5459L138.912 40.6083H135.833L131.946 34.8767H131.444V40.6083H128.613V27.9492L128.606 27.9429ZM131.437 33.7762H132.054C132.398 33.7762 132.722 33.7253 133.015 33.6172C133.307 33.509 133.568 33.3564 133.785 33.1592C134.001 32.962 134.173 32.7202 134.293 32.4276C134.421 32.1413 134.478 31.8169 134.478 31.4543C134.478 31.1235 134.433 30.8182 134.338 30.5383C134.243 30.2584 134.109 30.0167 133.944 29.8131C133.778 29.6095 133.575 29.4505 133.346 29.336C133.117 29.2215 132.862 29.1642 132.589 29.1642H131.437V33.7698V33.7762Z" fill="#FFD200"/>
    <path d="M147.01 40.8883C146.386 40.8883 145.795 40.8119 145.222 40.6656C144.656 40.5129 144.128 40.2967 143.638 40.0168C143.148 39.7369 142.71 39.3997 142.309 39.0053C141.908 38.6109 141.571 38.1593 141.285 37.6631C141.005 37.1669 140.788 36.6262 140.629 36.0409C140.477 35.4557 140.4 34.8386 140.4 34.1898C140.4 33.5409 140.477 32.943 140.629 32.3705C140.782 31.7979 140.998 31.2699 141.285 30.7928C141.565 30.3157 141.908 29.8768 142.309 29.4888C142.71 29.1007 143.155 28.7763 143.638 28.5028C144.128 28.2356 144.656 28.032 145.222 27.8857C145.788 27.7394 146.386 27.6694 147.01 27.6694C147.633 27.6694 148.225 27.7394 148.797 27.8857C149.363 28.032 149.891 28.242 150.381 28.5091C150.871 28.7763 151.31 29.1071 151.711 29.4888C152.112 29.8768 152.455 30.3094 152.735 30.7865C153.015 31.2699 153.231 31.7916 153.39 32.3641C153.543 32.9302 153.619 33.5346 153.619 34.1707C153.619 34.8386 153.543 35.4748 153.39 36.0664C153.238 36.658 153.021 37.2051 152.735 37.7012C152.455 38.1974 152.112 38.6427 151.711 39.0371C151.31 39.4315 150.865 39.7687 150.381 40.0422C149.891 40.3157 149.363 40.5257 148.797 40.672C148.231 40.8183 147.633 40.8883 147.01 40.8883ZM147.01 39.8132C147.57 39.8132 148.066 39.6732 148.498 39.3934C148.931 39.1135 149.287 38.7191 149.58 38.2165C149.872 37.714 150.095 37.1224 150.241 36.4353C150.388 35.7483 150.464 34.9977 150.464 34.1834C150.464 33.3692 150.388 32.6504 150.241 31.9824C150.095 31.3145 149.872 30.742 149.58 30.2649C149.287 29.7814 148.925 29.4124 148.498 29.1453C148.066 28.8781 147.57 28.7445 147.01 28.7445C146.45 28.7445 145.941 28.8781 145.509 29.1453C145.076 29.4124 144.713 29.7878 144.427 30.2649C144.134 30.742 143.918 31.3208 143.772 31.9824C143.626 32.6504 143.549 33.3819 143.549 34.1834C143.549 34.985 143.626 35.7483 143.772 36.4353C143.918 37.1224 144.141 37.714 144.427 38.2165C144.72 38.7191 145.076 39.1071 145.509 39.3934C145.941 39.6732 146.444 39.8132 147.01 39.8132Z" fill="#FFD200"/>
    <path d="M162.595 27.9429H166.793C167.868 27.9429 168.861 28.0765 169.764 28.3564C170.667 28.6299 171.443 29.037 172.099 29.565C172.747 30.093 173.256 30.7482 173.619 31.5179C173.981 32.2877 174.16 33.1719 174.16 34.1579C174.16 35.0485 174.007 35.8818 173.702 36.6706C173.396 37.4594 172.951 38.1401 172.359 38.719C171.768 39.2978 171.049 39.7622 170.19 40.0994C169.331 40.4365 168.352 40.6083 167.238 40.6083H162.595V27.9492V27.9429ZM165.426 39.3042H166.933C167.493 39.3042 168.015 39.1897 168.504 38.967C169.001 38.738 169.427 38.4136 169.796 37.9747C170.165 37.5421 170.457 37.0078 170.667 36.3716C170.877 35.7355 170.985 35.0103 170.985 34.1833C170.985 33.4709 170.884 32.8156 170.686 32.2113C170.483 31.607 170.203 31.079 169.847 30.6401C169.484 30.1948 169.058 29.8513 168.562 29.5968C168.065 29.3487 167.518 29.2215 166.933 29.2215H165.426V39.3042Z" fill="#FFD200"/>
    <path d="M185.14 27.9429V29.0179H179.344V33.1973H184.16V34.2787H179.344V39.3042H185.14V40.6019H176.514V27.9429H185.14Z" fill="#FFD200"/>
    <path d="M196.463 27.9429L200.286 36.6897L203.823 27.9429H205.649L200.451 40.7991H199.116L193.53 27.9429H196.463Z" fill="#FFD200"/>
    <path d="M212.328 27.6694L217.741 40.6084H214.84L213.396 37.1478H208.905L207.385 40.6084H205.451L211.094 27.6694H212.321H212.328ZM209.44 35.9646H212.919L211.208 31.8743L209.44 35.9646Z" fill="#FFD200"/>
    <path d="M220.312 27.9429H223.149V39.3042H229.046V40.6019H220.312V27.9429Z" fill="#FFD200"/>
    <path d="M231.78 27.9429H235.979C237.054 27.9429 238.046 28.0765 238.949 28.3564C239.853 28.6299 240.629 29.037 241.284 29.565C241.933 30.093 242.442 30.7482 242.804 31.5179C243.167 32.2877 243.345 33.1719 243.345 34.1579C243.345 35.0485 243.192 35.8818 242.887 36.6706C242.582 37.4594 242.137 38.1401 241.545 38.719C240.953 39.2978 240.228 39.7622 239.376 40.0994C238.517 40.4365 237.537 40.6083 236.424 40.6083H231.78V27.9492V27.9429ZM234.611 39.3042H236.119C236.678 39.3042 237.2 39.1897 237.696 38.967C238.186 38.738 238.619 38.4136 238.988 37.9747C239.357 37.5421 239.649 37.0078 239.859 36.3716C240.069 35.7355 240.177 35.0103 240.177 34.1833C240.177 33.4709 240.075 32.8156 239.878 32.2113C239.681 31.607 239.395 31.079 239.039 30.6401C238.682 30.1948 238.25 29.8513 237.754 29.5968C237.257 29.3487 236.71 29.2215 236.125 29.2215H234.617V39.3042H234.611Z" fill="#FFD200"/>
    <path d="M249.509 27.9429H246.679V40.6019H249.509V27.9429Z" fill="#FFD200"/>
    <path d="M255.235 27.9429L259.058 36.6897L262.595 27.9429H264.421L259.217 40.7991H257.888L252.303 27.9429H255.235Z" fill="#FFD200"/>
    <path d="M269.522 27.9429H266.691V40.6019H269.522V27.9429Z" fill="#FFD200"/>
    <path d="M279.185 27.6694L284.599 40.6084H281.698L280.254 37.1478H275.763L274.242 40.6084H272.309L277.951 27.6694H279.179H279.185ZM276.297 35.9646H279.777L278.066 31.8743L276.297 35.9646Z" fill="#FFD200"/>
    <path d="M86.6279 10.7988C86.6279 10.697 86.7106 10.6016 86.8251 10.6016H89.2297C90.4893 10.6016 91.5198 11.6257 91.5198 12.8662C91.5198 14.1067 90.4829 15.169 89.2361 15.169H87.9574V17.5736C87.9574 17.6754 87.862 17.7644 87.7602 17.7644H86.8251C86.7106 17.7644 86.6279 17.6754 86.6279 17.5736V10.7988ZM89.147 13.9222C89.7195 13.9222 90.203 13.4642 90.203 12.8598C90.203 12.2937 89.7195 11.8675 89.147 11.8675H87.9574V13.9285H89.147V13.9222Z" fill="#0C0B0B"/>
    <path d="M99.8594 10.7988C99.8594 10.697 99.9421 10.6016 100.057 10.6016H102.983C104.211 10.6016 105.216 11.5876 105.216 12.8026C105.216 13.7441 104.592 14.5138 103.702 14.87L105.107 17.4718C105.177 17.6054 105.107 17.7708 104.936 17.7708H103.861C103.765 17.7708 103.714 17.7199 103.695 17.6754L102.334 14.9654H101.195V17.5736C101.195 17.6754 101.106 17.7708 101.004 17.7708H100.063C99.9484 17.7708 99.8657 17.6754 99.8657 17.5736V10.7988H99.8594ZM102.875 13.8713C103.415 13.8713 103.886 13.4005 103.886 12.828C103.886 12.2873 103.415 11.8357 102.875 11.8357H101.208V13.8713H102.875Z" fill="#0C0B0B"/>
    <path d="M113.854 10.7988C113.854 10.697 113.937 10.6016 114.052 10.6016H118.218C118.333 10.6016 118.409 10.697 118.409 10.7988V11.6385C118.409 11.7402 118.327 11.8357 118.218 11.8357H115.19V13.515H117.716C117.818 13.515 117.913 13.6041 117.913 13.7059V14.5583C117.913 14.6728 117.818 14.7555 117.716 14.7555H115.19V16.5494H118.218C118.333 16.5494 118.409 16.6448 118.409 16.7466V17.5863C118.409 17.6881 118.327 17.7771 118.218 17.7771H114.052C113.937 17.7771 113.854 17.6881 113.854 17.5863V10.7988Z" fill="#0C0B0B"/>
    <path d="M126.939 10.7988C126.939 10.697 127.029 10.6016 127.137 10.6016H128.11C128.224 10.6016 128.307 10.697 128.307 10.7988V14.9845C128.307 15.856 128.899 16.543 129.789 16.543C130.68 16.543 131.284 15.856 131.284 14.9972V10.7988C131.284 10.697 131.367 10.6016 131.481 10.6016H132.455C132.556 10.6016 132.652 10.697 132.652 10.7988V15.0609C132.652 16.6194 131.411 17.8789 129.796 17.8789C128.18 17.8789 126.952 16.6194 126.952 15.0609V10.7988H126.939Z" fill="#0C0B0B"/>
    <path d="M141.577 10.6845C141.577 10.5827 141.673 10.5 141.774 10.5H142.029L146.291 15.0229H146.304V10.799C146.304 10.6972 146.386 10.6018 146.501 10.6018H147.442C147.544 10.6018 147.639 10.6972 147.639 10.799V17.6883C147.639 17.7901 147.544 17.8728 147.442 17.8728H147.194L142.913 13.1718H142.9V17.5738C142.9 17.6756 142.818 17.771 142.703 17.771H141.774C141.673 17.771 141.577 17.6819 141.577 17.5738V10.6845Z" fill="#0C0B0B"/>
    <path d="M156.857 10.6016H157.811C157.919 10.6016 158.002 10.6906 158.002 10.7924V17.5736C158.002 17.6817 157.913 17.7644 157.811 17.7644H156.863C156.755 17.7644 156.666 17.6754 156.666 17.5672V10.7988C156.666 10.6906 156.755 10.6016 156.863 10.6016H156.857Z" fill="#0C0B0B"/>
    <path d="M166.112 10.8687C166.049 10.7352 166.132 10.6016 166.284 10.6016H167.327C167.423 10.6016 167.48 10.6652 167.499 10.7161L169.465 15.1181H169.535L171.5 10.7161C171.52 10.6652 171.583 10.6016 171.672 10.6016H172.715C172.868 10.6016 172.951 10.7352 172.887 10.8687L169.713 17.7581C169.681 17.8217 169.63 17.8726 169.541 17.8726H169.439C169.344 17.8726 169.293 17.8217 169.268 17.7581L166.106 10.8687H166.112Z" fill="#0C0B0B"/>
    <path d="M181.005 10.7988C181.005 10.697 181.088 10.6016 181.202 10.6016H185.369C185.483 10.6016 185.566 10.697 185.566 10.7988V11.6385C185.566 11.7402 185.483 11.8357 185.369 11.8357H182.334V13.515H184.866C184.968 13.515 185.063 13.6041 185.063 13.7059V14.5583C185.063 14.6728 184.968 14.7555 184.866 14.7555H182.334V16.5494H185.369C185.483 16.5494 185.566 16.6448 185.566 16.7466V17.5863C185.566 17.6881 185.483 17.7771 185.369 17.7771H181.202C181.088 17.7771 181.005 17.6881 181.005 17.5863V10.7988Z" fill="#0C0B0B"/>
    <path d="M194.191 10.7988C194.191 10.697 194.274 10.6016 194.389 10.6016H197.315C198.543 10.6016 199.548 11.5876 199.548 12.8026C199.548 13.7441 198.924 14.5138 198.034 14.87L199.439 17.4718C199.509 17.6054 199.44 17.7708 199.268 17.7708H198.193C198.097 17.7708 198.046 17.7199 198.027 17.6754L196.666 14.9654H195.527V17.5736C195.527 17.6754 195.438 17.7708 195.336 17.7708H194.395C194.28 17.7708 194.198 17.6754 194.198 17.5736V10.7988H194.191ZM197.207 13.8713C197.747 13.8713 198.218 13.4005 198.218 12.828C198.218 12.2873 197.747 11.8357 197.207 11.8357H195.54V13.8713H197.207Z" fill="#0C0B0B"/>
    <path d="M207.767 16.7659L208.136 16.1298C208.219 15.9835 208.391 15.9835 208.486 16.0598C208.537 16.0916 209.37 16.6959 210.032 16.6959C210.566 16.6959 210.96 16.3461 210.96 15.9071C210.96 15.3855 210.522 15.0229 209.663 14.6794C208.702 14.2913 207.735 13.6743 207.735 12.4656C207.735 11.556 208.41 10.5 210.038 10.5C211.081 10.5 211.883 11.0344 212.086 11.187C212.188 11.2506 212.22 11.4224 212.15 11.5242L211.762 12.1094C211.679 12.2303 211.527 12.313 211.406 12.2303C211.323 12.1794 210.547 11.6641 209.981 11.6641C209.415 11.6641 209.078 12.0522 209.078 12.383C209.078 12.8664 209.453 13.1908 210.286 13.528C211.279 13.9288 212.424 14.5204 212.424 15.8435C212.424 16.8995 211.514 17.8728 210.07 17.8728C208.779 17.8728 208.022 17.2684 207.818 17.0712C207.729 16.9822 207.672 16.9313 207.767 16.7659Z" fill="#0C0B0B"/>
    <path d="M221.1 10.6016H222.054C222.162 10.6016 222.251 10.6906 222.251 10.7988V17.5799C222.251 17.6881 222.162 17.7708 222.061 17.7708H221.106C220.998 17.7708 220.909 17.6817 220.909 17.5736V10.7988C220.909 10.6906 220.998 10.6016 221.106 10.6016H221.1Z" fill="#0C0B0B"/>
    <path d="M232.245 11.8293H230.681C230.566 11.8293 230.483 11.7402 230.483 11.6321V10.7988C230.483 10.697 230.566 10.6016 230.681 10.6016H235.153C235.267 10.6016 235.35 10.6906 235.35 10.7988V11.6385C235.35 11.7402 235.267 11.8357 235.153 11.8357H233.588V17.5799C233.588 17.6817 233.499 17.7771 233.391 17.7771H232.436C232.335 17.7771 232.239 17.6817 232.239 17.5799V11.8293H232.245Z" fill="#0C0B0B"/>
    <path d="M242.264 17.5038L245.445 10.6145C245.477 10.5509 245.528 10.5 245.617 10.5H245.718C245.82 10.5 245.865 10.5509 245.89 10.6145L249.045 17.5038C249.109 17.6374 249.026 17.771 248.874 17.771H247.983C247.83 17.771 247.754 17.7074 247.684 17.5674L247.182 16.4606H244.122L243.619 17.5674C243.581 17.6692 243.486 17.771 243.32 17.771H242.43C242.277 17.771 242.194 17.6374 242.258 17.5038M246.685 15.3219L245.661 13.07H245.629L244.624 15.3219H246.685Z" fill="#0C0B0B"/>
    <path d="M257.156 10.7988C257.156 10.697 257.239 10.6016 257.353 10.6016H260.28C261.507 10.6016 262.512 11.5876 262.512 12.8026C262.512 13.7441 261.889 14.5138 260.999 14.87L262.404 17.4718C262.474 17.6054 262.404 17.7708 262.226 17.7708H261.151C261.056 17.7708 261.005 17.7199 260.986 17.6754L259.624 14.9654H258.486V17.5736C258.486 17.6754 258.39 17.7708 258.295 17.7708H257.353C257.239 17.7708 257.156 17.6754 257.156 17.5736V10.7988ZM260.165 13.8713C260.706 13.8713 261.177 13.4005 261.177 12.828C261.177 12.2873 260.706 11.8357 260.165 11.8357H258.498V13.8713H260.165Z" fill="#0C0B0B"/>
    <path d="M271.342 10.6016H272.296C272.404 10.6016 272.487 10.6906 272.487 10.7924V17.5736C272.487 17.6817 272.398 17.7644 272.296 17.7644H271.342C271.234 17.7644 271.145 17.6754 271.145 17.5672V10.7988C271.145 10.6906 271.234 10.6016 271.342 10.6016Z" fill="#0C0B0B"/>
    <path d="M284.688 10.5C286.736 10.5 288.371 12.1476 288.371 14.1959C288.371 16.2443 286.736 17.8728 284.688 17.8728C282.639 17.8728 281.011 16.2443 281.011 14.1959C281.011 12.1476 282.639 10.5 284.688 10.5ZM284.688 16.5433C285.979 16.5433 287.041 15.4873 287.041 14.1959C287.041 12.9046 285.979 11.8295 284.688 11.8295C283.396 11.8295 282.34 12.9046 282.34 14.1959C282.34 15.4873 283.396 16.5433 284.688 16.5433Z" fill="#0C0B0B"/>
  </g>
  <defs>
    <clipPath id="clip0_1816_28357">
      <rect width="201.819" height="40" fill="white" transform="translate(86.5898 10.5)"/>
    </clipPath>
  </defs>
</svg>
