<svg width="202" height="40" viewBox="0 0 202 40" fill="none" xmlns="http://www.w3.org/2000/svg">
  <g clip-path="url(#clip0_1835_21730)">
    <path d="M201.91 36.9785H0.090332V40.0001H201.91V36.9785Z" fill="#0C0B0B"/>
    <path d="M201.91 11.2212H0.090332V35.4451H201.91V11.2212Z" fill="#0C0B0B"/>
    <path d="M3.90088 17.4429H7.9276C8.57645 17.4429 9.18078 17.5192 9.74693 17.6719C10.3131 17.8246 10.8029 18.0472 11.2228 18.3398C11.6426 18.6324 11.967 19.0078 12.2088 19.453C12.4505 19.8983 12.5714 20.4136 12.5714 21.0116C12.5714 21.6095 12.4505 22.1312 12.2151 22.5765C11.9734 23.0218 11.6681 23.3907 11.28 23.6897C10.892 23.9887 10.453 24.2113 9.9505 24.3576C9.45431 24.5039 8.94541 24.5803 8.42378 24.5803H6.75075V30.1083H3.90088V17.4492V17.4429ZM6.75075 23.4289H7.67314C7.99121 23.4289 8.27111 23.3653 8.51284 23.238C8.75457 23.1108 8.95177 22.9391 9.1108 22.7164C9.26984 22.4938 9.3907 22.2457 9.46704 21.953C9.54337 21.6668 9.58154 21.3678 9.58154 21.0497C9.58154 20.6681 9.53065 20.3309 9.42887 20.0383C9.32709 19.7457 9.18078 19.4912 9.00266 19.294C8.82454 19.0905 8.60826 18.9378 8.36653 18.8296C8.1248 18.7215 7.86398 18.6706 7.59045 18.6706H6.74439V23.4289H6.75075Z" fill="#FFD200"/>
    <path d="M24.5178 17.4429V18.5179H18.7226V22.6973H23.5382V23.7787H18.7226V28.8042H24.5178V30.1019H15.8918V17.4429H24.5178Z" fill="#FFD200"/>
    <path d="M27.8257 17.4429H32.0242C33.0992 17.4429 34.0916 17.5765 34.9949 17.8564C35.8982 18.1299 36.6743 18.537 37.3295 19.065C37.9784 19.593 38.4873 20.2482 38.8499 21.0179C39.2125 21.7877 39.3906 22.6719 39.3906 23.6579C39.3906 24.5485 39.2379 25.3818 38.9326 26.1706C38.6272 26.9594 38.1819 27.6401 37.5903 28.219C36.9987 28.7978 36.2735 29.2622 35.4211 29.5994C34.5623 29.9365 33.5827 30.1083 32.4695 30.1083H27.8257V17.4492V17.4429ZM30.6565 28.8042H32.1641C32.7239 28.8042 33.2455 28.6897 33.7354 28.467C34.2252 28.238 34.6577 27.9136 35.0267 27.4747C35.3957 27.0421 35.6883 26.5078 35.8982 25.8716C36.1145 25.2355 36.2163 24.5103 36.2163 23.6833C36.2163 22.9709 36.1145 22.3156 35.9173 21.7113C35.7137 21.107 35.4338 20.579 35.0776 20.1401C34.7214 19.6948 34.2888 19.3513 33.7926 19.0968C33.2964 18.8487 32.7493 18.7215 32.1641 18.7215H30.6565V28.8042Z" fill="#FFD200"/>
    <path d="M42.1069 17.4429H46.4517C47.196 17.4429 47.8512 17.5319 48.4174 17.7037C48.9835 17.8754 49.4479 18.1172 49.8232 18.4225C50.1985 18.7279 50.4784 19.0968 50.6629 19.5167C50.8474 19.9365 50.9428 20.3945 50.9428 20.8971C50.9428 21.2533 50.8792 21.5905 50.752 21.9149C50.6247 22.2393 50.4466 22.5319 50.2113 22.8055C49.9759 23.0726 49.7024 23.3144 49.3779 23.5243C49.0535 23.7342 48.6909 23.906 48.2965 24.0459L52.4123 30.1083H49.3334L45.4466 24.3767H44.9441V30.1083H42.1133V17.4492L42.1069 17.4429ZM44.9377 23.2762H45.5548C45.8983 23.2762 46.2227 23.2253 46.5153 23.1172C46.808 23.009 47.0688 22.8564 47.285 22.6592C47.5013 22.462 47.6731 22.2202 47.794 21.9276C47.9212 21.6413 47.9784 21.3169 47.9784 20.9543C47.9784 20.6235 47.9339 20.3182 47.8385 20.0383C47.7431 19.7584 47.6095 19.5167 47.4441 19.3131C47.2787 19.1095 47.0751 18.9505 46.8461 18.836C46.6171 18.7215 46.3627 18.6642 46.0891 18.6642H44.9377V23.2698V23.2762Z" fill="#FFD200"/>
    <path d="M60.5103 30.3883C59.8869 30.3883 59.2953 30.3119 58.7228 30.1656C58.1566 30.0129 57.6286 29.7967 57.1388 29.5168C56.649 29.2369 56.21 28.8997 55.8093 28.5053C55.4085 28.1109 55.0714 27.6593 54.7851 27.1631C54.5052 26.6669 54.2889 26.1262 54.1299 25.5409C53.9772 24.9557 53.9009 24.3386 53.9009 23.6898C53.9009 23.0409 53.9772 22.443 54.1299 21.8705C54.2826 21.2979 54.4988 20.7699 54.7851 20.2928C55.065 19.8157 55.4085 19.3768 55.8093 18.9888C56.21 18.6007 56.6553 18.2763 57.1388 18.0028C57.6286 17.7356 58.1566 17.532 58.7228 17.3857C59.2889 17.2394 59.8869 17.1694 60.5103 17.1694C61.1337 17.1694 61.7253 17.2394 62.2978 17.3857C62.864 17.532 63.392 17.742 63.8818 18.0091C64.3716 18.2763 64.8105 18.6071 65.2113 18.9888C65.6121 19.3768 65.9556 19.8094 66.2355 20.2865C66.5154 20.7699 66.7317 21.2916 66.8907 21.8641C67.0434 22.4302 67.1197 23.0346 67.1197 23.6707C67.1197 24.3386 67.0434 24.9748 66.8907 25.5664C66.738 26.158 66.5217 26.7051 66.2355 27.2012C65.9556 27.6974 65.6121 28.1427 65.2113 28.5371C64.8105 28.9315 64.3653 29.2687 63.8818 29.5422C63.392 29.8157 62.864 30.0257 62.2978 30.172C61.7317 30.3183 61.1337 30.3883 60.5103 30.3883ZM60.5103 29.3132C61.0701 29.3132 61.5663 29.1732 61.9988 28.8934C62.4314 28.6135 62.7876 28.2191 63.0803 27.7165C63.3729 27.214 63.5955 26.6224 63.7418 25.9353C63.8882 25.2483 63.9645 24.4977 63.9645 23.6834C63.9645 22.8692 63.8882 22.1504 63.7418 21.4824C63.5955 20.8145 63.3729 20.242 63.0803 19.7649C62.7876 19.2814 62.4251 18.9124 61.9988 18.6453C61.5663 18.3781 61.0701 18.2445 60.5103 18.2445C59.9505 18.2445 59.4416 18.3781 59.009 18.6453C58.5765 18.9124 58.2139 19.2878 57.9276 19.7649C57.635 20.242 57.4187 20.8208 57.2724 21.4824C57.1261 22.1504 57.0497 22.8819 57.0497 23.6834C57.0497 24.485 57.1261 25.2483 57.2724 25.9353C57.4187 26.6224 57.6413 27.214 57.9276 27.7165C58.2202 28.2191 58.5765 28.6071 59.009 28.8934C59.4416 29.1732 59.9441 29.3132 60.5103 29.3132Z" fill="#FFD200"/>
    <path d="M76.0955 17.4429H80.2939C81.369 17.4429 82.3614 17.5765 83.2647 17.8564C84.168 18.1299 84.9441 18.537 85.5993 19.065C86.2481 19.593 86.757 20.2482 87.1196 21.0179C87.4822 21.7877 87.6603 22.6719 87.6603 23.6579C87.6603 24.5485 87.5077 25.3818 87.2023 26.1706C86.897 26.9594 86.4517 27.6401 85.8601 28.219C85.2685 28.7978 84.5497 29.2622 83.6909 29.5994C82.8321 29.9365 81.8525 30.1083 80.7392 30.1083H76.0955V17.4492V17.4429ZM78.9262 28.8042H80.4339C80.9937 28.8042 81.5153 28.6897 82.0051 28.467C82.5013 28.238 82.9275 27.9136 83.2965 27.4747C83.6654 27.0421 83.9581 26.5078 84.168 25.8716C84.3779 25.2355 84.486 24.5103 84.486 23.6833C84.486 22.9709 84.3843 22.3156 84.1871 21.7113C83.9835 21.107 83.7036 20.579 83.3474 20.1401C82.9848 19.6948 82.5586 19.3513 82.0624 19.0968C81.5662 18.8487 81.0191 18.7215 80.4339 18.7215H78.9262V28.8042Z" fill="#FFD200"/>
    <path d="M98.6399 17.4429V18.5179H92.8447V22.6973H97.6602V23.7787H92.8447V28.8042H98.6399V30.1019H90.0139V17.4429H98.6399Z" fill="#FFD200"/>
    <path d="M109.963 17.4429L113.786 26.1897L117.323 17.4429H119.149L113.952 30.2991H112.616L107.031 17.4429H109.963Z" fill="#FFD200"/>
    <path d="M125.828 17.1694L131.242 30.1084H128.341L126.897 26.6478H122.406L120.885 30.1084H118.952L124.594 17.1694H125.822H125.828ZM122.94 25.4646H126.42L124.709 21.3743L122.94 25.4646Z" fill="#FFD200"/>
    <path d="M133.812 17.4429H136.649V28.8042H142.546V30.1019H133.812V17.4429Z" fill="#FFD200"/>
    <path d="M145.281 17.4429H149.48C150.555 17.4429 151.547 17.5765 152.45 17.8564C153.354 18.1299 154.13 18.537 154.785 19.065C155.434 19.593 155.943 20.2482 156.305 21.0179C156.668 21.7877 156.846 22.6719 156.846 23.6579C156.846 24.5485 156.693 25.3818 156.388 26.1706C156.083 26.9594 155.637 27.6401 155.046 28.219C154.454 28.7978 153.729 29.2622 152.877 29.5994C152.018 29.9365 151.038 30.1083 149.925 30.1083H145.281V17.4492V17.4429ZM148.112 28.8042H149.62C150.179 28.8042 150.701 28.6897 151.197 28.467C151.687 28.238 152.12 27.9136 152.489 27.4747C152.858 27.0421 153.15 26.5078 153.36 25.8716C153.57 25.2355 153.678 24.5103 153.678 23.6833C153.678 22.9709 153.576 22.3156 153.379 21.7113C153.182 21.107 152.896 20.579 152.54 20.1401C152.183 19.6948 151.751 19.3513 151.255 19.0968C150.758 18.8487 150.211 18.7215 149.626 18.7215H148.118V28.8042H148.112Z" fill="#FFD200"/>
    <path d="M163.01 17.4429H160.179V30.1019H163.01V17.4429Z" fill="#FFD200"/>
    <path d="M168.735 17.4429L172.558 26.1897L176.095 17.4429H177.921L172.717 30.2991H171.388L165.803 17.4429H168.735Z" fill="#FFD200"/>
    <path d="M183.023 17.4429H180.192V30.1019H183.023V17.4429Z" fill="#FFD200"/>
    <path d="M192.686 17.1694L198.099 30.1084H195.198L193.754 26.6478H189.263L187.743 30.1084H185.809L191.452 17.1694H192.679H192.686ZM189.798 25.4646H193.277L191.566 21.3743L189.798 25.4646Z" fill="#FFD200"/>
    <path d="M0.128418 0.298764C0.128418 0.196982 0.211115 0.101562 0.325619 0.101562H2.7302C3.98974 0.101562 5.02028 1.12574 5.02028 2.36619C5.02028 3.60665 3.98338 4.66899 2.73656 4.66899H1.45793V7.07357C1.45793 7.17535 1.36251 7.26441 1.26073 7.26441H0.325619C0.211115 7.26441 0.128418 7.17535 0.128418 7.07357V0.298764ZM2.6475 3.42217C3.22002 3.42217 3.70348 2.96416 3.70348 2.35983C3.70348 1.79367 3.22002 1.36747 2.6475 1.36747H1.45793V3.42853H2.6475V3.42217Z" fill="#0C0B0B"/>
    <path d="M13.3601 0.298764C13.3601 0.196982 13.4428 0.101562 13.5573 0.101562H16.4835C17.7113 0.101562 18.7163 1.08757 18.7163 2.30258C18.7163 3.24406 18.0929 4.01378 17.2023 4.37001L18.6082 6.97179C18.6782 7.10538 18.6082 7.27077 18.4364 7.27077H17.3614C17.266 7.27077 17.2151 7.21988 17.196 7.17535L15.8347 4.46543H14.696V7.07357C14.696 7.17535 14.6069 7.27077 14.5051 7.27077H13.5637C13.4492 7.27077 13.3665 7.17535 13.3665 7.07357V0.298764H13.3601ZM16.3754 3.37128C16.9161 3.37128 17.3868 2.90054 17.3868 2.32803C17.3868 1.78731 16.9161 1.33566 16.3754 1.33566H14.7087V3.37128H16.3754Z" fill="#0C0B0B"/>
    <path d="M27.355 0.298764C27.355 0.196982 27.4377 0.101562 27.5522 0.101562H31.7188C31.8334 0.101562 31.9097 0.196982 31.9097 0.298764V1.13846C31.9097 1.24024 31.827 1.33566 31.7188 1.33566H28.6909V3.01505H31.2163C31.3181 3.01505 31.4135 3.10411 31.4135 3.20589V4.05831C31.4135 4.17281 31.3181 4.25551 31.2163 4.25551H28.6909V6.0494H31.7188C31.8334 6.0494 31.9097 6.14482 31.9097 6.2466V7.0863C31.9097 7.18808 31.827 7.27713 31.7188 7.27713H27.5522C27.4377 7.27713 27.355 7.18808 27.355 7.0863V0.298764Z" fill="#0C0B0B"/>
    <path d="M40.4402 0.298764C40.4402 0.196982 40.5292 0.101562 40.6374 0.101562H41.6107C41.7252 0.101562 41.8079 0.196982 41.8079 0.298764V4.48451C41.8079 5.35602 42.3995 6.04304 43.2901 6.04304C44.1806 6.04304 44.785 5.35602 44.785 4.49724V0.298764C44.785 0.196982 44.8677 0.101562 44.9822 0.101562H45.9554C46.0572 0.101562 46.1527 0.196982 46.1527 0.298764V4.56085C46.1527 6.11937 44.9122 7.37892 43.2964 7.37892C41.6806 7.37892 40.4529 6.11937 40.4529 4.56085V0.298764H40.4402Z" fill="#0C0B0B"/>
    <path d="M55.0776 0.184478C55.0776 0.0826972 55.1731 0 55.2748 0H55.5293L59.7914 4.5229H59.8041V0.298982C59.8041 0.197201 59.8868 0.101781 60.0013 0.101781H60.9428C61.0446 0.101781 61.14 0.197201 61.14 0.298982V7.18829C61.14 7.29008 61.0446 7.37277 60.9428 7.37277H60.6947L56.4135 2.67176H56.4008V7.07379C56.4008 7.17557 56.3181 7.27099 56.2036 7.27099H55.2748C55.1731 7.27099 55.0776 7.18193 55.0776 7.07379V0.184478Z" fill="#0C0B0B"/>
    <path d="M70.3576 0.101562H71.3118C71.4199 0.101562 71.5026 0.190621 71.5026 0.292402V7.07357C71.5026 7.18172 71.4136 7.26441 71.3118 7.26441H70.3639C70.2558 7.26441 70.1667 7.17535 70.1667 7.06721V0.298764C70.1667 0.190621 70.2558 0.101562 70.3639 0.101562H70.3576Z" fill="#0C0B0B"/>
    <path d="M79.6132 0.368738C79.5495 0.23515 79.6322 0.101562 79.7849 0.101562H80.8282C80.9236 0.101562 80.9808 0.165176 80.9999 0.216066L82.9656 4.6181H83.0355L85.0012 0.216066C85.0203 0.165176 85.0839 0.101562 85.173 0.101562H86.2162C86.3689 0.101562 86.4516 0.23515 86.388 0.368738L83.2137 7.25805C83.1819 7.32166 83.131 7.37255 83.0419 7.37255H82.9401C82.8447 7.37255 82.7938 7.32166 82.7684 7.25805L79.6068 0.368738H79.6132Z" fill="#0C0B0B"/>
    <path d="M94.5051 0.298764C94.5051 0.196982 94.5878 0.101562 94.7023 0.101562H98.869C98.9835 0.101562 99.0662 0.196982 99.0662 0.298764V1.13846C99.0662 1.24024 98.9835 1.33566 98.869 1.33566H95.8346V3.01505H98.3665C98.4682 3.01505 98.5637 3.10411 98.5637 3.20589V4.05831C98.5637 4.17281 98.4682 4.25551 98.3665 4.25551H95.8346V6.0494H98.869C98.9835 6.0494 99.0662 6.14482 99.0662 6.2466V7.0863C99.0662 7.18808 98.9835 7.27713 98.869 7.27713H94.7023C94.5878 7.27713 94.5051 7.18808 94.5051 7.0863V0.298764Z" fill="#0C0B0B"/>
    <path d="M107.692 0.298764C107.692 0.196982 107.775 0.101562 107.889 0.101562H110.816C112.043 0.101562 113.048 1.08757 113.048 2.30258C113.048 3.24406 112.425 4.01378 111.534 4.37001L112.94 6.97179C113.01 7.10538 112.94 7.27077 112.768 7.27077H111.693C111.598 7.27077 111.547 7.21988 111.528 7.17535L110.167 4.46543H109.028V7.07357C109.028 7.17535 108.939 7.27077 108.837 7.27077H107.896C107.781 7.27077 107.699 7.17535 107.699 7.07357V0.298764H107.692ZM110.707 3.37128C111.248 3.37128 111.719 2.90054 111.719 2.32803C111.719 1.78731 111.248 1.33566 110.707 1.33566H109.041V3.37128H110.707Z" fill="#0C0B0B"/>
    <path d="M121.267 6.2659L121.636 5.62977C121.719 5.48346 121.891 5.48346 121.986 5.5598C122.037 5.5916 122.87 6.19593 123.532 6.19593C124.066 6.19593 124.46 5.84606 124.46 5.40712C124.46 4.8855 124.022 4.5229 123.163 4.17939C122.202 3.79135 121.235 3.1743 121.235 1.96565C121.235 1.05598 121.91 0 123.538 0C124.581 0 125.383 0.534351 125.586 0.687023C125.688 0.750636 125.72 0.922392 125.65 1.02417L125.262 1.60941C125.179 1.73028 125.027 1.81298 124.906 1.73028C124.823 1.67939 124.047 1.16412 123.481 1.16412C122.915 1.16412 122.578 1.55216 122.578 1.88295C122.578 2.36641 122.953 2.69084 123.786 3.02799C124.779 3.42875 125.924 4.02036 125.924 5.34351C125.924 6.39949 125.014 7.37277 123.57 7.37277C122.279 7.37277 121.522 6.76845 121.318 6.57125C121.229 6.48219 121.172 6.4313 121.267 6.2659Z" fill="#0C0B0B"/>
    <path d="M134.601 0.101562H135.555C135.663 0.101562 135.752 0.190621 135.752 0.298764V7.07993C135.752 7.18808 135.663 7.27077 135.561 7.27077H134.607C134.499 7.27077 134.41 7.18172 134.41 7.07357V0.298764C134.41 0.190621 134.499 0.101562 134.607 0.101562H134.601Z" fill="#0C0B0B"/>
    <path d="M145.745 1.3293H144.181C144.066 1.3293 143.983 1.24024 143.983 1.1321V0.298764C143.983 0.196982 144.066 0.101562 144.181 0.101562H148.653C148.767 0.101562 148.85 0.190621 148.85 0.298764V1.13846C148.85 1.24024 148.767 1.33566 148.653 1.33566H147.088V7.07993C147.088 7.18172 146.999 7.27713 146.891 7.27713H145.936C145.835 7.27713 145.739 7.18172 145.739 7.07993V1.3293H145.745Z" fill="#0C0B0B"/>
    <path d="M155.765 7.00382L158.945 0.114504C158.977 0.0508906 159.028 0 159.117 0H159.219C159.321 0 159.365 0.0508906 159.39 0.114504L162.546 7.00382C162.609 7.1374 162.527 7.27099 162.374 7.27099H161.483C161.331 7.27099 161.254 7.20738 161.184 7.06743L160.682 5.96056H157.622L157.119 7.06743C157.081 7.16921 156.986 7.27099 156.821 7.27099H155.93C155.777 7.27099 155.695 7.1374 155.758 7.00382M160.186 4.82188L159.161 2.56997H159.13L158.125 4.82188H160.186Z" fill="#0C0B0B"/>
    <path d="M170.656 0.298764C170.656 0.196982 170.739 0.101562 170.854 0.101562H173.78C175.008 0.101562 176.013 1.08757 176.013 2.30258C176.013 3.24406 175.389 4.01378 174.499 4.37001L175.905 6.97179C175.975 7.10538 175.905 7.27077 175.726 7.27077H174.651C174.556 7.27077 174.505 7.21988 174.486 7.17535L173.125 4.46543H171.986V7.07357C171.986 7.17535 171.891 7.27077 171.795 7.27077H170.854C170.739 7.27077 170.656 7.17535 170.656 7.07357V0.298764ZM173.665 3.37128C174.206 3.37128 174.677 2.90054 174.677 2.32803C174.677 1.78731 174.206 1.33566 173.665 1.33566H171.999V3.37128H173.665Z" fill="#0C0B0B"/>
    <path d="M184.842 0.101562H185.796C185.905 0.101562 185.987 0.190621 185.987 0.292402V7.07357C185.987 7.18172 185.898 7.26441 185.796 7.26441H184.842C184.734 7.26441 184.645 7.17535 184.645 7.06721V0.298764C184.645 0.190621 184.734 0.101562 184.842 0.101562Z" fill="#0C0B0B"/>
    <path d="M198.188 0C200.237 0 201.872 1.64758 201.872 3.69593C201.872 5.74427 200.237 7.37277 198.188 7.37277C196.14 7.37277 194.511 5.74427 194.511 3.69593C194.511 1.64758 196.14 0 198.188 0ZM198.188 6.04326C199.48 6.04326 200.542 4.98728 200.542 3.69593C200.542 2.40458 199.48 1.32952 198.188 1.32952C196.897 1.32952 195.841 2.40458 195.841 3.69593C195.841 4.98728 196.897 6.04326 198.188 6.04326Z" fill="#0C0B0B"/>
  </g>
  <defs>
    <clipPath id="clip0_1835_21730">
      <rect width="201.819" height="40" fill="white" transform="translate(0.090332)"/>
    </clipPath>
  </defs>
</svg>
