<svg width="360" height="481" viewBox="0 0 360 381" fill="none" xmlns="http://www.w3.org/2000/svg">
  <mask id="path-1-outside-1_58_2349" maskUnits="userSpaceOnUse" x="226.756" y="-60.2425" width="247.487" height="247.487" fill="black">
    <rect fill="white" x="226.756" y="-60.2425" width="347.487" height="247.487"/>
    <path d="M407.588 11.1977C404.949 11.1977 402.815 9.06381 402.815 6.42512C402.815 3.78642 404.949 1.65252 407.588 1.65252C410.226 1.65252 412.36 3.78642 412.36 6.42511C412.36 9.04086 410.215 11.1862 407.588 11.1977ZM412.372 34.9574C412.372 32.3187 410.238 30.1848 407.599 30.1848C404.96 30.1848 402.826 32.3187 402.826 34.9574C402.826 37.5961 404.96 39.73 407.599 39.73C410.215 39.73 412.36 37.5846 412.372 34.9574ZM412.36 63.4897C412.36 60.851 410.226 58.7171 407.588 58.7171C404.949 58.7171 402.815 60.851 402.815 63.4897C402.815 66.1284 404.949 68.2623 407.588 68.2623C410.226 68.2623 412.36 66.1284 412.36 63.4897ZM412.36 92.0335C412.36 89.3948 410.226 87.2609 407.588 87.2609C404.949 87.2609 402.815 89.3948 402.815 92.0335C402.815 94.6722 404.949 96.8061 407.588 96.8061C410.226 96.8061 412.36 94.6722 412.36 92.0335ZM412.36 120.577C412.36 117.939 410.226 115.805 407.588 115.805C404.949 115.805 402.815 117.939 402.815 120.577C402.815 123.216 404.949 125.35 407.588 125.35C410.226 125.35 412.36 123.216 412.36 120.577ZM383.828 6.41363C383.828 3.77494 381.694 1.64104 379.055 1.64104C376.417 1.64104 374.283 3.77494 374.283 6.41363C374.283 9.05232 376.417 11.1862 379.055 11.1862C381.682 11.1977 383.828 9.05233 383.828 6.41363ZM383.828 34.9574C383.828 32.3187 381.694 30.1848 379.055 30.1848C376.417 30.1848 374.283 32.3187 374.283 34.9574C374.283 37.5961 376.417 39.73 379.055 39.73C381.682 39.7185 383.816 37.5846 383.828 34.9574ZM383.828 63.5012C383.828 60.8625 381.694 58.7286 379.055 58.7286C376.417 58.7286 374.283 60.8625 374.283 63.5012C374.283 66.1399 376.417 68.2738 379.055 68.2738C381.682 68.2623 383.816 66.1284 383.828 63.5012ZM383.816 92.0335C383.816 89.3948 381.683 87.2609 379.044 87.2609C376.405 87.2609 374.271 89.3948 374.271 92.0335C374.271 94.6722 376.405 96.8061 379.044 96.8061C381.682 96.8061 383.816 94.6722 383.816 92.0335ZM383.816 120.577C383.816 117.939 381.683 115.805 379.044 115.805C376.405 115.805 374.271 117.939 374.271 120.577C374.271 123.216 376.405 125.35 379.044 125.35C381.682 125.35 383.816 123.216 383.816 120.577ZM355.284 6.41363C355.284 3.77494 353.15 1.64104 350.511 1.64104C347.873 1.64104 345.739 3.77494 345.739 6.41363C345.739 9.05232 347.873 11.1862 350.511 11.1862C353.15 11.1862 355.284 9.05232 355.284 6.41363ZM355.284 34.9574C355.284 32.3187 353.15 30.1848 350.512 30.1848C347.873 30.1848 345.739 32.3187 345.739 34.9574C345.739 37.5961 347.873 39.73 350.511 39.73C353.15 39.73 355.284 37.5961 355.284 34.9574ZM355.284 63.5012C355.284 60.8625 353.15 58.7286 350.512 58.7286C347.873 58.7286 345.739 60.8625 345.739 63.5012C345.739 66.1399 347.873 68.2738 350.511 68.2738C353.139 68.2623 355.273 66.1284 355.284 63.5012ZM355.284 92.0449C355.284 89.4062 353.15 87.2723 350.512 87.2723C347.873 87.2723 345.739 89.4063 345.739 92.045C345.739 94.6837 347.873 96.8176 350.511 96.8176C353.139 96.8061 355.273 94.6722 355.284 92.0449ZM355.273 120.577C355.273 117.939 353.139 115.805 350.5 115.805C347.861 115.805 345.727 117.939 345.727 120.577C345.727 123.216 347.861 125.35 350.5 125.35C353.139 125.35 355.273 123.216 355.273 120.577ZM326.74 6.41359C326.74 3.7749 324.606 1.641 321.968 1.641C319.329 1.641 317.195 3.77494 317.195 6.41363C317.195 9.05232 319.329 11.1862 321.968 11.1862C324.606 11.1862 326.74 9.05229 326.74 6.41359ZM326.74 34.9574C326.74 32.3187 324.606 30.1848 321.968 30.1848C319.329 30.1848 317.195 32.3187 317.195 34.9574C317.195 37.5961 319.329 39.73 321.968 39.73C324.606 39.73 326.74 37.5961 326.74 34.9574ZM326.74 63.5012C326.74 60.8625 324.606 58.7286 321.968 58.7286C319.329 58.7286 317.195 60.8625 317.195 63.5012C317.195 66.1399 319.329 68.2738 321.968 68.2738C324.606 68.2738 326.74 66.1398 326.74 63.5012ZM326.74 92.0449C326.74 89.4062 324.606 87.2723 321.968 87.2723C319.329 87.2723 317.195 89.4063 317.195 92.045C317.195 94.6837 319.329 96.8176 321.968 96.8176C324.595 96.8061 326.729 94.6722 326.74 92.0449ZM326.74 120.589C326.74 117.95 324.606 115.816 321.968 115.816C319.329 115.816 317.195 117.95 317.195 120.589C317.195 123.227 319.329 125.361 321.968 125.361C324.595 125.35 326.729 123.216 326.74 120.589ZM298.197 6.4136C298.197 3.77491 296.063 1.641 293.424 1.641C290.785 1.641 288.651 3.77494 288.651 6.41363C288.651 9.05233 290.785 11.1862 293.424 11.1862C296.063 11.1862 298.197 9.05229 298.197 6.4136ZM298.197 34.9574C298.197 32.3187 296.063 30.1848 293.424 30.1848C290.785 30.1848 288.651 32.3187 288.651 34.9574C288.651 37.5961 290.785 39.73 293.424 39.73C296.063 39.73 298.197 37.5961 298.197 34.9574ZM298.197 63.5012C298.197 60.8625 296.063 58.7286 293.424 58.7286C290.785 58.7286 288.651 60.8625 288.651 63.5012C288.651 66.1399 290.785 68.2738 293.424 68.2738C296.063 68.2738 298.197 66.1399 298.197 63.5012ZM298.197 92.0449C298.197 89.4062 296.063 87.2723 293.424 87.2723C290.785 87.2724 288.651 89.4063 288.651 92.045C288.651 94.6837 290.785 96.8176 293.424 96.8176C296.063 96.8176 298.197 94.6836 298.197 92.0449ZM298.197 120.589C298.197 117.95 296.063 115.816 293.424 115.816C290.785 115.816 288.651 117.95 288.651 120.589C288.651 123.227 290.785 125.361 293.424 125.361C296.063 125.361 298.185 123.216 298.197 120.589Z"/>
  </mask>
  <path d="M407.588 11.1977C404.949 11.1977 402.815 9.06381 402.815 6.42512C402.815 3.78642 404.949 1.65252 407.588 1.65252C410.226 1.65252 412.36 3.78642 412.36 6.42511C412.36 9.04086 410.215 11.1862 407.588 11.1977ZM412.372 34.9574C412.372 32.3187 410.238 30.1848 407.599 30.1848C404.96 30.1848 402.826 32.3187 402.826 34.9574C402.826 37.5961 404.96 39.73 407.599 39.73C410.215 39.73 412.36 37.5846 412.372 34.9574ZM412.36 63.4897C412.36 60.851 410.226 58.7171 407.588 58.7171C404.949 58.7171 402.815 60.851 402.815 63.4897C402.815 66.1284 404.949 68.2623 407.588 68.2623C410.226 68.2623 412.36 66.1284 412.36 63.4897ZM412.36 92.0335C412.36 89.3948 410.226 87.2609 407.588 87.2609C404.949 87.2609 402.815 89.3948 402.815 92.0335C402.815 94.6722 404.949 96.8061 407.588 96.8061C410.226 96.8061 412.36 94.6722 412.36 92.0335ZM412.36 120.577C412.36 117.939 410.226 115.805 407.588 115.805C404.949 115.805 402.815 117.939 402.815 120.577C402.815 123.216 404.949 125.35 407.588 125.35C410.226 125.35 412.36 123.216 412.36 120.577ZM383.828 6.41363C383.828 3.77494 381.694 1.64104 379.055 1.64104C376.417 1.64104 374.283 3.77494 374.283 6.41363C374.283 9.05232 376.417 11.1862 379.055 11.1862C381.682 11.1977 383.828 9.05233 383.828 6.41363ZM383.828 34.9574C383.828 32.3187 381.694 30.1848 379.055 30.1848C376.417 30.1848 374.283 32.3187 374.283 34.9574C374.283 37.5961 376.417 39.73 379.055 39.73C381.682 39.7185 383.816 37.5846 383.828 34.9574ZM383.828 63.5012C383.828 60.8625 381.694 58.7286 379.055 58.7286C376.417 58.7286 374.283 60.8625 374.283 63.5012C374.283 66.1399 376.417 68.2738 379.055 68.2738C381.682 68.2623 383.816 66.1284 383.828 63.5012ZM383.816 92.0335C383.816 89.3948 381.683 87.2609 379.044 87.2609C376.405 87.2609 374.271 89.3948 374.271 92.0335C374.271 94.6722 376.405 96.8061 379.044 96.8061C381.682 96.8061 383.816 94.6722 383.816 92.0335ZM383.816 120.577C383.816 117.939 381.683 115.805 379.044 115.805C376.405 115.805 374.271 117.939 374.271 120.577C374.271 123.216 376.405 125.35 379.044 125.35C381.682 125.35 383.816 123.216 383.816 120.577ZM355.284 6.41363C355.284 3.77494 353.15 1.64104 350.511 1.64104C347.873 1.64104 345.739 3.77494 345.739 6.41363C345.739 9.05232 347.873 11.1862 350.511 11.1862C353.15 11.1862 355.284 9.05232 355.284 6.41363ZM355.284 34.9574C355.284 32.3187 353.15 30.1848 350.512 30.1848C347.873 30.1848 345.739 32.3187 345.739 34.9574C345.739 37.5961 347.873 39.73 350.511 39.73C353.15 39.73 355.284 37.5961 355.284 34.9574ZM355.284 63.5012C355.284 60.8625 353.15 58.7286 350.512 58.7286C347.873 58.7286 345.739 60.8625 345.739 63.5012C345.739 66.1399 347.873 68.2738 350.511 68.2738C353.139 68.2623 355.273 66.1284 355.284 63.5012ZM355.284 92.0449C355.284 89.4062 353.15 87.2723 350.512 87.2723C347.873 87.2723 345.739 89.4063 345.739 92.045C345.739 94.6837 347.873 96.8176 350.511 96.8176C353.139 96.8061 355.273 94.6722 355.284 92.0449ZM355.273 120.577C355.273 117.939 353.139 115.805 350.5 115.805C347.861 115.805 345.727 117.939 345.727 120.577C345.727 123.216 347.861 125.35 350.5 125.35C353.139 125.35 355.273 123.216 355.273 120.577ZM326.74 6.41359C326.74 3.7749 324.606 1.641 321.968 1.641C319.329 1.641 317.195 3.77494 317.195 6.41363C317.195 9.05232 319.329 11.1862 321.968 11.1862C324.606 11.1862 326.74 9.05229 326.74 6.41359ZM326.74 34.9574C326.74 32.3187 324.606 30.1848 321.968 30.1848C319.329 30.1848 317.195 32.3187 317.195 34.9574C317.195 37.5961 319.329 39.73 321.968 39.73C324.606 39.73 326.74 37.5961 326.74 34.9574ZM326.74 63.5012C326.74 60.8625 324.606 58.7286 321.968 58.7286C319.329 58.7286 317.195 60.8625 317.195 63.5012C317.195 66.1399 319.329 68.2738 321.968 68.2738C324.606 68.2738 326.74 66.1398 326.74 63.5012ZM326.74 92.0449C326.74 89.4062 324.606 87.2723 321.968 87.2723C319.329 87.2723 317.195 89.4063 317.195 92.045C317.195 94.6837 319.329 96.8176 321.968 96.8176C324.595 96.8061 326.729 94.6722 326.74 92.0449ZM326.74 120.589C326.74 117.95 324.606 115.816 321.968 115.816C319.329 115.816 317.195 117.95 317.195 120.589C317.195 123.227 319.329 125.361 321.968 125.361C324.595 125.35 326.729 123.216 326.74 120.589ZM298.197 6.4136C298.197 3.77491 296.063 1.641 293.424 1.641C290.785 1.641 288.651 3.77494 288.651 6.41363C288.651 9.05233 290.785 11.1862 293.424 11.1862C296.063 11.1862 298.197 9.05229 298.197 6.4136ZM298.197 34.9574C298.197 32.3187 296.063 30.1848 293.424 30.1848C290.785 30.1848 288.651 32.3187 288.651 34.9574C288.651 37.5961 290.785 39.73 293.424 39.73C296.063 39.73 298.197 37.5961 298.197 34.9574ZM298.197 63.5012C298.197 60.8625 296.063 58.7286 293.424 58.7286C290.785 58.7286 288.651 60.8625 288.651 63.5012C288.651 66.1399 290.785 68.2738 293.424 68.2738C296.063 68.2738 298.197 66.1399 298.197 63.5012ZM298.197 92.0449C298.197 89.4062 296.063 87.2723 293.424 87.2723C290.785 87.2724 288.651 89.4063 288.651 92.045C288.651 94.6837 290.785 96.8176 293.424 96.8176C296.063 96.8176 298.197 94.6836 298.197 92.0449ZM298.197 120.589C298.197 117.95 296.063 115.816 293.424 115.816C290.785 115.816 288.651 117.95 288.651 120.589C288.651 123.227 290.785 125.361 293.424 125.361C296.063 125.361 298.185 123.216 298.197 120.589Z" stroke="#FF7324" stroke-width="3" mask="url(#path-1-outside-1_58_2349)"/>
  <mask id="path-2-outside-2_58_2349" maskUnits="userSpaceOnUse" x="-86.2425" y="221.756" width="247.487" height="247.487" fill="black">
    <rect fill="white" x="-86.2425" y="221.756" width="347.487" height="247.487"/>
    <path d="M-14.8023 288.412C-14.8023 291.051 -16.9362 293.185 -19.5749 293.185C-22.2136 293.185 -24.3475 291.051 -24.3475 288.412C-24.3475 285.774 -22.2136 283.64 -19.5749 283.64C-16.9591 283.64 -14.8138 285.785 -14.8023 288.412ZM8.95742 283.628C6.31872 283.628 4.18482 285.762 4.18482 288.401C4.18482 291.04 6.31872 293.174 8.95741 293.174C11.5961 293.174 13.73 291.04 13.73 288.401C13.73 285.785 11.5846 283.64 8.95742 283.628ZM37.4897 283.64C34.851 283.64 32.7171 285.774 32.7171 288.412C32.7171 291.051 34.851 293.185 37.4897 293.185C40.1284 293.185 42.2623 291.051 42.2623 288.412C42.2623 285.774 40.1284 283.64 37.4897 283.64ZM66.0335 283.64C63.3948 283.64 61.2609 285.774 61.2609 288.412C61.2609 291.051 63.3948 293.185 66.0335 293.185C68.6722 293.185 70.8061 291.051 70.8061 288.412C70.8061 285.774 68.6722 283.64 66.0335 283.64ZM94.5772 283.64C91.9385 283.64 89.8046 285.774 89.8046 288.412C89.8046 291.051 91.9386 293.185 94.5773 293.185C97.216 293.185 99.3499 291.051 99.3499 288.412C99.3499 285.774 97.2159 283.64 94.5772 283.64ZM-19.5864 312.172C-22.2251 312.172 -24.359 314.306 -24.359 316.945C-24.359 319.583 -22.2251 321.717 -19.5864 321.717C-16.9477 321.717 -14.8138 319.583 -14.8138 316.945C-14.8023 314.318 -16.9477 312.172 -19.5864 312.172ZM8.95741 312.172C6.31872 312.172 4.18482 314.306 4.18482 316.945C4.18482 319.583 6.31872 321.717 8.95741 321.717C11.5961 321.717 13.73 319.583 13.73 316.945C13.7185 314.318 11.5846 312.184 8.95741 312.172ZM37.5012 312.172C34.8625 312.172 32.7286 314.306 32.7286 316.945C32.7286 319.583 34.8625 321.717 37.5012 321.717C40.1399 321.717 42.2738 319.583 42.2738 316.945C42.2623 314.318 40.1284 312.184 37.5012 312.172ZM66.0335 312.184C63.3948 312.184 61.2609 314.317 61.2609 316.956C61.2609 319.595 63.3948 321.729 66.0335 321.729C68.6722 321.729 70.8061 319.595 70.8061 316.956C70.8061 314.318 68.6722 312.184 66.0335 312.184ZM94.5772 312.184C91.9385 312.184 89.8046 314.317 89.8046 316.956C89.8046 319.595 91.9386 321.729 94.5773 321.729C97.216 321.729 99.3499 319.595 99.3499 316.956C99.3499 314.318 97.2159 312.184 94.5772 312.184ZM-19.5864 340.716C-22.2251 340.716 -24.359 342.85 -24.359 345.489C-24.359 348.127 -22.2251 350.261 -19.5864 350.261C-16.9477 350.261 -14.8138 348.127 -14.8138 345.489C-14.8138 342.85 -16.9477 340.716 -19.5864 340.716ZM8.95738 340.716C6.31869 340.716 4.18478 342.85 4.18478 345.488C4.18478 348.127 6.31872 350.261 8.95741 350.261C11.5961 350.261 13.73 348.127 13.73 345.489C13.73 342.85 11.5961 340.716 8.95738 340.716ZM37.5012 340.716C34.8625 340.716 32.7286 342.85 32.7286 345.488C32.7286 348.127 34.8625 350.261 37.5012 350.261C40.1399 350.261 42.2738 348.127 42.2738 345.489C42.2623 342.861 40.1284 340.727 37.5012 340.716ZM66.0449 340.716C63.4062 340.716 61.2723 342.85 61.2723 345.488C61.2723 348.127 63.4063 350.261 66.045 350.261C68.6837 350.261 70.8176 348.127 70.8176 345.489C70.8061 342.861 68.6722 340.727 66.0449 340.716ZM94.5772 340.727C91.9386 340.727 89.8046 342.861 89.8046 345.5C89.8046 348.139 91.9386 350.273 94.5773 350.273C97.216 350.273 99.3499 348.139 99.3499 345.5C99.3499 342.861 97.2159 340.727 94.5772 340.727ZM-19.5864 369.26C-22.2251 369.26 -24.359 371.394 -24.359 374.032C-24.359 376.671 -22.2251 378.805 -19.5864 378.805C-16.9477 378.805 -14.8138 376.671 -14.8138 374.032C-14.8138 371.394 -16.9477 369.26 -19.5864 369.26ZM8.95738 369.26C6.31869 369.26 4.18478 371.394 4.18478 374.032C4.18478 376.671 6.31872 378.805 8.95741 378.805C11.5961 378.805 13.73 376.671 13.73 374.032C13.73 371.394 11.5961 369.26 8.95738 369.26ZM37.5012 369.26C34.8625 369.26 32.7286 371.394 32.7286 374.032C32.7286 376.671 34.8625 378.805 37.5012 378.805C40.1399 378.805 42.2738 376.671 42.2738 374.032C42.2738 371.394 40.1398 369.26 37.5012 369.26ZM66.0449 369.26C63.4062 369.26 61.2723 371.394 61.2723 374.032C61.2723 376.671 63.4063 378.805 66.045 378.805C68.6837 378.805 70.8176 376.671 70.8176 374.032C70.8061 371.405 68.6722 369.271 66.0449 369.26ZM94.5887 369.26C91.95 369.26 89.8161 371.394 89.8161 374.032C89.8161 376.671 91.9501 378.805 94.5888 378.805C97.2275 378.805 99.3614 376.671 99.3614 374.032C99.3499 371.405 97.2159 369.271 94.5887 369.26ZM-19.5864 397.803C-22.2251 397.803 -24.359 399.937 -24.359 402.576C-24.359 405.215 -22.2251 407.349 -19.5864 407.349C-16.9477 407.349 -14.8138 405.215 -14.8138 402.576C-14.8138 399.937 -16.9477 397.803 -19.5864 397.803ZM8.95737 397.803C6.31868 397.803 4.18478 399.937 4.18478 402.576C4.18478 405.215 6.31872 407.349 8.95741 407.349C11.5961 407.349 13.73 405.215 13.73 402.576C13.73 399.937 11.5961 397.803 8.95737 397.803ZM37.5012 397.803C34.8625 397.803 32.7286 399.937 32.7286 402.576C32.7286 405.215 34.8625 407.349 37.5012 407.349C40.1399 407.349 42.2738 405.215 42.2738 402.576C42.2738 399.937 40.1399 397.803 37.5012 397.803ZM66.0449 397.803C63.4062 397.803 61.2723 399.937 61.2723 402.576C61.2724 405.215 63.4063 407.349 66.045 407.349C68.6837 407.349 70.8176 405.215 70.8176 402.576C70.8176 399.937 68.6836 397.803 66.0449 397.803ZM94.5887 397.803C91.95 397.803 89.8161 399.937 89.8161 402.576C89.8161 405.215 91.9501 407.349 94.5888 407.349C97.2275 407.349 99.3614 405.215 99.3614 402.576C99.3614 399.937 97.2159 397.815 94.5887 397.803Z"/>
  </mask>
  <path d="M-14.8023 288.412C-14.8023 291.051 -16.9362 293.185 -19.5749 293.185C-22.2136 293.185 -24.3475 291.051 -24.3475 288.412C-24.3475 285.774 -22.2136 283.64 -19.5749 283.64C-16.9591 283.64 -14.8138 285.785 -14.8023 288.412ZM8.95742 283.628C6.31872 283.628 4.18482 285.762 4.18482 288.401C4.18482 291.04 6.31872 293.174 8.95741 293.174C11.5961 293.174 13.73 291.04 13.73 288.401C13.73 285.785 11.5846 283.64 8.95742 283.628ZM37.4897 283.64C34.851 283.64 32.7171 285.774 32.7171 288.412C32.7171 291.051 34.851 293.185 37.4897 293.185C40.1284 293.185 42.2623 291.051 42.2623 288.412C42.2623 285.774 40.1284 283.64 37.4897 283.64ZM66.0335 283.64C63.3948 283.64 61.2609 285.774 61.2609 288.412C61.2609 291.051 63.3948 293.185 66.0335 293.185C68.6722 293.185 70.8061 291.051 70.8061 288.412C70.8061 285.774 68.6722 283.64 66.0335 283.64ZM94.5772 283.64C91.9385 283.64 89.8046 285.774 89.8046 288.412C89.8046 291.051 91.9386 293.185 94.5773 293.185C97.216 293.185 99.3499 291.051 99.3499 288.412C99.3499 285.774 97.2159 283.64 94.5772 283.64ZM-19.5864 312.172C-22.2251 312.172 -24.359 314.306 -24.359 316.945C-24.359 319.583 -22.2251 321.717 -19.5864 321.717C-16.9477 321.717 -14.8138 319.583 -14.8138 316.945C-14.8023 314.318 -16.9477 312.172 -19.5864 312.172ZM8.95741 312.172C6.31872 312.172 4.18482 314.306 4.18482 316.945C4.18482 319.583 6.31872 321.717 8.95741 321.717C11.5961 321.717 13.73 319.583 13.73 316.945C13.7185 314.318 11.5846 312.184 8.95741 312.172ZM37.5012 312.172C34.8625 312.172 32.7286 314.306 32.7286 316.945C32.7286 319.583 34.8625 321.717 37.5012 321.717C40.1399 321.717 42.2738 319.583 42.2738 316.945C42.2623 314.318 40.1284 312.184 37.5012 312.172ZM66.0335 312.184C63.3948 312.184 61.2609 314.317 61.2609 316.956C61.2609 319.595 63.3948 321.729 66.0335 321.729C68.6722 321.729 70.8061 319.595 70.8061 316.956C70.8061 314.318 68.6722 312.184 66.0335 312.184ZM94.5772 312.184C91.9385 312.184 89.8046 314.317 89.8046 316.956C89.8046 319.595 91.9386 321.729 94.5773 321.729C97.216 321.729 99.3499 319.595 99.3499 316.956C99.3499 314.318 97.2159 312.184 94.5772 312.184ZM-19.5864 340.716C-22.2251 340.716 -24.359 342.85 -24.359 345.489C-24.359 348.127 -22.2251 350.261 -19.5864 350.261C-16.9477 350.261 -14.8138 348.127 -14.8138 345.489C-14.8138 342.85 -16.9477 340.716 -19.5864 340.716ZM8.95738 340.716C6.31869 340.716 4.18478 342.85 4.18478 345.488C4.18478 348.127 6.31872 350.261 8.95741 350.261C11.5961 350.261 13.73 348.127 13.73 345.489C13.73 342.85 11.5961 340.716 8.95738 340.716ZM37.5012 340.716C34.8625 340.716 32.7286 342.85 32.7286 345.488C32.7286 348.127 34.8625 350.261 37.5012 350.261C40.1399 350.261 42.2738 348.127 42.2738 345.489C42.2623 342.861 40.1284 340.727 37.5012 340.716ZM66.0449 340.716C63.4062 340.716 61.2723 342.85 61.2723 345.488C61.2723 348.127 63.4063 350.261 66.045 350.261C68.6837 350.261 70.8176 348.127 70.8176 345.489C70.8061 342.861 68.6722 340.727 66.0449 340.716ZM94.5772 340.727C91.9386 340.727 89.8046 342.861 89.8046 345.5C89.8046 348.139 91.9386 350.273 94.5773 350.273C97.216 350.273 99.3499 348.139 99.3499 345.5C99.3499 342.861 97.2159 340.727 94.5772 340.727ZM-19.5864 369.26C-22.2251 369.26 -24.359 371.394 -24.359 374.032C-24.359 376.671 -22.2251 378.805 -19.5864 378.805C-16.9477 378.805 -14.8138 376.671 -14.8138 374.032C-14.8138 371.394 -16.9477 369.26 -19.5864 369.26ZM8.95738 369.26C6.31869 369.26 4.18478 371.394 4.18478 374.032C4.18478 376.671 6.31872 378.805 8.95741 378.805C11.5961 378.805 13.73 376.671 13.73 374.032C13.73 371.394 11.5961 369.26 8.95738 369.26ZM37.5012 369.26C34.8625 369.26 32.7286 371.394 32.7286 374.032C32.7286 376.671 34.8625 378.805 37.5012 378.805C40.1399 378.805 42.2738 376.671 42.2738 374.032C42.2738 371.394 40.1398 369.26 37.5012 369.26ZM66.0449 369.26C63.4062 369.26 61.2723 371.394 61.2723 374.032C61.2723 376.671 63.4063 378.805 66.045 378.805C68.6837 378.805 70.8176 376.671 70.8176 374.032C70.8061 371.405 68.6722 369.271 66.0449 369.26ZM94.5887 369.26C91.95 369.26 89.8161 371.394 89.8161 374.032C89.8161 376.671 91.9501 378.805 94.5888 378.805C97.2275 378.805 99.3614 376.671 99.3614 374.032C99.3499 371.405 97.2159 369.271 94.5887 369.26ZM-19.5864 397.803C-22.2251 397.803 -24.359 399.937 -24.359 402.576C-24.359 405.215 -22.2251 407.349 -19.5864 407.349C-16.9477 407.349 -14.8138 405.215 -14.8138 402.576C-14.8138 399.937 -16.9477 397.803 -19.5864 397.803ZM8.95737 397.803C6.31868 397.803 4.18478 399.937 4.18478 402.576C4.18478 405.215 6.31872 407.349 8.95741 407.349C11.5961 407.349 13.73 405.215 13.73 402.576C13.73 399.937 11.5961 397.803 8.95737 397.803ZM37.5012 397.803C34.8625 397.803 32.7286 399.937 32.7286 402.576C32.7286 405.215 34.8625 407.349 37.5012 407.349C40.1399 407.349 42.2738 405.215 42.2738 402.576C42.2738 399.937 40.1399 397.803 37.5012 397.803ZM66.0449 397.803C63.4062 397.803 61.2723 399.937 61.2723 402.576C61.2724 405.215 63.4063 407.349 66.045 407.349C68.6837 407.349 70.8176 405.215 70.8176 402.576C70.8176 399.937 68.6836 397.803 66.0449 397.803ZM94.5887 397.803C91.95 397.803 89.8161 399.937 89.8161 402.576C89.8161 405.215 91.9501 407.349 94.5888 407.349C97.2275 407.349 99.3614 405.215 99.3614 402.576C99.3614 399.937 97.2159 397.815 94.5887 397.803Z" stroke="#FF7324" stroke-width="3" mask="url(#path-2-outside-2_58_2349)"/>
</svg>
