<svg width="360" height="531" viewBox="0 0 360 531" fill="none" xmlns="http://www.w3.org/2000/svg">
  <path d="M360 0.09375L0 42.9696V461.258L360 530.877V0.09375Z" fill="#FFD200"/>
  <path d="M358.65 19.9884C361.591 16.9813 366.431 16.9813 369.372 19.9884L371.99 22.6637C374.836 25.573 374.842 30.2212 372.004 33.1383L365.28 40.0504C362.063 43.3564 362.071 48.6243 365.296 51.9215L371.974 58.7483C374.826 61.6633 374.826 66.3227 371.974 69.2377L369.372 71.8976C366.431 74.9046 361.591 74.9046 358.65 71.8976L352.463 65.5729C349.135 62.1715 343.664 62.1639 340.327 65.5561L334.058 71.9286C331.114 74.9217 326.286 74.915 323.35 71.9137L320.733 69.2377C317.881 66.3227 317.881 61.6633 320.733 58.7483L327.411 51.9215C330.636 48.6243 330.644 43.3564 327.427 40.0504L320.703 33.1383C317.865 30.2212 317.871 25.573 320.717 22.6637L323.35 19.9722C326.286 16.971 331.114 16.9643 334.058 19.9574L340.327 26.3298C343.664 29.722 349.135 29.7144 352.463 26.313L358.65 19.9884Z" fill="#D6B000" stroke="#D6B000"/>
  <path d="M365.811 5.96414C362.683 2.74383 357.518 2.72756 354.369 5.92809L348.121 12.28C344.981 15.4726 339.831 15.4655 336.699 12.2642L330.532 5.96021C327.387 2.74475 322.209 2.75389 319.075 5.98045L316.434 8.69991C313.411 11.8121 313.419 16.7669 316.453 19.8684L323.136 26.6994C326.178 29.8088 326.178 34.7788 323.136 37.8881L316.453 44.7191C313.419 47.8207 313.411 52.7754 316.434 55.8876L319.059 58.5907C322.2 61.8235 327.389 61.8255 330.532 58.5951L336.684 52.2716C339.819 49.0492 344.993 49.042 348.137 52.2557L354.37 58.6273C357.515 61.8428 362.693 61.8336 365.827 58.6071L368.468 55.8876C371.492 52.7754 371.483 47.8207 368.449 44.7191L361.766 37.8881C358.724 34.7788 358.724 29.8088 361.766 26.6994L368.449 19.8684C371.483 16.7669 371.492 11.8121 368.468 8.69991L365.811 5.96414Z" stroke="#0C0B0B" stroke-width="2" stroke-miterlimit="10" stroke-linecap="round" stroke-linejoin="round"/>
</svg>
