<svg width="208" height="179" viewBox="0 0 208 179" fill="none" xmlns="http://www.w3.org/2000/svg">
  <path d="M103.439 122.157C103.205 122.123 103.265 121.799 103.265 121.544C103.432 119.603 103.206 119.418 104.622 122.137C104.738 122.361 103.686 122.192 103.439 122.157Z" fill="#592466"/>
  <path d="M206.583 135.439H0.636719V178.154H206.583V135.439Z" fill="white"/>
  <path d="M191.568 114.623C193.339 120.036 199.178 126.817 197.8 132.413C196.584 137.354 191.298 142.823 187.1 144.127C185.204 144.716 187.317 144.496 179.382 146.402C179.056 146.481 179.142 146.562 176.322 144.905C175.499 144.42 176.259 144.578 176.805 141.624C177.84 136.049 176.588 136.092 176.818 132.909C176.988 130.565 176.094 128.811 174.423 125.039C173.988 124.067 173.38 123.773 174.016 123.749C176.479 123.654 178.378 125.575 179.369 125.339C180.207 125.138 179.894 124.4 179.522 124.224C179.522 124.224 178.142 123.52 177.52 123.215C174.865 121.909 173.848 123.017 171.205 121.78C169.967 121.202 169.224 121.63 168.08 121.69C169.132 117.937 173.375 119.783 176.606 118.327C179.074 117.214 180.208 117.891 180.266 117.273C180.396 115.902 177.429 116.793 176.141 117.284C173.987 118.104 171.963 117.469 169.873 118.257C168.616 118.733 168.432 118.865 168.342 118.684C166.679 115.314 168.378 113.604 165.639 111.371C163.272 109.442 164.017 105.043 163.507 102.168C162.869 98.5649 162.36 96.0825 162.711 94.5321C163.16 92.5582 161.911 92.6812 161.774 93.5217C161.174 97.2235 161.533 97.4772 162.352 103.063C162.465 103.792 162.51 104.53 162.484 105.267C162.234 105.105 162.034 104.876 161.905 104.609C159.606 99.9748 159.25 103.223 157.43 96.4015C157.047 94.9687 156.932 93.4869 156.541 92.0563C156.473 91.6328 156.466 91.2016 156.522 90.777C156.55 89.8537 155.552 90.0236 155.513 90.5854C155.311 93.525 156.492 100.579 159.02 102.845C160.721 104.369 160.69 106.235 162.193 106.688C162.846 106.886 162.104 107.074 163.458 110.788C164.049 112.41 165.127 112.147 165.97 114.105C166.506 115.348 165.779 116.5 166.955 118.826C167.274 119.458 167.476 119.943 167.064 120.589C166.639 121.259 166.833 121.84 166.361 121.948C165.09 122.404 163.9 123.061 162.838 123.893C161.675 124.604 161.296 124.102 159.588 124.618C159.134 124.846 158.731 125.162 158.4 125.548C158.069 125.933 157.817 126.379 157.661 126.863C157.026 129.061 158.155 128.041 152.509 128.984C134.914 131.923 120.892 133.492 119.365 136.851C119.311 136.97 118.15 137.369 118.021 136.926C117.695 135.806 116.207 133.593 116.303 133.277C116.155 132.039 115.752 130.844 115.12 129.769C113.486 127.425 113.384 127.562 113.761 127.373C115.121 126.707 116.037 124.978 114.981 123.77C114.123 122.782 113.239 122.899 110.968 123.128C110.533 123.172 110.545 122.829 110.167 122.059C108.111 117.882 104.993 112.987 105.092 112.199C105.872 106.028 106.373 105.653 105.253 101.684C103.102 94.0629 105.53 90.2032 104.273 89.9713C104.015 89.9234 103.795 89.98 103.729 90.2598C101.25 99.9999 106.269 102.354 103.981 110.217C103.12 108.737 103.405 109.003 102.927 108.122C102.71 107.845 102.513 107.555 102.338 107.251C102.309 106.878 102.186 106.517 101.98 106.204C101.774 105.891 101.492 105.635 101.16 105.461C100.332 105.041 100.428 102.917 98.4431 103.358C96.651 103.756 95.1376 105.19 96.5432 107.253C97.043 107.986 96.4278 108.691 96.9907 109.315C97.5536 109.939 97.9259 109.72 98.0316 110.357C98.062 110.538 99.9978 113.806 100.011 113.828C100.446 114.548 98.9929 115.983 98.3778 116.577C96.8894 118.002 94.7522 118.589 93.0189 121.242C92.2481 122.421 91.3858 126.416 90.7216 126.339C88.31 126.059 92.125 123.259 83.8886 120.515C81.5717 119.743 79.1068 115.765 74.6962 117.627C73.5586 117.774 72.4858 118.24 71.603 118.973C70.9205 119.735 70.186 120.45 69.4048 121.111C69.2524 120.736 68.8017 118.154 68.732 117.766C68.1811 114.718 68.0134 114.582 68.8136 113.738C70.0037 112.678 71.0745 111.493 72.007 110.202C72.8116 108.828 74.362 107.974 75.3473 106.001C77.9135 100.863 80.1095 100.179 82.1803 96.8838C84.0454 93.9181 84.2337 90.7868 87.3301 87.919C97.0669 78.8899 97.976 71.7433 106.983 70.9692C110.264 70.6872 110.055 70.8767 110.055 71.2055C110.057 77.8085 111.423 84.3398 114.067 90.3905C116.879 96.2524 124.494 108.74 130.761 110.073C136.224 111.235 149.831 92.3067 153.72 75.3591C154.607 71.4984 154.086 71.236 154.693 71.3601C156.573 71.7455 157.924 71.4265 160.79 73.2578C162.178 74.2438 163.757 74.928 165.425 75.2665C168.335 75.8752 167.777 76.5535 170.853 77.6923C180.503 81.2667 179.068 91.6284 185.053 99.7146C188.949 104.981 189.91 109.558 191.568 114.623Z" fill="url(#paint0_linear_3901_17385)"/>
  <path d="M187.838 25.1439C188.086 28.6105 188.148 30.1913 185.334 31.2148C184.005 31.6993 183.18 31.1745 183.209 32.5126C183.23 33.5295 183.669 34.8785 182.652 36.0935C182.337 36.3769 181.966 36.5916 181.564 36.7239C181.073 36.9434 180.541 37.0604 180.003 37.0677C179.466 37.075 178.931 36.9725 178.434 36.7664C176.241 36.1131 177.688 38.9907 174.739 39.5797C171.392 40.2482 170.557 37.8693 169.527 39.4273C168.63 40.7839 166.06 40.5563 165.172 38.7218C165.126 38.6236 165.057 38.5376 164.972 38.4707C164.886 38.4039 164.786 38.358 164.679 38.3369C164.574 38.3157 164.464 38.3198 164.358 38.3488C164.253 38.3778 164.158 38.431 164.077 38.504C163.546 38.9308 162.903 39.1954 162.226 39.2661C161.955 39.3249 161.742 39.2291 160.743 38.6314C158.858 37.5013 161.697 33.0134 158.531 24.348C156.068 17.6086 153.385 17.6086 153.786 16.3445C154.657 13.6128 157.891 15.209 157.706 13.4234C157.642 12.8412 157.798 12.2564 158.143 11.7832C158.488 11.31 158.997 10.9825 159.571 10.8648C161.19 10.6775 162.113 11.0445 161.846 9.56919C160.994 4.85269 165.737 2.42694 168.379 5.31542C168.464 5.41939 168.573 5.50094 168.697 5.55276C168.82 5.60448 168.955 5.62506 169.089 5.61243C169.221 5.5998 169.35 5.55451 169.462 5.48047C169.574 5.40644 169.666 5.30605 169.73 5.18803C170.08 4.44267 170.642 3.8162 171.345 3.38614C173.256 2.76446 176 2.57501 176.755 4.85705C177.18 6.14505 177.124 7.72593 178.333 7.11731C179.761 6.39873 180.762 7.24143 181.888 8.23437C185.074 11.0434 181.478 13.9286 183.392 14.1942C185.96 14.5503 187.293 19.061 185.781 21.098C183.983 23.5282 187.595 21.7448 187.838 25.1439Z" fill="#3B3C3F"/>
  <path d="M179.488 151.418C180.154 151.451 180.875 151.091 180.662 151.596C180.601 151.743 180.746 152.782 179.726 152.758C170.983 152.55 163.329 148.581 155.349 149.023C149.204 149.362 150.252 150.147 149.983 148.9C149.927 148.64 149.989 148.603 151.085 148.459C166.255 146.473 165.76 150.754 179.488 151.418Z" fill="white"/>
  <path d="M177.023 148.432C180.488 148.909 180.823 148.317 180.57 149.177C180.256 150.237 180.495 150.192 179.214 150.194C172.697 150.205 164.952 146.736 157.595 146.668C150.417 147.206 153.609 147.132 149.746 147.621C149.439 147.66 148.941 147.266 149.536 147.09C161.815 143.439 165.004 146.777 177.023 148.432Z" fill="white"/>
  <path d="M178.332 147.328C177.083 147.546 168.587 145.082 160.726 144.25C157.79 144.043 154.839 144.344 152.004 145.138C148.004 145.87 146.887 147.508 146.234 147.002C145.388 146.349 144.503 145.748 143.597 145.179C142.216 144.308 142.341 144.002 140.309 142.607C139.41 141.991 139.792 141.744 137.835 140.499C137.23 140.114 136.543 140.028 142.915 138.171C161.439 132.778 166.127 140.424 178.332 147.328Z" fill="white"/>
  <path d="M175.457 133.859C175.686 136.324 176.278 138.573 175.488 141.303C174.281 145.467 176.391 143.845 165.327 137.955C164.456 137.494 165.474 135.683 164.709 132.681C163.984 129.83 163.681 126.894 161.007 126.719C160.052 126.655 159.551 127.63 159.34 127.888C159.129 128.146 159.014 128.106 158.512 128.166C158.858 126.276 159.79 125.703 161.635 125.703C163.446 125.963 165.036 123.388 167.43 123.247C170.343 123.075 171.74 121.493 174.828 129.469C175.372 130.865 175.588 132.366 175.457 133.859Z" fill="white"/>
  <path d="M163.663 136.786C163.783 137.984 161.387 135.005 153.307 135.444C147.515 135.567 141.817 136.921 136.59 139.419C135.534 139.94 136.671 137.26 123.089 136.838C121.021 136.773 119.886 137.147 122.085 136.173C128.592 133.292 154.843 130.064 160.367 128.978C161.825 128.692 162.109 128.542 162.301 129.102C163.243 131.553 163.705 134.161 163.663 136.786Z" fill="#FDE6B9"/>
  <path d="M158.898 46.9248C159.187 47.7588 156.999 46.2781 155.936 48.7637C154.949 51.1614 154.442 53.7292 154.443 56.3219C154.604 59.6666 157.031 58.4167 156.272 59.3007C155.933 59.7414 155.545 60.1414 155.115 60.4929C153.056 61.9813 151.832 59.2724 151.963 56.6551C152.576 44.4806 157.378 42.5458 158.898 46.9248Z" fill="#42E694"/>
  <path d="M157.939 48.2677C159.963 47.7702 159.271 51.5112 158.827 53.5526C157.609 59.1423 155.438 58.6926 155.485 55.3871C155.675 53.6016 156.193 48.6967 157.939 48.2677Z" fill="#00703F"/>
  <path d="M155.433 20.9418C158.468 25.8663 158.498 28.4946 158.947 34.143C158.277 45.0001 157.96 43.6729 157.859 43.6283C154.547 42.2031 156.526 44.0409 156.564 34.9182C156.612 23.6049 150.981 14.9047 139.607 13.2835C111.245 9.23987 114.497 37.3734 113.613 37.3864C112.34 37.406 112.389 37.4877 112.415 36.9869C112.959 27.1445 114.073 21.1835 121.764 15.1279C128.37 9.92906 147.741 8.45923 155.433 20.9418Z" fill="#00703F"/>
  <path d="M143.309 15.3168C151.468 18.6919 156.546 25.7068 155.031 39.3631C154.656 42.7383 154.931 42.4976 154.332 42.4726C152.534 42.3964 154.642 42.2875 153.758 31.0733C153.233 24.4145 147.805 16.7202 139.406 15.7512C135.448 15.295 133.091 15.0751 130.829 15.4366C128.407 15.8528 126.105 16.7884 124.08 18.1793C122.053 19.57 120.354 21.3829 119.095 23.4934C116.773 27.6056 116.545 32.358 116.293 37.0843C116.273 37.46 116.226 37.5122 115.843 37.4861C114.879 37.4208 114.846 37.4218 114.857 36.4409C114.977 25.6197 119.5 16.1377 130.082 14.3391C134.51 13.709 139.022 14.0425 143.309 15.3168Z" fill="#00703F"/>
  <path d="M152.511 43.6613C153.83 43.5296 155.457 43.6765 154.689 44.234C153.524 45.0815 152.66 46.2777 152.22 47.6494C151.536 50.0739 151.051 52.5499 150.769 55.053C150.305 59.6399 151.949 60.9323 151.184 60.7439C147.016 59.7357 147.019 58.5414 146.629 56.0873C147.01 51.3523 147.804 44.1338 152.511 43.6613Z" fill="#00703F"/>
  <path d="M152.279 69.666C153.314 69.948 153.368 71.2349 153.159 72.23C149.398 90.691 136.828 108.658 130.881 108.893C127.32 109.033 113.768 93.2528 111.967 79.5878C111.527 78.0293 111.307 76.4168 111.314 74.7973C111.431 73.6998 110.334 69.2054 112.245 68.8222C112.908 68.6766 113.584 68.5975 114.262 68.5859C116.484 68.5859 116.489 68.4869 116.212 68.9942C113.877 73.2916 116.341 83.0827 118.615 87.6544C118.641 87.7067 122.099 94.4363 122.839 95.1952C125.252 97.6743 130.006 107.554 133.381 102.36C139.018 95.77 143.495 88.2695 146.619 80.179C148.819 74.3564 149.277 72.5262 149.179 70.0536C149.125 68.8396 147.73 68.4292 152.279 69.666Z" fill="#D6B000"/>
  <path d="M152.197 28.7479C153.206 32.0403 152.857 37.2718 152.378 40.8766C152.011 43.6355 152.46 41.7313 150.068 42.9736C149.741 43.1412 149.43 42.8549 149.375 42.3867C149.42 42.0485 149.391 41.7047 149.292 41.3783C149.193 41.0518 149.026 40.7502 148.801 40.4934C148.302 39.8684 148.366 38.6588 149.115 38.685C150.279 38.7242 150.994 37.7965 151.503 36.7513C151.65 36.4497 151.442 35.4927 150.757 35.8934C149.713 36.5031 149.842 37.2707 148.67 37.2369C148.062 37.265 147.464 37.0686 146.992 36.6849C146.069 34.7502 146.176 34.981 146.374 34.6522C147.377 32.9886 147.426 32.9222 147.67 32.7741C148.796 32.0893 150.575 30.0838 150.59 28.7925C150.596 28.4147 149.664 28.2688 149.242 28.909C148.645 30.0492 147.758 31.0136 146.674 31.7071C145.713 32.3963 146.77 31.9924 144.632 34.4007C144.143 34.9527 143.85 34.6566 141.85 33.8062C140.535 33.2477 141.34 31.3696 142.176 30.2253C143.374 28.5922 142.753 27.449 143.54 25.9519C144.121 24.8468 144.46 22.7771 143.274 23.1016C142.538 23.3041 143.03 24.0978 142.542 24.9993C141.165 27.5448 142.69 26.6117 140.85 29.7027C140.41 30.45 140.023 31.2271 139.691 32.0283C139.512 32.2261 139.296 32.3869 139.056 32.5014C138.816 32.6158 138.555 32.6817 138.289 32.6953C138.023 32.7088 137.757 32.6697 137.507 32.5803C137.255 32.4909 137.024 32.3529 136.827 32.1742C136.571 31.9564 136.155 31.8552 136.019 31.5939C135.883 31.3326 136.043 30.9526 136.04 30.626C136.01 26.9242 135.283 27.7288 135.967 26.2807C136.448 25.4533 136.609 24.4786 136.421 23.5403C136.306 21.3683 136.376 21.2387 135.847 21.1941C135.453 21.1614 135.257 21.3029 135.204 21.7384C135.129 22.2513 135.12 22.7717 135.178 23.2867C135.518 25.7549 133.871 25.6819 134.524 28.4811C134.778 29.5699 134.975 30.9134 134.172 31.6821C132.684 33.0975 131.933 33.533 132.265 34.7491C132.542 35.7529 132.732 35.9337 132.393 36.3126C131.468 37.3425 130.803 37.7486 131.023 38.9691C131.173 39.8053 131.775 39.4362 132.081 40.9387C132.124 41.1477 131.504 41.5451 131.147 41.9305C130.302 42.8407 130.794 42.7645 130.377 43.5049C129.13 42.145 130.869 41.997 130.543 40.6186C130.276 39.4906 129.259 39.7944 128.525 38.6011C127.627 37.14 131.235 36.2222 130.02 35.0224C129.9 34.9037 129.178 34.5411 129.749 34.0109C129.84 33.9271 129.949 33.8629 130.049 33.7877C130.238 33.6787 130.389 33.5153 130.485 33.3188C130.58 33.1223 130.614 32.9018 130.582 32.6858C130.55 32.4698 130.455 32.2684 130.307 32.1076C130.159 31.9469 129.966 31.8343 129.754 31.7844C129.288 31.6421 128.892 31.3316 128.643 30.9133C128.394 30.4951 128.309 29.9992 128.406 29.522C128.79 27.3967 127.799 27.6471 128.111 25.965C129.117 20.5212 126.248 19.9997 127.131 23.5926C127.445 24.8741 126.348 26.186 127.093 28.1022C127.34 28.7413 127.049 29.363 127.168 30.7414C127.277 32.0283 123.349 33.4284 122.476 31.5035C121.938 30.3179 121.048 30.221 121.133 28.8753C121.33 25.7004 120.172 25.2824 119.812 26.1773C119.493 26.9623 120.139 27.1245 119.91 28.4746C119.398 31.4839 122.348 32.0239 121.491 33.6778C121.025 34.5793 120.293 34.3452 119.749 34.6457C119.559 34.7498 119.347 34.8078 119.132 34.8152C118.915 34.8226 118.699 34.779 118.503 34.6881C117.661 34.3615 117.632 34.355 117.714 33.4393C118.311 26.8055 118.307 28.4985 118.912 26.4038C120.096 22.3046 124.954 18.4362 127.077 17.6436C128.74 16.8497 130.562 16.4492 132.405 16.4732C143.998 15.5848 149.784 20.8718 152.197 28.7479Z" fill="#3B3C3F"/>
  <path d="M150.476 161.41C151.315 162.294 137.872 163.951 136.633 163.887C132.613 163.68 128.915 165.612 126.834 165.178C126.617 165.132 123.059 165.436 123.035 165.438C122.157 165.514 122.424 165.123 120.705 163.011C119.686 161.759 119.64 160.41 117.492 158.357C116.975 157.864 116.982 157.858 117.657 157.651C126.338 154.998 142.332 154.326 142.731 154.12C143.711 153.618 143.832 154.346 146.676 157.501C146.689 157.522 150.449 161.387 150.476 161.41Z" fill="white"/>
  <path d="M148.066 41.9321C148.042 43.2222 148.937 43.9463 148.661 44.274C147.448 46.0281 146.614 48.016 146.212 50.1108C146.103 50.567 146.001 50.5354 144.208 51.5828C143.554 51.9639 144.137 51.1909 143.42 49.892C142.565 48.3394 140.902 48.2915 139.052 48.1739C137.579 48.0145 136.091 48.0752 134.636 48.3536C133.888 48.6227 133.237 49.108 132.766 49.7476C132.294 50.3872 132.023 51.1525 131.987 51.9465C131.741 51.5953 131.402 51.3213 131.006 51.1563C130.611 50.9913 130.177 50.9421 129.754 51.0145C129.09 51.0733 128.479 52.2578 128.414 51.6362C128.471 50.8849 128.312 50.1331 127.955 49.4695C127.598 48.8059 127.059 48.2582 126.401 47.8908C126.286 47.8051 126.148 47.7525 126.006 47.7384C125.365 47.6831 124.73 47.5756 124.106 47.4172C122.275 47.1967 120.422 47.2511 118.607 47.5784C117.678 47.8799 117.753 41.5749 118.448 36.4295C118.488 36.1301 118.69 36.1105 118.841 36.1725C119.273 36.2913 119.733 36.248 120.136 36.0506C121.631 35.6227 122.238 35.5062 122.767 34.166C122.929 33.7555 122.9 33.7566 123.364 33.8088C127.222 34.2443 127.62 31.9471 128.174 32.5426C128.449 32.8388 128.957 32.7604 128.5 33.3047C128.28 33.5541 128.146 33.8682 128.12 34.1998C128.094 34.5314 128.176 34.8628 128.354 35.1437C128.579 35.4823 128.552 35.6216 128.262 35.9265C127.173 37.0697 126.606 38.2499 127.565 39.5662C127.959 40.0745 128.498 40.4506 129.111 40.6441C129.764 40.9925 128.817 41.0349 128.821 42.8455C128.815 43.4609 129.047 44.0547 129.47 44.5017C129.893 44.9487 130.473 45.2137 131.088 45.2408C131.8 45.3333 131.567 44.7269 131.488 43.7938C131.447 43.3159 132.259 42.6844 132.639 42.3959C134.936 40.6539 131.346 39.0447 132.619 37.7904C132.779 37.5967 132.967 37.4293 133.179 37.294C134.041 36.8748 133.941 35.7044 133.52 34.8051C133.218 34.1649 133.174 34.3815 135.123 32.8246C135.348 32.6439 135.428 32.7157 136.188 33.3189C137.461 34.326 138.458 34.1017 139.881 33.7424C140.218 33.6575 140.135 33.9079 140.586 34.5601C140.907 35.0239 141.223 35.0642 142.605 35.6869C143.245 36.0866 144.016 36.2224 144.754 36.0658C145.574 35.7577 145.174 36.3859 145.836 37.515C146.327 38.3533 147.557 38.2945 147.382 38.9456C146.872 40.8433 148.075 41.477 148.066 41.9321Z" fill="#FDE6B9"/>
  <path d="M145.633 51.8687C145.742 51.8088 145.936 51.811 145.895 52.0494C145.255 55.7773 145.895 55.3277 145.093 57.4758C142.653 64.0083 141.5 65.8255 140.827 68.4722C139.202 74.8262 139.868 74.4865 139.144 74.6782C137.894 75.0124 136.767 75.658 135.551 76.0631C129.611 78.0228 131.053 82.3365 130.148 83.8771C128.984 82.6294 130.484 78.1513 127.272 75.4828C124.619 73.2769 124.708 75.6178 125.255 72.1533C125.472 70.7717 126.154 72.5257 129.929 72.5017C134.961 72.4691 140.163 68.0378 140.036 67.5588C139.587 65.9409 137.749 69.3389 133.168 70.7271C129.663 71.7886 126.348 71.5523 123.949 68.7499C122.79 67.3955 118.217 58.7333 118.45 57.1198C119.134 57.3484 118.905 57.7992 121.956 57.9124C122.925 57.8824 123.891 57.7754 124.842 57.5923C125.708 57.4265 126.495 56.9847 127.088 56.3331C127.68 55.6817 128.046 54.8556 128.13 53.9787C128.273 52.9139 128.762 53.8524 129.259 52.8322C129.578 52.179 130.503 51.799 130.892 52.608C131.486 53.8361 131.959 53.2852 132.068 53.8491C132.246 54.768 132.194 56.988 134.663 58.1857C136.582 58.783 138.614 58.922 140.596 58.5918C142.9 57.9625 143.791 55.7381 143.939 53.3788C143.706 52.9106 143.955 52.8257 145.633 51.8687Z" fill="#FDE6B9"/>
  <path d="M137.304 149.368C141.287 149.732 144.892 149.42 143.647 150.371C142.621 151.154 139.285 150.734 139.285 150.838C124.108 150.838 113.292 156.897 110.995 154.866C110.477 154.408 109.864 154.057 109.35 153.595C109.254 153.51 102.623 147.007 101.913 146.114C101.762 145.924 102.048 145.282 102.328 145.553C108.108 151.171 109.804 153.621 111.942 153.719C116.043 153.893 129.069 148.618 137.304 149.368Z" fill="white"/>
  <path d="M143.33 147.568C143.747 147.689 143.739 147.717 143.657 148.147C143.599 148.474 143.602 148.79 143.281 148.68C143.251 148.671 143.019 148.623 143.015 148.68C133.768 148.177 133.778 147.627 124.016 150.191C123.993 150.197 113.582 152.842 111.988 152.927C110.371 153.012 106.069 147.983 102.443 144.248C101.38 143.153 103.084 143.065 108.085 149.022C110.221 151.567 110.045 151.962 124.324 148.151C131.32 146.294 136.235 145.518 143.33 147.568Z" fill="white"/>
  <path d="M137.847 141.774C144.932 148.072 143.67 146.166 140.054 145.458C136.787 144.819 132.575 145.458 129.275 145.987C124.861 146.688 122.732 147.869 114.393 149.383C112.69 149.692 110.54 150.417 109.204 148.766C107.929 147.191 102.17 142.175 103.181 142.466C104.087 142.726 104.27 143.066 105.141 143.041C106.956 142.987 108.919 142.463 108.655 140.687C108.574 140.143 108.629 140.203 108.935 140.217C110.541 140.289 110.296 139.879 110.863 139.761C115.426 138.809 114.261 138.519 115.281 139.69C116.488 141.073 119.092 143.32 119.084 141.595C119.07 137.437 116.77 138.185 122.375 137.942C128.551 138.022 133.869 138.237 137.847 141.774Z" fill="white"/>
  <path d="M141.895 49.9768C143.013 50.7585 143.078 53.635 142.526 55.267C141.587 58.0499 139.307 57.6743 136.756 57.5349C133.263 57.3444 132.522 54.2447 133.336 51.0024C133.997 48.3839 140.606 49.0764 141.895 49.9768ZM140.499 54.665C141.466 54.2294 140.92 53.3214 140.163 53.5239C136.082 54.6127 135.422 51.9888 134.712 53.1069C134.63 53.2144 134.591 53.3505 134.609 53.4854C134.626 53.6203 134.696 53.743 134.803 53.8266C136.646 55.0765 138.175 55.7156 140.499 54.665Z" fill="#FDE6B9"/>
  <path d="M150.901 13.6222C149.911 11.8541 149.222 12.4377 148.478 11.8911C147.263 10.9972 147.233 10.3962 146.519 10.3189C145.773 10.0753 144.992 9.9554 144.208 9.964C142.319 10.001 143.071 8.95037 141.472 8.54862C140.325 8.26227 140.156 8.07827 138.184 8.92315C136.691 9.56225 136.276 8.1915 134.278 8.79576C130.061 10.0718 131.711 10.2449 129.007 9.22147C128.31 9.30095 127.621 9.43193 126.944 9.61342C123.993 11.6048 124.794 11.5329 124.004 11.7256C122.381 12.123 120.533 12.2471 119.943 14.8961C119.933 14.9385 119.968 14.9897 119.981 15.0398C122.35 13.6756 123.584 11.0364 133.614 10.2416C147.978 9.10715 153.071 17.4982 150.901 13.6222Z" fill="#3B3C3F"/>
  <path d="M133.435 81.968C135.079 82.2544 135.798 89.7559 136.57 91.7048C136.868 92.4528 137.143 92.4669 137.723 92.2318C140.569 91.0984 152.365 69.6237 145.912 67.2687C145.469 67.1076 146.212 67.4212 143.309 66.3509C142.741 66.1419 142.849 66.1941 142.047 68.8431C141.79 69.6901 143.402 70.7538 143.621 70.8562C143.727 70.3517 143.681 69.8272 143.491 69.3483C143.026 68.2268 145.24 67.7619 144.744 71.1447C143.909 76.8356 133.305 76.3707 132.223 80.4068C129.6 90.1849 130.225 86.4156 130.19 93.5622C130.161 99.8106 130.311 99.9271 129.875 100.071C128.669 100.468 128.964 99.2129 129.024 90.6443C128.911 89.2407 129.01 87.828 129.317 86.4537C129.571 85.7471 128.431 82.4035 128.246 80.373C128.097 79.4243 127.843 78.4948 127.491 77.601C126.761 76.698 125.808 76.0006 124.727 75.577C122.751 74.9118 122.424 74.0223 120.873 72.6929C119.099 71.1687 119.748 68.0896 120.89 68.5034C121.428 68.6972 120.768 69.1784 120.907 70.5426C120.931 70.7789 121.007 70.695 121.878 70.1245C122.656 69.615 122.966 69.4234 122.566 68.806C121.749 67.5409 121.732 67.358 121.259 67.419C116.004 68.0973 116.443 71.97 116.66 76.3969C116.878 78.002 117.201 79.5911 117.628 81.1537C117.975 82.7583 118.534 84.3099 119.289 85.7678C119.698 87.1956 120.452 88.5008 121.485 89.5687C123.406 91.1811 123.891 76.3207 127.1 79.3539C127.922 80.1302 127.718 81.3137 127.202 81.3289C126.589 81.3474 126.647 80.9566 126.449 80.52C125.698 78.8694 124.408 91.0156 121.993 91.0243C121.47 91.0243 121.916 91.4979 122.421 92.2633C123.327 93.6373 129.66 103.237 131.153 102.562C132.751 101.839 138.219 94.1556 138.508 93.29C138.255 93.3085 138.343 93.3521 138.148 93.4512C134.515 95.2748 134.87 88.3188 133.284 83.4858C133.219 83.5427 133.164 83.6096 133.119 83.6839C133.065 83.7847 132.976 83.8634 132.87 83.9061C132.763 83.9489 132.645 83.9532 132.537 83.9182C132.427 83.8833 132.333 83.8112 132.272 83.7145C132.21 83.6179 132.184 83.5028 132.198 83.3889C132.314 82.6213 132.669 81.833 133.435 81.968Z" fill="white"/>
  <path d="M127.044 50.0937C127.306 50.9385 127.398 51.8269 127.314 52.7075C127.23 53.588 126.971 54.443 126.554 55.2228C125.498 57.2044 122.716 56.7972 120.457 56.66C118.504 56.5413 116.74 54.4052 118.023 49.7507C118.524 47.9293 121.762 48.5531 121.773 48.3125C123.958 48.4344 126.145 48.2167 127.044 50.0937ZM125.629 53.6354C126.005 53.5266 126.229 53.029 125.999 52.7644C125.375 52.0415 123.091 53.4841 121.667 52.2113C121.08 51.6866 120.413 51.7399 120.436 52.5108C121.541 54.5489 123.528 54.2343 125.629 53.6354Z" fill="#FDE6B9"/>
  <path d="M116.736 14.3753C117.793 14.6268 118.943 15.8996 117.916 17.0417C108.467 27.5536 113.943 37.3688 109.141 34.8973C107.399 34.0034 108.416 35.1074 106.513 36.8995C103.605 39.6378 101.396 37.1684 101.706 35.7335C101.997 34.3878 100.702 35.2228 99.4325 33.6583C99.0307 33.1629 98.3437 32.9245 97.9246 33.3981C94.5995 37.1489 93.919 30.2853 92.263 32.4182C91.9775 32.837 91.5764 33.1639 91.1086 33.3588C90.6407 33.5537 90.1262 33.6083 89.6278 33.516C89.1295 33.4237 88.6687 33.1884 88.3016 32.8388C87.9346 32.4893 87.6772 32.0405 87.5607 31.5472C87.5378 31.4721 87.7109 30.9037 87.8873 30.1492C88.0735 29.3664 87.6815 29.3163 86.5449 28.6369C85.4256 27.9695 85.553 25.7354 86.6908 24.7174C87.2438 24.222 87.8633 24.9025 88.0691 24.2297C88.1943 23.8225 88.0136 23.3423 87.3538 23.0843C85.8524 22.4985 84.9379 19.9367 85.7468 18.8479C86.266 18.2544 86.9412 17.8184 87.6957 17.5893C87.825 17.5401 87.9374 17.4544 88.019 17.3427C88.1007 17.2309 88.1483 17.098 88.156 16.9597C88.1637 16.8215 88.1313 16.684 88.0625 16.5639C87.9938 16.4438 87.8917 16.3462 87.7686 16.2828C86.277 15.5719 86.4251 14.2958 87.356 12.9425C88.0659 11.9104 90.3871 12.4384 89.2243 10.3491C89.0624 9.99034 88.985 9.59915 88.9982 9.20567C89.0114 8.8123 89.1148 8.4271 89.3003 8.08001C89.4859 7.7328 89.7487 7.43296 90.0685 7.20345C90.3883 6.97394 90.7565 6.82086 91.1449 6.75618C92.496 6.42956 93.0829 7.10459 93.7655 7.27008C94.643 7.48783 94.7301 6.60485 95.2658 5.3985C96.0639 3.60314 98.102 3.26672 98.8304 3.98312C98.9295 4.10659 99.0575 4.2037 99.2031 4.26587C99.3486 4.32815 99.5073 4.35362 99.665 4.34012C99.8227 4.32651 99.9747 4.27436 100.108 4.18824C100.24 4.10201 100.35 3.98443 100.427 3.84594C100.87 3.1426 101.08 2.60258 102.003 2.19211C103.545 1.50184 106.079 1.53233 106.654 3.43547C106.992 4.55145 106.782 5.21124 107.375 5.40286C108.268 5.69247 107.635 4.99784 110.305 3.72508C110.715 3.59715 111.153 3.5855 111.569 3.69133C114.764 4.19325 111.625 9.55538 114.082 8.37952C114.401 8.29972 114.733 8.28959 115.056 8.34958C115.38 8.40968 115.687 8.53859 115.955 8.7276C116.224 8.9165 116.45 9.16125 116.615 9.44498C116.782 9.72871 116.885 10.0449 116.918 10.372C116.971 11.2017 116.838 12.0328 116.531 12.8053C116.363 13.045 116.29 13.3395 116.327 13.6303C116.365 13.9212 116.511 14.1871 116.736 14.3753Z" fill="#3B3C3F"/>
  <path d="M117.169 48.2732C116.582 50.0327 116.371 51.8958 116.55 53.742C116.739 55.398 117.113 55.5689 116.294 55.5755C112.2 53.7692 114.007 40.2849 116.962 39.3867C117.044 40.1543 116.807 39.3519 116.751 43.2104C116.733 44.5148 117.092 46.0739 117.169 48.2732Z" fill="#42E694"/>
  <path d="M117 165.149C117.175 165.382 117.137 165.367 116.925 165.384C115.369 165.603 113.793 165.661 112.224 165.557C109.502 165.196 104.355 166.344 101.692 165.992C99.5141 165.701 92.0278 166.001 91.0991 166.033C88.522 166.124 86.0342 165.721 85.2339 165.915C84.4337 166.109 84.5687 166.073 84.3172 165.379C82.6438 160.763 84.045 160.566 82.8332 156.308C82.4081 154.777 82.0736 153.222 81.8316 151.651C81.7749 151.303 81.8316 151.238 82.1778 151.223C95.9832 150.587 91.5596 151.129 98.8162 150.976C103.171 150.882 102.409 150.275 104.864 152.609C109.852 157.342 110.852 158.771 112.416 158.769C113.166 158.76 114.508 161.853 117 165.149Z" fill="white"/>
  <path d="M115.901 134.99C116.22 135.689 116.742 136.406 116.606 136.515C114.385 138.265 114.931 136.655 114.337 136.319C114.256 136.266 114.189 136.193 114.146 136.107C114.102 136.021 114.081 135.925 114.087 135.829C114.092 135.732 114.124 135.638 114.178 135.558C114.232 135.477 114.306 135.413 114.393 135.37C115.601 135.117 115.647 134.433 115.901 134.99Z" fill="#00703F"/>
  <path d="M115.363 38.7593C115.991 38.805 114.229 39.2242 113.512 42.6048C112.889 45.604 112.635 48.6678 112.755 51.7286C112.857 54.7651 114.883 55.6797 113.906 55.9116C112.708 56.0445 111.504 55.7251 110.53 55.0162C109.555 54.3072 108.88 53.2597 108.638 52.0791C107.961 48.115 108.421 48.5951 108.176 48.5559C108.599 45.4421 108.777 40.4697 111.402 39.1676C113.047 38.351 113.442 38.6188 115.363 38.7593Z" fill="#00703F"/>
  <path d="M115.107 133.232C115.172 133.761 114.364 134.246 114.019 134.297C113.567 134.366 113.758 134.08 112.078 132.07C109.839 129.391 109.146 130.023 106.869 128.416C105.44 127.407 105.202 128.617 105.94 129.104C108.355 130.695 110.781 131.468 112.751 134.921C112.994 135.347 112.979 135.485 112.661 135.88C111.77 136.99 109.81 134.513 107.669 133.735C106.464 133.249 105.306 132.652 104.211 131.953C103.449 131.49 102.381 132.509 105.135 133.885C106.442 134.538 111.309 136.607 110.487 138.281C109.805 139.667 108.716 139.348 102.77 136.154C100.066 134.702 100.492 136.319 100.911 136.561C104.632 138.699 104.641 138.412 106.392 139.361C107.916 140.192 107.735 141.331 106.8 141.66C103.776 142.726 98.9317 137.723 98.0977 139.185C97.7776 139.746 98.6726 140.065 98.0977 140.062C97.0329 140.062 97.1385 140.075 97.1385 140.038C74.2496 139.443 75.297 139.982 75.2284 139.29C74.9088 137.485 74.8633 135.642 75.0934 133.823C75.2987 132.464 75.7716 131.159 76.4843 129.984C77.1971 128.809 78.1357 127.787 79.2459 126.977C81.8589 125.242 81.7174 125.057 88.0648 126.992C93.9191 128.777 93.8679 126.992 100.743 124.038C100.988 123.929 101.317 123.836 101.221 124.086C100.613 125.665 98.7488 124.856 98.4875 127.867C98.3547 129.391 96.6824 128.882 96.2479 130.717C95.9562 131.951 96.298 132.822 95.2267 133.438C93.7122 134.309 93.9311 138.022 95.3149 137.379C95.6905 137.204 95.4662 136.625 95.4412 136.578C95.0242 135.776 95.7678 134.527 96.3535 134.17C96.6692 133.948 96.925 133.652 97.0981 133.308C97.2713 132.963 97.3562 132.58 97.3454 132.195C97.1146 129.668 99.3563 130.78 99.782 128.329C100.357 125.018 101.278 127.507 102.593 124.369C103.744 121.622 112.667 128.246 113.442 129.474C114.303 130.567 114.875 131.86 115.107 133.232Z" fill="#FDE6B9"/>
  <path d="M113.286 124.206C113.445 124.21 113.6 124.257 113.735 124.342C113.87 124.426 113.98 124.546 114.052 124.687C114.124 124.829 114.158 124.987 114.148 125.146C114.14 125.305 114.087 125.458 113.998 125.59C113.704 125.965 113.316 126.257 112.872 126.435C112.716 126.521 112.491 126.173 111.566 124.675C111.345 124.321 111.54 124.4 113.286 124.206Z" fill="#FDE6B9"/>
  <path d="M110.582 125.211C110.827 125.592 109.667 124.884 107.906 123.796C105.717 122.449 106.938 123.899 104.779 120.046C97.788 107.572 98.5588 108.929 98.1266 108.772C97.1315 108.411 97.8784 107.721 98.965 107.203C100.294 106.57 101.251 105.883 101.2 106.785C101.054 107.72 110.154 124.55 110.582 125.211Z" fill="#00703F"/>
  <path d="M101.553 142.117C101.866 143.097 101.988 142.752 101.408 143.76C101.07 144.349 102.096 144.865 101.447 144.919C101.412 144.919 75.612 147.448 74.6636 147.145C74.4056 147.063 74.4459 147.232 73.6707 143.796C73.5215 143.143 73.3735 144.34 82.4461 143.361C90.9689 142.438 81.8396 143.469 96.9527 142.107C102.43 141.613 101.381 141.58 101.553 142.117Z" fill="#8A8C93"/>
  <path d="M91.4762 141.022C94.4082 141.073 93.7517 141.164 90.885 141.377C80.9163 142.117 73.8939 143.25 73.4202 141.978C72.7692 140.229 71.0794 140.664 91.4762 141.022Z" fill="#B5B6BA"/>
  <path d="M87.6713 124.01C88.0992 124.317 88.7796 125.94 87.8433 125.554C86.6841 125.136 85.4992 124.793 84.2961 124.526C80.05 123.372 75.9933 127.071 74.4069 131.445C72.7063 136.138 74.4636 139.634 73.7428 139.611C72.7771 139.587 73.0645 140.767 71.4825 132.403C69.7612 123.308 69.1374 123.302 70.0672 122.417C71.8614 120.704 72.4624 119.3 74.4222 119.062C75.364 118.947 76.0967 118.3 77.2911 118.653C77.5818 118.738 78.2786 118.361 80.2427 119.84C84.6249 123.15 83.4687 120.984 87.6713 124.01Z" fill="white"/>
  <path d="M73.0382 146.811C73.2559 147.891 73.1068 147.311 69.5171 147.052C65.0151 146.725 62.585 146.551 58.7177 146.1C13.2588 140.794 16.2932 142.289 15.2001 137.023C4.64354 86.1488 1.49593 86.4329 9.99257 85.98C12.2332 85.8613 39.389 86.1618 38.4091 87.845C35.0645 93.5817 34.5985 93.3977 37.1168 94.652C41.0723 96.6117 41.0875 96.5736 41.7625 95.573C47.4121 87.2016 46.8917 87.6425 47.2956 87.6839C54.9811 88.4667 60.7221 88.5092 62.3204 91.7123C63.7489 94.5877 67.0152 116.867 73.0382 146.811ZM55.4319 140.224C62.5589 140.563 65.8752 130.915 60.7526 126.473C56.7046 122.963 49.8955 125.671 48.5901 131.07C47.6701 134.868 50.4105 139.985 55.433 140.224H55.4319ZM55.556 109.876C57.3426 105.77 59.0019 106.047 59.432 102.091C58.7112 95.8975 53.2674 97.376 51.9598 100.188C51.5973 100.969 51.9065 99.6537 50.1732 99.4371C49.1982 99.3685 48.2264 99.6091 47.3958 100.124C46.5651 100.639 45.9179 101.403 45.546 102.307C45.318 102.912 45.2131 103.557 45.2375 104.203C45.2619 104.848 45.415 105.483 45.6879 106.07C45.9608 106.656 46.3479 107.181 46.8267 107.616C47.3054 108.05 47.8661 108.386 48.4758 108.6C50.3626 109.166 50.8613 108.971 51.704 109.269C54.4607 110.242 54.9757 111.21 55.556 109.876ZM40.64 122.116C42.3635 120.535 42.9014 118.324 43.0353 115.962C42.8567 107.328 33.8277 105.154 29.5412 109.52C22.3021 116.89 32.8097 129.295 40.6367 122.116H40.64ZM32.1771 139.332C35.4434 139.034 34.7803 139.681 34.6693 134.732C34.7671 133.329 34.7176 131.919 34.5212 130.525C34.4918 130.213 33.7983 129.718 33.2626 129.774C31.0579 129.938 28.8454 129.973 26.6364 129.883C24.8487 129.883 22.9346 130.071 21.6336 130.094C20.4076 130.115 17.6912 130.223 17.8414 131.436C19.2067 142.448 17.4506 138.427 24.3674 139.48C26.8509 139.864 27.0523 138.808 32.1738 139.332H32.1771ZM24.3816 97.8442C24.8095 97.5491 24.9325 97.2247 24.6712 96.7903C24.014 95.5611 23.1953 94.4266 22.2367 93.4151C21.394 92.604 21.1121 91.8778 20.5873 92.1979C18.2835 93.6046 18.6449 93.781 16.9868 94.6716C14.8412 95.8333 12.8085 97.1909 10.9147 98.7294C10.5413 99.0048 10.0437 99.3086 10.1298 99.9085C10.3845 101.711 10.856 100.852 12.1559 103.137C12.512 103.763 13.3688 104.797 14.1669 104.686C15.027 104.795 14.8354 104.32 17.959 102.4C20.1951 101.02 22.3404 99.498 24.3816 97.8442Z" fill="#8A8C93"/>
  <path d="M54.2119 99.448C57.2005 97.8083 58.7357 100.799 58.0922 103.013C57.5402 104.911 57.2354 104.526 55.6447 107.103C53.6 110.415 55.9713 108.567 50.2869 107.742C48.0005 107.416 46.4763 106.157 46.375 103.75C46.5764 101.246 49.8329 99.8171 50.8683 101.108C51.1329 101.435 51.5477 101.616 51.7556 102.023C51.858 102.222 52.3762 102.161 52.5287 101.959C52.7889 101.606 52.9544 100.139 54.2119 99.448Z" fill="#C72527"/>
  <path d="M57.6123 126.331C63.8182 127.931 63.5721 137.773 55.7211 139.021C54.8365 139.003 53.9732 138.745 53.2246 138.274C52.2675 137.814 51.443 137.12 50.8283 136.254C50.2137 135.389 49.8292 134.38 49.7109 133.327C49.5926 132.272 49.7443 131.203 50.1519 130.224C50.5595 129.243 51.2096 128.382 52.0411 127.723C52.8251 127.122 53.7241 126.688 54.6824 126.449C55.6406 126.21 56.6378 126.17 57.6123 126.331ZM55.8289 137.06C57.8267 136.757 60.2764 134.6 59.3989 133.997C58.4549 133.344 57.4598 136.244 54.9274 135.64C54.5195 135.575 54.135 135.407 53.8094 135.153C53.4839 134.899 53.228 134.567 53.0656 134.187C52.5571 133.173 50.5125 135.868 55.8289 137.06ZM58.5508 132.233C59.1278 132.256 59.2672 131.3 59.1594 130.736C59.1483 130.583 59.0822 130.438 58.9731 130.329C58.864 130.22 58.7192 130.154 58.5654 130.143C58.4115 130.132 58.2589 130.177 58.1354 130.269C58.0119 130.362 57.9259 130.496 57.8932 130.646C57.7168 131.202 57.8224 132.208 58.5584 132.237L58.5508 132.233ZM53.8626 131.875C53.9714 130.786 54.0172 130.242 53.2039 130.176C52.4744 130.12 52.3786 131.248 52.7684 132.041C52.9545 132.425 53.8168 132.378 53.8658 131.878L53.8626 131.875Z" fill="#FFD200"/>
  <path d="M53.2382 159.105C53.4788 159.118 53.4788 159.277 53.2077 161.391C53.1043 162.199 52.8038 162.254 45.0758 162.915C43.7693 163.024 43.6822 163.069 43.6843 162.705C43.6963 159.685 43.5014 159.57 44.0491 159.528C47.0989 159.178 50.1691 159.036 53.2382 159.105Z" fill="white"/>
  <path d="M52.5212 157.513C52.5518 157.528 52.5761 157.553 52.5895 157.585C52.6029 157.617 52.6044 157.651 52.594 157.684C52.5835 157.717 52.5617 157.744 52.5326 157.761C52.5034 157.779 52.4688 157.785 52.4352 157.78C48.213 157.606 43.3713 158.584 42.7453 158.199C40.3108 156.691 38.5884 156.044 38.375 155.804C39.4505 155.637 40.5366 155.55 41.6249 155.541C50.1608 155 48.2326 154.883 52.5212 157.513Z" fill="white"/>
  <path d="M42.4504 159.868C42.5887 163.799 43.2507 163.352 39.1983 161.292C37.9375 160.65 36.6746 160.571 36.5853 158.849C36.4633 156.465 36.5668 156.494 36.864 156.607C38.382 157.164 39.821 157.918 41.145 158.846C41.9365 159.417 42.4265 159.199 42.4504 159.868Z" fill="white"/>
  <path d="M33.5693 136.099C33.7097 137.794 33.8208 137.927 33.2426 137.994C31.4015 138.212 29.7434 137.559 27.543 138.067C26.2517 138.361 24.9141 138.391 23.6115 138.151C19.1476 137.864 19.8008 138.913 19.5548 136.533C19.5439 135.662 20.7578 137.152 22.4835 135.906C23.1161 135.449 23.7182 137.01 25.3295 136.174C25.7895 136.037 26.2331 135.85 26.6524 135.615C26.6992 135.576 26.8701 135.615 26.9322 135.669C28.0721 136.703 30.1854 135.761 30.7494 135.373C31.1304 135.109 31.5801 135.965 32.4848 135.968C33.1893 135.97 33.5301 135.626 33.5693 136.099Z" fill="#00703F"/>
  <path d="M38.0591 122.47C43.3941 120.977 43.3614 108.072 35.1249 108.655C33.2741 108.787 31.3949 109.042 30.0513 110.729C28.8345 112.32 28.2706 114.314 28.4745 116.307C28.6785 118.299 29.635 120.139 31.1488 121.45C31.7673 121.901 32.4382 122.275 33.1467 122.565C35.1337 123.596 36.6285 122.866 38.0591 122.47Z" fill="#EFEFF0"/>
  <path d="M44.4488 89.6088C46.7667 86.164 45.7923 88.0846 40.8178 87.2277C40.293 87.1363 39.9958 87.2277 39.0692 88.7846C36.3637 93.3346 36.441 93.0613 37.0822 93.3574C41.14 95.2497 40.6751 95.168 41.1019 94.579C41.4177 94.1468 41.5755 93.8724 44.4488 89.6088Z" fill="#00703F"/>
  <path d="M23.382 96.9933C22.7248 95.751 21.8765 94.6187 20.8681 93.6399C20.5937 93.3242 20.965 93.6084 17.0117 95.9829C13.8369 97.8883 13.1357 98.8605 11.8173 99.5573C11.2598 99.8524 10.8755 100.008 11.8173 100.755C12.6371 101.408 12.3616 101.531 14.0416 103.464C14.3083 103.771 14.4586 103.312 14.942 102.977C16.5305 101.874 22.6613 97.9253 23.382 96.9933Z" fill="#FFD200"/>
  <path d="M31.7477 134.2C32.3607 135.121 33.6171 134.663 33.5844 134.107C33.3667 130.467 33.8762 130.817 31.7335 130.912C27.1608 131.113 27.5157 130.925 25.679 131.114C18.0457 131.899 18.8503 130.243 19.3511 134.682C19.4175 135.273 21.0409 135.722 22.048 134.766C22.5804 134.261 23.0442 133.781 23.5047 134.62C24.0153 135.551 24.6827 135.132 25.7563 134.729C26.6795 134.38 26.5184 133.388 27.679 134.669C28.2484 135.297 29.9033 134.58 30.4836 133.957C30.8016 133.616 30.8375 133.625 31.2752 133.796C31.4732 133.874 31.6395 134.017 31.7477 134.2Z" fill="#8EC3F8"/>
  <path d="M99.7528 105.804C100.137 105.677 100.227 105.453 99.9455 105.02C99.7844 104.772 99.5731 104.234 98.8861 104.29C98.5506 104.31 98.2229 104.4 97.9241 104.554C97.6255 104.708 97.3623 104.923 97.1517 105.185C97.0344 105.401 96.9913 105.65 97.0288 105.893C97.0664 106.136 97.1827 106.359 97.3597 106.53C97.6025 106.807 97.7005 106.639 97.9226 106.617C98.5054 106.288 99.1183 106.016 99.7528 105.804Z" fill="#C875DD"/>
  <path d="M179.884 154.876C180.319 154.859 180.467 154.823 180.413 154.114C180.357 153.379 179.977 154.498 171.145 152.798C162.93 151.218 164.312 150.537 157.63 150.16C154.808 149.999 154.177 150.361 150.461 150.447C150.106 150.456 150.135 150.623 150.005 151.669C149.93 152.252 153.56 151.065 158.899 151.794C165.949 152.762 173.434 155.133 179.884 154.876Z" fill="#966A11"/>
  <path d="M147.867 152.38C149.334 152.078 148.901 150.158 148.622 148.57C148.404 147.337 146.19 148.476 145.023 148.935C144.795 149.025 144.774 148.963 145.372 151.847C145.581 152.855 146.718 152.618 147.867 152.38Z" fill="#966A11"/>
  <path d="M143.964 152.659C144.326 152.577 144.192 152.346 144.108 152.006C144.006 151.589 143.999 151.57 143.592 151.666C141.97 152.062 138.28 151.827 133.976 152.102C128.728 152.441 119.815 154.854 119.792 154.859C108.71 157.107 113.586 157.999 102.506 148.159C102.288 147.963 101.852 147.897 102.03 148.179C102.735 149.276 108.486 154.752 109.334 155.653C110.133 156.572 111.131 157.299 112.251 157.777C116.535 157.356 111.85 157.479 126.358 154.674C134.009 153.2 138.736 153.84 143.964 152.659Z" fill="#966A11"/>
  <path d="M206.559 134.505C199.047 133.885 198.268 135.025 198.829 133.451C200.708 128.205 196.699 122.346 194.977 118.941C193.412 115.781 192.166 112.472 191.257 109.065C187.522 98.2955 184.387 98.8148 182.089 90.8745C180.409 85.0649 177.657 79.2695 172.125 76.8296C166.809 74.4833 168.443 74.6085 166.212 74.1153C160.032 72.7478 161.707 70.6476 154.512 70.1598C153.723 70.1065 154.204 69.0852 152.533 68.5593C148.797 67.3857 148.555 67.9562 148.145 67.3247C147.383 66.1575 146.206 66.0018 143.629 65.2713C143.248 65.1624 143.368 65.0274 144.041 63.5097C146.546 57.8601 145.137 58.5188 147.294 60.4274C148.896 61.8428 152.021 62.4002 153.985 62.2685C158.204 61.9843 162.126 51.9841 159.33 44.9115C159.185 44.5457 159.198 44.819 159.82 39.9544C159.901 39.3153 161.134 40.8134 162.36 40.6077C163.071 40.5327 163.759 40.3101 164.38 39.9544C164.85 39.6496 164.608 40.2092 165.769 40.9757C166.409 41.4444 167.196 41.6677 167.987 41.605C168.777 41.5421 169.518 41.1976 170.077 40.6338C170.567 40.0513 170.295 40.0622 171.034 40.4552C172.783 41.3829 175.764 41.3404 177.013 39.9196C178 38.7982 177.869 38.0567 178.414 38.1884C181.377 38.9016 183.438 37.7138 184.148 36.282C184.579 35.2766 184.726 34.1718 184.572 33.0887C184.51 32.1611 190.283 33.2705 189.144 25.4293C188.945 24.0488 189.104 23.524 188.469 22.8315C187.28 21.5326 187.041 21.6938 187.201 21.3214C188.389 18.5462 187.545 14.5994 184.527 13.073C184.161 12.8879 184.372 12.7529 184.547 11.4878C184.949 8.559 182.307 6.24648 180.55 5.68686C179.158 5.24374 178.489 5.84038 178.281 5.23611C177.736 3.64762 177.361 2.29647 175.45 1.8479C173.877 1.47772 171.157 1.60838 170.241 2.4293C168.997 3.54419 169.064 4.00146 168.663 3.70641C166.628 2.21372 163.378 2.60241 162.062 4.22684C159.523 7.36028 161.058 9.50949 159.843 9.51602C159.305 9.51406 158.773 9.64471 158.298 9.89622C157.822 10.1478 157.416 10.5127 157.114 10.9586C155.929 12.7398 156.992 13.3386 156.009 13.3441C155.407 13.3218 154.811 13.4737 154.293 13.7814C153.775 14.0892 153.357 14.54 153.089 15.0796C152.436 15.9234 152.92 14.5744 151.994 12.8857C150.601 10.3467 149.458 11.4486 148.533 10.1519C147.003 8.007 144.018 9.13604 143.524 8.25742C142.964 7.26338 140.115 6.37169 138.048 7.49529C136.475 8.35323 136.81 5.99389 131.15 8.46319C130.599 8.70381 130.32 8.14963 129.563 8.01898C126.243 7.44629 124.327 10.1791 123.618 10.4665C121.303 11.4018 120.431 10.7354 118.892 14.2663C118.071 13.5586 117.782 13.3953 117.858 13.1775C119.181 9.46703 117.238 6.9716 114.757 6.90518C113.886 6.88123 115.664 2.10703 110.827 2.23659C108.811 2.28994 108.214 3.81093 107.96 2.98892C106.743 -0.91863 101.417 0.467357 100.527 1.3732C99.5755 2.34329 99.6158 2.8169 99.2348 2.53491C98.6591 2.24366 98.0033 2.15145 97.3697 2.27252C94.3876 2.29429 93.9434 5.85126 93.472 5.60194C92.74 5.27313 91.9282 5.16469 91.1357 5.29001C90.3431 5.41522 89.6043 5.76874 89.0095 6.30724C88.4146 6.84563 87.9895 7.54581 87.7863 8.32198C87.583 9.09816 87.6103 9.91679 87.8649 10.6777C88.0543 11.3462 86.8752 10.8302 86.0194 12.5449C85.6332 13.1502 85.4153 13.8474 85.3882 14.5648C85.361 15.2823 85.5255 15.994 85.8648 16.6267C86.1163 17.0622 84.7271 17.6915 84.4843 18.3774C83.7352 20.4896 84.4625 21.9115 85.6732 23.4663C85.8822 23.7352 85.8714 23.8158 85.1288 24.9198C83.953 26.6803 84.5169 29.1724 85.904 29.8442C86.6847 30.222 86.5801 30.2797 86.3635 30.9754C85.8049 32.786 87.6068 34.895 90.2394 34.9287C92.675 34.9581 92.5879 33.4632 93.116 34.1448C93.3949 34.5982 93.7694 34.9852 94.2134 35.279C94.6574 35.5727 95.1601 35.766 95.6865 35.8454C97.5287 36.1949 98.2375 34.5095 98.7579 35.0387C98.7797 35.0604 100.211 36.1764 100.427 36.9364C101.088 39.2631 104.142 40.5423 106.83 38.502C107.569 38.0234 108.169 37.3569 108.567 36.5706C108.799 35.9913 109.277 36.7731 110.209 36.5891C111.224 36.3898 111.342 36.2929 111.306 36.6783C111.226 37.5341 111.465 37.7366 111.088 37.9043C106.716 39.8401 104.855 54.5895 110.669 56.4807C116.387 58.3403 116.805 56.0865 117.132 57.061C120.18 66.1858 121.661 65.8135 120.325 66.2065C116.852 67.2147 117.37 68.0041 116.929 67.611C116.385 67.1222 115.514 67.5174 114.361 67.402C112.705 67.2354 111.041 67.6383 110.306 69.144C109.98 69.8049 109.851 69.5196 108.455 69.5566C97.3371 69.8539 97.9566 75.7941 85.8801 87.5059C84.015 89.3143 83.5338 91.065 82.7227 92.8071C78.5995 101.661 79.5892 96.0385 73.9865 105.818C73.6827 106.347 68.4197 112.401 67.9232 112.75C67.6303 112.055 66.4915 104.693 65.9569 101.838C63.468 88.5653 65.0293 87.8075 47.6571 86.5413C37.402 85.7955 17.6988 84.2244 7.61363 84.8951C5.50142 85.0366 3.42407 87.115 3.77683 90.4477C4.16116 94.0896 14.0961 134.393 13.0422 134.345C9.30012 134.177 1.77352 134.148 1.18014 134.236C0.80561 134.294 0.49858 135.079 1.05167 135.342C1.60476 135.604 6.20478 135.45 8.20918 135.477C14.524 135.565 13.5321 135.465 13.9023 137.05C15.3242 143.128 12.2202 142.15 52.9353 146.685C67.0097 148.253 74.0278 149.245 88.8295 147.548C100.697 146.186 101.307 145.889 100.98 147.07C100.719 148.015 101.153 148.358 101.913 149.539C102.32 150.173 100.473 149.43 97.496 149.841C95.1454 150.167 93.5667 149.623 86.5562 149.866C85.1413 150.007 83.7179 150.04 82.298 149.965C81.3476 149.9 80.4178 150.535 80.752 151.625C80.7586 151.647 82.04 158.259 82.0422 158.279C82.5615 163.916 81.7232 161.546 83.3988 166.585C83.7178 167.542 84.6879 167.198 87.0755 167.139C87.0962 167.139 113.936 167.132 117.989 166.521C118.617 166.427 118.701 165.595 118.424 165.2C116.837 163.13 115.389 160.957 114.088 158.695C116.628 157.972 115.544 158.138 116.566 159.069C118.052 160.424 118.558 161.914 119.54 163.483C119.774 163.857 120.124 164.158 120.382 164.519C122.005 166.795 120.192 167.616 134.278 165.223C137.57 164.663 133.101 165.815 147.972 163.513C149.294 163.361 150.599 163.09 151.872 162.704C153.346 162.269 150.37 159.944 145.524 154.539C144.069 152.914 146.791 154.767 149.055 153.227C149.394 152.997 149.617 152.913 152.772 152.753C160.624 152.354 165.591 154.805 176.356 156.04C177.694 156.116 179.035 156.1 180.37 155.99C180.835 155.807 181.21 155.447 181.409 154.988C181.609 154.53 181.619 154.012 181.436 153.546C181.347 153.317 181.249 153.246 181.354 153.086C181.745 152.499 182.063 150.917 181.533 150.464C181.321 150.283 181.514 149.759 181.611 149.494C182.271 147.688 180.507 147.588 181.267 147.361C181.751 147.217 187.227 146.127 190.372 144.14C193.396 142.011 195.912 139.243 197.744 136.031C198.173 135.166 206.699 135.845 207.078 135.687C207.752 135.413 207.648 134.596 206.559 134.505ZM144.209 51.5823C143.556 51.9634 144.138 51.1904 143.422 49.8915C142.566 48.3389 140.904 48.291 139.054 48.1734C137.581 48.014 136.092 48.0746 134.638 48.3531C133.89 48.6222 133.239 49.1075 132.767 49.7471C132.296 50.3868 132.025 51.1521 131.989 51.946C131.744 51.5946 131.403 51.3205 131.008 51.1554C130.613 50.9904 130.178 50.9414 129.756 51.014C129.092 51.0728 128.481 52.2574 128.416 51.6357C128.472 50.8843 128.313 50.1326 127.956 49.469C127.599 48.8053 127.06 48.2575 126.403 47.8904C126.287 47.8046 126.15 47.752 126.007 47.7379C125.366 47.6826 124.731 47.5752 124.107 47.4168C122.276 47.1963 120.423 47.2506 118.608 47.5779C117.679 47.8795 117.752 41.5745 118.449 36.429C118.489 36.1296 118.692 36.11 118.842 36.1721C119.274 36.2909 119.735 36.2475 120.138 36.0501C121.633 35.6222 122.239 35.5058 122.768 34.1655C122.93 33.755 122.901 33.7561 123.366 33.8084C127.222 34.2439 127.623 31.9466 128.175 32.5422C128.45 32.8383 128.959 32.7599 128.502 33.3043C128.282 33.5536 128.148 33.8677 128.122 34.1993C128.096 34.531 128.177 34.8623 128.356 35.1432C128.58 35.4818 128.554 35.6212 128.263 35.926C127.174 37.0692 126.607 38.2494 127.566 39.5657C127.959 40.074 128.499 40.45 129.112 40.6436C129.766 40.992 128.818 41.0345 128.823 42.8451C128.816 43.4604 129.048 44.0542 129.472 44.5013C129.894 44.9482 130.474 45.2132 131.09 45.2403C131.802 45.3329 131.569 44.7264 131.489 43.7934C131.449 43.3154 132.26 42.6839 132.64 42.3954C134.937 40.6534 131.348 39.0442 132.62 37.79C132.78 37.5963 132.969 37.4288 133.18 37.2935C134.042 36.8732 133.942 35.7039 133.522 34.8046C133.218 34.1633 133.176 34.3811 135.125 32.8241C135.35 32.6434 135.429 32.7153 136.189 33.3184C137.462 34.3255 138.459 34.1013 139.882 33.742C140.22 33.657 140.137 33.9075 140.588 34.5596C140.908 35.0234 141.225 35.0637 142.607 35.6865C143.247 36.0861 144.018 36.2219 144.756 36.0654C145.576 35.7573 145.176 36.3855 145.838 37.5145C146.329 38.3529 147.558 38.293 147.384 38.9451C146.871 40.857 148.074 41.4917 148.066 41.9458C148.042 43.2359 148.937 43.96 148.66 44.2877C147.447 46.0418 146.613 48.0297 146.211 50.1245C146.104 50.5665 146.002 50.535 144.209 51.5823ZM142.527 55.2667C141.587 58.0496 139.308 57.6739 136.757 57.5346C133.264 57.344 132.522 54.2444 133.337 51.002C133.997 48.3792 140.604 49.0728 141.893 49.9732C143.014 50.7582 143.079 53.6336 142.527 55.2667ZM153.761 31.0734C153.236 24.4146 147.808 16.7203 139.409 15.7513C135.451 15.2941 133.094 15.0752 130.832 15.4367C128.41 15.8529 126.107 16.7885 124.082 18.1793C122.056 19.5702 120.357 21.383 119.098 23.4935C116.776 27.6057 116.548 32.3582 116.296 37.0844C116.276 37.4601 116.229 37.5123 115.846 37.4862C114.88 37.4209 114.849 37.422 114.86 36.441C114.978 25.6198 119.503 16.1378 130.085 14.3392C134.513 13.7099 139.025 14.0442 143.312 15.3191C151.471 18.6942 156.549 25.7091 155.034 39.3654C154.659 42.7405 154.933 42.4999 154.335 42.4749C152.537 42.3965 154.645 42.2876 153.761 31.0734ZM117.713 33.4415C118.31 26.8077 118.305 28.5007 118.911 26.4059C120.095 22.3067 124.954 18.4384 127.076 17.6458C128.739 16.8513 130.562 16.4508 132.404 16.4754C143.867 15.5967 149.747 20.7498 152.197 28.7478C153.207 32.0402 152.857 37.2717 152.378 40.8766C152.011 43.6355 152.459 41.7313 150.068 42.9735C149.741 43.1412 149.43 42.8549 149.375 42.3867C149.42 42.0484 149.392 41.7047 149.293 41.3783C149.193 41.0518 149.026 40.7502 148.802 40.4934C148.302 39.8684 148.366 38.6588 149.115 38.6849C150.279 38.7241 150.994 37.7965 151.503 36.7513C151.649 36.4497 151.442 35.4927 150.757 35.8933C149.713 36.503 149.842 37.2706 148.67 37.2369C148.062 37.265 147.465 37.0686 146.992 36.6849C146.069 34.7502 146.177 34.981 146.375 34.6522C147.379 32.9885 147.426 32.9221 147.67 32.7741C148.796 32.0881 150.575 30.0837 150.59 28.7925C150.596 28.4147 149.664 28.2688 149.242 28.909C148.645 30.0491 147.759 31.0135 146.674 31.7071C145.713 32.3963 146.77 31.9923 144.633 34.4007C144.143 34.9527 143.85 34.6565 141.85 33.8062C140.536 33.2477 141.34 31.3696 142.176 30.2253C143.374 28.5921 142.754 27.4489 143.541 25.9519C144.121 24.8468 144.461 22.7771 143.274 23.1015C142.538 23.304 143.03 24.0977 142.542 24.9992C141.165 27.5448 142.69 26.6117 140.85 29.7027C140.409 30.4498 140.022 31.2268 139.691 32.0283C139.512 32.2261 139.297 32.3869 139.056 32.5013C138.817 32.6158 138.555 32.6816 138.29 32.6951C138.023 32.7087 137.757 32.6696 137.507 32.5803C137.255 32.4909 137.024 32.3528 136.827 32.1742C136.572 31.9564 136.156 31.8551 136.02 31.5938C135.883 31.3325 136.043 30.9526 136.04 30.6259C136.01 26.9242 135.284 27.7288 135.967 26.2807C136.449 25.4533 136.61 24.4786 136.421 23.5403C136.306 21.3682 136.377 21.2387 135.848 21.194C135.453 21.1614 135.257 21.3029 135.204 21.7384C135.129 22.2512 135.119 22.7715 135.178 23.2866C135.519 25.7548 133.871 25.6819 134.525 28.4811C134.778 29.5698 134.975 30.9134 134.172 31.682C132.685 33.0974 131.933 33.5329 132.266 34.7491C132.542 35.7529 132.733 35.9336 132.393 36.3125C131.469 37.3425 130.803 37.7486 131.023 38.9691C131.173 39.8053 131.776 39.4362 132.081 40.9387C132.123 41.1477 131.504 41.5451 131.147 41.9305C130.302 42.8407 130.795 42.7645 130.378 43.5049C129.13 42.145 130.87 41.9969 130.543 40.6186C130.276 39.4917 129.259 39.7944 128.526 38.6011C127.627 37.14 131.236 36.2222 130.02 35.0223C129.901 34.9026 129.178 34.5411 129.749 34.0109C129.84 33.9271 129.95 33.8628 130.049 33.7877C130.238 33.6787 130.39 33.5153 130.485 33.3188C130.58 33.1222 130.614 32.9017 130.582 32.6858C130.551 32.4697 130.455 32.2683 130.307 32.1075C130.159 31.9468 129.966 31.8342 129.754 31.7844C129.288 31.642 128.893 31.3315 128.643 30.9133C128.394 30.4951 128.309 29.999 128.406 29.5219C128.79 27.3967 127.799 27.6471 128.111 25.965C129.117 20.5212 126.248 19.9997 127.131 23.5926C127.446 24.874 126.348 26.186 127.093 28.1022C127.34 28.7413 127.049 29.363 127.168 30.7414C127.277 32.0283 123.35 33.4284 122.476 31.5035C121.939 30.3178 121.048 30.2209 121.133 28.8752C121.33 25.7004 120.173 25.2823 119.812 26.1773C119.493 26.9623 120.139 27.1245 119.91 28.4746C119.399 31.4839 122.348 32.0239 121.491 33.6777C121.025 34.5792 120.294 34.3451 119.749 34.6456C119.56 34.7497 119.347 34.8077 119.132 34.8152C118.915 34.8226 118.7 34.779 118.504 34.6881C117.66 34.3658 117.632 34.3571 117.713 33.4415ZM151.184 60.7464C147.016 59.7382 147.018 58.5439 146.628 56.0898C147.012 51.3515 147.805 44.1342 152.513 43.6616C153.832 43.5299 155.458 43.6769 154.691 44.2343C153.526 45.0817 152.661 46.2779 152.221 47.6498C151.538 50.0742 151.053 52.5501 150.771 55.0533C150.304 59.6424 151.948 60.9304 151.184 60.7464ZM156.274 59.3005C155.934 59.7406 155.546 60.1406 155.116 60.4927C153.057 61.9811 151.834 59.2722 151.964 56.6549C152.577 44.4804 157.381 42.5457 158.9 46.9246C159.188 47.7586 157.001 46.2779 155.937 48.7635C154.951 51.1612 154.443 53.7289 154.445 56.3217C154.606 59.6664 157.033 58.4165 156.274 59.3005ZM158.829 53.5519C157.612 59.1416 155.441 58.6919 155.488 55.3865C155.675 53.6009 156.195 48.696 157.942 48.2671C159.967 47.7695 159.27 51.5105 158.829 53.5519ZM153.789 16.3447C154.66 13.613 157.894 15.2091 157.709 13.4236C157.646 12.8414 157.801 12.2565 158.146 11.7834C158.491 11.3102 159 10.9827 159.574 10.865C161.193 10.6777 162.116 11.0446 161.849 9.56937C160.997 4.85287 165.74 2.42603 168.382 5.31559C168.467 5.41957 168.576 5.50112 168.7 5.55294C168.823 5.60466 168.958 5.62524 169.092 5.61261C169.224 5.59998 169.353 5.55469 169.465 5.48065C169.577 5.40661 169.669 5.30623 169.733 5.18821C170.083 4.44263 170.644 3.81616 171.348 3.38632C173.259 2.76464 176.003 2.57519 176.758 4.85723C177.183 6.14523 177.127 7.7261 178.336 7.11749C179.764 6.39891 180.765 7.24161 181.891 8.23455C185.077 11.0435 181.481 13.9288 183.395 14.1944C185.963 14.5504 187.296 19.0601 185.784 21.0982C183.981 23.5283 187.591 21.7449 187.834 25.144C188.082 28.6107 188.144 30.1915 185.329 31.215C184 31.6995 183.176 31.1747 183.204 32.5128C183.226 33.5297 183.665 34.8786 182.648 36.0937C182.332 36.3771 181.962 36.5917 181.559 36.7241C181.068 36.9436 180.537 37.0606 179.999 37.0679C179.461 37.0752 178.927 36.9726 178.43 36.7665C176.236 36.1133 177.683 38.9909 174.735 39.5799C171.388 40.2484 170.553 37.8694 169.523 39.4275C168.626 40.784 166.055 40.5565 165.168 38.7219C165.121 38.6237 165.052 38.5377 164.967 38.4709C164.881 38.404 164.781 38.3582 164.675 38.3371C164.569 38.3158 164.459 38.32 164.353 38.3489C164.249 38.378 164.153 38.4311 164.072 38.5042C163.541 38.931 162.899 39.1955 162.222 39.2663C161.95 39.3251 161.737 39.2293 160.739 38.6316C158.853 37.5014 161.692 33.0136 158.526 24.3482C156.071 17.6088 153.391 17.6088 153.789 16.3447ZM124.007 11.7295C124.794 11.5368 123.993 11.6053 126.947 9.61728C127.624 9.43578 128.313 9.3048 129.01 9.22532C131.716 10.2477 130.064 10.0756 134.281 8.79962C136.28 8.19536 136.695 9.56175 138.187 8.927C140.159 8.08213 140.327 8.26613 141.475 8.55247C143.074 8.94987 142.322 10.0005 144.211 9.96786C144.995 9.9586 145.776 10.0786 146.522 10.3228C147.235 10.4001 147.265 11.0011 148.481 11.895C149.225 12.4393 149.914 11.8579 150.904 13.6261C153.073 17.5021 147.981 9.111 133.62 10.2509C123.603 11.0446 122.338 13.6947 119.988 15.0491C119.975 14.999 119.94 14.9478 119.949 14.9054C120.537 12.251 122.383 12.1269 124.007 11.7295ZM121.766 15.1275C128.369 9.92866 147.74 8.45884 155.432 20.9414C158.468 25.8659 158.497 28.4942 158.947 34.1426C158.276 44.9997 157.959 43.6725 157.858 43.6279C154.546 42.2027 156.525 44.0405 156.563 34.9178C156.611 23.6045 150.98 14.9043 139.606 13.2831C111.244 9.23948 114.496 37.373 113.612 37.386C112.339 37.4056 112.388 37.4873 112.414 36.9865C112.961 27.1441 114.073 21.1842 121.766 15.1275ZM109.136 34.8982C107.394 34.0044 108.411 35.1084 106.508 36.9004C103.6 39.6387 101.391 37.1694 101.701 35.7344C101.992 34.3887 100.697 35.2238 99.4275 33.6592C99.0257 33.1638 98.3387 32.9254 97.9195 33.399C94.5945 37.1498 93.914 30.2862 92.258 32.4191C91.9725 32.838 91.5714 33.1647 91.1036 33.3597C90.6356 33.5546 90.1212 33.6092 89.6228 33.5169C89.1245 33.4246 88.6637 33.1893 88.2966 32.8397C87.9295 32.4901 87.6722 32.0414 87.5557 31.5481C87.5328 31.473 87.7059 30.9047 87.8823 30.1502C88.0685 29.3673 87.6765 29.3173 86.5399 28.6379C85.4206 27.9705 85.548 25.7363 86.6857 24.7183C87.2388 24.224 87.8583 24.9034 88.0641 24.2306C88.1893 23.8234 88.0086 23.3432 87.3488 23.0852C85.8474 22.4995 84.9328 19.9376 85.7418 18.8489C86.261 18.2554 86.9362 17.8193 87.6907 17.5902C87.82 17.5409 87.9324 17.4554 88.014 17.3435C88.0957 17.2318 88.1434 17.0989 88.151 16.9606C88.1587 16.8225 88.1263 16.6849 88.0575 16.5649C87.9888 16.4447 87.8867 16.3471 87.7636 16.2837C86.2731 15.5728 86.4201 14.2968 87.351 12.9434C88.0608 11.9113 90.3821 12.4393 89.2193 10.35C89.0574 9.99116 88.98 9.59997 88.9933 9.2066C89.0064 8.81312 89.1098 8.42803 89.2953 8.08093C89.4809 7.73372 89.7437 7.43388 90.0635 7.20426C90.3833 6.97475 90.7516 6.82178 91.1399 6.75711C92.491 6.43048 93.0778 7.10551 93.7605 7.271C94.638 7.48875 94.7251 6.60577 95.2608 5.39943C96.0589 3.60407 98.097 3.26764 98.8254 3.98404C98.9245 4.1074 99.0525 4.20452 99.1981 4.26679C99.3436 4.32907 99.5023 4.35455 99.66 4.34094C99.8177 4.32744 99.9697 4.27529 100.103 4.18906C100.235 4.10294 100.345 3.98535 100.422 3.84686C100.865 3.14352 101.075 2.6035 101.998 2.19304C103.54 1.50277 106.074 1.53325 106.649 3.4364C106.987 4.55238 106.777 5.21216 107.37 5.40378C108.263 5.69339 107.63 4.99877 110.3 3.72601C110.71 3.59808 111.148 3.58643 111.564 3.69226C114.759 4.19309 111.62 9.55631 114.077 8.38045C114.396 8.3001 114.729 8.28943 115.052 8.3492C115.376 8.40897 115.683 8.53766 115.953 8.72656C116.222 8.91546 116.448 9.16022 116.614 9.44406C116.78 9.72789 116.884 10.0444 116.917 10.3718C116.971 11.2015 116.838 12.0327 116.531 12.8052C116.361 13.0445 116.288 13.3388 116.326 13.6297C116.363 13.9205 116.509 14.1866 116.733 14.3751C117.79 14.6266 118.94 15.8994 117.913 17.0415C108.467 27.5535 113.943 37.3675 109.14 34.8982H109.136ZM113.898 55.9112C112.701 56.0441 111.496 55.7247 110.522 55.0157C109.547 54.3067 108.872 53.2594 108.631 52.0788C107.954 48.1147 108.413 48.5948 108.168 48.5556C108.592 45.4417 108.769 40.4694 111.394 39.1672C113.042 38.3507 113.438 38.6229 115.358 38.759C115.986 38.8047 114.225 39.2239 113.507 42.6045C112.885 45.6036 112.631 48.6675 112.751 51.7282C112.854 54.7637 114.878 55.6782 113.903 55.9112H113.898ZM116.546 53.7424C116.735 55.3984 117.109 55.5694 116.29 55.5759C112.196 53.7697 114.004 40.2865 116.959 39.3872C117.04 40.1547 116.803 39.3523 116.747 43.2109C116.729 44.5174 117.088 46.0743 117.166 48.2736C116.579 50.0333 116.37 51.8966 116.55 53.7424H116.546ZM118.023 49.751C118.525 47.9296 121.763 48.5534 121.774 48.3128C123.952 48.4402 126.139 48.2116 127.042 50.094C127.304 50.9388 127.395 51.8272 127.312 52.7077C127.228 53.5883 126.969 54.4433 126.552 55.2231C125.496 57.2047 122.714 56.7975 120.455 56.6603C118.509 56.5405 116.745 54.4066 118.028 49.751H118.023ZM118.445 57.1219C119.129 57.3506 118.9 57.8013 121.951 57.9146C122.92 57.8846 123.885 57.7776 124.837 57.5945C125.701 57.4285 126.49 56.9867 127.083 56.3352C127.675 55.6837 128.041 54.8577 128.125 53.9809C128.268 52.9161 128.756 53.8546 129.254 52.8344C129.573 52.1812 130.497 51.8023 130.887 52.6101C131.48 53.8382 131.954 53.2884 132.063 53.8513C132.24 54.7702 132.189 56.9902 134.657 58.1878C136.577 58.7851 138.609 58.9243 140.591 58.5939C142.895 57.9646 143.785 55.7403 143.934 53.381C143.702 52.9117 143.952 52.8279 145.629 51.8687C145.738 51.8088 145.932 51.811 145.891 52.0494C145.25 55.7762 145.891 55.3277 145.089 57.4758C142.649 64.0083 141.496 65.8255 140.823 68.4722C139.198 74.8262 139.864 74.4865 139.14 74.6782C137.89 75.0124 136.763 75.658 135.547 76.0631C129.607 78.0228 131.049 82.3365 130.143 83.8771C128.981 82.6294 130.48 78.1513 127.268 75.4828C124.615 73.2769 124.704 75.6178 125.251 72.1533C125.468 70.7717 126.15 72.5257 129.925 72.5017C134.957 72.4691 140.159 68.0378 140.032 67.5588C139.583 65.9409 137.745 69.3378 133.164 70.7271C129.659 71.7886 126.343 71.5534 123.945 68.7499C122.789 67.3965 118.217 58.7311 118.449 57.1219H118.445ZM121.252 67.4183C121.725 67.3573 121.743 67.5403 122.558 68.8054C122.957 69.4227 122.649 69.6143 121.87 70.1239C120.999 70.6944 120.924 70.7771 120.9 70.542C120.762 69.1778 121.42 68.6911 120.883 68.5027C119.74 68.089 119.092 71.1713 120.865 72.6923C122.417 74.0216 122.743 74.9112 124.719 75.5764C125.8 75.9999 126.753 76.6974 127.484 77.6004C127.835 78.4943 128.088 79.4237 128.238 80.3724C128.422 82.4149 129.564 85.7421 129.31 86.4531C129.002 87.8273 128.903 89.2401 129.017 90.6437C128.955 99.2122 128.663 100.469 129.867 100.07C130.302 99.9264 130.152 99.8099 130.183 93.5616C130.218 86.415 129.593 90.1864 132.215 80.4061C133.304 76.3646 143.902 76.835 144.736 71.1441C145.233 67.7602 143.018 68.2262 143.483 69.3476C143.673 69.8264 143.719 70.351 143.614 70.8555C143.396 70.7532 141.783 69.6895 142.039 68.8424C142.842 66.1935 142.734 66.1401 143.301 66.3503C146.205 67.4216 145.461 67.1124 145.904 67.2681C152.361 69.6165 140.562 91.0977 137.716 92.2311C137.136 92.4619 136.86 92.4489 136.563 91.7041C135.791 89.7553 135.071 82.2537 133.427 81.9674C132.665 81.8335 132.307 82.6206 132.188 83.3828C132.174 83.4965 132.2 83.6117 132.262 83.7084C132.323 83.8051 132.417 83.8771 132.527 83.9121C132.636 83.9471 132.753 83.9428 132.86 83.9C132.967 83.8573 133.055 83.7786 133.109 83.6778C133.153 83.603 133.209 83.5361 133.275 83.4797C134.86 88.3127 134.505 95.2687 138.138 93.4451C138.334 93.346 138.247 93.3025 138.499 93.2839C138.209 94.1549 132.741 101.833 131.143 102.556C129.65 103.231 123.317 93.628 122.411 92.2572C121.906 91.4951 121.461 91.0204 121.983 91.0182C124.398 91.0095 125.685 78.8633 126.44 80.5139C126.638 80.9494 126.579 81.3414 127.192 81.3229C127.718 81.3065 127.913 80.1252 127.091 79.3478C123.881 76.3135 123.396 91.175 121.475 89.5626C120.442 88.495 119.688 87.1896 119.279 85.7617C118.524 84.3035 117.966 82.7521 117.618 81.1476C117.192 79.585 116.868 77.9959 116.651 76.3908C116.439 71.9682 116.001 68.0955 121.256 67.4183H121.252ZM112.236 68.8206C112.899 68.675 113.575 68.5958 114.253 68.5844C116.475 68.5844 116.48 68.4853 116.203 68.9927C113.867 73.29 116.332 83.0812 118.606 87.6529C118.632 87.7052 122.09 94.4348 122.83 95.1936C125.243 97.6727 129.997 107.552 133.372 102.359C139.009 95.7685 143.486 88.2679 146.61 80.1775C148.809 74.3548 149.268 72.5246 149.17 70.052C149.121 68.837 147.73 68.4276 152.275 69.6666C153.309 69.9486 153.363 71.2355 153.154 72.2306C149.393 90.6916 136.823 108.658 130.876 108.893C127.315 109.034 113.764 93.2534 111.962 79.5885C111.522 78.0299 111.303 76.4174 111.309 74.7979C111.427 73.6939 110.329 69.2039 112.236 68.8206ZM40.8131 87.2272C45.7822 88.0873 46.7632 86.1613 44.4441 89.6083C41.5753 93.8719 41.413 94.1462 41.0973 94.5807C40.6694 95.1697 41.1354 95.2513 37.0776 93.3591C36.4363 93.0607 36.3601 93.3351 39.0646 88.7863C39.9955 87.2261 40.2927 87.1357 40.8131 87.2272ZM69.516 147.051C65.014 146.725 62.5839 146.55 58.7167 146.1C13.2578 140.793 16.2921 142.289 15.199 137.023C4.64566 86.1482 1.49806 86.4324 9.99475 85.9795C12.2354 85.8608 39.3912 86.1613 38.4113 87.8445C35.0667 93.5812 34.6007 93.3972 37.119 94.6514C41.0744 96.6112 41.0886 96.5731 41.7647 95.5725C47.4143 87.2 46.8938 87.642 47.2978 87.6834C54.9833 88.4662 60.7243 88.5087 62.3226 91.7118C63.7565 94.5894 67.0239 116.868 73.0469 146.813C73.2581 147.889 73.11 147.31 69.5204 147.051H69.516ZM98.9604 107.203C100.29 106.57 101.247 105.883 101.196 106.785C101.049 107.718 110.151 124.547 110.577 125.207C110.824 125.588 109.663 124.881 107.901 123.792C105.712 122.445 106.933 123.895 104.774 120.042C97.7835 107.568 98.5543 108.925 98.1221 108.768C97.1302 108.413 97.8782 107.724 98.9648 107.206L98.9604 107.203ZM97.3545 106.526C97.1776 106.356 97.0614 106.132 97.0238 105.89C96.9863 105.647 97.0294 105.397 97.1465 105.182C97.3571 104.919 97.6201 104.705 97.9189 104.55C98.2177 104.397 98.5454 104.307 98.8809 104.287C99.5679 104.23 99.7802 104.768 99.9403 105.016C100.221 105.452 100.133 105.67 99.7476 105.8C99.113 106.013 98.5002 106.285 97.9174 106.614C97.6996 106.643 97.6016 106.807 97.3588 106.53L97.3545 106.526ZM103.436 122.153C103.202 122.12 103.262 121.796 103.262 121.54C103.43 119.6 103.203 119.415 104.62 122.134C104.74 122.361 103.688 122.193 103.441 122.157L103.436 122.153ZM102.62 118.481C101.586 123.775 103.112 121.906 99.74 123.231C96.2407 124.605 93.0985 126.842 92.466 126.373C92.8862 124.949 93.3886 123.551 93.9706 122.186C96.2461 118.944 97.2641 120.102 100.922 115.644C100.94 115.667 102.361 117.953 102.624 118.484L102.62 118.481ZM100.733 124.034C100.978 123.925 101.307 123.831 101.211 124.082C100.601 125.66 98.7383 124.851 98.477 127.863C98.3442 129.387 96.6729 128.878 96.2374 130.712C95.9456 131.947 96.2875 132.818 95.2162 133.434C93.7017 134.305 93.9205 138.018 95.3044 137.374C95.68 137.2 95.4557 136.621 95.4306 136.574C95.0137 135.772 95.7573 134.523 96.343 134.166C96.6587 133.944 96.9145 133.647 97.0876 133.303C97.2607 132.958 97.3457 132.576 97.3349 132.191C97.103 129.664 99.3458 130.775 99.7715 128.325C100.345 125.014 101.267 127.503 102.583 124.365C103.734 121.618 112.657 128.242 113.431 129.47C114.294 130.563 114.87 131.856 115.104 133.23C115.169 133.76 114.361 134.245 114.016 134.296C113.564 134.365 113.756 134.079 112.076 132.069C109.836 129.39 109.144 130.022 106.866 128.415C105.437 127.406 105.199 128.616 105.937 129.103C108.352 130.694 110.779 131.467 112.748 134.92C112.991 135.346 112.976 135.484 112.658 135.879C111.767 136.989 109.806 134.512 107.666 133.733C106.461 133.248 105.304 132.651 104.208 131.952C103.446 131.488 102.378 132.508 105.133 133.884C106.439 134.537 111.306 136.606 110.484 138.28C109.803 139.666 108.713 139.347 102.767 136.153C100.063 134.701 100.489 136.318 100.908 136.56C104.63 138.698 104.638 138.411 106.389 139.36C107.913 140.191 107.733 141.33 106.797 141.659C103.773 142.724 98.9288 137.722 98.0948 139.184C97.7747 139.744 98.6697 140.063 98.0948 140.061C97.0311 140.061 97.1356 140.074 97.1356 140.037C74.2467 139.442 75.293 139.981 75.2255 139.289C74.9059 137.484 74.8604 135.641 75.0905 133.822C75.2958 132.463 75.7686 131.157 76.4814 129.983C77.1942 128.808 78.1328 127.786 79.243 126.976C81.856 125.241 81.7145 125.056 88.0619 126.991C93.9118 128.776 93.8628 126.997 100.737 124.038L100.733 124.034ZM113.283 124.201C113.442 124.206 113.597 124.253 113.732 124.337C113.867 124.421 113.977 124.541 114.048 124.683C114.121 124.824 114.155 124.982 114.145 125.141C114.137 125.3 114.084 125.453 113.995 125.585C113.701 125.961 113.312 126.253 112.869 126.43C112.713 126.516 112.488 126.169 111.563 124.671C111.345 124.321 111.541 124.4 113.287 124.206L113.283 124.201ZM122.374 137.938C128.547 138.018 133.865 138.233 137.843 141.77C144.929 148.068 143.666 146.162 140.05 145.454C136.784 144.815 132.571 145.454 129.271 145.983C124.858 146.684 122.728 147.864 114.389 149.379C112.686 149.688 110.536 150.413 109.2 148.762C107.925 147.187 102.167 142.171 103.177 142.462C104.083 142.722 104.266 143.062 105.137 143.037C106.952 142.982 108.915 142.459 108.651 140.683C108.571 140.139 108.625 140.199 108.931 140.213C110.537 140.283 110.292 139.875 110.859 139.756C115.422 138.805 114.257 138.516 115.278 139.686C116.484 141.068 119.088 143.316 119.081 141.591C119.074 137.437 116.774 138.185 122.378 137.943L122.374 137.938ZM175.452 133.854C175.681 136.319 176.273 138.569 175.483 141.298C174.276 145.462 176.386 143.839 165.322 137.95C164.451 137.49 165.469 135.679 164.704 132.676C163.979 129.827 163.676 126.89 161.002 126.714C160.047 126.651 159.545 127.627 159.335 127.884C159.118 128.157 159.009 128.101 158.507 128.161C158.853 126.271 159.785 125.698 161.63 125.698C163.441 125.959 165.031 123.384 167.425 123.242C170.338 123.07 171.734 121.488 174.823 129.464C175.369 130.861 175.586 132.365 175.457 133.859L175.452 133.854ZM160.364 128.973C161.822 128.687 162.106 128.538 162.298 129.098C163.238 131.548 163.7 134.157 163.658 136.782C163.777 137.98 161.382 135.001 153.301 135.44C147.51 135.563 141.812 136.917 136.585 139.415C135.529 139.935 136.666 137.256 123.084 136.833C121.015 136.769 119.882 137.142 122.08 136.169C128.593 133.29 154.845 130.064 160.368 128.978L160.364 128.973ZM143.329 147.563C143.746 147.684 143.738 147.712 143.656 148.142C143.598 148.469 143.602 148.784 143.28 148.676C143.25 148.666 143.018 148.618 143.014 148.676C133.767 148.173 133.767 147.587 124.015 150.186C123.992 150.192 113.581 152.837 111.987 152.922C110.371 153.007 106.068 147.978 102.442 144.243C101.38 143.148 103.084 143.06 108.084 149.017C110.22 151.562 110.044 151.957 124.323 148.146C131.324 146.292 136.238 145.515 143.334 147.567L143.329 147.563ZM113.186 137.111C113.404 136.979 113.613 136.913 113.845 137.594C113.961 137.938 113.892 137.854 111.896 138.321C111.207 137.604 111.947 137.893 113.19 137.118L113.186 137.111ZM115.889 138.574C115.605 138.247 115.998 138.33 116.886 137.781C117.199 137.588 117.082 137.551 117.927 140.36C117.303 140.337 116.423 139.191 115.894 138.584L115.889 138.574ZM116.604 136.505C114.383 138.256 114.928 136.646 114.335 136.309C114.253 136.257 114.187 136.184 114.143 136.098C114.1 136.012 114.079 135.915 114.084 135.82C114.09 135.723 114.121 135.629 114.176 135.548C114.229 135.468 114.303 135.404 114.39 135.361C115.599 135.111 115.645 134.428 115.898 134.982C116.222 135.686 116.744 136.406 116.608 136.515L116.604 136.505ZM87.8475 125.555C86.6881 125.137 85.5034 124.794 84.3003 124.527C80.0541 123.373 75.9974 127.071 74.4111 131.446C72.7105 136.139 74.4666 139.635 73.7469 139.612C72.7812 139.588 73.0687 140.769 71.4867 132.404C69.7654 123.309 69.1415 123.303 70.0713 122.418C71.8656 120.704 72.4666 119.301 74.4263 119.062C75.3681 118.948 76.1008 118.3 77.2952 118.654C77.5859 118.739 78.2827 118.361 80.2468 119.841C84.6334 123.145 83.475 120.983 87.6798 124.005C88.1 124.321 88.7816 125.941 87.8475 125.555ZM73.4214 141.978C72.7682 140.229 71.0773 140.663 91.4774 141.022C94.4094 141.073 93.7529 141.163 90.8862 141.377C80.9175 142.117 73.895 143.248 73.4214 141.978ZM101.447 144.917C101.412 144.917 75.612 147.446 74.6637 147.144C74.4056 147.062 74.4459 147.231 73.6707 143.795C73.5216 143.141 73.3735 144.339 82.4461 143.359C90.9689 142.437 81.8397 143.468 96.9527 142.106C102.434 141.614 101.384 141.581 101.556 142.117C101.871 143.097 101.992 142.752 101.411 143.76C101.072 144.354 102.096 144.866 101.447 144.917ZM101.916 146.115C101.765 145.925 102.051 145.283 102.331 145.554C108.11 151.173 109.808 153.622 111.945 153.72C116.048 153.897 129.072 148.622 137.308 149.372C141.291 149.736 144.896 149.425 143.651 150.375C142.624 151.158 139.288 150.739 139.288 150.842C124.112 150.842 113.295 156.901 110.999 154.871C110.481 154.412 109.865 154.064 109.354 153.599C109.258 153.511 102.626 147.009 101.916 146.116V146.115ZM117 165.15C117.175 165.383 117.137 165.367 116.926 165.385C115.369 165.604 113.794 165.661 112.225 165.557C109.503 165.196 104.355 166.344 101.692 165.992C99.5146 165.702 92.0283 166.001 91.0996 166.034C88.5225 166.125 86.0336 165.721 85.2344 165.915C84.4353 166.109 84.5692 166.072 84.3177 165.379C82.6432 160.763 84.0455 160.565 82.8337 156.308C82.4086 154.777 82.0741 153.222 81.8321 151.651C81.7755 151.303 81.8321 151.238 82.1783 151.223C95.9826 150.583 91.5601 151.13 98.8167 150.976C103.172 150.882 102.41 150.275 104.865 152.609C109.852 157.342 110.853 158.772 112.416 158.769C113.167 158.761 114.511 161.853 117 165.15ZM112.253 157.781C111.133 157.303 110.135 156.577 109.336 155.657C108.488 154.755 102.737 149.28 102.032 148.182C101.851 147.9 102.287 147.965 102.508 148.163C113.598 157.998 108.7 157.051 119.794 154.863C119.817 154.863 128.73 152.445 133.978 152.105C138.282 151.828 141.972 152.063 143.594 151.67C144.001 151.571 144.008 151.592 144.11 152.009C144.194 152.349 144.328 152.58 143.966 152.663C138.74 153.843 134.005 153.207 126.36 154.682C111.852 157.484 116.537 157.359 112.253 157.781ZM146.672 157.5C146.692 157.522 150.456 161.386 150.483 161.409C151.318 162.297 137.878 163.95 136.64 163.886C132.62 163.68 128.922 165.611 126.841 165.177C126.624 165.131 123.064 165.435 123.042 165.437C122.164 165.513 122.431 165.122 120.712 163.01C119.693 161.758 119.647 160.409 117.499 158.356C116.982 157.863 116.989 157.857 117.664 157.65C126.345 154.996 142.339 154.325 142.738 154.119C143.701 153.617 143.866 154.311 146.672 157.501V157.5ZM147.87 152.383C146.721 152.62 145.583 152.857 145.374 151.85C144.776 148.966 144.797 149.028 145.026 148.938C146.193 148.48 148.401 147.341 148.624 148.573C148.901 150.156 149.333 152.084 147.866 152.381L147.87 152.383ZM146.236 147.004C145.39 146.351 144.505 145.751 143.599 145.181C142.219 144.31 142.343 144.004 140.311 142.609C139.413 141.993 139.794 141.745 137.838 140.501C137.234 140.117 136.545 140.03 142.918 138.173C161.442 132.781 166.133 140.426 178.335 147.33C177.085 147.548 168.59 145.084 160.729 144.252C157.793 144.045 154.842 144.346 152.007 145.14C148.006 145.869 146.888 147.512 146.235 147.002L146.236 147.004ZM149.536 147.093C161.815 143.442 165.004 146.78 177.023 148.435C180.489 148.912 180.824 148.32 180.57 149.18C180.257 150.24 180.495 150.194 179.215 150.197C172.698 150.207 164.952 146.738 157.595 146.671C150.418 147.209 153.611 147.142 149.747 147.624C149.437 147.661 148.941 147.267 149.535 147.09L149.536 147.093ZM179.888 154.878C173.437 155.138 165.952 152.764 158.903 151.801C153.568 151.073 149.934 152.26 150.009 151.676C150.143 150.631 150.11 150.463 150.465 150.455C154.182 150.369 154.812 150.007 157.634 150.167C164.316 150.545 162.934 151.225 171.149 152.805C179.987 154.506 180.361 153.387 180.417 154.122C180.47 154.822 180.319 154.859 179.887 154.876L179.888 154.878ZM180.664 151.598C180.603 151.745 180.748 152.785 179.729 152.761C170.986 152.552 163.331 148.583 155.352 149.025C149.207 149.365 150.253 150.15 149.985 148.902C149.929 148.642 149.992 148.605 151.087 148.461C166.257 146.475 165.761 150.761 179.49 151.42C180.156 151.451 180.876 151.092 180.663 151.596L180.664 151.598ZM197.8 132.415C196.584 137.356 191.298 142.825 187.1 144.129C185.204 144.718 187.317 144.5 179.383 146.403C179.056 146.482 179.142 146.563 176.322 144.906C175.499 144.422 176.259 144.58 176.805 141.626C177.84 136.05 176.588 136.094 176.819 132.91C176.988 130.566 176.096 128.812 174.423 125.041C173.988 124.069 173.38 123.775 174.016 123.751C176.479 123.656 178.378 125.576 179.37 125.34C180.207 125.14 179.894 124.402 179.522 124.225C179.522 124.225 178.141 123.522 177.52 123.217C174.865 121.911 173.848 123.019 171.205 121.782C169.967 121.204 169.224 121.632 168.08 121.692C169.132 117.939 173.375 119.784 176.606 118.329C179.074 117.216 180.208 117.893 180.267 117.275C180.396 115.904 177.436 116.795 176.141 117.286C173.987 118.104 171.963 117.471 169.873 118.259C168.616 118.735 168.432 118.866 168.343 118.686C166.68 115.316 168.379 113.606 165.639 111.373C163.272 109.443 164.017 105.045 163.507 102.169C162.869 98.5666 162.36 96.0853 162.712 94.5338C163.16 92.5599 161.911 92.6829 161.774 93.5235C161.174 97.2252 161.533 97.4789 162.352 103.064C162.465 103.794 162.51 104.532 162.484 105.269C162.235 105.107 162.034 104.878 161.905 104.61C159.606 99.9765 159.25 103.224 157.43 96.4032C157.047 94.9704 156.933 93.4886 156.542 92.058C156.473 91.6345 156.466 91.2033 156.522 90.7787C156.55 89.8554 155.552 90.0253 155.513 90.5871C155.311 93.5267 156.493 100.581 159.021 102.846C160.721 104.371 160.69 106.237 162.193 106.69C162.847 106.888 162.104 107.075 163.458 110.79C164.05 112.411 165.127 112.149 165.97 114.106C166.506 115.35 165.78 116.502 166.955 118.827C167.275 119.46 167.476 119.944 167.064 120.591C166.639 121.261 166.834 121.842 166.361 121.95C165.09 122.406 163.9 123.063 162.838 123.894C161.675 124.605 161.296 124.103 159.588 124.619C159.134 124.848 158.731 125.164 158.4 125.549C158.069 125.935 157.818 126.381 157.661 126.864C157.026 129.063 158.155 128.043 152.509 128.985C134.914 131.925 120.891 133.493 119.365 136.853C119.311 136.971 118.15 137.372 118.021 136.928C117.695 135.809 116.207 133.595 116.303 133.278C116.155 132.04 115.752 130.846 115.12 129.77C113.487 127.426 113.384 127.563 113.761 127.375C115.121 126.709 116.038 124.98 114.981 123.771C114.124 122.784 113.239 122.9 110.968 123.13C110.533 123.174 110.545 122.831 110.167 122.061C108.111 117.883 104.993 112.988 105.092 112.201C105.872 106.03 106.373 105.654 105.253 101.686C103.102 94.0646 105.53 90.206 104.274 89.973C104.016 89.9251 103.796 89.9817 103.729 90.2616C101.251 100.002 106.269 102.355 103.981 110.218C103.121 108.739 103.405 109.005 102.927 108.124C102.71 107.847 102.513 107.556 102.338 107.253C102.218 106.926 102.521 105.463 101.495 105.25C101.342 105.235 101.208 105.279 101.105 105.134C100.541 104.336 100.098 102.992 98.4432 103.359C96.6511 103.758 95.1378 105.192 96.5434 107.255C97.0431 107.988 96.4279 108.693 96.9908 109.317C97.5537 109.941 97.9261 109.722 98.0317 110.359C98.0622 110.54 99.998 113.808 100.011 113.83C100.447 114.55 98.9942 115.985 98.3779 116.579C96.8907 118.004 94.7524 118.592 93.0191 121.243C92.2482 122.422 91.3859 126.418 90.7218 126.341C88.3102 126.061 92.1252 123.261 83.8887 120.517C81.5719 119.745 79.1069 115.767 74.6964 117.629C73.5587 117.776 72.486 118.242 71.6032 118.974C70.9206 119.736 70.1862 120.452 69.405 121.113C69.2526 120.738 68.8018 118.156 68.7321 117.768C68.1878 114.719 68.0135 114.583 68.8138 113.74C70.004 112.681 71.0748 111.494 72.0071 110.203C72.8117 108.829 74.3621 107.976 75.3474 106.003C77.9136 100.865 80.1096 100.181 82.1805 96.8855C84.0455 93.9198 84.2339 90.7885 87.3303 87.9207C97.0583 78.8873 97.9729 71.7396 106.975 70.9655C110.255 70.6835 110.046 70.873 110.046 71.2018C110.048 77.8047 111.415 84.336 114.058 90.3868C116.87 96.2486 124.485 108.737 130.752 110.069C136.216 111.231 149.823 92.303 153.712 75.3554C154.598 71.4946 154.078 71.2322 154.684 71.3564C156.564 71.7418 157.916 71.4228 160.781 73.2541C162.169 74.2398 163.748 74.9241 165.416 75.2628C168.326 75.8714 167.769 76.5497 170.845 77.6886C180.494 81.263 179.059 91.6247 185.044 99.7109C188.945 104.98 189.905 109.557 191.564 114.627C193.338 120.035 199.177 126.814 197.799 132.413L197.8 132.415Z" fill="#1B1B1D"/>
  <path d="M170.624 22.8078C167.677 24.6663 166.417 20.21 164.21 23.5351C164.128 23.6856 164.007 23.8113 163.86 23.8989C163.712 23.9867 163.544 24.0332 163.372 24.0337C162.732 24.1133 162.082 24.0554 161.466 23.8639C160.703 23.5307 160.396 24.5117 160.995 24.8688C161.644 25.2132 162.376 25.3674 163.109 25.3141C165.815 25.4916 164.819 22.9275 166.88 24.0816C168.688 25.0942 170.871 24.8808 172.858 22.8383C173.248 22.4376 172.904 22.4986 175.001 23.1115C175.629 23.1336 176.254 23.0083 176.825 22.7457C177.396 22.4831 177.898 22.0905 178.29 21.5993C178.682 20.8774 179.179 21.5437 180.368 20.872C180.923 20.5584 181.29 19.7309 180.694 19.4892C179.857 19.1528 179.497 19.8638 178.75 19.8061C177.334 19.6972 177.452 20.9841 176.348 21.3456C175.94 21.577 175.471 21.68 175.003 21.6413C174.536 21.6024 174.091 21.4235 173.726 21.1278C172.514 20.2938 172.244 21.7865 170.624 22.8078Z" fill="#1B1B1D"/>
  <path d="M176.754 31.4043C175.11 32.7565 174.744 29.7417 173.115 31.7309C171.856 33.2617 170.149 34.3581 169.177 32.6335C168.809 31.9802 168.79 31.2529 167.732 30.6552C165.824 29.5773 164.696 33.1593 163.058 30.7793C162.513 29.9878 161.292 30.5409 162.524 32.0728C164.299 34.2786 166.734 31.2595 167.232 31.9519C168.399 33.5752 167.668 34.1131 170.205 34.823C171.608 35.2149 172.992 33.9824 173.961 32.8959C174.263 32.5562 174.243 32.6857 175.811 33.2225C179.004 33.0156 178.697 29.8071 176.754 31.4043Z" fill="#1B1B1D"/>
  <path d="M159.479 19.0507C160.241 19.4502 160.281 18.2885 161.073 18.012C162.07 17.6658 163.174 18.2613 163.393 16.6293C163.585 15.2052 163.92 14.1534 165.275 14.6913C166.054 14.9994 167.572 14.9972 167.747 14.1164C167.837 13.6613 167.948 13.2073 168.001 12.7467C168.042 12.401 168.173 12.0717 168.379 11.7917C168.586 11.5117 168.863 11.2903 169.182 11.1495C169.5 11.0087 169.85 10.9531 170.197 10.9885C170.543 11.0238 170.875 11.1488 171.158 11.351C171.604 11.7473 172.068 11.6852 172.259 11.4392C173.13 10.321 168.869 8.39607 167.385 11.02C165.989 13.4882 167.666 13.8997 164.698 13.1452C164.178 13.1735 163.68 13.3658 163.275 13.6943C162.871 14.0229 162.581 14.4709 162.447 14.9743C162.091 16.5868 162.229 16.4431 161.615 16.4659C159.595 16.5345 158.643 18.6141 159.479 19.0507Z" fill="#1B1B1D"/>
  <path d="M140.49 43.5273C139.427 43.6112 138.358 43.8943 137.072 44.0717C135.938 44.2252 134.544 44.8524 134.951 45.9226C135.438 47.2041 136.407 45.5285 141.322 45.2323C142.475 45.1627 141.943 45.2454 143.733 45.7615C144.27 45.915 146.137 44.4844 140.49 43.5273Z" fill="#1B1B1D"/>
  <path d="M140.163 53.5238C136.083 54.6126 135.424 51.9887 134.713 53.1068C134.63 53.2143 134.592 53.3505 134.61 53.4853C134.627 53.6202 134.697 53.7429 134.803 53.8265C136.647 55.0786 138.179 55.7155 140.5 54.6649C141.467 54.2261 140.921 53.3213 140.163 53.5238Z" fill="#1B1B1D"/>
  <path d="M138.385 89.1C138.384 89.0041 138.362 88.9097 138.322 88.8229C138.282 88.736 138.224 88.6585 138.151 88.5953C138.079 88.5323 137.995 88.485 137.904 88.4566C137.812 88.4282 137.716 88.4193 137.621 88.4305C137.525 88.4416 137.434 88.4726 137.351 88.5214C137.269 88.5703 137.197 88.6358 137.142 88.7139C137.086 88.7919 137.048 88.8808 137.03 88.9747C137.01 89.0686 137.011 89.1654 137.032 89.2589C137.033 89.3547 137.055 89.4494 137.095 89.5355C137.135 89.6226 137.193 89.6999 137.266 89.763C137.338 89.8262 137.422 89.8741 137.513 89.9024C137.605 89.9307 137.701 89.9394 137.796 89.9285C137.892 89.9176 137.983 89.886 138.066 89.837C138.148 89.7881 138.22 89.7227 138.275 89.6454C138.331 89.567 138.369 89.4778 138.387 89.3841C138.407 89.2905 138.406 89.1935 138.385 89.1Z" fill="#1B1B1D"/>
  <path d="M127.152 64.2385C128.206 63.7899 128.656 65.0224 129.999 64.6174C130.669 64.4149 134.747 66.8581 134.717 64.5956C134.71 64.1111 133.893 64.3692 133.445 64.2407C130.961 63.5232 130.723 63.116 129.926 63.3283C128.655 63.6658 128.511 62.4954 127.384 62.8852C124.933 63.7312 124.759 62.5586 124.571 63.4513C124.363 64.4258 126.227 64.6305 127.152 64.2385Z" fill="#1B1B1D"/>
  <path d="M131.181 99.4973C131.132 100.463 132.36 100.428 132.427 99.5202C132.48 98.807 131.241 98.3618 131.181 99.4973Z" fill="#1B1B1D"/>
  <path d="M131.082 94.7819C131.079 94.955 131.143 95.1227 131.261 95.249C131.38 95.3753 131.542 95.4515 131.715 95.4591C131.888 95.4679 132.057 95.4091 132.188 95.2947C132.317 95.1804 132.398 95.0193 132.411 94.8473C132.423 94.7558 132.416 94.6622 132.391 94.574C132.365 94.4847 132.321 94.402 132.263 94.3312C132.204 94.2593 132.131 94.2016 132.048 94.1603C131.965 94.1189 131.875 94.0949 131.783 94.0906C131.69 94.0862 131.597 94.1015 131.511 94.1341C131.424 94.1668 131.346 94.218 131.281 94.2822C131.214 94.3475 131.163 94.4259 131.129 94.5119C131.094 94.5979 131.079 94.6894 131.082 94.7819Z" fill="#1B1B1D"/>
  <path d="M132.343 89.3267C132.31 89.1606 132.216 89.0132 132.079 88.9145C131.94 88.8158 131.77 88.7734 131.603 88.796C131.435 88.8185 131.283 88.9042 131.176 89.0356C131.069 89.167 131.017 89.3343 131.029 89.5031C131.044 90.4329 132.404 90.3022 132.343 89.3267Z" fill="#1B1B1D"/>
  <path d="M131.679 59.8667C132.069 59.662 132.241 58.6212 131.262 58.8215C130.72 59.027 130.163 59.1951 129.597 59.3245C127.889 58.6146 127.93 58.0855 128.898 57.2896C129.597 56.7147 130.195 55.5868 129.866 54.9172C129.741 54.6635 129.507 54.7201 129.328 54.6352C129.304 54.6243 129.15 54.8138 129.11 54.9281C128.434 56.7441 126.531 56.8345 127.192 58.8215C127.656 60.2282 129.36 61.0796 131.679 59.8667Z" fill="#1B1B1D"/>
  <path d="M122.905 43.1389C120.67 43.1161 119.112 44.6207 119.485 45.0987C120.101 45.8924 121.596 44.146 123.331 44.9713C124.214 45.0815 125.073 45.3368 125.873 45.7269C126.962 46.4161 127.483 46.4509 127.921 45.7737C129.038 44.048 124.989 43.3458 122.905 43.1389Z" fill="#1B1B1D"/>
  <path d="M125.626 53.6355C126.003 53.5266 126.226 53.0291 125.997 52.7645C125.373 52.0416 123.089 53.4842 121.664 52.2114C121.078 51.6866 120.411 51.74 120.434 52.5108C121.539 54.549 123.526 54.2343 125.626 53.6355Z" fill="#1B1B1D"/>
  <path d="M122.222 86.5198C122.22 86.4209 122.199 86.3232 122.159 86.2326C122.119 86.142 122.062 86.0603 121.99 85.9921C121.918 85.9239 121.833 85.8707 121.741 85.8356C121.648 85.8005 121.549 85.7842 121.451 85.7875C121.352 85.7909 121.254 85.814 121.165 85.8554C121.075 85.8967 120.994 85.9556 120.926 86.0286C120.86 86.1014 120.808 86.187 120.775 86.2801C120.741 86.3733 120.726 86.4722 120.732 86.571C120.734 86.67 120.754 86.7676 120.795 86.8582C120.834 86.9489 120.892 87.0307 120.963 87.0988C121.035 87.167 121.12 87.2201 121.213 87.2553C121.305 87.2904 121.403 87.3067 121.502 87.3033C121.601 87.2999 121.699 87.2768 121.789 87.2355C121.879 87.1941 121.96 87.1352 122.026 87.0624C122.094 86.9894 122.146 86.9038 122.179 86.8108C122.212 86.7176 122.228 86.6187 122.222 86.5198Z" fill="#1B1B1D"/>
  <path d="M112.303 16.0692C111.249 15.6196 112.514 14.5515 111.018 13.6021C108.25 11.847 108.276 12.7159 108.258 11.4834C108.216 8.63192 105.874 6.9879 102.831 9.08811C102.396 9.3897 102.279 10.4414 103.023 10.3032C103.443 10.078 103.844 9.81758 104.22 9.5247C104.575 9.35801 104.971 9.29584 105.36 9.34538C105.749 9.39503 106.116 9.55421 106.419 9.80451C108.018 11.3734 105.836 12.5046 108.202 13.6413C110.278 14.6386 110.68 14.7769 110.597 15.6501C110.426 17.465 112.634 16.999 112.635 18.5494C112.635 19.1101 113.742 19.2571 113.81 18.4035C113.881 17.8983 113.768 17.3846 113.491 16.956C113.215 16.5275 112.793 16.2127 112.303 16.0692Z" fill="#1B1B1D"/>
  <path d="M108.298 22.1177C107.342 21.8139 107.442 21.938 107.368 20.9799C107.352 20.7755 107.289 20.5775 107.184 20.4015C107.079 20.2254 106.934 20.0762 106.762 19.9652C105.22 18.9592 104.04 19.5972 103.375 19.6103C102.572 19.6255 102.695 18.9342 102.585 18.2962C102.509 17.9248 102.349 17.5756 102.117 17.2758C101.885 16.9759 101.587 16.7331 101.247 16.5662C100.907 16.3993 100.533 16.3125 100.153 16.3128C99.7743 16.3129 99.4002 16.4 99.0599 16.5672C98.4404 16.8721 98.4067 16.9047 98.264 16.614C96.9739 13.9825 92.9106 14.3146 92.8398 17.2139C92.9672 17.7006 92.9411 17.8737 93.4833 17.9194C93.8361 17.9488 93.9493 17.5928 93.9863 17.2226C94.1039 16.037 96.055 15.5078 97.0642 16.9472C97.4845 17.5493 97.9614 18.6075 98.8465 18.0359C100.299 17.105 101.081 17.6516 101.311 18.4192C101.567 19.2684 101.216 20.2418 102.291 20.6696C104.297 21.4633 104.36 20.2407 105.675 20.9146C106.637 21.4067 105.371 22.6272 107.387 23.2979C108.079 23.4648 108.748 23.7175 109.377 24.0502C109.532 24.1229 109.706 24.1428 109.872 24.107C110.04 24.0712 110.19 23.9816 110.301 23.8521C110.881 22.8254 109.45 22.4846 108.298 22.1177Z" fill="#1B1B1D"/>
  <path d="M107.083 29.3118C106.119 30.308 105.611 27.9193 102.659 28.5094C100.212 28.9993 101.369 24.8294 98.0864 25.7951C96.1811 26.3569 96.3444 27.5643 95.4429 26.2818C95.3621 26.1868 95.2595 26.113 95.1437 26.0665C95.0281 26.02 94.9028 26.0024 94.7788 26.015C93.8457 26.4592 95.4854 29.1256 97.2176 27.658C97.6155 27.3234 98.0922 27.0956 98.6025 26.996C99.3483 26.8468 99.5366 27.4065 99.8393 28.1719C100.396 29.5785 101.707 30.3113 103.698 29.6961C104.928 29.3194 104.896 30.9427 106.638 30.9068C107.542 31.0037 108.199 29.6635 109.072 29.7026C110.602 29.7745 109.186 27.1343 107.083 29.3118Z" fill="#1B1B1D"/>
  <path d="M60.7526 126.472C56.7046 122.962 49.8955 125.67 48.5901 131.069C47.6711 134.867 50.4094 139.985 55.4318 140.223C62.5588 140.561 65.8752 130.915 60.7526 126.472ZM55.7192 139.019C54.8346 139.002 53.9715 138.744 53.2227 138.272C52.2657 137.813 51.4412 137.118 50.8265 136.253C50.2119 135.387 49.8273 134.379 49.709 133.325C49.5907 132.27 49.7425 131.202 50.15 130.222C50.5577 129.241 51.2078 128.381 52.0392 127.721C52.8233 127.12 53.7222 126.687 54.6806 126.447C55.6388 126.209 56.636 126.169 57.6104 126.33C63.812 127.93 63.5703 137.772 55.7192 139.019Z" fill="#1B1B1D"/>
  <path d="M59.3985 134C58.4545 133.347 57.4594 136.247 54.927 135.643C54.5192 135.577 54.1346 135.41 53.809 135.156C53.4835 134.901 53.2276 134.569 53.0652 134.189C52.5567 133.172 50.512 135.867 55.8285 137.062C57.8263 136.76 60.276 134.603 59.3985 134Z" fill="#1B1B1D"/>
  <path d="M58.5608 132.237C59.1379 132.259 59.2772 131.303 59.1695 130.74C59.1583 130.586 59.0923 130.441 58.9832 130.332C58.8741 130.223 58.7294 130.157 58.5755 130.146C58.4217 130.135 58.2691 130.18 58.1456 130.272C58.022 130.365 57.936 130.499 57.9032 130.649C57.7192 131.202 57.8248 132.208 58.5608 132.237Z" fill="#1B1B1D"/>
  <path d="M51.7043 109.269C54.461 110.241 54.976 111.21 55.5563 109.876C57.3419 105.77 59.0022 106.047 59.4323 102.092C58.7115 95.8976 53.2677 97.3761 51.9601 100.188C51.5976 100.969 51.9068 99.6538 50.1735 99.4371C49.1985 99.3686 48.2267 99.6092 47.3961 100.124C46.5654 100.639 45.9182 101.403 45.5463 102.307C45.3183 102.912 45.2134 103.557 45.2378 104.203C45.2621 104.848 45.4153 105.483 45.6881 106.07C45.9611 106.656 46.3483 107.181 46.827 107.616C47.3057 108.05 47.8664 108.386 48.4761 108.6C50.3629 109.166 50.8616 108.97 51.7043 109.269ZM46.3694 103.75C46.5708 101.246 49.8273 99.8171 50.8627 101.108C51.1272 101.435 51.5421 101.615 51.75 102.023C51.8524 102.222 52.3706 102.161 52.523 101.959C52.7876 101.606 52.9487 100.139 54.2063 99.448C57.1949 97.8073 58.73 100.799 58.0866 103.013C57.5346 104.911 57.2297 104.526 55.6391 107.103C53.5944 110.415 55.9657 108.567 50.2813 107.742C48.0014 107.41 46.4717 106.156 46.3726 103.75H46.3694Z" fill="#1B1B1D"/>
  <path d="M48.2484 153.921C48.0306 153.941 42.5738 154.001 40.5247 154.199C34.9775 154.735 35.1528 154.059 35.5263 159.52C35.6449 161.262 36.615 161.634 40.4082 163.514C41.3489 164.158 42.4768 164.471 43.6146 164.404C54.3476 163.488 54.4195 163.798 54.6633 160.402C54.8169 158.276 54.8343 157.73 54.3814 157.3C53.5528 156.508 49.851 153.779 48.2484 153.921ZM39.2019 161.292C37.9411 160.651 36.6782 160.572 36.5889 158.849C36.4669 156.466 36.5704 156.494 36.8676 156.607C38.3856 157.166 39.8247 157.918 41.1486 158.847C41.9379 159.417 42.4279 159.2 42.4551 159.868C42.5912 163.8 43.2543 163.355 39.2019 161.292ZM42.7502 158.199C40.3157 156.691 38.5933 156.044 38.3799 155.804C39.4554 155.637 40.5416 155.55 41.6298 155.541C50.1624 154.997 48.2331 154.888 52.5174 157.515C52.5481 157.531 52.5723 157.556 52.5857 157.587C52.5991 157.619 52.6007 157.654 52.5902 157.686C52.5797 157.719 52.5579 157.746 52.5287 157.764C52.4996 157.781 52.465 157.788 52.4314 157.782C48.2179 157.606 43.3718 158.585 42.7502 158.199ZM53.212 161.391C53.1086 162.2 52.8081 162.255 45.0801 162.916C43.7736 163.025 43.6865 163.069 43.6887 162.706C43.7017 159.685 43.5058 159.57 44.0534 159.529C47.1031 159.177 50.1733 159.034 53.2425 159.103C53.4831 159.118 53.4831 159.277 53.212 161.391Z" fill="#1B1B1D"/>
  <path d="M53.8674 131.878C53.9763 130.79 54.022 130.245 53.2087 130.179C52.4793 130.123 52.3824 131.251 52.7732 132.044C52.9561 132.424 53.8184 132.378 53.8674 131.878Z" fill="#1B1B1D"/>
  <path d="M29.5403 109.519C22.3055 116.888 32.8066 129.295 40.6358 122.115C42.3593 120.534 42.8972 118.323 43.0311 115.962C42.8558 107.328 33.8267 105.159 29.5403 109.519ZM38.0555 122.47C36.6249 122.87 35.13 123.6 33.143 122.565C32.4346 122.275 31.7637 121.901 31.1451 121.45C29.6312 120.139 28.6747 118.299 28.4708 116.307C28.2669 114.314 28.8309 112.32 30.0477 110.729C31.3912 109.043 33.2726 108.787 35.1213 108.655C43.3577 108.068 43.385 120.975 38.0555 122.47Z" fill="#1B1B1D"/>
  <path d="M40.2078 90.1337C41.0461 90.6552 42.0195 91.4325 42.3287 90.6388C42.3943 90.518 42.4144 90.3775 42.3853 90.2425C42.3561 90.1075 42.2796 89.9878 42.1697 89.905C41.5165 89.5054 40.21 88.6867 39.978 89.3606C39.9286 89.4967 39.9243 89.6459 39.9656 89.7853C40.0069 89.9246 40.0918 90.0466 40.2078 90.1337Z" fill="#1B1B1D"/>
  <path d="M40.9137 92.909C41.1673 92.0054 40.7242 92.0576 39.3524 91.5797C38.5902 91.5535 38.3464 91.8638 38.5739 92.3255C38.7296 92.6379 40.7177 93.608 40.9137 92.909Z" fill="#1B1B1D"/>
  <path d="M31.6372 112.218C30.6889 113.269 30.9622 114.319 31.6699 113.966C31.9828 113.434 32.4278 112.991 32.9617 112.68C33.4957 112.37 34.1008 112.202 34.7184 112.194C35.1982 112.193 35.6726 112.296 36.1083 112.496C36.5442 112.697 36.931 112.991 37.2419 113.355C37.5529 113.721 37.7803 114.15 37.9087 114.612C38.037 115.075 38.0629 115.559 37.9847 116.033C37.7049 119.156 35.3281 119.975 33.9487 119.113C33.7973 119.017 33.1299 118.771 32.9688 118.939C31.2932 120.702 39.1464 123.139 39.1562 115.049C39.166 111.406 33.9857 109.613 31.6372 112.218Z" fill="#1B1B1D"/>
  <path d="M34.5178 130.527C34.4884 130.215 33.7949 129.72 33.2592 129.776C31.0543 129.939 28.842 129.975 26.633 129.885C24.8453 129.885 22.9312 130.073 21.6302 130.096C20.4042 130.117 17.6878 130.224 17.838 131.437C19.2033 142.45 17.4472 138.428 24.364 139.482C26.8508 139.86 27.0522 138.804 32.1737 139.329C35.44 139.03 34.7769 139.677 34.6659 134.729C34.764 133.326 34.7143 131.918 34.5178 130.527ZM19.3503 134.685C18.8495 130.247 18.0438 131.902 25.6782 131.117C27.5149 130.928 27.1643 131.117 31.7327 130.915C33.8765 130.82 33.3659 130.469 33.5836 134.11C33.6163 134.665 32.3599 135.124 31.7469 134.203C31.6391 134.018 31.4724 133.874 31.2733 133.794C30.8378 133.623 30.7997 133.615 30.4818 133.956C29.9015 134.578 28.2465 135.296 27.6771 134.668C26.5154 133.386 26.6776 134.378 25.7544 134.727C24.6809 135.135 24.0124 135.554 23.5028 134.619C23.0412 133.779 22.5785 134.259 22.0461 134.764C21.0401 135.723 19.4167 135.274 19.3503 134.683V134.685ZM33.2385 137.997C31.3974 138.215 29.7392 137.561 27.5388 138.07C26.2476 138.364 24.9099 138.393 23.6073 138.154C19.1434 137.866 19.7967 138.916 19.5506 136.536C19.5397 135.665 20.7537 137.154 22.4794 135.909C23.112 135.451 23.714 137.013 25.3254 136.177C25.7856 136.039 26.2292 135.852 26.6482 135.618C26.6951 135.579 26.866 135.618 26.9281 135.671C28.0669 136.707 30.1813 135.764 30.7452 135.375C31.1263 135.112 31.576 135.968 32.4807 135.971C33.1906 135.971 33.5303 135.629 33.5695 136.101C33.7099 137.794 33.821 137.931 33.2385 137.995V137.997Z" fill="#1B1B1D"/>
  <path d="M24.3827 97.8437C24.8106 97.5487 24.9337 97.2242 24.6724 96.7898C24.0149 95.5617 23.1961 94.4261 22.2379 93.4147C21.3952 92.6035 21.1132 91.8773 20.5884 92.1974C18.2846 93.6041 18.6461 93.7805 16.9879 94.6711C14.8424 95.8328 12.8097 97.1905 10.9159 98.7289C10.5425 99.0043 10.0449 99.3081 10.1309 99.908C10.3846 101.711 10.8571 100.852 12.1571 103.136C12.5131 103.762 13.37 104.797 14.168 104.685C15.0281 104.794 14.8365 104.32 17.9602 102.399C20.1965 101.02 22.3418 99.4986 24.3827 97.8437ZM14.0395 103.462C12.3629 101.529 12.635 101.402 11.8152 100.753C10.8756 100.01 11.2599 99.8547 11.8152 99.5553C13.1337 98.8584 13.8349 97.8862 17.0097 95.9809C20.963 93.6063 20.5917 93.3221 20.8661 93.6379C21.8745 94.6166 22.7227 95.749 23.38 96.9912C22.6592 97.921 16.5306 101.87 14.9378 102.971C14.4642 103.308 14.3085 103.769 14.0417 103.462H14.0395Z" fill="#1B1B1D"/>
  <path d="M20.2348 96.1071C17.8069 94.634 17.2277 98.7659 16.4242 98.2433C14.8302 97.2024 13.9472 99.0511 13.356 100.881C13.1993 101.365 13.2613 101.891 13.6827 101.93C14.4862 102.004 14.3457 100.564 15.2657 99.332C15.8526 98.5448 16.1683 100.229 16.9304 100.146C17.4574 100.089 17.3561 99.5465 17.8417 98.8149C18.9468 97.1545 19.1319 96.8801 19.5837 97.099C20.1129 97.3581 20.9719 98.2585 21.2365 97.2601C21.3911 96.6885 20.7999 96.449 20.2348 96.1071Z" fill="#1B1B1D"/>
  <defs>
    <linearGradient id="paint0_linear_3901_17385" x1="198.008" y1="70.832" x2="91.8632" y2="159.763" gradientUnits="userSpaceOnUse">
      <stop stop-color="#FFEA8A"/>
      <stop offset="1" stop-color="#FFD200"/>
    </linearGradient>
  </defs>
</svg>
