<svg width="379" height="394" viewBox="0 0 379 394" fill="none" xmlns="http://www.w3.org/2000/svg">
  <path d="M373.218 127.39C357.577 29.6361 262.732 -29.4651 282.37 22.9709C290.347 44.2716 300.891 63.0157 304.321 93.7097C309.308 138.299 295.135 171.423 290.314 175.23C270.387 209.266 238.108 236.257 198.023 246.174C128.43 263.39 55.7132 255.342 55.8315 254.433C40.0817 249.635 17.5826 229.904 12.234 228.21C-2.47001 223.553 -0.629189 261.411 39.7114 294.741C75.515 324.32 100.174 336.396 166.33 344.498V344.548C287.89 360.868 394.056 257.624 373.218 127.39Z" fill="#AA3CC5"/>
  <path d="M28.1149 257.775C27.9919 260.792 22.8989 259.576 22.8231 256.414C22.7498 253.301 28.2604 254.148 28.1149 257.775Z" fill="#AA3CC5"/>
  <path d="M179.42 316.302C179.283 325.195 165.366 324.775 167.242 317.073C168.984 309.938 179.821 311.309 179.42 316.302Z" fill="#AA3CC5"/>
  <path d="M248.584 320.766C244.732 320.967 243.361 314.641 247.388 314.606C251.414 314.57 252.626 320.555 248.584 320.766Z" fill="#AA3CC5"/>
  <path d="M224.98 326.648C221.451 326.575 218.136 323.354 218.187 320.054C218.192 319.355 218.338 318.664 218.615 318.022C218.892 317.38 219.295 316.8 219.8 316.317C220.305 315.833 220.902 315.456 221.555 315.207C222.209 314.957 222.905 314.842 223.604 314.867C232.146 315.147 232.492 326.802 224.98 326.648Z" fill="#AA3CC5"/>
  <path d="M343.393 89.6122C343.331 95.9379 333.212 94.4248 333.279 88.8456C333.355 82.7257 343.446 83.8189 343.393 89.6122Z" fill="#AA3CC5"/>
  <path d="M330.988 237.921C327.492 238.067 327.509 232.41 330.993 232.299C334.892 232.176 334.257 237.783 330.988 237.921Z" fill="#AA3CC5"/>
  <path d="M344.571 221.561C341.504 221.537 338.534 219.637 337.637 217.128C335.919 212.325 341.869 205.459 348.916 207.777C356.637 210.317 352.622 221.622 344.573 221.561H344.571Z" fill="#AA3CC5"/>
  <path d="M347.698 204.435C342.822 203.666 337.038 206.992 335.131 211.527C332.519 217.735 336.981 224.499 344.317 224.393C357.558 224.201 360.821 206.508 347.698 204.435ZM344.569 221.561C341.503 221.537 338.532 219.637 337.635 217.128C335.918 212.325 341.867 205.46 348.914 207.777C356.635 210.317 352.617 221.622 344.569 221.561Z" fill="#0A0430"/>
  <path d="M174.038 309.184C161.573 309.219 161.461 325.925 172.36 325.861C185.056 325.788 185.226 309.151 174.038 309.184ZM179.422 316.304C179.285 325.197 165.367 324.777 167.246 317.076C168.985 309.941 179.823 311.312 179.422 316.304Z" fill="#0A0430"/>
  <path d="M223.838 311.977C211.787 311.833 213.271 329.358 224.888 329.4C236.981 329.445 234.929 312.11 223.838 311.977ZM224.98 326.648C221.451 326.575 218.136 323.354 218.187 320.054C218.193 319.355 218.339 318.664 218.616 318.022C218.893 317.38 219.296 316.8 219.801 316.317C220.306 315.833 220.902 315.455 221.556 315.206C222.209 314.957 222.906 314.842 223.605 314.866C232.146 315.147 232.493 326.802 224.98 326.648Z" fill="#0A0430"/>
  <path d="M330.704 90.7059C333.508 99.6367 346.305 97.2411 346.116 89.9938C345.821 78.6176 327.431 80.2869 330.704 90.7059ZM333.282 88.8509C333.358 82.7311 343.449 83.8242 343.396 89.6175C343.335 95.9433 333.215 94.4302 333.282 88.8509Z" fill="#0A0430"/>
  <path d="M24.883 251.385C23.59 251.344 22.3334 251.817 21.3878 252.699C20.4423 253.582 19.8848 254.803 19.8373 256.096C19.7308 259.445 22.9948 262.638 26.5522 262.66C28.9739 262.676 31.2276 260.43 31.2868 257.956C31.3625 254.794 28.1588 251.506 24.883 251.385ZM22.8221 256.412C22.7511 253.299 28.2594 254.147 28.1139 257.774C27.9908 260.79 22.8978 259.574 22.8221 256.412Z" fill="#0A0430"/>
  <path d="M325.224 235.23C325.464 243.181 336.752 242.135 336.581 234.924C336.378 226.299 325.025 228.638 325.224 235.23ZM330.988 237.918C327.492 238.065 327.509 232.407 330.993 232.296C334.892 232.173 334.257 237.781 330.988 237.918Z" fill="#0A0430"/>
  <path d="M247.452 311.872C239.7 311.997 241.185 323.76 248.69 323.476C256.504 323.184 254.645 311.756 247.452 311.872ZM248.585 320.765C244.733 320.966 243.362 314.64 247.389 314.605C251.415 314.569 252.626 320.554 248.585 320.765Z" fill="#0A0430"/>
  <path d="M277.392 7.51249C275.535 30.4363 306.66 63.9697 301.921 125.284C300.448 144.348 296.392 156.486 292.969 163.991C276.33 200.506 241.05 232.507 197.321 243.326C130.129 259.947 63.8326 252.731 56.7947 251.896C52.822 249.835 43.9788 246.488 37.7998 242.102C17.1888 227.461 10.7779 222.058 6.28705 225.772C3.21232 228.314 0.283105 231.242 0.766969 234.503C1.93818 249.653 5.24006 264.746 25.7446 285.744C48.4258 308.968 80.9725 327.54 92.8775 331.456C118.266 341.397 167.648 349.528 188.351 348.109C266.367 351.57 337.16 300.949 363.516 235.784C425.749 81.901 280.495 -30.74 277.393 7.51368L277.392 7.51249ZM166.331 344.545V344.495C100.18 336.392 75.5116 324.318 39.7127 294.738C-0.630204 261.408 -2.47102 223.55 12.2354 228.207C17.5839 229.901 40.083 249.633 55.8329 254.43C55.7146 255.339 128.431 263.387 198.024 246.171C238.109 236.256 270.39 209.265 290.316 175.227C295.138 171.42 309.308 138.294 304.323 93.7066C300.891 63.0126 290.349 44.2684 282.371 22.9678C262.733 -29.4682 357.579 29.6354 373.22 127.387C394.058 257.618 287.897 360.865 166.331 344.545Z" fill="#0A0430"/>
  <path d="M53.3685 287.517C48.854 286.781 47.1753 284.848 47.2179 280.41C48.8765 280.151 50.4511 280.896 52.0849 280.927C53.8713 280.96 53.4608 286.549 53.3685 287.517Z" fill="white"/>
  <path d="M68.294 286.966C59.4603 287.435 56.4435 289.255 56.1371 285.507C55.7857 281.197 55.736 281.199 60.124 281.152C69.0169 281.058 68.7294 279.976 69.5386 285.173C69.709 286.271 69.5149 286.898 68.2952 286.964L68.294 286.966Z" fill="white"/>
  <path d="M85.1564 285.53C81.5316 285.804 77.8796 285.995 74.2523 286.389C71.4012 286.698 72.0791 284.437 71.6887 282.49C71.193 280 72.6777 280.847 82.8211 279.528C84.1189 279.357 84.6217 279.791 84.6998 281.076C84.7873 282.502 85.3446 283.882 85.1529 285.533V285.53H85.1564Z" fill="white"/>
  <path d="M101.427 282.986C101.489 283.864 100.818 283.959 100.08 284.025C89.2112 285.03 88.2435 286.124 87.8259 283.069C87.2119 278.613 86.3388 279.16 91.0567 278.247L101.565 276.172C102.091 278.603 101.277 280.788 101.427 282.986Z" fill="white"/>
  <path d="M148.891 373.984C149.024 376.254 143.595 378.055 141.464 378.436L139.654 372.584L148.712 368.777C149.462 370.675 148.795 372.334 148.892 373.984H148.891Z" fill="white"/>
  <path d="M134.665 380.73C131.082 381.896 132.909 379.319 130.4 375.224C132.392 374.076 134.544 374.014 136.666 373.258C139.688 379.602 138.784 379.392 134.665 380.73Z" fill="white"/>
  <path d="M128.555 382.393C121.309 384.274 121.047 384.295 120.259 378.683C120.046 377.193 120.689 377.331 125.043 376.306C128.074 375.594 127.987 375.471 129.417 380.455C129.676 381.734 129.326 382.192 128.555 382.393Z" fill="white"/>
  <path d="M117.28 384.91C109.534 386.151 110.131 386.281 109.488 383.631C108.409 379.193 108.228 379.812 116.125 378.334C116.91 378.187 117.363 378.467 117.545 379.295C118.461 383.47 119.602 384.537 117.282 384.907L117.28 384.91Z" fill="white"/>
  <path d="M107.326 386.32C97.71 388.495 97.2048 389.072 96.6322 387.448C96.1933 386.205 95.4894 385.043 95.3983 383.404C98.5559 382.604 101.748 381.812 104.927 380.977C107.133 380.396 105.977 383.115 107.327 386.321L107.326 386.32Z" fill="white"/>
  <path d="M94.024 389.435C86.0396 391.045 86.3862 391.734 85.5557 387.808C85.0435 385.382 85.0435 385.37 87.4936 384.811C89.0019 384.466 90.6961 383.581 91.9737 383.987C93.3402 384.421 93.0314 386.656 93.8335 387.95C94.0393 388.28 94.3942 388.659 94.024 389.435Z" fill="white"/>
  <path d="M83.3514 390.717C78.7447 390.594 76.3774 388.17 75.0394 384.059C77.3995 384.438 79.4959 385.442 81.7496 385.586C82.5801 385.638 82.3872 385.778 83.3502 390.714L83.3514 390.717Z" fill="white"/>
  <path d="M84.7366 133.899C76.8209 115.846 69.6741 97.5784 60.4547 80.2575C63.5672 78.9147 64.6982 78.7964 68.9039 89.6272C85.4109 132.139 87.1086 130.673 84.7366 133.899Z" fill="#C875DD"/>
  <path d="M80.9841 132.328C76.2212 120.888 64.4156 92.5496 58.2555 81.991C56.9672 79.7822 56.8701 80.304 44.1181 85.8477C43.2041 86.261 42.3407 86.7782 41.545 87.3892C39.4203 88.9804 39.2085 89.4406 40.2543 91.899C45.7129 104.724 45.94 104.504 46.9172 104.774C52.6479 106.351 52.9117 113.544 54.4698 119.919C55.7841 119.682 63.7164 113.105 69.9286 118.251C75.742 123.066 79.4805 134.163 75.1446 136.198C73.318 137.057 74.4928 138.018 74.6158 139.082C76.9334 138.643 78.5104 137.223 80.4624 136.701C82.761 136.084 81.8927 134.513 80.9817 132.329L80.9841 132.328Z" fill="#C875DD"/>
  <path d="M212.343 181.851C209.606 182.568 207.056 181.802 204.491 181.334C204.472 181.075 204.404 180.867 204.451 180.69C205.258 177.718 207.229 176.392 210.415 176.726C212.782 176.974 212.343 176.001 212.343 181.851Z" fill="#C875DD"/>
  <path d="M220.978 182.091H215.151C214.419 178.381 214.662 177.499 216.463 177.196C219.918 176.615 220.49 177.196 220.978 182.091Z" fill="#C875DD"/>
  <path d="M201.948 180.823C199.225 179.96 196.545 179.315 194.169 177.847C195.75 174.597 198.155 173.579 201.391 174.78C203.777 175.667 203.416 174.968 201.948 180.823Z" fill="#C875DD"/>
  <path d="M194.281 171.68C193.819 173.426 192.436 174.702 192.237 176.771C189.801 175.829 188.283 174.463 186.516 173.521C185.159 172.799 185.152 171.968 185.906 170.838C188.314 167.222 186.562 167.078 194.281 171.68Z" fill="#C875DD"/>
  <path d="M183.04 170.496C180.82 168.667 179.134 166.745 177.355 164.907C175.853 163.356 177.114 162.573 177.959 161.612C179.586 159.764 180.288 160.538 181.953 162.276C183.105 163.479 184.963 164.574 185.184 165.936C185.397 167.234 183.899 168.813 183.04 170.496Z" fill="#C875DD"/>
  <path d="M177.781 157.805L174.555 161.142C173.002 159.717 171.896 157.798 170.656 156.004C169.622 154.505 170.857 153.76 171.852 153.096C174.214 151.519 174.165 152.421 177.78 157.805H177.781Z" fill="#C875DD"/>
  <path d="M172.308 149.192C172.119 150.636 169.79 150.646 168.752 152.112C167.464 150.183 167.053 148.451 166.463 146.801C166.029 145.596 164.348 143.796 169.338 142.989C170.367 142.821 170.445 143.962 170.797 144.887C171.347 146.331 172.485 147.844 172.308 149.192Z" fill="#C875DD"/>
  <path d="M164.944 141.208C164.266 140.129 164.484 138.867 164.232 137.698C163.978 136.514 164.624 135.781 165.658 135.432C166.613 135.112 167.733 134.236 168.499 135.72C170.89 140.35 165.966 141.469 164.948 141.204H164.945L164.944 141.208Z" fill="#C875DD"/>
  <path d="M171.178 135.332C170.187 132.413 169.436 131.863 166.868 132.165C162.148 132.72 161.652 135.47 161.652 138.75C151.464 134.148 160.307 122.063 168.95 125.123C173.312 126.667 174.351 131.425 171.178 135.332Z" fill="#C875DD"/>
  <path d="M284.322 180.903C282.727 156.763 281.927 72.8123 272.361 50.4492C270.902 51.1342 245.289 64.3015 244.765 65.7744C244.39 66.8296 245.192 67.5016 245.922 70.8508C246.814 74.9453 248.048 95.2286 247.933 98.5683C247.681 105.908 256.624 109.677 259.153 126.923C261.19 140.809 266.767 147.311 269.984 166.954C273.094 185.954 266.744 199.81 269.495 226.98C274.126 226.331 278.042 224.349 282.141 222.931C288.004 220.901 286.694 216.757 284.322 180.903Z" fill="white"/>
  <path d="M244.745 97.7931C244.072 97.0667 236.237 88.5559 235.599 88.0579C229.472 83.2736 234.852 83.9681 230.015 79.6441C225.061 75.2136 218.342 73.8164 217.062 72.8652C220.006 61.5956 215.349 58.903 219.767 59.6838C232.549 61.9422 241.331 63.5831 242.618 69.3764C244.193 76.4735 245.342 96.5273 244.747 97.7955L244.744 97.7931H244.745Z" fill="white"/>
  <path d="M270.554 48.2236C265.513 50.8641 260.509 53.5485 255.444 56.1251C232.189 67.952 254.166 61.9315 220.396 57.0219C217.346 56.5782 217.326 56.6279 216.809 53.5165C213.894 35.9755 206.749 32.5554 212.968 33.6272C218.562 34.5902 268.007 42.3001 270.554 48.2236Z" fill="white"/>
  <path d="M192.86 76.4166C192.81 81.0423 190.542 84.666 186.75 87.2474C186.389 86.0513 187.186 85.0907 187.413 84.0212C191.602 64.3874 187.574 38.8716 168.3 32.98C140.749 24.5615 124.691 35.132 122.745 34.1039C123.027 31.3309 124.536 30.0473 127.04 29.1221C139.408 24.5437 160.163 24.3355 177.213 31.6858C192.561 38.3013 193.037 59.6352 192.861 76.4178L192.86 76.4166Z" fill="white"/>
  <path d="M91.0954 167.864C86.6885 169.724 86.672 163.426 78.2534 157.776C83.2613 152.209 89.2948 149.289 96.4427 148.567C100.592 148.147 103.753 155.854 104.797 159.896C105.67 163.283 103.629 162.579 91.0918 167.866V167.864H91.0954Z" fill="white"/>
  <path d="M279.237 260.542C277.451 260.113 279.455 257.295 267.446 243.322C266.724 242.482 266.329 242.179 265.508 242.658C263.568 243.789 275.307 255.771 276.626 263.385C277.257 267.022 272.727 266.777 271.991 264.683C270.093 259.299 267.967 254.435 261.419 246.556C260.737 245.735 259.987 244.347 258.788 245.199C257.391 246.193 258.833 247.206 259.414 247.991C279.071 274.586 265.041 272.627 263.285 267.918C262.86 266.776 262.671 259.908 253.188 249.724C252.461 248.944 251.456 247.307 250.216 248.563C247.702 251.105 261.122 257.79 260.66 271.021C260.558 273.915 257.806 274.94 256.395 272.032C251.378 261.697 238.156 242.919 231.574 252.431C228.658 256.642 224.194 262.021 219.673 261.348C221.337 254.144 223.993 247.815 228.331 242.23C230.337 239.647 231.206 236.466 232.548 233.474C241.977 237.236 251.309 235.851 260.641 233.616C264.854 232.608 264.75 231.879 266.282 235.212C268.984 241.085 286.268 257.941 279.239 260.536L279.237 260.541V260.542Z" fill="white"/>
  <path d="M80.5401 151.524C74.3468 155.891 72.2907 162.141 70.1932 166.717C65.7177 165.384 54.5167 149.615 51.9542 145.711C49.8436 142.494 49.3444 139.409 48.7588 127.425C48.2702 117.434 42.4236 104.022 47.4847 108.01C52.9456 112.315 50.0034 127.365 55.9765 122.721C60.4283 119.26 66.0596 117.412 69.7105 121.706C76.578 129.78 74.1386 137.084 72.0186 132.907C70.0476 129.017 66.3376 124.894 62.0183 124.991C57.6706 125.09 58.3888 128.68 60.2225 128.027C66.9729 125.622 74.3669 140.3 70.0713 141.454C68.8137 141.791 68.7546 140.477 68.389 139.781C62.6749 128.875 54.7237 135.718 56.6994 137.863C58.054 139.338 59.8474 134.11 63.9431 138.204C65.8952 140.156 69.3627 146.493 66.9694 147.223C65.7189 147.605 65.5509 146.16 64.0189 143.987C61.8645 140.921 58.888 141.565 58.565 142.825C58.4112 143.42 58.7661 144.123 59.2689 144.197C61.6362 144.548 62.3259 146.509 63.4179 148.164C66.1909 152.373 70.6143 149.422 70.3564 146.711C70.0973 143.923 72.3723 143.605 73.779 142.424C74.1776 142.094 74.8248 142.052 75.3678 141.912C76.6419 141.582 77.9291 140.216 79.0376 140.741C81.2511 141.789 82.1017 149.145 82.1407 149.287C82.5323 150.658 81.2582 151.024 80.5448 151.527L80.5424 151.524H80.5401Z" fill="white"/>
  <path d="M126.196 154.68C121.032 150.731 115.726 148.721 110.276 146.828C112.767 138.386 114.244 129.8 115.327 121.194C117.137 106.839 128.069 95.7375 130.609 96.025C124.371 117.66 122.312 123.657 126.196 154.68Z" fill="white"/>
  <path d="M255.494 132.916C249.445 136.296 243.292 139.382 236.212 140.003C233.84 140.211 234.167 139.444 231.161 130.437C230.243 127.685 232.898 131.11 253.461 117.402C255.585 121.8 256.089 126.319 256.798 130.79C256.975 131.902 256.226 132.505 255.495 132.916H255.494Z" fill="white"/>
  <path d="M145.377 341.696C135.061 345.93 104.6 345.548 105.892 334.41C106.022 333.316 105.391 332.229 105.922 330.832C120.183 335.196 134.518 335.284 149.017 330.872C149.017 336.266 149.833 339.869 145.376 341.698V341.696H145.377Z" fill="white"/>
  <path d="M146.941 366.277C140.513 369.669 135.315 371.092 110.616 376.605C89.6665 381.278 82.3269 384.495 75.6569 381.257C74.5472 380.718 73.8137 380.211 73.5535 378.977C68.6675 355.769 90.4757 353.721 104.354 341.885C106.973 339.65 104.765 343.591 117.472 345.994C136.519 349.595 147.653 343.983 148.791 343.626C149.372 364.7 150.241 364.538 146.941 366.277Z" fill="white"/>
  <path d="M122.952 276.625C121.147 279.564 118.303 278.164 106.681 275.669C105.071 275.325 104.837 274.619 105.212 273.105C107.091 265.527 110.459 258.678 115.135 252.051C119.449 255.315 123.876 257.852 128.484 260.123C135.356 263.51 127.78 268.766 122.952 276.625Z" fill="white"/>
  <path d="M119.326 241.767C117.91 243.698 116.862 246.084 114.25 246.839C105.267 249.436 96.0757 250.715 86.758 250.402C78.4957 250.127 77.0086 250.388 76.8761 247.207C76.7317 243.761 76.4963 243.618 79.8739 244.078C87.2727 245.088 105.124 243.601 117.212 239.388C117.696 239.22 118.279 238.781 118.751 239.301C119.386 239.997 119.806 241.118 119.327 241.77L119.326 241.767Z" fill="white"/>
  <path d="M112.741 250.203C101.602 266.276 104.226 271.962 101.566 273.342C96.9762 275.721 47.157 281.728 46.7323 275.769C45.6747 260.946 48.2005 262.526 69.8265 255.642C75.4105 253.865 72.7889 251.898 80.9353 252.743C98.3745 254.548 109.068 250.206 112.741 250.206V250.203Z" fill="white"/>
  <path d="M218.937 173.984C201.51 176.444 182.353 163.925 176.407 149.885C181.887 149.788 187.349 150.107 192.805 149.349C194.776 149.075 196.787 147.491 198.564 148.407C200.129 149.214 201.045 151.213 202.399 152.525C205.201 155.237 207.779 158.402 211.064 160.334C215.447 162.912 218.628 172.312 218.937 173.984Z" fill="white"/>
  <path d="M222.797 232.898C221.943 229.848 221.329 227.295 220.2 224.918C214.439 212.785 199.542 200.183 178.538 197.328C176.494 197.05 176.924 197.064 175.82 196.346C191.975 194.778 206.763 191.106 220.824 203.96C229.257 211.668 226.377 217.898 227.227 223.183C227.886 227.287 225.421 229.777 222.794 232.895L222.796 232.897L222.797 232.898Z" fill="white"/>
  <path d="M134.821 223.387C123.013 237.78 123.551 237.38 122.294 238.176C121.224 237.678 121.963 238.24 118.442 219.634C117.694 215.681 118.795 211.85 119.018 207.966C119.197 204.775 120.216 201.927 122.079 199.292C123.229 197.665 125.666 192.313 125.545 190.321C125.431 188.466 123.645 188.57 123.173 189.842C122.411 191.903 121.811 194.033 120.312 196.505C120.006 193.878 118.785 181.032 115.964 181.711C113.687 182.261 116.318 186.167 116.906 190.71C118.834 205.65 113.08 207.777 116.512 226.381C118.175 235.411 119.131 236.051 116.458 236.92C104.137 240.916 87.7013 242.385 80.0731 241.327C76.7641 240.866 76.8114 240.937 76.2897 237.676C71.1044 205.257 65.0555 179.793 76.5677 160.295C79.6424 161.853 81.4702 164.277 83.3631 166.616C88.5555 173.031 87.1559 172.599 104.272 165.793C112.852 162.38 102.866 150.652 103.179 148.594C111.685 149.682 119.259 152.894 125.955 158.257C128.723 160.473 126.71 180.11 147.909 203.69C150.207 206.247 149.589 205.387 134.822 223.388L134.821 223.387Z" fill="white"/>
  <path d="M219.02 235.636C200.115 249.519 196.635 253.269 178.98 265.521C159.225 279.224 152.256 280.89 151.097 288.788C150.093 295.616 148.972 322.174 148.988 325.265C148.998 327.032 148.327 327.762 146.699 328.358C140.133 330.761 125.363 332.72 110.58 329.369C105.777 328.28 105.515 328.669 105.539 324.063C105.652 300.641 103.929 285.145 104.72 278.323C108.321 279.475 112.006 279.585 115.553 280.718C120.691 282.359 123.894 280.841 126.929 276.243C129.856 271.812 131.963 270.38 133.512 266.188C136.396 258.374 128.896 257.514 122.1 253.341C116.653 249.997 116.497 249.983 120.67 245.151C143.327 218.923 155.24 197.964 167.729 198.972C174.864 199.549 182.058 200.018 188.838 202.428C201.118 206.792 211.151 214.08 217.526 225.783C218.659 227.862 219.138 230.185 220.03 232.341C220.665 233.878 220.294 234.704 219.024 235.636H219.02Z" fill="white"/>
  <path d="M226.23 204.614C215.508 195.386 204.906 189.632 188.323 192.082C177.87 193.626 165.462 192.746 152.057 203.238C136.769 187.338 129.885 168.331 128.963 146.805C162.496 149.587 163.518 147.293 165.397 151.383C170.268 161.985 177.528 170.691 187.229 177.163C198.673 184.798 207.453 185.114 219.559 184.836C221.756 184.786 221.898 184.739 222.137 187.175C223.394 200.01 226.921 196.75 226.236 204.619L226.23 204.614Z" fill="white"/>
  <path d="M182.969 50.7405C180.543 43.7073 176.155 38.1778 168.692 35.82C158.092 32.4708 147.308 31.1469 136.28 33.2279C131.394 34.1507 121.59 36.0933 120.71 40.9343C119.589 47.1086 118.981 53.3207 119.056 60.7644C119.165 71.5313 118.792 90.5665 137.525 95.0786C149.188 97.8895 160.792 100.594 176.531 94.0966C189.596 88.7032 187.577 64.1042 182.969 50.7405Z" fill="#C875DD"/>
  <path d="M228.005 87.0159C182.208 132.461 219.171 161.324 209.883 155.593C178.462 131.137 198.724 89.9925 207.141 85.6542C216.711 80.721 214.221 74.5218 218.014 76.1473C221.394 77.5965 224.828 78.9085 227.689 81.3704C230.276 83.5958 230.4 84.6368 228.005 87.0159Z" fill="#C875DD"/>
  <path d="M209.654 80.1486C218.131 71.7041 215.667 56.4688 211.719 45.1755C205.365 27.0063 201.904 19.539 188.868 13.9503C175.124 8.05636 160.878 8.76027 146.738 12.1639C139.174 13.9858 133.163 18.8197 127.753 24.3019C127.295 24.7668 126.62 25.3477 126.967 26.3959C148.28 20.2452 169.896 24.0996 181.99 31.4084C195.204 39.3952 195.259 62.3403 195.427 75.4401C195.597 88.8582 174.192 108.067 136.268 97.8528C133.799 97.1868 133.773 97.2223 133 99.6345C128.633 113.198 126.431 127.001 128.242 141.275C128.74 145.205 127.788 144.271 159.604 145.972C160.678 146.026 162.045 146.871 162.766 145.936C163.663 144.775 162.394 143.437 162.249 142.144C162.138 141.152 161.102 141.304 160.404 141.02C151.06 137.236 153.146 124.484 163.767 122.072C172.904 119.997 179.526 130.082 173.836 136.724C170.563 140.548 173.284 142.752 173.782 145.15C174.28 147.543 174.875 147.676 188.73 147.017C191.381 146.891 194.018 146.459 196.871 145.363C186.271 127.173 189.34 109.294 197.94 91.4467C187.843 96.5231 184.638 104.562 183.376 105.995C182.465 107.031 180.867 106.313 181.282 104.956C185.511 91.0965 204.234 85.5457 209.654 80.151V80.1486Z" fill="white"/>
  <path d="M266.202 223.15C266.399 226.806 266.929 228.599 263.152 229.865C253.975 232.94 243.395 234.543 234.282 231.286C229.211 229.471 230.188 227.519 229.04 203.709C228.67 196.022 237.546 178.217 233.799 177.549C232.095 177.247 232.501 178.979 232.295 179.949C231.162 185.314 229.283 190.443 227.501 195.863C221.908 191.788 231.539 191.717 211.99 151.338C207.976 143.045 205.804 135.991 208.041 125.398C212.228 105.589 224.985 94.5263 229.618 89.0631C231.331 87.0424 232.239 87.6943 239.443 96.198C243.701 101.225 247.968 106.283 250.996 112.207C252.268 114.697 252.24 114.745 249.816 116.335C230.175 129.226 226.696 124.983 228.18 130.201C231.638 142.348 231.905 143.107 236.394 142.783C244.282 142.216 251.041 138.775 257.723 135.095C261.31 146.014 265.486 156.608 267.192 167.941C269.928 186.113 264.752 196.216 266.201 223.148L266.202 223.15Z" fill="white"/>
  <path d="M144.066 130.896C143.632 136.299 143.627 136.259 138.262 135.913C136.929 135.828 136.511 135.228 136.516 134.058C136.542 128.021 136.905 127.143 144.007 128.294C144.427 129.148 144.135 130.031 144.066 130.895V130.896Z" fill="#C875DD"/>
  <path d="M144.437 112.843C144.299 115.402 142.971 116.565 140.45 116.339C137.877 116.107 136.695 114.685 136.908 112.069C137.095 109.771 137.128 107.901 139.441 108.559C143.486 109.712 144.721 107.573 144.439 112.845L144.437 112.843Z" fill="#C875DD"/>
  <path d="M264.233 71.273C263.163 71.5818 262.522 71.3606 262.212 70.2864C261.297 67.1028 259.781 67.169 263.88 65.1579C268.209 63.0331 267.486 63.2011 268.318 63.2839C271.764 70.6188 270.076 69.5884 264.233 71.273Z" fill="white"/>
  <path d="M60.0941 108.782C59.9616 109.513 59.5511 109.882 58.7372 109.669C57.6441 109.386 56.5426 108.991 56.6929 107.634C56.9638 105.165 60.2704 106.522 60.0941 108.782Z" fill="white"/>
  <path d="M287.587 185.726C286.344 172.246 286.353 158.707 285.673 145.198C281.667 65.5564 280.191 44.3788 264.194 41.4377C262.872 41.1952 247.042 35.209 211.376 30.7537C206.769 30.1775 208.251 26.38 204.772 22.3801C182.421 -3.33214 126.485 2.36538 118.919 36.1637C114.495 55.9111 116.412 74.2613 118.352 80.044C120.169 85.4564 123.091 90.0844 127.57 93.6809C110.211 112.085 115.257 112.636 108.696 141.88C107.82 145.78 107.539 146.029 103.674 145.761C90.277 144.831 87.6956 148.375 84.8114 148.375C84.6055 145.135 83.3078 142.232 81.8727 139.293C93.0832 132.744 89.2431 134.537 71.9695 89.8975C67.2964 77.8234 65.8165 75.9424 60.2798 76.9491C54.5302 77.9973 43.7823 82.7508 42.7057 83.3151C33.633 88.0473 36.7112 90.7351 42.7246 104.365C44.3064 107.947 41.7049 104.868 43.1967 112.062C50.4641 147.07 40.9548 137.613 59.9497 161.142C68.0666 171.196 69.7655 168.317 68.8616 171.626C65.3539 184.477 68.3139 204.441 70.0624 216.58C74.9933 250.821 77.1193 249.896 67.7306 253.13C52.0352 258.536 43.1044 257.874 43.5812 272.047C43.9586 283.248 43.8734 292.539 61.0535 290.579C73.8363 289.121 86.7208 288.746 99.4728 286.978C101.684 286.672 101.774 286.753 101.805 288.916C101.805 288.97 103.065 335.794 103.185 336.525C104.429 344.035 75.321 350.283 70.9142 366.019C67.4491 378.391 73.7984 390.998 78.2845 392.403C88.1476 395.489 89.4123 392.59 104.529 389.865C114.755 388.022 151.91 382.588 151.801 374.506C151.711 367.829 152.603 361.182 151.998 354.474C150.492 337.901 152.522 299.704 153.711 289.86C154.629 282.246 163.623 280.583 188.162 262.807C199.583 254.536 210.359 245.427 221.849 237.254C229.229 232.002 227.476 230.086 229.224 231.236C229.996 231.743 230.102 232.279 229.767 233.183C225.483 244.711 221.875 241.573 216.947 260.651C216.297 263.165 217.152 264 219.866 264.252C223.449 264.584 226.1 262.739 228.5 260.509C234.922 254.538 234.195 250.06 238.885 253.525C248.368 260.53 253.651 272.997 254.963 274.736C257.096 277.566 260.454 277.334 262.435 274.366C264.223 271.683 262.777 272.584 266.695 273.259C269.473 273.735 271.099 273.007 271.908 270.325C272.406 268.674 273.084 268.719 274.496 268.797C280.26 269.118 278.087 264.577 280.772 262.92C291.393 256.363 270.059 240.343 267.218 230.699C273.1 229.527 278.428 227.553 283.72 225.393C287.937 223.672 288.905 220.452 288.99 216.225C289.199 206.03 288.523 195.873 287.588 185.728L287.587 185.726ZM212.968 33.6273C218.561 34.5903 268.007 42.2966 270.554 48.2201C265.513 50.8607 260.509 53.545 255.444 56.1217C232.189 67.9485 254.165 61.928 220.395 57.0184C217.345 56.5748 217.325 56.6245 216.808 53.5131C213.893 35.9721 206.749 32.5555 212.968 33.6273ZM174.553 161.143C173 159.717 171.894 157.798 170.654 156.005C169.62 154.506 170.855 153.761 171.85 153.097C174.213 151.52 174.163 152.424 177.778 157.808L174.552 161.143H174.553ZM177.959 161.612C179.586 159.764 180.289 160.538 181.953 162.276C183.106 163.479 184.963 164.575 185.184 165.936C185.397 167.234 183.901 168.811 183.042 170.493C180.821 168.665 179.135 166.743 177.356 164.905C175.855 163.354 177.115 162.573 177.959 161.612ZM172.307 149.19C172.118 150.635 169.788 150.644 168.751 152.11C167.462 150.182 167.052 148.45 166.461 146.8C166.027 145.594 164.346 143.795 169.336 142.988C170.365 142.82 170.444 143.96 170.795 144.885C171.345 146.33 172.483 147.843 172.307 149.19ZM164.944 141.206C164.266 140.127 164.483 138.865 164.231 137.696C163.977 136.512 164.623 135.779 165.657 135.43C166.613 135.11 167.732 134.234 168.499 135.718C170.89 140.348 165.966 141.468 164.947 141.203L164.945 141.205L164.944 141.206ZM166.867 132.166C162.147 132.721 161.651 135.471 161.651 138.751C151.463 134.149 160.306 122.064 168.949 125.124C173.311 126.668 174.348 131.426 171.175 135.333C170.183 132.414 169.436 131.864 166.867 132.166ZM165.392 151.38C170.264 161.983 177.523 170.689 187.224 177.16C198.669 184.795 207.448 185.111 219.554 184.833C221.751 184.783 221.893 184.736 222.132 187.172C223.389 200.007 226.916 196.748 226.231 204.616C215.509 195.388 204.907 189.634 188.324 192.084C177.871 193.628 165.463 192.748 152.058 203.24C136.771 187.34 129.886 168.333 128.964 146.807C162.497 149.589 163.517 147.295 165.398 151.385L165.392 151.38ZM192.234 176.768C189.798 175.827 188.28 174.46 186.513 173.519C185.156 172.797 185.149 171.965 185.904 170.835C188.311 167.22 186.558 167.078 194.277 171.68C193.815 173.426 192.433 174.699 192.234 176.768ZM201.39 174.776C203.776 175.663 203.415 174.963 201.947 180.818C199.223 179.954 196.544 179.31 194.167 177.841C195.749 174.592 198.154 173.575 201.39 174.776ZM204.451 180.685C205.258 177.714 207.229 176.387 210.415 176.722C212.782 176.969 212.343 175.996 212.343 181.846C209.606 182.563 207.056 181.796 204.492 181.329C204.473 181.07 204.404 180.862 204.451 180.684V180.685ZM215.15 182.085C214.418 178.375 214.661 177.492 216.462 177.19C219.917 176.609 220.487 177.19 220.976 182.085H215.15ZM176.407 149.878C181.887 149.781 187.349 150.1 192.805 149.342C194.776 149.069 196.788 147.485 198.564 148.4C200.13 149.207 201.045 151.206 202.4 152.518C205.201 155.23 207.779 158.396 211.065 160.328C215.448 162.905 218.629 172.306 218.938 173.979C201.51 176.438 182.353 163.917 176.407 149.877V149.878ZM209.884 155.587C178.463 131.131 198.725 89.9863 207.142 85.648C216.712 80.7148 214.222 74.5156 218.015 76.1411C221.395 77.5903 224.829 78.9023 227.69 81.3642C230.277 83.5895 230.401 84.633 228.006 87.0121C182.209 132.457 219.172 161.318 209.884 155.587ZM217.064 72.8558C220.007 61.5861 215.351 58.8935 219.768 59.6743C232.551 61.9328 241.333 63.5736 242.62 69.367C244.194 76.4641 245.343 96.5178 244.748 97.7861C244.075 97.0597 236.24 88.5489 235.602 88.0508C229.475 83.2666 234.854 83.961 230.018 79.637C225.063 75.2065 218.345 73.8093 217.065 72.8582L217.063 72.8558H217.064ZM127.755 24.2954C133.165 18.8132 139.176 13.9793 146.74 12.1574C160.877 8.75145 175.126 8.05109 188.869 13.9438C201.904 19.5325 205.367 26.9999 211.721 45.1691C215.672 56.4647 218.133 71.7 209.656 80.1422C204.236 85.5404 185.513 91.0912 181.284 104.949C180.871 106.306 182.466 107.024 183.378 105.988C184.638 104.555 187.844 96.5143 197.942 91.4402C189.342 109.288 186.274 127.166 196.873 145.356C194.017 146.454 191.383 146.886 188.732 147.01C174.875 147.669 174.284 147.544 173.783 145.141C173.283 142.738 170.562 140.539 173.838 136.718C179.528 130.076 172.905 119.991 163.769 122.066C153.147 124.478 151.062 137.23 160.405 141.013C161.105 141.296 162.14 141.146 162.251 142.137C162.393 143.43 163.665 144.766 162.768 145.93C162.046 146.867 160.679 146.022 159.606 145.963C127.79 144.264 128.741 145.197 128.243 141.269C126.433 126.992 128.635 113.192 133.001 99.6281C133.778 97.2158 133.801 97.1804 136.27 97.8464C174.194 108.061 195.597 88.8517 195.428 75.4336C195.263 62.335 195.206 39.3863 181.991 31.402C169.896 24.092 148.28 20.2412 126.969 26.3894C126.622 25.3389 127.297 24.7604 127.755 24.2954ZM127.042 29.1128C139.41 24.5344 160.165 24.3262 177.215 31.6764C192.563 38.292 193.04 59.6282 192.863 76.4109C192.814 81.0365 190.546 84.6602 186.753 87.2416C186.392 86.0455 187.19 85.0849 187.417 84.0154C191.606 64.3817 187.578 38.8658 168.303 32.9742C140.753 24.5557 124.694 35.1262 122.748 34.0981C123.031 31.3251 124.539 30.0391 127.044 29.114L127.042 29.1128ZM119.058 60.758C118.982 53.3143 119.589 47.1021 120.711 40.9278C121.889 34.4566 144.974 28.3202 168.693 35.8136C176.155 38.1714 180.543 43.7009 182.97 50.7341C187.576 64.0977 189.597 88.7003 176.532 94.0926C160.789 100.59 149.191 97.8854 137.525 95.0745C118.793 90.56 119.163 71.5249 119.057 60.7604L119.058 60.758ZM115.329 121.19C117.139 106.835 128.072 95.7335 130.612 96.021C124.374 117.656 122.316 123.653 126.198 154.676C121.036 150.727 115.73 148.717 110.281 146.824C112.771 138.382 114.247 129.796 115.329 121.19ZM96.4454 148.561C100.594 148.141 103.755 155.847 104.8 159.89C105.673 163.277 103.631 162.573 91.0945 167.86C86.6877 169.72 86.6711 163.422 78.2526 157.772C83.2604 152.205 89.2939 149.285 96.4419 148.563V148.561H96.4454ZM68.9018 89.6231C85.4112 132.135 87.1077 130.669 84.7357 133.895C76.8199 115.842 69.6732 97.5743 60.4537 80.2534C63.5663 78.9106 64.6961 78.7923 68.9018 89.6231ZM40.2545 91.8933C39.2086 89.4338 39.4216 88.9759 41.5475 87.3836C42.3432 86.7726 43.2066 86.2554 44.1206 85.8421C56.8703 80.3007 56.9649 79.7766 58.2556 81.9853C64.4157 92.5452 76.2213 120.884 80.9843 132.323C81.8928 134.503 82.7612 136.075 80.4625 136.692C78.5105 137.213 76.9335 138.634 74.6159 139.073C74.4929 138.008 73.3181 137.048 75.1471 136.189C79.4806 134.154 75.7446 123.059 69.9287 118.242C63.7166 113.097 55.7843 119.672 54.4699 119.91C52.9118 113.536 52.648 106.342 46.9173 104.765C45.9402 104.496 45.7142 104.718 40.2545 91.8921V91.8933ZM51.9536 145.708C49.843 142.491 49.3438 139.406 48.7582 127.421C48.2696 117.43 42.423 104.018 47.484 108.006C52.945 112.311 50.0027 127.362 55.9759 122.718C60.4277 119.257 66.059 117.409 69.7099 121.702C76.5774 129.777 74.138 137.081 72.018 132.904C70.047 129.014 66.337 124.891 62.0177 124.988C57.67 125.087 58.3881 128.676 60.2218 128.023C66.9723 125.618 74.3663 140.296 70.0707 141.451C68.8131 141.788 68.754 140.474 68.3884 139.778C62.6743 128.872 54.7231 135.714 56.6988 137.859C58.0533 139.335 59.8468 134.107 63.9425 138.201C65.8945 140.153 69.362 146.49 66.9687 147.219C65.7183 147.602 65.5503 146.157 64.0182 143.984C61.8639 140.917 58.8874 141.562 58.5644 142.822C58.4106 143.417 58.7655 144.12 59.2683 144.193C61.6356 144.545 62.3253 146.506 63.4172 148.161C66.1903 152.369 70.6137 149.419 70.3558 146.707C70.0967 143.92 72.3717 143.602 73.7783 142.421C74.177 142.091 74.8242 142.048 75.3672 141.909C76.6413 141.579 77.9285 140.212 79.037 140.738C81.2504 141.786 82.101 149.142 82.1401 149.284C82.5317 150.655 81.2575 151.021 80.5442 151.523C74.3509 155.89 72.2948 162.14 70.1973 166.716C65.7218 165.383 54.5208 149.614 51.9583 145.71L51.9559 145.708H51.9536ZM76.5656 160.291C79.6403 161.849 81.4681 164.273 83.361 166.612C88.5534 173.026 87.1538 172.595 104.27 165.789C112.85 162.375 102.863 150.648 103.177 148.589C111.683 149.678 119.257 152.89 125.953 158.253C128.721 160.468 126.708 180.106 147.907 203.686C150.205 206.243 149.589 205.383 134.822 223.384C123.014 237.777 123.552 237.377 122.295 238.173C121.225 237.675 121.965 238.237 118.443 219.631C117.695 215.677 118.797 211.847 119.019 207.963C119.199 204.772 120.217 201.923 122.081 199.289C123.231 197.662 125.668 192.31 125.546 190.318C125.432 188.463 123.646 188.567 123.174 189.839C122.412 191.899 121.812 194.03 120.313 196.502C120.007 193.875 118.786 181.029 115.966 181.708C113.688 182.258 116.319 186.164 116.907 190.707C118.836 205.646 113.081 207.774 116.513 226.378C118.177 235.408 119.133 236.048 116.459 236.917C104.139 240.913 87.7027 242.382 80.0745 241.323C76.7655 240.863 76.8128 240.934 76.2911 237.673C71.1058 205.254 65.0546 179.79 76.5668 160.292L76.5656 160.291ZM114.248 246.834C105.265 249.431 96.074 250.71 86.7563 250.397C78.4939 250.122 77.0069 250.383 76.8744 247.202C76.73 243.756 76.4946 243.613 79.8722 244.073C87.2709 245.083 105.122 243.596 117.21 239.383C117.694 239.215 118.277 238.776 118.749 239.296C119.385 239.993 119.805 241.113 119.325 241.765C117.909 243.695 116.861 246.082 114.249 246.836V246.834H114.248ZM128.48 260.12C135.352 263.507 127.778 268.763 122.95 276.622C121.145 279.561 118.301 278.161 106.679 275.666C105.069 275.322 104.836 274.615 105.211 273.102C107.089 265.524 110.457 258.675 115.133 252.048C119.447 255.312 123.872 257.849 128.48 260.12ZM53.3673 287.514C48.8528 286.778 47.1741 284.845 47.2167 280.408C48.8753 280.149 50.4499 280.894 52.0837 280.925C53.8701 280.958 53.4596 286.546 53.3673 287.514ZM68.2926 286.962C59.4588 287.431 56.442 289.251 56.1356 285.503C55.7819 281.193 55.7346 281.196 60.1225 281.148C69.0154 281.054 68.7279 279.972 69.5371 285.169C69.7075 286.267 69.5135 286.894 68.2937 286.961L68.2926 286.962ZM85.1557 285.527C81.5308 285.8 77.8788 285.992 74.2516 286.386C71.4004 286.694 72.0783 284.434 71.6879 282.486C71.1922 279.996 72.6769 280.843 82.8203 279.524C84.1181 279.354 84.6209 279.788 84.699 281.073C84.7866 282.498 85.3438 283.879 85.1521 285.529V285.527H85.1557ZM101.427 282.984C101.489 283.862 100.818 283.957 100.08 284.023C89.2111 285.029 88.2434 286.122 87.8258 283.067C87.2118 278.611 86.3387 279.158 91.0567 278.245L101.564 276.17C102.091 278.601 101.277 280.786 101.427 282.984ZM101.564 273.34C96.9743 275.719 47.1551 281.726 46.7304 275.767C45.6728 260.944 48.1986 262.524 69.8246 255.639C75.4086 253.863 72.7869 251.896 80.9334 252.741C98.3726 254.546 109.066 250.203 112.739 250.203C101.6 266.276 104.224 271.962 101.564 273.342V273.34ZM75.0359 384.055C77.4008 384.435 79.4948 385.438 81.7485 385.583C82.579 385.635 82.3862 385.774 83.3492 390.711C78.7424 390.588 76.3751 388.164 75.0371 384.053L75.0359 384.055ZM94.0237 389.434C86.0394 391.045 86.386 391.733 85.5555 387.808C85.0433 385.381 85.0433 385.37 87.491 384.81C89.0017 384.466 90.6958 383.581 91.9735 383.987C93.3399 384.421 93.0312 386.656 93.8333 387.95C94.0391 388.28 94.3964 388.658 94.0237 389.434ZM96.6288 387.442C96.1899 386.199 95.486 385.037 95.3949 383.397C98.5524 382.598 101.744 381.806 104.923 380.971C107.129 380.39 105.974 383.109 107.324 386.315C97.7077 388.49 97.2026 389.067 96.63 387.443L96.6288 387.442ZM117.278 384.905C109.531 386.146 110.126 386.276 109.485 383.626C108.406 379.188 108.225 379.807 116.122 378.329C116.907 378.183 117.36 378.462 117.543 379.29C118.458 383.465 119.596 384.532 117.279 384.902L117.278 384.905ZM128.552 382.391C121.306 384.272 121.044 384.293 120.257 378.681C120.044 377.191 120.686 377.328 125.041 376.304C128.072 375.592 127.984 375.469 129.414 380.453C129.674 381.732 129.323 382.19 128.552 382.391ZM134.662 380.727C131.08 381.894 132.907 379.316 130.398 375.221C132.39 374.074 134.542 374.011 136.664 373.255C139.686 379.6 138.782 379.389 134.662 380.727ZM148.89 373.982C149.022 376.252 143.593 378.052 141.463 378.433L139.653 372.582L148.711 368.775C149.461 370.673 148.794 372.331 148.891 373.982H148.89ZM146.938 366.275C140.509 369.667 135.312 371.09 110.612 376.603C89.6654 381.276 82.3235 384.493 75.6535 381.255C74.5438 380.717 73.8103 380.209 73.55 378.975C68.664 355.767 90.4723 353.72 104.351 341.883C106.97 339.648 104.761 343.589 117.468 345.992C136.515 349.593 147.65 343.981 148.788 343.625C149.369 364.698 150.237 364.536 146.938 366.275ZM105.918 330.828C120.181 335.192 134.516 335.28 149.015 330.868C149.015 336.261 149.831 339.865 145.374 341.694C135.058 345.928 104.597 345.546 105.888 334.408C106.019 333.314 105.388 332.227 105.919 330.83V330.828H105.918ZM219.017 235.633C200.112 249.516 196.633 253.266 178.977 265.518C159.222 279.221 152.253 280.887 151.094 288.785C150.091 295.613 148.969 322.171 148.986 325.262C148.995 327.029 148.324 327.759 146.696 328.355C140.13 330.758 125.36 332.717 110.577 329.366C105.774 328.277 105.512 328.666 105.536 324.06C105.65 300.638 103.926 285.142 104.717 278.32C108.318 279.472 112.004 279.582 115.55 280.715C120.688 282.356 123.891 280.838 126.927 276.24C129.853 271.809 131.96 270.377 133.509 266.185C136.393 258.371 128.893 257.511 122.097 253.338C116.651 249.994 116.494 249.98 120.667 245.148C143.325 218.92 155.237 197.961 167.726 198.969C174.861 199.545 182.055 200.015 188.835 202.425C201.115 206.789 211.149 214.077 217.523 225.779C218.656 227.859 219.135 230.182 220.027 232.338C220.663 233.875 220.291 234.701 219.022 235.633H219.017ZM222.796 232.895C221.941 229.846 221.327 227.293 220.199 224.916C214.437 212.783 199.541 200.181 178.537 197.325C176.492 197.047 176.922 197.061 175.818 196.343C191.974 194.775 206.762 191.103 220.822 203.957C229.255 211.666 226.375 217.896 227.225 223.18C227.884 227.284 225.42 229.775 222.792 232.892L222.794 232.894L222.796 232.895ZM279.234 260.54C277.447 260.11 279.452 257.292 267.442 243.319C266.721 242.479 266.326 242.176 265.505 242.656C263.564 243.787 275.304 255.768 276.623 263.382C277.253 267.019 272.724 266.774 271.988 264.68C270.09 259.296 267.964 254.433 261.416 246.554C260.733 245.733 259.983 244.345 258.785 245.197C257.388 246.191 258.83 247.203 259.411 247.989C279.068 274.584 265.037 272.624 263.282 267.916C262.857 266.773 262.668 259.906 253.184 249.722C252.458 248.941 251.452 247.305 250.213 248.56C247.699 251.102 261.119 257.788 260.657 271.019C260.555 273.913 257.803 274.937 256.392 272.029C251.374 261.694 238.153 242.917 231.57 252.429C228.655 256.639 224.19 262.018 219.67 261.345C221.333 254.142 223.989 247.812 228.327 242.227C230.334 239.645 231.202 236.464 232.545 233.472C241.974 237.234 251.306 235.848 260.638 233.614C264.85 232.606 264.746 231.877 266.278 235.21C268.98 241.082 286.265 257.938 279.236 260.534L279.234 260.538V260.54ZM266.199 223.15C266.395 226.805 266.925 228.599 263.149 229.865C253.972 232.939 243.392 234.542 234.279 231.285C229.208 229.471 230.185 227.519 229.037 203.709C228.667 196.021 237.543 178.216 233.796 177.548C232.092 177.246 232.498 178.978 232.292 179.948C231.159 185.313 229.28 190.442 227.498 195.863C221.905 191.787 231.536 191.716 211.987 151.338C207.973 143.045 205.801 135.99 208.038 125.397C212.225 105.588 224.982 94.5256 229.615 89.0623C231.328 87.0417 232.236 87.6935 239.44 96.1972C243.698 101.224 247.965 106.283 250.993 112.206C252.265 114.696 252.237 114.744 249.813 116.334C230.172 129.225 226.693 124.982 228.177 130.2C231.635 142.348 231.901 143.106 236.391 142.782C244.278 142.215 251.038 138.774 257.72 135.094C261.307 146.013 265.483 156.607 267.189 167.94C269.924 186.112 264.749 196.215 266.198 223.147L266.199 223.15ZM253.457 117.397C255.581 121.795 256.085 126.314 256.794 130.785C256.971 131.897 256.222 132.502 255.491 132.913C249.442 136.293 243.289 139.379 236.209 140.001C233.837 140.209 234.165 139.441 231.159 130.434C230.24 127.683 232.894 131.105 253.457 117.397ZM282.139 222.93C278.04 224.35 274.127 226.331 269.494 226.979C266.742 199.809 273.09 185.952 269.982 166.953C266.768 147.309 261.191 140.806 259.152 126.922C256.621 109.674 247.679 105.908 247.932 98.5669C248.048 95.2295 246.813 74.9439 245.921 70.8494C245.192 67.5002 244.388 66.8282 244.764 65.7729C245.288 64.3 270.9 51.1304 272.359 50.4478C281.925 72.8109 282.725 156.762 284.321 180.902C286.693 216.755 287.999 220.897 282.139 222.93Z" fill="#0A0430"/>
  <path d="M136.914 125.359C133.323 125.786 133.471 132.593 133.738 136.199C133.906 138.453 135.265 138.889 143.788 138.835C147.429 138.811 146.901 136.555 146.901 131.27C147.325 126.443 148.53 123.974 136.914 125.359ZM144.064 130.893C143.629 136.296 143.625 136.256 138.26 135.91C136.926 135.825 136.509 135.225 136.513 134.055C136.539 128.018 136.903 127.14 144.004 128.291C144.424 129.146 144.132 130.028 144.064 130.892V130.893Z" fill="#0A0430"/>
  <path d="M138.997 105.807C134.931 105.378 134.443 106.524 133.852 115.208C133.616 118.654 135.238 118.663 144.284 119.352C147.532 119.599 147.249 116.116 147.601 112.465C147.601 105.472 146.626 106.614 138.997 105.807ZM144.435 112.84C144.297 115.399 142.969 116.562 140.445 116.336C137.872 116.104 136.693 114.682 136.905 112.067C137.092 109.768 137.125 107.899 139.438 108.556C143.482 109.709 144.717 107.57 144.436 112.843L144.435 112.84Z" fill="#0A0430"/>
  <path d="M169.984 64.4002C164.36 45.6301 161.374 45.6963 163.312 44.5204C166.361 42.6725 171.853 59.991 172.551 63.5248C172.712 66.3664 170.59 66.4209 169.983 64.3979L169.984 64.4002Z" fill="#0A0430"/>
  <path d="M132.541 86.9368C127.166 84.6689 125.543 80.1864 124.858 74.3362C124.858 73.0242 124.683 71.6034 125.944 71.4661C129.288 71.1053 124.355 78.3148 133.834 84.6429C135.131 85.5112 134.194 87.636 132.541 86.9368Z" fill="#0A0430"/>
  <path d="M175.164 56.2177C173.894 50.3759 171.345 48.0417 172.948 47.1923C175.322 45.9371 177.125 53.3808 177.642 55.7717C177.872 57.6504 175.695 58.6654 175.164 56.2154V56.2177Z" fill="#0A0430"/>
  <path d="M271.008 62.1217C269.469 56.9009 266.62 61.9277 259.544 63.972C258.076 64.3967 257.661 65.5348 258.081 66.8799C259.858 72.5987 260.453 75.1754 263.591 74.2147C274.254 70.9531 274.219 73.0116 271.009 62.1217H271.007H271.008ZM264.234 71.2725C263.164 71.5813 262.523 71.3601 262.213 70.2859C261.298 67.1023 259.782 67.1685 263.881 65.1574C268.21 63.0326 267.487 63.2006 268.319 63.2834C271.765 70.6183 270.077 69.5879 264.234 71.2725Z" fill="#0A0430"/>
  <path d="M53.6901 108.218C53.9078 112.606 62.848 115.074 62.8575 108.688C62.8717 101.216 53.4239 102.71 53.6924 108.218H53.6901ZM58.7381 109.668C57.645 109.385 56.5436 108.99 56.6938 107.633C56.9647 105.164 60.2713 106.521 60.0927 108.78C59.9626 109.512 59.5497 109.881 58.7381 109.668Z" fill="#0A0430"/>
</svg>
