<svg width="240" height="242" viewBox="0 0 240 242" fill="none" xmlns="http://www.w3.org/2000/svg">
  <path d="M136.524 222.61C136.524 222.61 134.114 238.552 134.001 239.698C133.888 240.845 145.7 240.387 154.415 240.616C163.131 240.844 169.898 240.042 184.464 240.731C199.029 241.42 206.592 239.39 209.925 239.928C212.1 240.267 214.317 240.188 216.462 239.698C216.462 239.698 212.219 217.334 212.333 215.725C212.447 214.115 159.692 190.838 151.894 195.655C144.095 200.473 136.524 222.61 136.524 222.61Z" fill="#3B3C3F"/>
  <path d="M51.9184 164.238C51.1165 165.041 50.1015 165.598 48.9933 165.843C48.5411 164.817 48.5056 163.656 48.8944 162.605L51.9184 164.238Z" fill="white"/>
  <path d="M47.5009 162.831V165.736H18.1628C17.5286 164.007 18.3265 162.692 19.931 162.684C24.9059 162.641 29.7223 162.831 47.5009 162.831Z" fill="white"/>
  <path d="M2.33554 166.536C145.382 168.265 127.323 164.949 133.611 170.133C131.911 172.711 136.147 172.51 103.958 172.014C94.6005 171.871 50.8781 172.449 20.7599 172.049C5.02086 171.839 3.63571 172.159 1.35249 171.994C1.35756 165.614 1.03157 166.523 2.33554 166.536Z" fill="white"/>
  <path d="M103.187 57.3666C102.582 39.8619 86.2062 28.3887 70.518 31.022C63.6545 32.2145 57.4732 35.8998 53.1605 41.3706C48.8478 46.8414 46.7075 53.7123 47.1505 60.6646C48.6422 81.0994 70.4901 92.4673 87.4557 83.7504C73.0219 58.413 67.6513 49.4298 67.2099 48.5698C66.0952 46.8758 64.7002 45.384 63.0848 44.1581C62.2641 43.4592 63.251 42.8415 64.5486 42.0347C64.9457 41.7887 65.3313 41.4094 65.5634 41.6542C66.0479 42.7451 66.464 43.8664 66.809 45.0093C68.2335 48.2755 70.3239 51.0053 74.6836 57.3539C76.1144 59.4303 88.6214 78.3456 91.0162 81.8135C99.2422 75.6615 103.54 67.584 103.187 57.3666Z" fill="#FFF2B7"/>
  <path d="M171.134 185.389C175.136 188.408 174.708 187.998 174.686 188.334C171.417 189.417 172.667 189.614 169.195 187.691L171.134 185.389Z" fill="#00703F"/>
  <path d="M188.916 170.215C189.893 172.625 187.647 173.614 187.013 171.765C187.659 171.236 188.256 170.753 188.916 170.215Z" fill="#00703F"/>
  <path d="M184.655 170.766C185.433 172.161 185.811 173.81 187.795 174.317C187.041 175.116 181.792 180.78 179.822 182.991C179.019 183.893 179.071 183.599 175.3 181.215L184.655 170.766Z" fill="#00703F"/>
  <path d="M183.628 169.842L173.861 180.632C172.449 179.437 170.926 178.38 169.313 177.476C169.072 177.375 168.81 177.333 168.549 177.352C168.289 177.372 168.037 177.453 167.813 177.589C167.591 177.726 167.404 177.913 167.267 178.135C167.131 178.359 167.05 178.611 167.029 178.871C166.783 181.472 168.12 182.578 169.925 184.659C167.008 187.781 168.828 186.742 165.438 183.48C160.987 179.198 160.852 176.551 157.223 175.899C155.681 175.621 153.917 176.804 154.596 178.28C154.992 179.141 154.544 178.51 153.545 177.962C149.827 175.923 147.632 178.181 148.426 179.948C148.576 180.282 148.752 180.605 148.976 181.049C148.477 181.037 147.986 181.167 147.559 181.424C147.132 181.681 146.787 182.055 146.565 182.502C141.867 179.661 136.961 177.181 131.888 175.081L150.258 149.873C162.089 155.269 173.282 161.967 183.628 169.842Z" fill="#00703F"/>
  <path d="M194.609 179.144C196.395 183.379 198.668 189.728 197.886 194.26C197.771 194.92 194.728 196.212 193.954 196.406C193.18 196.601 193.688 196.669 190.12 198.246C189.195 192.264 190.013 195.171 187.093 185.263C186.973 184.856 186.897 184.792 183.996 180.341C185.517 178.437 187.303 176.758 189.298 175.356C190.727 174.239 193.973 177.633 194.609 179.144ZM194.718 192.637C194.693 192.257 194.519 191.903 194.234 191.651C193.949 191.399 193.575 191.271 193.196 191.293C193.008 191.305 192.824 191.354 192.654 191.437C192.485 191.52 192.334 191.635 192.209 191.776C192.085 191.918 191.989 192.082 191.928 192.261C191.867 192.439 191.842 192.627 191.854 192.815C191.855 193.011 191.896 193.204 191.974 193.383C192.053 193.562 192.167 193.723 192.31 193.856C192.452 193.99 192.621 194.092 192.805 194.158C192.989 194.224 193.184 194.252 193.379 194.24C193.574 194.228 193.765 194.176 193.939 194.088C194.113 193.999 194.267 193.876 194.393 193.726C194.518 193.576 194.611 193.402 194.666 193.215C194.722 193.027 194.738 192.831 194.715 192.637H194.718Z" fill="white"/>
  <path d="M99.7527 96.2894C96.0552 94.6404 95.6581 94.8142 94.8413 93.4988C94.5685 93.0599 73.6213 58.1215 73.6022 58.0898C73.27 57.5336 72.9698 56.9589 72.7029 56.3685C72.6433 56.1973 72.6357 56.1237 72.6927 56.092C72.9464 55.955 72.3845 54.8756 83.566 72.6124C90.0693 82.9211 99.8364 96.1372 99.7527 96.2894Z" fill="#3B3C3F"/>
  <path d="M108.348 109.05C108.951 109.826 108.929 110.391 108.117 110.903C104.946 112.901 104.635 111.889 104.247 110.717C104.477 110.425 104.616 110.071 104.647 109.701C104.677 109.33 104.597 108.958 104.417 108.633C103.783 107.472 101.451 107.446 101.729 106.426C102.044 105.273 101.207 104.668 100.166 104.055C101.481 102.5 100.902 101.568 99.98 100.411C102.621 99.8729 99.9432 100.558 105.248 105.009C105.767 105.444 106.422 106.568 108.348 109.05Z" fill="#3B3C3F"/>
  <path d="M121.465 115.926C124.342 118.378 123.838 118.804 120.719 122.868C120.288 123.43 117.336 126.567 117.014 126.896C113.564 130.413 113.196 130.868 111.78 131.407C107.448 133.056 106.833 133.224 105.834 132.344C103.316 130.124 102.878 127.846 101.378 126.336C101.01 126.011 100.762 125.572 100.673 125.089C100.584 124.606 100.659 124.108 100.885 123.672C101.503 122.221 105.106 115.808 105.645 116.75C106.337 117.966 106.018 116.969 103.948 120.095C103.046 121.456 101.456 123.795 102.527 124.915C102.786 125.236 103.14 125.465 103.538 125.571C103.936 125.676 104.357 125.652 104.74 125.503C105.583 125.207 106.347 124.722 106.972 124.083C108.588 122.115 109.689 122.47 112.264 119.837C116.496 115.51 117.728 114.059 117.416 111.954C117.237 110.748 116.408 110.248 114.743 110.888L114.223 109.936C115.918 109.085 117.856 109.246 118.48 111.458C119.305 113.054 120.307 114.553 121.465 115.926ZM107.892 130.485C108.091 130.48 108.285 130.432 108.463 130.344C108.641 130.256 108.798 130.131 108.923 129.977C109.048 129.823 109.138 129.644 109.187 129.452C109.236 129.26 109.243 129.059 109.208 128.864C109.172 128.669 109.095 128.484 108.981 128.322C108.867 128.159 108.72 128.024 108.549 127.924C108.377 127.823 108.187 127.762 107.989 127.742C107.792 127.723 107.593 127.747 107.405 127.811C107.228 127.872 107.066 127.968 106.927 128.093C106.788 128.219 106.677 128.371 106.599 128.541C106.5 128.754 106.458 128.988 106.477 129.222C106.495 129.456 106.573 129.681 106.703 129.876C106.833 130.071 107.011 130.229 107.22 130.336C107.429 130.442 107.662 130.493 107.896 130.484L107.892 130.485Z" fill="white"/>
  <path d="M157.042 59.8594C157.248 61.0574 157.064 62.2898 156.517 63.3755C156.515 60.094 156.375 60.2665 157.042 59.8594Z" fill="#FDE6B9"/>
  <path d="M147.338 58.5117C147.527 61.0659 147.527 63.6305 147.338 66.1846C145.851 64.5686 145.777 60.1379 147.338 58.5117Z" fill="white"/>
  <path d="M226.991 158.387C227.626 178.198 227.366 173.073 201.081 187.608C199.041 188.736 199.401 189.285 199.146 187.625C198.754 185.073 196.877 179.195 195.289 177.141C192.201 173.148 190.349 174.29 192.486 172.745C196.4 169.913 214.12 159.035 219.917 157.108C221.041 156.734 221.282 155.676 219.917 153.347C218.947 151.698 217.839 152.378 216.045 153.016C216.155 152.382 216.226 151.742 216.254 151.098C216.31 149.386 215.135 149.443 214.529 149.801C210.962 151.898 210.645 152.052 208.679 153.266C208.679 148.299 208.877 148.13 208.537 147.922C207.877 147.515 207.639 147.871 207.15 148.2C197.757 154.509 198.423 154.968 196.503 156.312C195.841 153.056 195.631 152.104 195.499 151.078C195.283 149.404 195.96 146.179 195.097 143.798C194.293 141.581 192.843 140.044 193.068 135.338C193.342 129.481 193.508 129.182 193.356 128.945C192.817 128.105 192.298 128.798 192.274 128.961C191.671 133.071 190.842 138.82 193.112 142.898C194.988 146.269 193.313 147.77 194.507 153.955C195.22 157.633 195.269 157.83 194.941 158.268C191.344 163.088 189.812 164.429 189.049 167.824C188.869 168.626 187.591 169.548 186.548 170.436C183.852 160.513 177.534 154.537 169.587 146.874C174.902 138.406 173.828 138.85 180.116 130.93C188.524 120.333 192.382 118.431 190.862 115.809C187.539 110.069 187.975 111.003 187.134 110.059C188.9 108.943 187.617 109.959 195.653 103.97C198.301 101.996 194.344 95.9688 195.3 96.5624C196.731 97.255 198.03 98.1911 199.14 99.3289C202.169 103.081 202.973 101.813 206.956 103.526C214.727 106.867 212.292 105.856 215.284 119.359C216.029 122.728 216.787 122.157 218.155 126.407C222.161 138.838 220.4 132.603 221.632 140.391C223.274 150.823 226.78 151.844 226.991 158.387Z" fill="url(#paint0_linear_3901_17126)"/>
  <path d="M218.055 153.521C218.681 153.259 219.273 154.712 219.59 155.983C210.541 159.565 199.91 166.491 190.729 172.533C190.61 172.137 190.613 171.715 190.738 171.322C190.863 170.928 191.103 170.581 191.428 170.326C194.58 168.021 203.238 159.749 218.055 153.521Z" fill="white"/>
  <path d="M213.587 202.156C216.481 209.356 219.182 215.749 218.153 216.812C213.811 221.325 202.122 225.403 196.261 227.613C191.383 229.449 182.408 233.945 175.11 233.288C166.866 232.544 165.039 234.566 163.98 232.286C162.965 230.105 162.064 224.527 159.884 212.157C158.25 202.889 157.974 202.875 157.038 200.511C156.6 198.622 156.44 196.68 156.563 194.746C160.073 198.505 160.384 199.492 173.744 198.27C177.072 197.965 179.638 198.427 185.861 195.889C186.381 195.677 186.194 195.536 186.827 196.995C187.079 197.827 187.616 198.545 188.344 199.02C189.073 199.496 189.945 199.699 190.809 199.594C191.381 199.524 191.929 199.321 192.408 199C196.155 197.009 198.859 196.971 199.311 194.356C199.8 191.531 199.011 190.608 200.045 190.044C205.938 186.833 205.982 186.416 206.539 187.314C210.537 193.744 209.985 193.199 213.587 202.156Z" fill="#FFD200"/>
  <path d="M215.097 151.169C215.073 152.289 214.976 153.198 214.474 153.616C213.7 154.25 211.395 155.125 205.908 158.388C202.207 160.587 196.372 165.209 194.546 166.309C194.885 165.35 206.389 155.332 214.782 150.975C214.832 150.949 214.89 150.944 214.944 150.961C214.997 150.977 215.043 151.013 215.07 151.062C215.088 151.095 215.097 151.132 215.097 151.169Z" fill="white"/>
  <path d="M207.324 149.51C207.713 149.231 207.762 149.114 207.484 153.804C201.415 158.326 195.066 163.24 189.99 169.186C190.056 167.547 190.63 165.968 191.632 164.669C197.22 156.261 200.366 154.509 207.324 149.51Z" fill="white"/>
  <path d="M199.858 49.8457C200.746 56.9173 194.901 58.9786 197.281 64.1107C198.113 65.9753 198.622 67.9683 198.784 70.004C198.841 71.4886 198.574 72.9679 198.004 74.3396C197.163 76.7496 192.984 81.6966 188.998 82.0378C188.08 82.1165 187.255 82.4184 186.832 82.4399C185.726 82.4907 185.736 81.7943 184.602 80.007C185.584 79.8979 186.492 79.4329 187.154 78.7C187.816 77.967 188.187 77.0169 188.196 76.0291C188.202 75.3746 188.05 74.7282 187.752 74.1455C188.677 72.7105 189.51 71.2184 190.246 69.678C192.079 65.1597 190.172 59.987 185.535 60.4918C182.92 60.7772 182.963 61.9848 182.181 61.9747C172.287 61.1197 176.043 61.5358 173.629 61.3011C173.398 59.7811 173.619 58.2269 174.263 56.8311C175.278 54.832 179.749 48.7789 173.552 44.5448C169.366 41.687 165.852 42.207 163.727 39.7741C162.205 38.0262 162.853 36.9531 162.436 36.0791C162.383 35.9601 162.292 35.862 162.177 35.8003C162.063 35.7385 161.931 35.7166 161.802 35.7379C161.674 35.7592 161.556 35.8226 161.467 35.9181C161.378 36.0136 161.324 36.1358 161.312 36.2656C161.416 37.1032 161.269 37.9529 160.89 38.707C160.511 39.461 159.916 40.0854 159.181 40.501C153.529 43.3766 149.745 43.9588 148.544 49.3142C147.794 52.6617 147.827 55.4028 146.889 56.566C144.518 59.5088 144.276 64.9378 146.818 67.8654C146.981 68.0543 147.096 68.2797 147.154 68.5226C147.211 68.7654 147.209 69.0186 147.149 69.2607C146.625 72.421 147.042 75.6657 148.35 78.5902C148.984 79.7762 146.977 80.2747 146.91 82.4374C146.866 83.8428 147.527 84.5088 149.275 86.2428C151.909 88.8634 149.545 91.7935 148.288 94.6272C146.228 99.2673 152.559 99.2178 150.951 105.059C150.773 105.737 150.434 106.362 149.963 106.881C149.492 107.4 148.904 107.799 148.247 108.044C149.24 103.758 147.326 103.321 144.558 101.038C139.275 96.6783 142.856 93.648 143.686 91.7364C144.114 90.656 144.166 89.4628 143.833 88.3493C143.5 87.2357 142.802 86.2667 141.852 85.5984C139.688 83.905 137.875 80.7389 139.435 78.4811C140.734 76.5987 142.304 75.041 140.307 71.4386C138.815 68.7482 136.248 65.0075 139.6 61.1908C141.647 58.8606 143.556 57.8649 143.391 55.5017C143.199 52.7378 138.516 51.5923 141.576 45.7067C142.095 44.8033 142.803 44.0232 143.652 43.4203C144.502 42.8174 145.472 42.4061 146.495 42.2147C147.447 41.9571 148.292 41.403 148.908 40.6328C149.524 39.8626 149.878 38.9163 149.92 37.9311C149.988 36.2233 150.624 34.587 151.727 33.2813C152.83 31.9756 154.336 31.0751 156.009 30.7224C157.118 30.4892 158.266 30.5048 159.369 30.7681C161.652 31.3376 161.733 33.2632 162.692 33.305C163.565 33.3405 163.187 31.0789 166.343 30.1605C167.415 29.7957 168.545 29.6335 169.676 29.6823C171.016 29.8222 172.283 30.3582 173.317 31.2217C174.35 32.0852 175.103 33.2371 175.478 34.5303C176.428 38.0173 177.602 39.0105 179.596 39.5826C180.667 39.9561 181.638 40.5696 182.435 41.3763C183.232 42.1829 183.834 43.1614 184.195 44.2366C184.554 45.3122 184.662 46.4557 184.512 47.5796C184.361 48.7035 183.955 49.778 183.325 50.7209C180.027 55.4738 183.244 59.127 183.771 56.7233C183.898 56.1157 182.376 54.6633 184.068 52.5285C185.489 50.705 186.203 48.4304 186.081 46.1224C185.959 43.8143 185.008 41.6278 183.404 39.9644C181.262 37.5937 178.661 38.4841 177.597 35.7417C183.305 30.659 190.473 35.8483 192.828 43.8941C194.183 48.5189 190.291 54.7838 192.194 54.9905C192.361 55.0088 192.53 54.9721 192.674 54.886C192.818 54.8 192.931 54.6693 192.994 54.5136C193.036 54.4103 193.055 54.299 193.049 54.1876C193.135 52.1086 194.262 50.3036 194.553 48.2906C195.246 43.5186 193.503 42.2159 193.919 41.6946C197.241 43.7279 199.367 45.9122 199.858 49.8457Z" fill="#3B3C3F"/>
  <path d="M192.971 95.0256C194.214 97.806 196.284 101.826 194.28 103.189C190.588 105.701 192.767 104.438 186.289 108.739C185.984 108.903 185.75 109.173 185.63 109.497C185.51 109.822 185.513 110.179 185.637 110.502L185.033 110.607C184.531 109.587 184.251 108.471 184.21 107.335C184.169 106.198 184.368 105.066 184.794 104.011C186.128 100.451 188.044 99.1557 189.852 91.5703C191.172 92.4335 192.247 93.6239 192.971 95.0256Z" fill="white"/>
  <path d="M189.471 116.318C190.774 118.638 185.805 117.697 168.659 145.689C168.359 146.18 168.495 146.038 166.388 144.71C164.65 143.614 164.104 145.034 162.052 147.604C159.85 150.363 165.359 135.427 165.844 134.018C172.353 115.129 176.344 109.905 177.988 106.967C182.728 114.331 185.979 113.47 185.631 112.193C185.476 111.649 185.277 111.12 185.035 110.609L185.639 110.503C185.72 110.681 185.836 110.843 185.976 110.979C187.395 112.579 188.572 114.378 189.471 116.318Z" fill="#FFD200"/>
  <path d="M184.231 62.5096C188.072 60.2111 191.295 65.9192 188.007 70.6759C186.897 72.2805 186.636 72.7333 186.121 72.5316C184.058 71.7211 183.272 72.765 182.526 72.968C181.336 73.2902 181.576 70.2738 181.913 69.0624C182.095 67.8941 182.182 66.7132 182.176 65.531C182.209 65.1974 182.303 64.874 182.352 64.5454C182.761 63.6942 183.415 62.985 184.231 62.5096Z" fill="#FDE6B9"/>
  <path d="M187.717 192.98C187.765 193.192 187.797 193.406 187.815 193.623C184.543 194.746 181.434 196.252 177.958 196.504C159.357 197.855 163.443 199.518 153.096 188.65C151.599 187.04 150.126 185.408 148.677 183.755C147.889 182.847 148.296 182.119 149.488 182.566C154.109 184.309 153.332 187.26 157.67 190.771C158.648 191.561 159.519 194.093 162.037 195.053C163.769 195.714 163.832 194.284 162.753 193.911C161.594 193.395 160.616 192.544 159.943 191.468C156.587 187.176 157.681 189.583 154.903 185.262C152.299 181.21 147.969 178.993 150.56 178.717C152.502 178.508 153.731 179.604 157.86 184.087C165.378 192.26 163.285 192.162 166.576 194.25C167.272 194.693 167.59 194.556 167.934 193.664C163.445 189.118 159.522 184.047 156.249 178.56C155.634 177.41 156.603 177.215 157.071 177.307C158.308 177.668 159.379 178.451 160.098 179.521C161.403 181.347 162.891 183.037 164.537 184.563C166.219 186.32 166.737 188.201 168.977 189.15C172.625 190.696 173.975 192.091 174.009 190.076C174.897 189.788 175.767 189.449 176.616 189.061C176.794 188.951 176.922 188.775 176.972 188.572C177.021 188.368 176.988 188.153 176.879 187.974C176.657 187.61 172.876 184.822 172.177 184.331C170.074 182.857 167.801 179.891 168.796 179.13C169.22 178.803 171.085 180.386 173.315 182.059C173.594 182.268 175.962 183.504 177.635 184.496C178.123 184.779 178.663 184.959 179.224 185.023C179.784 185.087 180.351 185.035 180.89 184.869C181.96 184.755 183.038 184.743 184.11 184.832C185.367 184.284 185.434 185.127 187.717 192.98Z" fill="#FDE6B9"/>
  <path d="M182.959 79.8465C186.971 85.9579 190.155 88.7713 187.113 95.9039C183.815 103.641 182.096 104.495 183.181 110.736C181.273 109.447 179.826 107.584 179.049 105.416C176.939 99.4226 184.25 93.9923 180.452 88.4758C177.327 83.9385 174.972 83.955 174.517 79.4304C174.281 77.0952 175.543 76.3062 177.181 73.1693C179.62 68.4849 173.454 63.7155 174.039 62.6855L181.349 63.2259C180.351 65.499 181.074 66.425 180.623 68.991C179.779 73.8112 181.625 73.7389 181.384 74.798C180.341 78.1518 182.501 79.1501 182.959 79.8465Z" fill="#3B3C3F"/>
  <path d="M186.768 76.2817C186.761 76.7325 186.615 77.1701 186.349 77.5342C186.083 77.8982 185.71 78.1706 185.283 78.3139C184.855 78.4572 184.394 78.4642 183.962 78.334C183.531 78.2038 183.15 77.9427 182.873 77.587C182.578 77.0868 182.443 76.5076 182.489 75.9283C182.534 75.3491 182.757 74.7979 183.127 74.3499C183.429 74.085 183.79 73.8965 184.18 73.8001C184.57 73.7036 184.978 73.7021 185.368 73.7956C185.845 73.9951 186.242 74.348 186.495 74.7984C186.748 75.2487 186.844 75.7707 186.768 76.2817Z" fill="#FFD200"/>
  <path d="M183.96 166.559C183.205 167.008 184.475 165.009 162.171 149.869C164.975 145.762 165.067 145.615 166.015 146.178C170.262 148.696 175.849 154.569 179.642 159.37C181.459 161.518 182.917 163.946 183.96 166.559Z" fill="white"/>
  <path d="M182.303 166.975C180.722 165.802 179.349 165.144 177.855 164.114C170.194 158.916 162.203 154.222 153.933 150.061C154.282 149.166 154.85 148.004 155.615 148.101C160.595 149.197 183.073 166.016 182.303 166.975Z" fill="white"/>
  <path d="M177.444 87.1307C179.779 89.6295 180.46 92.018 179.619 92.8057C178.216 94.1199 177.843 94.0222 173.035 95.604C166.625 97.7134 168.737 96.6783 168.162 104.906C168.022 106.916 169.718 111.436 164.484 114.643C164.457 113.159 163.356 111.83 164.116 110.331C167.639 103.39 167.6 107.643 165.953 93.1673C165.811 91.9191 172.676 86.7856 171.883 85.3662C171.109 83.9811 168.882 88.1137 160.024 89.1361C159.099 89.2856 158.15 89.1623 157.294 88.7811C156.438 88.3999 155.712 87.7774 155.204 86.9899C149.047 77.6299 147.928 75.4051 148.666 69.4116C153.507 71.0111 155.431 66.3952 154.708 68.1774C154.431 68.6733 154.34 69.2518 154.452 69.8087C154.563 70.3657 154.87 70.8645 155.317 71.2154C155.614 71.4462 155.961 71.6048 156.332 71.6758C157.004 71.854 157.696 71.9469 158.392 71.9523C158.506 71.9713 158.623 71.9645 158.735 71.9323C158.847 71.9002 158.95 71.8435 159.037 71.7664C159.124 71.6894 159.192 71.5938 159.237 71.4869C159.283 71.3799 159.304 71.2642 159.298 71.1481C159.382 69.8873 154.784 71.0555 156.089 68.5097C157.613 65.8515 158.424 62.8452 158.446 59.7815C159.978 60.5489 158.991 59.7003 159.326 63.1708C159.877 68.8789 165.391 71.242 168.773 67.963C171.868 64.9644 170.111 63.186 172.36 62.8714C172.983 65.4807 176.183 67.8476 176.272 70.4961C176.367 73.2944 173.277 74.734 172.988 78.8312C172.679 83.0716 176.844 86.485 177.444 87.1307Z" fill="#FDE6B9"/>
  <path d="M172.391 45.4157C173.449 46.0326 174.276 46.9788 174.746 48.1098C175.216 49.2408 175.302 50.4945 174.993 51.6794C173.724 55.4112 171.876 56.3181 172.118 60.8338C172.149 61.397 171.962 61.652 171.395 61.6647C171.322 61.0444 171.281 60.4165 171.167 59.8076C169.951 53.3474 163.651 52.6523 161.035 56.3828C160.527 57.1084 160.134 57.9126 159.653 58.7409C159.133 58.3964 158.526 58.2079 157.902 58.1975C157.279 58.1872 156.665 58.3555 156.135 58.6825C154.983 55.9287 153.157 54.2214 150.014 54.5309C150.07 53.4857 151.208 53.1609 152.086 53.2282C153.528 53.3372 154.841 54.1364 155.257 53.0074C155.883 51.3014 153.292 50.5822 151.242 51.4726C150.569 51.8113 149.918 52.1931 149.292 52.6142C149.409 51.0451 149.801 49.509 150.448 48.0757C150.789 47.1606 151.336 46.336 152.046 45.6654C152.756 44.9949 153.611 44.4963 154.544 44.2082C160.728 41.4252 161.111 40.8975 161.826 39.5605C164.282 43.2771 166.527 42.2268 172.391 45.4157Z" fill="#FDE6B9"/>
  <path d="M169.968 61.6136C170.014 67.068 164.088 70.4624 161.47 65.6118C160.5 64.043 160.187 62.1553 160.598 60.3575C161.01 58.5596 162.113 56.9962 163.669 56.0058C166.595 54.4684 169.93 57.0307 169.968 61.6136ZM164.09 63.1358C164.965 63.2867 164.939 61.0022 164.75 60.5583C164.421 59.7883 163.363 59.5841 163.261 60.4225C163.065 62.0005 163.021 62.9468 164.09 63.1294V63.1358Z" fill="#FDE6B9"/>
  <path d="M167.613 74.5312C167.156 75.6196 166.725 76.491 165.561 76.7625C162.655 77.4347 159.788 78.3328 156.747 78.1438C155.733 78.0804 155.521 77.8977 155.072 76.5418C159.353 76.8876 163.654 76.198 167.613 74.5312Z" fill="white"/>
  <path d="M179.439 94.7251C170.56 98.7195 169.451 96.4655 169.69 100.48C169.903 104.076 169.309 103.778 169.719 107.904C170.043 111.134 167.57 114.187 166.07 115.338C162.661 117.952 164.34 119.348 162.791 126.246C162.172 129.006 160.44 130.638 160.665 132.685C160.981 135.562 159.82 136.435 159.461 139.488C159.191 141.791 159.635 140.883 158.841 141.771C158.637 141.584 158.256 141.398 158.255 141.21C158.072 139.955 158.158 138.675 158.508 137.456C160.709 132.374 158.143 133.159 160.453 128.971C162.907 124.522 161.796 120.569 162.99 117.197C163.773 114.98 163.063 115.277 162.622 112.607C161.852 107.949 166.211 106.358 165.581 102.966C165.481 102.427 165.413 101.853 165.286 101.317C165.204 100.908 165.048 100.518 164.827 100.164C164.394 99.6552 164.146 99.0149 164.123 98.3471C164.1 97.6793 164.303 97.0234 164.7 96.4858C165.198 95.7805 164.867 95.1374 164.683 94.4258C163.008 95.0423 162.621 95.5674 161.184 99.9271C160.549 101.83 159.535 105.592 161.659 106.599C161.927 105.863 161.568 106.923 163.435 101.457C163.704 100.67 164.45 100.807 164.544 101.359C164.567 101.519 164.546 101.683 164.484 101.832C161.929 108.15 164.063 107.004 160.95 108.007C160.426 107.174 156.365 131.25 156.365 147.011L159.901 148.759C160.916 144.993 161.196 143.119 161.998 140.566C163.43 135.999 169.85 119.036 174.868 109.923C175.748 108.326 175.795 108.692 174.7 108.827C170.625 109.334 173.305 103.845 171.783 100.697C170.182 102.993 169.667 99.8155 171.41 99.5554C174.283 99.1356 173.758 103.026 173.727 106.192C173.705 108.665 178.083 107.219 177.454 104.695C176.47 100.746 178.753 97.9445 179.439 94.7251Z" fill="white"/>
  <path d="M154.517 101.276C155.567 100.192 160.435 94.6995 161.388 95.5354C160.337 98.3083 157.923 103.26 159.717 106.674C160.478 108.135 157.274 106.848 154.932 145.938C154.871 146.952 155.04 145.66 152.738 149.438C149.701 148.327 150.445 147.481 146.045 153.287C140.418 160.714 141.079 160.309 140.782 160.165C140.203 154.814 139.903 149.437 139.884 144.055C139.924 141.686 141.387 136.159 142.07 132.431C142.383 128.739 142.945 125.071 143.752 121.455C144.318 118.434 144.196 119.426 144.132 118.352C143.118 118.005 143.064 117.532 141.135 127.898C140.532 131.13 141.623 129.238 139.284 138.577C137.443 145.934 138.895 153.15 139.296 157.501C139.423 158.925 139.303 161.059 139.387 161.211C140.171 162.628 138.296 163.58 134.802 168.6C131.893 167.084 132.653 167.683 130.816 165.682C124.363 158.668 123.437 157.959 122.094 155.376C120.014 151.377 117.077 151.587 116.803 146.511C116.693 144.481 116.333 142.936 114.69 142.013C111.251 140.077 110.504 137.573 108.917 134.129C112.977 132.516 113.008 133.176 115.88 130.291C124.776 121.36 120.298 125.125 124.163 120.905C128.367 122.951 125.963 125.966 129.767 128.029C131.543 128.993 131.61 129.662 133.207 132.86C130.619 135.805 131.901 133.782 127.3 141.597C126.433 143.328 126.146 145.292 126.481 147.198C126.521 147.33 126.593 147.45 126.69 147.548C126.787 147.645 126.906 147.718 127.037 147.76C128.036 147.976 127.379 145.858 127.925 143.846C128.15 143.023 132.374 136.085 132.808 135.371C133.2 135.521 133.442 134.457 131.285 145.19C130.826 147.474 130.313 147.427 130.84 150.293C130.869 150.451 131.567 151.226 132.01 150.12C131.987 149.36 132.008 148.601 132.073 147.844C133.849 138.638 134.138 138.204 134.393 136.509C135.391 129.903 135.003 128.151 136.669 125.236C138.632 121.803 138.616 118.35 139.401 113.917C140.035 110.333 146.181 106.01 146.951 105.642C147.084 106.083 147.099 106.55 146.995 106.998C146.891 107.446 146.671 107.858 146.357 108.195C144.656 110.496 148.767 110.822 151.441 107.508C155.801 110.614 155.323 109.833 153.749 110.473C151.797 111.379 149.957 112.507 148.265 113.835C147.553 114.282 146.98 114.918 146.607 115.671C146.235 116.424 146.079 117.266 146.157 118.103C146.242 119.929 147.383 146.787 149.201 146.516C151.321 146.194 147.451 138.082 147.593 117.287C147.604 115.666 151.744 113.101 152.953 112.557C159.803 109.506 156.251 109.842 152.987 106.9C152.766 106.655 152.605 106.362 152.517 106.044C152.429 105.726 152.416 105.392 152.48 105.068C152.547 104.331 152.762 103.616 153.112 102.965C153.462 102.313 153.94 101.739 154.517 101.276Z" fill="#FFD200"/>
  <path d="M158.64 82.8744C159.264 82.1573 160.031 81.5775 160.89 81.1719C161.75 80.7662 162.685 80.5434 163.635 80.5176C162.527 82.5636 160.067 84.6883 158.64 82.8744Z" fill="#C72527"/>
  <path d="M149.45 56.2553C151.955 54.9717 155.34 57.1826 155.333 62.3744C155.333 65.7776 152.252 69.3255 149.3 68.0583C148.635 67.7729 148.742 67.8681 148.884 64.5066C149.221 56.6105 147.908 57.043 149.45 56.2553ZM152.884 61.4129C152.871 61.0577 152.815 60.7025 152.719 60.3601C152.667 60.2355 152.582 60.1276 152.472 60.0482C152.363 59.9688 152.234 59.921 152.1 59.9099C151.965 59.8987 151.83 59.9248 151.709 59.9852C151.589 60.0455 151.487 60.1379 151.415 60.2522C150.407 62.3465 152.395 64.7971 152.884 61.4129Z" fill="#FDE6B9"/>
  <path d="M150.932 188.673C153.895 191.831 155.498 192.245 155.26 195.87C155.078 198.661 155.871 200.287 154.321 205.778C151.594 215.442 151.023 228.828 150.696 230.793C150.547 231.681 150.144 232.073 149.271 231.958C143.866 231.243 137.064 227.039 132.799 223.116C132.492 222.847 132.263 222.5 132.133 222.113C132.003 221.726 131.978 221.311 132.061 220.911C133.317 199.403 140.981 184.422 141.507 181.293C148.57 184.911 146.408 183.853 150.932 188.673Z" fill="#FFD200"/>
  <path d="M113.513 110.951C114.693 113.234 115.662 113.949 114.921 114.746C106.955 123.314 111.611 120.415 105.168 114.619C104.783 114.275 101.866 112.961 100.804 110.994C102.763 110.994 102.669 110.913 102.961 111.306C103.453 111.965 104.116 113.475 105.532 113.356C106.339 113.297 107.125 113.078 107.846 112.711C108.567 112.344 109.208 111.837 109.73 111.22C110.021 110.918 110.201 110.526 110.239 110.109C110.276 109.692 110.17 109.274 109.938 108.925C108.182 106.454 106.194 104.157 103.999 102.065C101.602 99.655 101.927 97.7802 100.313 94.6916C99.1793 92.5225 94.7537 87.715 95.5122 86.4961C95.8458 85.9608 96.4001 86.4238 96.5714 86.609C98.1344 88.4663 99.8183 90.2185 101.612 91.854C108.038 96.4801 110.991 106.057 113.513 110.951Z" fill="#FDE6B9"/>
  <path d="M103.249 109.455C103.403 110.65 94.9308 109.281 96.307 107.637C96.3957 107.533 96.5077 107.452 96.6338 107.4C96.76 107.349 96.8967 107.328 97.0326 107.339C99.3919 107.955 103.074 108.109 103.249 109.455Z" fill="#FDE6B9"/>
  <path d="M99.5993 106.616C98.0772 106.425 94.1069 105.496 93.5412 104.071C93.2291 103.284 94.2287 102.626 94.7094 102.852C95.2853 103.121 98.3879 104.411 100.202 105.305C100.356 105.396 100.471 105.542 100.525 105.713C100.579 105.884 100.567 106.069 100.492 106.232C100.417 106.395 100.284 106.525 100.119 106.596C99.9545 106.667 99.7692 106.674 99.5993 106.616Z" fill="#FDE6B9"/>
  <path d="M100.434 98.9282C100.666 99.6893 99.0834 99.2326 97.9621 98.9282C96.0415 98.3984 94.2053 97.6003 92.5077 96.5575C92.2104 96.3118 91.9743 96.0004 91.8181 95.6478C91.6618 95.2951 91.5898 94.911 91.6076 94.5258C91.6255 94.1405 91.7327 93.7647 91.9208 93.428C92.109 93.0913 92.3729 92.803 92.6916 92.5859C93.0113 93.0464 93.4083 93.4066 93.1635 94.0612C92.7132 95.2675 99.8165 96.8835 100.434 98.9282Z" fill="#FDE6B9"/>
  <path d="M95.9775 99.5767C99.4721 101.328 100.053 102.059 99.1017 103.128C96.1082 102.398 96.164 102.044 93.4279 100.948C90.7984 99.8938 91.8398 97.575 93.1527 98.3361C93.6195 98.605 95.5805 99.3775 95.9775 99.5767Z" fill="#FDE6B9"/>
  <path d="M228.011 172.117L228.645 167.297C234.465 167.297 239.772 168.185 239.862 166.663C239.956 165.073 232.243 166.847 228.687 165.696C228.687 159.691 228.663 155.952 226.009 149.854C224.17 145.629 224.629 148.033 222.814 137.848C222.131 134.01 223.3 136.812 219.16 124.645C218.692 123.22 218.053 121.857 217.257 120.586C215.254 115.581 216.108 113.798 214.601 108.193C213.377 103.643 210.003 103.598 208.959 102.952C206.024 101.133 204.216 101.654 201.928 100.098C200.152 98.8941 199.938 96.6921 194.846 95.0849C194.14 94.8617 193.801 93.7201 192.544 92.3438C191.052 90.7062 190.152 90.4805 189.794 89.5012C189.236 87.4614 188.364 85.5207 187.21 83.7487C191.535 83.457 194.127 82.238 197.758 77.6602C201.045 73.5149 201.056 70.0849 198.504 63.7528C197.637 61.5964 197.796 61.6865 199.508 58.0029C201.173 54.4195 201.621 52.3405 201.157 49.1745C200.08 41.8529 193.052 40.0987 192.658 39.3871C189.582 33.8959 183.585 30.0373 178.157 33.2693C177.778 33.4582 177.385 33.618 176.982 33.7475C176.623 32.6799 176.053 31.6951 175.307 30.851C174.561 30.0069 173.653 29.3205 172.638 28.8322C171.623 28.344 170.52 28.0637 169.395 28.008C168.27 27.9522 167.145 28.122 166.086 28.5075C164.672 29.0233 163.42 29.9079 162.462 31.0698C159.545 27.8784 152.24 28.6534 149.669 33.4951C149.001 34.9136 148.607 36.4451 148.507 38.0095C148.117 42.1459 140.909 39.7651 139.326 47.5559C138.565 51.3296 139.851 52.5853 141.37 54.5641C144.095 58.1158 133.915 59.7648 137.119 68.5717C138.367 71.9965 141.188 74.0476 138.756 76.7558C137.941 77.7926 137.472 79.0593 137.415 80.3771C137.359 81.6948 137.717 82.9971 138.44 84.1001C140.659 87.6734 143.71 87.9841 142.327 90.9498C141.112 93.5564 139.552 94.6549 140.432 97.8895C141.312 101.124 143.541 102.292 146.244 104.322C142.876 107.025 139.208 109.474 138.26 112.918C137.15 116.944 137.499 120.833 135.574 124.399C134.485 126.107 133.869 128.072 133.788 130.096C132.852 129.483 133.204 128.066 131.041 126.979C127.385 125.146 129.115 121.366 125.08 119.89C124.234 119.58 125.81 117.935 122.949 115.331C122.108 114.674 121.421 113.842 120.936 112.893C120.575 112.068 119.868 111.39 119.54 110.554C118.489 107.828 116.553 107.775 113.883 108.651C112.028 104.284 109.834 100.07 107.32 96.0464C104.979 92.6774 103.465 92.2246 102.014 90.795C96.9327 85.7872 96.4329 84.2181 94.6228 85.328C94.1535 85.6159 94.5099 86.7715 91.5658 82.6084C92.1189 82.2165 93.1666 81.4922 93.3823 81.3184C96.588 78.7484 99.2137 75.5293 101.087 71.8725C102.96 68.2158 104.039 64.2041 104.252 60.1009C104.465 55.9977 103.808 51.8959 102.323 48.0648C100.839 44.2337 98.5603 40.76 95.638 37.8718C92.7157 34.9836 89.2154 32.7463 85.3672 31.3068C81.5189 29.8673 77.4096 29.2582 73.3092 29.5194C69.2088 29.7806 65.2101 30.9063 61.5756 32.8225C57.9411 34.7387 54.7531 37.4021 52.2209 40.6377C35.1868 62.5376 55.0927 97.3428 88.1918 84.7876L92.124 91.428C89.8065 92.6964 90.0691 95.5949 91.2652 97.3479C90.9591 97.6006 90.7269 97.9313 90.5929 98.305C90.459 98.6787 90.4283 99.0816 90.5042 99.4713C90.8378 101.411 91.7789 101.453 92.6846 102.211C90.6551 105.585 94.9158 106.016 94.822 107.275C94.6469 109.602 96.7716 109.902 98.3178 110.625C99.9554 111.386 99.6053 112.43 102.982 114.497C105.679 116.146 104.504 114.905 102.528 118.256C99.4759 123.439 99.1296 124.485 99.4303 125.542C100.026 126.691 100.711 127.792 101.481 128.832C102.199 130.524 104.653 134.139 106.456 134.223C107.798 134.287 108.161 135.246 108.643 136.646C110.952 143.375 115.02 142.448 115.196 145.469C115.346 148.034 115.628 150.189 117.374 152.092C123.728 159.019 117.992 154.19 128.291 165.45C128.191 165.992 72.7128 165.283 60.3885 165.546C50.3994 165.761 51.8074 166.254 52.9655 164.882C53.5198 164.225 53.5337 163.837 52.779 163.419C49.0612 161.359 53.5223 161.617 20.4093 161.433C18.0271 161.419 16.6369 162.748 16.8779 165.531C7.92134 165.531 10.2604 165.636 9.62107 163.408C9.47013 162.884 9.71494 152.965 8.61772 4.03646C8.61772 3.28934 8.48327 2.15915 11.0925 1.92321C14.6708 1.59976 69.4123 1.76719 123.757 1.69743C174.254 1.63274 224.399 1.31689 233.07 1.30547C233.218 1.3182 233.367 1.28311 233.495 1.2053C233.622 1.12749 233.721 1.01104 233.778 0.872931C233.815 0.781365 233.834 0.682804 233.831 0.583723C233.8 -0.4247 225.658 0.439119 212.533 0.420092C205.624 0.411213 11.4553 0.888152 10.2439 0.888152C9.51327 0.872134 8.80492 1.14014 8.26789 1.63577C7.73086 2.1314 7.40701 2.81602 7.36449 3.54557C8.63294 33.3416 7.52939 157.409 8.345 165.02C7.48245 165.361 8.21816 165.394 4.86817 165.338C1.05012 165.274 0.0962373 164.915 0.0987742 166.236C0.111459 171.915 -0.360407 172.525 1.04758 173.04C1.35962 173.153 19.567 173.581 131.14 173.581C130.473 174.579 129.883 175.418 130.962 175.935C139.135 179.867 140.273 180.329 140.177 180.841C139.384 185.027 132.498 195.386 130.644 221.159C130.487 223.337 131.385 223.833 134.125 226.253C135.944 227.862 135.238 226.19 134.657 230.177C134.432 231.712 134.329 233.262 134.101 234.794C133.107 241.489 132.987 239.52 133.594 240.905C134.493 240.425 134.671 240.869 135.221 236.67C136.445 227.315 135.888 229.63 136.413 227.996C139.903 230.085 145.631 233.546 149.667 233.286C154.257 232.989 150.175 228.165 156.39 202.694C157.32 204.548 161.744 232.534 162.72 233.551C164.903 235.834 170.161 234.233 175.876 234.728C182.441 235.295 191.321 231.165 194.022 230.025C197.531 228.907 200.981 227.609 204.357 226.135C208.251 224.486 206.252 225.149 212.771 222.505C214.664 231.212 214.039 231.079 214.667 233.811C215.22 235.968 215.574 238.171 215.726 240.393C215.791 241.899 217.097 240.659 217.062 240.214C216.462 232.802 213.472 221.872 214.607 221.152C221.654 216.677 220.734 217.921 216.076 204.44C215.144 201.744 213.77 199.239 212.891 196.499C211.875 193.85 210.645 191.288 209.213 188.839C207.78 186.048 207.005 186.121 207.626 185.805C215.017 182.052 213.835 182.941 215.466 182.079C216.988 181.275 218.41 180.282 219.941 179.501C222.842 178.24 225.314 176.162 227.056 173.521C227.362 173.014 227.614 173.309 231.884 173.482C239.123 173.775 239.938 173.999 239.966 173.087C239.999 172.027 238.911 172.721 228.011 172.117ZM189.853 91.5701C191.174 92.4349 192.247 93.6271 192.97 95.0304C194.213 97.8109 196.283 101.831 194.279 103.194C190.587 105.706 192.766 104.444 186.288 108.744C186.089 108.843 185.917 108.99 185.788 109.171C185.658 109.351 185.575 109.561 185.544 109.781C185.513 110.001 185.535 110.226 185.61 110.435C185.684 110.644 185.809 110.832 185.973 110.982C187.391 112.583 188.568 114.381 189.468 116.321C190.771 118.641 185.802 117.699 168.656 145.693C168.357 146.183 168.49 146.04 166.384 144.713C164.647 143.617 164.101 145.038 162.049 147.608C159.846 150.367 165.356 135.431 165.84 134.021C172.35 115.133 176.339 109.908 177.984 106.97C182.725 114.335 185.976 113.474 185.628 112.196C185.068 110.155 183.245 108.137 184.794 104.011C186.129 100.449 188.046 99.1503 189.853 91.5701ZM214.474 153.62C213.699 154.255 211.396 155.131 205.908 158.392C202.207 160.592 196.371 165.214 194.547 166.314C194.883 165.361 206.296 155.384 214.782 150.979C214.832 150.954 214.89 150.949 214.944 150.965C214.998 150.981 215.043 151.018 215.07 151.067C215.088 151.1 215.097 151.136 215.097 151.174C215.07 152.288 214.976 153.204 214.474 153.615V153.62ZM218.05 153.525C218.677 153.263 219.266 154.716 219.585 155.987C210.536 159.569 199.905 166.495 190.724 172.537C190.605 172.141 190.608 171.719 190.733 171.326C190.857 170.932 191.098 170.585 191.422 170.33C194.58 168.021 203.238 159.748 218.055 153.52L218.05 153.525ZM207.485 153.809C201.415 158.331 195.067 163.245 189.99 169.192C190.057 167.552 190.631 165.974 191.633 164.675C197.235 156.244 200.437 154.46 207.325 149.516C207.713 149.233 207.764 149.114 207.485 153.804V153.809ZM194.609 179.148C196.395 183.383 198.668 189.733 197.887 194.264C197.771 194.924 194.728 196.216 193.954 196.41C193.181 196.605 193.688 196.674 190.12 198.25C189.195 192.268 190.013 195.176 187.093 185.267C186.973 184.86 186.895 184.796 183.996 180.345C185.517 178.441 187.303 176.762 189.298 175.36C190.727 174.239 193.973 177.632 194.609 179.143V179.148ZM187.008 171.769C187.659 171.241 188.256 170.755 188.911 170.219C189.895 172.624 187.654 173.614 187.008 171.764V171.769ZM187.793 174.323C187.039 175.122 181.791 180.786 179.821 182.997C179.018 183.898 179.07 183.603 175.299 181.221L184.654 170.774C185.432 172.155 185.81 173.812 187.793 174.318V174.323ZM162.171 149.873C164.974 145.766 165.067 145.619 166.014 146.182C170.262 148.7 175.848 154.573 179.641 159.374C181.457 161.524 182.914 163.954 183.954 166.569C183.203 167.008 184.473 165.014 162.169 149.868L162.171 149.873ZM163.439 101.46C161.572 106.926 161.931 105.867 161.663 106.603C159.54 105.595 160.558 101.838 161.188 99.9304C162.625 95.5746 163.012 95.0456 164.687 94.4291C164.871 95.1407 165.202 95.7839 164.704 96.4891C164.306 97.0262 164.102 97.6824 164.125 98.3505C164.148 99.0186 164.397 99.6592 164.831 100.168C165.262 101.045 165.518 101.998 165.585 102.973C166.22 106.365 161.856 107.956 162.626 112.614C163.067 115.277 163.776 114.987 162.994 117.204C161.804 120.576 162.915 124.53 160.457 128.978C158.147 133.164 160.711 132.381 158.512 137.463C158.162 138.682 158.076 139.962 158.259 141.217C158.259 141.405 158.639 141.598 158.845 141.778C159.639 140.89 159.195 141.801 159.465 139.495C159.824 136.442 160.987 135.569 160.669 132.692C160.444 130.645 162.176 129.014 162.795 126.253C164.343 119.352 162.668 117.955 166.074 115.345C167.574 114.194 170.046 111.141 169.723 107.912C169.318 103.869 169.965 103.157 169.676 100.409C169.278 96.6248 170.98 98.5402 179.443 94.7323C178.757 97.9517 176.474 100.754 177.459 104.705C178.094 107.229 173.71 108.675 173.733 106.202C173.763 103.031 174.288 99.1453 171.415 99.5651C169.67 99.8188 170.19 102.99 171.788 100.707C173.31 103.855 170.627 109.339 174.706 108.836C175.8 108.702 175.753 108.329 174.873 109.932C169.855 119.046 163.435 136.014 162.003 140.576C161.202 143.129 160.926 145.002 159.906 148.769L156.37 147.021C156.37 131.26 160.429 107.183 160.955 108.017C164.068 107.014 161.935 108.16 164.489 101.842C164.845 100.934 163.765 100.472 163.433 101.455L163.439 101.46ZM148.991 83.5877C148.124 82.5945 148.407 82.3281 149.523 80.7514C152.264 85.4447 155.401 92.855 162.674 90.0504C164.029 89.5278 164.143 91.3189 164.634 93.1645C156.824 95.1116 159.487 94.8909 152.93 100.756C151.985 101.602 151.947 99.451 150.139 97.7385C148.5 96.1898 150.101 95.0951 151.445 91.5041C153.128 87.0036 150.446 85.2519 148.991 83.5877ZM172.123 60.8341C172.152 61.3973 171.968 61.6523 171.4 61.6649C171.326 61.0447 171.287 60.4168 171.172 59.8079C169.955 53.3477 163.656 52.6538 161.039 56.3831C160.532 57.1086 160.139 57.9128 159.658 58.7411C159.138 58.3968 158.53 58.2084 157.907 58.198C157.284 58.1877 156.67 58.3559 156.139 58.6828C154.989 55.929 153.162 54.2216 150.019 54.5311C150.075 53.4859 151.212 53.1612 152.09 53.2284C153.532 53.3375 154.845 54.1367 155.261 53.0077C155.889 51.3017 153.295 50.5824 151.247 51.4729C150.573 51.8128 149.922 52.1934 149.297 52.6145C149.415 51.0459 149.806 49.5099 150.453 48.076C150.794 47.1607 151.34 46.336 152.05 45.6655C152.761 44.9949 153.615 44.4964 154.548 44.2085C160.732 41.4255 161.115 40.8978 161.831 39.5608C164.281 43.2685 166.524 42.2246 172.396 45.4071C173.454 46.0239 174.281 46.97 174.751 48.1011C175.22 49.2321 175.307 50.4859 174.997 51.6708C173.729 55.4115 171.883 56.3184 172.123 60.8341ZM169.967 61.6129C170.012 67.0673 164.086 70.4629 161.468 65.6111C160.497 64.0427 160.183 62.1546 160.595 60.3563C161.006 58.5581 162.11 56.9946 163.667 56.0051C166.596 54.469 169.932 57.03 169.97 61.6129H169.967ZM156.511 63.3735C156.511 60.0933 156.371 60.2646 157.036 59.8574C157.243 61.055 157.06 62.2874 156.515 63.3735H156.511ZM149.448 56.255C151.952 54.9713 155.337 57.1822 155.331 62.374C155.331 65.7773 152.25 69.3251 149.298 68.058C148.632 67.7726 148.74 67.8677 148.882 64.5063C149.222 56.6101 147.909 57.0427 149.452 56.255H149.448ZM154.696 68.1785C154.419 68.6744 154.328 69.2529 154.439 69.8098C154.551 70.3667 154.858 70.8655 155.304 71.2164C155.601 71.4473 155.949 71.6058 156.319 71.6769C156.992 71.855 157.684 71.9479 158.379 71.9534C158.494 71.9724 158.611 71.9656 158.723 71.9334C158.834 71.9012 158.937 71.8445 159.024 71.7675C159.111 71.6904 159.18 71.5949 159.225 71.4879C159.27 71.381 159.291 71.2652 159.286 71.1492C159.37 69.8883 154.77 71.0566 156.077 68.5108C157.6 65.8526 158.412 62.8463 158.434 59.7826C159.966 60.55 158.98 59.7014 159.314 63.1719C159.865 68.8799 165.377 71.243 168.76 67.9641C171.855 64.9655 170.098 63.1871 172.347 62.8725C172.97 65.4817 176.171 67.8487 176.259 70.4972C176.355 73.2954 173.265 74.7364 172.975 78.8322C172.676 83.0815 176.84 86.4886 177.44 87.1305C179.776 89.6293 180.455 92.0178 179.616 92.8055C178.213 94.1196 177.84 94.022 173.031 95.6037C166.622 97.7132 168.735 96.6781 168.159 104.905C168.019 106.916 169.714 111.435 164.48 114.643C164.454 113.159 163.353 111.829 164.113 110.331C167.635 103.39 167.597 107.643 165.949 93.167C165.807 91.9189 172.672 86.7854 171.879 85.366C171.107 83.9809 168.878 88.1135 160.021 89.1359C159.096 89.2854 158.147 89.1621 157.291 88.7809C156.435 88.3997 155.708 87.7772 155.2 86.9897C149.045 77.6297 147.925 75.4049 148.663 69.4114C153.498 71.0097 155.422 66.3912 154.699 68.1747L154.696 68.1785ZM182.298 166.98C180.717 165.806 179.344 165.149 177.85 164.119C170.189 158.921 162.199 154.227 153.928 150.066C154.277 149.171 154.845 148.009 155.61 148.106C160.594 149.197 183.072 166.017 182.302 166.976L182.298 166.98ZM187.11 95.9069C183.812 103.644 182.093 104.499 183.178 110.739C181.27 109.45 179.822 107.587 179.046 105.419C176.935 99.4256 184.247 93.9953 180.449 88.4788C177.324 83.9416 174.971 83.958 174.514 79.4335C174.278 77.0982 175.54 76.3105 177.178 73.1724C179.621 68.4842 173.455 63.7148 174.04 62.6848L181.35 63.2251C180.35 65.4982 181.074 66.4229 180.624 68.9903C179.779 73.8104 181.626 73.7381 181.385 74.7973C180.331 78.1511 182.491 79.1493 182.949 79.8457C186.971 85.9571 190.155 88.7718 187.114 95.9031L187.11 95.9069ZM186.117 72.5343C184.054 71.7238 183.268 72.7665 182.522 72.9707C181.332 73.2929 181.572 70.2765 181.909 69.0651C182.09 67.8969 182.178 66.7159 182.172 65.5337C182.205 65.2001 182.298 64.8767 182.348 64.5481C182.758 63.6994 183.412 62.9926 184.227 62.5186C188.067 60.2202 191.291 65.9282 188.003 70.6849C186.897 72.2806 186.635 72.7322 186.12 72.5305L186.117 72.5343ZM186.765 76.2839C186.757 76.7343 186.611 77.1714 186.345 77.5349C186.079 77.8984 185.706 78.1705 185.279 78.3136C184.852 78.4568 184.391 78.464 183.96 78.3342C183.528 78.2045 183.148 77.9442 182.871 77.5891C182.575 77.089 182.44 76.5098 182.486 75.9305C182.531 75.3512 182.754 74.8 183.124 74.352C183.426 74.0871 183.787 73.8985 184.177 73.802C184.567 73.7056 184.975 73.7041 185.366 73.7977C185.843 73.9961 186.24 74.3481 186.494 74.7978C186.748 75.2475 186.845 75.7692 186.769 76.2801L186.765 76.2839ZM144.57 101.039C139.286 96.6794 142.867 93.6478 143.697 91.7375C144.125 90.6571 144.177 89.4639 143.844 88.3503C143.512 87.2368 142.813 86.2677 141.863 85.5994C139.699 83.906 137.886 80.74 139.446 78.4821C140.745 76.5997 142.315 75.0421 140.318 71.4397C138.826 68.748 136.259 65.0073 139.611 61.1918C141.658 58.8617 143.567 57.8659 143.403 55.5028C143.21 52.7388 138.525 51.5934 141.587 45.7078C142.106 44.8044 142.814 44.0244 143.663 43.4215C144.513 42.8186 145.483 42.4072 146.506 42.2157C147.458 41.9581 148.303 41.4041 148.919 40.6339C149.535 39.8637 149.89 38.9174 149.931 37.9321C149.975 36.799 150.269 35.6896 150.794 34.6841C151.318 33.6786 152.059 32.802 152.963 32.1175C153.866 31.4322 154.91 30.9558 156.02 30.7227C157.13 30.4895 158.277 30.5054 159.38 30.7692C161.663 31.3387 161.744 33.2642 162.703 33.3061C163.576 33.3416 163.198 31.0799 166.354 30.1616C167.426 29.7967 168.556 29.6346 169.688 29.6834C171.027 29.8231 172.294 30.359 173.328 31.2225C174.361 32.0861 175.114 33.2381 175.489 34.5314C176.439 38.0184 177.613 39.0116 179.607 39.5837C180.679 39.9557 181.65 40.5687 182.448 41.3756C183.245 42.1825 183.847 43.1616 184.206 44.2376C184.566 45.3131 184.675 46.4568 184.525 47.5809C184.374 48.705 183.967 49.7795 183.336 50.722C180.038 55.4749 183.255 59.128 183.783 56.7243C183.909 56.1167 182.387 54.6643 184.079 52.5295C185.5 50.7061 186.214 48.4315 186.092 46.1234C185.97 43.8154 185.019 41.6289 183.415 39.9655C181.274 37.5935 178.672 38.4852 177.608 35.7428C183.316 30.6601 190.484 35.8493 192.839 43.8951C194.194 48.5199 190.302 54.7848 192.205 54.9916C192.372 55.0113 192.542 54.9753 192.686 54.8891C192.831 54.8028 192.943 54.6712 193.006 54.5147C193.047 54.4112 193.066 54.3 193.06 54.1887C193.146 52.1097 194.273 50.3046 194.564 48.2916C195.257 43.5197 193.514 42.217 193.93 41.6956C197.243 43.7379 199.368 45.9209 199.86 49.8556C200.629 56.0013 196.435 58.1818 196.728 62.1203C196.877 64.0953 198.33 65.1481 198.786 70.0139C198.843 71.4985 198.577 72.9778 198.006 74.3495C197.165 76.7596 192.986 81.7065 189 82.0478C188.083 82.1264 187.257 82.4283 186.834 82.4499C185.728 82.4993 185.739 81.8029 184.605 80.017C185.586 79.9078 186.494 79.4428 187.156 78.7099C187.818 77.9769 188.189 77.0268 188.198 76.0391C188.205 75.3845 188.052 74.7382 187.754 74.1554C188.678 72.7201 189.511 71.228 190.248 69.6879C192.081 65.1684 190.174 59.9969 185.537 60.5018C182.921 60.7872 182.966 61.9935 182.183 61.9846C172.289 61.1297 176.046 61.5444 173.631 61.311C173.401 59.7911 173.622 58.237 174.265 56.841C175.28 54.8419 179.751 48.7888 173.554 44.5547C169.368 41.6956 165.854 42.217 163.73 39.7841C162.207 38.0361 162.856 36.963 162.438 36.0891C162.385 35.9704 162.294 35.8727 162.18 35.8116C162.065 35.7505 161.933 35.7294 161.805 35.7517C161.677 35.7732 161.56 35.8361 161.471 35.9308C161.383 36.0254 161.328 36.1465 161.314 36.2755C161.419 37.1132 161.272 37.9629 160.892 38.7169C160.513 39.4709 159.918 40.0953 159.183 40.5109C153.53 43.3865 149.747 43.9687 148.546 49.3241C147.796 52.6716 147.829 55.4127 146.891 56.5759C144.521 59.5187 144.279 64.9477 146.82 67.8753C146.983 68.0642 147.098 68.2896 147.156 68.5325C147.213 68.7754 147.212 69.0285 147.151 69.2706C146.627 72.4309 147.045 75.6754 148.352 78.6001C148.986 79.7861 146.981 80.2859 146.912 82.4473C146.868 83.8528 147.529 84.5187 149.277 86.2527C151.911 88.8733 149.547 91.8034 148.29 94.6372C146.23 99.2772 152.561 99.2277 150.954 105.069C150.775 105.747 150.436 106.371 149.965 106.891C149.495 107.41 148.906 107.809 148.249 108.054C149.253 103.76 147.336 103.322 144.57 101.039ZM147.339 66.1844C145.852 64.5684 145.778 60.1377 147.339 58.5116C147.528 61.0657 147.528 63.6303 147.339 66.1844ZM47.1509 60.6641C46.7076 53.7118 48.8477 46.8408 53.1605 41.3699C57.4733 35.899 63.6547 32.2138 70.5184 31.0216C86.2066 28.3883 102.582 39.8665 103.187 57.3661C103.419 61.8091 102.574 66.2422 100.724 70.2883C98.8744 74.3345 96.0745 77.8739 92.5629 80.6055C92.2965 80.8262 91.5024 81.4135 91.0001 81.789C88.5647 78.2589 76.111 59.4248 74.6878 57.3535C70.3294 51.0048 68.2377 48.2751 66.8132 45.0089C66.4669 43.866 66.0521 42.7459 65.5676 41.6538C65.3316 41.409 64.946 41.7882 64.5528 42.0343C63.2552 42.8411 62.2696 43.4588 63.089 44.1577C64.7031 45.3838 66.0968 46.8756 67.2102 48.5694C67.6517 49.4281 73.0223 58.4126 87.4561 83.7475C70.4879 92.4669 48.6426 81.099 47.1509 60.6641ZM72.7014 56.3679C72.6418 56.1966 72.6341 56.1231 72.6912 56.0913C72.9449 55.9544 72.3767 54.8686 83.5644 72.6117C90.0678 82.9154 99.8349 96.1365 99.7512 96.2887C96.0536 94.6397 95.6553 94.8135 94.8397 93.4981C87.4992 81.6761 73.484 58.1196 72.7014 56.3679ZM92.6935 92.5848C93.0132 93.0453 93.4115 93.4055 93.1654 94.06C92.7151 95.2613 99.8172 96.8785 100.436 98.9182C100.668 99.6793 99.0853 99.2226 97.9639 98.9182C96.0434 98.3884 94.2072 97.5903 92.5096 96.5475C92.214 96.3017 91.9794 95.9908 91.8242 95.639C91.6691 95.2873 91.5976 94.9044 91.6154 94.5204C91.6332 94.1364 91.7399 93.7617 91.9269 93.4259C92.114 93.09 92.3764 92.8021 92.6935 92.5848ZM104.417 108.63C103.782 107.469 101.451 107.442 101.729 106.422C102.043 105.269 101.206 104.664 100.166 104.052C101.479 102.497 100.902 101.564 99.9795 100.407C102.619 99.8696 99.9427 100.555 105.247 105.006C105.766 105.442 106.422 106.564 108.348 109.047C108.95 109.823 108.93 110.388 108.117 110.9C104.946 112.898 104.635 111.886 104.247 110.714C104.477 110.422 104.615 110.069 104.646 109.699C104.676 109.329 104.596 108.958 104.417 108.633V108.63ZM93.1527 98.3322C93.6169 98.6011 95.5805 99.3723 95.9775 99.5727C99.4721 101.324 100.052 102.055 99.1017 103.124C96.1082 102.394 96.164 102.04 93.4279 100.944C90.7984 99.8937 91.8436 97.5749 93.1527 98.336V98.3322ZM93.5421 104.068C93.2288 103.282 94.2296 102.623 94.7104 102.849C95.2862 103.118 98.3889 104.407 100.203 105.302C100.97 105.683 100.473 106.837 99.6003 106.614C98.0844 106.426 94.1078 105.498 93.5421 104.072V104.068ZM96.3061 107.633C96.3947 107.529 96.5067 107.448 96.6329 107.396C96.759 107.344 96.8957 107.323 97.0316 107.334C99.3897 107.952 103.075 108.107 103.247 109.45C103.403 110.65 94.9285 109.279 96.3061 107.636V107.633ZM100.801 110.99C102.761 110.99 102.666 110.909 102.958 111.302C103.451 111.963 104.115 113.471 105.53 113.352C106.337 113.294 107.124 113.075 107.845 112.709C108.566 112.343 109.206 111.837 109.729 111.22C110.02 110.918 110.199 110.526 110.237 110.109C110.275 109.692 110.169 109.274 109.937 108.925C108.181 106.454 106.192 104.157 103.998 102.065C101.599 99.6552 101.925 97.7804 100.312 94.6917C99.1778 92.5227 94.7522 87.7152 95.5107 86.4962C95.8444 85.9609 96.3987 86.4227 96.5699 86.6091C98.1333 88.4661 99.8173 90.2183 101.611 91.8542C108.034 96.4802 111.004 106.093 113.509 110.951C114.689 113.234 115.658 113.949 114.917 114.746C106.95 123.313 111.607 120.415 105.164 114.619C104.782 114.275 101.864 112.961 100.801 110.994V110.99ZM105.833 132.337C103.316 130.117 102.879 127.839 101.377 126.33C101.01 126.004 100.761 125.565 100.672 125.082C100.583 124.6 100.658 124.101 100.885 123.666C101.503 122.215 105.105 115.801 105.644 116.744C106.337 117.959 106.017 116.962 103.947 120.089C103.045 121.45 101.456 123.789 102.528 124.909C102.787 125.229 103.14 125.458 103.538 125.564C103.936 125.669 104.357 125.646 104.74 125.496C105.583 125.201 106.346 124.715 106.971 124.077C108.587 122.108 109.688 122.463 112.263 119.83C116.496 115.502 117.729 114.052 117.416 111.948C117.237 110.741 116.401 110.242 114.743 110.881L114.223 109.93C115.918 109.079 117.856 109.24 118.48 111.452C119.304 113.05 120.307 114.549 121.465 115.924C124.341 118.376 123.838 118.801 120.719 122.867C120.287 123.429 117.337 126.565 117.014 126.894C113.566 130.411 113.196 130.867 111.78 131.406C107.446 133.049 106.832 133.22 105.833 132.341V132.337ZM122.098 155.373C120.019 151.374 117.081 151.585 116.807 146.508C116.696 144.479 116.336 142.934 114.694 142.01C111.255 140.075 110.508 137.571 108.921 134.127C112.98 132.513 113.012 133.172 115.883 130.288C124.779 121.357 120.301 125.122 124.166 120.902C128.37 122.948 125.968 125.963 129.77 128.027C131.546 128.991 131.612 129.659 133.211 132.857C130.622 135.802 131.904 133.778 127.303 141.594C126.437 143.325 126.149 145.289 126.484 147.196C126.525 147.327 126.596 147.447 126.693 147.545C126.79 147.643 126.91 147.716 127.041 147.758C128.04 147.973 127.382 145.855 127.929 143.843C128.153 143.021 132.377 136.083 132.811 135.369C133.203 135.518 133.445 134.454 131.289 145.188C130.83 147.471 130.316 147.424 130.844 150.291C130.873 150.449 131.57 151.223 132.013 150.117C131.991 149.358 132.012 148.598 132.077 147.841C133.852 138.635 134.14 138.201 134.397 136.506C135.395 129.9 135.007 128.149 136.672 125.234C138.634 121.8 138.619 118.347 139.404 113.914C140.039 110.331 146.184 106.008 146.954 105.64C147.087 106.08 147.102 106.547 146.998 106.995C146.894 107.443 146.674 107.856 146.361 108.192C144.66 110.493 148.771 110.819 151.445 107.506C155.804 110.611 155.326 109.831 153.752 110.47C151.801 111.376 149.961 112.505 148.268 113.833C147.558 114.281 146.985 114.916 146.613 115.669C146.241 116.422 146.085 117.263 146.16 118.1C146.245 119.926 147.387 146.785 149.204 146.513C151.325 146.192 147.454 138.079 147.596 117.284C147.607 115.663 151.748 113.098 152.957 112.554C159.806 109.503 156.255 109.84 152.991 106.897C152.77 106.652 152.609 106.359 152.521 106.041C152.433 105.723 152.42 105.389 152.483 105.065C152.551 104.329 152.767 103.614 153.118 102.963C153.469 102.312 153.948 101.738 154.526 101.276C155.576 100.19 160.443 94.6993 161.397 95.5352C160.345 98.3081 157.931 103.26 159.725 106.674C160.494 108.135 157.283 106.847 154.94 145.937C154.88 146.952 155.048 145.66 152.746 149.438C149.708 148.327 150.453 147.481 146.054 153.287C140.427 160.714 141.088 160.308 140.791 160.164C140.211 154.814 139.912 149.437 139.893 144.055C139.931 141.685 141.396 136.159 142.078 132.431C142.392 128.738 142.954 125.071 143.76 121.455C144.326 118.433 144.204 119.425 144.141 118.352C143.126 118.005 143.073 117.533 141.143 127.897C140.541 131.129 141.632 129.239 139.293 138.576C137.451 145.934 138.903 153.15 139.304 157.501C139.431 158.925 139.312 161.059 139.396 161.211C140.181 162.628 138.305 163.58 134.81 168.6C131.901 167.084 132.661 167.682 130.825 165.682C124.367 158.671 123.442 157.956 122.098 155.373ZM48.8963 162.604L51.9203 164.236C51.1191 165.04 50.1038 165.597 48.9952 165.841C48.5429 164.815 48.5075 163.655 48.8963 162.604ZM19.9311 162.685C24.906 162.643 29.7223 162.832 47.501 162.832V165.737H18.1629C17.5324 164.008 18.3265 162.699 19.9311 162.685ZM103.957 172.016C94.6013 171.872 50.8776 172.451 20.7594 172.05C5.02038 171.84 3.63523 172.16 1.35201 171.995C1.35201 165.612 1.02602 166.521 2.32999 166.541C145.376 168.268 127.316 164.954 133.605 170.138C131.91 172.712 136.148 172.51 103.957 172.016ZM131.894 175.074L150.264 149.866C162.091 155.265 173.28 161.964 183.624 169.84L173.857 180.63C172.445 179.435 170.922 178.378 169.308 177.474C169.067 177.373 168.806 177.33 168.545 177.35C168.284 177.37 168.032 177.451 167.809 177.587C167.586 177.723 167.399 177.911 167.262 178.133C167.127 178.357 167.045 178.609 167.025 178.869C166.779 181.469 168.116 182.575 169.921 184.657C167.003 187.779 168.824 186.74 165.433 183.477C160.983 179.196 160.849 176.548 157.219 175.897C155.676 175.619 153.913 176.801 154.592 178.278C154.987 179.139 154.54 178.507 153.54 177.96C149.822 175.92 147.628 178.179 148.422 179.946C148.572 180.28 148.748 180.603 148.971 181.047C148.473 181.034 147.981 181.165 147.554 181.422C147.127 181.679 146.783 182.053 146.561 182.499C141.867 179.657 136.964 177.175 131.894 175.075V175.074ZM171.135 185.388C175.137 188.407 174.708 187.997 174.686 188.333C171.419 189.416 172.666 189.613 169.195 187.69L171.135 185.388ZM154.32 205.777C151.593 215.441 151.022 228.827 150.695 230.792C150.547 231.68 150.143 232.072 149.27 231.956C143.866 231.242 137.063 227.037 132.798 223.115C132.492 222.845 132.262 222.499 132.132 222.112C132.002 221.724 131.977 221.31 132.06 220.909C133.316 199.401 140.981 184.421 141.506 181.292C148.569 184.909 146.408 183.851 150.931 188.672C153.894 191.83 155.497 192.242 155.259 195.869C155.077 198.661 155.87 200.286 154.32 205.777ZM153.094 188.653C151.597 187.043 150.123 185.411 148.674 183.758C147.887 182.849 148.294 182.12 149.486 182.569C154.107 184.311 153.329 187.262 157.668 190.773C158.646 191.564 159.517 194.096 162.035 195.056C163.766 195.717 163.83 194.287 162.75 193.914C161.591 193.398 160.613 192.547 159.941 191.471C156.584 187.179 157.679 189.586 154.901 185.265C152.297 181.213 147.966 178.996 150.558 178.719C152.5 178.511 153.729 179.607 157.858 184.09C165.376 192.263 163.283 192.166 166.573 194.253C167.27 194.696 167.588 194.557 167.932 193.667C163.443 189.121 159.52 184.05 156.247 178.563C155.632 177.413 156.601 177.217 157.069 177.31C158.306 177.67 159.377 178.454 160.095 179.524C161.401 181.35 162.888 183.04 164.535 184.566C166.217 186.322 166.735 188.204 168.975 189.152C172.623 190.699 173.972 192.094 174.007 190.078C174.894 189.791 175.765 189.452 176.613 189.064C176.726 188.994 176.82 188.897 176.886 188.782C176.952 188.667 176.989 188.538 176.993 188.405C176.996 188.272 176.965 188.141 176.904 188.023C176.842 187.905 176.752 187.804 176.641 187.73C175.179 186.567 173.706 185.407 172.175 184.333C170.072 182.86 167.799 179.894 168.793 179.133C169.218 178.806 171.084 180.387 173.313 182.062C173.592 182.272 175.96 183.506 177.633 184.498C178.12 184.783 178.661 184.962 179.221 185.027C179.782 185.091 180.349 185.038 180.888 184.871C181.958 184.758 183.035 184.746 184.107 184.835C185.376 184.298 185.437 185.141 187.72 192.996C187.768 193.208 187.8 193.422 187.818 193.639C184.546 194.761 181.437 196.267 177.96 196.52C159.357 197.858 163.444 199.516 153.094 188.651V188.653ZM213.586 202.158C216.481 209.358 219.181 215.752 218.153 216.814C213.811 221.327 202.122 225.405 196.26 227.614C191.383 229.451 182.408 233.947 175.11 233.29C166.865 232.546 165.039 234.568 163.979 232.287C162.965 230.107 162.065 224.528 159.884 212.158C158.25 202.89 157.973 202.877 157.037 200.513C156.6 198.624 156.44 196.682 156.563 194.748C160.073 198.507 160.382 199.494 173.744 198.271C177.071 197.967 179.637 198.43 185.86 195.89C186.38 195.679 186.193 195.539 186.827 196.996C187.078 197.829 187.616 198.546 188.344 199.022C189.072 199.497 189.945 199.701 190.809 199.596C191.381 199.526 191.929 199.323 192.408 199.002C196.155 197.01 198.858 196.972 199.311 194.358C199.798 191.533 199.012 190.61 200.044 190.045C205.937 186.835 205.982 186.416 206.539 187.316C210.537 193.744 209.985 193.2 213.586 202.157V202.158ZM201.082 187.61C199.042 188.738 199.402 189.287 199.147 187.626C198.755 185.076 196.878 179.196 195.29 177.143C192.203 173.15 190.343 174.291 192.487 172.746C196.401 169.915 214.122 159.037 219.918 157.11C221.042 156.736 221.284 155.678 219.918 153.349C218.948 151.7 217.841 152.38 216.046 153.018C216.156 152.384 216.227 151.743 216.255 151.1C216.311 149.388 215.136 149.445 214.53 149.802C210.963 151.899 210.646 152.054 208.68 153.268C208.68 148.3 208.879 148.133 208.538 147.924C207.878 147.517 207.64 147.873 207.151 148.202C197.758 154.511 198.424 154.97 196.504 156.313C195.842 153.057 195.632 152.106 195.501 151.08C195.285 149.405 195.961 146.181 195.098 143.8C194.294 141.583 192.844 140.047 193.069 135.339C193.342 129.483 193.509 129.184 193.357 128.946C192.818 128.107 192.299 128.799 192.275 128.963C191.674 133.073 190.843 138.821 193.113 142.899C194.989 146.271 193.312 147.772 194.509 153.957C195.222 157.635 195.27 157.832 194.942 158.269C191.345 163.089 189.813 164.43 189.05 167.826C188.872 168.627 187.593 169.55 186.549 170.438C183.849 160.498 177.511 154.516 169.589 146.876C174.903 138.407 173.83 138.852 180.117 130.932C188.527 120.335 192.383 118.432 190.863 115.81C187.54 110.072 187.976 111.004 187.135 110.06C188.901 108.944 187.618 109.96 195.654 103.972C198.303 101.998 194.345 95.9703 195.301 96.564C196.732 97.2565 198.031 98.1926 199.141 99.3305C202.17 103.083 202.974 101.814 206.957 103.528C214.728 106.869 212.294 105.858 215.285 119.361C216.031 122.73 216.788 122.159 218.156 126.408C222.162 138.839 220.402 132.605 221.633 140.393C223.282 150.823 226.787 151.846 226.999 158.388C227.633 178.206 227.367 173.076 201.082 187.61Z" fill="#1B1B1D"/>
  <path d="M204.377 106.402C196.737 110.032 196.269 115.06 193.4 123.069C193.567 123.3 193.765 123.754 193.925 123.742C196.282 123.555 196.322 113.675 201.647 109.884C202.796 108.88 204.076 108.038 205.453 107.38C206.133 107.127 205.605 105.82 204.377 106.402Z" fill="#1B1B1D"/>
  <path d="M194.715 192.634C194.691 192.255 194.518 191.9 194.233 191.648C193.948 191.397 193.574 191.268 193.195 191.292C192.815 191.315 192.46 191.489 192.208 191.774C191.957 192.059 191.828 192.432 191.852 192.812C191.875 193.192 192.049 193.546 192.334 193.798C192.475 193.923 192.639 194.019 192.818 194.08C192.996 194.141 193.184 194.166 193.372 194.155C193.56 194.143 193.744 194.094 193.913 194.012C194.082 193.929 194.234 193.814 194.358 193.673C194.483 193.531 194.579 193.367 194.64 193.189C194.701 193.011 194.726 192.822 194.715 192.634Z" fill="#1B1B1D"/>
  <path d="M183.117 66.5492C182.661 67.8607 183.83 68.391 184.281 68.9592C184.98 69.837 183.838 69.7951 183.323 70.4814C182.701 71.3211 183.577 71.5583 183.693 71.6344C184.112 71.5833 184.516 71.446 184.88 71.2313C185.244 71.0165 185.56 70.7288 185.807 70.3862C185.983 69.8925 186.003 69.3564 185.864 68.8511C185.724 68.3457 185.432 67.8958 185.027 67.5627C184.351 67.0058 184.309 66.7547 184.801 66.0405C185.336 65.2629 185.858 64.5108 186.425 65.2706C187.124 66.208 188.06 65.334 187.523 64.4144C186.659 62.9379 184.314 63.1066 183.117 66.5492Z" fill="#1B1B1D"/>
  <path d="M165.744 49.043C163.694 49.3994 159.899 49.6391 160.491 51.6281C160.562 51.8634 160.716 52.065 160.924 52.1954C161.133 52.3258 161.381 52.3762 161.624 52.3371C162.485 52.2743 163.331 52.0722 164.128 51.7384C166.277 50.8036 168.989 50.6653 170.511 52.6733C170.631 52.8344 171.075 52.8547 171.315 52.7786C171.405 52.7032 171.474 52.6064 171.516 52.497C171.558 52.3876 171.572 52.2693 171.556 52.1532C170.156 49.7495 169.263 49.5491 165.744 49.043Z" fill="#1B1B1D"/>
  <path d="M156.978 83.1643C161.015 88.9459 165.557 80.9255 169.201 74.9194C169.835 76.4415 170.762 75.4686 170.342 74.02C169.474 71.0455 166.992 71.114 166.948 71.61C166.968 71.9017 167.061 72.1808 167.218 72.4268C167.279 72.5448 167.434 72.6158 167.591 72.7478C167.443 72.8957 167.276 73.0236 167.095 73.1283C156.313 77.441 152.127 73.467 153.65 76.6647C153.657 76.6901 156.705 82.7749 156.978 83.1643ZM158.641 82.8751C159.265 82.158 160.031 81.5783 160.891 81.1726C161.751 80.7669 162.686 80.5441 163.636 80.5183C162.527 82.5643 160.068 84.689 158.641 82.8751ZM167.614 74.5299C167.157 75.6183 166.726 76.4897 165.562 76.7612C162.656 77.4334 159.789 78.3315 156.748 78.1425C155.734 78.0791 155.522 77.8964 155.073 76.5404C159.354 76.8862 163.655 76.1966 167.614 74.5299Z" fill="#1B1B1D"/>
  <path d="M163.26 60.415C163.064 61.9993 163.02 62.9519 164.089 63.1282C164.964 63.2779 164.938 60.9947 164.749 60.5507C164.425 59.7808 163.367 59.5766 163.26 60.415Z" fill="#1B1B1D"/>
  <path d="M152.886 61.4118C152.874 61.0566 152.818 60.7014 152.722 60.359C152.67 60.2344 152.584 60.1265 152.475 60.0471C152.366 59.9678 152.237 59.9199 152.102 59.9088C151.968 59.8976 151.833 59.9237 151.712 59.9841C151.591 60.0444 151.489 60.1368 151.418 60.2511C150.409 62.3441 152.398 64.796 152.886 61.4118Z" fill="#1B1B1D"/>
  <path d="M107.959 127.74C107.675 127.71 107.388 127.771 107.14 127.912C106.892 128.054 106.694 128.269 106.574 128.529C106.454 128.788 106.418 129.078 106.47 129.358C106.522 129.639 106.659 129.897 106.863 130.096C106.992 130.223 107.146 130.323 107.314 130.39C107.482 130.457 107.662 130.49 107.843 130.487C108.024 130.485 108.202 130.446 108.368 130.374C108.534 130.302 108.685 130.198 108.81 130.067C108.99 129.881 109.114 129.649 109.168 129.396C109.222 129.142 109.204 128.879 109.115 128.636C109.026 128.393 108.87 128.18 108.666 128.022C108.461 127.863 108.216 127.765 107.959 127.74Z" fill="#1B1B1D"/>
  <defs>
    <linearGradient id="paint0_linear_3901_17126" x1="227.138" y1="96.5215" x2="153.821" y2="118.876" gradientUnits="userSpaceOnUse">
      <stop stop-color="#FFEA8A"/>
      <stop offset="1" stop-color="#FFD200"/>
    </linearGradient>
  </defs>
</svg>
