<svg width="257" height="187" viewBox="0 0 257 187" fill="none" xmlns="http://www.w3.org/2000/svg">
  <path d="M218.547 215.956C155.93 216.019 33.1784 216.117 25.5971 215.916C15.3929 215.651 -0.389392 217.526 1.00882 202.493C2.40703 187.46 1.00882 156.375 1.00882 156.375H254.684C254.684 156.375 255.57 189.681 254.684 199.761C253.798 209.84 240.217 215.934 218.547 215.956Z" fill="white"/>
  <path d="M148.034 155.809C148.258 156.504 148.252 155.913 148.133 157.858C148.01 159.902 150.036 158.139 128.987 163.842C128.959 163.85 105.113 169.836 104.751 169.856C104.02 165.056 103.98 166.185 105.323 165.835C105.352 165.826 141.477 157.8 148.034 155.809Z" fill="#A0A1A6"/>
  <path d="M130.215 154.997C154.136 155.104 150.104 152.907 108.166 163.627C103.829 164.735 103.805 165.232 103.752 163.73C103.374 152.956 98.2521 154.885 111.02 154.806C129.097 154.698 114.766 154.927 130.215 154.997Z" fill="#CACBCE"/>
  <path d="M60.0142 124.671C61.1875 125.461 62.1504 126.518 62.8207 127.754C63.4912 128.99 63.8493 130.368 63.8647 131.77C64.0865 138.076 57.2312 141.594 52.9627 135.696C48.4346 129.432 53.8204 120.854 60.0142 124.671Z" fill="#EFEFF0"/>
  <path d="M96.0404 120.341C100.011 153.469 103.158 169.183 103.041 170.076C103.013 170.076 37.1382 165.18 33.367 164.819C29.9817 164.495 30.7198 164.819 23.0633 108.732C21.6691 98.5093 20.4 97.9783 29.7169 98.6222C34.2745 98.9382 30.4052 98.5 37.2941 98.9421C49.5997 99.7307 45.4669 99.606 47.0802 99.6365C47.9823 99.6537 49.5002 99.3524 49.7409 99.4028C50.4306 99.5462 62.0747 100.153 66.5624 100.142C68.3102 100.142 80.1304 101.516 82.6284 101.603C95.1975 102.042 93.6272 100.203 96.0404 120.341ZM58.1503 140.267C68.9622 140.43 67.0477 120.751 55.7303 122.296C54.5235 122.598 53.4246 123.222 52.5548 124.101C47.0937 128.631 50.4722 140.152 58.1503 140.267Z" fill="#A0A1A6"/>
  <path d="M158.924 64.572C158.184 65.0526 157.134 65.7828 156.36 66.201C152.175 68.458 148.953 67.8592 146.762 66.2979C146.359 66.0112 149.509 65.111 150.807 62.3403C150.983 61.9659 150.518 61.4242 150.495 61.3884C149.709 61.3884 150.7 61.2344 146.892 61.9646C144.976 61.9854 143.086 61.5221 141.403 60.6183C141.375 60.5984 138.529 59.0982 138.139 58.1622C142.172 57.4201 141.407 57.8516 144.323 56.6222C147.661 55.2162 147.257 55.195 147.632 54.8153C147.048 52.6791 142.185 57.3378 136.961 51.2493C157.831 47.6647 144.507 29.5585 148.148 23.2695C148.696 25.092 149.889 26.6594 151.509 27.6865C150.079 39.0842 151.731 37.5721 151.358 41.616C150.706 48.7958 149.152 50.2429 158.924 64.572Z" fill="#3B3C3F"/>
  <path d="M209.664 54.7993C211.709 56.6126 214.342 57.6451 217.088 57.7108C212.806 62.4796 205.592 62.8394 201.5 59.6438C199.857 58.3613 199.807 60.6302 201.617 61.4905C203.272 62.4699 205.136 63.0504 207.06 63.1846C204.847 64.0989 202.383 64.2321 200.083 63.5616C196.375 62.4252 195.052 59.977 194.497 61.6737C195.259 63.1567 198.373 64.4498 199.963 65.0459C197.087 65.7141 194.07 65.4368 191.369 64.256C190.225 60.6965 189.636 56.9858 189.622 53.2513C189.607 48.3988 189.576 50.3969 192.714 49.121C193.521 51.1297 192.934 51.5705 195.828 55.3118C195.984 55.5631 196.222 55.7558 196.501 55.8594C196.781 55.9631 197.087 55.9717 197.372 55.884C197.742 55.0157 196.183 54.5709 194.704 50.5588C194.351 49.6069 193.8 48.1983 194.384 47.5584C195.641 45.7074 196.563 43.6556 197.11 41.4938C197.977 37.4472 197.296 36.6095 196.169 35.1292C196.872 31.279 197.548 25.78 196.088 22.1184C195.489 20.6116 194.878 18.1355 193.873 18.1169C192.714 19.6145 195.787 21.975 195.486 29.3062C195.528 30.7023 195.385 32.0979 195.063 33.4577C194.515 35.3164 195.767 34.2874 192.374 34.3352C190.52 34.3618 190.357 35.0787 190.568 34.241C192.19 27.7237 192.191 28.5534 191.047 28.2189C190.685 28.5609 190.444 29.0079 190.358 29.4947C188.897 37.3954 184.475 45.1607 183.771 44.6615C185.888 35.9775 186.254 35.4916 185.572 26.5447C185.493 25.5052 183.121 16.322 183.825 14.4885C184.006 14.0172 184.943 10.9677 184.396 10.2322C183.69 10.0516 183.572 9.85513 183.32 11.046C182.131 16.622 180 17.6722 180.654 22.6521C178.96 22.3138 177.429 21.4259 176.305 20.1296C174.463 18.0187 175.035 15.8321 175.597 12.8741C175.919 11.1788 175.306 11.5386 174.715 11.4456C174.177 11.9435 173.651 15.147 173.647 15.9596C173.472 18.2013 173.667 20.456 174.223 22.6362C169.35 23.9094 167.574 15.8095 168.394 10.653C168.529 9.78211 169.235 7.9699 167.461 8.71469C166.785 11.0143 166.597 13.4267 166.906 15.8016C167.203 18.0986 167.936 20.3193 169.069 22.3468C165.991 23.7753 162.781 21.6232 161.176 18.5033C161.117 18.3902 161.02 18.3008 160.903 18.2502C160.785 18.1998 160.652 18.1913 160.528 18.2265C160.404 18.2617 160.297 18.3381 160.224 18.4429C160.152 18.5476 160.118 18.6742 160.129 18.8007C160.21 19.6769 160.388 20.7988 160.73 22.6083C161.242 25.3207 161.633 25.2357 160.663 25.2211C155.441 25.1467 154.186 20.52 154.186 15.3966C153.399 14.6001 151.651 16.4149 154.141 22.8579C153.579 24.07 153.42 25.4267 153.688 26.7332C152.642 27.0399 148.848 25.0777 148.947 18.8617C149.033 13.5512 153.491 8.15842 157.115 6.9755C157.607 6.81486 156.577 8.26728 157.299 9.43692C157.912 9.43692 158.274 9.62014 158.458 8.33234C158.978 4.69995 166.539 -1.2518 179.054 2.8811C184.322 4.62029 185.838 2.80277 192.182 5.21374C195.457 6.55385 198.339 8.68323 200.565 11.4071C213.118 30.1453 198.792 42.2784 213.032 52.4401C208.402 54.0532 207.071 48.282 205.974 49.0387C205.571 49.3188 205.556 49.4675 205.81 49.9999C206.865 51.767 208.163 53.3819 209.664 54.7993Z" fill="#3B3C3F"/>
  <path d="M199.554 74.2216C200.378 76.5396 198.181 81.25 196.965 82.5697C193.066 86.7889 194.348 86.7052 192.394 88.5639C191.22 89.6831 190.638 91.0333 188.877 92.9252C188.276 93.4488 187.562 93.8317 186.79 94.0457C186.241 93.2929 185.49 85.7268 182.827 85.7653C181.695 85.7812 182.317 87.9957 180.712 87.3943C180.436 86.8885 180.874 84.5664 182.144 84.3992C183.782 83.9499 185.288 83.1169 186.532 81.9709C187.18 81.2341 187.736 80.4228 188.188 79.5547C191.059 75.9966 195.763 72.9484 194.896 67.375C196.319 68.4921 197.348 70.0257 197.834 71.7562C198.074 73.2737 199.217 73.2683 199.554 74.2216Z" fill="white"/>
  <path d="M173.686 84.5432C174.608 85.6053 173.928 87.5038 173.301 86.3262C172.715 85.223 171.776 85.4341 171.506 86.1483C170.202 89.5856 171.007 89.4674 170.011 92.5103C168.605 91.6248 165.575 85.9412 165.263 84.8473C163.661 79.1584 164.628 75.68 169.69 72.3477C170.044 73.6647 170.353 74.8263 170.673 76.0146C168.601 79.0296 172.572 83.2554 173.686 84.5432Z" fill="white"/>
  <path d="M231.744 102.622C232.649 105.373 231.642 121.765 231.109 128.09C229.765 143.988 238.609 142.87 230.801 157.061C228.65 160.967 229.476 161.035 228.271 161.973C220.842 167.8 208.777 163.005 207.274 161.087C205.392 158.677 204.828 159.493 204.094 157.997C201.47 152.655 202.22 151.984 202.094 147.614C202.068 146.71 203.778 143.814 204.978 142.379C205.868 141.317 205.632 139.961 206.007 138.692C206.567 137.41 207.361 136.24 208.349 135.24C209.022 134.347 208.645 132.865 207.728 133.549C206.892 134.172 206.799 135.925 206.803 130.552C206.811 123.146 205.95 111.984 206.05 109.763C206.174 107.007 206.53 106.026 206.217 105.023C202.318 104.818 206.237 123.853 205.007 135.062C204.866 135.674 204.804 136.301 204.824 136.929C204.545 137.667 204.331 138.429 204.187 139.205C204.421 141.057 203.071 141.658 202.224 143.148C199.764 147.472 199.689 149.686 200.823 154.523C201.243 156.31 201.47 156.124 200.542 156.088C173.709 155.072 181.388 156.752 156.052 155.813C155.453 155.791 155.977 153.593 156.087 151.417C156.177 149.657 155.923 147.895 155.341 146.228C153.385 140.633 153.593 142.918 152.854 139.07C149.176 119.902 150.59 122.261 153.099 103.526C154.481 93.205 154.577 93.1399 154.112 92.1336C153.207 92.2743 153.127 91.8123 152.464 95.5283C150.157 108.474 154.01 102.129 145.419 106.984C140.068 110.009 142.276 109.109 137.65 112.521C131.5 117.06 135.707 113.325 129.145 118.76C124.907 122.273 125.695 121.582 124.474 122.345C121.398 124.258 121.152 124.806 121.842 122.534C121.905 122.365 121.902 122.179 121.835 122.01C121.769 121.843 121.642 121.705 121.48 121.624C121.317 121.542 121.13 121.522 120.953 121.567C120.777 121.612 120.623 121.72 120.522 121.87C119.997 122.534 120.055 123.33 119.745 124.382C119.232 126.133 118.266 126.729 116.834 128.066C116.533 128.347 116.082 129.209 115.139 129.48C108.501 131.378 114.816 130.263 114.811 121.744C114.811 121.08 114.688 119.505 113.743 119.2C112.093 118.669 113.912 121.251 112.019 126.767C111.503 127.997 110.749 129.116 109.797 130.059C108.795 130.948 107.645 131.661 106.398 132.165C103.726 133.38 101.057 132.09 98.918 129.991C101.934 128.898 102.912 128.734 104.868 124.902C106.323 122.05 104.465 123.543 106.999 112.953C107.112 112.478 106.904 111.778 107.02 111.227C107.306 109.877 106.811 105.253 104.868 104.838C103.964 103.093 103.255 100.811 102.514 98.9708C105.381 96.9223 105.822 99.6161 108.684 97.1865C111.911 94.4423 112.883 95.0026 114.504 96.2572C115.329 96.8776 115.988 97.688 116.424 98.6177C118.791 103.896 118.44 108.564 119.802 110.392C120.292 111.047 120.167 111.347 120.496 114.967C120.494 115.075 120.514 115.181 120.554 115.282C120.594 115.382 120.653 115.472 120.729 115.55C120.881 115.706 121.09 115.796 121.31 115.8C121.53 115.802 121.742 115.72 121.9 115.57C122.058 115.419 122.149 115.212 122.152 114.995C122.169 113.596 122.079 112.197 121.884 110.811C121.749 109.069 121.014 110.058 120.501 107.063C118.826 97.2795 116.944 97.2542 117.544 96.682C118.889 95.6076 120.291 94.6047 121.745 93.6776C126.654 90.1063 136.492 83.2053 139.311 81.182C145.383 76.8207 149.993 72.9374 157.999 72.6493C158.94 72.6161 161.457 72.5258 162.507 72.5657C169.431 72.8312 166.632 71.4505 164.568 75.0098C160.898 81.34 164.26 88.2662 169.005 93.9312C169.748 94.8194 171.117 94.9057 171.41 93.7878C172.042 91.3768 171.958 88.4175 172.61 87.8467C173.612 88.3707 174.671 88.7817 175.766 89.0721C179.229 89.789 177.332 90.1687 183.41 88.6512C184.944 91.1578 184.142 97.2927 187.36 95.7314C191.282 93.8303 189.847 94.0493 193.332 90.1089C195.618 87.5267 195.549 86.5748 197.14 84.9498C200.513 81.5046 200.722 78.9051 201.602 75.3032C202.33 75.3391 205.794 76.0387 205.86 76.064C211.092 78.0846 217.407 77.9718 221.199 80.2792C221.089 80.5128 220.94 80.8448 220.832 81.0758C220.812 81.1173 220.78 81.1522 220.741 81.1759C220.701 81.1995 220.655 81.2108 220.608 81.2085C219.565 81.0373 218.496 81.2679 217.619 81.853C216.744 82.4379 216.13 83.3326 215.902 84.3523C215.88 84.4417 215.833 84.5236 215.767 84.5897C215.702 84.6558 215.62 84.7039 215.53 84.7294C215.109 84.8462 214.707 84.9564 214.307 85.0613C213.798 85.2088 213.331 85.4715 212.943 85.8285C212.556 86.1855 212.258 86.6271 212.073 87.1178C211.888 87.6086 211.822 88.1352 211.88 88.6556C211.938 89.176 212.118 89.6759 212.406 90.1156C212.984 90.9506 213.763 92.5584 214.483 93.505C215.155 94.3932 214.348 94.7251 214.508 99.94C214.731 100.948 214.714 101.994 214.454 102.994C214.173 104.902 214.629 106.845 215.732 108.437C216.428 109.448 213.091 138.794 211.698 140.798C211.161 139.769 211.454 139.887 210.452 140.154C209.129 143.894 212.802 145.131 214.632 150.152C215.623 152.87 220.494 155.314 223.566 153.471C225.429 152.349 227.707 152.42 229.154 150.801C230.499 149.293 231.626 146.792 230.141 145.358C229.335 144.584 229.621 143.302 229.519 140.82C229.055 132.916 229.033 124.992 229.453 117.086C229.671 111.834 229.421 109.394 231.744 102.622ZM183.551 93.2833C184.129 90.9958 181.876 92.4867 179.764 92.3845C178.077 92.3062 175.832 92.6115 173.849 91.6118C173.596 91.5322 173.331 91.4939 173.066 91.499C171.594 94.348 180.322 94.3109 183.551 93.2833Z" fill="#00703F"/>
  <path d="M165.637 58.0501C166.084 54.905 170.611 52.3785 173.05 53.1525C172.413 54.58 171.384 55.8026 170.079 56.6814C168.744 57.5122 167.212 57.984 165.637 58.0501Z" fill="#C72527"/>
  <path d="M174.577 47.6953C175.43 47.5306 176.246 46.9983 175.894 47.6276C175.172 48.9127 175.663 48.6897 172.245 49.7518C168.805 50.822 165.291 51.6477 161.731 52.2225C160.322 50.1235 160.233 51.2692 165.612 49.5447C168.051 48.756 168.942 48.7866 174.577 47.6953Z" fill="white"/>
  <path d="M196.018 38.493C196.245 42.4759 192.314 49.8482 189.326 47.7253C189.19 47.6074 189.019 47.5377 188.839 47.5272C188.659 47.5166 188.481 47.566 188.332 47.6673C188.184 47.7687 188.075 47.9161 188.022 48.0862C187.968 48.2562 187.973 48.439 188.038 48.6055C188.448 49.9039 187.231 56.947 190.317 66.0426C193.167 74.4571 192.93 70.4025 191.598 73.164C191.194 74.0083 188.114 76.8442 187.363 77.9063C186.674 78.4187 186.471 79.2618 185.979 79.907C184.332 82.071 181.282 82.9114 180.368 83.327C179.612 83.6721 179.23 85.2972 179.073 86.1017C178.723 87.8967 179.162 88.202 177.952 87.9604C174.644 87.3098 175.974 87.3483 175.553 85.1949C175.22 83.4863 174.415 83.2486 173.234 81.7524C172.867 80.3848 172.618 78.9889 172.491 77.5797C172.387 77.2438 171.189 72.5347 171.58 72.0886C173.529 69.8954 175.456 69.2926 183.411 58.8707C183.538 58.7101 183.596 58.5068 183.573 58.3045C183.549 58.1022 183.446 57.9171 183.286 57.7887C181.758 56.5939 180.097 61.9747 170.977 66.4183C168.996 67.3986 166.845 67.9983 164.639 68.1854C161.403 68.4376 153.615 54.5613 152.616 51.509C150.835 46.0658 152.589 45.3382 152.277 39.9959C152.136 37.5743 152.21 38.3416 151.968 34.9695C151.924 34.3627 152.625 34.3893 152.832 33.7746C153.47 31.9053 156.634 31.8071 157.098 31.8349C157.827 31.8801 158.186 30.5697 157.296 29.9471C155.205 28.4867 153.471 30.4423 152.581 31.2282C152.545 30.1896 152.732 29.1553 153.13 28.1933C156.601 28.7309 154.826 26.786 155.061 24.4387C156.69 25.8779 157.034 26.4474 160.352 26.6851C164.923 27.0117 162.062 24.0126 161.601 22.835C160.172 19.1787 160.89 19.966 160.918 20.0469C161.387 21.0919 162.109 22.0076 163.019 22.7143C163.929 23.421 165.001 23.8972 166.14 24.1015C167.707 24.3637 169.318 24.1909 170.793 23.6023C172.081 24.2409 173.546 24.4413 174.96 24.1719C176.375 24.0391 175.654 23.0261 175.537 21.6321C176.984 22.9834 178.787 23.9037 180.74 24.2874C184.866 25.0043 180.381 22.2216 182.55 18.5547C182.953 20.9444 184.752 26.6904 184.499 31.7314C183.922 43.1848 181.767 47.0535 183.861 45.8919C189.472 41.8426 187.326 34.5128 193.272 35.1447C194.072 35.2593 194.799 35.6675 195.308 36.2882C195.818 36.9087 196.071 37.696 196.018 38.493ZM193.657 39.3679C195.993 39.7423 193.711 36.2294 191.798 37.6181C191.272 37.9694 190.822 38.4201 190.472 38.9441C190.124 39.4683 189.884 40.0553 189.767 40.6716C189.624 42.282 190.967 42.5967 191.15 43.4039C190.78 43.834 190.095 44.0889 190.24 44.8643C190.569 45.4524 190.869 45.5626 191.469 45.3037C192.422 44.8908 192.41 44.3744 192.593 43.445C193.085 41.0341 189.921 42.1559 192.144 38.9577C192.24 38.7949 192.394 38.6721 192.575 38.6118C192.757 38.5517 192.953 38.5579 193.13 38.6297C193.313 38.8793 193.489 39.1263 193.657 39.3679ZM179.323 49.2401C180.271 43.0189 172.312 42.6817 176.125 45.475C174.944 46.3154 172.824 46.3857 167.789 47.4C164.146 48.1342 164.798 48.5644 158.73 49.7154C157.917 49.8694 158.082 50.3394 158.136 50.8027C159.272 51.1625 159.377 51.1001 159.615 51.5675C160.814 53.9147 163.129 57.1568 162.582 58.5468C163.523 59.7085 165.696 59.7523 167.161 59.4602C170.681 58.7605 172.903 57.4874 175.497 51.8595C179.487 43.2087 176.326 50.1509 179.323 49.2401ZM159.253 42.6312C160.223 47.0987 167.129 45.2865 166.056 42.7401C165.88 42.3219 165.084 42.4281 164.723 42.8529C163.08 44.7806 160.192 42.6936 160.824 41.6448C161.285 40.8748 164.958 40.3238 163.803 36.4073C162.881 35.9267 162.616 36.4458 162.593 37.6659C162.549 40.0065 158.498 39.1555 159.253 42.6312Z" fill="#FDE6B9"/>
  <path d="M228.547 77.0476C228.084 77.7412 227.766 78.5174 227.606 79.3325C226.921 78.5729 226.034 78.0205 225.044 77.7393C224.606 73.7962 227.05 72.3598 227.599 74.1547C227.88 75.1079 228.213 76.0492 228.547 77.0476Z" fill="#FDE6B9"/>
  <path d="M237.57 81.692C240.019 84.3553 237.094 85.4094 235.807 90.0149C234.716 93.9129 229.74 100.147 228.286 110.422C228.151 111.4 227.263 133.135 227.595 138.079C227.857 141.99 227.854 145.913 227.585 149.823C226.541 150.508 227.419 149.823 222.899 151.646C222.284 151.894 221.806 152.575 220.666 152.234C215.355 150.653 216.833 149.22 214.655 146.144C210.994 140.973 214.82 146.069 217.376 109.976C218.048 110.167 218.328 110.143 218.522 109.79C218.582 109.497 218.559 109.194 218.455 108.914C218.353 108.632 218.174 108.384 217.939 108.197C217.165 107.526 216.585 106.664 216.26 105.698C215.936 104.733 215.877 103.699 216.092 102.704C216.449 100.923 216.004 100.58 216.041 98.1905C216.096 94.5647 216.744 93.9567 214.481 90.611C213.615 89.3312 213.061 88.5439 213.765 87.292C214.183 86.5498 214.318 86.5352 215.61 86.2046C216.777 85.9059 216.491 87.296 219.47 90.3681C220.659 91.5948 220.972 91.8285 221.252 91.7648C223.549 91.2696 220.114 89.0723 218.892 87.3424C218.528 86.8273 217.232 84.5836 217.585 84.0632C218.707 82.4183 220.274 82.4209 220.714 82.9559C222.365 85.137 224.231 87.1503 226.285 88.9661C226.943 89.4082 227.63 88.7192 227.116 88.1257C225.757 86.5419 222.845 84.0353 222.463 82.0784C222.253 81.0003 222.315 81.5341 222.743 80.5755C223.17 79.617 224.759 79.4736 224.789 79.4789C226.547 79.8121 225.461 79.6342 229.005 83.7937C229.867 84.8027 232.043 86.9136 232.972 86.0506C233.053 85.9748 233.111 85.8773 233.136 85.77C233.162 85.6627 233.155 85.5503 233.118 85.4466C232.787 84.5544 233.918 84.0844 233.79 82.3585C233.721 81.4451 232.687 81.5819 232.095 80.9619C231.659 80.5065 229.747 80.1653 229.847 80.8835C229.894 81.2314 230.267 81.5951 231.718 82.1249C232.467 82.3983 232.242 83.2241 232.031 83.4936C231.82 83.7631 231.771 84.1402 231.437 84.3765C230.219 83.4339 230.469 83.0608 229.317 82.1195C227.513 80.6392 230.558 76.1107 232.581 77.3202C234.528 78.4269 236.226 79.9146 237.57 81.692Z" fill="#FDE6B9"/>
  <path d="M84.2145 44.3203C86.7017 45.6214 86.0846 44.5394 84.4834 48.2342C84.1002 48.0881 83.6001 46.8933 82.9131 45.956C82.4735 45.3559 82.3014 45.4554 81.6211 44.5248C82.5582 44.3535 83.4522 44.6575 84.2145 44.3203Z" fill="#FDE6B9"/>
  <path d="M88.4531 45.1291C90.8731 40.2461 90.0745 40.7652 90.0745 36.9297C93.6816 37.0863 91.9325 46.6652 88.4531 45.1291Z" fill="#FDE6B9"/>
  <path d="M88.8809 39.2801C88.9727 40.0306 88.9061 40.7917 88.6854 41.5156C88.4646 42.2395 88.0945 42.9103 87.5983 43.486C87.0605 44.2148 86.676 43.5616 85.6717 43.2669C85.9043 42.6031 87.2528 39.9771 86.9745 38.7012C86.7037 37.2987 86.21 35.9473 85.5117 34.6971C85.715 34.618 85.9339 34.5854 86.1518 34.6018C86.3697 34.6181 86.5811 34.6829 86.7701 34.7913C88.737 35.9411 88.5824 37.1784 88.8809 39.2801Z" fill="#FDE6B9"/>
  <path d="M82.9115 33.7006C84.5732 35.7067 85.845 37.8535 85.3435 40.0148C84.5853 43.2835 83.5958 42.8029 82.203 42.8029C83.1824 41.3476 83.6108 39.5978 83.4129 37.8614C82.8527 36.2018 81.7444 34.7758 80.2656 33.8122C80.3248 33.467 80.4444 33.3063 80.8115 33.2811C81.6934 33.2041 82.5377 33.1205 82.9115 33.7006Z" fill="#FDE6B9"/>
  <path d="M99.1424 94.2019C103.176 107.478 106.552 111.243 104.716 115.852C104.324 117.142 104.054 118.466 103.91 119.805C103.619 122.048 104.515 122.625 102.75 125.355C101.746 126.642 100.347 127.574 98.762 128.01C98.4662 127.58 97.9876 122.519 97.2683 117.042C94.7609 97.9392 96.3043 101.206 82.4795 99.7062C81.5237 93.3111 82.3209 90.0531 80.9173 67.5086C80.1523 55.2334 79.5729 57.2979 75.8757 52.7853C75.2898 51.5739 74.5923 50.4185 73.7918 49.3334C72.9126 48.4811 70.6916 46.3821 70.4307 44.8288C69.6617 40.3149 71.8222 40.6375 73.1492 38.6128C74.146 37.092 75.3073 35.6826 76.6124 34.4096C76.9186 34.1438 77.3099 33.9932 77.7174 33.9845C78.1251 33.9757 78.5226 34.1094 78.8402 34.3618C80.2236 35.1823 82.7108 37.3622 82.5723 38.6859C82.368 40.6561 81.443 43.0392 79.5621 42.7882C78.7743 42.6833 77.5199 41.8443 77.7458 41.0929C78.0147 40.1834 79.0835 38.654 78.1384 38.4721C77.0117 38.6686 76.8773 39.8661 76.7697 41.0291C75.6028 39.8887 74.3646 41.0212 75.6566 42.1762C77.5051 43.8264 79.788 44.9775 80.5059 45.7754C85.2598 51.0593 85.0582 54.1686 85.8958 56.7522C87.8842 57.0297 86.5102 51.8732 85.9321 50.3159C85.8561 49.472 85.9919 48.6228 86.3274 47.843C86.663 47.0635 87.188 46.3775 87.8559 45.8458C89.9129 46.8322 91.0086 46.4751 92.1931 44.3336C94.0753 40.9442 91.1081 40.3228 95.0083 31.5618C95.4237 30.6325 95.9965 29.1097 97.7321 29.3593C98.2202 29.431 98.4044 29.8983 98.2699 30.5382C96.8062 34.5678 95.8095 38.7481 95.2987 42.9993C94.285 52.7083 90.3472 51.7816 92.0721 61.0763C93.4097 72.3065 95.7761 83.3938 99.1424 94.2019Z" fill="#FDE6B9"/>
  <path d="M245.431 155.906C253.754 156.039 254.218 155.662 256.005 156.499C255.941 157.747 255.66 157.786 237.753 157.269C231.643 157.093 233.437 156.814 231.837 158.913C230.646 160.473 231.194 162.701 228.448 164.176C225.517 165.752 222.667 167.612 215.407 166.208C204.826 164.164 206.668 162.042 203.924 160.591C202.963 160.081 202.381 158.585 202.089 158.017C201.417 156.722 170.629 157.79 170.495 157.788C170.464 157.788 156.03 157.39 149.536 157.39C149.47 161.073 149.267 160.651 144.36 161.804C132.407 164.616 105.708 171.609 102.874 171.677C102.278 171.69 67.5071 168.705 66.3912 168.686C65.032 168.663 39.8185 167.339 32.6796 166.216C27.8705 165.459 29.3844 161.234 28.2712 157.814C23.325 157.814 31.4467 157.787 19.7233 157.934C13.0522 158.018 14.3899 157.814 7.70003 157.741C3.24053 157.693 1.84098 158.191 0.682077 157.552C0.0676714 155.03 1.21985 156.756 24.3723 156.24C30.8834 156.096 27.123 161.649 20.8042 104.33C19.8107 95.3209 22.0478 96.4587 43.2078 97.8089C45.2742 97.9417 45.3509 98.1182 45.5902 98.0744C49.7297 97.2778 78.3432 99.6676 80.7538 99.7605C80.372 95.5984 80.415 85.9718 79.3193 67.5629C79.0827 63.58 79.3099 61.7213 78.5718 58.2695C78.2128 56.594 77.0418 56.1626 74.1257 52.5089C74.1042 52.4797 69.958 47.144 69.7604 46.6833C68.1914 42.8996 69.3342 39.692 71.5874 38.2077C72.2597 37.7696 71.6251 38.0166 73.0663 36.4407C74.6622 34.7041 75.6786 32.1604 78.5503 32.9583C80.0049 31.7926 80.0023 31.7369 81.6425 31.5935C82.2147 31.6159 82.7749 31.7618 83.284 32.0207C83.7932 32.2796 84.2387 32.6455 84.5895 33.0924C85.3995 32.9572 86.2307 33.0196 87.0108 33.2741C87.7908 33.5286 88.4961 33.9677 89.0651 34.5528C89.9 35.5126 90.2267 35.2166 91.9422 35.8313C92.8644 34.035 92.211 33.8691 94.2277 30.1597C95.4874 27.8522 98.1884 27.7487 99.0959 28.7152C100.693 30.4159 98.8969 31.6094 97.3145 39.6841C96.3277 44.729 97.7178 44.3069 94.4697 52.1266C93.9946 53.2592 93.6395 54.4373 93.4103 55.6421C92.9438 58.1553 93.1535 58.8988 94.6848 68.613C95.6009 73.9948 96.8128 79.3233 98.3148 84.5751C99.2567 88.8365 100.424 93.0464 101.81 97.1876C105.844 94.9001 105.709 97.8235 108.085 95.4258C108.745 94.7261 109.573 94.2025 110.493 93.9038C111.413 93.6051 112.395 93.5408 113.347 93.7171C118.961 95.5121 111.455 97.6549 126.879 88.0442C139.414 80.2324 144.479 72.349 157.646 71.2285C162.501 70.8142 167.298 71.7064 169.305 70.9138C168.22 66.9628 165.063 71.4449 160.707 67.004C159.532 65.8091 160.399 65.6445 156.963 67.535C155.493 68.4612 153.813 69.0093 152.073 69.1296C150.334 69.25 148.593 68.9387 147.006 68.224C141.204 65.2356 145.537 66.0375 148.383 63.1658C146.251 63.5671 144.047 63.3886 142.009 62.6493C140.026 61.9988 135.859 59.1497 136.046 57.3216C136.9 56.2077 137.391 57.153 141.787 56.0617C143.115 55.7324 139.151 55.8824 136.522 52.9205C131.304 47.0391 141.662 52.8608 146.612 44.2471C147.365 42.7997 147.732 41.1868 147.678 39.5606C147.795 33.3048 143.969 25.8515 147.626 21.3575C147.262 18.8562 147.56 16.3045 148.49 13.9507C149.421 11.5966 150.952 9.52064 152.936 7.92457C154.304 6.61805 155.998 5.69389 157.846 5.24674C159.181 5.11398 158.713 3.97089 161.789 2.35252C171.629 -2.82523 178.4 2.12682 183.581 2.34455C202.036 3.11856 208.706 17.1715 207.553 35.2365C207.207 40.6585 207.905 47.0205 212.37 50.2228C214.35 51.9858 215.563 51.4614 215.43 52.6802C213.722 55.1084 209.612 53.5007 213.019 55.1615C215.241 56.2435 215.708 56.071 218.461 56.2568C218.643 56.2808 218.814 56.356 218.953 56.4732C219.093 56.5905 219.195 56.7449 219.249 56.9181C219.303 57.0914 219.304 57.276 219.255 57.4502C219.203 57.6244 219.104 57.7807 218.967 57.9004C216.192 60.9155 214.831 62.3068 209.189 63.1074C208.557 64.9037 204.494 65.4971 202.761 65.5183C201.628 65.529 202.943 66.4995 197.001 66.846C197.214 67.6027 198.812 68.3781 199.287 70.5381C199.346 70.9559 199.489 71.3578 199.706 71.7206C199.924 72.0835 200.213 72.4 200.556 72.6517C201.258 73.265 200.759 73.6487 201.363 73.6833C202.914 73.7735 204.448 74.0464 205.934 74.4958C215.22 77.2838 217.116 76.7527 221.757 78.6114C225.19 79.9908 222.042 73.8134 226.073 72.2481C226.356 72.0851 226.684 72.015 227.009 72.0479C227.336 72.0808 227.642 72.215 227.886 72.4313C228.692 73.1588 229.029 74.821 229.609 75.9761C232.336 75.4251 232.399 74.9219 235.99 78.01C238.995 80.5949 240.964 81.9663 239.476 85.3451C236.08 93.0878 238.515 87.9579 236.362 92.8197C235.096 95.6807 233.742 97.5752 232.867 100.52C233.752 103.706 234.106 105.04 233.589 113.28C233.62 116.208 232.507 127.828 232.556 132.113C232.648 135.229 233.211 138.315 234.226 141.266C237.445 148.303 234.158 153.99 233.711 155.651C258.719 156.011 246.036 155.906 245.431 155.906ZM235.806 90.0144C237.094 85.4142 240.018 84.3547 237.57 81.6915C236.224 79.9137 234.525 78.4259 232.577 77.3196C230.553 76.1101 227.508 80.6387 229.312 82.119C230.464 83.0629 230.214 83.436 231.432 84.376C231.766 84.1396 231.817 83.7599 232.027 83.4931C232.236 83.2262 232.462 82.3978 231.713 82.1243C230.263 81.5933 229.889 81.2308 229.842 80.883C229.742 80.1607 231.654 80.5059 232.09 80.9613C232.683 81.5813 233.717 81.4446 233.785 82.358C233.92 84.0839 232.786 84.5539 233.113 85.446C233.151 85.5497 233.157 85.6622 233.132 85.7694C233.106 85.8767 233.048 85.9743 232.968 86.0501C232.037 86.917 229.861 84.8048 229 83.7931C225.455 79.6337 226.543 79.8102 224.784 79.4783C224.752 79.4783 223.164 79.6191 222.738 80.575C222.312 81.5309 222.249 80.9998 222.458 82.0778C222.84 84.0348 225.752 86.5413 227.111 88.1252C227.621 88.7186 226.938 89.4077 226.281 88.9656C224.226 87.1498 222.36 85.1364 220.709 82.9554C220.274 82.4243 218.702 82.4177 217.581 84.0626C217.227 84.5831 218.522 86.8268 218.887 87.3419C220.11 89.0678 223.545 91.269 221.247 91.7642C220.967 91.8253 220.654 91.5943 219.466 90.3675C216.486 87.2954 216.777 85.9054 215.606 86.2041C214.314 86.5347 214.178 86.5493 213.76 87.2914C213.057 88.5367 213.611 89.324 214.476 90.6105C216.739 93.9561 216.09 94.5642 216.036 98.1899C216 100.58 216.439 100.918 216.087 102.704C215.873 103.699 215.931 104.732 216.256 105.697C216.58 106.662 217.16 107.524 217.934 108.195C218.17 108.383 218.348 108.63 218.451 108.912C218.554 109.192 218.577 109.495 218.518 109.788C218.323 110.141 218.042 110.165 217.371 109.974C214.817 146.067 210.989 140.971 214.65 146.142C216.828 149.219 215.35 150.656 220.661 152.232C221.801 152.572 222.274 151.892 222.894 151.644C227.414 149.825 226.536 150.506 227.581 149.821C227.849 145.911 227.852 141.988 227.59 138.077C227.251 133.032 228.151 111.34 228.281 110.42C229.74 100.147 234.715 93.9123 235.806 90.0144ZM231.108 128.092C231.646 121.767 232.648 105.375 231.743 102.624C229.42 109.395 229.67 111.837 229.457 117.105C229.038 125.011 229.059 132.934 229.523 140.839C229.625 143.32 229.342 144.602 230.146 145.376C231.625 146.805 230.507 149.306 229.159 150.82C227.711 152.438 225.434 152.368 223.57 153.49C220.498 155.338 215.627 152.893 214.636 150.171C212.807 145.149 209.134 143.912 210.457 140.172C211.458 139.907 211.162 139.787 211.703 140.816C213.094 138.813 216.431 109.467 215.736 108.455C214.634 106.863 214.178 104.92 214.459 103.012C214.718 102.012 214.736 100.966 214.513 99.9583C214.359 94.7434 215.162 94.4115 214.487 93.5233C213.768 92.5767 212.988 90.9689 212.41 90.1339C212.122 89.6943 211.942 89.1943 211.884 88.6739C211.827 88.1535 211.892 87.6269 212.078 87.1361C212.262 86.6454 212.561 86.204 212.948 85.8468C213.335 85.4898 213.803 85.2271 214.311 85.0796C214.714 84.9747 215.118 84.8645 215.534 84.7477C215.625 84.7223 215.707 84.6741 215.771 84.608C215.837 84.5419 215.884 84.4601 215.907 84.3707C216.134 83.351 216.748 82.4562 217.624 81.8713C218.5 81.2862 219.569 81.0556 220.612 81.2268C220.837 81.2361 220.832 81.0808 221.204 80.2975C217.411 77.9901 211.097 78.1042 205.864 76.0823C205.798 76.057 202.335 75.3574 201.606 75.3215C200.727 78.9234 200.517 81.5229 197.144 84.9681C195.554 86.5931 195.619 87.545 193.337 90.1272C189.852 94.0676 191.286 93.8446 187.365 95.7497C184.146 97.311 184.945 91.1761 183.415 88.6695C177.336 90.187 179.233 89.8073 175.77 89.0904C174.676 88.8 173.616 88.389 172.615 87.865C171.963 88.4358 172.046 91.3951 171.414 93.8061C171.121 94.924 169.753 94.8377 169.009 93.9495C164.271 88.2845 160.909 81.3583 164.572 75.0281C166.636 71.4688 169.435 72.8455 162.511 72.584C161.461 72.5442 158.938 72.6344 158.004 72.6676C150.034 72.9544 145.425 76.8138 139.316 81.2003C136.493 83.2236 126.658 90.1246 121.75 93.6959C120.296 94.623 118.894 95.6259 117.548 96.7003C116.949 97.2725 118.831 97.2977 120.506 107.081C121.018 110.076 121.752 109.087 121.888 110.829C122.083 112.215 122.173 113.614 122.157 115.014C122.155 115.121 122.132 115.227 122.088 115.326C122.045 115.424 121.983 115.513 121.904 115.588C121.826 115.663 121.734 115.721 121.633 115.761C121.532 115.8 121.423 115.819 121.315 115.818C121.206 115.815 121.099 115.793 120.999 115.75C120.899 115.707 120.809 115.646 120.733 115.569C120.658 115.49 120.598 115.4 120.558 115.3C120.518 115.199 120.499 115.093 120.501 114.986C120.171 111.365 120.296 111.065 119.807 110.411C118.442 108.583 118.796 103.915 116.428 98.636C115.993 97.7064 115.334 96.896 114.508 96.2755C112.895 95.0209 111.926 94.4526 108.688 97.2048C105.826 99.6344 105.385 96.9393 102.519 98.9892C103.257 100.829 103.968 103.111 104.873 104.856C106.813 105.269 107.308 109.901 107.024 111.246C106.908 111.794 107.117 112.494 107.004 112.972C104.472 123.561 106.332 122.069 104.873 124.92C102.917 128.752 101.938 128.917 98.9225 130.009C101.061 132.108 103.73 133.399 106.403 132.184C107.65 131.679 108.799 130.966 109.802 130.077C110.753 129.134 111.508 128.015 112.024 126.786C113.917 121.267 112.098 118.687 113.748 119.218C114.689 119.524 114.815 121.101 114.815 121.762C114.815 130.281 108.506 131.397 115.143 129.498C116.084 129.232 116.537 128.366 116.838 128.084C118.272 126.747 119.237 126.151 119.749 124.4C120.06 123.338 120.002 122.559 120.526 121.888C120.628 121.738 120.781 121.63 120.958 121.585C121.134 121.54 121.322 121.56 121.484 121.642C121.647 121.723 121.773 121.861 121.84 122.029C121.907 122.197 121.909 122.383 121.846 122.552C121.157 124.825 121.403 124.278 124.479 122.363C125.7 121.604 124.912 122.296 129.149 118.779C135.711 113.335 131.505 117.071 137.654 112.539C142.28 109.124 140.074 110.027 145.424 107.003C154.015 102.148 150.161 108.492 152.469 95.5466C153.131 91.8293 153.212 92.2926 154.117 92.1519C154.599 93.1901 154.464 93.3852 153.103 103.544C150.594 122.28 149.18 119.921 152.858 139.089C153.598 142.939 153.396 140.651 155.346 146.246C155.928 147.914 156.182 149.675 156.092 151.436C155.982 153.612 155.457 155.809 156.057 155.831C181.393 156.769 173.713 155.091 200.547 156.106C201.474 156.142 201.247 156.328 200.828 154.541C199.693 149.704 199.768 147.49 202.229 143.166C203.076 141.676 204.425 141.075 204.191 139.223C204.335 138.448 204.549 137.685 204.829 136.947C204.809 136.319 204.87 135.693 205.012 135.081C206.24 123.872 202.323 104.836 206.222 105.042C206.535 106.044 206.179 107.025 206.055 109.781C205.954 112.003 206.816 123.164 206.808 130.571C206.808 135.944 206.896 134.19 207.733 133.567C208.65 132.883 209.022 134.364 208.354 135.259C207.366 136.258 206.571 137.428 206.012 138.71C205.637 139.98 205.877 141.332 204.982 142.397C203.783 143.832 202.073 146.728 202.098 147.632C202.225 152.003 201.474 152.677 204.099 158.015C204.833 159.509 205.397 158.695 207.278 161.105C208.776 163.023 220.846 167.819 228.276 161.992C229.486 161.048 228.657 160.98 230.806 157.079C238.608 142.873 229.769 143.993 231.108 128.092ZM227.605 79.3376C227.765 78.5226 228.083 77.7463 228.546 77.0528C228.212 76.0544 227.874 75.1131 227.59 74.1585C227.046 72.3676 224.601 73.8041 225.036 77.7431C226.028 78.0223 226.919 78.5756 227.605 79.3376ZM217.09 57.7106C214.343 57.6447 211.71 56.6122 209.666 54.7991C208.163 53.3825 206.864 51.7685 205.808 50.0024C205.51 49.381 205.576 49.2868 206.211 48.8911C207.38 49.4222 208.9 53.8804 213.033 52.4425C198.792 42.2809 213.119 30.1477 200.566 11.4096C198.339 8.68569 195.457 6.55631 192.182 5.21621C185.839 2.80524 184.322 4.62276 179.055 2.88357C166.539 -1.24934 158.978 4.70242 158.458 8.3348C158.274 9.6226 157.912 9.43939 157.299 9.43939C156.582 8.26975 157.607 6.81732 157.115 6.97797C153.492 8.16088 149.033 13.551 148.947 18.8642C148.848 25.0802 152.642 27.0424 153.688 26.7357C153.42 25.4292 153.579 24.0724 154.141 22.8604C151.651 16.4174 153.399 14.5959 154.187 15.3991C154.187 20.5277 155.441 25.1532 160.663 25.2235C161.633 25.2381 160.897 25.2381 159.949 22.6413C159.129 20.3963 158.739 15.6195 159.48 13.5962C160.082 13.5152 160.315 13.7993 160.472 15.0831C161.027 19.6528 165.017 24.2291 169.076 22.3492C167.943 20.3218 167.21 18.101 166.913 15.804C166.604 13.4292 166.792 11.0167 167.468 8.71716C169.242 7.97236 168.544 9.77926 168.401 10.6555C167.581 15.812 169.357 23.9118 174.229 22.6387C173.674 20.4584 173.479 18.2037 173.654 15.962C173.654 15.1469 174.181 11.9433 174.722 11.4481C175.313 11.541 175.932 11.1826 175.604 12.8766C175.042 15.8346 174.47 18.0212 176.312 20.1321C177.436 21.4284 178.967 22.3163 180.661 22.6546C180.007 17.6747 182.14 16.6258 183.327 11.0485C183.581 9.85361 183.7 10.0541 184.403 10.2346C184.95 10.9701 184.013 14.0197 183.831 14.491C183.127 16.3178 185.499 25.5103 185.579 26.5472C186.261 35.4941 185.895 35.98 183.778 44.664C184.486 45.1632 188.908 37.3979 190.365 29.4972C190.451 29.0103 190.692 28.5632 191.054 28.2213C192.198 28.5559 192.195 27.7261 190.575 34.2434C190.453 34.736 190.653 34.5329 191.093 34.278C192.1 33.8247 193.246 33.777 194.29 34.1452C195.294 34.4107 194.663 34.8515 195.075 33.4548C195.398 32.0949 195.54 30.6995 195.498 29.3033C195.794 21.9722 192.721 19.6117 193.885 18.1141C194.895 18.134 195.498 20.6087 196.101 22.1156C197.561 25.7772 196.885 31.2762 196.181 35.1263C197.305 36.6066 197.987 37.4444 197.122 41.491C196.575 43.6527 195.653 45.7046 194.396 47.5556C193.812 48.1955 194.364 49.6041 194.716 50.556C196.195 54.5681 197.754 55.0128 197.385 55.8811C197.1 55.9689 196.793 55.9601 196.513 55.8565C196.234 55.7529 195.996 55.5602 195.84 55.3089C192.947 51.5676 193.531 51.1269 192.726 49.1182C189.584 50.394 189.615 48.3959 189.634 53.2484C189.649 56.9829 190.238 60.6935 191.382 64.2531C194.083 65.4339 197.1 65.7113 199.975 65.0431C198.385 64.447 195.27 63.1538 194.509 61.6709C195.064 59.9755 196.391 62.4223 200.095 63.5588C202.395 64.2292 204.86 64.0961 207.073 63.1817C205.149 63.0475 203.284 62.4671 201.629 61.4877C199.819 60.6274 199.869 58.3585 201.512 59.6409C205.588 62.8392 212.808 62.4768 217.09 57.7106ZM196.965 82.5717C198.182 81.252 200.379 76.5416 199.555 74.2236C199.217 73.2704 198.076 73.2757 197.839 71.7635C197.352 70.0332 196.324 68.4994 194.9 67.3823C195.767 72.9584 191.063 76.0039 188.193 79.562C187.741 80.4301 187.184 81.2414 186.536 81.9783C185.293 83.1243 183.787 83.9572 182.148 84.4065C180.879 84.5738 180.441 86.8958 180.716 87.4016C182.322 88.003 181.699 85.7886 182.831 85.7726C185.494 85.7341 186.246 93.3003 186.795 94.053C187.566 93.8391 188.28 93.4561 188.881 92.9325C190.642 91.0406 191.224 89.6905 192.398 88.5713C194.349 86.7059 193.072 86.7909 196.965 82.5717ZM189.321 47.7255C192.951 50.3051 198.257 38.6432 194.983 36.1234C194.446 35.6801 193.771 35.4315 193.07 35.4189C192.37 35.4064 191.686 35.6305 191.132 36.0543C187.974 38.1108 188.03 44.0745 183.177 47.4055C183.023 47.5075 182.837 47.5484 182.652 47.5201C182.47 47.4917 182.304 47.3964 182.19 47.2529C181.288 46.3594 183.916 43.185 184.493 31.7316C184.746 26.6866 182.947 20.938 182.543 18.5549C180.375 22.2218 184.86 25.0045 180.734 24.2876C178.78 23.9039 176.978 22.9836 175.531 21.6323C175.648 23.0263 176.368 24.0433 174.954 24.1721C173.54 24.4414 172.074 24.2412 170.786 23.6025C169.312 24.191 167.701 24.3639 166.133 24.1017C164.995 23.8975 163.923 23.4213 163.013 22.7146C162.103 22.0079 161.381 21.0921 160.912 20.0471C160.883 19.9635 160.165 19.1762 161.595 22.8351C162.056 24.0154 164.922 27.0145 160.346 26.6853C157.027 26.4476 156.683 25.8781 155.055 24.4389C154.82 26.7862 156.595 28.7311 153.123 28.1934C152.725 29.1556 152.538 30.1899 152.575 31.2284C153.465 30.4424 155.188 28.5015 157.29 29.9472C158.133 30.5274 157.827 31.9281 157.092 31.8351C156.628 31.8072 153.462 31.9055 152.826 33.7748C152.619 34.3842 152.388 34.2381 152.334 34.9803C152.259 36.6976 152.354 38.418 152.619 40.1169C152.931 45.4592 151.158 45.9465 153.036 51.3539C153.618 52.9707 154.335 54.5373 155.178 56.0378C157.22 59.7671 160.052 64.6873 162.515 66.7198C164.801 68.6038 168.315 67.7036 170.975 66.4171C178.073 62.9813 180.023 59.5015 182.297 57.8062C182.445 57.6861 182.632 57.6239 182.823 57.6314C183.014 57.639 183.196 57.7157 183.334 57.847C183.471 57.9784 183.554 58.1551 183.569 58.3435C183.583 58.5317 183.526 58.7186 183.409 58.8683C175.452 69.2901 173.522 69.8876 171.578 72.0861C171.175 72.5402 172.413 77.3316 172.488 77.5772C172.616 78.9865 172.865 80.3825 173.232 81.7499C174.412 83.2461 175.218 83.4838 175.551 85.1924C175.972 87.3459 174.642 87.3074 177.95 87.9579C179.16 88.1955 178.721 87.8902 179.071 86.0992C179.228 85.2947 179.609 83.6697 180.365 83.3245C181.28 82.9089 184.33 82.0685 185.977 79.9045C186.469 79.2593 186.672 78.4162 187.361 77.9038C188.112 76.8417 191.187 74.0059 191.596 73.1615C192.928 70.4 193.164 74.4546 190.314 66.0401C187.234 56.9445 188.447 49.9015 188.035 48.6031C187.974 48.4372 187.97 48.2557 188.023 48.0873C188.077 47.9187 188.186 47.7726 188.334 47.6721C188.48 47.5716 188.658 47.5222 188.837 47.5319C189.016 47.5416 189.185 47.6097 189.321 47.7255ZM173.298 86.3276C173.924 87.5052 174.605 85.612 173.682 84.5446C172.927 83.671 168.447 79.25 170.669 76.0159C170.349 74.8277 170.04 73.666 169.687 72.349C164.625 75.6813 163.658 79.1597 165.259 84.8486C165.562 85.9226 168.573 91.6075 170.008 92.5117C171.004 89.474 170.199 89.5909 171.503 86.1497C171.773 85.4341 172.712 85.2243 173.298 86.3276ZM156.358 66.1941C157.132 65.7759 158.182 65.0457 158.922 64.5651C149.15 50.236 150.705 48.7889 151.363 41.6091C151.736 37.5652 150.083 39.0773 151.514 27.6797C149.894 26.6526 148.701 25.0851 148.153 23.2626C144.512 29.5516 157.833 47.6591 136.966 51.2424C142.19 57.3256 147.049 52.6722 147.637 54.8084C147.262 55.1881 147.666 55.2067 144.328 56.6153C141.409 57.8447 142.17 57.4119 138.144 58.1553C138.533 59.0913 141.38 60.5915 141.408 60.6114C143.091 61.5146 144.981 61.978 146.897 61.9576C150.705 61.2275 149.714 61.3815 150.5 61.3815C150.523 61.4173 150.988 61.959 150.812 62.3334C149.513 65.1041 146.365 66.0043 146.767 66.291C148.951 67.8563 152.173 68.463 156.358 66.1941ZM154.019 155.769C154.288 150.787 154.743 150.675 153.708 147.157C151.905 141.027 151.89 144.061 150.046 134.332C146.576 116.024 152.477 105.672 150.157 106.577C141.323 110.019 126.72 124.18 120.841 126.56C114.387 134.353 111.095 131.613 109.398 132.745C107.54 133.958 105.307 134.481 103.096 134.22C101.725 134.1 100.418 133.592 99.3312 132.76C99.3312 133.469 101.582 151.559 102.177 153.175C103.463 153.499 144.321 153.308 146.822 153.698C149.449 154.106 149.278 154.78 149.556 155.699C151.03 155.967 152.537 155.992 154.019 155.774V155.769ZM148.134 157.851C148.252 155.906 148.259 156.497 148.035 155.801C141.478 157.792 105.353 165.821 105.323 165.827C103.979 166.178 104.021 165.048 104.752 169.849C105.114 169.829 128.96 163.842 128.988 163.834C150.036 158.136 148.01 159.901 148.134 157.856V157.851ZM108.169 163.629C150.104 152.904 154.136 155.101 130.218 154.999C114.769 154.929 129.101 154.699 111.028 154.813C98.2556 154.893 103.382 152.964 103.76 163.738C103.815 165.235 103.832 164.743 108.169 163.634V163.629ZM104.717 115.847C106.552 111.239 103.182 107.473 99.1429 94.1977C95.7738 83.3909 93.4041 72.3045 92.0632 61.0748C90.306 51.7814 94.2788 52.7107 95.2898 42.9978C96.3304 33.0406 99.0542 30.4265 97.5753 29.8357C96.4473 29.383 95.7482 30.4796 95.3328 31.4116C93.2516 36.0862 93.175 36.7819 93.2032 38.5529C93.2274 40.1023 93.3162 42.885 92.4436 44.4662C91.2592 46.6076 89.8892 46.8307 87.8376 45.8442C87.1697 46.376 86.6447 47.0619 86.3091 47.8415C85.9735 48.6212 85.8378 49.4705 85.9137 50.3144C86.4918 51.8717 87.8658 57.0282 85.8774 56.7507C85.0398 54.1671 85.2415 51.0578 80.4876 45.7739C79.7697 44.9773 77.4868 43.8249 75.6382 42.1747C74.3462 41.0196 75.5844 39.8872 76.7514 41.0276C76.859 39.8646 76.9934 38.6671 78.12 38.4706C79.0611 38.6525 78.5314 39.781 78.2545 40.6904C78.2002 40.868 78.1851 41.0551 78.2104 41.239C78.2357 41.4228 78.3006 41.5993 78.401 41.7561C78.5013 41.913 78.6347 42.0467 78.792 42.1483C78.9493 42.2498 79.1268 42.3167 79.3126 42.3446C81.1948 42.6101 81.2633 41.5202 81.867 39.1835C82.2609 37.6767 80.3209 35.5073 78.9375 34.6882C78.5688 34.4386 78.1293 34.311 77.6824 34.3242C77.2357 34.3373 76.8045 34.4904 76.4516 34.7612C75.2873 35.9148 74.2602 37.1958 73.3903 38.5795C72.101 40.5922 69.9311 40.0107 70.7552 44.8512C71.1586 47.221 75.899 52.0854 76.5645 52.8979C80.2658 57.4119 80.1461 55.2385 80.9111 67.5138C82.3147 90.0582 81.5174 93.3162 82.4733 99.7114C96.3035 101.212 94.7601 97.9443 97.2621 117.048C97.9814 122.524 98.46 127.585 98.7557 128.015C100.341 127.58 101.74 126.648 102.743 125.36C104.509 122.63 103.613 122.053 103.904 119.81C104.049 118.467 104.322 117.14 104.717 115.847ZM103.042 170.073C103.159 169.179 100.011 153.466 96.0413 120.337C93.6214 100.2 95.1984 102.033 82.6293 101.599C80.1313 101.513 68.3164 100.139 66.5633 100.139C62.0756 100.149 50.4301 99.5428 49.7418 99.3994C49.4971 99.3489 47.9833 99.6503 47.0811 99.633C45.4678 99.6025 49.6006 99.7273 37.295 98.9387C30.4061 98.4966 34.2754 98.9387 29.7178 98.6187C20.4009 97.9722 21.67 98.5112 23.0642 108.729C30.7275 164.818 29.9826 164.489 33.3679 164.816C37.1391 165.178 103.008 170.076 103.042 170.073ZM88.7908 44.6427C91.7405 46.2093 92.6319 39.0667 91.2982 37.5014C91.1459 37.3278 90.9587 37.1872 90.7486 37.0884C90.5386 36.9898 90.31 36.9351 90.0774 36.9279C90.0734 40.7647 91.2121 39.7597 88.7868 44.6441L88.7908 44.6427ZM87.6023 43.4837C88.0986 42.9081 88.4687 42.2372 88.6894 41.5134C88.9102 40.7896 88.9767 40.0283 88.8849 39.2778C88.5865 37.1762 88.7411 35.9388 86.7742 34.7891C86.5853 34.6806 86.3738 34.6158 86.1559 34.5995C85.9379 34.5832 85.7192 34.6157 85.5158 34.6948C86.2141 35.9451 86.7077 37.2965 86.9785 38.699C87.2568 39.9748 85.903 42.6048 85.6758 43.2647C86.676 43.5634 87.0551 44.2139 87.5983 43.4917L87.6023 43.4837ZM85.341 40.0133C85.8425 37.8519 84.5706 35.7052 82.9089 33.6991C82.5352 33.1203 81.6909 33.2039 80.8049 33.2769C80.4378 33.3075 80.3195 33.4681 80.259 33.808C81.7378 34.7716 82.8461 36.1976 83.4064 37.8572C83.6043 39.5936 83.1758 41.3435 82.1964 42.7987C83.5892 42.8053 84.5895 43.2832 85.341 40.0133ZM84.4873 48.2313C86.0845 44.5365 86.7016 45.6185 84.2184 44.3175C83.4561 44.6547 82.562 44.3507 81.629 44.5219C82.3093 45.4513 82.4814 45.353 82.921 45.9531C83.604 46.8904 84.1041 48.0866 84.4873 48.2313Z" fill="#1B1B1D"/>
  <path d="M205.396 57.2761C202.762 55.7796 200.836 53.3142 200.037 50.4189C200.022 50.3725 200.017 50.3238 200.021 50.2753C200.026 50.2269 200.04 50.1799 200.063 50.1367C200.085 50.0937 200.116 50.0555 200.154 50.0244C200.192 49.9934 200.236 49.97 200.283 49.9555C201.685 49.5307 200.149 50.9858 206.333 56.7809C205.991 57.2986 205.887 57.4858 205.396 57.2761Z" fill="#1B1B1D"/>
  <path d="M201.576 24.706C202.986 26.7067 202.705 34.9579 202.651 37.5349C202.498 44.9815 204.458 45.0691 202.462 45.6002C199.962 38.4018 202.31 32.4793 200.754 25.3592C200.59 24.6144 201.315 24.3356 201.576 24.706Z" fill="#1B1B1D"/>
  <path d="M191.796 37.6156C193.709 36.2269 195.991 39.7398 193.655 39.3654C193.485 39.1238 193.311 38.8769 193.128 38.622C192.951 38.5503 192.754 38.5439 192.573 38.6041C192.391 38.6643 192.238 38.7871 192.141 38.9499C189.919 42.1481 193.083 41.0263 192.59 43.4373C192.402 44.3666 192.42 44.8857 191.467 45.296C190.867 45.5615 190.567 45.4446 190.238 44.8565C190.092 44.0785 190.775 43.8236 191.148 43.3961C190.965 42.5889 189.622 42.2743 189.764 40.6639C189.883 40.0486 190.123 39.4625 190.472 38.9394C190.82 38.4162 191.27 37.9664 191.796 37.6156Z" fill="#1B1B1D"/>
  <path d="M179.763 92.3859C181.875 92.4842 184.129 90.9973 183.55 93.2848C180.324 94.311 171.593 94.3469 173.064 91.5004C173.329 91.4955 173.594 91.5336 173.846 91.6133C175.831 92.613 178.076 92.3076 179.763 92.3859Z" fill="#1B1B1D"/>
  <path d="M176.124 45.4718C172.311 42.6837 180.27 43.0156 179.322 49.2369C176.325 50.1477 179.486 43.2055 175.501 51.8563C172.908 57.4841 170.685 58.76 167.166 59.457C165.7 59.7491 163.536 59.7052 162.587 58.5436C163.134 57.1535 160.819 53.9115 159.619 51.5642C159.38 51.0969 159.275 51.1659 158.141 50.7995C158.087 50.3362 157.921 49.8702 158.735 49.7122C164.802 48.5611 164.15 48.131 167.794 47.3968C172.823 46.3825 174.943 46.3135 176.124 45.4718ZM175.891 47.6238C176.243 46.9945 175.427 47.5269 174.574 47.6915C168.939 48.7829 168.048 48.7536 165.609 49.5356C160.231 51.2615 160.319 50.1145 161.728 52.2134C165.288 51.6386 168.802 50.8129 172.242 49.7427C175.66 48.6793 175.169 48.909 175.891 47.6238ZM173.053 53.1494C170.62 52.3754 166.088 54.9019 165.64 58.047C167.214 57.9793 168.743 57.5076 170.076 56.6782C171.383 55.8004 172.414 54.5777 173.053 53.1494Z" fill="#1B1B1D"/>
  <path d="M179.883 28.7742C179.383 29.997 176.283 27.7891 172.135 28.9482C170.281 29.4659 169.177 30.4789 167.991 30.7232C166.806 30.9675 165.93 28.8937 167.234 28.3043C168.642 27.8104 170.085 27.4255 171.553 27.1532C173.259 26.6753 179.169 27.2422 179.883 28.7742Z" fill="#1B1B1D"/>
  <path d="M173.842 33.0817C175.398 33.3671 177.797 33.322 177.711 34.3442C177.701 34.4536 177.654 34.5564 177.576 34.6347C177.498 34.713 177.395 34.762 177.285 34.7731C175.814 34.931 175.518 34.3907 173.87 34.7598C171.688 34.6602 170.839 36.0051 169.254 35.8962C169.155 35.8837 169.061 35.843 168.984 35.7791C168.906 35.7151 168.85 35.6308 168.82 35.5359C168.791 35.441 168.789 35.3397 168.816 35.244C168.843 35.1482 168.897 35.0622 168.972 34.9961C170.454 33.8092 171.871 32.7219 173.842 33.0817Z" fill="#1B1B1D"/>
  <path d="M166.061 42.737C167.136 45.2808 160.227 47.0956 159.258 42.6282C158.502 39.1524 162.553 40.0034 162.595 37.6628C162.618 36.4427 162.883 35.9236 163.805 36.4042C164.96 40.3207 161.287 40.8717 160.826 41.6417C160.196 42.6905 163.084 44.7776 164.724 42.8499C165.082 42.4264 165.878 42.3188 166.061 42.737Z" fill="#1B1B1D"/>
  <path d="M159.638 36.8697C159.698 36.926 159.741 36.9966 159.765 37.0748C159.79 37.153 159.792 37.236 159.773 37.3155C159.756 37.3951 159.717 37.4686 159.661 37.5287C159.604 37.5888 159.534 37.6334 159.455 37.6583C157.035 38.4163 158.453 36.8205 154.892 39.4811C154.441 39.8183 154.255 39.7174 154.097 39.1532C153.663 37.5892 157.929 35.2739 159.638 36.8697Z" fill="#1B1B1D"/>
  <path d="M55.7357 122.292C67.0478 120.759 68.9609 140.426 58.1557 140.263C50.4777 140.148 47.0991 128.626 52.5669 124.097C53.435 123.219 54.5315 122.595 55.7357 122.292ZM63.8601 131.769C63.8448 130.367 63.4867 128.989 62.8163 127.753C62.1459 126.517 61.1831 125.46 60.0097 124.67C53.8159 120.853 48.4301 129.431 52.9581 135.689C57.2267 141.601 64.082 138.074 63.8601 131.769Z" fill="#1B1B1D"/>
</svg>
