<svg width="204" height="193" viewBox="0 0 204 193" fill="none" xmlns="http://www.w3.org/2000/svg">
  <path d="M84.0437 197.589C83.4886 194.53 83.7603 193.88 85.343 190.644C86.9258 187.408 86.3588 185.837 85.9927 183.699C85.7364 180.465 85.6419 177.221 85.7092 173.978C85.7092 173.978 109.616 168.627 141.224 190.443C171.934 211.645 183.745 212.401 183.745 212.401C183.745 212.401 185.777 221.744 184.572 222.949C183.368 224.154 176.517 224.98 166.253 222.205C155.988 219.429 145.511 223.386 135.33 223.315C125.148 223.244 112.888 220.445 104.324 222.205C95.7608 223.965 78.1261 221.189 78.1261 221.189C78.1261 221.189 81.835 208.787 82.8508 206.472C84.0623 203.678 84.4753 200.603 84.0437 197.589Z" fill="#00703F"/>
  <path d="M70.5665 134.383C70.7221 133.604 70.9719 132.846 71.3106 132.127C72.1832 129.878 72.8783 127.564 73.3894 125.206C73.5784 123.836 76.8148 118.839 77.3345 117.67C78.055 116.064 79.6968 114.764 82.1654 112.378C83.3466 111.197 84.8349 111.445 87.1381 110.559C90.5989 109.248 91.4139 108.197 96.4102 106.354C97.4246 105.92 98.3809 105.36 99.2568 104.689C102.8 102.527 99.9773 103.378 103.981 111.327C105.056 113.453 107.395 117.009 107.938 118.154C110.289 123.174 123.045 132.116 128.195 130.982C141.684 128.017 144.094 120.351 147.401 106.957C149.267 99.173 151.393 98.1808 150.141 93.3026C149.881 92.3104 156.047 95.7831 156.437 96.1256C158.185 97.5666 165.425 100.271 167.611 101.169C171.296 102.669 168.615 100.543 181.04 105.894C189.179 109.437 189.462 114.989 190.324 117.469C192.84 124.627 193.537 124.698 195.58 134.23C197.494 143.124 196.762 144.506 197.222 147.778C197.777 151.605 200.152 158.491 200.222 161.645C200.388 169.358 201.817 170.551 200.778 170.314C197.01 169.428 197.872 169.688 196.88 169.464C195.911 169.234 194.956 168.947 194.021 168.602C183.863 165.944 182.092 167.964 178.501 167.527C170.575 166.57 169.619 165.979 165.355 166.074C164.669 166.074 165.047 165.661 165.118 163.912C165.284 160.038 164.079 153.424 165.118 148.994C167.15 140.325 165.768 147.034 166.299 129.611C166.559 122.099 169.087 117.481 167.599 117.528C167.292 117.528 166.996 117.528 166.866 117.965C165.455 121.751 164.657 125.739 164.504 129.777C164.237 133.124 164.178 136.486 164.327 139.84C165.012 146.927 161.823 147.754 163.028 158.219C164.74 173.102 158.149 172.051 170.493 175.63C171.19 175.842 170.729 176.303 171.001 178.334C171.001 178.63 170.93 179.397 170.658 179.386L157.76 176.905C154.795 176.031 156.307 176.905 145.464 172.771C122.23 163.83 123.719 164.397 123.53 163.558C123.341 162.719 117.624 160.015 116.443 160.31C115.262 160.605 115.143 160.121 114.671 159.826C109.249 156.424 109.722 157.463 107.253 155.337C104.17 152.632 103.367 153.164 99.2923 150.317C96.0716 148.25 92.5979 146.607 88.9571 145.427C88.6618 145.321 88.5673 145.226 88.591 144.47C88.591 142.852 87.9531 139.132 87.9059 135.565C88.0454 134.085 88.1006 132.598 88.0713 131.112C87.9886 130.367 86.8901 130.604 86.7956 131.112C86.7011 131.619 86.3704 135.376 86.3468 136.013C86.0987 141.01 87.6815 145.097 86.5712 144.671C82.9096 143.23 80.6654 142.132 76.6022 142.498C74.8895 142.663 74.8777 142.84 74.7005 142.498C74.2399 141.529 73.0114 140.136 72.598 139.439C72.0771 138.286 71.4937 137.161 70.8499 136.072C70.5857 135.551 70.4868 134.962 70.5665 134.383ZM160.335 143.159C160.264 143.809 160.984 144.234 161.658 143.667C162.614 142.852 161.185 137.171 160.937 134.218C160.665 131.029 161.138 132.045 160.571 125.95C159.72 116.997 161.551 115.544 160.783 115.319C156.354 113.796 160.476 142.179 160.382 143.159H160.335ZM91.284 142.214C91.8155 142.333 92.0754 142.144 92.1817 141.553C93.9889 131.974 94.0597 132.104 93.1148 131.938C92.1699 131.773 92.1462 132.127 90.6698 140.844C90.6698 141.837 90.8115 142.073 91.3312 142.214H91.284Z" fill="#00703F"/>
  <path d="M164.622 169.833C164.704 171.014 164.48 170.955 165.531 170.825C167.055 170.636 168.213 171.108 170.539 171.215C173.251 171.223 175.959 171.377 178.654 171.675C182.351 172.431 185.257 170.14 193.076 172.738C195.993 173.707 199.206 173.423 201.746 174.51C202.183 174.699 202.147 174.676 201.509 171.734C201.38 171.132 196.915 171.167 195.391 170.471C191.958 169.256 188.343 168.633 184.702 168.628C179.977 168.734 182.056 169.644 172.984 168.179C170.406 167.642 167.774 167.408 165.142 167.482C164.799 167.47 164.87 167.553 164.622 169.833Z" fill="#28D27D"/>
  <path d="M90.3159 46.7202C89.7962 46.8974 89.938 46.7202 91.6507 52.0118C92.005 53.193 91.9341 53.9607 93.5523 53.9017C96.9409 53.2256 100.262 52.2452 103.474 50.9724C104.395 50.559 104.053 48.6101 103.923 47.7006C103.226 42.6098 103.096 43.1295 102.6 43.224C98.402 43.9898 94.2881 45.1607 90.3159 46.7202ZM99.9542 47.2045C99.4345 46.4958 99.4936 44.9839 100.639 45.043C100.854 45.0661 101.061 45.14 101.241 45.2588C101.422 45.3775 101.572 45.5375 101.679 45.7257C101.786 45.9134 101.847 46.1239 101.858 46.3399C101.868 46.5559 101.827 46.7712 101.738 46.9683C101.686 47.1526 101.582 47.3176 101.437 47.4428C101.292 47.568 101.114 47.6478 100.924 47.6722C100.734 47.6972 100.542 47.6663 100.369 47.5832C100.197 47.5001 100.053 47.3685 99.9542 47.2045Z" fill="#FDE6B9"/>
  <path d="M120.176 40.4929C121.983 40.3039 122.207 43.5758 120.459 43.186C118.711 42.7962 118.876 40.5874 120.176 40.4929ZM121.286 39.7842C118.092 40.1362 114.932 40.7445 111.837 41.6032C111.199 41.7568 111.388 41.6032 112.534 47.0602C112.793 48.3476 112.593 48.8555 113.715 49.0681C117.313 48.8879 120.879 48.3015 124.345 47.32C125.656 46.8358 125.278 43.4694 124.983 39.9378C124.877 39.4535 125.207 39.17 121.286 39.7488V39.7842Z" fill="#FDE6B9"/>
  <path d="M43.5302 134.983L42.9751 135.066C43.4594 135.879 43.9838 136.668 44.546 137.428C45.1839 138.338 45.9162 137.901 47.369 137.606C48.2539 137.415 49.1168 137.134 49.9439 136.767C50.3337 136.59 50.9716 136.401 50.2038 135.066C49.6841 134.168 47.9596 130.991 47.3218 130.141L46.6839 130.389C46.8899 130.585 47.0259 130.843 47.0711 131.123C47.1162 131.404 47.0681 131.692 46.934 131.943C46.8 132.193 46.5874 132.393 46.3289 132.511C46.0703 132.63 45.7801 132.66 45.5028 132.597L44.8649 132.952C45.0573 133.034 45.2243 133.166 45.3488 133.334C45.4733 133.502 45.5509 133.701 45.5736 133.909C45.6451 134.169 45.6257 134.445 45.5188 134.693C45.4118 134.94 45.2237 135.144 44.9854 135.27C44.7464 135.395 44.4719 135.435 44.2074 135.382C43.9429 135.33 43.704 135.19 43.5302 134.983ZM47.3454 136.519C46.9478 136.343 46.6355 136.017 46.4763 135.613C46.3171 135.208 46.3238 134.757 46.495 134.357C46.6043 134.108 46.7918 133.901 47.0292 133.768C47.2666 133.634 47.5409 133.582 47.8108 133.618C47.9898 133.643 48.1614 133.705 48.3139 133.802C49.7786 134.558 49.1289 137.157 47.3454 136.531V136.519Z" fill="#B5B6BA"/>
  <path d="M45.644 129.99C45.8404 129.978 46.0368 130.012 46.2174 130.09C46.398 130.168 46.5576 130.287 46.6835 130.439L47.3213 130.19C47.0815 129.778 46.6988 129.468 46.2464 129.316C44.5692 129.353 42.9096 129.664 41.3328 130.238C40.565 130.45 40.4824 130.687 40.9666 131.537C41.3446 132.198 42.2895 133.899 42.9746 135.08L43.5298 134.998C42.9982 134.289 43.0927 132.966 44.3211 132.919C44.5059 132.911 44.6905 132.939 44.8645 133.002C46.4 132.151 44.7464 133.356 44.4274 131.277C44.2857 130.391 44.9826 130.013 45.644 129.99Z" fill="#CACBCE"/>
  <path d="M116.195 175.938C116.195 177.119 117.932 176.788 117.802 175.938C117.731 174.615 116.195 175.146 116.195 175.938Z" fill="#1B1B1D"/>
  <path d="M119 167.456C119 165.244 115.963 165.728 116 167.732C116.019 169.373 118.963 169.564 119 167.456Z" fill="#1B1B1D"/>
  <path d="M120.813 173.504C119.313 173.504 119.278 176.126 120.636 176.102C122.313 176.067 122.526 173.492 120.813 173.504Z" fill="#1B1B1D"/>
  <path d="M123.984 172.418C124.032 171.076 123.581 169.766 122.727 168.761C121.872 167.756 120.679 167.132 119.394 167.019C118.11 166.905 116.833 167.312 115.829 168.154C114.824 168.995 114.169 170.208 114 171.539C114.375 181.599 124.453 178.327 123.984 172.418Z" fill="#1B1B1D"/>
  <path d="M115.369 172.03C115.382 172.523 115.578 172.994 115.918 173.352C116.258 173.71 116.719 173.929 117.211 173.967C117.691 173.932 118.138 173.713 118.46 173.356C118.781 172.998 118.951 172.53 118.934 172.05C118.918 171.569 118.715 171.114 118.369 170.78C118.024 170.446 117.562 170.258 117.081 170.258C116.195 170.281 115.38 171.463 115.369 172.03Z" fill="#1B1B1D"/>
  <path d="M113.667 177.851C112.604 179.576 111.388 179.316 116.325 180.745C117.187 180.745 117.79 180.592 118.132 179.8C118.475 179.009 118.557 178.95 117.648 178.726C113.833 177.757 114.329 176.777 113.667 177.851Z" fill="#B5B6BA"/>
  <path d="M117.483 164.408C117.483 165.082 117.483 165.212 118.085 165.223C119.364 165.373 120.616 165.699 121.806 166.192C122.231 166.322 122.125 166.369 122.278 165.294C122.309 164.946 122.22 164.597 122.027 164.305C121.834 164.014 121.548 163.796 121.215 163.688C116.597 161.786 117.731 161.715 117.483 164.408Z" fill="#B5B6BA"/>
  <path d="M36.9161 128.215C36.5263 129.916 39.6446 134.026 44.818 143.251C44.9243 143.44 45.0188 143.452 45.1133 143.251C45.8456 142.07 47.1449 141.55 48.2198 140.783C48.6342 140.385 49.0806 140.021 49.5545 139.696C51.0275 138.957 52.5374 138.295 54.0783 137.712C55.7674 137.145 57.1611 135.538 58.3305 136.271C60.1377 137.357 60.3621 140.145 58.9093 141.952C56.7123 144.716 55.3658 143.771 52.6019 146.677C49.5899 149.889 50.2395 149.039 51.7396 154.531C53.1098 153.858 54.6217 149.807 59.24 150.22C61.3416 150.293 63.3752 150.983 65.0867 152.204C65.8427 152.559 65.8427 152.204 71.465 151.378C76.0361 150.657 86.1705 152.476 76.5794 150.196C75.3983 149.913 66.197 150.775 63.7048 150.196C63.0716 149.976 62.5224 149.565 62.1331 149.019C61.7438 148.473 61.5336 147.82 61.5315 147.149C61.4255 146.611 61.4969 146.053 61.735 145.559C61.9731 145.065 62.365 144.661 62.852 144.409C63.1748 144.24 63.5302 144.144 63.8938 144.125C65.2716 144.078 66.6375 143.852 67.957 143.452C69.1381 143.121 69.4807 143.298 69.1381 142.861C67.0475 139.708 60.6692 127.648 57.9407 125.357C57.0194 124.577 55.8973 125.073 52.6727 125.475C39.9044 127.093 49.1293 125.475 37.92 127.306C37.6795 127.336 37.454 127.439 37.2744 127.602C37.0947 127.764 36.9696 127.979 36.9161 128.215ZM40.2233 132.763C39.4201 131.511 38.6524 130.27 39.7154 129.42C40.7785 128.569 45.1724 127.967 45.9283 128.014C46.3358 127.989 46.7428 128.071 47.1095 128.25C48.2906 128.947 49.3301 130.873 51.0546 134.357C51.2917 134.858 51.493 135.375 51.6569 135.904C51.754 136.06 51.8132 136.236 51.8301 136.419C51.8469 136.601 51.8208 136.785 51.7538 136.956C51.6875 137.126 51.5823 137.279 51.4466 137.402C51.3108 137.525 51.1483 137.615 50.9719 137.664C49.1258 138.503 47.1618 139.052 45.1488 139.294C44.0148 139.377 44.1448 138.916 40.2233 132.763Z" fill="#FFD200"/>
  <path d="M36.4905 123.812C36.1496 124.066 35.8676 124.391 35.6637 124.764C35.4598 125.137 35.339 125.55 35.3094 125.974C35.3779 126.511 35.5634 127.027 35.8527 127.486C36.1362 126.304 36.963 125.915 39.6324 125.525C43.3412 124.993 48.6447 124.426 51.9637 123.93C59.3223 122.749 58.5192 123.044 61.2476 126.93C69.5984 138.813 69.8347 143.301 71.9608 143.041C73.4608 142.864 73.39 143.667 69.315 136.403C67.8503 133.781 62.8422 124.852 60.7634 122.229C60.4123 121.742 59.9225 121.371 59.3578 121.166C57.6951 120.944 56.0073 120.996 54.3615 121.32C44.7232 122.572 38.0615 122.914 36.4905 123.812Z" fill="url(#paint0_linear_3901_16290)"/>
  <path d="M13.6584 66.0062C23.2848 68.0023 24.9739 68.4866 25.3637 67.1873C25.7535 65.8881 25.8952 65.203 24.1825 64.7187C21.0476 63.8481 17.8484 63.228 14.6151 62.8643C14.2255 62.7946 13.8291 62.7708 13.434 62.7934C13.0675 62.8933 12.7469 63.1171 12.527 63.4268C12.307 63.7365 12.2013 64.1129 12.2278 64.4919C12.2542 64.8708 12.4113 65.2289 12.6721 65.505C12.933 65.7811 13.2816 65.9582 13.6584 66.0062Z" fill="#00703F"/>
  <path d="M58.5306 71.8656C56.936 66.9875 49.5302 69.6923 52.235 74.228C54.0422 77.358 59.7472 75.5981 58.5306 71.8656Z" fill="#FFD200"/>
  <path d="M1.62236 88.4949C1.37431 90.1957 0.771927 92.4754 4.59888 93.6447C8.42585 94.8141 16.1034 95.2039 25.8598 96.8575C50.9122 101.086 35.5807 97.0701 47.0498 112.213C48.7507 114.445 51.9752 116.217 51.5146 115.425C49.4401 111.822 48.2727 107.768 48.1128 103.614C48.1719 97.7906 47.853 100.814 55.814 100.602C57.3259 100.602 58.1763 99.6568 58.7905 98.1331C59.7 95.8535 60.1134 91.8021 61.5544 84.0183C62.9246 76.5888 64.3065 72.0531 63.6569 69.3601C62.4757 64.4228 51.2429 64.7063 10.8826 57.2295C7.19743 56.5445 6.40606 57.2295 5.79185 58.4107C4.87054 60.1116 4.61069 63.4424 4.22091 67.2694C4.16185 68.5687 2.47279 82.9434 1.62236 88.4949ZM11.0716 65.604C10.8366 64.9982 10.7728 64.3393 10.8874 63.6997C11.002 63.0601 11.2905 62.4643 11.7213 61.9778C12.6544 61.0683 13.4812 61.0801 16.0207 61.4935C17.5326 61.7416 20.6745 62.1668 23.2612 62.8401C24.3763 63.0221 25.4442 63.4236 26.4031 64.0212C26.9937 64.4819 27.0764 64.789 27.1709 65.8402C27.2215 66.4524 27.112 67.0672 26.8531 67.6243C26.5943 68.1813 26.195 68.6615 25.6944 69.0175C24.3361 69.738 23.403 69.2183 20.3201 68.6986C15.3829 67.86 13.1032 67.4584 11.8984 66.667C11.6887 66.5647 11.5051 66.4156 11.3618 66.2314C11.2184 66.0471 11.1192 65.8325 11.0716 65.604ZM17.6389 80.1086C16.1034 79.648 15.4892 79.6834 15.69 78.6322C15.7609 78.2188 16.3869 77.9589 17.1192 78.1833C17.1192 78.1833 53.8769 85.3766 54.5383 85.4593C56.1329 85.6719 56.7353 85.4593 56.9007 86.357C56.9007 86.7704 56.9007 87.3255 56.062 87.3728C55.3732 87.4791 54.6721 87.4791 53.9832 87.3728C44.8883 85.79 18.5366 80.3921 17.5917 80.1086H17.6389ZM22.647 90.4556C22.5053 90.3395 22.4037 90.1817 22.3566 90.0047C22.3095 89.8276 22.3193 89.6403 22.3847 89.4691C22.45 89.2979 22.5675 89.1517 22.7206 89.051C22.8737 88.9503 23.0546 88.9004 23.2376 88.9083C35.0492 90.8572 47.6758 93.6329 53.3336 94.4125C54.1013 94.507 55.3061 94.5306 55.247 95.3928C55.247 95.7826 55.247 96.3378 54.6919 96.3968C52.7548 96.6094 38.1556 93.4794 30.36 91.9202C28.2221 91.495 23.0722 90.9517 22.647 90.4556ZM23.2848 75.8328C23.2258 75.5021 23.4856 75.3722 23.7337 75.2422C24.4613 74.9916 25.2478 74.9669 25.9897 75.1714C27.8677 75.4549 54.1722 80.8055 55.6841 81.0772C57.196 81.3488 57.5739 81.5024 57.5975 82.2583C57.6212 83.0143 57.066 83.2269 55.0817 82.9316C52.7193 82.5654 26.4031 77.1793 25.5527 77.0258C23.8045 76.7778 23.4856 76.9549 23.2848 75.8328ZM29.8639 86.9475C28.6001 86.7349 28.4938 86.5223 28.8599 85.5892C29.0489 85.1167 29.8285 85.2939 30.4899 85.3766C31.5884 85.5183 54.6092 89.6288 55.0344 89.806C55.4596 89.9831 55.6368 91.3178 54.8691 91.3533C52.9083 91.4714 31.8601 87.2783 29.8639 86.9475ZM50.298 72.7736C49.483 66.1946 60.1725 65.4622 60.1489 72.9626C60.1252 78.1361 51.172 79.9433 50.298 72.8091V72.7736Z" fill="white"/>
  <path d="M107.076 65.7116C109.232 66.2344 111.463 66.3704 113.667 66.1132C117.364 65.7234 116.407 65.6171 119.573 64.4832C121.025 63.9635 114.387 63.5383 114.245 63.5265C112.651 63.5383 111.104 63.2784 107.076 65.7116Z" fill="white"/>
  <path d="M80.4407 12.5377C80.3344 12.1124 80.2399 11.7935 80.1454 11.7935C80.0509 11.7935 79.791 12.5258 79.791 13.1637C79.8133 14.4503 79.9318 15.7335 80.1454 17.0024C80.6769 19.1285 81.7518 21.042 85.9449 23.6996C87.2323 24.5146 87.9765 24.8808 86.8662 25.3414C85.7559 25.8021 84.1377 25.8257 83.3227 28.6014C82.2597 32.1449 86.0866 36.4916 86.5591 36.8696C87.1851 33.8694 85.3779 28.9204 91.2837 22.0224C91.8389 21.3609 90.1026 20.8412 89.4647 17.6639C89.3702 17.1914 89.9136 16.8607 90.2679 17.6048C90.8018 18.8375 91.6097 19.9323 92.6302 20.8058C92.9154 20.9787 93.2447 21.0652 93.578 21.0547C93.9114 21.0442 94.2345 20.9373 94.5083 20.7467C94.7563 20.5577 94.6973 20.4396 94.6028 20.2743C90.9176 14.3685 95.1107 8.23824 95.028 7.35237C95.0021 6.48684 95.0575 5.6208 95.1934 4.76562C93.3035 5.557 90.0671 8.85244 89.2876 14.0259C89.1931 14.7582 88.9686 15.3016 88.4371 14.7819C87.5631 13.9078 87.4922 9.25403 87.4568 9.24222C87.6339 6.73816 87.7639 6.04128 87.4568 6.44287C84.6102 10.7187 85.0944 15.1716 86.878 20.0144C87.126 20.664 87.0552 21.5617 86.5236 21.1956C84.8142 20.2337 83.3633 18.8719 82.2951 17.2269C81.3797 15.7983 80.75 14.2059 80.4407 12.5377Z" fill="#7A560C"/>
  <path d="M94.7579 15.1236C94.5571 18.1828 97.2029 21.9625 98.5022 20.049C99.1518 19.0923 98.5849 18.986 98.644 16.0567C98.7975 8.72172 101.786 8.41462 102.554 6.38302C103.617 3.60729 105.412 2.52062 104.219 2.76867C96.9667 4.24512 94.6162 11.8282 94.7579 15.1236Z" fill="#7A560C"/>
  <path d="M125.939 2.78753C122.49 2.96471 125.502 2.90565 117.116 2.8584C110.572 2.8584 107.666 5.57507 105.375 6.76804C101.914 8.58703 99.7527 12.1778 100.261 18.2489C100.379 19.6073 102.186 20.1033 103.19 19.938C111.033 18.6033 109.84 15.9693 121.12 14.7173C122.844 14.5283 123.104 16.0165 121.545 16.2291C115.923 17.0205 117.34 16.7607 115.072 17.5048C111.6 18.686 110.123 18.934 110.773 19.2529C118.746 23.2689 125.278 19.5364 127.309 21.2018C128.136 21.8633 127.758 22.1467 126.908 22.5365C126.506 22.7137 127.297 22.3239 123.872 22.5365C122.218 22.6546 122.313 22.6901 122.443 22.9618C124.002 26.269 133.605 26.706 132.069 28.5605C132.012 28.6261 131.941 28.6789 131.861 28.7155C131.782 28.7521 131.696 28.7717 131.609 28.7731C130.581 28.7731 130.321 28.3242 130.333 29.1038C130.333 33.9347 133.416 35.2458 132.53 39.3681C132.105 41.3879 132.176 41.3052 132.613 41.317C135.778 41.317 136.581 41.5178 137.16 40.7973C137.81 40.0632 138.618 39.4858 139.522 39.1082C139.794 39.0255 139.7 39.1082 140.704 35.9899C141.507 33.4623 141.53 33.7694 141.282 31.4779C141.211 30.8047 141.282 30.6511 140.857 30.7338C134.951 31.9149 133.498 29.8834 134.455 29.0093C135.412 28.1352 136.026 30.3676 141.459 28.7022C142.517 28.2936 143.429 27.5805 144.081 26.6533C144.732 25.7261 145.095 24.6263 145.121 23.4933C145.121 22.5956 144.779 22.8791 144.566 23.009C143.433 23.583 142.246 24.0425 141.022 24.3791C138.646 24.8422 136.186 24.6126 133.935 23.7177C132.282 22.761 132.613 21.8515 133.333 21.5798C133.652 21.4735 134.514 22.1113 135.53 22.3475C138.306 22.9854 143.621 18.3788 143.007 14.1503C142.901 13.4888 142.652 14.6464 139.381 15.5795C135.388 16.7607 132.896 15.5795 129.152 15.4614C126.435 15.4023 126.329 15.6858 126.069 14.8117C125.49 12.8392 131.656 13.9731 132.754 13.9849C136.758 13.9849 139.522 10.8903 139.558 9.96899C137.833 10.3859 136.064 10.5879 134.29 10.5714C124.285 10.5714 121.049 9.39022 112.084 13.4652C109.403 14.6464 105.304 18.5206 104.619 17.8473C103.438 16.6662 109.804 12.7211 111.304 12.0242C122.23 6.96884 128.904 9.66188 132.483 8.38623C133.144 8.13819 134.101 7.70116 134.313 6.8271C132.276 7.02554 130.227 7.0657 128.183 6.94522C124.782 6.69717 120.659 6.57906 118.533 6.6263C112.627 6.75623 107.454 9.4729 103.851 15.5441C103.225 16.6071 103.202 16.6307 102.505 16.7252C100.639 16.867 106.166 4.05137 121.049 5.05536C122.007 5.25477 123.004 5.15163 123.901 4.76019C124.798 4.36876 125.552 3.70834 126.057 2.87021C126.152 2.7521 126.104 2.77572 125.939 2.78753Z" fill="#7A560C"/>
  <path d="M93.9772 63.0408C93.0559 62.8281 93.5047 62.9463 93.7882 64.8125C94.0126 66.3126 95.5009 68.2851 96.0206 69.5371C96.8829 71.5687 96.4695 73.5058 98.9263 75.1713C103.769 78.4195 102.139 80.9708 107.608 82.9079C108.352 83.1796 108.139 83.0378 111.647 85.5773C114.777 87.8569 119.183 85.4237 121.498 85.5773C124.805 85.7781 124.699 82.9079 127.936 81.8212C129.329 81.3487 129.412 80.4511 130.369 78.8683C131.81 76.506 133.759 76.943 134.231 73.5058C134.845 68.8993 135.684 70.4584 135.802 67.2811C135.058 61.9423 136.771 62.71 136.145 59.4382C135.806 58.5441 135.561 57.6192 135.412 56.6743C133.192 41.6736 138.259 43.3626 132.731 43.5752C132.176 43.5752 132.625 43.9886 132.613 46.2447C132.613 48.1227 131.361 47.2959 131.881 53.4734C131.883 54.423 131.599 55.3513 131.066 56.1372C130.533 56.9231 129.775 57.5301 128.892 57.8791C124.746 58.9539 123.979 56.3318 120.506 57.0877C117.293 57.8082 113.915 55.9065 112.143 57.0877C110.372 58.2689 107.053 57.631 104.336 59.5681C102.576 60.8438 101.974 61.6706 99.9775 61.5761C97.2963 61.4934 97.0482 63.7376 93.9772 63.0408ZM119.478 66.1708C111.529 69.5726 101.1 66.8441 104.123 65.3676C115.439 59.828 113.88 62.273 123.14 63.1116C123.354 63.0849 123.562 63.0209 123.754 62.9226C121.073 60.5603 125.361 60.3477 125.55 64.1038C125.502 64.4652 125.42 64.8219 125.302 65.1668C125.065 65.7692 124.262 65.7102 124.038 64.8125C124.038 64.6708 124.038 64.5999 123.802 64.6589C122.323 65.0487 120.877 65.5531 119.478 66.1708ZM113.927 76.5769C111.411 79.01 110.596 76.7068 111.565 76.1516C113.218 75.2421 113.065 73.2578 120.482 74.5216C120.656 74.544 120.816 74.6289 120.931 74.7604C121.047 74.8919 121.111 75.0611 121.111 75.2362C121.111 75.4114 121.047 75.5805 120.931 75.7121C120.816 75.8436 120.656 75.9285 120.482 75.9508C119.561 76.1516 115.663 74.9114 113.927 76.5769ZM115.982 79.5416C115.049 77.1792 121.711 76.6713 121.77 78.0415C121.829 79.4116 118.498 78.2541 117.246 79.5652C117.033 79.7896 116.195 80.0258 115.982 79.5416Z" fill="#7A560C"/>
  <path d="M111.553 98.996C110.23 100.26 103.096 103.862 103.285 104.229C105.647 111.552 111.482 121.403 117.719 124.804C127.026 129.872 125.385 129.529 131.975 127.899C133.739 127.096 135.407 126.098 136.948 124.922C141.767 121.379 144.342 111.93 145.795 106.13C147.118 100.768 148.677 98.4054 149.008 95.4998C148.854 94.8029 148.701 93.8816 148.464 93.9525C147.768 94.1651 145.689 93.2556 145.228 93.1256C136.96 90.7633 137.881 74.4397 136.629 71.1797C136.263 71.723 136.192 73.542 135.448 75.9043C134.621 78.4202 132.401 78.5147 131.491 80.7943C130.204 84.0425 128.16 83.1566 126.648 84.9874C125.396 86.4639 124.357 87.5269 122.077 87.5151C119.148 87.5151 118.309 88.6963 114.093 88.5309C112.675 88.4482 112.179 86.7238 113.207 90.7279C113.56 92.2766 113.655 93.8728 113.49 95.4525C113.315 96.8357 112.623 98.1014 111.553 98.996Z" fill="#FDE6B9"/>
  <path d="M66.0667 167.706C67.7085 167.612 72.7875 167.789 74.89 167.777C75.4688 167.777 75.3743 167.399 75.457 167.376C72.7639 165.757 58.3538 169.183 57.4206 163.986C57.3015 163.345 57.3755 162.683 57.6332 162.084C57.9167 161.387 59.0034 161.08 60.9523 160.903C70.0827 160.289 71.8072 159.923 76.3074 160.312C76.898 160.312 76.898 160.1 76.7562 159.651C75.9539 159.319 75.1184 159.073 74.264 158.919C67.6259 158.127 69.8819 158.836 62.0508 158.919C57.9876 158.989 54.5032 157.265 56.96 153.958C57.5742 153.131 61.3303 153.202 62.3106 152.776C61.5311 151.961 58.968 151.891 58.4246 151.843C56.4285 151.643 54.3142 153.816 53.2866 155.54C52.259 157.265 51.1014 158.446 50.5935 158.304C50.0856 158.163 50.0029 158.044 50.0266 157.371C50.1092 153.58 49.5423 154.466 48.8454 149.954C48.6564 148.772 49.0344 148.111 52.2826 144.721C54.1724 142.76 58.968 141.969 58.1884 138.544C58.0348 137.917 57.5151 137.575 57.0663 137.906C54.704 139.63 51.7156 139.796 49.5305 141.91C48.2666 143.091 47.1682 142.796 45.987 144.804C44.8058 146.812 43.6247 147.367 43.7074 148.572C44.5932 157.513 46.0697 154.158 45.6563 160.938C45.4909 163.69 47.4044 166.761 48.1249 169.821C49.3061 174.604 48.9753 188.507 58.153 202.728C61.909 208.634 65.8896 208.374 68.3936 208.563C71.27 208.594 74.1268 208.086 76.8153 207.063C79.0983 206.205 81.1291 204.788 82.7211 202.94C83.1936 202.421 83.0046 199.574 82.9455 198.889C82.5203 193.385 84.5637 191.436 84.9653 186.995C85.2488 184.006 84.0558 183.309 84.7763 174.758C84.8708 173.577 84.5283 174.994 75.0199 174.049C73.8388 173.931 75.2916 174.959 72.7757 177.439C70.2599 179.92 70.4134 177.64 74.2994 180.758C77.3823 183.262 79.4257 189.463 77.6185 189.192C76.6736 189.121 77.6185 188.176 74.5711 184.018C72.5159 181.195 69.5157 180.723 68.6653 180.109C67.8148 179.494 67.6377 180.109 65.7596 181.183C64.7438 181.798 67.8503 181.656 61.4484 192.192C61.1885 192.617 60.2672 192.617 60.031 192.097C59.6885 191.2 59.6767 191.507 62.1571 187.066C63.3383 184.869 63.7517 184.762 63.9761 182.459C64.01 182.15 63.9209 181.84 63.728 181.597C62.0626 179.967 67.8739 177.675 68.937 177.416C69.7325 177.197 70.4755 176.82 71.121 176.306C71.7666 175.792 72.3014 175.153 72.693 174.427C73.0001 173.329 72.3623 173.648 70.4134 173.624C64.9092 173.541 63.102 172.065 63.0193 170.435C62.9367 168.805 63.1965 167.884 66.0667 167.706Z" fill="#FDE6B9"/>
  <path d="M120.27 179.61C119.49 181.122 119.903 180.141 126.175 184.122C127.026 184.653 144.365 193.654 155.527 200.079C162.839 204.296 173.115 208.654 177.969 209.8C183.875 211.206 190.312 210.981 195.143 205.524C195.876 204.709 196.395 203.764 197.116 203.044C199.35 200.74 200.723 197.737 201.002 194.54C200.707 184.346 200.518 184.606 199.821 179.586C199.195 175.275 200.104 175.688 197.612 175.464C192.403 175.015 188.553 173.101 185.8 173.42C178.158 174.365 172.371 172.617 172.406 173.503C172.666 179.184 171.957 179.114 179.552 181.429C180.022 181.633 180.513 181.783 181.017 181.877C181.773 181.877 183.037 182.09 183.379 182.775C184.714 185.315 176.965 182.468 174.709 182.055C142.097 176.149 159.354 179.066 124.356 166.274C124.002 166.144 123.931 166.215 123.908 166.605C123.861 166.839 123.877 167.081 123.954 167.307C124.031 167.533 124.165 167.735 124.345 167.893C126.034 169.416 124.049 177.909 121.037 178.972C120.707 179.075 120.431 179.304 120.27 179.61Z" fill="#FDE6B9"/>
  <path d="M58.4004 155.49C57.7271 156.175 58.1523 157.356 60.8335 157.427C62.6419 157.55 64.4597 157.487 66.2551 157.238C76.5784 156.518 74.2633 157.545 81.8109 158.679C84.3386 159.057 86.3702 159.211 86.0867 160.451C85.8978 161.254 85.756 161.372 83.5472 161.632C81.5381 161.845 79.5195 161.939 77.4997 161.916C72.5152 161.857 72.0309 161.254 64.1998 162.116C62.6974 162.15 61.2009 162.304 59.7232 162.577C58.7075 162.813 58.6838 164.124 59.7232 164.644C62.4872 165.979 70.3537 164.644 74.3814 165.176C76.4485 165.424 76.4485 166.097 83.1456 166.569C84.6339 166.676 86.0631 168.117 84.6812 168.66C83.2992 169.203 77.0154 169.369 71.9483 169.227C68.4875 169.121 66.0425 168.837 65.2038 169.345C65.014 169.512 64.8829 169.735 64.8297 169.982C64.7766 170.229 64.8042 170.486 64.9085 170.716C64.9773 170.869 65.078 171.006 65.2038 171.117C66.385 172.097 72.8341 172.298 77.8777 172.617C80.6325 172.806 83.3983 172.762 86.1458 172.487C88.5703 172.769 90.9345 173.435 93.1501 174.46C100.013 176.822 99.5638 175.782 103.131 176.349C111.399 177.672 111.399 179.019 112.332 176.609C112.568 175.995 111.753 174.991 112.332 172.617C113.442 167.892 113.655 166.605 115.415 165.388C115.923 165.046 115.946 164.668 115.887 162.624C115.887 161.668 109.793 158.986 108.8 158.325C104.737 155.715 107.43 156.813 103.509 154.675C98.5126 151.947 95.1108 149.242 90.1145 147.647C80.5589 144.576 84.8111 145.474 80.4054 144.494C77.3225 143.808 76.0351 144.659 72.0309 144.824C67.448 145.013 66.4913 145.781 64.3652 145.722C63.5148 145.722 63.2785 146.655 63.3494 147.376C63.4264 147.804 63.6432 148.195 63.9658 148.488C64.2884 148.781 64.6988 148.959 65.133 148.994C68.7827 149.49 76.0823 148.072 79.0116 149.218C83.7362 151.061 83.3583 150.399 86.4175 152.006C87.1262 152.384 87.764 152.561 87.5986 153.116C87.1616 154.155 86.1222 153.01 73.8027 153.116C71.5585 153.342 69.3296 153.705 67.1291 154.203C65.1093 154.415 58.8846 154.994 58.4004 155.49ZM89.0278 165.766C89.1341 164.302 88.0947 163.321 88.3664 161.668C88.7207 159.459 89.9255 159.376 89.5475 157.888C89.2184 157.226 89.0793 156.486 89.1459 155.75C89.3704 153.931 90.6815 153.683 90.7523 151.663C90.7523 150.836 90.5043 150.116 91.1539 150.021C92.3351 149.856 92.2642 151.817 92.0752 152.939C91.7327 154.982 90.2917 155.077 90.9649 156.908C91.6382 158.738 91.1185 159.601 90.1972 161.337C89.5712 162.518 90.8114 163.368 90.7287 165.648C90.6496 166.893 90.3826 168.12 89.9373 169.286C89.8982 169.476 89.7865 169.642 89.626 169.751C89.4656 169.859 89.2691 169.901 89.0786 169.866C88.8883 169.832 88.7187 169.726 88.6056 169.569C88.4925 169.412 88.4448 169.217 88.4727 169.026C88.579 168.058 89.0278 166.487 89.0278 165.766Z" fill="#FDE6B9"/>
  <path d="M137.361 43.1859C135.424 47.0837 136.983 56.0488 137.196 56.6866C137.845 56.1078 137.881 55.7889 140.845 55.8598C143.81 55.9306 145.724 48.5011 145.145 45.3356C144.91 44.2483 144.482 43.2121 143.881 42.2764C143.554 41.7519 143.095 41.3222 142.55 41.0301C142.005 40.7379 141.393 40.5934 140.775 40.611C139.605 40.4929 137.798 42.3 137.361 43.1859ZM138.082 47.1074C138.802 44.4025 139.168 42.3827 141.247 42.5599C141.639 42.5755 142.022 42.6824 142.365 42.8722C142.708 43.0619 143.002 43.3293 143.223 43.6529C143.445 43.9764 143.588 44.3473 143.64 44.7359C143.693 45.1244 143.654 45.5199 143.527 45.8908C143.302 46.753 142.523 46.4223 142.452 45.4892C142.381 44.5561 141.412 43.7883 140.845 44.4025C140.278 45.0167 140.255 45.5837 139.664 47.1428C139.215 48.4067 140.609 48.2649 141.271 50.2965C142.05 52.7533 139.96 54.3597 138.578 53.6392C137.952 53.3203 137.94 52.7297 138.849 52.458C139.759 52.1864 140.101 51.7966 139.948 51.206C139.511 49.5524 137.597 48.9972 138.082 47.1074Z" fill="#FDE6B9"/>
  <path d="M103.486 52.8124C90.9188 57.2654 92.8559 54.1589 92.5488 56.5921C92.6788 60.3246 92.5488 59.5687 93.1866 60.5372C94.5332 62.6042 96.1396 60.8915 98.6554 60.0411C99.7775 59.6631 101.018 60.2655 102.199 59.1434C103.211 58.1991 104.422 57.4929 105.742 57.0764C106.404 56.8284 105.034 56.4268 104.479 55.1629C103.604 53.0605 104.195 52.5644 103.486 52.8124Z" fill="#FDE6B9"/>
  <path d="M106.309 45.6913C105.435 46.3882 105.494 46.8725 105.589 48.6206C105.589 49.4947 106.238 48.5025 107.833 48.6206C108.204 48.6614 108.577 48.5783 108.896 48.3844C109.238 48.16 109.675 48.1718 109.794 48.845C110.006 50.0852 108.86 50.286 107.431 50.3924C105.411 50.5459 105.069 53.5579 106.852 54.9753C107.384 55.4005 107.963 56.0383 108.92 55.8257C110.101 55.5658 111.778 55.1406 111.943 53.9004C112.061 52.9673 113.006 52.7192 113.266 53.4397C113.691 54.6209 112.841 55.1288 113.514 55.117C116.29 55.0461 117.554 55.8493 119.42 55.5776C121.24 55.1614 123.145 55.3437 124.853 56.0974C126.127 56.6459 127.565 56.6714 128.858 56.1682C130.204 54.0776 130.039 55.3532 130.039 52.6247C130.039 51.0892 129.826 48.5852 130.641 46.9434C130.889 46.0789 130.889 45.162 130.641 44.2976C130.547 43.707 130.641 43.6125 128.078 44.1794C124.605 44.9708 129.661 48.9041 120.07 49.9671C116.526 50.3333 112.439 51.8924 111.317 49.223C111.017 48.0702 110.623 46.9434 110.136 45.8567C109.594 45.4371 108.934 45.1958 108.249 45.1662C107.564 45.1366 106.886 45.3201 106.309 45.6913Z" fill="#FDE6B9"/>
  <path d="M94.9345 41.2383C94.1077 41.4509 91.7572 44.3566 91.4737 41.8879C91.3556 41.4627 91.4737 41.3328 93.4344 39.7855C94.7219 38.7697 100.049 37.5531 100.97 36.809C101.691 36.2184 102.069 37.2106 102.388 37.4704C103.273 38.2145 102.388 39.2894 101.419 39.5847C97.533 40.8013 99.9899 39.9272 94.9345 41.2383ZM90.0327 43.6951C90.3162 44.5574 90.0327 44.1322 95.1589 42.514C98.0877 41.6132 101.092 40.9807 104.136 40.6241C104.809 40.4587 104.797 40.6241 105.045 42.4903C105.045 42.8093 104.691 42.9746 104.703 43.14C104.998 45.8212 105.128 42.7266 108.813 43.14C109.841 43.2699 110.077 43.7069 109.853 42.7384C109.628 41.7698 109.368 42.4077 109.274 41.7698C108.978 39.8209 108.896 39.7973 109.451 39.6437C113.987 38.2991 118.643 37.3972 123.353 36.9507C126.897 36.5255 126.554 36.6082 126.672 37.1751C127.074 39.0059 127.133 39.2303 126.672 39.313C126.212 39.3957 126.483 39.4548 126.542 41.0257C126.542 41.5454 126.755 41.4509 128.29 41.6163C130.546 41.4745 130.57 41.6163 130.653 41.0848C131.066 38.4508 131.361 37.7421 130.747 36.3601C129.897 34.4112 128.29 31.163 129.011 28.9306C129.129 28.5408 129.011 28.4227 128.598 28.2928C125.834 27.4187 121.7 25.9305 120.814 23.2256C120.518 22.2925 119.727 23.9107 114.046 22.4224C109.238 21.1468 109.817 19.4105 108.388 20.1428C106.392 21.194 101.809 22.198 100.344 20.7688C100.025 20.4499 99.2457 22.576 96.8007 22.0445C96.3164 21.9381 95.844 21.3594 95.6196 21.7492C94.4384 23.7453 92.0761 19.7884 89.0523 29.5566C88.5113 31.5067 88.2373 33.5218 88.2373 35.5451C88.1783 37.494 88.5917 39.1004 90.0799 43.6951H90.0327ZM113.337 33.7379C113.191 33.8106 113.028 33.8394 112.866 33.8208C112.705 33.8022 112.552 33.7369 112.427 33.633C112.301 33.5291 112.209 33.391 112.161 33.2355C112.113 33.0801 112.111 32.914 112.156 32.7576C112.357 32.0725 112.853 32.0725 112.829 31.4937C112.829 30.2535 115.912 29.7929 116.668 29.7574C119.325 29.6393 119.739 29.8637 122.243 31.0449C126.483 33.1119 124.735 36.1003 123.519 34.3521C122.881 33.4308 123.318 34.3521 121.688 33.4663C119.455 32.1906 118.227 32.8048 115.865 32.9229C114.972 33.0031 114.108 33.2816 113.337 33.7379Z" fill="#FDE6B9"/>
  <path d="M2.23757 71.2041C3.82032 52.8134 3.92662 54.3017 17.191 56.5813C56.1693 63.2785 59.8782 64.3179 61.0239 64.7668C62.9256 65.5345 64.2131 66.2196 64.9099 67.8023C65.6068 69.3851 65.784 71.1096 64.9808 75.3027C63.6815 82.0944 61.142 98.0755 60.0317 99.8354C58.5789 102.115 56.2166 102.198 53.2873 102.032C50.3581 101.867 49.4958 101.017 49.5431 102.269C49.4873 106.17 50.4091 110.024 52.2243 113.478C53.0629 115.191 54.4094 117.104 52.5314 117.34C48.9879 117.789 42.8459 110.56 41.0505 103.698C40.082 100.024 40.9678 100.958 33.7746 99.7055C-8.0031 92.3823 -0.301926 100.898 2.23757 71.2041ZM4.59989 93.6461C8.60402 94.8273 16.1044 95.2053 25.8608 96.8589C50.9132 101.087 35.5817 97.0715 47.0508 112.214C48.7517 114.446 51.9762 116.218 51.5156 115.427C49.4411 111.823 48.2737 107.77 48.1138 103.615C48.1729 97.792 47.854 100.816 55.815 100.603C57.3269 100.603 58.1773 99.6582 58.7915 98.1345C59.701 95.8549 60.1144 91.8035 61.5555 84.0197C62.9256 76.5902 64.3076 72.0545 63.6579 69.3615C62.4768 64.4242 51.2439 64.7077 10.8837 57.231C7.19843 56.5459 6.40706 57.231 5.79285 58.4121C4.87155 60.113 4.61169 63.4439 4.22191 67.2708C4.06836 68.6764 2.39112 83.0511 1.57612 88.6026C1.42257 90.1972 0.820168 92.465 4.64713 93.6461H4.59989Z" fill="#1B1B1D"/>
  <path d="M15.9726 61.4983C17.4844 61.7463 20.6263 62.1715 23.2131 62.8448C24.3282 63.0269 25.3961 63.4284 26.355 64.026C26.9456 64.4866 27.0282 64.7937 27.1227 65.8449C27.1733 66.4571 27.0638 67.0719 26.805 67.629C26.5461 68.1861 26.1468 68.6662 25.6463 69.0223C24.2879 69.7428 23.3548 69.2231 20.272 68.7034C15.3347 67.8647 13.0551 67.4631 11.8503 66.6718C11.6444 66.5732 11.4633 66.4297 11.3202 66.2519C11.1771 66.074 11.0757 65.8664 11.0235 65.6441C10.7884 65.0383 10.7247 64.3795 10.8393 63.7399C10.9539 63.1002 11.2424 62.5045 11.6731 62.018C12.6181 61.0731 13.4331 61.0849 15.9726 61.4983ZM13.6102 66.0103C23.2367 68.0065 24.9258 68.4907 25.3155 67.1915C25.7053 65.8922 25.8471 65.2071 24.1344 64.7228C21.0149 63.8546 17.8316 63.2346 14.6142 62.8684C14.2246 62.7987 13.8282 62.775 13.4331 62.7976C13.0666 62.8974 12.746 63.1213 12.5261 63.431C12.3061 63.7407 12.2004 64.1171 12.2269 64.496C12.2533 64.875 12.4104 65.233 12.6712 65.5091C12.9321 65.7853 13.2807 65.9624 13.6575 66.0103H13.6102Z" fill="#1B1B1D"/>
  <path d="M17.072 78.1832C17.072 78.1832 53.8297 85.3764 54.4912 85.4591C56.0858 85.6717 56.6882 85.4591 56.8535 86.3568C56.8535 86.7702 56.8535 87.3253 56.0149 87.3726C55.326 87.4789 54.6249 87.4789 53.936 87.3726C44.9474 85.7898 18.5957 80.3919 17.6508 80.1085C16.1153 79.6478 15.5011 79.6832 15.7019 78.632C15.7137 78.2186 16.3397 77.9706 17.072 78.1832Z" fill="#1B1B1D"/>
  <path d="M23.2385 88.9227C35.0501 90.8952 47.6767 93.6473 53.3344 94.4269C54.1022 94.5214 55.307 94.545 55.2479 95.4072C55.2479 95.797 55.2479 96.3522 54.6928 96.4112C52.7557 96.6238 38.1565 93.4938 30.3609 91.9346C28.223 91.5094 23.0731 90.9661 22.6479 90.47C22.5062 90.3539 22.4045 90.1961 22.3575 90.0191C22.3104 89.842 22.3202 89.6547 22.3855 89.4835C22.4509 89.3123 22.5684 89.1661 22.7215 89.0654C22.8746 88.9648 23.0554 88.9148 23.2385 88.9227Z" fill="#1B1B1D"/>
  <path d="M55.0811 83.0183C52.7187 82.6522 26.4025 77.2661 25.5521 77.1125C23.8039 76.829 23.4968 77.0062 23.2842 75.9314C23.2252 75.6006 23.485 75.4707 23.7331 75.3408C24.4607 75.0902 25.2472 75.0655 25.9891 75.2699C27.8671 75.5534 54.1716 80.9041 55.6835 81.1757C57.1954 81.4474 57.5733 81.6009 57.5969 82.3569C57.6206 83.1128 57.0654 83.2546 55.0811 83.0183Z" fill="#1B1B1D"/>
  <path d="M54.8694 91.3522C52.9086 91.4703 31.8604 87.2772 29.8642 86.9465C28.6003 86.7339 28.494 86.5213 28.8602 85.5881C29.0492 85.1157 29.8288 85.2928 30.4902 85.3755C31.5887 85.5173 54.6095 89.6277 55.0347 89.8049C55.4599 89.9821 55.6371 91.2813 54.8694 91.3522Z" fill="#1B1B1D"/>
  <path d="M38.1324 121.663C41.6759 120.99 56.6884 119.371 56.7121 119.371C62.1336 119.371 60.787 118.804 68.9843 132.707C69.1733 133.014 69.0788 132.99 70.7915 127.982C71.5238 125.809 71.4411 124.179 72.6695 122.313C73.3782 121.226 73.39 120.269 74.5594 118.887C74.8192 118.568 74.5594 119.029 75.9177 116.419C77.0162 114.375 78.5163 113.596 79.9809 111.989C82.9692 108.706 84.1504 110.808 90.6113 107.028C94.1548 104.902 95.4777 105.528 99.3756 102.634C99.8931 102.257 100.487 101.997 101.115 101.873C101.743 101.748 102.391 101.762 103.014 101.914C103.616 102.032 103.687 101.796 105.057 101.016C110.597 97.8625 109.876 98.2641 110.006 98.1342C112.994 95.1576 111.601 92.3228 110.856 87.8462C110.656 86.6651 109.675 86.8541 108.577 85.7202C106.947 84.0547 105.577 84.8225 102.742 82.1767C101.277 80.8183 100.628 78.5033 98.7614 77.452C97.7559 76.9493 96.8883 76.209 96.2338 75.2951C95.5792 74.3812 95.1575 73.3214 95.0053 72.2077C93.8241 66.5381 90.8594 68.1917 90.9893 55.0336C90.9893 54.5021 88.4734 47.6868 88.438 47.675C88.2436 47.5162 88.0843 47.3187 87.9705 47.095C87.8566 46.8713 87.7905 46.6263 87.7766 46.3757C87.5758 45.3008 87.3395 45.3245 88.4262 44.9347C88.6861 44.852 88.7451 44.7339 88.627 44.4268C87.0206 40.0683 87.245 39.8321 86.6899 39.3242C79.9691 33.2176 80.7841 26.5204 84.3276 24.6542C84.5638 24.536 84.6937 24.6542 84.1504 24.2762C82.8426 23.5583 81.6993 22.5749 80.7941 21.389C79.8889 20.203 79.2417 18.8409 78.8942 17.39C77.7839 13.1497 79.0478 9.3227 80.2053 9.42901C81.1621 9.51169 80.7132 9.80698 81.3865 12.1221C81.9771 14.0592 82.7448 16.4569 84.4929 17.7444C84.4929 17.0002 82.1306 9.22821 88.2136 3.22791C88.7333 2.73183 89.9145 2.95625 89.6074 4.18465C88.4262 8.68487 88.875 9.71248 89.0877 9.2164C90.4359 6.44602 92.6164 4.16638 95.3242 2.69639C96.3518 1.92864 96.7534 1.73965 97.3322 2.03494C98.1826 2.46016 96.777 4.52719 96.7298 5.25951C97.9109 4.47994 98.2889 1.71603 107.526 0.393128C108.258 0.286824 108.53 0.652983 108.411 1.36168C108.293 2.07038 107.502 1.75146 104.868 4.90516C104.088 5.87371 107.537 3.58226 108.222 3.29878C116.833 -0.18564 116.833 2.17668 127.121 0.936462C128.633 0.759288 128.55 2.34204 127.853 3.29878C125.81 5.99183 124.404 5.40125 130.594 5.6611C132.1 5.7847 133.616 5.6852 135.094 5.36581C135.495 5.36581 135.625 5.50755 135.673 5.74378C135.754 6.34471 135.665 6.95638 135.417 7.50956C135.168 8.06274 134.77 8.53534 134.267 8.87386C134.988 9.2164 138.188 8.64944 139.771 8.10611C141.354 7.56277 141.567 9.48806 141.2 10.3503C140.643 11.7884 139.663 13.0239 138.389 13.8938C139.926 13.7413 141.362 13.0609 142.452 11.9685C144.059 9.78335 146.173 15.7955 142.701 20.4138C141.519 21.9729 140.338 22.847 141.708 22.4218C145.524 21.2406 145.925 19.7642 146.339 21.2406C146.466 21.6465 146.565 22.061 146.634 22.4808C146.738 23.6412 146.607 24.8108 146.248 25.9192C145.889 27.0275 145.309 28.0517 144.543 28.93C143.22 30.3001 142.464 29.9812 142.571 30.4891C143.222 32.4507 143.143 34.5819 142.346 36.4894C141.803 38.2257 141.472 38.9226 141.708 38.958C147.957 40.1392 148.346 50.0491 144.071 55.9313C142.204 58.5417 138.897 57.3487 138.578 57.8093C138.259 58.27 137.716 58.8133 137.858 59.5456C138.377 62.2151 136.83 63.3844 137.35 65.8294C138.531 71.5699 138.248 78.0899 141.319 86.9722C141.794 88.6449 142.854 90.091 144.307 91.0472C145.071 91.4015 145.86 91.6992 146.669 91.9331C146.769 91.9509 146.872 91.9336 146.96 91.884C147.048 91.8345 147.117 91.7558 147.154 91.6614C147.272 91.4015 147.827 91.2244 148.488 91.1535C149.677 91.0794 150.863 91.3241 151.925 91.8622C153.397 92.4177 154.809 93.1181 156.142 93.9529C161.138 97.0357 162.261 96.6341 164.044 97.4963C169.95 100.496 170.316 99.646 172.182 100.284C188.128 105.764 188.825 108.257 191.388 115.285C201.818 143.821 197.022 142.782 199.845 151.782C202.963 161.751 201.286 160.677 202.763 168.921C203.837 174.921 204.251 175.299 203.849 176.457C202.881 179.244 201.558 178.193 201.64 179.41C202.321 184.366 202.688 189.361 202.739 194.363C202.597 200.954 198.451 204.191 196.739 206.6C194.116 210.285 189.876 211.655 185.352 212.211C184.667 212.305 184.903 212.211 185.022 213.392C185.966 222.298 185.801 221.873 186.203 222.9C186.97 225.262 183.769 226.373 183.699 218.979C183.638 216.913 183.441 214.853 183.108 212.813C183.049 212.447 182.907 212.364 182.6 212.352C177.604 212.116 179.187 212.411 172.312 209.896C160.335 205.502 151.229 199.584 147.508 197.541C108.671 176.138 122.03 183.213 115.829 182.445C114.376 182.268 110.727 180.993 110.242 179.552C110.1 179.138 96.7416 177.508 96.2219 177.343C86.4891 174.106 86.6663 173.669 86.56 175.181C86.2574 177.782 86.305 180.412 86.7017 183.001C87.5167 191.162 85.0599 192.781 85.1662 195.249C85.6269 205.88 84.1622 205.643 82.7212 210.132C78.8234 222.274 79.1777 222.853 77.7485 222.664C76.839 222.546 77.0044 221.235 77.2288 220.68C78.41 217.833 79.095 214.892 79.9219 212.128C82.7448 202.738 82.9811 207.061 77.1934 208.951C74.0397 209.978 70.8033 211.195 67.7441 210.545C66.6928 210.321 65.0038 210.876 61.9091 209.128C54.7631 205.112 51.9992 194.883 51.2787 192.828C46.684 180.083 47.3809 176.528 47.0856 174.083C46.2234 167.09 43.5421 164.019 43.991 159.661C44.0714 158.521 43.9637 157.376 43.672 156.271C41.9476 151.31 42.8216 152.964 42.172 148.818C41.9121 147.129 42.6562 146.113 43.8138 144.967C43.9673 144.814 36.7268 132.565 36.7268 132.541C34.9315 129.565 33.4196 127.663 33.4668 125.75C33.5211 124.941 33.8174 124.167 34.3172 123.529C35.463 121.899 36.3725 121.994 38.1324 121.663ZM93.7532 64.8136C93.9777 66.3137 95.4659 68.2862 95.9856 69.5383C96.8479 71.5699 96.4345 73.507 98.8913 75.1724C103.734 78.4206 102.104 80.9719 107.573 82.909C108.317 83.1807 108.104 83.0389 111.612 85.5784C114.742 87.8581 119.148 85.4249 121.463 85.5784C124.771 85.7792 124.664 82.909 127.901 81.8223C129.294 81.3499 129.377 80.4522 130.334 78.8694C131.775 76.5071 133.724 76.9441 134.196 73.507C134.81 68.9004 135.649 70.4596 135.767 67.2822C135.023 61.9434 136.736 62.7112 136.11 59.4393C135.771 58.5452 135.526 57.6204 135.377 56.6754C133.192 41.6747 138.259 43.3637 132.732 43.5764C132.176 43.5764 132.625 43.9898 132.613 46.2458C132.613 48.1238 131.361 47.297 131.881 53.4745C131.883 54.4241 131.6 55.3524 131.067 56.1383C130.533 56.9242 129.776 57.5312 128.893 57.8802C124.747 58.9551 123.979 56.3329 120.507 57.0888C117.294 57.8093 113.916 55.9077 112.144 57.0888C110.372 58.27 107.053 57.6322 104.336 59.5693C102.577 60.8449 101.974 61.6717 99.978 61.5772C97.344 61.4591 97.0723 63.6915 94.0013 63.0064C93.0564 62.8293 93.5052 62.9356 93.7532 64.8136ZM120.247 49.9428C116.703 50.309 112.616 51.8681 111.494 49.1987C111.194 48.0459 110.8 46.919 110.313 45.8324C109.744 45.3788 109.041 45.125 108.313 45.1101C107.585 45.0951 106.873 45.3199 106.285 45.7497C105.411 46.4466 105.47 46.9309 105.565 48.679C105.565 49.553 106.214 48.5609 107.809 48.679C108.18 48.7197 108.554 48.6367 108.872 48.4427C109.215 48.2183 109.652 48.2301 109.77 48.9034C109.982 50.1436 108.837 50.3444 107.407 50.4507C105.388 50.6043 105.045 53.6162 106.829 55.0336C107.36 55.4588 107.939 56.0967 108.896 55.884C110.077 55.6242 111.754 55.199 111.919 53.9588C112.038 53.0256 112.983 52.7776 113.242 53.4981C113.668 54.6793 112.817 55.1872 113.49 55.1754C116.266 55.1045 117.53 55.9077 119.396 55.636C121.216 55.2197 123.122 55.402 124.83 56.1557C126.103 56.7043 127.541 56.7297 128.834 56.2266C130.18 54.1359 130.015 55.4116 130.015 52.6831C130.015 51.1476 129.802 48.6435 130.617 47.0017C130.865 46.1372 130.865 45.2204 130.617 44.3559C130.523 43.7653 130.617 43.6708 128.054 44.2378C124.782 44.8874 129.838 48.868 120.247 49.9428ZM124.912 39.9029C124.912 39.4541 125.208 39.1706 121.286 39.7494C118.092 40.1014 114.933 40.7097 111.837 41.5684C111.199 41.7219 111.388 41.5684 112.534 47.0253C112.794 48.3128 112.593 48.8207 113.715 49.0333C117.313 48.8531 120.879 48.2666 124.345 47.2852C125.586 46.8009 125.219 43.4346 124.912 39.9029ZM93.1863 60.5733C94.5446 62.6403 96.1392 60.9276 98.6551 60.0772C99.7772 59.6992 101.017 60.3016 102.199 59.1795C103.211 58.2352 104.422 57.529 105.742 57.1125C106.403 56.8644 105.033 56.4628 104.478 55.199C103.557 53.0965 104.147 52.6004 103.439 52.8367C90.8712 57.2778 92.8083 54.1832 92.5012 56.6164C92.6784 60.3252 92.5721 59.5693 93.1863 60.5733ZM91.6508 52.0453C92.0051 53.2264 91.9342 53.9942 93.5524 53.9351C96.941 53.259 100.262 52.2786 103.474 51.0059C104.395 50.5924 104.053 48.6435 103.923 47.734C103.226 42.6432 103.096 43.1629 102.6 43.2574C98.399 44.0324 94.2845 45.2193 90.3161 46.8009C89.7963 46.8954 89.9381 46.7301 91.6508 52.0098V52.0453ZM90.0798 43.7771C90.3633 44.6394 90.0798 44.2142 95.2061 42.596C98.1349 41.6953 101.14 41.0627 104.183 40.7061C104.856 40.5408 104.856 40.7061 105.092 42.5724C105.092 42.8913 104.738 43.0566 104.75 43.222C105.045 45.9032 105.175 42.8086 108.86 43.222C109.888 43.3519 110.124 43.789 109.9 42.8204C109.675 41.8519 109.404 42.4897 109.321 41.8519C109.026 39.9029 108.943 39.8793 109.498 39.7258C114.016 38.3561 118.656 37.4265 123.353 36.95C126.897 36.5248 126.554 36.6075 126.672 37.1745C127.074 39.0053 127.133 39.2297 126.672 39.3124C126.212 39.395 126.483 39.4541 126.542 41.025C126.542 41.5448 126.755 41.4503 128.29 41.6156C130.546 41.4739 130.57 41.6156 130.653 41.0841C131.066 38.4501 131.361 37.7414 130.747 36.3595C129.897 34.4105 128.29 31.1624 129.011 28.93C129.129 28.5402 129.011 28.4221 128.597 28.2921C125.834 27.4181 121.699 25.9298 120.814 23.225C120.518 22.2918 119.727 23.91 114.046 22.4218C109.238 21.1461 109.817 19.4098 108.388 20.1421C106.392 21.1934 101.809 22.1973 100.344 20.7681C100.025 20.4492 99.2456 22.5753 96.8006 22.0438C96.3164 21.9375 95.8439 21.3587 95.6195 21.7485C94.4383 23.7447 92.076 19.7878 89.0522 29.556C88.5112 31.5061 88.2372 33.5211 88.2372 35.5445C88.1782 37.4934 88.5916 39.0998 90.0798 43.6945V43.7771ZM95.2533 4.78705C93.3634 5.57842 90.1271 8.87386 89.3475 14.0473C89.253 14.7797 89.0286 15.323 88.4971 14.8033C87.623 13.9292 87.5521 9.27546 87.5167 9.26364C87.6939 6.75958 87.8238 6.0627 87.5167 6.46429C84.6701 10.7401 85.1544 15.1931 86.9379 20.0358C87.186 20.6855 87.1151 21.5831 86.5836 21.217C84.8742 20.2551 83.4232 18.8934 82.355 17.2483C81.3889 15.8195 80.7145 14.2138 80.3707 12.5236C80.2644 12.0984 80.1699 11.7795 80.0754 11.7795C79.9809 11.7795 79.7211 12.5118 79.7211 13.1497C79.7433 14.4363 79.8618 15.7195 80.0754 16.9884C80.6069 19.1145 81.6818 21.028 85.8749 23.6856C87.1624 24.5006 87.9065 24.8668 86.7962 25.3274C85.6859 25.7881 84.0677 25.8117 83.2527 28.5874C82.1897 32.1309 86.0166 36.4776 86.4891 36.8555C87.1151 33.8554 85.3079 28.9063 91.2137 22.0084C91.7689 21.3469 90.0326 20.8272 89.3948 17.6499C89.3003 17.1774 89.8436 16.8467 90.1979 17.5908C90.7318 18.8235 91.5397 19.9182 92.5603 20.7918C92.8454 20.9647 93.1747 21.0512 93.508 21.0407C93.8414 21.0302 94.1646 20.9232 94.4383 20.7327C94.6864 20.5437 94.6273 20.4256 94.5328 20.2602C90.8476 14.3544 95.0407 8.22422 94.958 7.33835C94.9769 6.48083 95.0761 5.62567 95.2533 4.78705ZM104.218 2.76726C96.9778 4.24371 94.6155 11.8268 94.769 15.1222C94.5682 18.1814 97.214 21.9611 98.5133 20.0476C99.1629 19.0909 98.596 18.9846 98.6551 16.0553C98.8086 8.72031 101.797 8.41321 102.565 6.38161C103.616 3.60588 105.411 2.51922 104.218 2.76726ZM145.098 23.5439C145.098 22.6462 144.756 22.9297 144.543 23.0596C143.411 23.6336 142.224 24.0926 141 24.4297C138.623 24.8928 136.163 24.6632 133.913 23.7683C132.259 22.8116 132.59 21.9021 133.31 21.6304C133.629 21.5241 134.491 22.1619 135.507 22.3981C138.283 23.036 143.598 18.4294 142.984 14.2009C142.878 13.5394 142.63 14.697 139.358 15.6301C135.366 16.8113 132.873 15.6301 129.129 15.512C126.412 15.4529 126.306 15.7364 126.046 14.8623C125.467 12.8898 131.633 14.0237 132.732 14.0355C136.736 14.0355 139.5 10.9409 139.535 10.0196C137.811 10.4365 136.041 10.6385 134.267 10.622C124.263 10.622 121.026 9.44082 112.061 13.5158C109.38 14.697 105.281 18.5712 104.596 17.8979C103.415 16.7168 109.782 12.7717 111.282 12.0748C122.207 7.01944 128.881 9.71248 132.46 8.43683C133.121 8.18879 134.078 7.75176 134.291 6.8777C132.253 7.07613 130.204 7.11629 128.16 6.99582C124.759 6.74777 120.636 6.62966 118.51 6.6769C112.605 6.80683 107.431 9.5235 103.829 15.5947C103.203 16.6577 103.179 16.6813 102.482 16.7758C100.639 16.8703 106.167 4.05473 121.05 5.05871C122.008 5.25812 123.005 5.15499 123.902 4.76355C124.799 4.37211 125.552 3.71169 126.058 2.87357C126.152 2.73183 126.058 2.75545 125.94 2.76726C122.491 2.92081 125.503 2.88538 117.117 2.83813C110.573 2.83813 107.667 5.5548 105.376 6.74777C101.915 8.56676 99.7535 12.1575 100.261 18.2286C100.38 19.587 102.187 20.0831 103.191 19.9177C111.034 18.583 109.841 15.949 121.121 14.697C122.845 14.508 123.105 15.9963 121.546 16.2089C115.924 17.0002 117.341 16.7404 115.073 17.4845C111.601 18.6657 110.124 18.9137 110.774 19.2326C118.747 23.2486 125.278 19.5161 127.31 21.1816C128.137 21.843 127.759 22.1265 126.908 22.5163C126.507 22.6934 127.298 22.3037 123.873 22.5163C122.219 22.6344 122.314 22.6698 122.444 22.9415C123.719 25.6345 130.535 26.485 131.987 27.6661C132.084 27.746 132.153 27.8534 132.187 27.9739C132.22 28.0945 132.216 28.2224 132.175 28.3405C132.134 28.4587 132.058 28.5615 131.957 28.6352C131.856 28.7088 131.735 28.7499 131.609 28.7528C130.582 28.7528 130.322 28.3039 130.334 29.0835C130.334 33.9145 133.417 35.2255 132.531 39.3478C132.106 41.3676 132.176 41.2849 132.613 41.2967C133.86 41.3694 135.111 41.3694 136.358 41.2967C136.673 41.2311 136.956 41.0603 137.161 40.8124C137.811 40.0784 138.618 39.5009 139.523 39.1234C139.795 39.0407 139.7 39.1234 140.704 36.0051C141.508 33.4774 141.531 33.7845 141.283 31.4931C141.212 30.8198 141.283 30.6663 140.858 30.749C134.952 31.9301 133.499 29.8985 134.456 29.0245C135.413 28.1504 136.027 30.3828 141.46 28.7174C142.508 28.3087 143.413 27.5998 144.06 26.6795C144.707 25.7592 145.068 24.6685 145.098 23.5439ZM140.846 55.8486C143.799 55.9195 145.736 48.49 145.146 45.3245C144.911 44.2372 144.483 43.2009 143.882 42.2653C143.554 41.7408 143.095 41.3111 142.55 41.0189C142.005 40.7267 141.393 40.5823 140.775 40.5998C139.594 40.5171 137.799 42.2889 137.362 43.1748C135.425 47.0726 136.984 56.0376 137.196 56.6754C137.846 56.1085 137.881 55.8486 140.846 55.8486ZM148.406 93.9292C147.709 94.13 145.63 93.2323 145.169 93.1024C136.901 90.7401 137.822 74.4165 136.57 71.1564C136.204 71.6998 136.133 73.5188 135.389 75.8811C134.562 78.397 132.342 78.4915 131.432 80.7711C130.145 84.0193 128.101 83.1334 126.59 84.9642C125.337 86.4407 124.298 87.5037 122.018 87.4919C119.089 87.4919 118.251 88.6731 114.034 88.5077C112.616 88.425 112.12 86.7005 113.148 90.7047C113.501 92.2534 113.596 93.8495 113.431 95.4293C113.302 96.8408 112.634 98.1481 111.565 99.0791C110.242 100.343 103.108 103.945 103.297 104.312C105.659 111.635 111.494 121.486 117.731 124.887C127.038 129.955 125.397 129.612 131.987 127.982C133.751 127.179 135.419 126.181 136.96 125.006C141.779 121.462 144.354 112.013 145.807 106.213C147.13 100.851 148.689 98.4885 149.02 95.5828C148.795 94.8269 148.642 93.8702 148.406 93.941V93.9292ZM200.223 161.61C200.152 158.456 197.778 151.57 197.223 147.743C196.75 144.471 197.495 143.089 195.581 134.195C193.538 124.663 192.841 124.592 190.325 117.434C189.463 114.954 189.144 109.343 181.041 105.859C168.615 100.544 171.296 102.67 167.611 101.134C165.426 100.237 158.162 97.5318 156.437 96.0907C156.036 95.7482 149.882 92.2756 150.142 93.2678C151.394 98.146 149.327 99.1736 147.402 106.922C144.094 120.293 141.685 127.982 128.196 130.947C123.046 132.116 110.289 123.175 107.927 118.155C107.384 116.974 105.045 113.43 103.97 111.328C99.9543 103.379 102.789 102.528 99.2456 104.69C98.3697 105.361 97.4134 105.92 96.399 106.355C91.4027 108.186 90.5877 109.249 87.1269 110.56C84.7646 111.446 83.3708 111.221 82.1542 112.379C79.6384 114.741 78.0438 116.064 77.3233 117.671C76.8036 118.852 73.5672 123.836 73.3782 125.206C72.8671 127.564 72.172 129.879 71.2994 132.128C70.9604 132.847 70.7112 133.604 70.5553 134.384C70.5269 134.971 70.6793 135.552 70.9923 136.049C71.636 137.139 72.2195 138.263 72.7404 139.416C73.1538 140.16 74.3822 141.506 74.8428 142.475C75.02 142.841 75.0318 142.664 76.7445 142.475C80.8077 142.109 83.0519 143.207 86.7135 144.648C87.8238 145.073 86.2411 140.987 86.4891 135.99C86.4891 135.353 86.7726 131.691 86.9379 131.089C87.1033 130.486 88.1191 130.309 88.2136 131.089C88.243 132.575 88.1878 134.062 88.0482 135.542C88.0482 139.085 88.7687 142.829 88.7333 144.447C88.7333 145.203 88.8042 145.298 89.0995 145.404C92.7403 146.583 96.2139 148.227 99.4346 150.294C103.51 153.141 104.313 152.657 107.396 155.314C109.864 157.487 109.392 156.401 114.813 159.803C115.286 160.098 115.463 160.582 116.585 160.287C117.707 159.992 123.412 162.649 123.672 163.535C123.932 164.421 122.373 163.807 145.606 172.748C156.449 176.929 154.937 176.008 157.902 176.882L170.8 179.363C171.072 179.363 171.178 178.607 171.143 178.311C170.871 176.28 171.332 175.819 170.635 175.606C158.292 172.063 164.883 173.079 163.17 158.196C161.989 147.731 165.154 146.94 164.469 139.817C164.32 136.463 164.38 133.101 164.646 129.754C164.799 125.716 165.597 121.728 167.009 117.942C167.139 117.541 167.434 117.505 167.741 117.505C169.229 117.505 166.702 122.076 166.442 129.588C165.851 147.011 167.233 140.302 165.261 148.971C164.209 153.401 165.414 160.015 165.261 163.889C165.19 165.637 164.812 166.075 165.497 166.051C169.761 165.956 170.718 166.547 178.643 167.504C182.187 167.941 184.006 165.921 194.164 168.579C195.098 168.923 196.054 169.21 197.022 169.441C198.014 169.665 197.152 169.441 200.92 170.291C201.818 170.516 200.388 169.323 200.223 161.61ZM121.806 166.193C122.231 166.323 122.125 166.37 122.278 165.295C122.309 164.946 122.22 164.598 122.027 164.306C121.834 164.014 121.548 163.797 121.215 163.689C116.597 161.787 117.672 161.716 117.483 164.409C117.483 165.082 117.483 165.212 118.085 165.224C119.364 165.372 120.617 165.698 121.806 166.193ZM120.034 169.736C120.129 172.169 122.668 171.378 122.55 169.949C122.584 169.615 122.485 169.281 122.273 169.021C122.062 168.761 121.756 168.595 121.422 168.561C121.088 168.526 120.755 168.626 120.494 168.837C120.234 169.049 120.069 169.355 120.034 169.689V169.736ZM116.337 168.035C116.337 169.157 118.203 169.216 118.227 167.846C118.251 166.476 116.313 166.63 116.337 167.988V168.035ZM201.735 174.555C202.172 174.744 202.137 174.721 201.499 171.779C201.369 171.177 196.904 171.213 195.38 170.516C191.954 169.286 188.343 168.647 184.703 168.626C179.978 168.732 182.057 169.642 172.985 168.177C170.407 167.64 167.775 167.406 165.143 167.48C164.835 167.48 164.906 167.551 164.646 169.842C164.729 171.024 164.505 170.965 165.556 170.835C167.08 170.646 168.237 171.118 170.564 171.224C173.275 171.233 175.984 171.387 178.679 171.685C182.376 172.441 185.281 170.15 193.101 172.748C195.983 173.705 199.195 173.421 201.735 174.508V174.555ZM126.223 184.17C127.074 184.701 144.413 193.702 155.575 200.127C162.887 204.344 173.163 208.703 178.017 209.848C183.923 211.254 190.36 211.029 195.191 205.573C195.924 204.758 196.443 203.813 197.164 203.092C199.398 200.788 200.77 197.785 201.05 194.588C200.755 184.394 200.566 184.654 199.869 179.634C199.243 175.323 200.152 175.736 197.66 175.512C192.451 175.063 188.6 173.15 185.848 173.469C178.206 174.413 172.419 172.665 172.454 173.551C172.714 179.233 172.005 179.162 179.6 181.477C180.07 181.681 180.561 181.831 181.065 181.926C181.821 181.926 183.084 182.138 183.427 182.823C184.762 185.363 177.013 182.516 174.757 182.103C142.145 176.197 159.402 179.115 124.404 166.323C124.05 166.193 123.979 166.263 123.956 166.653C123.909 166.887 123.925 167.13 124.002 167.355C124.079 167.581 124.213 167.783 124.393 167.941C126.082 169.464 124.097 177.957 121.085 179.02C120.92 179.069 120.765 179.151 120.631 179.261C120.498 179.37 120.387 179.505 120.306 179.658C119.479 181.122 119.904 180.142 126.223 184.123V184.17ZM120.636 176.15C122.314 176.15 122.526 173.539 120.814 173.551C119.314 173.516 119.278 176.126 120.636 176.103V176.15ZM117.093 170.315C116.172 170.315 115.392 171.496 115.38 172.075C115.405 172.558 115.604 173.016 115.941 173.363C116.278 173.711 116.729 173.924 117.211 173.965C117.677 173.914 118.107 173.689 118.414 173.335C118.721 172.981 118.883 172.524 118.867 172.056C118.851 171.587 118.658 171.141 118.327 170.809C117.995 170.478 117.55 170.284 117.081 170.268L117.093 170.315ZM116.16 175.984C116.16 177.166 117.896 176.835 117.766 175.984C117.731 174.614 116.195 175.146 116.195 175.937L116.16 175.984ZM116.337 180.792C117.199 180.792 117.802 180.638 118.144 179.847C118.487 179.055 118.569 178.996 117.66 178.772C113.809 177.803 114.341 176.823 113.679 177.898C112.652 179.575 111.388 179.315 116.325 180.745L116.337 180.792ZM86.1229 172.524C88.5474 172.806 90.9117 173.472 93.1272 174.496C99.9898 176.858 99.5409 175.819 103.108 176.386C111.376 177.709 111.376 179.055 112.309 176.646C112.546 176.032 111.73 175.028 112.309 172.654C113.42 167.929 113.632 166.641 115.392 165.425C115.9 165.082 115.924 164.704 115.865 162.661C115.865 161.704 109.77 159.023 108.778 158.362C104.714 155.751 107.407 156.85 103.486 154.712C98.4897 151.983 95.088 149.278 90.0916 147.684C80.536 144.613 84.7882 145.51 80.3825 144.53C77.2997 143.845 76.0122 144.695 72.0081 144.861C67.4252 145.05 66.4684 145.818 64.3423 145.759C63.4919 145.759 63.2557 146.692 63.3266 147.412C63.4036 147.841 63.6203 148.232 63.9429 148.525C64.2655 148.818 64.6759 148.995 65.1101 149.03C68.7481 149.526 76.0595 148.109 78.9887 149.255C83.7134 151.097 83.3354 150.436 86.3946 152.042C87.1033 152.42 87.7411 152.597 87.5758 153.153C87.1387 154.192 86.0993 153.046 73.7798 153.153C71.5356 153.378 69.3068 153.742 67.1063 154.239C65.2518 154.487 59.0271 155.066 58.5428 155.562C57.8696 156.247 58.2948 157.428 60.976 157.499C62.7844 157.622 64.6022 157.56 66.3976 157.31C76.7209 156.59 74.4058 157.617 81.9534 158.751C84.4811 159.129 86.5127 159.283 86.2292 160.523C86.0403 161.326 85.8985 161.444 83.6898 161.704C81.6806 161.917 79.662 162.011 77.6422 161.988C72.6577 161.929 72.1734 161.326 64.3423 162.188C62.8399 162.222 61.3434 162.376 59.8657 162.649C58.8499 162.885 58.8145 164.196 59.8657 164.716C62.6178 166.051 70.4962 164.716 74.5239 165.248C76.591 165.496 76.591 166.169 83.2882 166.641C84.7764 166.748 86.2056 168.189 84.8237 168.732C83.4417 169.275 77.1579 169.441 72.0908 169.299C68.63 169.193 66.185 168.909 65.3463 169.417C65.1565 169.584 65.0254 169.807 64.9722 170.054C64.9191 170.301 64.9467 170.559 65.051 170.789C65.1198 170.941 65.2205 171.078 65.3463 171.189C66.5275 172.169 72.9648 172.37 78.0202 172.689C80.7191 172.832 83.4252 172.753 86.1111 172.453L86.1229 172.524ZM43.7311 148.688C44.617 157.629 46.0934 154.275 45.68 161.055C45.5147 163.807 47.4281 166.878 48.1486 169.937C49.3298 174.721 48.9991 188.623 58.1767 202.844C61.9328 208.75 65.9133 208.49 68.4173 208.679C71.2937 208.711 74.1505 208.202 76.839 207.179C79.122 206.321 81.1528 204.904 82.7448 203.057C83.2173 202.537 83.0283 199.69 82.9692 199.005C82.544 193.501 84.5874 191.552 84.989 187.111C85.2725 184.123 84.0795 183.426 84.8 174.874C84.8945 173.693 84.552 175.11 75.0437 174.165C73.8625 174.047 75.3153 175.075 72.7995 177.555C70.2836 180.036 70.4371 177.756 74.3232 180.874C77.406 183.379 79.4494 189.58 77.6422 189.308C76.6973 189.237 77.6422 188.292 74.5948 184.134C72.5396 181.311 69.5394 180.839 68.689 180.225C67.8386 179.611 67.6614 180.225 65.7834 181.3C64.7676 181.914 67.874 181.772 61.4721 192.308C61.2241 192.733 60.291 192.733 60.0547 192.214C59.7122 191.316 59.7004 191.623 62.1808 187.182C63.362 184.985 63.7754 184.879 63.9998 182.575C64.0338 182.266 63.9446 181.957 63.7518 181.713C62.0863 180.083 67.8976 177.792 68.9607 177.532C69.7562 177.313 70.4992 176.936 71.1448 176.422C71.7903 175.909 72.3251 175.27 72.7168 174.543C73.0239 173.445 72.386 173.764 70.4371 173.74C64.9329 173.658 63.1257 172.181 63.0431 170.551C63.0431 169.854 62.9604 168.85 63.61 168.378C65.051 167.35 68.3347 167.893 74.8192 167.846C75.398 167.846 75.3035 167.468 75.3862 167.445C72.6931 165.826 58.283 169.252 57.3499 164.055C57.2307 163.414 57.3047 162.752 57.5625 162.153C57.846 161.456 58.9326 161.149 60.8815 160.972C70.0119 160.358 71.7364 159.992 76.2366 160.381C76.8272 160.381 76.8272 160.169 76.6855 159.72C75.8831 159.388 75.0476 159.142 74.1932 158.988C67.5551 158.196 69.8111 158.905 61.98 158.988C57.9168 159.058 54.4324 157.334 56.8892 154.027C57.5034 153.2 61.2477 153.271 62.2399 152.846C61.4603 152.031 58.8972 151.96 58.3539 151.912C56.3577 151.712 54.2434 153.885 53.2158 155.609C52.1882 157.334 51.0189 158.515 50.5228 158.373C50.0267 158.232 49.9322 158.113 49.9558 157.44C50.0385 153.649 49.4715 154.535 48.7747 150.023C48.5857 148.841 48.9636 148.18 52.2118 144.79C54.1017 142.829 58.8972 142.038 58.1176 138.613C57.9641 137.987 57.4444 137.644 56.9955 137.975C54.6332 139.699 51.6449 139.865 49.4597 141.979C48.1959 143.16 47.0974 142.865 45.9162 144.873C44.7351 146.881 43.6012 147.412 43.7193 148.617L43.7311 148.688ZM44.8296 143.325C44.9359 143.514 45.0304 143.526 45.1249 143.325C45.8572 142.144 47.1565 141.624 48.2313 140.857C48.6458 140.459 49.0922 140.095 49.566 139.77C51.038 139.029 52.548 138.367 54.0899 137.786C55.7789 137.219 57.1727 135.612 58.3421 136.345C60.1492 137.431 60.3736 140.219 58.9208 142.026C56.7238 144.79 55.3773 143.845 52.6134 146.751C49.6015 149.963 50.2511 149.113 51.7512 154.605C53.1213 153.932 54.6332 149.881 59.2515 150.294C61.3538 150.363 63.3885 151.053 65.0983 152.279C65.8542 152.633 65.8542 152.279 71.4765 151.452C76.0476 150.731 86.182 152.55 76.591 150.271C75.4098 149.987 66.2086 150.849 63.7163 150.271C63.0831 150.05 62.534 149.639 62.1447 149.093C61.7554 148.547 61.5451 147.894 61.543 147.223C61.437 146.685 61.5084 146.127 61.7465 145.633C61.9846 145.139 62.3766 144.735 62.8635 144.483C63.1864 144.315 63.5417 144.218 63.9053 144.199C65.2832 144.152 66.649 143.926 67.9685 143.526C69.1497 143.195 69.4922 143.373 69.1497 142.936C67.059 139.782 60.6807 127.722 57.9523 125.431C57.031 124.651 55.9089 125.147 52.6843 125.549C39.9159 127.167 49.1408 125.549 37.9316 127.38C37.6891 127.408 37.4611 127.51 37.2792 127.673C37.0973 127.836 36.9704 128.051 36.9158 128.289C36.5142 129.907 39.6797 134.077 44.8178 143.254L44.8296 143.325ZM35.2858 126.045C35.3413 126.586 35.5278 127.105 35.8291 127.557C36.1126 126.376 36.9394 125.986 39.6089 125.596C43.3177 125.065 48.6211 124.498 51.9402 124.002C59.2988 122.82 58.4956 123.116 61.2241 127.002C69.5749 138.884 69.8111 143.373 71.9372 143.113C73.4373 142.936 73.3664 143.739 69.2914 136.475C67.8268 133.852 62.8186 124.923 60.7398 122.301C60.3887 121.813 59.8989 121.443 59.3342 121.238C57.6716 121.016 55.9838 121.068 54.3379 121.391C44.7233 122.655 38.0733 122.998 36.5024 123.895C36.1595 124.132 35.8721 124.441 35.66 124.8C35.4479 125.159 35.3162 125.559 35.274 125.974L35.2858 126.045Z" fill="#1B1B1D"/>
  <path d="M39.7144 129.426C40.7774 128.587 45.1713 127.973 45.9273 128.02C46.3348 127.995 46.7418 128.077 47.1084 128.256C48.2896 128.953 49.329 130.878 51.0535 134.363C51.2907 134.864 51.492 135.381 51.6559 135.91C51.7529 136.066 51.8122 136.242 51.829 136.424C51.8458 136.607 51.8197 136.791 51.7528 136.961C51.6865 137.132 51.5813 137.285 51.4455 137.408C51.3098 137.531 51.1473 137.621 50.9708 137.67C49.1247 138.508 47.1608 139.058 45.1477 139.3C43.9666 139.383 44.1673 138.887 40.2223 132.768C39.4191 131.516 38.6395 130.264 39.7144 129.426ZM40.9664 131.54C42.0284 133.578 43.2117 135.55 44.5099 137.446C45.1477 138.355 45.88 137.918 47.3329 137.623C48.2193 137.439 49.0829 137.157 49.9078 136.784C50.2976 136.607 50.9354 136.418 50.1677 135.083C48.0298 131.398 47.2384 129.496 46.2108 129.284C44.5335 129.32 42.874 129.631 41.2971 130.205C40.6002 130.453 40.4821 130.689 40.9664 131.54Z" fill="#1B1B1D"/>
  <path d="M44.3207 132.922C44.5102 132.925 44.6961 132.974 44.8625 133.065C45.0289 133.156 45.1708 133.285 45.2762 133.443C45.3815 133.6 45.4476 133.78 45.469 133.968C45.4904 134.156 45.4664 134.346 45.3991 134.523C45.3317 134.7 45.223 134.858 45.082 134.984C44.9411 135.11 44.7719 135.2 44.5888 135.248C44.4057 135.294 44.2132 135.296 44.0289 135.253C43.8447 135.21 43.6734 135.124 43.5293 135.001C42.9623 134.292 43.0923 132.981 44.3207 132.922Z" fill="#1B1B1D"/>
  <path d="M44.4274 131.278C44.2857 130.392 44.9826 130.014 45.6086 129.991C45.8049 129.979 46.0013 130.013 46.1819 130.091C46.3625 130.169 46.5222 130.288 46.648 130.439C46.786 130.573 46.8929 130.735 46.9608 130.914C47.0287 131.093 47.0561 131.285 47.0408 131.476C47.0256 131.668 46.9681 131.853 46.8726 132.019C46.7771 132.186 46.6459 132.329 46.4885 132.438C46.2783 132.584 46.0302 132.666 45.7739 132.672C44.9235 132.625 44.5573 132.164 44.4274 131.278Z" fill="#1B1B1D"/>
  <path d="M48.3132 133.806C49.7897 134.562 49.1282 137.149 47.3447 136.523C46.947 136.347 46.6348 136.021 46.4756 135.617C46.3164 135.212 46.3231 134.761 46.4942 134.361C46.5684 134.197 46.6767 134.051 46.8119 133.932C46.9471 133.813 47.106 133.725 47.2782 133.672C47.4503 133.62 47.6316 133.605 47.8101 133.628C47.9886 133.651 48.1601 133.712 48.3132 133.806Z" fill="#1B1B1D"/>
  <path d="M50.2985 72.8084C49.4835 66.2293 60.173 65.497 60.1494 72.9973C60.1258 78.1354 51.1726 79.9426 50.2985 72.8084ZM58.5666 71.8634C56.9721 66.9852 49.5662 69.6901 52.271 74.2257C54.0428 77.3558 59.7478 75.5959 58.5312 71.8634H58.5666Z" fill="#1B1B1D"/>
  <path d="M88.3785 161.668C88.7328 159.459 89.9376 159.376 89.5596 157.888C89.2305 157.226 89.0914 156.486 89.158 155.75C89.3825 153.931 90.6936 153.683 90.7644 151.663C90.7644 150.837 90.5164 150.116 91.166 150.022C92.3472 149.856 92.2763 151.817 92.0873 152.939C91.7448 154.982 90.3038 155.077 90.977 156.908C91.6503 158.739 91.1306 159.601 90.2093 161.337C89.5833 162.518 90.8235 163.369 90.7408 165.648C90.6617 166.893 90.3947 168.12 89.9494 169.286C89.9103 169.476 89.7986 169.643 89.6381 169.751C89.4777 169.859 89.2812 169.901 89.0907 169.866C88.9004 169.832 88.7308 169.726 88.6177 169.569C88.5046 169.412 88.4569 169.218 88.4848 169.026C88.5557 168.022 88.9572 166.487 89.0163 165.766C89.1462 164.302 88.1068 163.333 88.3785 161.668Z" fill="#1B1B1D"/>
  <path d="M91.3313 142.215C90.8116 142.097 90.6699 141.837 90.7171 140.845C92.1936 132.128 92.3353 131.797 93.1621 131.939C93.9889 132.081 94.0362 131.939 92.229 141.554C92.1227 142.144 91.8628 142.333 91.3313 142.215Z" fill="#1B1B1D"/>
  <path d="M93.4817 39.7862C94.7692 38.7704 100.096 37.5538 101.018 36.8096C101.738 36.2191 102.116 37.2112 102.435 37.4711C103.321 38.2152 102.435 39.2901 101.466 39.5854C97.5331 40.7665 99.9899 39.9279 94.9818 41.239C94.155 41.4516 91.8045 44.3573 91.521 41.8886C91.3911 41.4634 91.5092 41.3335 93.4817 39.7862Z" fill="#1B1B1D"/>
  <path d="M100.639 45.0407C100.854 45.0642 101.06 45.1383 101.241 45.2569C101.422 45.3755 101.572 45.5353 101.679 45.7232C101.787 45.911 101.848 46.1216 101.858 46.3376C101.868 46.5536 101.827 46.769 101.738 46.966C101.686 47.1503 101.581 47.3153 101.437 47.4405C101.292 47.5657 101.114 47.6455 100.924 47.67C100.734 47.695 100.541 47.664 100.369 47.5809C100.197 47.4978 100.053 47.3662 99.954 47.2022C99.4343 46.4935 99.4934 44.9817 100.639 45.0407Z" fill="#1B1B1D"/>
  <path d="M104.111 65.3664C115.426 59.8268 113.867 62.2718 123.128 63.1104C123.342 63.0837 123.55 63.0197 123.742 62.9214C121.061 60.5591 125.348 60.3465 125.537 64.1026C125.49 64.464 125.407 64.8207 125.289 65.1656C125.053 65.768 124.25 65.709 124.025 64.8113C124.025 64.6696 124.025 64.5987 123.789 64.6577C122.32 65.0393 120.879 65.5247 119.478 66.1106C111.564 69.6659 101.099 66.8429 104.111 65.3664ZM113.666 66.1106C117.363 65.7208 116.407 65.6145 119.572 64.4806C121.025 63.9609 114.387 63.5356 114.245 63.5238C112.662 63.5238 111.103 63.2758 107.076 65.709C109.231 66.2318 111.463 66.3677 113.666 66.1106Z" fill="#1B1B1D"/>
  <path d="M111.6 76.1524C113.254 75.243 113.1 73.2586 120.518 74.5224C120.692 74.5448 120.851 74.6297 120.967 74.7612C121.083 74.8928 121.146 75.0619 121.146 75.237C121.146 75.4122 121.083 75.5813 120.967 75.7129C120.851 75.8444 120.692 75.9293 120.518 75.9516C119.514 76.1524 115.616 74.9122 113.88 76.5777C111.411 79.0109 110.596 76.7076 111.6 76.1524Z" fill="#1B1B1D"/>
  <path d="M112.793 31.4947C112.793 30.2545 115.876 29.7939 116.632 29.7584C119.325 29.6403 119.739 29.8647 122.243 31.0459C126.483 33.1129 124.735 36.1013 123.518 34.3531C122.881 33.4318 123.318 34.3531 121.688 33.4673C119.455 32.1916 118.227 32.8058 115.864 32.9239C114.974 32.9969 114.11 33.2673 113.337 33.7153C113.191 33.788 113.028 33.8168 112.866 33.7982C112.704 33.7795 112.552 33.7143 112.426 33.6104C112.301 33.5065 112.209 33.3684 112.161 33.2129C112.113 33.0575 112.111 32.8914 112.156 32.735C112.321 32.0735 112.817 32.0735 112.793 31.4947Z" fill="#1B1B1D"/>
  <path d="M121.77 78.0435C121.77 79.4136 118.498 78.2561 117.246 79.5672C117.033 79.7916 116.171 80.0278 115.982 79.5672C115.013 77.2403 121.71 76.6733 121.77 78.0435Z" fill="#1B1B1D"/>
  <path d="M120.459 43.1503C118.817 42.7841 118.876 40.5872 120.175 40.4573C121.983 40.2683 122.207 43.5401 120.459 43.1503Z" fill="#1B1B1D"/>
  <path d="M138.082 47.1091C138.802 44.4042 139.168 42.3844 141.247 42.5616C141.639 42.5777 142.021 42.6849 142.364 42.8748C142.707 43.0647 143.001 43.332 143.222 43.6555C143.443 43.9789 143.586 44.3495 143.639 44.7379C143.692 45.1263 143.653 45.5216 143.527 45.8925C143.302 46.7547 142.523 46.424 142.452 45.4909C142.381 44.5578 141.412 43.79 140.845 44.4042C140.278 45.0184 140.255 45.5854 139.664 47.1445C139.215 48.4083 140.609 48.2666 141.271 50.2982C142.05 52.755 139.96 54.3614 138.578 53.6409C137.952 53.322 137.94 52.7314 138.849 52.4597C139.759 52.1881 140.101 51.7983 139.948 51.2077C139.511 49.5541 137.597 48.9989 138.082 47.1091Z" fill="#1B1B1D"/>
  <path d="M161.705 143.666C161.032 144.233 160.311 143.808 160.382 143.158C160.477 142.178 156.378 113.795 160.831 115.283C161.599 115.543 159.78 116.996 160.619 125.914C161.186 131.973 160.713 130.957 160.985 134.182C161.233 137.182 162.662 142.851 161.705 143.666Z" fill="#1B1B1D"/>
  <defs>
    <linearGradient id="paint0_linear_3901_16290" x1="35.3094" y1="121.031" x2="66.1906" y2="146.739" gradientUnits="userSpaceOnUse">
      <stop stop-color="#FFEA8A"/>
      <stop offset="1" stop-color="#FFD200"/>
    </linearGradient>
  </defs>
</svg>
