<svg width="240" height="200" viewBox="0 0 240 200" fill="none" xmlns="http://www.w3.org/2000/svg">
  <path d="M204.993 209.341C146.222 209.399 31.007 209.488 23.8924 209.305C14.3146 209.058 -0.499442 210.778 0.813063 197.024C1.61877 189.063 1.61877 181.051 0.813063 173.09H238.911C239.376 180.228 239.376 187.385 238.911 194.524C238.08 203.743 225.332 209.321 204.993 209.341Z" fill="white"/>
  <path d="M78.2929 150.344C78.9953 150.209 79.1178 150.313 79.0698 151.007C78.8651 153.987 76.82 153.553 71.2731 154.781C61.4299 156.96 61.0257 157.627 59.1106 154.941C58.2617 153.751 61.2846 155.033 62.1916 152.636C62.5706 151.633 62.4961 151.51 63.1378 152.168C66.0433 155.139 65.4281 151.441 66.3704 150.126C67.2787 150.965 68.2173 155.182 69.4515 152.774C71.1063 149.546 70.5884 149.012 71.9843 151.056C72.0865 151.252 72.2637 151.405 72.4814 151.486C72.6991 151.567 72.9416 151.57 73.1616 151.495C74.8205 150.936 76.5416 150.55 78.2929 150.344Z" fill="white"/>
  <path d="M78.7311 148.855C78.7564 148.972 78.5821 149.248 78.0831 149.295C71.8313 149.88 74.5801 151.985 71.4473 148.545C69.9756 146.929 69.9529 150.416 68.7048 151.696C68.1246 150.855 67.5912 149.986 67.1068 149.095C65.5366 146.522 65.3812 150.251 64.454 151.849C62.7739 150.641 62.3785 149.203 61.2113 152.317C60.9131 153.113 60.4533 153.105 59.5387 153.271C58.5105 153.457 58.3311 153.681 58.0229 151.529C57.8372 150.225 58.4839 149.288 60.2601 148.371C63.4047 146.974 66.7499 146.003 70.1929 145.487C74.5978 144.797 76.0493 145.436 76.715 145.678C77.7888 146.076 78.289 146.888 78.7311 148.855Z" fill="white"/>
  <path d="M92.2195 161.471C92.2927 161.562 92.3584 161.658 92.414 161.76C89.7486 162.255 87.0516 162.589 84.3394 162.76C80.1429 163.154 79.8587 163.424 79.5707 162.512C78.8279 160.163 78.6093 160.083 79.2637 159.925C80.1702 159.73 81.003 159.312 81.6739 158.715C82.3448 158.118 82.8289 157.364 83.0749 156.533C83.445 155.636 83.5625 156.127 85.4586 155.034C85.9829 154.735 85.3967 154.404 92.2195 161.471Z" fill="white"/>
  <path d="M61.4493 164.502C61.4493 164.916 62.1099 165.333 61.2143 165.426C44.4511 167.18 45.6601 167.461 45.8786 166.706C46.7262 163.772 46.677 163.688 47.1418 163.74C49.0367 163.952 49.6342 164.464 52.4992 163.102C53.453 162.648 52.8188 164.214 56.3294 164.388C59.8399 164.562 61.4606 163.186 61.4493 164.502Z" fill="white"/>
  <path d="M110.719 157.548C111.368 159.204 111.341 159.241 109.467 159.444C108.474 159.55 110.519 161.596 98.0446 134.358C97.8058 133.836 98.6042 133.39 98.8847 133.128C100.689 131.438 97.1161 130.073 97.3549 129.047C97.509 127.924 97.2783 126.785 96.6955 125.79C94.3218 120.527 94.7261 120.48 93.2493 119.175C91.741 117.842 90.6736 119.87 89.3333 119.732C87.8338 119.578 87.2351 120.423 86.4683 121.288C85.9352 120.788 86.798 122.029 82.8643 115.301C81.6907 113.294 79.0291 114.436 79.7062 116.569C80.4009 118.746 82.1063 122.218 83.2988 124.866C83.5868 125.509 82.5661 125.376 82.9552 126.971C83.2969 128.112 83.8881 129.176 84.6921 130.097C85.496 131.018 86.4957 131.776 87.6292 132.325C88.324 132.82 88.1509 133.751 88.4225 134.711C89.0036 136.76 90.7102 135.328 91.1928 136.582C92.312 139.492 97.8336 153.976 97.845 154.136C97.413 153.862 89.951 146.461 89.7274 146.239C85.7166 142.262 87.2199 143.14 85.8607 141.121C81.6389 134.845 76.5721 139.133 74.5749 138.867C68.6768 138.089 66.6165 140.058 66.0455 138.783C64.4942 135.312 63.5708 134.362 63.898 133.988C65.6792 131.944 65.2964 129.256 65.3482 127.204C65.3709 126.329 67.7408 126.559 67.5399 123.853C67.3706 121.554 66.3398 118.1 63.9422 118.671C63.1312 118.865 62.5981 116.829 60.9685 115.35C55.7665 110.629 43.4739 112.841 43.3754 121.359C43.5965 123.339 43.7405 123.415 43.2857 123.61C38.8164 125.521 42.4633 133.682 46.6005 131.494C48.2603 130.617 47.1057 133.592 54.3239 136.816C55.0161 137.125 54.7142 137.008 56.292 140.694C57.0613 142.492 55.5821 140.775 49.871 144.772C49.2103 145.234 44.6828 143.135 40.763 147.485C37.3043 151.323 41.2506 154.893 40.0417 156.582C39.3545 155.206 36.6853 146.978 33.8392 139.749C22.158 110.07 23.1231 112.554 23.7333 112.576C29.8474 112.803 61.7808 110.812 89.4571 110.507C93.2178 110.466 91.8408 109.892 95.1619 118.163C95.359 118.656 101.846 134.037 103.752 139.037C111.76 159.978 107.413 149.109 110.719 157.548Z" fill="#FFD200"/>
  <path d="M226.321 119.053C226.476 121.694 225.905 121.267 224.755 127.13C224.049 130.728 224.964 128.734 223.881 133.329C222.226 140.364 222.533 141.917 220.646 144.908C215.447 153.158 220.186 152.744 214.508 166.675C211.172 174.862 200.926 171.801 200.921 172.576C196.787 172.576 195.783 172.967 192.204 170.938C184.041 166.322 184.611 163.651 181.358 161.897C179.251 160.761 176.215 159.612 173.387 156.894C172.424 155.969 163.795 149.922 163.774 149.896C161.428 147.151 164.644 149.312 167.576 144.495C169.287 141.688 169.991 141.454 171.141 138.647C172.131 136.233 172.733 134.075 169.366 131.43C165.511 128.402 165.525 129.281 163.094 127.182C162.565 126.703 161.866 126.418 161.127 126.38C160.388 126.342 159.659 126.553 159.076 126.975C158.72 127.259 158.646 127.002 158.535 126.766C152.245 113.396 152.647 114.888 142.661 104.386C142.325 104.035 142.275 103.783 143.455 100.711C143.625 100.362 143.822 100.027 144.046 99.7049C144.548 98.6776 145.29 97.7662 146.219 97.0359C147.147 96.3057 148.238 95.7749 149.415 95.4816C150.965 95.1237 148.347 95.2184 158.951 92.0699C159.077 92.436 159.167 92.8114 159.22 93.1916C159.364 96.1775 160.584 99.0079 160.669 99.9915C160.921 102.891 164.495 107.067 164.978 107.568C165.566 108.18 167.639 108.407 167.989 107.07C169.969 99.512 168.932 103.253 169.917 101.007C171.274 97.9155 170.969 98.2114 171.207 97.8757C172.003 96.7471 171.917 97.2909 172.596 97.4617C176.429 98.4453 177.11 98.6792 179.28 98.5786C179.606 98.5634 179.831 99.0196 180.695 101.983C180.86 102.551 180.51 102.423 177.054 101.816C172.623 101.037 173.041 101.161 172.336 100.984C171.361 100.741 170.809 101.829 171.831 102.144C179.88 104.612 181.088 102.977 181.319 103.976C182.01 106.947 181.967 110.27 184.88 109.09C186.396 108.476 195.679 98.4067 197.687 93.719C199.438 89.6255 198.992 89.2466 199.787 89.6255C201.621 90.5101 203.562 91.1882 205.569 91.6454C206.059 91.8033 208.399 93.0886 210.056 93.7038C212.638 94.6629 212.962 95.8442 218.147 99.3798C221.854 101.907 221.4 103.671 224.182 107.539C225.414 109.259 225.82 110.515 226.321 119.053Z" fill="#00703F"/>
  <path d="M211.346 22.7541C211.607 22.772 211.859 22.851 212.078 22.9838C212.298 23.1166 212.477 23.2987 212.599 23.5131C212.723 23.7269 212.786 23.9661 212.782 24.2085C212.779 24.4509 212.709 24.6885 212.579 24.8991C212.273 25.2679 212.102 25.7172 212.091 26.1819C212.08 26.6467 212.228 27.1027 212.516 27.4839C212.918 28.078 212.396 29.2745 211.475 29.7915C209.662 30.8078 212.014 31.83 210.156 32.9493C208.64 33.8569 207.529 33.74 207.954 34.8113C208.151 35.3084 208.377 35.7762 207.741 36.1575C205.865 37.2814 205.475 35.982 205.054 35.9481C203.557 35.8241 203.938 36.3516 204.196 37.6931C204.256 38.0186 204.201 38.3534 204.037 38.6467C203.873 38.9401 203.611 39.1761 203.289 39.3189C203.076 39.4136 202.843 39.4647 202.607 39.4686C202.271 39.4756 201.774 39.5855 201.646 39.7984C201.091 40.7153 203.453 40.7949 202.17 41.8007C200.78 42.8861 202.831 43.1317 202.108 44.1036C201.614 44.7691 200.655 45.4358 200.507 44.6884C200.481 44.5527 200.596 44.3773 200.54 44.2685C199.238 41.7352 197.909 47.5609 201.839 49.8907C205.418 52.0111 203.753 54.652 203.144 56.1479C202.594 57.5 203.821 58.6906 205.141 59.4473C206.126 60.0122 206.049 60.5818 204.944 63.8707C204.276 65.859 205.528 66.48 206.558 67.7303C209.864 71.7209 204.202 71.8343 206.601 75.4893C206.814 75.9501 206.952 76.4366 207.017 76.9337H206.87C204.849 74.8437 203.72 74.2215 204.7 72.3209C207.628 66.6402 200.683 68.2133 202.716 63.8461C203.045 63.1239 203.073 62.3145 202.796 61.574C202.519 60.8334 201.955 60.2142 201.214 59.8356C200.939 59.7408 200.692 59.5901 200.489 59.3948C200.286 59.1994 200.133 58.9644 200.041 58.707C199.951 58.4491 199.924 58.1756 199.963 57.9069C200.003 57.6381 200.107 57.3811 200.269 57.1549C200.613 56.2928 200.642 55.3497 200.35 54.471C200.058 53.5923 199.462 52.8269 198.654 52.293C194.878 50.2053 197.265 49.5831 195.022 47.5539C194.157 46.7714 196.677 46.6814 195.461 42.541C194.798 40.2826 193.28 39.9843 193.603 39.1095C193.828 38.4729 193.885 37.7957 193.769 37.1345C193.653 36.4734 193.368 35.8476 192.937 35.3095C192.262 34.5188 191.336 33.943 190.29 33.6628C188.855 33.1072 189.464 29.2523 185.076 29.3061C183.908 29.3201 183.812 29.1061 183.709 28.7049C183.144 26.5693 179.87 25.6968 178.412 25.9845C178.334 25.9847 178.258 25.9678 178.188 25.9353C178.119 25.9028 178.059 25.8555 178.013 25.7973C177.575 25.2769 176.995 24.8738 176.334 24.6294C175.672 24.385 174.952 24.3081 174.247 24.4067C173.598 24.5576 172.691 25.1728 172.404 24.8453C170.877 23.0909 172.855 22.3459 173.312 22.0149C173.438 21.9408 173.539 21.8354 173.603 21.7106C173.667 21.5859 173.692 21.4469 173.675 21.3097C173.658 21.1721 173.598 21.042 173.504 20.9347C173.409 20.8274 173.284 20.7473 173.142 20.7038C172.432 20.4173 170.567 19.905 170.647 18.7237C170.724 17.5916 173.066 17.4091 173.028 16.9039C173.012 16.7077 172.951 16.5169 172.849 16.3443C172.747 16.1716 172.607 16.0211 172.437 15.9027C169.969 14.5518 171.949 11.6372 173.617 12.3823C174.538 12.7939 175.252 12.229 175.057 11.2209C174.909 10.794 174.905 10.3358 175.045 9.90668C175.184 9.47756 175.461 9.09774 175.839 8.81738C176.216 8.53656 176.675 8.36766 177.157 8.33281C177.639 8.29795 178.122 8.39877 178.541 8.62206C178.882 8.78931 179.164 9.05831 179.51 9.20685C181.405 10.0466 180.541 7.75891 180.899 6.51681C180.929 6.32776 181.001 6.14641 181.109 5.98406C181.218 5.82171 181.362 5.68186 181.532 5.57322C181.701 5.46458 181.893 5.38948 182.096 5.35261C182.298 5.31574 182.507 5.31789 182.708 5.35893C182.979 5.41273 183.226 5.53437 183.426 5.71097C183.996 6.07822 185.034 7.34839 185.573 7.19049C186.172 7.01389 186.139 5.43612 186.345 4.8794C186.964 3.20222 188.24 5.34723 188.263 5.37063C188.519 5.55425 188.795 5.71448 189.085 5.84898C189.319 5.58232 189.503 5.28057 189.628 4.95659C189.743 4.35894 188.958 2.76363 190.505 2.50048C192.166 2.21159 192.51 3.88292 192.593 3.96245C193.139 4.48525 193.541 4.54724 194.052 3.8607C194.513 3.23965 194.292 1.79054 196.379 1.63031C196.833 1.59522 197.577 2.22446 197.807 2.84784C197.879 3.04082 197.909 3.24667 197.975 3.44199C198.638 5.38934 199.755 2.53322 201.796 3.55895C202.976 4.15543 203.807 4.79285 203.288 5.83963C202.903 6.6174 203.273 7.70043 204.247 7.25482C205.221 6.80921 205.942 7.51213 207.46 8.66767C209.689 10.3647 207.574 11.0922 207.693 12.5144C207.733 12.9998 208.22 13.2021 208.729 13.0349C209.866 12.6594 210.18 12.8548 210.524 13.9203C211.104 15.7226 209.756 16.0115 209.277 17.0419C209 17.636 209.159 18.1974 209.974 18.1085C211.029 17.9916 213.111 18.7518 212.089 19.9354C211.469 20.6699 208.965 22.3939 211.346 22.7541Z" fill="#3B3C3F"/>
  <path d="M196.885 68.544C197.242 69.91 197.926 68.8714 197.825 71.2925C197.797 71.986 195.342 68.2621 195.299 68.1931C194.548 67.0095 197.901 64.9686 194.124 62.6961C193.518 62.33 193.077 61.7604 193.557 61.2212C194.341 60.3405 193.809 59.116 193.754 57.7324C193.706 56.3815 191.908 56.5721 192.636 59.1043C192.691 59.2307 192.719 59.366 192.717 59.5024C192.716 59.6388 192.685 59.7736 192.628 59.899C192.57 60.0245 192.486 60.1382 192.381 60.2336C192.276 60.329 192.151 60.4043 192.014 60.4551C191.832 60.5236 191.634 60.5466 191.44 60.5218C190.783 60.4715 190.519 60.682 190.487 59.9955C190.178 53.3219 184.158 52.8131 182.034 54.9394C180.553 56.4224 177.469 55.2669 178.767 53.2353C180.108 51.1301 177.021 52.4669 177.008 50.5874C177.008 49.8038 177.205 48.8529 175.816 49.1547C173.485 49.6611 172.336 47.5102 173.441 46.4284C173.647 46.2436 173.834 46.0412 173.999 45.8237C174.096 45.6994 174.158 45.5543 174.177 45.4021C174.197 45.2499 174.174 45.0955 174.112 44.9535C174.048 44.8119 173.947 44.6877 173.816 44.5931C173.686 44.4984 173.531 44.4365 173.368 44.4132C172.568 44.2413 171.725 44.2483 171.364 43.4775C170.671 42.0003 169.79 43.1103 169.232 43.5477C167.998 44.5173 166.156 43.9173 166.42 42.3781C166.451 42.184 166.448 41.9863 166.408 41.7933C165.464 39.7536 164.952 41.384 163.479 42.3617C161.853 43.4424 162.468 41.3618 161.53 40.9664C161.109 40.7887 160.709 41.0202 160.443 41.4343C159.932 42.2366 159.079 42.1968 158.579 41.3629C158.475 41.1898 158.2 40.0097 157.596 39.9524C156.929 39.8881 156.402 41.0869 155.828 41.7653C154.681 43.115 151.328 39.2097 151.174 44.0869C151.104 46.2564 148.164 44.0167 147.192 45.5687C146.938 45.8585 146.778 46.2088 146.73 46.5792C146.682 46.9496 146.748 47.3251 146.921 47.6623C147.358 48.35 147.097 48.1512 144.726 49.5137C144.429 49.5828 144.115 49.5622 143.831 49.4549C143.547 49.3476 143.308 49.1593 143.147 48.9172C142.463 47.5944 142.263 47.7219 143.285 46.5921C144.879 44.8377 141.78 44.5781 142.308 42.598C142.872 40.4799 145.32 41.7699 144.745 39.908C144.627 39.6222 144.533 39.3281 144.465 39.0284C144.424 38.6784 144.476 38.3245 144.615 37.997C144.755 37.6696 144.979 37.3786 145.267 37.1489C145.556 36.9197 145.901 36.7594 146.272 36.682C146.643 36.6045 147.03 36.6122 147.397 36.7045C147.584 36.7817 147.795 36.7917 147.989 36.7324C148.184 36.6731 148.347 36.5489 148.448 36.384C148.515 36.2751 148.551 36.1526 148.555 36.0273C148.7 35.3292 149.124 34.7075 149.743 34.2866C150.362 33.8656 151.13 33.6766 151.893 33.7571C154.303 33.9314 152.172 30.0145 156.363 30.7162C157.301 30.873 157.571 30.7747 157.889 29.9244C158.028 29.3601 158.377 28.8593 158.875 28.5104C159.374 28.1615 159.99 27.9871 160.614 28.018C161.695 28.2227 162.635 29.6227 163.242 28.08C163.355 27.7971 163.547 27.5467 163.797 27.3534C164.047 27.1602 164.348 27.0309 164.669 26.9783C164.99 26.926 165.32 26.9524 165.627 27.055C165.933 27.1576 166.205 27.3328 166.416 27.563C167.404 28.6379 167.195 27.7666 170.158 26.4087C171.316 25.8777 171.747 28.7478 172.984 26.7595C173.982 25.1607 176.61 25.7677 176.824 27.0753C176.919 27.6601 177.649 27.1631 178.291 26.949C178.974 26.8045 179.685 26.8255 180.357 27.0098C181.029 27.1942 181.638 27.5358 182.126 28.0016C182.847 28.9513 182.391 29.9595 184.13 30.0601C186.702 30.2086 187.818 30.2379 188.22 32.5969C188.424 33.8051 188.509 33.9384 189.753 34.3373C194.988 36.0168 190.856 38.7045 193.24 40.3512C194.021 41.0469 194.564 41.9396 194.801 42.9186C195.039 43.8975 194.961 44.9195 194.576 45.8576C194.258 46.2736 194.111 46.7811 194.162 47.2886C194.213 47.7961 194.458 48.27 194.853 48.6248C195.911 49.8061 195.421 51.4435 193.969 52.6587C193.026 53.4447 193.969 54.1277 194.8 55.0131C197.036 57.3815 193.396 60.3534 196.914 62.758C199.805 64.7311 196.352 66.4949 196.885 68.544Z" fill="#3B3C3F"/>
  <path d="M197.507 87.138C197.516 88.3298 197.969 89.5427 197.381 90.7017C193.562 98.1589 186.061 106.842 184.124 107.735C183.655 107.952 183.674 107.502 183.619 107.305C183.366 106.385 181.267 96.2841 179.355 96.3695C178.863 96.3917 178.907 95.0198 180.007 94.6362C181.476 94.1239 181.721 94.7251 183.864 93.0561C189.181 88.9122 187.388 91.0549 191.781 86.5298C193.891 84.3544 191.687 80.5579 190.486 81.5287C189.834 82.0573 190.85 83.3907 191.086 83.8515C191.359 84.3848 191.12 84.5275 190.747 85.1485C190.202 84.586 190.436 85.4924 188.736 80.2246C188.577 79.7299 189.89 78.9685 192.502 80.6047C194.754 82.0152 195.252 81.7486 195.727 83.0608C196.29 84.6246 197.506 87.1134 197.507 87.138Z" fill="white"/>
  <path d="M187.596 81.6254C188.869 86.8885 190.52 86.0359 188.896 87.3915C188.87 87.4137 182.295 92.313 182.266 92.3329C180.728 93.3856 178.721 92.8756 178.147 94.3423C177.119 96.9762 178.804 97.692 175.722 96.9364C175.602 96.9072 175.477 96.6849 175.46 96.5422C175.358 95.8376 175.038 95.1751 174.54 94.6339C174.042 94.0926 173.386 93.6954 172.651 93.4896C170.918 93.244 169.382 90.6979 169.346 90.4745C169.302 90.1856 169.117 90.9423 173.427 86.319C175.759 83.6047 177.532 80.5168 178.659 77.2091C178.809 76.8489 178.912 76.4793 178.423 76.2571C176.851 75.5378 175.541 81.6441 168.618 85.0371C165.626 86.5026 164.07 86.1038 162.485 85.1541C160.355 83.8769 154.46 77.3342 154.439 77.3085C150.034 72.1495 149.818 71.3097 149.666 67.7764C149.661 66.1205 149.325 64.4798 148.676 62.9367C148.472 62.212 148.54 61.4446 148.869 60.7604C149.199 60.0763 149.769 59.5161 150.488 59.1718C151.225 58.9017 152.222 59.5707 152.564 58.718C152.768 58.2104 152.463 57.4186 151.933 57.3356C151.28 57.1922 150.598 57.2169 149.959 57.4069C149.376 57.5952 148.846 57.9035 148.41 58.3087C147.974 58.7138 147.642 59.2053 147.441 59.7461C146.938 58.4077 146.578 57.0268 146.367 55.6233C146.145 54.1113 146.027 52.5878 146.013 51.062C145.99 50.3193 146.11 50.3263 147.23 49.8924C150.711 48.5462 146.977 46.4702 148.924 46.4737C151.238 46.4737 152.713 46.4164 152.689 44.4141C152.673 43.0106 152.673 43.0106 154.165 43.3907C154.67 43.5599 155.22 43.582 155.739 43.4538C156.258 43.3257 156.723 43.0535 157.07 42.6737C157.846 41.848 158.213 44.0316 160.639 43.3463C161.379 43.1381 161.751 44.7989 163.912 43.8001C165.159 43.2246 164.714 43.3533 165.204 44.1509C165.443 44.4904 165.752 44.7829 166.113 45.0117C166.474 45.2406 166.88 45.4013 167.308 45.4846C167.736 45.5679 168.178 45.5722 168.608 45.4973C169.038 45.4224 169.448 45.2697 169.814 45.048C170.199 44.8234 170.389 44.9123 170.735 45.0924C170.918 45.1537 171.085 45.2495 171.226 45.3737C171.367 45.498 171.478 45.6479 171.553 45.8141C171.628 45.9802 171.665 46.1588 171.663 46.3388C171.661 46.5188 171.619 46.6964 171.539 46.8608C171.44 47.3345 171.455 47.8234 171.582 48.2912C171.708 48.7599 171.945 49.1971 172.274 49.5715C172.604 49.9459 173.018 50.2484 173.489 50.4573C173.959 50.6667 174.471 50.7778 174.993 50.7836C175.635 50.7567 175.478 52.1076 176.817 52.9649C176.904 53.0453 176.97 53.1435 177.008 53.2516C177.046 53.3597 177.057 53.4746 177.038 53.5871C176.95 54.2123 177.076 54.8473 177.398 55.4028C177.72 55.9584 178.222 56.4065 178.833 56.6841C179.239 56.8689 179.682 56.973 180.133 56.9917C181.059 57.028 180.458 57.497 180.53 58.1333C180.575 58.3216 180.647 58.504 180.742 58.6759C181.71 58.1286 181.052 58.8584 182.132 56.6689C182.343 56.3241 182.626 56.0215 182.964 55.7785C183.302 55.5356 183.689 55.3572 184.102 55.2537C184.515 55.1493 184.946 55.1214 185.371 55.1716C185.795 55.2218 186.205 55.3491 186.576 55.5461C189.63 57.1836 189.572 61.7063 188.162 64.9308C187.747 65.5544 187.124 66.0367 186.388 66.3059C185.652 66.575 184.842 66.6166 184.078 66.4244C182.941 66.0431 183.05 67.5472 183.573 67.7273C184.758 68.1472 184.332 68.1063 187.596 81.6254ZM171.724 71.801C173.035 70.6782 168.983 68.0174 168.164 69.3215C167.986 69.6045 167.945 69.9671 168.441 70.1121C168.585 70.1542 168.863 70.2384 168.52 70.6057C167.128 71.6002 165.59 72.4052 163.951 72.9963C158.875 74.8255 157.399 74.2466 157.312 75.3354C157.24 76.2407 158.09 75.8115 159.008 76.505C162.04 78.8067 162.5 80.1459 164.945 80.3143C168.16 80.533 169.33 73.677 170.125 71.7928C170.308 71.3565 170.665 71.332 170.803 71.5507C171.042 71.9261 171.413 72.0676 171.724 71.801ZM169.264 55.5766C169.517 54.29 165.434 53.614 164.028 53.5356C161.322 53.6386 159.901 55.0397 158.397 56.8198C157.639 57.7169 158.796 58.7028 159.702 57.828C165.731 52 168.841 57.6876 169.264 55.5766Z" fill="#FDE6B9"/>
  <path d="M182.158 164.517C186.273 169.182 185.538 168.443 192.642 172.857C153.515 172.857 162.984 174.026 142.53 168.763C139.096 167.88 138.956 168.061 139.269 167.491C140.578 165.135 140.001 166.018 141.768 161.588C142.92 159.458 143.547 157.118 143.605 154.736C144.041 147.708 147.343 149.809 146.666 143.14C146.496 140.312 146.898 137.48 147.85 134.789C147.954 134.863 148.06 134.932 148.159 135.014C150.417 136.885 150.685 137.002 150.444 137.508C149.241 139.964 150.386 141.368 152.819 142.654C155.307 143.957 153.367 143.978 156.803 146.163C163.769 150.599 160.157 149.663 168.374 155.1C173.163 158.271 172.688 158.65 174.387 159.677C179.364 162.689 180.81 162.99 182.158 164.517Z" fill="#00703F"/>
  <path d="M172.378 94.8835C172.791 94.9547 173.166 95.1537 173.442 95.448C173.717 95.7423 173.876 96.1143 173.894 96.5034C173.236 96.2449 172.532 95.1782 171.332 95.8016C168.442 97.294 166.864 105.86 166.384 106.751C166.177 106.626 165.894 106.542 165.771 106.364C162.671 101.868 161.875 101.865 160.402 90.9958C160.842 89.1689 162.171 86.776 163.334 87.0906C165.949 87.7923 166.813 86.997 166.975 87.5397C167.881 90.5444 168.647 94.1794 172.378 94.8835Z" fill="white"/>
  <path d="M170.258 134.133C170.595 134.575 170.806 135.088 170.872 135.626C170.938 136.163 170.858 136.707 170.637 137.208C169.822 139.889 169.723 140.642 168.664 141.316C166.066 142.968 166.666 144.745 163.959 146.254C162.406 147.119 161.508 147.721 160.464 146.974C156.748 144.312 156.186 144.546 155.309 143.1C154.417 141.631 153.162 141.541 152.078 140.506C151.735 140.179 150.6 139.454 151.967 137.913C152.568 138.421 152.443 138.281 152.472 138.498C152.851 141.904 157.308 139.293 159.194 136.831C159.215 136.805 159.224 136.642 162.892 131.636C163.06 131.413 163.151 131.149 163.155 130.877C163.158 130.605 163.074 130.339 162.913 130.112C162.75 129.886 162.517 129.71 162.246 129.608C161.974 129.506 161.675 129.481 161.388 129.538C161.124 129.593 159.177 128.819 159.852 127.936C160.526 127.053 161.835 127.702 162.252 128.22C165.089 130.858 165.448 129.227 170.258 134.133Z" fill="#28D27D"/>
  <path d="M168.737 71.8438C168.797 72.3268 169.028 71.5408 167.262 76.7279C166.86 77.9104 165.824 79.4378 164.669 79.1981C163.513 78.9583 162.546 78.218 159.511 75.4262C160.94 75.1096 162.343 74.6968 163.707 74.1911C165.49 73.6218 167.182 72.8323 168.737 71.8438Z" fill="white"/>
  <path d="M159.882 130.333C161.789 131.778 161.238 130.952 157.734 136.208C156.929 137.413 154.749 138.555 154.533 138.272C152.626 135.774 150.631 136.97 147.832 133.387C146.935 131.739 145.897 130.161 144.729 128.667C141.985 125.752 142.616 124.472 140.231 122.907C137.351 120.717 134.715 118.266 132.362 115.59C131.776 115.008 131.316 114.327 131.008 113.584C130.939 113.36 130.96 113.12 131.067 112.909C131.174 112.697 131.36 112.529 131.59 112.435C131.82 112.34 132.079 112.324 132.32 112.392C132.561 112.459 132.768 112.605 132.903 112.802C133.328 113.234 134.828 114.179 135.627 114.98C136.844 116.196 137.722 118.043 141.201 120.414C142.268 121.142 142.698 121.743 143.308 121.287C143.918 120.831 143.382 120.088 142.467 118.918C136.791 112.475 134.053 109.27 133.013 107.712C132.114 106.368 133.054 105.734 133.76 106.17C135.36 107.159 140.645 113.052 141.018 113.451C144.317 116.981 145.127 118.052 145.67 117.926C146.543 117.725 145.608 116.639 144.964 115.949C142.455 113.271 137.52 108.073 135.824 104.905C135.346 104.01 134.681 103.118 135.243 102.644C135.806 102.171 136.205 102.778 136.815 103.36C137.853 104.349 139.319 106.303 140.857 108.017C144.118 111.656 147.679 115.418 148.058 115.027C148.47 114.605 148.453 114.786 145.91 111.752C143.545 108.945 140.999 107.259 138.275 103.196C138.191 103.057 138.159 102.896 138.185 102.739C138.21 102.581 138.292 102.436 138.417 102.326C138.922 101.975 139.427 102.652 142.408 105.753C147.88 111.432 150.531 113.643 152.262 116.347C155.899 122.056 158.449 129.246 159.882 130.333Z" fill="#FDE6B9"/>
  <path d="M158.724 174.528C158.806 177.686 165.565 174.282 88.9656 190.53C83.2077 191.751 82.998 191.599 78.0158 189.818C76.2473 189.183 72.8277 187.902 66.394 185.399C42.3672 176.053 41.0673 176.052 39.8748 174.225C37.9219 171.23 31.0183 148.511 23.1938 129.061C21.946 126.271 20.8982 123.409 20.0571 120.492C18.5034 116.282 17.1353 114.592 18.5312 112.562C19.9447 115.191 38.9034 167.08 40.0138 169.957C40.797 171.987 40.9751 173.433 42.7007 174.087C86.5149 190.668 80.325 189.376 91.3923 187.244C126.821 180.412 93.2871 185.896 142.603 177.167C159.286 174.213 158.709 173.947 158.724 174.528Z" fill="#8A8C93"/>
  <path d="M145.218 144.086C145.471 148.593 142.419 147.848 142.068 154.452C141.846 158.613 141.368 158.923 138.151 166.207C137.593 167.473 137.989 167.717 136.785 167.415C121.838 163.673 116.825 162.706 116.551 162.023C112.405 151.491 112.56 151.949 113.302 151.731C113.849 151.525 114.419 151.376 115.001 151.287C118.106 151.087 118.437 148.535 121.47 146.822C123.631 145.603 126.378 147.919 126.208 145.086C126.208 144.501 126.191 143.9 126.208 143.306C126.286 141.131 128.675 141.156 129.745 138.846C130.645 136.888 130.02 136.401 131.759 133.86C133.807 130.869 133.086 127.244 135.763 120.864C136.111 120.033 136.845 121.714 138.455 122.763C140.018 123.783 141.254 125.176 142.031 126.793C142.548 127.599 143.135 128.364 143.787 129.08C149.729 137.31 144.477 131.024 145.218 144.086ZM133.457 147.912C139.886 148.581 138.763 152.144 140.658 150.188C138.303 145.378 132.525 147.238 129.105 145.276C128.222 144.773 126.795 147.22 133.457 147.912ZM132.222 152.533C133.053 152.985 133.763 152.351 133.195 151.766C131.173 149.686 130.055 150.246 127.319 147.605C127.187 147.476 126.838 147.488 126.605 147.521C126.468 147.542 126.353 147.741 126.211 147.886C127.226 149.686 130.476 151.58 132.222 152.533Z" fill="#00703F"/>
  <path d="M132.236 167.429C132.263 167.436 156.238 173.337 156.315 173.522C138.643 177.07 126.905 178.463 111.232 181.932C105.771 183.14 91.4159 186.424 85.1186 187.331C82.962 187.487 80.7955 187.182 78.786 186.441C75.5774 185.388 69.9737 183.241 59.4585 179.2C55.9542 177.854 44.5194 173.835 43.7842 173.352C43.8107 173.344 98.7705 166.39 109.042 164.456C117.591 162.848 112.782 162.318 132.236 167.429ZM136.981 171.757C137.174 170.33 134.055 169.802 115.916 165.119C115.728 165.07 115.529 165.062 115.337 165.095C96.8579 168.18 102.404 167.029 80.2324 171.051C71.7687 172.587 65.9048 173.312 62.9753 173.986C60.5309 174.547 60.9743 175.488 61.9496 176.009C64.116 177.168 69.5353 178.835 78.474 181.888C84.4112 183.917 80.8653 183.455 105.381 178.663C121.351 175.541 131.395 174.094 135.473 172.908C136.88 172.494 136.927 172.157 136.981 171.754V171.757Z" fill="#B5B6BA"/>
  <path d="M134.459 171.053C136.581 171.695 135.663 172.043 134.978 172.177C130.936 172.965 117.583 175.281 111.443 176.433C74.215 183.416 89.3789 184.369 63.0783 175.449C62.7637 175.304 62.5995 175.125 63.0707 175.02C69.5536 173.568 113.101 166.164 115.56 165.828C121.988 167.381 130.669 169.908 134.459 171.053Z" fill="#CACBCE"/>
  <path d="M94.0794 108.3C94.783 109.838 116.629 162.058 114.837 162.335C111.196 162.907 42.5569 173.597 41.8305 171.674C31.2269 143.639 39.774 166.131 31.0842 142.287C18.0728 106.58 15.8179 109.809 25.0534 109.228C44.2635 108.019 60.913 108.261 75.9734 107.872C92.1832 107.464 93.2974 106.594 94.0794 108.3ZM104.859 161.148C113.769 159.829 113.365 161.286 111.323 155.651C109.922 151.791 103.914 136.308 101.919 131.567C92.3032 108.718 93.3492 109.325 91.3078 109.51C91.2813 109.51 57.1675 109.9 39.6767 110.92C18.7373 112.141 21.6124 110.938 22.9426 114.663C28.5008 130.165 27.273 126.125 28.7421 129.795C41.4819 161.626 41.6183 168.547 44.7044 168.274C51.4754 167.674 87.1846 163.761 104.859 161.148Z" fill="#B5B6BA"/>
  <path d="M107.704 159.085C107.761 159.655 107.233 159.67 106.575 159.662C105.534 158.899 104.61 158.007 103.831 157.012C104.978 157.28 106.092 157.656 107.154 158.137C107.313 158.25 107.444 158.393 107.539 158.557C107.633 158.72 107.69 158.9 107.704 159.085Z" fill="white"/>
  <path d="M105.818 155.075C106.361 155.503 106.74 156.082 106.9 156.725C106.773 157.169 96.5776 154.658 99.6397 154.467C102.276 154.303 100.323 153.934 105.818 155.075Z" fill="white"/>
  <path d="M105.578 153.964C104.71 154.011 102.285 153.139 99.3239 153.737C99.2445 153.738 99.1659 153.722 99.0943 153.691C99.0226 153.659 98.9598 153.612 98.9108 153.555C98.1832 152.522 98.3411 152.197 99.6536 152.017C102.559 151.617 102.202 151.679 102.215 151.775C104.441 151.776 105.086 151.672 105.578 153.964Z" fill="white"/>
  <path d="M104.723 159.589C105.189 160.036 105.581 160.098 96.5272 161.176C96.4868 161.123 96.3301 161.011 96.3516 160.942C98.2528 155.042 99.6297 154.682 104.723 159.589Z" fill="white"/>
  <path d="M103.893 150.154C104.257 151.113 104.532 151.031 103.273 150.955C98.988 150.696 98.1998 152.208 97.8903 151.175C97.4279 149.627 96.6422 149.915 102.324 148.953C103.489 149.075 103.485 149.076 103.893 150.154Z" fill="white"/>
  <path d="M102.686 147.224C103.143 148.248 103.133 148.149 101.98 148.276C97.7669 148.744 97.3463 149.548 97.0797 148.808C96.6237 147.538 95.7066 147.975 101.967 146.359C102.73 146.93 102.433 146.662 102.686 147.224Z" fill="white"/>
  <path d="M100.904 143.895C101.508 144.378 101.25 144.006 101.915 145.565C97.161 146.518 96.446 147.719 96.1037 146.578C95.7121 145.244 94.9782 145.721 100.904 143.895Z" fill="white"/>
  <path d="M99.5269 141.343C100.159 141.148 100.126 141.418 100.948 143.169C99.196 143.485 97.4868 143.976 95.8509 144.636C95.3456 144.893 95.4252 144.443 95.2547 143.97C94.7266 142.486 94.5675 142.863 99.5269 141.343Z" fill="white"/>
  <path d="M99.7009 140.407C99.5963 140.482 99.4837 140.546 99.3649 140.6C93.9595 142.412 94.557 142.471 94.1932 141.446C93.6879 140.013 92.7594 140.381 98.4756 138.496C98.8646 138.368 98.9366 138.733 99.7009 140.407Z" fill="white"/>
  <path d="M98.161 131.872C98.5893 132.408 94.8766 134.42 91.1286 134.894C89.3436 135.119 89.4384 134.711 89.1365 133.281C88.9028 132.171 90.0207 133.574 96.6275 130.573C97.0077 130.4 97.681 131.272 98.161 131.872Z" fill="white"/>
  <path d="M97.9878 136.663C99.0111 138.205 98.3188 137.13 93.5754 139.457C93.4958 139.457 93.4187 139.468 93.4124 139.457C92.5559 137.5 91.7336 137.767 97.3727 136.299C97.5318 136.253 97.8691 136.482 97.9878 136.663Z" fill="white"/>
  <path d="M97.0717 154.88C97.3168 155.182 97.956 155.278 97.4684 156.128C94.4707 161.407 95.3752 161.499 94.1928 161.533C93.7304 161.188 93.3704 161.12 93.666 160.536C96.8734 154.213 96.6207 154.328 97.0717 154.88Z" fill="white"/>
  <path d="M96.8357 134.488C97.533 135.578 98.0409 135.241 92.9197 136.746C92.667 136.819 92.3702 137.126 92.2135 136.612C91.9141 135.619 91.9002 136.077 96.8357 134.488Z" fill="white"/>
  <path d="M96.5601 128.389C96.4249 129.569 95.9765 130.101 94.4126 130.592C90.8136 131.717 89.6401 132.084 88.2291 131.49C87.2618 131.081 86.3963 130.491 85.6868 129.757C84.9772 129.024 84.439 128.162 84.1058 127.227C83.8115 126.472 83.9391 126.175 84.6478 125.824C91.3429 122.518 91.0675 122.492 91.3631 123.349C92.1375 125.596 86.2533 126.421 86.6892 127.59C87.1667 128.887 90.801 125.707 92.9397 129.171C93.0155 129.288 93.0508 129.487 93.1633 129.538C93.8896 129.868 94.5819 129.669 93.3704 127.83C92.4862 126.485 94.4038 126.528 95.384 125.736C95.7453 125.43 95.6417 125.446 96.5601 128.389Z" fill="white"/>
  <path d="M94.933 124.493C95.0429 125.032 94.0866 125.304 93.8365 125.392C93.2958 125.584 93.2364 123.116 91.1622 120.971C90.5634 120.352 91.4363 119.847 92.0149 119.652C92.5934 119.457 93.0987 120.133 93.2933 120.399C94.1424 121.643 94.7009 123.037 94.933 124.493Z" fill="white"/>
  <path d="M94.3988 152.338C96.42 154.162 96.7408 152.89 92.9802 159.993C92.8311 160.275 92.7275 160.344 92.4344 160.076C91.0929 158.837 91.1232 158.864 91.8938 157.323C93.5259 154.056 94.1512 152.113 94.3988 152.338Z" fill="white"/>
  <path d="M91.9113 149.91C93.7418 151.565 93.45 151.349 93.5169 151.591C93.3034 152.167 93.1379 152.76 92.8676 153.319C90.475 158.248 90.5698 158.126 90.1554 157.705C89.2282 156.76 88.3983 156.283 88.7292 155.627C91.2658 150.59 91.7484 149.763 91.9113 149.91Z" fill="white"/>
  <path d="M92.103 124.805C92.3063 125.106 92.439 125.446 92.492 125.799C91.6002 126.796 91.9627 126.556 90.8359 126.373C91.0141 125.877 91.3867 125.747 92.103 124.805Z" fill="white"/>
  <path d="M90.2121 148.041C91.5916 149.14 90.9435 149.552 88.0646 154.931C87.9277 155.14 87.735 155.313 87.505 155.433C86.219 153.546 86.2961 154.766 87.6162 151.766C89.7548 146.911 89.2495 147.273 90.2121 148.041Z" fill="white"/>
  <path d="M89.8895 121.207C90.5073 121.909 90.5212 121.89 89.5725 122.223C88.7526 122.51 87.4426 123.393 87.4957 121.904C87.6195 121.21 89.0217 120.215 89.8895 121.207Z" fill="white"/>
  <path d="M87.8925 145.836C89.0408 146.57 88.7136 147.253 88.0454 148.335C87.7637 145.637 87.8003 146.253 87.8925 145.836Z" fill="white"/>
  <path d="M86.1072 143.539C87.5371 146.312 87.4841 152.811 84.6418 154.244C84.3386 154.397 84.0241 154.54 83.7158 154.688C83.6965 154.395 83.6935 154.101 83.707 153.808C84.1782 149.315 81.8298 142.986 80.0007 141.096C79.2377 140.415 78.4164 139.792 77.5449 139.234C78.1743 138.87 78.8833 138.641 79.6204 138.562C80.3571 138.483 81.1037 138.556 81.8058 138.777C83.4948 139.096 85.5273 141.806 86.1072 143.539Z" fill="white"/>
  <path d="M86.1121 123.11C86.414 123.643 86.2208 123.874 85.7079 124.092C84.331 124.677 84.3044 124.691 83.7183 123.409C82.5637 120.884 79.7922 115.404 80.967 115.347C82.095 115.291 82.0546 115.942 86.1121 123.11Z" fill="white"/>
  <path d="M77.7181 162.25C78.8841 162.109 78.9068 163.271 78.38 163.325C78.351 163.325 63.5206 165.189 62.8738 165.012C63.0001 164.913 63.1075 164.752 63.2439 164.727C65.3889 164.35 76.3184 162.419 77.7181 162.25Z" fill="white"/>
  <path d="M77.7066 160.223C78.6995 162.55 77.5197 160.472 63.1238 164.039C62.7448 164.134 62.9975 164.257 62.333 163.812C62.9457 163.235 77.6801 160.227 77.7066 160.223Z" fill="white"/>
  <path d="M66.1591 121.992C66.3461 122.693 66.9903 124.699 66.1137 125.325C65.5818 125.705 65.338 125.897 65.1877 125.227C64.4373 121.889 64.0508 120.378 64.0508 119.791C64.0508 119.603 64.2769 119.568 64.5106 119.593C65.4808 119.696 65.9065 121.031 66.1591 121.992Z" fill="white"/>
  <path d="M61.622 137.521C62.932 137.232 64.602 137.094 64.5199 138.339C63.5762 138.573 61.4047 138.883 58.9995 139.328C57.7666 139.556 57.3459 140.387 56.924 139.539C56.4945 138.669 56.4705 138.655 61.622 137.521Z" fill="white"/>
  <path d="M64.1945 139.186C65.0674 139.378 66.9812 139.186 58.5984 140.99C58.2901 141.056 57.8619 141.394 57.6535 140.911C57.6168 140.825 58.0691 140.437 58.3482 140.371C64.787 138.84 64.1465 139.106 64.1945 139.186Z" fill="white"/>
  <path d="M63.2167 135.368C64.3056 137.473 62.9476 135.392 56.3586 138.114C56.0845 137.562 55.6663 137.01 56.3674 136.961C62.3236 136.545 62.5927 134.164 63.2167 135.368Z" fill="white"/>
  <path d="M60.9666 127.561C61.036 127.928 61.0575 128.231 60.9009 128.386C60.5509 128.731 59.1323 129.055 54.9295 130.09C54.3522 130.233 53.9985 130.295 53.7926 130.13C53.5889 129.83 53.4082 129.518 53.252 129.194C55.6734 128.989 58.0482 128.45 60.2983 127.597C60.911 127.297 60.9463 127.449 60.9666 127.561Z" fill="white"/>
  <path d="M57.9077 131.089C58.7705 130.884 59.667 130.828 60.5517 130.925C59.9681 131.511 59.2173 131.932 58.386 132.139C57.5548 132.346 56.6772 132.331 55.8549 132.095C55.7286 132.031 55.8398 131.921 56.0571 131.797C56.6284 131.47 57.2534 131.231 57.9077 131.089Z" fill="white"/>
  <path d="M58.9507 120.637C60.075 123.592 59.1415 124.167 58.0879 123.574C57.0773 123.01 57.1683 121.976 56.9346 121.195C57.0811 119.434 58.5566 119.604 58.9507 120.637Z" fill="white"/>
  <path d="M51.2523 121.497C52.9349 121.195 54.2765 126.426 51.6679 125.324C50.627 124.878 49.6568 121.778 51.2523 121.497Z" fill="white"/>
  <path d="M54.9655 156.086C54.675 161.513 50.9042 163.571 47.5276 162.706C46.6319 162.472 47.9065 161.086 48.499 156.897C49.1963 152.005 43.7858 150.113 41.5171 153.307C41.435 153.451 41.3377 153.588 41.2265 153.714C41.1767 153.731 41.1234 153.735 41.0711 153.728C41.0189 153.722 40.969 153.705 40.9259 153.677C37.9029 144.921 53.9246 140.311 54.9655 156.086Z" fill="white"/>
  <path d="M47.5729 156.222C47.4883 156.415 47.5552 156.105 47.2647 157.692C43.3486 155.236 44.0851 156.19 41.7607 155.167C42.0058 154.751 41.949 154.135 42.6955 154.055C43.6308 154.061 44.553 154.258 45.3961 154.633C46.2393 155.008 46.9826 155.55 47.5729 156.222Z" fill="white"/>
  <path d="M47.2277 128.772C47.4804 129.651 47.3174 129.858 46.303 130.427C42.9226 132.329 40.4302 124.479 44.4284 124.426C45.8243 124.407 46.2298 125.373 47.2277 128.772Z" fill="#FFD200"/>
  <path d="M44.3584 152.641C46.8382 152.669 47.5519 154.914 46.9607 154.512C44.4128 152.781 41.7221 153.319 44.3584 152.641Z" fill="white"/>
  <path d="M46.976 158.719C46.9962 159.059 46.7461 160.901 46.3444 160.519C43.1863 157.527 40.5335 158.394 41.0022 157.442C41.3698 156.699 41.1108 156.685 41.7058 156.18C43.7018 156.507 45.5414 157.393 46.976 158.719Z" fill="white"/>
  <path d="M46.2296 161.907C45.2342 165.089 46.3016 162.347 41.6819 160.786C41.2878 160.653 41.1021 159.507 40.9404 158.746C42.0116 158.902 43.0356 159.264 43.9466 159.808C44.8575 160.353 45.6353 161.068 46.2296 161.907Z" fill="white"/>
  <path d="M45.309 164.53C45.1334 165.216 45.1094 165.667 44.7393 165.477C42.6486 164.403 42.9506 164.811 41.9412 162.145C41.5433 161.09 45.0943 163.707 45.309 164.53Z" fill="white"/>
  <path d="M239.195 172.664C199.379 171.553 212.899 175.49 216.135 167.038C218.963 159.654 219.283 157.585 219.248 155.286C218.919 152.31 219.603 149.313 221.205 146.715C224.742 140.844 223.693 137.878 225.015 133.836C225.979 130.89 225.601 128.372 226.531 125.039C227.908 120.089 227.804 120.137 227.486 116.528C227.03 111.352 227.424 108.992 224.76 105.829C223.283 104.075 222.953 100.859 219.636 98.6647C210.533 92.6437 217.253 94.6355 203.08 89.4624C202.196 89.1419 201.391 88.6437 200.497 88.3852C198.531 87.8156 198.981 87.1232 198.728 86.494C196.85 81.7794 196.875 81.1139 195.46 80.4859C191.435 78.6929 190.334 77.783 188.654 78.4368C188.3 78.5748 188.184 78.0859 185.993 68.8287C185.534 66.8825 188.454 68.3445 189.421 65.6989C190.028 64.0393 190.557 61.9445 190.713 61.9562C193.134 62.2182 191.045 61.8206 193.887 64.1515C194.822 64.9176 194.856 65.1012 194.241 66.1398C192.413 69.2275 196.747 70.7585 196.613 73.1666C196.581 73.7678 195.868 75.0777 196.603 75.6228C197.37 76.1877 198.388 74.128 198.736 73.2836C200.757 68.3714 197.211 69.3339 198.877 66.6088C199.377 65.7879 199.533 64.8248 199.313 63.9044C199.093 62.984 198.514 62.1711 197.687 61.6217C195.161 59.7913 198.244 56.8744 195.892 54.3376C195.768 54.2373 195.669 54.1135 195.601 53.9747C195.534 53.8359 195.499 53.6852 195.499 53.5329C195.501 53.3807 195.539 53.2308 195.609 53.0931C195.679 52.9555 195.78 52.8335 195.906 52.7353C196.229 52.3645 196.411 52.3973 196.75 52.6511C197.887 53.4967 199.782 54.1434 199.117 55.9902C197.13 61.4989 202.102 60.4463 201.462 62.9235C200.734 65.748 200.629 66.5597 201.781 67.6766C203.46 69.3035 204.702 69.1901 203.688 70.9608C200.998 75.6579 205.749 75.4438 205.563 79.1666C205.39 82.618 208.3 79.2754 208.298 77.2625C208.298 74.2111 206.697 74.1479 207.919 72.783C208.396 72.282 208.737 71.6835 208.914 71.0368C209.092 70.39 209.102 69.7135 208.943 69.0626C208.091 65.934 205.637 66.0743 206.407 64.0428C209.069 57.0148 204.386 58.9235 204.615 56.5668C204.689 55.7832 207.407 50.5961 202.034 48.2897C201.687 48.1378 201.383 47.9144 201.144 47.6366C200.904 47.3589 200.737 47.0342 200.654 46.6874C200.542 46.347 200.62 46.2347 201.051 46.2195C201.474 46.1825 201.883 46.0612 202.251 45.8641C202.619 45.667 202.936 45.3987 203.182 45.0775C203.427 44.7563 203.594 44.3898 203.673 44.0031C203.751 43.6164 203.738 43.2187 203.634 42.8371C203.677 42.0398 203.863 41.2546 204.185 40.5143C205.682 39.8746 205.448 38.1752 206.206 38.1249C207.751 38.0231 209.963 37.1483 209.693 35.7038C209.383 34.0465 212.754 34.5869 212.5 31.5764C212.365 29.9764 214.395 30.3834 214.132 28.208C213.955 26.7437 213.201 26.5835 213.733 25.7285C214.168 25.0981 214.32 24.3359 214.159 23.6031C213.997 22.8703 213.534 22.2245 212.867 21.8022C212.193 21.3344 215.49 19.0174 212.452 17.3871C212.034 17.1625 211.336 17.0444 211.421 16.6771C211.781 15.1064 212.956 12.6678 210.337 11.4245C209.477 11.0164 210.704 9.84677 209.397 8.42222C206.698 5.47722 205.071 5.88424 205.076 5.27839C205.09 3.46905 202.225 1.23633 199.717 1.95679C199.603 2.01226 199.472 2.03165 199.344 2.01202C199.217 1.99239 199.1 1.93481 199.011 1.84802C198.952 1.79063 198.906 1.722 198.878 1.64685C198.62 1.21108 198.246 0.843826 197.79 0.580118C197.335 0.31641 196.815 0.165037 196.279 0.140431C195.743 0.115373 195.209 0.217506 194.728 0.437139C194.246 0.656772 193.834 0.986621 193.529 1.39539C193.248 1.76264 193.076 1.70767 192.743 1.52755C190.959 0.564988 189.285 0.869078 188.562 2.34626C188.287 2.90649 188.165 3.18952 187.348 3.00239C186.261 2.75327 185.547 3.24917 185.12 4.30881C184.877 4.91816 184.629 4.6784 184.11 4.36378C182.742 3.53689 179.979 3.68075 179.32 6.71113C179.234 7.10294 179.181 7.21054 178.688 7.08072C176.541 6.524 173.692 7.28071 173.434 10.2737C173.341 11.3579 171.666 10.3824 170.563 11.9848C168.444 15.0549 171.314 16.3122 170.342 16.7286C169.022 17.3005 168.472 19.6432 170.847 21.2747C171.715 21.8712 169.978 21.9589 170.474 24.4724C170.534 24.7765 170.896 24.7741 167.569 25.9928C167.305 26.0887 167.012 26.0887 166.748 25.9928C166.039 25.6462 165.224 25.5326 164.436 25.6704C163.648 25.8083 162.934 26.1896 162.41 26.7519C162.022 27.2478 158.908 25.2466 156.933 28.5425C155.99 30.1132 153.047 28.1332 151.997 31.8267C151.627 33.1308 148.871 31.7495 147.363 34.6746C146.844 35.6828 142.337 35.1261 143.068 39.3529C143.228 40.2652 142.058 40.2079 141.348 41.1845C140.903 41.8032 140.702 42.5454 140.78 43.2853C140.858 44.0253 141.209 44.7176 141.775 45.2453C142.132 45.5844 142.124 45.7997 141.793 46.1447C140.366 47.6371 141.748 50.4499 144.181 51.0464C145.258 51.3107 144.434 52.161 145.042 55.7539C145.964 61.2077 147.315 62.3831 147.894 64.7679C149.626 71.8696 145.723 70.3304 158.171 83.3209C160.434 85.6835 161.893 85.8858 161.22 86.4426C160.366 87.1342 159.751 88.0434 159.451 89.0566C159.199 89.9349 158.882 89.8987 158.854 90.7162C158.601 90.9911 156.463 91.4109 152.917 92.7267C151.78 93.1477 150.322 93.7431 149.22 94.191C145.514 95.6939 143.94 96.191 141.175 102.345C140.757 103.281 139.323 99.7898 137.572 101.633C137.175 102.049 136.996 101.877 136.652 101.647C134.924 100.489 132.845 102.17 134.4 104.668C134.525 104.914 134.629 105.169 134.708 105.43C133.425 104.444 132.426 104.6 131.785 105.412C131.587 105.719 131.467 106.063 131.433 106.42C131.4 106.776 131.455 107.134 131.593 107.468C132.143 108.707 132.894 109.86 133.822 110.888C134.572 111.911 135.421 112.869 136.357 113.751C136.249 114.036 136.195 114.337 136.198 114.639C135.133 114.005 136.497 114.973 132.869 111.832C132.602 111.596 132.259 111.449 131.892 111.412C131.526 111.376 131.157 111.452 130.842 111.629C130.525 111.805 130.28 112.072 130.144 112.389C130.008 112.707 129.989 113.057 130.09 113.385C130.579 115.111 131.69 116.202 134.556 119.332C134.923 119.733 134.63 120.372 134.177 121.287C131.909 125.891 132.24 130.599 130.368 133.188C128.124 136.292 129.719 137.391 127.027 139.58C125.297 140.984 124.477 141.359 124.677 144.609C124.729 145.448 123.279 144.705 121.526 145.25C118.02 146.341 117.921 149.286 114.797 149.772C110.942 150.372 113.385 153.144 109.075 142.092C108.669 141.051 99.5751 118.082 98.4142 115.456C93.4358 104.193 97.2078 106.508 78.3212 106.792C78.2921 106.792 30.3964 107.681 20.0858 108.572C18.8719 108.677 18.6331 109.235 17.3067 112.507C15.7794 116.277 17.9383 114.963 37.631 172.076C37.9455 172.988 39.3995 172.515 4.67304 172.515C4.67304 172.905 5.09118 172.608 0.553622 172.734C0.119067 172.747 -0.530238 173.743 0.760792 173.726C1.82949 173.711 29.8292 173.609 29.8608 173.609C44.4992 173.628 34.0446 173.83 43.1488 177.598C47.032 179.205 67.7819 187.072 67.8059 187.086C85.2765 193.692 80.3524 193.582 98.2879 189.608C162.621 175.352 160.068 179.9 159.808 174.444C159.765 173.576 174.967 174.367 181.409 174.188C182.753 174.151 184.096 173.988 185.444 173.979C185.473 173.979 228.971 173.628 239.183 173.838C240.289 173.852 240.252 172.694 239.195 172.664ZM192.502 80.604C194.755 82.0145 195.252 81.7478 195.727 83.0601C196.293 84.6215 197.508 87.1104 197.509 87.1349C197.518 88.3267 197.971 89.5396 197.383 90.6987C193.564 98.1559 186.063 106.839 184.126 107.732C183.658 107.949 183.677 107.498 183.621 107.302C183.368 106.382 181.269 96.2811 179.358 96.3664C178.865 96.3886 178.909 95.0167 180.009 94.6331C181.479 94.1208 181.724 94.722 183.866 93.053C189.183 88.9092 187.39 91.0519 191.783 86.5268C193.894 84.3513 191.689 80.5549 190.488 81.5256C189.836 82.0543 190.852 83.3876 191.088 83.8484C191.361 84.3818 191.122 84.5244 190.749 85.1455C190.204 84.5829 190.439 85.4893 188.738 80.2216C188.575 79.7292 189.888 78.9678 192.502 80.604ZM170.648 18.7098C170.725 17.5777 173.067 17.3952 173.029 16.89C173.013 16.6938 172.952 16.503 172.85 16.3304C172.748 16.1577 172.607 16.0072 172.438 15.8888C169.969 14.538 171.95 11.6234 173.617 12.3684C174.538 12.7801 175.252 12.2152 175.057 11.207C174.91 10.7803 174.906 10.3223 175.046 9.89346C175.185 9.46458 175.462 9.08495 175.839 8.80468C176.216 8.52368 176.675 8.35457 177.158 8.31951C177.64 8.28444 178.122 8.38507 178.541 8.60819C178.883 8.77544 179.164 9.04444 179.51 9.19298C181.405 10.0327 180.541 7.74504 180.9 6.50294C180.94 6.25018 181.054 6.01242 181.23 5.81579C181.406 5.61915 181.637 5.47125 181.898 5.38833C182.159 5.30534 182.439 5.29025 182.709 5.3447C182.978 5.39914 183.227 5.52104 183.426 5.6971C183.996 6.06435 185.035 7.33452 185.574 7.17662C186.173 7.00002 186.14 5.42225 186.346 4.86553C186.965 3.18836 188.241 5.33336 188.263 5.35676C188.52 5.54038 188.795 5.70061 189.086 5.83511C189.319 5.56845 189.504 5.2667 189.629 4.94273C189.744 4.34507 188.958 2.74976 190.506 2.48661C192.167 2.19772 192.51 3.86905 192.594 3.94858C193.139 4.47138 193.541 4.53337 194.053 3.84683C194.514 3.22578 194.293 1.77667 196.38 1.61644C196.833 1.58135 197.577 2.21059 197.807 2.83397C197.879 3.02695 197.909 3.2328 197.975 3.42812C198.638 5.37547 199.755 2.51936 201.796 3.54508C202.976 4.14156 203.808 4.77898 203.288 5.82576C202.903 6.60353 203.273 7.68656 204.247 7.24095C205.221 6.79534 205.942 7.49826 207.461 8.6538C209.689 10.3509 207.575 11.0783 207.693 12.5006C207.734 12.9859 208.22 13.1883 208.729 13.021C209.866 12.6456 210.181 12.8409 210.524 13.9064C211.104 15.7087 209.756 15.9976 209.277 17.028C209.001 17.6221 209.16 18.1835 209.975 18.0946C211.029 17.9777 213.111 18.7379 212.089 19.9215C211.458 20.6607 208.949 22.3847 211.331 22.7449C211.593 22.7628 211.845 22.8418 212.064 22.9746C212.283 23.1074 212.462 23.2895 212.585 23.504C212.708 23.7177 212.771 23.9569 212.768 24.1993C212.764 24.4418 212.694 24.6794 212.564 24.8899C212.259 25.2587 212.088 25.708 212.076 26.1727C212.065 26.6375 212.214 27.0935 212.501 27.4747C212.903 28.0688 212.381 29.2653 211.46 29.7823C209.648 30.7986 212 31.8208 210.141 32.9401C208.626 33.8477 207.514 33.7308 207.94 34.8021C208.137 35.2992 208.363 35.767 207.726 36.1483C205.85 37.2723 205.46 35.9728 205.039 35.9389C203.542 35.815 203.924 36.3424 204.181 37.6839C204.242 38.0094 204.186 38.3442 204.022 38.6375C203.859 38.9309 203.596 39.1669 203.274 39.3097C203.061 39.4044 202.829 39.4555 202.592 39.4594C202.256 39.4664 201.76 39.5763 201.631 39.7892C201.076 40.7061 203.439 40.7857 202.155 41.7915C200.766 42.8769 202.816 43.1225 202.093 44.0944C201.599 44.7599 200.641 45.4266 200.493 44.6792C200.466 44.5435 200.581 44.3681 200.526 44.2593C199.223 41.726 197.894 47.5517 201.824 49.8815C205.403 52.0019 203.738 54.6428 203.129 56.1387C202.58 57.4908 203.806 58.6814 205.126 59.4381C206.112 60.003 206.035 60.5726 204.929 63.8615C204.261 65.8498 205.513 66.4708 206.544 67.7211C209.85 71.7117 204.188 71.8251 206.587 75.4801C206.799 75.9409 206.938 76.4274 207.002 76.9245H206.856C204.835 74.8345 203.705 74.2123 204.685 72.3117C207.614 66.631 200.668 68.2041 202.701 63.8369C203.03 63.1147 203.059 62.3053 202.781 61.5648C202.504 60.8242 201.94 60.205 201.199 59.8264C200.925 59.7317 200.677 59.581 200.474 59.3857C200.271 59.1903 200.118 58.9552 200.027 58.6978C199.936 58.4399 199.909 58.1664 199.949 57.8977C199.988 57.6289 200.092 57.3719 200.254 57.1457C200.599 56.2836 200.627 55.3405 200.336 54.4618C200.044 53.5831 199.448 52.8177 198.64 52.2838C194.864 50.1961 197.25 49.5739 195.008 47.5447C194.143 46.7622 196.797 46.6265 195.58 42.4874C194.916 40.2289 193.266 39.9751 193.588 39.0956C193.813 38.4591 193.87 37.7818 193.754 37.1207C193.638 36.4595 193.353 35.8337 192.922 35.2957C192.247 34.5049 191.322 33.9292 190.276 33.6489C188.841 33.0933 189.45 29.2384 185.061 29.2922C183.894 29.3062 183.798 29.0922 183.694 28.691C183.13 26.5554 179.855 25.6829 178.397 25.9706C178.32 25.9708 178.243 25.9539 178.174 25.9214C178.104 25.8889 178.044 25.8416 177.998 25.7835C177.56 25.263 176.981 24.8599 176.319 24.6155C175.657 24.3711 174.937 24.2943 174.233 24.3928C173.583 24.5437 172.676 25.1589 172.39 24.8314C170.862 23.0771 172.84 22.332 173.298 22.001C173.392 21.9456 173.472 21.8724 173.534 21.7862C173.595 21.7 173.636 21.6027 173.654 21.5008C173.672 21.3989 173.667 21.2946 173.638 21.1948C173.61 21.095 173.559 21.0018 173.489 20.9215C173.394 20.8144 173.269 20.7341 173.127 20.6899C172.432 20.4034 170.568 19.8923 170.648 18.7098ZM144.726 49.5049C144.428 49.5739 144.115 49.5533 143.831 49.4461C143.547 49.3388 143.307 49.1504 143.147 48.9084C142.462 47.5856 142.263 47.7131 143.285 46.5833C144.879 44.8289 141.78 44.5693 142.308 42.5892C142.871 40.471 145.32 41.7611 144.745 39.8991C144.626 39.6133 144.532 39.3192 144.464 39.0196C144.424 38.6696 144.475 38.3156 144.615 37.9882C144.755 37.6608 144.978 37.3697 145.267 37.1401C145.556 36.9111 145.901 36.751 146.272 36.6738C146.643 36.5965 147.029 36.6044 147.396 36.6968C147.52 36.7476 147.656 36.7693 147.791 36.7601C147.926 36.7508 148.057 36.7109 148.171 36.6439C148.286 36.5768 148.38 36.4847 148.447 36.3756C148.514 36.2665 148.551 36.1439 148.555 36.0185C148.7 35.3203 149.124 34.6986 149.743 34.2777C150.362 33.8568 151.129 33.6677 151.892 33.7483C154.302 33.9226 152.171 30.0056 156.363 30.7074C157.3 30.8641 157.57 30.767 157.889 29.9156C158.028 29.3516 158.377 28.8512 158.876 28.5026C159.374 28.154 159.99 27.9796 160.614 28.0103C161.695 28.2139 162.635 29.6138 163.241 28.0712C163.355 27.7882 163.546 27.5377 163.797 27.3444C164.047 27.1512 164.348 27.0219 164.669 26.9694C164.99 26.9172 165.32 26.9438 165.626 27.0464C165.933 27.149 166.205 27.324 166.416 27.5542C167.404 28.6291 167.195 27.7577 170.157 26.3998C171.316 25.8688 171.747 28.739 172.983 26.7507C173.981 25.1519 176.61 25.7589 176.823 27.0665C176.918 27.6513 177.455 27.8396 178.069 27.5694C178.753 27.302 179.515 27.2581 180.229 27.445C180.944 27.6318 181.568 28.0383 182 28.5975C182.722 29.546 182.262 30.5518 184 30.6524C186.573 30.8021 187.79 30.9565 188.185 33.3156C188.39 34.5237 188.474 34.6571 189.719 35.0571C194.954 36.7354 190.477 39.2102 192.864 40.857C193.604 41.4278 194.115 42.2114 194.318 43.0827C194.521 43.9541 194.402 44.8632 193.982 45.6652C193.651 46.0278 193.484 46.495 193.516 46.969C193.549 47.4429 193.778 47.8869 194.156 48.2078C194.737 48.8338 195.041 49.6403 195.005 50.465C194.969 51.2897 194.598 52.0712 193.964 52.6522C193.022 53.4382 193.964 54.1212 194.796 55.0066C197.032 57.375 193.392 60.3469 196.91 62.7515C199.806 64.7305 196.353 66.4942 196.886 68.5433C197.242 69.9094 197.927 68.8708 197.826 71.2918C197.798 71.9854 195.343 68.2614 195.3 68.1924C194.549 67.0088 197.902 64.9679 194.125 62.6954C193.518 62.3293 193.078 61.7597 193.558 61.2206C194.342 60.3399 193.81 59.1153 193.755 57.7317C193.707 56.3808 191.909 56.5715 192.637 59.1036C192.692 59.2301 192.719 59.3654 192.718 59.5018C192.717 59.6381 192.686 59.7729 192.628 59.8984C192.571 60.0238 192.487 60.1375 192.382 60.233C192.276 60.3284 192.152 60.4037 192.015 60.4545C191.833 60.5229 191.635 60.5459 191.44 60.5212C190.784 60.4709 190.52 60.6814 190.488 59.996C190.178 53.3212 184.159 52.8125 182.034 54.9387C180.554 56.4218 177.47 55.2662 178.768 53.2347C180.109 51.1294 177.022 52.4663 177.009 50.5867C177.009 49.8031 177.206 48.8523 175.817 49.154C173.486 49.6604 172.336 47.5096 173.442 46.4277C173.648 46.2429 173.835 46.0406 174 45.823C174.098 45.699 174.159 45.5542 174.18 45.402C174.198 45.2497 174.174 45.0956 174.111 44.954C174.048 44.8124 173.946 44.6881 173.817 44.5926C173.687 44.4978 173.532 44.4357 173.369 44.4125C172.569 44.2406 171.726 44.2476 171.365 43.4769C170.672 41.9997 169.791 43.1096 169.233 43.5482C167.998 44.5166 166.157 43.9166 166.421 42.3786C166.452 42.1845 166.448 41.9868 166.409 41.7938C165.464 39.7529 164.953 41.3833 163.48 42.3611C161.854 43.4418 162.469 41.3611 161.531 40.9658C161.11 40.788 160.71 41.0196 160.444 41.4336C159.933 42.2359 159.08 42.1962 158.58 41.3623C158.476 41.1892 158.201 40.0091 157.597 39.9518C156.93 39.8874 156.403 41.0862 155.828 41.7658C154.681 43.1143 151.329 39.2091 151.175 44.0862C151.105 46.2558 148.164 44.0172 147.193 45.5681C146.939 45.8578 146.779 46.2081 146.731 46.5786C146.683 46.949 146.749 47.3244 146.921 47.6616C147.357 48.3411 147.097 48.1423 144.726 49.5049ZM154.44 77.3093C150.035 72.1503 149.819 71.3105 149.668 67.7772C149.662 66.1213 149.326 64.4806 148.677 62.9375C148.473 62.2128 148.541 61.4454 148.871 60.7612C149.2 60.0771 149.77 59.5169 150.489 59.1726C151.226 58.9025 152.223 59.5715 152.566 58.7188C152.769 58.2112 152.464 57.4194 151.934 57.3364C151.281 57.193 150.599 57.2177 149.961 57.4077C149.377 57.596 148.847 57.9043 148.411 58.3095C147.975 58.7146 147.643 59.2061 147.442 59.7469C146.939 58.4085 146.579 57.0276 146.368 55.6241C146.146 54.1121 146.028 52.5886 146.014 51.0628C145.992 50.3201 146.112 50.3271 147.231 49.8932C150.712 48.547 146.978 46.471 148.925 46.4745C151.239 46.4745 152.715 46.4172 152.691 44.4149C152.674 43.0114 152.674 43.0114 154.166 43.3915C154.671 43.5607 155.221 43.5828 155.74 43.4546C156.259 43.3264 156.724 43.0542 157.071 42.6745C157.847 41.8488 158.215 44.0324 160.64 43.347C161.38 43.1389 161.752 44.7997 163.913 43.8008C165.16 43.2254 164.715 43.3541 165.205 44.1517C165.444 44.4912 165.753 44.7837 166.114 45.0125C166.475 45.2414 166.881 45.4021 167.309 45.4854C167.737 45.5687 168.179 45.573 168.609 45.4981C169.039 45.4232 169.449 45.2705 169.815 45.0488C170.2 44.8242 170.39 44.9131 170.736 45.0932C170.919 45.1544 171.086 45.2501 171.227 45.3744C171.368 45.4986 171.48 45.6486 171.555 45.8149C171.629 45.981 171.667 46.1596 171.664 46.3396C171.662 46.5196 171.62 46.6972 171.541 46.8616C171.441 47.3353 171.456 47.8242 171.584 48.292C171.71 48.7607 171.946 49.1978 172.275 49.5723C172.605 49.9467 173.02 50.2492 173.49 50.4581C173.96 50.6674 174.473 50.7786 174.994 50.7844C175.636 50.7575 175.479 52.1084 176.818 52.9657C176.905 53.046 176.971 53.1443 177.009 53.2523C177.048 53.3604 177.058 53.4754 177.04 53.5879C176.951 54.2131 177.077 54.8481 177.399 55.4036C177.721 55.9592 178.223 56.4073 178.835 56.6849C179.24 56.8697 179.683 56.975 180.134 56.9925C181.06 57.0288 180.459 57.4978 180.531 58.134C180.577 58.3223 180.649 58.5048 180.743 58.6767C181.711 58.1294 181.053 58.8592 182.133 56.6697C182.344 56.3249 182.627 56.0222 182.965 55.7793C183.303 55.5364 183.69 55.358 184.104 55.2545C184.516 55.1501 184.947 55.1221 185.372 55.1723C185.796 55.2225 186.206 55.3498 186.577 55.5469C189.631 57.1843 189.573 61.7071 188.164 64.9316C187.748 65.5551 187.126 66.0375 186.39 66.3067C185.654 66.5758 184.843 66.6174 184.08 66.4252C182.943 66.0439 183.051 67.548 183.574 67.7281C184.774 68.141 184.35 68.1 187.617 81.6192C188.889 86.8823 190.54 86.0297 188.916 87.3852C188.89 87.4075 182.315 92.3068 182.286 92.3267C180.748 93.3793 178.741 92.8694 178.168 94.336C177.139 96.9699 178.824 97.6857 175.742 96.9302C175.622 96.9009 175.497 96.6787 175.481 96.536C175.378 95.8313 175.058 95.1689 174.56 94.6277C174.062 94.0864 173.406 93.6892 172.671 93.4834C170.938 93.2378 169.402 90.6916 169.367 90.4682C169.322 90.1794 169.137 90.9361 173.447 86.3127C175.779 83.5985 177.552 80.5106 178.679 77.2029C178.829 76.8426 178.932 76.4731 178.443 76.2508C176.871 75.5315 175.562 81.6379 168.638 85.0309C165.646 86.4964 164.09 86.0975 162.505 85.1478C160.356 83.8777 154.462 77.335 154.44 77.3093ZM163.34 87.0858C165.955 87.7876 166.819 86.9923 166.98 87.5349C167.881 90.5431 168.648 94.177 172.378 94.8822C172.792 94.9534 173.167 95.1524 173.442 95.4467C173.717 95.741 173.877 96.1131 173.894 96.5021C173.236 96.2436 172.532 95.177 171.332 95.8004C168.442 97.2927 166.864 105.859 166.384 106.75C166.177 106.625 165.894 106.541 165.771 106.363C162.671 101.867 161.876 101.863 160.403 90.9946C160.847 89.1642 162.171 86.7712 163.34 87.0858ZM132.448 115.351C131.906 114.853 131.489 114.25 131.227 113.586C131.002 112.776 131.831 112.043 132.886 113.118C133.31 113.55 136.22 116.355 137.313 117.355C138.526 118.462 139.824 119.486 141.2 120.417C142.269 121.143 142.697 121.746 143.307 121.29C143.917 120.834 143.382 120.091 142.466 118.921C136.79 112.477 134.053 109.273 133.012 107.715C132.114 106.371 133.054 105.737 133.76 106.173C135.359 107.162 140.644 113.055 141.017 113.454C144.317 116.984 145.126 118.055 145.669 117.929C146.542 117.728 145.608 116.642 144.963 115.952C142.455 113.274 137.519 108.076 135.824 104.908C135.345 104.013 134.681 103.121 135.243 102.647C135.805 102.173 136.204 102.78 136.814 103.363C137.853 104.352 139.318 106.306 140.857 108.02C144.117 111.659 147.678 115.421 148.057 115.029C148.469 114.608 148.452 114.788 145.91 111.755C143.545 108.948 140.998 107.262 138.274 103.199C138.19 103.06 138.158 102.899 138.184 102.742C138.21 102.584 138.291 102.439 138.416 102.329C138.921 101.978 139.427 102.655 142.408 105.756C152.216 115.931 151.81 115.322 157.452 127.108C158.024 128.32 158.85 129.416 159.883 130.33C161.791 131.775 161.24 130.949 157.736 136.205C156.931 137.41 154.751 138.552 154.535 138.269C152.627 135.771 151.038 136.647 148.239 133.062C147.232 131.42 146.108 129.843 144.872 128.34C142.129 125.425 142.945 124.939 140.648 122.984C137.696 120.65 134.954 118.097 132.448 115.351ZM152.469 138.496C152.856 141.9 157.305 139.291 159.191 136.829C159.213 136.802 159.222 136.64 162.89 131.634C163.058 131.411 163.149 131.147 163.153 130.875C163.157 130.603 163.072 130.337 162.91 130.11C162.747 129.884 162.515 129.708 162.243 129.606C161.971 129.504 161.672 129.479 161.385 129.536C161.121 129.591 159.175 128.816 159.849 127.933C160.524 127.05 161.833 127.699 162.249 128.218C165.093 130.853 165.452 129.223 170.262 134.134C170.599 134.576 170.81 135.09 170.876 135.627C170.942 136.164 170.862 136.708 170.641 137.209C169.826 139.89 169.727 140.643 168.668 141.317C166.07 142.969 166.67 144.746 163.962 146.255C162.41 147.12 161.512 147.723 160.468 146.975C156.752 144.313 156.19 144.547 155.313 143.102C154.421 141.633 153.166 141.543 152.082 140.508C151.739 140.18 150.604 139.455 151.971 137.915C152.571 138.422 152.445 138.282 152.469 138.496ZM113.296 151.737C113.843 151.531 114.413 151.381 114.996 151.292C118.101 151.092 118.432 148.54 121.465 146.828C123.625 145.608 126.372 147.925 126.202 145.091C126.202 144.506 126.185 143.905 126.202 143.311C126.28 141.137 128.669 141.161 129.739 138.851C130.639 136.894 130.014 136.407 131.754 133.865C133.801 130.875 133.08 127.249 135.757 120.869C136.105 120.039 136.839 121.719 138.449 122.769C140.012 123.789 141.248 125.181 142.025 126.799C142.542 127.605 143.129 128.37 143.781 129.085C149.718 137.31 144.472 131.023 145.213 144.085C145.466 148.593 142.414 147.848 142.063 154.451C141.842 158.613 141.363 158.923 138.147 166.207C137.589 167.472 137.984 167.717 136.78 167.415C121.833 163.672 116.821 162.706 116.547 162.023C112.405 151.491 112.559 151.948 113.296 151.737ZM156.31 173.52C138.638 177.069 126.9 178.462 111.227 181.931C105.766 183.139 91.4108 186.423 85.1136 187.329C82.957 187.485 80.7905 187.181 78.781 186.439C75.5723 185.387 69.9686 183.239 59.4534 179.198C55.9492 177.852 44.5143 173.834 43.7791 173.351C43.8057 173.342 98.7654 166.389 109.037 164.455C117.59 162.843 112.779 162.314 132.232 167.425C132.263 167.435 156.235 173.335 156.315 173.52H156.31ZM25.0541 109.232C44.2642 108.022 60.9137 108.265 75.9741 107.876C92.1839 107.458 93.2981 106.59 94.0801 108.3C94.7837 109.838 116.63 162.057 114.838 162.334C111.197 162.906 42.5576 173.596 41.8312 171.673C31.2276 143.639 39.7747 166.131 31.0848 142.286C18.0735 106.583 15.8186 109.813 25.0541 109.232ZM88.9665 190.53C83.2086 191.752 82.9989 191.599 78.0167 189.818C76.2482 189.183 72.8286 187.902 66.3949 185.4C42.3681 176.053 41.0682 176.052 39.8757 174.225C37.9228 171.23 31.0192 148.511 23.1947 129.061C21.9469 126.272 20.8991 123.409 20.058 120.493C18.5042 116.282 17.1362 114.592 18.532 112.563C19.9456 115.191 38.9043 167.08 40.0147 169.958C40.7979 171.987 40.976 173.434 42.7016 174.087C86.5158 190.669 80.3259 189.376 91.3932 187.244C126.822 180.412 93.288 185.899 142.604 177.167C159.287 174.213 158.71 173.947 158.725 174.528C158.807 177.687 165.566 174.283 88.9665 190.53ZM142.528 168.767C139.094 167.884 138.954 168.065 139.267 167.494C140.576 165.139 139.999 166.022 141.766 161.592C142.918 159.462 143.545 157.122 143.603 154.74C144.039 147.712 147.341 149.813 146.664 143.144C146.494 140.316 146.896 137.484 147.849 134.793C147.952 134.867 148.058 134.936 148.157 135.018C150.415 136.889 150.683 137.006 150.442 137.512C149.239 139.968 150.384 141.372 152.817 142.658C155.305 143.961 153.365 143.982 156.801 146.167C163.767 150.603 160.155 149.667 168.372 155.104C173.161 158.275 172.686 158.654 174.385 159.68C179.359 162.687 180.805 162.988 182.153 164.516C186.269 169.18 185.534 168.441 192.638 172.855C153.517 172.855 162.986 174.025 142.532 168.767H142.528ZM200.917 172.581C196.784 172.581 195.78 172.973 192.201 170.944C184.038 166.327 184.608 163.656 181.355 161.903C179.248 160.766 176.212 159.617 173.384 156.899C172.421 155.974 163.792 149.927 163.77 149.902C161.425 147.157 164.641 149.317 167.573 144.5C169.283 141.693 170.818 142.231 171.464 139.29C171.681 138.359 171.963 137.442 172.305 136.544C172.347 136.427 172.594 136.102 172.767 136.115C175.138 136.297 174.98 137.788 180.439 139.641C184.812 141.125 184.685 144.469 189.811 145.764C193.678 146.74 193.127 149.091 197.907 149.566C205.144 150.283 205.403 153.054 206.244 151.788C206.511 151.392 206.234 151.178 205.975 151.036C204.871 150.331 203.691 149.732 202.455 149.251C199.99 148.493 196.896 148.433 195.463 147.569C190.809 144.784 192.683 145.178 199.034 144.812C200.359 144.767 201.666 145.105 202.774 145.78C203.307 146.074 203.837 145.829 203.785 145.322C203.712 144.605 201.199 143.208 198.3 143.395C195.015 143.608 194.529 143.699 194.621 142.977C194.868 141.651 195.039 140.315 195.135 138.973C194.866 136.347 196.768 133.687 198.041 128.529C200.255 119.523 202.882 121.126 203.232 116.003C203.431 113.079 203.114 111.675 205.289 108.259C206.099 106.989 207.259 105.92 206.746 105.373C206.69 105.296 206.613 105.233 206.524 105.19C206.434 105.147 206.335 105.126 206.234 105.128C206.133 105.131 206.035 105.156 205.948 105.203C205.861 105.25 205.787 105.316 205.735 105.396C202.059 110.227 201.932 110.813 201.599 116.594C201.407 119.928 198.559 119.07 196.327 129.041C195.383 133.251 193.387 135.531 193.532 139.022C193.437 140.201 193.274 141.375 193.042 142.538C193.325 143.565 192.568 143.824 191.794 144.276C190.204 145.193 189.082 144.175 187.911 143.595C185.669 142.486 185.89 140.506 179.538 138.253C177.296 137.456 175.213 134.978 172.58 134.788C171.877 134.738 172.727 134.087 169.36 131.437C165.505 128.409 165.519 129.289 163.088 127.19C162.559 126.711 161.86 126.426 161.121 126.387C160.382 126.349 159.653 126.561 159.07 126.983C158.714 127.267 158.64 127.009 158.529 126.773C152.24 113.404 152.641 114.896 142.655 104.393C142.319 104.042 142.269 103.791 143.449 100.718C143.619 100.37 143.816 100.034 144.04 99.7126C144.542 98.6853 145.285 97.7738 146.213 97.0436C147.141 96.3134 148.233 95.7825 149.409 95.4892C150.959 95.1314 148.341 95.2261 158.945 92.0776C159.071 92.4437 159.161 92.8191 159.214 93.1992C159.358 96.1851 160.578 99.0155 160.663 99.9991C160.916 102.899 164.489 107.075 164.972 107.576C165.56 108.187 167.633 108.414 167.983 107.077C169.963 99.5196 168.926 103.261 169.911 101.014C171.268 97.9231 170.963 98.219 171.201 97.8834C171.997 96.7547 171.911 97.2986 172.59 97.4693C176.423 98.453 177.104 98.6869 179.274 98.5863C179.6 98.5711 179.825 99.0272 180.689 101.991C180.854 102.558 180.505 102.431 177.048 101.824C172.617 101.045 173.035 101.169 172.33 100.992C171.355 100.749 170.803 101.837 171.825 102.151C179.874 104.62 181.082 102.985 181.313 103.984C182.004 106.955 181.961 110.277 184.874 109.097C186.39 108.483 195.674 98.4144 197.681 93.7267C199.432 89.6332 198.986 89.2542 199.782 89.6332C201.615 90.5177 203.556 91.1959 205.563 91.653C206.054 91.8109 208.393 93.0963 210.05 93.7115C212.633 94.6705 212.956 95.8518 218.142 99.3875C221.848 101.915 221.394 103.679 224.176 107.546C225.404 109.254 225.811 110.51 226.311 119.048C226.466 121.689 225.895 121.262 224.746 127.125C224.04 130.723 224.954 128.729 223.872 133.324C222.217 140.359 222.524 141.912 220.636 144.903C215.437 153.153 220.177 152.739 214.498 166.67C211.172 174.865 200.926 171.807 200.921 172.581H200.917Z" fill="#1B1B1D"/>
  <path d="M184.888 61.9847C185.109 62.1016 185.316 62.2408 185.505 62.3987C184.792 63.1917 184.779 63.0092 184.76 63.1133C184.675 63.4095 184.661 63.7191 184.717 64.0209C184.998 64.8888 187.384 63.6315 186.939 62.0829C186.181 59.449 183.393 61.856 184.116 58.8303C184.393 57.6736 184.993 57.3017 186.332 58.5964C187.912 60.1169 188.226 56.3578 184.782 56.4491C183.104 56.2152 182.546 58.6853 182.683 60.3368C182.822 62.0139 184.361 61.7625 184.888 61.9847Z" fill="#1B1B1D"/>
  <path d="M170.128 71.7929C170.312 71.3567 170.669 71.3321 170.807 71.5508C171.042 71.9251 171.414 72.0654 171.725 71.7999C173.038 70.6771 168.984 68.0163 168.165 69.3204C167.987 69.6035 167.947 69.966 168.442 70.1111C168.586 70.1532 168.864 70.2374 168.522 70.6046C167.13 71.5999 165.591 72.4057 163.952 72.9976C158.877 74.8268 157.4 74.2479 157.313 75.3368C157.241 76.242 158.091 75.8128 159.009 76.5063C162.041 78.8081 162.501 80.1484 164.947 80.3156C168.163 80.5344 169.334 73.6771 170.128 71.7929ZM164.669 79.1987C163.515 78.9648 162.546 78.2186 159.511 75.4268C160.94 75.1103 162.343 74.6975 163.707 74.1917C165.491 73.6226 167.183 72.833 168.738 71.8444C168.797 72.3274 169.027 71.5403 167.262 76.7285C166.858 77.9098 165.825 79.4385 164.669 79.1987Z" fill="#1B1B1D"/>
  <path d="M159.703 57.8275C165.733 52.0007 168.843 57.6872 169.266 55.5761C169.519 54.2895 165.436 53.6135 164.03 53.5352C161.324 53.6381 159.903 55.0392 158.398 56.8193C157.637 57.7164 158.798 58.7024 159.703 57.8275Z" fill="#1B1B1D"/>
  <path d="M162.32 61.5864C161.63 61.8285 161.573 62.756 161.969 63.8577C161.99 63.9602 162.036 64.0569 162.104 64.1402C162.171 64.2236 162.259 64.2914 162.359 64.3385C162.46 64.3857 162.571 64.4108 162.684 64.412C162.796 64.4132 162.908 64.3904 163.009 64.3454C163.319 64.2004 163.717 63.701 163.375 62.4495C163.194 61.8016 162.927 61.3735 162.32 61.5864Z" fill="#1B1B1D"/>
  <path d="M160.014 70.2023C160.979 69.7345 160.645 68.1286 159.282 69.1368C157.618 70.3625 155.485 69.938 155.503 68.4421C155.445 67.3298 157.055 67.8397 157.65 66.9672C157.888 66.6164 157.894 66.1205 157.398 64.3392C157.352 64.1789 157.145 63.5521 156.676 63.7029C156.208 63.8538 156.412 64.4047 156.386 64.6269C156.287 65.4386 157.203 66.1871 155.754 66.5204C153.319 67.083 153.607 70.1461 156.007 70.883C156.682 71.0982 157.405 71.1486 158.107 71.0294C158.809 70.9102 159.466 70.6253 160.014 70.2023Z" fill="#1B1B1D"/>
  <path d="M153.971 64.4263C153.776 63.9386 153.197 63.3912 152.632 63.714C151.892 64.1374 152.559 67.0333 153.846 66.2778C154.098 66.1269 154.42 65.5409 153.971 64.4263Z" fill="#1B1B1D"/>
  <path d="M133.457 147.915C139.886 148.584 138.763 152.146 140.658 150.191C138.303 145.38 132.525 147.241 129.105 145.279C128.222 144.776 126.795 147.222 133.457 147.915Z" fill="#1B1B1D"/>
  <path d="M115.336 165.093C96.8572 168.179 102.403 167.028 80.2317 171.05C71.768 172.586 65.9041 173.311 62.9746 173.985C60.5303 174.546 60.9737 175.486 61.9489 176.008C64.1153 177.167 69.5346 178.834 78.4733 181.886C84.4105 183.915 80.8646 183.454 105.38 178.662C121.35 175.54 131.394 174.092 135.472 172.906C136.875 172.499 136.922 172.158 136.976 171.755C137.17 170.326 134.022 169.794 115.912 165.118C115.724 165.07 115.527 165.061 115.336 165.093ZM134.978 172.179C130.936 172.964 117.583 175.283 111.443 176.435C74.2149 183.418 89.3789 184.372 63.0782 175.451C62.7637 175.306 62.5994 175.127 63.0706 175.022C69.5536 173.571 113.101 166.166 115.559 165.83C121.988 167.383 130.669 169.911 134.459 171.055C136.581 171.696 135.663 172.047 134.978 172.179Z" fill="#1B1B1D"/>
  <path d="M132.222 152.534C133.054 152.986 133.764 152.352 133.195 151.767C131.174 149.687 130.056 150.247 127.32 147.606C127.187 147.477 126.838 147.489 126.606 147.522C126.468 147.543 126.353 147.742 126.212 147.887C127.226 149.687 130.477 151.581 132.222 152.534Z" fill="#1B1B1D"/>
  <path d="M121.759 110.09C120.912 109.669 119.954 109.476 118.994 109.532C118.034 109.588 117.111 109.892 116.327 110.408C114.061 111.642 113.126 110.427 108.369 108.852C106.294 108.943 103.695 110.822 104.27 111.485C105.246 112.608 106.706 108.757 109.936 110.79C111.15 111.359 112.434 111.791 113.759 112.076C116.437 112.972 118.72 109.737 120.833 111.14C122.652 112.356 123.587 111.173 124.313 110.907C125.065 110.63 125.013 109.602 123.682 109.646C122.959 109.673 122.789 110.709 121.759 110.09Z" fill="#1B1B1D"/>
  <path d="M89.7831 100.505C91.0464 100.563 91.3255 95.7983 96.7739 97.0954C97.4716 97.2992 98.2101 97.354 98.934 97.2558C99.6579 97.1576 100.348 96.9088 100.954 96.5282C101.559 96.1476 102.063 95.645 102.428 95.0582C102.794 94.4713 103.011 93.8155 103.064 93.1398C103.316 90.8229 106.222 90.1212 108.711 90.5738C112.684 91.2954 113.753 88.9095 115.721 85.9235C117.689 82.9376 118.681 86.6463 123.963 82.3657C124.23 82.1493 124.08 81.2183 123.476 81.2803C122.126 81.4195 121.175 83.4113 118.397 83.1914C115.09 82.9306 114.467 85.6007 112.936 87.506C109.627 91.6229 108.488 86.9843 102.818 90.3785C101.191 91.3527 102.346 93.8638 100.656 95.024C100.071 95.4537 99.3786 95.741 98.6428 95.8599C97.907 95.9788 97.1508 95.9255 96.4429 95.7047C91.107 94.2954 88.3771 100.439 89.7831 100.505Z" fill="#1B1B1D"/>
  <path d="M115.521 125.825C115.384 125.479 115.168 125.163 114.886 124.902C114.604 124.641 114.264 124.44 113.889 124.313C112.64 124.038 109.047 124.114 107.987 123.505C107.872 123.475 107.75 123.472 107.634 123.498C107.517 123.524 107.409 123.577 107.321 123.652C106.483 125.165 111.008 125.261 112.709 125.43C112.935 125.363 113.178 125.362 113.405 125.427C113.633 125.492 113.833 125.619 113.979 125.793C114.076 125.907 114.147 126.038 114.187 126.18C115.162 128.698 117.579 128.041 119.426 128.83C119.918 129.042 120.857 129.788 121.236 127.935C121.525 126.527 116.682 128.165 115.521 125.825Z" fill="#1B1B1D"/>
  <path d="M44.702 168.274C51.4742 167.674 87.1834 163.761 104.857 161.14C113.768 159.82 113.364 161.278 111.321 155.643C109.92 151.783 103.912 136.3 101.918 131.559C92.3021 108.71 93.348 109.317 91.3066 109.502C91.2801 109.502 57.1663 109.892 39.6755 110.912C18.7361 112.133 21.6112 110.93 22.9414 114.655C28.4996 130.156 27.2718 126.117 28.7409 129.787C41.4807 161.627 41.6171 168.548 44.702 168.274ZM61.2125 165.424C44.4493 167.178 45.6582 167.459 45.8768 166.705C46.7244 163.77 46.6751 163.686 47.14 163.739C49.0349 163.95 49.6324 164.463 52.4974 163.1C53.4511 162.646 52.817 164.211 56.3275 164.386C59.8381 164.562 61.4613 163.181 61.4512 164.495C61.4449 164.914 62.1081 165.331 61.2125 165.424ZM47.5695 156.222C47.4849 156.415 47.5518 156.105 47.2613 157.692C43.3452 155.236 44.0817 156.19 41.7573 155.167C42.0024 154.75 41.9456 154.135 42.6921 154.054C43.6279 154.061 44.5507 154.258 45.3945 154.633C46.2383 155.007 46.9823 155.55 47.5733 156.222H47.5695ZM44.3533 152.642C46.833 152.67 47.5468 154.915 46.9556 154.513C44.4114 152.782 41.7207 153.32 44.3571 152.642H44.3533ZM46.9745 158.723C46.9947 159.064 46.7446 160.906 46.3429 160.523C43.1848 157.532 40.532 158.398 41.0007 157.446C41.3683 156.704 41.1093 156.689 41.7043 156.184C43.7 156.509 45.5399 157.394 46.9758 158.718L46.9745 158.723ZM62.3292 163.817C62.9419 163.24 77.6763 160.232 77.7028 160.227C78.6957 162.555 77.5159 160.475 63.12 164.044C62.7435 164.133 62.9924 164.255 62.333 163.811L62.3292 163.817ZM78.3723 163.332C78.3433 163.332 63.5128 165.196 62.8661 165.018C62.9924 164.92 63.0998 164.758 63.2362 164.734C65.3837 164.356 76.3107 162.425 77.7104 162.257C78.8839 162.109 78.9067 163.272 78.3799 163.326L78.3723 163.332ZM54.6815 162.926C51.6763 161.889 57.7133 161.257 55.8564 153.389C54.0411 145.699 49.8737 145.921 51.1457 145.154C53.5119 143.716 56.1332 142.675 58.8894 142.079C66.5383 140.452 70.3596 139.077 76.1086 140.043C82.2846 141.081 85.7686 157.547 78.8246 158.962C58.4612 163.109 57.827 164.01 54.6815 162.926ZM47.1084 125.076C46.2911 123.251 44.7967 123.716 44.6426 122.963C44.2158 121.401 44.3926 119.749 45.1424 118.295C45.8921 116.84 47.1677 115.674 48.7481 114.999C59.2949 111.071 64.2935 118.254 64.4123 128.227C64.0497 131.393 64.3352 133.198 60.9763 134.815C58.3993 136.056 54.3329 136.626 52.0287 134.48C45.2451 128.155 50.5495 132.76 47.1084 125.076ZM46.3037 130.427C42.922 132.327 40.4309 124.478 44.4291 124.425C45.825 124.407 46.2305 125.373 47.2284 128.772C47.4811 129.651 47.3181 129.858 46.3037 130.427ZM64.0485 119.79C64.0485 119.603 64.2746 119.568 64.5083 119.593C65.481 119.696 65.9067 121.03 66.1593 121.992C66.3463 122.693 66.9905 124.699 66.1139 125.325C65.582 125.705 65.3382 125.897 65.1879 125.227C64.4375 121.89 64.0535 120.378 64.0485 119.79ZM56.368 136.961C62.3241 136.546 62.5945 134.165 63.2172 135.368C64.3062 137.473 62.9482 135.393 56.3591 138.114C56.085 137.563 55.6669 137.01 56.368 136.961ZM61.6218 137.518C62.9318 137.229 64.6018 137.091 64.5196 138.336C63.576 138.57 61.4045 138.88 58.9993 139.325C57.7664 139.553 57.3457 140.384 56.9238 139.536C56.5019 138.688 56.4703 138.657 61.6218 137.522V137.518ZM64.195 139.188C65.0679 139.38 66.9817 139.188 58.5988 140.991C58.2906 141.058 57.8624 141.396 57.6539 140.913C57.6173 140.826 58.0695 140.439 58.3487 140.373C64.7875 138.843 64.147 139.108 64.195 139.188ZM90.2177 148.042C91.5972 149.141 90.9491 149.553 88.0702 154.932C87.9333 155.141 87.7406 155.314 87.5106 155.435C86.2246 153.547 86.3017 154.767 87.6218 151.767C89.7541 146.913 89.2501 147.274 90.2127 148.042H90.2177ZM87.8972 145.837C89.0454 146.571 88.7183 147.254 88.05 148.336C87.762 145.639 87.7999 146.254 87.8921 145.837H87.8972ZM91.9168 149.911C93.7472 151.566 93.4554 151.349 93.5223 151.591C93.3089 152.168 93.1434 152.761 92.873 153.32C90.4805 158.249 90.5752 158.127 90.1609 157.706C89.2337 156.761 88.4037 156.284 88.7347 155.627C91.2662 150.591 91.7488 149.763 91.9117 149.911H91.9168ZM84.6481 154.238C84.3449 154.391 84.0304 154.534 83.7221 154.682C83.7028 154.389 83.6998 154.095 83.7133 153.802C84.1845 149.309 81.8361 142.98 80.007 141.09C79.244 140.409 78.4227 139.786 77.5512 139.228C78.1806 138.864 78.8896 138.635 79.6267 138.556C80.3634 138.477 81.11 138.55 81.8121 138.771C83.5011 139.09 85.5324 141.8 86.1135 143.533C87.5384 146.309 87.4866 152.809 84.643 154.247L84.6481 154.238ZM84.3449 162.754C80.1484 163.148 79.8642 163.418 79.5762 162.506C78.8334 160.157 78.6149 160.077 79.2692 159.919C80.1757 159.724 81.0085 159.306 81.6794 158.709C82.3503 158.112 82.8344 157.358 83.0804 156.527C83.4505 155.63 83.568 156.121 85.4641 155.027C85.9884 154.725 85.4022 154.394 92.225 161.46C92.2983 161.551 92.364 161.647 92.4195 161.749C89.7528 162.247 87.0539 162.584 84.3399 162.758L84.3449 162.754ZM92.4385 160.064C91.0969 158.825 91.1273 158.852 91.8978 157.311C93.5299 154.044 94.1552 152.101 94.4028 152.326C96.424 154.151 96.7461 152.878 92.9842 159.981C92.8314 160.271 92.7215 160.34 92.4334 160.073L92.4385 160.064ZM94.1982 161.523C93.7358 161.178 93.3758 161.11 93.6714 160.526C96.8737 154.203 96.6324 154.318 97.0822 154.87C97.3272 155.174 97.9664 155.268 97.4788 156.118C94.4736 161.405 95.3755 161.499 94.1931 161.533L94.1982 161.523ZM96.5314 161.172C96.491 161.12 96.3343 161.008 96.3558 160.939C98.2507 155.038 99.6276 154.681 104.727 159.583C105.188 160.039 105.58 160.101 96.5263 161.178L96.5314 161.172ZM84.6468 125.813C91.342 122.507 91.0666 122.48 91.3622 123.338C92.1366 125.584 86.2524 126.41 86.6882 127.579C87.1657 128.876 90.8001 125.696 92.9387 129.16C93.0145 129.277 93.0499 129.476 93.1623 129.527C93.8887 129.857 94.5809 129.658 93.3695 127.818C92.4852 126.473 94.4028 126.517 95.3831 125.725C95.7621 125.424 95.6522 125.442 96.5705 128.383C96.4354 129.563 95.9869 130.096 94.423 130.587C90.8241 131.712 89.6505 132.079 88.2395 131.485C87.2716 131.076 86.4056 130.487 85.696 129.753C84.9864 129.019 84.4485 128.158 84.1163 127.222C83.8055 126.471 83.9331 126.169 84.6418 125.818L84.6468 125.813ZM83.7221 123.402C82.5675 120.877 79.796 115.397 80.9708 115.34C82.1001 115.284 82.0585 115.935 86.116 123.104C86.4179 123.636 86.2259 123.869 85.7117 124.085C84.3298 124.672 84.3032 124.69 83.7171 123.408L83.7221 123.402ZM87.5005 121.896C87.6268 121.203 89.0265 120.209 89.9006 121.194C90.5196 121.896 90.5323 121.878 89.5836 122.21C88.7536 122.506 87.4424 123.39 87.4954 121.901L87.5005 121.896ZM91.1639 120.96C90.5651 120.34 91.438 119.836 92.0166 119.641C92.5951 119.445 93.1004 120.121 93.295 120.388C94.1454 121.631 94.7049 123.026 94.9372 124.482C95.0471 125.021 94.0908 125.292 93.8407 125.381C93.2962 125.582 93.2369 123.114 91.1626 120.969L91.1639 120.96ZM92.4928 125.79C91.601 126.788 91.9635 126.547 90.8367 126.365C91.0148 125.869 91.3875 125.739 92.0999 124.796C92.3058 125.101 92.441 125.443 92.4916 125.8L92.4928 125.79ZM96.6287 130.566C97.0076 130.393 97.6822 131.267 98.1622 131.865C98.5905 132.401 94.8778 134.412 91.1298 134.886C89.3448 135.112 89.4383 134.704 89.1376 133.273C88.9027 132.172 90.0232 133.576 96.6274 130.575L96.6287 130.566ZM96.8371 134.478C97.5344 135.568 98.0422 135.231 92.9211 136.735C92.6684 136.809 92.3703 137.115 92.2149 136.602C91.9155 135.617 91.9004 136.076 96.8358 134.487L96.8371 134.478ZM97.374 136.285C97.5344 136.244 97.8704 136.473 97.9892 136.653C99.0124 138.196 98.3201 137.121 93.5767 139.448C93.4971 139.448 93.42 139.459 93.4137 139.448C92.556 137.499 91.7323 137.766 97.379 136.294L97.374 136.285ZM98.4768 138.485C98.8659 138.357 98.9379 138.719 99.7021 140.396C99.5975 140.471 99.4849 140.536 99.3661 140.589C93.9607 142.401 94.5582 142.46 94.1944 141.435C93.6866 140.011 92.7581 140.378 98.4755 138.494L98.4768 138.485ZM99.5316 141.333C100.163 141.138 100.13 141.408 100.953 143.159C99.2006 143.474 97.4914 143.966 95.8556 144.625C95.3503 144.883 95.4298 144.432 95.2593 143.96C94.7262 142.484 94.5671 142.862 99.5265 141.342L99.5316 141.333ZM100.906 143.883C101.51 144.366 101.252 143.994 101.917 145.553C97.163 146.506 96.4468 147.707 96.1057 146.566C95.7128 145.235 94.9789 145.719 100.905 143.892L100.906 143.883ZM101.971 146.35C102.729 146.92 102.438 146.652 102.69 147.214C103.147 148.238 103.137 148.139 101.984 148.266C97.7706 148.734 97.35 149.537 97.0834 148.798C96.6211 147.538 95.709 147.975 101.97 146.36L101.971 146.35ZM102.325 148.942C103.489 149.065 103.486 149.066 103.894 150.143C104.257 151.102 104.533 151.021 103.273 150.944C98.9884 150.685 98.2001 152.197 97.8906 151.164C97.4258 149.624 96.6413 149.913 102.323 148.952L102.325 148.942ZM99.3244 153.73C99.245 153.732 99.1665 153.716 99.0948 153.684C99.0231 153.652 98.9604 153.606 98.9113 153.548C98.1837 152.515 98.3416 152.19 99.6541 152.01C102.56 151.61 102.202 151.672 102.216 151.768C104.442 151.768 105.081 151.661 105.579 153.957C104.706 154.013 102.284 153.142 99.3232 153.74L99.3244 153.73ZM105.819 155.066C106.362 155.494 106.741 156.073 106.9 156.716C106.774 157.16 96.5781 154.65 99.6402 154.458C102.277 154.302 100.322 153.934 105.817 155.075L105.819 155.066ZM106.577 159.65C105.536 158.886 104.613 157.995 103.833 156.999C104.98 157.267 106.094 157.644 107.156 158.125C107.315 158.238 107.446 158.381 107.541 158.544C107.635 158.708 107.692 158.888 107.706 159.073C107.76 159.651 107.232 159.664 106.574 159.659L106.577 159.65ZM40.0482 156.587C39.361 155.211 36.6918 146.983 33.8457 139.754C22.1645 110.075 23.1296 112.559 23.7398 112.581C29.8538 112.808 61.7873 110.817 89.4636 110.512C93.2242 110.471 91.8473 109.897 95.1684 118.168C95.3654 118.661 101.852 134.042 103.758 139.042C111.755 159.977 107.409 149.109 110.714 157.547C111.363 159.203 111.337 159.24 109.462 159.443C108.469 159.549 110.514 161.595 98.0397 134.358C97.8009 133.835 98.5993 133.389 98.8798 133.127C100.684 131.437 97.1112 130.072 97.35 129.046C97.5041 127.924 97.2734 126.784 96.6906 125.789C94.3169 120.526 94.7212 120.479 93.2444 119.174C91.7361 117.841 90.6687 119.869 89.3284 119.731C87.8289 119.578 87.2302 120.422 86.4634 121.287C85.9303 120.787 86.7931 122.028 82.8594 115.3C81.6858 113.293 79.0242 114.435 79.7013 116.568C80.396 118.745 82.1014 122.217 83.2939 124.865C83.5819 125.508 82.5612 125.375 82.9503 126.97C83.292 128.111 83.8831 129.175 84.6871 130.096C85.4911 131.017 86.4908 131.775 87.6243 132.324C88.3191 132.82 88.146 133.75 88.4176 134.71C88.9987 136.759 90.7053 135.327 91.1879 136.581C92.3071 139.491 97.8287 153.975 97.8401 154.135C97.4081 153.861 89.9461 146.46 89.7225 146.238C85.7117 142.262 87.215 143.139 85.8558 141.12C81.634 134.844 76.5672 139.132 74.57 138.866C68.6719 138.088 66.6116 140.057 66.0406 138.782C64.4893 135.311 63.5659 134.361 63.8931 133.987C65.6742 131.943 65.2915 129.255 65.3433 127.203C65.366 126.328 67.7359 126.558 67.535 123.852C67.3657 121.553 66.3349 118.099 63.9373 118.67C63.1263 118.864 62.5932 116.828 60.9636 115.35C55.7616 110.628 43.469 112.84 43.3705 121.358C43.5916 123.338 43.7356 123.414 43.2808 123.609C38.8115 125.52 42.4584 133.681 46.5955 131.493C48.2554 130.616 47.1008 133.591 54.319 136.815C55.0112 137.124 54.7093 137.007 56.2871 140.693C57.0564 142.491 55.5772 140.774 49.8661 144.771C49.2054 145.233 44.6779 143.134 40.7581 147.484C37.3107 151.323 41.2571 154.899 40.0482 156.587ZM40.9249 153.674C37.9019 144.919 53.9198 140.308 54.9645 156.084C54.674 161.51 50.9032 163.569 47.5266 162.703C46.6309 162.47 47.9055 161.084 48.498 156.894C49.1953 152.003 43.7848 150.111 41.5161 153.305C41.434 153.449 41.3367 153.585 41.2255 153.712C41.1758 153.728 41.1228 153.733 41.0706 153.726C41.0184 153.72 40.9686 153.703 40.9249 153.675V153.674ZM40.9413 158.743C42.0123 158.898 43.0363 159.259 43.9472 159.803C44.8581 160.347 45.6355 161.062 46.2292 161.901C45.2338 165.082 46.2987 162.348 41.6815 160.779C41.2912 160.65 41.103 159.511 40.9413 158.744V158.743ZM41.9418 162.141C41.5413 161.088 45.0999 163.702 45.3096 164.526C45.134 165.211 45.11 165.662 44.7398 165.473C42.6492 164.399 42.9524 164.808 41.9418 162.142V162.141Z" fill="#1B1B1D"/>
  <path d="M43.674 167.893L25.7148 114.832L92.2455 110.75L111.837 159.73L43.674 167.893Z" fill="#FFD200"/>
  <path d="M35.4174 80.3C38.9646 81.031 36.1148 82.9058 37.9313 85.0134C39.9638 87.3713 43.9014 86.0286 43.0525 89.1163C42.7063 90.3783 42.863 90.5935 44.0972 91.156C45.8657 91.9595 47.0771 93.3782 47.4018 92.1537C47.5938 91.4239 47.1921 90.9186 45.08 90.1046C43.5325 89.5093 44.9877 89.2672 44.3283 87.39C43.4137 84.79 40.3239 86.0169 38.8295 83.8813C38.0993 82.8403 39.9866 79.817 35.5665 79.0333C34.1769 78.7877 32.8695 78.6953 32.3554 78.0123C31.5532 76.948 30.7422 75.5012 31.4067 74.3539C31.4951 74.203 31.365 73.9422 31.3359 73.7305C31.0329 73.7447 30.733 73.7934 30.4428 73.8755C30.1346 73.9925 29.1796 76.2872 31.7212 79.162C32.2379 79.7444 33.5857 79.9211 35.4174 80.3Z" fill="#1B1B1D"/>
  <path d="M67.3705 76.888C69.415 79.6695 65.9515 79.2291 65.7166 81.9167C65.454 84.9237 69.3166 86.4415 66.4143 88.1535C65.2287 88.8538 65.1837 89.1099 65.6671 90.3024C66.3617 92.0092 66.1953 93.8111 67.3375 93.1245C68.0172 92.7144 68.0982 92.0915 67.1609 90.1592C66.4735 88.7443 67.7131 89.4904 68.6209 87.7043C69.8773 85.2297 66.718 84.1649 67.2085 81.6611C67.4462 80.4395 71.0577 79.4327 68.416 76.0594C67.585 74.9994 66.7004 74.1032 66.8309 73.2794C67.0335 71.9952 67.5125 70.4267 68.8453 70.0118C69.0213 69.9579 69.1194 69.6853 69.2548 69.5126C69.0234 69.3309 68.7688 69.1763 68.4967 69.0521C68.1855 68.9419 65.7924 70.0088 65.5185 73.7153C65.4642 74.4673 66.3159 75.4505 67.3705 76.888Z" fill="#1B1B1D"/>
  <path d="M25.0951 95.3552C30.1077 95.7318 26.1297 96.4464 28.7977 99.0359C29.3963 99.5673 30.1216 99.9607 30.915 100.184C31.7084 100.408 32.5475 100.455 33.3643 100.322C34.2561 100.25 34.3042 100.215 34.4267 101.008C34.4842 101.173 34.5827 101.324 34.7143 101.449C34.8458 101.573 35.0069 101.667 35.1846 101.724C36.5072 101.929 36.1952 99.0593 34.0477 98.947C33.8532 98.9365 30.2782 99.5388 29.4243 97.5341C29.0061 96.5529 29.2828 94.5927 27.8073 94.4301C23.4832 93.9552 19.691 95.0839 19.576 91.2219C19.576 91.0278 19.3019 90.843 19.1529 90.6523C18.9343 90.7985 18.5932 90.9015 18.5137 91.0991C18.3312 91.5595 18.2938 92.0584 18.4056 92.5377C18.5174 93.017 18.7739 93.4571 19.1453 93.8067C20.9883 95.7318 22.7708 95.6231 25.0951 95.3552Z" fill="#1B1B1D"/>
</svg>
