<svg width="226" height="184" viewBox="0 0 226 184" fill="none" xmlns="http://www.w3.org/2000/svg">
  <path d="M154.664 48.3678C154.933 48.8324 155.986 51.2995 155.129 52.4016C154.273 53.5038 152.916 52.4269 152.055 50.8058C151.194 49.1847 150.404 47.1494 151.382 46.2648C152.359 45.3801 152.539 44.9499 152.622 43.5589C152.673 42.7105 153.223 42.8308 153.554 43.4207C154.272 44.5249 153.871 45.5596 154.042 46.7113C154.081 47.2771 154.214 47.4256 154.664 48.3678Z" fill="#8EC3F8"/>
  <path d="M131.022 49.2261C131.225 50.602 130.885 56.6251 125.673 54.7458C120.461 52.8664 117.188 47.1472 116.766 42.6067C116.344 38.0663 116.927 33.3702 122.216 35.8773C127.505 38.3844 128.951 38.5867 131.72 37.5182C133.414 36.8719 135.299 38.8828 135.521 40.5969C136.31 44.1423 132.954 43.7665 131.572 45.4733C130.724 46.1591 130.969 46.7609 131.022 49.2261Z" fill="#F1C469"/>
  <path d="M145.488 155.689C145.488 155.689 140.238 161.734 141.269 168.454C142.3 175.174 151.876 207.493 151.876 207.493C155.756 208.133 159.697 208.324 163.621 208.062C169.891 207.612 177.642 207.149 182.098 207.268C186.554 207.386 186.839 204.649 190.987 205.668C195.135 206.687 198.631 206.237 202.281 206.355C205.932 206.474 217.783 206.924 218.874 206.355C219.964 205.786 220.474 200.086 220.58 197.798C220.687 195.511 220.924 181.491 217.736 175.908C214.548 170.326 206.441 155.606 199.484 155.263C192.527 154.919 148.333 152.146 145.488 155.689Z" fill="#2576C7"/>
  <path d="M153.856 182.226C147.504 171.15 140.495 160.465 132.866 150.227C124.949 149.717 17.4194 151.127 14.1839 151.021C13.4135 151.021 1.46705 180.128 0.921875 182.724C0.921875 183.269 1.18261 207.612 1.18261 207.612C1.18261 207.612 9.83432 208.169 10.3202 207.126C10.581 206.569 11.1854 200.975 11.6832 195.95C61.3416 195.867 73.2407 196.176 142.774 196.14L145.145 207.992C145.145 207.992 155.361 209.343 153.962 207.482C153.962 206.427 153.856 182.226 153.856 182.226Z" fill="white"/>
  <path d="M10.1657 106.453C10.3435 106.027 36.8675 91.6624 36.9979 92.0061C37.5318 92.0177 38.0562 92.1495 38.5322 92.3916C39.0082 92.6337 39.4236 92.9799 39.7475 93.4046C40.8141 94.8386 67.3974 143.904 67.3974 143.904C65.8211 147.46 68.0255 143.596 50.4969 173.652L49.4303 173.036L10.9953 110.637C10.9953 110.637 9.51388 108.041 10.1657 106.453Z" fill="white"/>
  <path d="M124.783 168.123C122.579 162.885 120.185 154.328 117.281 146.15C117.115 145.676 116.57 144.076 113.868 144.1C111.165 144.124 67.5158 144.894 67.2077 145.427C64.7662 149.658 50.722 173.871 50.7102 173.871C50.568 174.108 120.256 174.002 120.279 174.002C121.642 174.002 125.02 174.203 125.542 173.279C126.205 172.188 125.636 170.197 124.783 168.123Z" fill="#B5B6BA"/>
  <path d="M174.051 14.217C173.956 13.6007 173.837 13.3636 172.474 11.4318C171.787 10.46 171.775 10.9222 170.388 9.4763C169.002 8.0304 165.091 7.22449 161.618 5.70748C155.692 3.11196 156.688 2.15198 148.202 1.64236C147.136 1.5831 136.635 3.05271 134.454 4.41565C133.198 5.19786 130.045 6.51339 129.192 8.51632C128.015 9.07694 127.015 9.95019 126.3 11.0407C125.613 12.4985 125.115 15.6629 125.838 16.5162C126.561 17.3695 137.133 18.7324 138.282 19.5858C139.432 20.4391 146.424 22.3472 149.032 24.6583C151.639 26.9693 156.024 30.11 157.944 33.0255C159.864 35.9411 161.014 38.9514 161.784 39.7928C162.845 41.2708 163.436 43.0345 163.479 44.8535C166.549 43.3483 166.963 42.3172 166.928 39.0106C168.231 37.8255 168.552 37.0788 168.682 34.4003C169.867 33.2863 171.645 34.8389 176.433 31.5441C178.317 30.2404 177.523 27.0286 177.618 26.3412C177.203 20.1191 175.414 22.3354 174.051 14.217Z" fill="#00703F"/>
  <path d="M220.154 116.852C225.973 130.955 223.875 154.67 220.735 169.651C218.459 180.46 219.396 179.132 217.179 173.479C215.271 168.584 215.129 172.732 216.326 166.712C218.696 154.706 220.284 136.988 218.554 125.918C217.369 118.641 216.373 111.922 211.17 106.339C209.274 104.301 207.615 103.542 208.255 103.685C213.825 104.822 217.973 111.554 220.154 116.852Z" fill="white"/>
  <path d="M215.33 116.626C220.959 134.653 215.709 165.218 214.441 168.501C211.594 164.776 208.539 161.215 205.291 157.834C203.703 156.223 203.727 156.187 203.964 155.95C207.081 152.952 205.588 147.654 202.779 147.5C202.245 147.5 203.111 145.817 201.25 142.475C200.242 140.661 199.365 139.808 199.045 137.296C197.137 122.279 193.831 117.942 194.305 117.006C195.49 114.446 194.885 113.912 197.481 108.84C200.705 102.535 198.145 101.729 204.9 103.4C206.381 104.105 207.801 104.934 209.143 105.877C211.869 108.105 213.978 112.3 215.33 116.626Z" fill="white"/>
  <path d="M204.391 152.147C204.357 152.729 204.203 153.297 203.94 153.817C203.677 154.337 203.31 154.797 202.862 155.169C202.416 155.593 201.945 155.988 201.452 156.354C198.275 158.369 190.927 159.779 187.621 160.005C172.451 161.036 172.747 158.938 165.743 158.677C160.362 158.464 158.798 158.926 154.756 158.12C153.153 157.82 151.614 157.247 150.205 156.425C152.089 155.797 172.143 153.154 178.068 150.5C181.837 148.793 185.523 139.62 186.661 135.78C187.301 133.599 188.273 131.94 189.185 129.416C189.304 129.107 192.101 120.539 193.404 119.01C196.213 124.45 197.351 137.972 198.382 140.343C199.129 142.109 200.124 143.223 200.835 145.083C201.034 145.953 201.165 146.836 201.226 147.726C201.487 149.303 204.142 148.023 204.391 152.147ZM188.059 153.723C191.793 153.937 200.089 152.242 199.84 150.997C199.591 149.753 194.258 152.657 188.45 152.55C187.828 152.491 187.201 152.491 186.578 152.55C186.127 152.621 182.619 153.273 183.022 153.664C183.058 153.709 183.082 153.762 183.093 153.818C181.493 154.565 187.111 153.676 188.059 153.723Z" fill="#00703F"/>
  <path d="M201.487 90.0202C202.021 94.4883 197.529 105.427 196.237 107.987C193.274 113.913 195.68 110.298 191.781 118.879C188.652 125.777 189.849 123.88 187.04 131.193C180.676 147.655 180.356 148.97 173.399 150.736C173.399 150.736 153.464 154.718 138.567 157.018C137.927 157.124 138.353 157.018 138.199 155.062C137.915 151.601 138.199 150.95 137.773 148.638C137.31 146.126 136.303 144.917 136.979 144.739C144.386 142.879 140.534 143.317 150.015 140.319C151.07 139.987 152.386 139.738 152.611 139.643C153.452 139.145 153.512 139.299 157.209 138.126C163.657 136.076 162.377 135.898 168.871 136.301C169.701 136.301 169.997 135.649 169.677 135.353C169.085 134.808 165.837 134.713 165.032 134.808C162.661 134.808 162.661 135.163 162.223 133.622C161.286 130.067 170.519 132.817 170.685 130.956C170.78 129.439 166.276 130.956 166.845 130.008C172.486 120.917 170.886 118.926 181.162 111.258C183.295 109.67 185.345 108.793 183.923 108.082C183.425 107.833 177.665 112.361 177.085 112.823C175.212 114.15 174.039 116.106 173.351 116.568C173.671 114.204 174.478 111.932 175.722 109.895C178.448 105.392 185.322 98.826 185.452 98.7549C186.08 98.3756 185.748 97.143 185.013 97.7238C184.492 98.1386 178.128 104.479 178.033 104.55C178.199 101.232 183.034 90.518 183.034 90.4943C183.224 89.6883 182.335 89.6054 182.05 90.1032C181.147 91.9095 180.336 93.7608 179.621 95.6497C174.667 108.687 178.91 102.322 174.548 109.564C172.862 112.147 171.964 115.166 171.965 118.251C169.666 121.806 165.849 130.328 165.043 130.268C161.227 129.984 160.137 133.16 161.369 135.009C161.618 135.388 151.781 138.304 151.758 138.316C142.833 140.84 145.073 141.456 143.758 138.813C142.573 136.502 143.39 136.763 142.253 134.547C141.115 132.331 141.269 130.28 139.456 127.282C132.937 116.461 134.715 113.06 135.971 97.3682C136.148 95.8334 136.243 94.2903 136.256 92.7461C136.256 92.2957 135.473 92.1891 135.391 92.6157C134.881 95.1283 134.561 100.426 134.205 104.088C133.459 112.775 132.226 117.398 136.955 125.871C140.167 131.62 139.325 126.855 134.679 142.819C134.3 144.111 133.779 146.126 132.451 146.161C123.491 146.41 120.837 147.347 114.069 135.649C111.924 131.928 107.409 129.154 98.8163 115.762C97.8682 114.281 99.5748 115.904 104.493 112.124C104.624 112.029 106.129 111.175 106.864 110.607C109.092 108.888 106.39 107.999 110.644 111.792C114.899 115.584 115.48 115.963 117.246 118.014C119.474 120.597 121.654 121.783 124.653 124.603C127.651 127.424 124.653 125.634 131.551 131.24C131.637 131.323 131.751 131.369 131.871 131.369C131.99 131.369 132.105 131.323 132.191 131.24C132.191 130.636 131.811 130.47 131.562 130.221C130.282 128.941 124.795 123.24 124.523 122.754C128.434 122.446 130.448 126.31 131.539 125.279C131.859 124.959 131.539 124.544 131.29 124.402C128.256 122.233 128.042 121.925 125.613 121.439C124.214 121.143 123.728 121.842 123.894 121.06C124.463 118.322 124.949 117.303 124.665 114.423C124.226 109.86 126.194 111.057 127.177 99.8926C128.445 85.5758 130.259 85.1729 138.91 79.887C140.617 78.8441 141.553 78.0856 142.099 77.7063C142.644 77.3271 143.011 76.7819 143.059 77.8841C143.047 78.4259 143.154 78.9637 143.373 79.4594C143.592 79.955 143.918 80.3964 144.327 80.7522C149.15 85.0425 163.728 79.2352 171.076 71.9464C175.971 67.0991 166.442 65.748 187.597 74.2338C189.347 74.7951 190.992 75.6399 192.468 76.7345C196.035 79.01 200.112 78.1685 201.487 90.0202Z" fill="#00703F"/>
  <path d="M171.74 67.5732C171.941 68.8769 171.135 70.4294 170.839 69.7657C169.654 67.0991 169.405 66.0443 167.07 63.8399C165.139 62.074 164.819 63.4251 165.423 63.9703C166.94 65.1152 168.139 66.6287 168.907 68.3673C169.761 70.9391 170.626 70.9154 169.974 71.5554C169.322 72.1953 168.694 72.2901 167.888 73.1316C167.426 73.6175 165.352 69.0191 164.333 68.391C162.567 67.2058 162.46 66.2458 161.595 66.3288C161.002 66.3288 161.239 67.1228 161.453 67.3599C163.586 69.7302 163.598 69.0309 165.079 71.5435C166.727 74.3168 166.976 73.9138 166.324 74.4235C164.881 75.5085 163.323 76.4307 161.678 77.173C161.168 77.3982 161.109 77.3508 161.002 77.0071C157.222 64.5155 153.583 71.6857 160.137 65.5347C161.625 64.3448 162.76 62.7712 163.42 60.9837C163.598 60.5215 163.716 59.123 162.638 59.1585C161.962 59.1585 162.164 58.8148 161.192 57.1674C160.884 56.646 161.654 55.2949 163.562 55.366C165.47 55.4371 165.103 57.2623 166.62 60.2015C167.533 62.0148 171.242 64.314 171.74 67.5732Z" fill="#00703F"/>
  <path d="M161.772 40.8953C162.195 41.2689 162.523 41.7379 162.729 42.2634C162.935 42.7888 163.013 43.3558 162.957 43.9174C162.685 45.1974 162.293 45.3515 162.507 46.1337C163.076 48.1603 160.646 49.867 159.034 49.5114C156.948 49.0611 157.197 49.2151 156.285 47.307C154.732 44.1071 156.071 47.0463 157.47 41.8316C159.105 35.5857 155.265 31.8525 151.544 32.7769C150.48 32.9375 149.516 33.4916 148.842 34.3295C148.344 34.9102 148.214 35.5146 147.905 35.645C147.36 35.8583 146.009 36.2376 142.608 37.2924C141.743 37.565 142.525 36.3442 141.221 36.4509C140.629 36.4509 139.787 37.1502 138.72 36.1191C137.369 34.7917 136.931 32.7295 138.981 31.7695C140.024 31.2954 139.965 30.6436 139.479 30.3117C138.294 29.494 137.215 28.9014 137.286 26.5785C137.286 24.7415 138.27 23.9474 138.021 23.7459C137.851 23.6331 137.644 23.5922 137.444 23.6322C137.244 23.6721 137.068 23.7898 136.955 23.9593C136.113 25.417 136.682 24.9074 135.627 25.8792C135.201 26.2703 134.051 25.654 133.932 25.2629C133.814 24.8718 133.138 24.6822 133.008 24.8955C132.838 25.2511 132.688 25.6149 132.558 25.9859C132.426 26.2818 132.223 26.5403 131.967 26.7384C131.71 26.9364 131.409 27.0677 131.089 27.1206C130.77 27.1735 130.442 27.1462 130.136 27.0412C129.829 26.9363 129.554 26.7569 129.334 26.5192C129.18 26.377 129.061 26.1992 128.895 26.0688C128.184 25.4644 127.829 26.5785 127.841 26.8866C127.841 27.7399 127.189 29.3755 126.039 28.9488C124.89 28.5221 124.356 27.7044 123.93 28.9488C123.752 29.4821 123.408 30.9873 122.152 30.7977C121.488 30.691 119.781 30.2051 119.485 29.6125C119.142 29.0717 118.951 28.4483 118.932 27.8079C118.913 27.1676 119.067 26.534 119.379 25.974C120.019 24.4926 118.573 24.7889 118.193 25.8792C117.257 28.854 118.502 28.6288 117.802 29.814C115.752 33.2747 114.899 28.8303 112.457 30.7265C109.53 32.9784 105.488 29.0318 107.859 24.3267C108.084 23.9 108.795 22.9874 109.506 22.8808C109.607 22.8654 109.7 22.817 109.771 22.7432C109.841 22.6694 109.885 22.5744 109.896 22.4728C109.907 22.3713 109.884 22.2691 109.83 22.1821C109.777 22.0951 109.696 22.0282 109.601 21.9919C108.653 21.5534 107.539 22.7504 107.148 23.4022C106.306 24.8955 106.496 25.18 105.962 25.2866C103.865 25.7726 102.407 23.1533 102.857 19.6215C103.248 16.9312 107.159 17.3934 108.025 17.346C108.89 17.2986 108.522 16.0779 108.274 15.829C107.598 15.1653 105.642 10.7447 108.771 8.71802C109.182 8.51903 109.616 8.37173 110.063 8.27951C110.411 8.09269 110.797 7.98808 111.191 7.9737C111.586 7.95931 111.978 8.03555 112.339 8.19655C112.967 8.5521 113.82 9.59504 114.235 8.64691C114.439 8.31151 114.747 8.05433 115.112 7.91211C117.281 8.04248 117.933 9.09728 118.667 10.6024C119.153 11.6098 118.667 12.2024 118.383 13.9565C118.134 15.272 116.759 14.6794 116.641 15.4853C116.439 16.8483 118.822 16.1964 119.307 14.8335C120.113 12.6054 122.863 11.278 124.167 11.6691C124.356 11.7283 125.897 12.9609 125.162 13.6602C122.792 16.0305 124.866 19.9297 125.47 18.1401C125.523 17.8601 125.463 17.5707 125.304 17.3342C125.167 17.001 125.108 16.641 125.131 16.2815C125.154 15.922 125.258 15.5725 125.437 15.2594C125.615 14.9464 125.862 14.678 126.159 14.4749C126.457 14.2717 126.797 14.139 127.153 14.0868C127.591 14.0642 128.029 14.1404 128.433 14.3096C128.838 14.4789 129.199 14.7369 129.49 15.0647C129.781 15.3924 129.995 15.7814 130.116 16.203C130.237 16.6246 130.261 17.0679 130.187 17.5001C130.057 18.5075 130.092 18.2112 133.055 18.8867C140.877 20.6882 136.232 19.3964 143.959 22.5134C144.943 22.8373 145.871 23.3132 146.708 23.9237C149.422 26.3888 150.134 26.0807 151.971 27.6688C159.342 33.9976 160.113 39.8286 161.772 40.8953Z" fill="#966A11"/>
  <path d="M161.712 60.6631C161.819 60.8646 162.056 61.1016 162.009 61.2557C161.44 63.0927 154.898 69.4096 147.218 69.8718C146.625 69.8718 146.945 69.6704 145.215 66.4112C144.634 65.3327 147.585 60.995 148.107 58.5417C148.192 58.2347 148.167 57.9075 148.036 57.6172C147.87 57.4158 147.561 57.7476 147.324 58.032C147.087 58.3165 146.388 59.3594 143.935 62.1801C141.482 65.0008 136.682 67.2645 133.399 66.9208C129.108 66.4704 125.92 60.995 123.846 57.238C123.349 56.3373 123.183 56.3965 123.621 56.2187C126.548 55.0336 125.79 53.2321 125.114 53.9551C123.929 55.2825 121.879 56.1713 120.528 54.6543C120.137 54.2158 120.682 53.8129 121.583 52.4855C122.179 51.6663 122.52 50.689 122.563 49.6766C122.604 48.6644 122.346 47.6624 121.82 46.7967C121.725 46.4885 121.82 46.3582 122.021 46.2989C122.471 46.1922 122.697 46.5833 122.946 46.8559C123.383 47.5276 123.968 48.0904 124.656 48.5013C125.344 48.9121 126.117 49.1601 126.916 49.2263C128.081 49.3284 129.245 49.0242 130.21 48.3652C131.176 47.7063 131.884 46.7332 132.214 45.6115C132.329 45.0176 132.392 44.4149 132.403 43.8101C132.664 41.2738 132.617 41.6175 139.36 39.3657C140.545 38.9509 140.83 38.7612 140.865 39.1998C141.007 41.4634 143.544 40.3849 143.627 41.2382C143.691 41.5798 143.833 41.902 144.041 42.1802C144.249 42.4583 144.519 42.6851 144.828 42.8429C145.138 43.0007 145.479 43.0855 145.827 43.0906C146.174 43.0958 146.518 43.0212 146.833 42.8726C147.252 42.6735 147.602 42.3511 147.834 41.9493C148.557 40.7642 148.438 38.0027 149.244 36.1183C149.536 35.5361 149.974 35.0398 150.516 34.6782C151.057 34.3166 151.683 34.1022 152.333 34.0561C152.983 34.0105 153.633 34.1352 154.22 34.4178C154.807 34.7005 155.31 35.1314 155.68 35.668C156.343 36.8915 156.662 38.2716 156.604 39.662C156.498 43.6678 154.921 44.6515 154.305 45.1256C153.829 45.4299 153.271 45.5796 152.706 45.5541C152.142 45.5287 151.599 45.3293 151.153 44.9834C150.358 44.4619 150.489 46.1685 151.33 46.4174C152.172 46.6663 152.456 46.5004 152.278 47.1167C151.971 48.3156 151.851 49.555 151.923 50.7907C151.958 51.2046 152.132 51.5945 152.417 51.8972C152.701 52.1998 153.08 52.3975 153.491 52.4582C153.901 52.5201 154.321 52.4419 154.681 52.2361C155.042 52.0303 155.323 51.709 155.478 51.324C155.964 49.6055 154.293 47.6026 153.997 46.773C153.89 46.5122 154.222 46.5359 154.471 46.3937C154.72 46.2515 155.052 47.4959 161.712 60.6631ZM154.352 36.6161C154.684 36.3672 154.352 35.1702 152.942 35.3243C150.75 35.1702 150.086 37.7539 150.264 39.8398C150.43 41.6175 152.112 40.6338 152.954 41.736C153.203 42.0442 153.096 42.2812 152.302 42.7908C152.204 42.848 152.122 42.9285 152.063 43.0252C152.004 43.1219 151.97 43.2317 151.963 43.3449C151.957 43.458 151.979 43.571 152.027 43.6737C152.075 43.7764 152.147 43.8656 152.238 43.9333C152.347 44.015 152.477 44.0627 152.613 44.0703C152.749 44.0779 152.884 44.0451 153.001 43.976C155.514 42.4708 154.021 40.0649 152.148 40.1123C150.963 40.1123 151.33 38.1687 151.757 37.3153C152.527 35.6443 153.547 37.2087 154.352 36.6161ZM137.002 53.9551C137.156 53.0069 135.437 52.4262 134.631 52.4262C134.11 52.4262 134.134 53.0899 134.56 53.3032C134.987 53.5166 134.904 53.4929 134.359 54.1803C132.854 55.9481 130.738 57.0826 128.433 57.3565C127.722 57.5343 128.338 57.878 128.16 58.1269C129.345 58.3757 129.701 57.5935 131.348 61.0661C131.538 61.469 130.483 61.4098 130.993 62.0972C131.502 62.7846 134.228 62.429 135.473 60.7579C136.717 59.0868 136.373 57.5224 136.267 54.6306C136.196 53.8129 136.907 54.6069 137.002 53.9551Z" fill="#F1C469"/>
  <path d="M159.58 76.3796C160.066 78.1337 160.256 77.8018 159.58 78.1692C156.671 79.6882 153.471 80.5691 150.194 80.7529C148.167 80.7529 150.668 80.1248 147.563 73.0967C147.314 72.5279 146.377 72.8478 146.828 73.9856C147.621 75.9813 148.07 78.0973 148.155 80.2433C148.155 80.5159 148.226 80.8122 147.8 80.824C146.898 80.7868 146.024 80.4995 145.275 79.9944C144.932 79.7741 144.645 79.4756 144.439 79.1234C144.233 78.7712 144.114 78.3751 144.09 77.9678C143.995 76.4745 144.683 76.0004 144.635 74.8271C144.635 73.9619 144.102 72.9901 142.526 71.7931C140.653 70.3827 144.043 66.8509 144.374 67.6094C145.216 69.5294 145.003 68.7946 144.766 69.5412C144.693 69.6828 144.654 69.8396 144.653 69.9988C144.653 70.1581 144.69 70.3152 144.761 70.4574C144.833 70.5996 144.937 70.7228 145.066 70.817C145.194 70.9111 145.343 70.9735 145.5 70.999C151.426 72.7767 149.66 67.0405 152.754 75.9767C153.299 77.553 153.263 78.347 153.939 78.2759C155.669 77.9678 151.497 70.4894 152.031 70.3946C155.871 69.6716 154.816 68.0242 156.665 70.7975C157.959 72.4711 158.946 74.3611 159.58 76.3796Z" fill="#00703F"/>
  <path d="M145.488 37.4223C147.859 36.6638 147.764 36.6875 147.681 36.972C147.362 38.2414 147.171 39.5398 147.112 40.8474C147.084 41.1614 146.934 41.4516 146.693 41.6547C146.452 41.8579 146.14 41.9575 145.826 41.9319C145.671 41.9189 145.519 41.8753 145.38 41.8036C145.241 41.7319 145.118 41.6335 145.017 41.514C144.916 41.3946 144.84 41.2564 144.793 41.1074C144.746 40.9585 144.728 40.8017 144.742 40.646C144.742 39.0104 142.514 40.1956 142.016 39.2356C141.518 38.2756 142.348 38.4179 145.488 37.4223Z" fill="#966A11"/>
  <path d="M138.116 37.1737C138.863 37.8611 139.574 37.707 140.095 37.8848C139.479 38.3233 132.676 40.6225 132.321 40.7647C131.515 41.1203 131.55 41.0847 131.42 40.8951C130.758 39.9441 129.796 39.2436 128.688 38.9066C127.579 38.5696 126.39 38.6156 125.311 39.0373C124.232 39.4591 123.326 40.2319 122.74 41.2311C122.154 42.2304 121.922 43.3979 122.081 44.5454C122.211 45.7306 122.223 44.7824 121.026 45.5765C120.876 45.4636 120.733 45.3408 120.599 45.2091C118.916 43.4551 117.506 44.1662 117.257 43.4314C117.067 42.913 116.928 42.3771 116.842 41.8314C116.842 41.5232 116.724 41.2269 116.914 41.2981C117.34 41.464 117.257 42.0329 117.66 41.9973C118.063 41.9617 118.039 41.4521 117.968 41.2625C117.376 39.864 116.653 40.6225 116.641 39.9351C116.392 32.3263 117.625 32.1367 118.525 30.9041C118.928 30.3353 118.952 31.4493 122.081 32.0893C122.656 32.1337 123.229 31.979 123.704 31.651C124.179 31.323 124.526 30.8417 124.688 30.2879C124.89 29.7308 124.83 30.0627 126.383 30.2879C127.699 30.513 128.173 29.3042 128.824 27.9175C129.097 27.3487 131.313 29.8019 133.387 26.8035C133.66 26.4124 134.572 27.5264 135.971 27.0998C136.267 27.005 135.888 27.1946 136.623 29.1382C137.251 30.7738 138.401 30.6434 137.808 31.0345C135.651 32.4212 136.22 35.4552 138.116 37.1737ZM128.22 35.6448C128.73 35.6448 128.564 35.0167 128.161 34.9456C127.041 34.6926 125.896 34.5694 124.747 34.5782C124.086 34.5467 123.427 34.6758 122.826 34.9544C122.226 35.2331 121.702 35.6529 121.299 36.1781C120.943 36.6166 120.516 36.9248 120.505 37.2329C120.511 37.443 120.591 37.6443 120.73 37.8018C121.05 38.2048 121.548 38.3588 122.152 37.3989C123.716 34.9219 126.561 35.7989 128.22 35.6448Z" fill="#F1C469"/>
  <path d="M136.647 151.956C136.872 155.511 136.86 154.895 136.848 155.002C136.848 155.5 136.754 155.002 131.752 155.286C128.102 155.511 128.481 154.895 125.933 155.571C124.421 156.155 122.814 156.456 121.192 156.46C119.21 156.474 117.23 156.343 115.266 156.068C114.002 156.06 112.739 155.969 111.486 155.796C110.153 155.289 108.75 154.989 107.326 154.907C105.844 154.777 100.855 157.502 99.1245 157.028C97.8564 156.673 100.44 156.187 104.92 153.591C105.927 153.023 105.856 153.378 109.791 153.354C110.668 153.354 112.387 152.88 111.604 152.454C111.32 152.311 111.782 152.537 108.44 152.157C107.201 151.868 105.905 151.942 104.707 152.371C94.6801 157.846 94.0401 155.345 95.569 154.741C105.69 150.889 101.625 150.972 107.421 150.474C109.104 150.332 110.206 149.289 108.807 149.372C103.166 149.526 104.173 149.467 99.9423 151.671C99.8677 151.683 99.7917 151.683 99.7171 151.671C99.9186 150.024 101.447 150.226 103.841 148.021C105.169 146.836 107.255 146.943 109.009 146.149C109.578 145.888 109.163 145.532 108.819 145.556C106.259 145.805 104.244 145.983 102.396 147.654C101.519 148.448 100.76 148.424 99.243 149.834C95.3557 153.39 93.4357 152.205 94.3483 151.636C95.705 150.836 96.9553 149.869 98.0697 148.756C99.1859 147.867 100.375 147.074 101.625 146.386C103.13 145.355 104.564 143.518 110.988 143.838C115.634 144.063 118.336 146.753 123.503 147.014C125.566 147.109 124.143 147.595 128.137 147.5C129.963 147.56 131.79 147.474 133.601 147.239C135.841 146.729 135.971 146.86 135.971 147.239C136.505 148.751 136.735 150.354 136.647 151.956Z" fill="#F1C469"/>
  <path d="M125.198 174.582C125.21 174.657 125.21 174.733 125.198 174.807C124.013 177.841 127.059 176.822 69.0923 176.573C48.66 176.478 50.7104 176.869 50.817 175.909C50.9 175.127 47.1904 175.222 96.4933 175.4C131.562 175.495 121.275 175.269 125.198 174.582Z" fill="#8A8C93"/>
  <path d="M108.807 70.7012C108.878 70.9383 108.902 71.1042 108.38 71.199C106.982 71.4479 102.455 72.3842 88.2325 74.7545C88.0547 74.7545 87.8533 74.8138 87.7703 74.5767C87.6872 74.2822 87.6872 73.9705 87.7703 73.676C87.9599 73.1308 88.7658 72.9886 89.3584 72.8464C91.3495 72.3723 106.283 69.9664 107.456 69.7887C108.12 69.5753 108.582 70.0138 108.807 70.7012Z" fill="#1B1B1D"/>
  <path d="M105.11 107.527C107.717 110.584 106.959 108.901 103.925 111.473C103.332 111.971 100.547 113.844 100.049 113.227C94.2774 106.496 96.5648 106.531 91.5515 104.267C90.3663 103.722 87.8419 103.082 87.202 100.451C87.08 100.017 87.0772 99.5576 87.194 99.1217C87.3108 98.6858 87.5428 98.2895 87.8656 97.9742C89.0428 97.3042 90.1786 96.5641 91.2671 95.758C93.1278 94.4187 93.5307 93.9328 94.2063 94.4187C95.9366 95.6039 96.3988 95.7698 96.4937 96.5046C96.7544 98.3772 97.1099 98.875 96.6833 99.2305C96.5506 99.2999 96.4043 99.3396 96.2548 99.3468C96.1052 99.354 95.9558 99.3285 95.8171 99.2721C95.6783 99.2157 95.5536 99.1297 95.4514 99.0202C95.3492 98.9107 95.2722 98.7803 95.2255 98.6379C94.7278 97.0498 95.2255 97.6543 95.0596 96.872C95.0448 96.762 94.9936 96.6601 94.9141 96.5825C94.8347 96.5049 94.7316 96.4561 94.6213 96.4438C94.5109 96.4316 94.3996 96.4565 94.3051 96.5148C94.2106 96.5731 94.1382 96.6613 94.0996 96.7654C93.8152 97.832 92.9145 97.9505 92.7841 98.1757C91.8834 99.1831 89.8093 99.5268 90.1649 100.451C90.3071 100.83 90.6863 100.7 91.35 100.582C91.35 100.582 91.2434 101.482 91.4804 101.589C92.6656 102.146 92.5589 98.3179 94.1115 99.6572C94.5535 100.099 95.0371 100.496 95.5574 100.842C97.821 102.028 97.2996 104.102 98.3781 103.71C99.1129 103.438 98.0462 101.34 97.1929 100.57C96.6714 100.131 98.2121 100.333 97.987 98.8039C97.7783 98.0314 97.6786 97.2336 97.6907 96.4335C97.9771 95.2376 97.9771 93.991 97.6907 92.7951C97.0744 92.1669 97.6907 89.7373 96.15 88.3033C95.83 88.007 95.83 87.9714 96.15 87.7818C96.7307 87.4381 96.6833 86.8455 96.8018 86.3122C96.9203 85.7789 96.3396 85.4944 97.3114 85.293C97.5247 85.293 97.6907 85.293 97.7025 85.4589C97.9988 90.9818 100.464 90.8277 99.7766 98.4128C99.4566 101.838 101.803 103.651 105.11 107.527Z" fill="#F1C469"/>
  <path d="M96.8017 94.643C96.8017 95.2712 95.2729 93.0075 93.424 93.3749C91.1959 93.8016 90.7692 95.5912 88.1619 96.563C86.1352 97.2978 86.7634 98.3052 86.2538 97.9733C85.9708 97.7538 85.7491 97.4652 85.61 97.1351C85.4709 96.8051 85.4192 96.4448 85.4597 96.0889C85.4597 95.2949 85.8864 95.3304 89.4774 92.8297C92.6181 90.6372 92.1085 88.7528 96.304 92.8297C96.5062 93.082 96.6548 93.3731 96.7404 93.6849C96.826 93.9968 96.8469 94.3228 96.8017 94.643Z" fill="#F1C469"/>
  <path d="M96.1732 90.7797C96.1732 90.8746 96.1732 91.0523 96.0073 90.9457C94.7391 89.962 93.9332 89.0613 92.0251 89.4524C91.3851 89.5946 90.3896 90.7442 89.9866 91.0523C89.5837 91.3605 84.606 94.9041 84.5586 94.9041C83.7408 93.719 83.9423 93.9915 83.7764 93.399C85.0919 90.4123 85.6608 91.5738 87.5926 89.5709C88.7778 88.3857 89.0148 88.5279 89.9629 87.5205C90.9111 86.5131 92.1318 87.1057 93.3288 87.9709C94.8221 89.0731 95.3436 88.3027 96.1732 90.7797Z" fill="#F1C469"/>
  <path d="M94.5971 153.331C95.6282 153.129 95.9363 152.964 95.9245 153.331C95.8984 153.408 95.8536 153.477 95.7941 153.532C93.9334 154.528 93.9215 154.564 93.8978 154.279C93.8267 153.26 93.6371 153.521 94.5971 153.331Z" fill="#B5B6BA"/>
  <path d="M94.632 85.2307C95.6039 85.7996 95.9831 85.8826 95.8172 86.2737C95.8172 87.127 94.9639 87.1507 94.0869 87.044C93.3551 86.6166 92.5805 86.267 91.7758 86.0011C90.9225 85.8589 90.3062 86.2737 89.5477 85.5507C88.5877 84.6381 88.2559 84.3656 88.0662 84.4485C87.4381 84.8159 89.2514 86.2855 88.5521 86.4633C87.8529 86.6411 86.2648 86.7359 86.9166 87.1388C87.8173 87.684 89.441 87.0559 84.0841 90.8603C83.9774 90.1373 86.0396 83.9981 86.0396 83.9626C86.3357 83.3795 86.8192 82.9129 87.4125 82.6378C88.0058 82.3627 88.6743 82.295 89.3107 82.4456C90.2943 82.7182 90.4247 82.7774 94.632 85.2307Z" fill="#F1C469"/>
  <path d="M56.897 137.344C57.1459 137.782 57.1459 137.593 54.4437 140.141C52.7963 141.705 53.5193 141.848 51.1726 138.624C45.5549 130.897 45.8868 131.762 46.349 131.418C51.8956 127.199 51.3978 127.4 51.6467 127.863C52.6778 129.806 55.0837 134.227 56.897 137.344Z" fill="#62636A"/>
  <path d="M47.8182 135.862C53.0804 143.222 52.713 141.788 51.1485 143.198C50.7337 143.589 49.4893 144.774 49.1575 145.035C48.4345 144.194 42.0465 135.554 41.7265 135.222C41.4065 134.89 41.4894 135.056 45.0449 132.354C45.4123 132.129 45.0449 132.046 47.8182 135.862Z" fill="#62636A"/>
  <path d="M49.9168 175.718C49.9168 176.903 48.2931 176.725 48.2812 175.718C48.3218 175.512 48.4258 175.323 48.5788 175.178C48.7318 175.034 48.9261 174.941 49.1346 174.912C49.3378 174.936 49.5266 175.029 49.6691 175.176C49.8116 175.323 49.8991 175.514 49.9168 175.718Z" fill="#8A8C93"/>
  <path d="M9.07603 108.167C9.36047 111.248 49.5731 173.671 48.7909 173.967C46.4206 174.904 51.6235 181.351 24.8387 137.63C8.41234 110.822 6.95458 109.838 8.96936 108.096C9.00999 108.111 9.04652 108.135 9.07603 108.167Z" fill="#8A8C93"/>
  <path d="M47.558 119.578C48.2928 119.175 48.1387 119.578 48.7432 120.277C47.558 120.716 41.9403 125.871 41.6322 125.243C41.0633 123.857 41.3003 124.177 41.9759 123.643C45.4365 121.048 46.8824 119.957 47.558 119.578Z" fill="#FFD200"/>
  <path d="M46.338 143.068C48.7083 146.232 48.7083 145.533 47.3098 146.836C43.6476 150.392 43.8965 150.273 43.6239 149.93C34.7945 139.002 34.913 140.045 35.6715 139.477C41.7158 134.902 39.9736 136.194 40.5781 135.743C40.9692 135.447 40.5544 135.198 46.338 143.068Z" fill="#62636A"/>
  <path d="M46.8699 118.039C47.1034 118.249 47.2657 118.526 47.3321 118.833C46.4551 119.532 43.6462 121.654 41.0981 123.479C40.8374 123.076 40.6241 122.389 40.9915 122.128C43.7766 120.113 46.064 118.489 46.8699 118.039Z" fill="#FFD200"/>
  <path d="M36.5831 128.241C36.9387 129.616 37.626 128.715 31.9847 133.124C30.2188 134.511 29.9343 134.89 29.9225 134.404C29.8158 131.749 29.9225 132.768 35.0187 128.917C36.5238 127.779 36.4646 127.814 36.5831 128.241Z" fill="#FFD200"/>
  <path d="M36.1802 126.547C36.358 127.4 36.9032 126.464 30.6336 131.288C30.3018 131.537 30.124 131.489 30.124 131.098C30.124 130.055 30.124 129.842 30.4203 129.593C32.0911 128.26 33.8404 127.03 35.6588 125.907C36.1091 125.623 36.0736 126.073 36.1802 126.547Z" fill="#FFD200"/>
  <path d="M218.447 110.56C225.285 121.925 225.913 133.469 224.693 153.463C224.136 162.588 222.085 170.73 219.881 179.536C219.442 181.338 221.137 183.009 221.196 191.779C221.327 195.202 221.144 198.629 220.651 202.019C220.497 202.754 219.549 202.931 219.324 202.315C218.862 201.13 222.725 189.776 215.851 174.322C213.232 168.396 203.372 156.769 202.542 157.243C199.982 158.677 199.295 159.021 193.167 160.36C177.168 163.857 170.282 159.175 160.8 159.969C153.903 160.526 150.039 157.599 147.633 156.9C147.262 156.823 146.879 156.823 146.507 156.9C145.452 157.077 145.322 157.148 144.812 158.085C141.376 163.916 141.435 161.095 150.644 175.483C155.123 182.499 154.59 181.48 154.531 182.369C154.531 181.93 154.626 181.658 154.377 207.577C154.377 208.17 153.452 208.217 153.275 207.767C152.943 206.866 153.843 188.662 153.049 188.674C140.38 188.923 141.956 187.489 142.62 191.115C145.844 208.715 145.595 207.388 145.583 207.625C145.586 207.704 145.574 207.783 145.546 207.858C145.519 207.933 145.477 208.001 145.423 208.059C145.369 208.118 145.304 208.165 145.232 208.198C145.16 208.231 145.082 208.25 145.002 208.253C144.85 208.264 144.7 208.215 144.583 208.118C144.466 208.021 144.391 207.882 144.374 207.731C144.113 206.546 142.466 196.982 142.454 196.934C142.335 196.212 120.552 196.934 12.8324 196.674C11.8725 196.674 12.2162 196.081 11.4102 202.208C10.7347 207.293 10.8651 207.482 10.0591 207.482C9.25324 207.482 9.34805 207.482 11.6947 190.333C12.0147 187.963 13.3658 188.686 3.83703 188.579C1.53781 188.579 1.4667 188.449 1.4667 188.887C1.68003 195.998 1.60892 194.268 1.73929 205.693C1.73929 207.281 2.02373 207.874 1.25337 208.063C0.483012 208.253 0.423753 208.49 0.40005 188.626C0.40005 187.821 0.151166 188.425 0.115611 187.145C-0.168829 178.161 -0.951039 185.96 12.5954 151.27C13.2235 149.682 13.9702 150.085 20.2516 150.085C20.2516 150.168 29.0337 150.002 29.0574 150.002C30.6218 150.002 31.1314 150.322 30.7521 149.694C7.39253 110.773 5.46071 111.057 8.30511 106.921C10.0354 104.397 11.6354 103.958 31.1551 93.7658C39.6172 89.357 37.3654 88.2311 49.6674 110.82C62.5383 134.464 67.3264 143.104 67.3738 143.318C67.516 144.135 67.0893 143.839 79.0239 143.792C81.1335 143.792 103.391 143.792 104.671 143.306C105.299 143.069 107.871 143.009 109.672 142.784C113.714 142.298 118.099 144.989 119.154 144.965C115.254 139.857 118.668 144.965 114.14 137.949C108.641 129.404 106.591 129.937 98.6503 117.528C97.0385 115.004 96.837 114.435 97.3822 113.428C97.6903 112.835 97.9984 112.646 97.3822 111.851C96.517 110.737 95.9362 109.683 95.5096 109.066C94.0518 106.98 94.1229 106.897 92.9141 106.222C92.0845 105.755 91.2157 105.358 90.3186 105.037C89.1075 104.661 88.0488 103.907 87.2979 102.885C86.5471 101.863 86.1436 100.628 86.1468 99.3598C86.1468 98.4709 84.7838 98.9805 84.5113 96.551C84.4046 95.6384 83.492 95.6621 82.935 94.1806C82.4491 92.9007 83.3972 92.4858 83.1602 91.5851C82.6506 89.6888 83.575 88.9422 84.9379 84.0119C85.3163 82.9222 86.0789 82.0078 87.0831 81.4401C88.043 80.7408 88.7186 81.5112 88.529 80.8238C87.6993 77.695 87.1423 75.7987 86.8934 74.5306C86.7899 74.1158 86.8296 73.6782 87.006 73.2889C87.1824 72.8995 87.4852 72.5811 87.8653 72.3854C89.2282 71.5914 104.078 69.4462 106.555 68.8299C110.194 68.0003 109.352 69.7425 111.675 77.8016C113.56 84.3319 111.249 82.9571 99.1125 84.9126C98.6266 84.9956 98.6029 85.7896 98.7332 86.643C99.5273 91.6207 100.973 91.9051 100.712 96.8235C100.452 101.742 100.784 100.735 105.323 105.961C106.306 107.146 106.295 107.419 106.828 107.466C109.127 107.656 108.191 108.829 114.152 113.238C116.392 114.885 118.182 118.559 122.733 121.167C124.238 113.238 122.946 114.957 123.622 111.389C124.345 107.561 124.522 111.52 125.767 100.995C125.98 99.1702 126.241 89.4044 129.796 85.3274C133.648 80.9305 133.044 82.8741 141.423 76.7113C143.295 75.3365 143.722 74.8269 142.964 73.8906C142.039 72.7054 140.913 72.5751 140.818 71.2003C140.805 70.2679 141.024 69.3467 141.454 68.5194C141.884 67.6921 142.513 66.9844 143.284 66.4596C143.698 66.2226 143.829 66.3292 142.975 65.0611C142.786 64.7885 142.549 64.9663 142.288 65.1796C140.38 66.7203 135.77 68.8418 132.345 68.0122C127.817 66.91 124.463 60.9841 122.425 56.8242C122.117 56.2079 121.536 56.9546 120.149 55.8287C118.763 54.7028 119.948 53.8494 119.201 53.7072C113.892 52.7591 112.6 45.8496 116.025 44.0244C116.179 43.9415 116.274 43.8822 116.262 43.7518L115.906 42.4363C115.847 42.2467 115.776 41.6778 115.681 41.7963C115.586 41.9148 115.598 42.7444 115.681 43.0526C115.764 43.3607 115.681 43.5741 115.598 43.6215C115.541 43.6547 115.477 43.6743 115.412 43.6788C115.346 43.6832 115.28 43.6724 115.219 43.6472C115.158 43.6219 115.104 43.5829 115.061 43.5332C115.018 43.4835 114.987 43.4245 114.97 43.3607C114.774 42.8452 114.732 42.2837 114.85 41.7448C114.968 41.206 115.24 40.7132 115.634 40.3267C115.742 39.3193 115.742 38.3001 115.634 37.2927C115.634 33.0853 116.748 32.3387 116.096 32.3624C115.409 32.2691 114.768 31.9671 114.259 31.4972C113.5 31.0706 113.382 31.7935 112.28 32.2202C111.652 32.4422 110.985 32.5294 110.321 32.4764C109.657 32.4233 109.012 32.231 108.428 31.912C107.888 31.5546 107.424 31.0943 107.062 30.5574C106.7 30.0206 106.447 29.4177 106.318 28.7832C105.678 26.9343 106.318 26.2588 105.785 26.3417C101.601 26.8988 101.044 19.8233 102.384 17.9271C103.569 16.3034 104.872 16.3034 107.124 16.019C107.669 15.936 106.401 14.9997 106.223 11.9775C105.998 8.32723 109.886 6.28874 112.683 6.91688C113.204 7.0354 113.583 7.72279 113.939 7.33169C114.887 6.28874 117.992 6.57318 119.296 8.93166C119.913 9.77313 120.243 10.7924 120.232 11.8353C121.358 11.1479 122.282 10.1168 124.131 10.425C124.56 10.4368 124.974 10.5814 125.317 10.8398C125.411 10.9346 125.577 10.9227 125.672 10.7331C126.573 8.86055 127.284 9.70202 127.805 8.64722C129.595 5.09172 133.992 2.72139 136.03 2.22362C153.891 -2.22075 156.451 2.034 162.246 4.36877C171.194 7.92427 170.981 6.83392 174.904 12.2975C175.733 13.4827 175.425 14.5849 175.947 16.6826C176.93 20.7004 179.407 20.89 178.933 27.9299C178.732 30.8928 177.203 31.6868 175.828 32.6705C174.252 33.749 171.799 35.0409 169.819 34.6261C169.12 34.4957 169.819 36.0838 167.817 39.4497C167.236 40.4334 167.817 41.6541 166.904 42.8985C164.344 46.454 163.811 44.7 163.846 45.9444C163.965 49.4999 162.863 49.6184 160.954 50.6021C160.016 50.9396 158.989 50.9396 158.051 50.6021C158.477 51.8287 159.005 53.0175 159.627 54.1576C160.528 55.8287 160.469 55.4494 161.097 54.9161C161.554 54.4926 162.122 54.2086 162.735 54.0973C163.348 53.986 163.981 54.0522 164.557 54.2879C167.224 55.1057 166.288 58.7323 168.931 61.2567C170.589 62.6113 171.911 64.3312 172.794 66.2818C173.091 67.0166 183.639 71.1292 184.018 71.2714C195.182 75.7513 188.332 72.9899 193.807 75.8698C195.348 76.6876 198.074 77.2446 200.148 80.6105C203.786 86.4059 203.597 94.5717 200.658 100.924C200.053 102.086 211.585 99.1583 218.447 110.56ZM220.734 169.652C223.875 154.671 225.973 130.944 220.153 116.853C217.973 111.555 213.825 104.823 208.302 103.686C207.626 103.543 209.321 104.302 211.217 106.34C216.432 111.934 217.487 118.761 218.601 125.919C220.331 136.989 218.743 154.707 216.373 166.713C215.188 172.733 215.318 168.585 217.226 173.48C219.395 179.181 218.459 180.461 220.734 169.652ZM214.441 168.467C215.709 165.136 220.971 134.618 215.33 116.592C213.979 112.266 211.869 108.071 209.084 105.819C207.742 104.876 206.322 104.047 204.841 103.342C198.086 101.683 200.646 102.477 197.422 108.782C194.826 113.854 195.431 114.388 194.246 116.948C193.807 117.884 197.114 122.222 198.986 137.238C199.306 139.75 200.172 140.604 201.191 142.417C203.052 145.759 202.186 147.418 202.72 147.442C205.552 147.596 207.046 152.894 203.905 155.892C203.668 156.129 203.644 156.165 205.232 157.777C208.502 161.175 211.576 164.756 214.441 168.502V168.467ZM202.862 155.134C203.31 154.761 203.677 154.301 203.94 153.781C204.203 153.261 204.356 152.693 204.391 152.112C204.142 147.987 201.452 149.267 201.226 147.762C201.165 146.872 201.034 145.988 200.835 145.119C200.124 143.223 199.129 142.109 198.382 140.378C197.351 138.008 196.213 124.45 193.404 119.045C192.101 120.574 189.304 129.143 189.185 129.451C188.273 131.976 187.301 133.635 186.661 135.815C185.476 139.655 181.837 148.852 178.068 150.535C172.142 153.214 152.089 155.857 150.205 156.461C151.614 157.283 153.153 157.856 154.756 158.156C158.797 158.962 160.362 158.5 165.743 158.713C172.747 158.974 172.451 161.083 187.621 160.04C190.927 159.815 198.287 158.405 201.452 156.39C201.946 156.012 202.417 155.604 202.862 155.169V155.134ZM196.261 107.94C197.552 105.38 202.032 94.4414 201.511 89.9733C200.112 78.1216 196.035 78.9631 192.563 76.7231C191.087 75.6285 189.441 74.7837 187.692 74.2224C166.537 65.7367 176.065 67.1114 171.171 71.9351C163.823 79.2238 149.245 84.9719 144.421 80.7409C144.013 80.385 143.687 79.9436 143.468 79.448C143.249 78.9523 143.141 78.4146 143.153 77.8727C143.153 76.7705 142.893 77.2091 142.193 77.695C141.494 78.1809 140.712 78.8801 139.005 79.8757C130.353 85.1615 128.54 85.5645 127.272 99.8813C126.288 111.046 124.321 109.849 124.759 114.411C125.044 117.291 124.558 118.311 123.989 121.048C123.823 121.831 124.309 121.131 125.708 121.428C128.078 121.913 128.351 122.222 131.385 124.39C131.598 124.533 131.953 124.948 131.633 125.268C130.59 126.31 128.528 122.435 124.617 122.743C124.89 123.229 130.377 128.93 131.657 130.21C131.906 130.459 132.321 130.624 132.285 131.229C132.199 131.312 132.085 131.358 131.965 131.358C131.846 131.358 131.731 131.312 131.645 131.229C124.724 125.623 127.604 127.282 124.748 124.592C121.891 121.902 119.568 120.586 117.34 118.002C115.574 115.952 115.041 115.632 110.739 111.78C106.437 107.929 109.186 108.841 106.958 110.595C106.235 111.164 104.73 112.017 104.588 112.112C99.6695 115.893 97.9629 114.269 98.911 115.751C107.503 129.143 112.019 131.916 114.164 135.638C120.931 147.359 123.645 146.399 132.546 146.15C133.873 146.15 134.395 144.1 134.774 142.808C139.515 126.844 140.261 131.608 137.05 125.86C132.309 117.386 133.494 112.764 134.3 104.077C134.608 100.415 134.928 95.1169 135.485 92.6044C135.568 92.1777 136.398 92.2844 136.35 92.7347C136.337 94.2794 136.242 95.8223 136.066 97.3569C134.881 113.013 133.032 116.45 139.55 127.27C141.364 130.269 141.162 132.248 142.347 134.536C143.533 136.823 142.703 136.491 143.852 138.802C145.168 141.445 142.928 140.829 151.852 138.304C151.852 138.304 161.713 135.377 161.464 134.998C160.279 133.09 161.322 129.913 165.138 130.257C165.944 130.257 169.76 121.736 172.059 118.239C172.059 115.154 172.956 112.136 174.643 109.552C179.005 102.311 174.762 108.675 179.716 95.6384C180.421 93.7742 181.22 91.9468 182.11 90.1629C182.394 89.6651 183.295 89.7481 183.093 90.554C183.093 90.554 178.258 101.292 178.092 104.61C178.187 104.539 184.551 98.1983 185.073 97.7835C185.807 97.2028 186.139 98.4354 185.511 98.8146C185.381 98.8857 178.507 105.452 175.781 109.955C174.538 111.991 173.73 114.263 173.411 116.628C174.098 116.165 175.271 114.257 177.144 112.883C177.725 112.468 183.484 107.94 183.982 108.142C185.404 108.853 183.354 109.73 181.221 111.318C170.945 118.986 172.545 120.977 166.904 130.067C166.335 130.98 170.839 129.499 170.744 131.016C170.625 132.876 161.346 130.091 162.282 133.682C162.673 135.176 162.756 134.867 165.091 134.867C165.897 134.773 169.144 134.867 169.737 135.413C170.057 135.709 169.737 136.42 168.931 136.361C162.436 135.958 163.716 136.135 157.269 138.186C153.571 139.371 153.512 139.205 152.67 139.703C152.492 139.798 151.129 140.047 150.075 140.378C140.593 143.377 144.433 142.938 137.038 144.799C136.362 144.977 137.37 146.186 137.832 148.698C138.259 151.009 137.974 151.661 138.259 155.122C138.413 157.077 137.986 157.184 138.626 157.077C153.523 154.778 173.434 150.808 173.458 150.796C180.415 149.03 180.735 147.715 187.099 131.253C189.932 123.94 188.735 125.836 191.84 118.939C195.704 110.311 193.298 113.866 196.261 107.94ZM175.781 30.9046C177.831 29.8617 177.523 27.0173 177.594 26.3299C177.203 20.1078 175.331 22.324 174.039 14.2056C173.944 13.5894 173.825 13.3523 172.462 11.4205C171.775 10.4487 171.763 10.9109 170.377 9.46499C168.99 8.01908 165.079 7.21317 161.606 5.69616C155.68 3.10065 156.676 2.14066 148.19 1.63104C147.124 1.57178 136.623 3.04139 134.442 4.40433C133.091 5.2458 129.559 6.70355 129.038 8.96722C129.939 9.03833 130.057 8.71833 131.408 8.77759C136.327 8.99092 144.445 9.79683 148.558 12.4516C157.399 18.2352 163.348 22.8929 166.169 34.5786C166.404 35.8231 166.72 37.0509 167.117 38.2527C167.789 36.8174 168.127 35.2488 168.107 33.6643C168.086 32.0799 167.707 30.5205 166.999 29.1032C165.991 26.9106 166.596 25.6544 165.944 23.7107C163.289 15.7582 158.94 14.6086 159.591 13.8501C160.243 13.0916 164.522 16.9671 166.003 20.3448C167.876 24.6233 167.129 23.6988 167.485 24.1255C167.894 23.1276 168.164 22.0787 168.291 21.0085C168.492 18.733 168.291 18.2115 168.836 18.176C169.95 18.093 169.428 23.3788 167.911 26.2706C167.497 27.041 167.911 27.5862 168.314 28.641C169.974 32.635 169.025 32.7535 169.701 33.0498C171.621 33.9624 175.413 31.1298 175.781 30.9046ZM170.839 69.7544C171.135 70.4181 171.941 68.8655 171.739 67.5618C171.242 64.3026 167.532 62.0034 166.62 60.2256C165.103 57.2864 165.588 55.485 163.562 55.3902C161.535 55.2953 160.919 56.6701 161.191 57.1916C162.163 58.839 161.962 59.2064 162.637 59.1827C163.716 59.1827 163.597 60.5456 163.42 61.0078C162.76 62.7954 161.625 64.3689 160.137 65.5589C153.583 71.7099 157.221 64.5396 161.002 77.0313C161.109 77.375 161.168 77.4224 161.677 77.1972C163.323 76.4548 164.881 75.5327 166.323 74.4476C166.975 73.9498 166.726 74.341 165.079 71.5677C163.597 69.0551 163.586 69.7781 161.452 67.384C161.239 67.147 161.002 66.4122 161.594 66.3529C162.46 66.27 162.566 67.2537 164.332 68.4151C165.316 69.067 167.39 73.6654 167.888 73.1558C168.694 72.3143 169.156 72.3854 169.974 71.5795C170.791 70.7736 169.76 70.9632 168.907 68.3914C168.126 66.6871 166.927 65.2074 165.423 64.0893C164.818 63.5441 165.138 62.193 167.07 63.9589C169.405 66.0448 169.618 67.0996 170.839 69.7662V69.7544ZM166.43 40.4689C165.79 36.8423 165.908 37.0438 165.245 37.7667C164.719 38.691 164.042 39.5203 163.242 40.22C163.088 40.3148 163.147 40.4452 163.242 40.5993C163.879 41.5782 164.205 42.7267 164.178 43.894C164.119 44.617 166.406 42.4363 166.43 40.4808V40.4689ZM165.387 35.9534C165.257 35.3964 165.185 34.9935 164.308 32.1135C164.119 31.4617 162.72 33.6305 162.436 34.0927C159.746 38.4423 159.935 34.1994 161.606 39.023C162.258 40.8956 164.818 36.8305 165.387 35.9653V35.9534ZM161.594 33.6898C163.337 30.8454 163.965 30.9994 163.609 30.1343C161.239 25.1803 162.827 25.8203 159.283 30.312C157.233 32.8957 156.795 30.478 159.698 35.1712C159.744 35.2494 159.8 35.3211 159.864 35.3846C160.561 34.962 161.153 34.3865 161.594 33.7016V33.6898ZM162.993 43.9415C163.05 43.3798 162.972 42.8126 162.766 42.2869C162.56 41.7613 162.231 41.2925 161.808 40.9193C160.149 39.8526 159.378 34.0216 152.078 27.6928C150.241 26.1047 149.529 26.4129 146.815 23.9477C145.978 23.3372 145.05 22.8614 144.066 22.5374C136.339 19.4204 140.984 20.7122 133.162 18.9108C130.199 18.2352 130.164 18.5315 130.294 17.5241C130.368 17.0919 130.344 16.6486 130.223 16.227C130.102 15.8055 129.888 15.4164 129.597 15.0887C129.306 14.7609 128.944 14.5029 128.54 14.3336C128.135 14.1644 127.698 14.0882 127.26 14.1108C126.904 14.1632 126.564 14.296 126.267 14.4993C125.969 14.7025 125.722 14.9708 125.544 15.2838C125.366 15.5968 125.261 15.9462 125.238 16.3057C125.215 16.6651 125.274 17.025 125.411 17.3582C125.57 17.5952 125.629 17.8844 125.577 18.1641C124.973 19.9537 122.84 16.019 125.269 13.6842C126.004 12.9849 124.463 11.7524 124.274 11.6931C122.934 11.2783 120.22 12.6294 119.414 14.8575C118.928 16.2204 116.546 16.8723 116.748 15.5093C116.866 14.7034 118.241 15.296 118.49 13.9805C118.798 12.2264 119.26 11.6101 118.774 10.6264C118.051 9.14499 117.4 8.06649 115.219 7.93612C114.854 8.07834 114.546 8.33552 114.342 8.67092C113.927 9.61906 113.074 8.57611 112.446 8.22056C112.085 8.05965 111.693 7.98346 111.298 7.99784C110.904 8.01222 110.518 8.11679 110.17 8.30352C109.723 8.39574 109.289 8.54304 108.878 8.74203C105.749 10.7687 107.693 15.1893 108.38 15.853C108.629 16.1019 109.08 17.3108 108.132 17.37C107.183 17.4293 103.391 16.9552 102.964 19.6456C102.455 23.2011 103.972 25.7966 106.069 25.3106C106.555 25.204 106.366 24.9195 107.255 23.4262C107.646 22.7744 108.76 21.5774 109.708 22.0159C109.803 22.0522 109.884 22.1191 109.937 22.2061C109.991 22.2931 110.014 22.3954 110.003 22.4969C109.992 22.5984 109.948 22.6934 109.877 22.7672C109.807 22.841 109.714 22.8894 109.613 22.9048C108.902 23.0114 108.191 23.924 107.966 24.3507C105.595 29.0913 109.601 33.0024 112.54 30.7032C114.982 28.8069 115.835 33.2513 117.886 29.7906C118.585 28.6054 117.34 28.8306 118.277 25.8558C118.62 24.7418 120.066 24.4692 119.462 25.9506C119.15 26.5104 118.995 27.1441 119.014 27.7846C119.033 28.425 119.224 29.0485 119.568 29.5891C119.853 30.2172 121.571 30.7032 122.235 30.7743C123.491 30.9639 123.835 29.4587 124.013 28.9254C124.439 27.7402 124.937 28.4987 126.122 28.9254C127.308 29.3521 127.959 27.7402 127.924 26.8632C127.924 26.5551 128.268 25.441 128.979 26.0455C129.145 26.1758 129.263 26.3536 129.417 26.4958C129.637 26.7341 129.912 26.9139 130.219 27.0191C130.525 27.1242 130.853 27.1513 131.172 27.0979C131.492 27.0446 131.793 26.913 132.049 26.7149C132.306 26.5168 132.509 26.2583 132.641 25.9625C132.771 25.5915 132.922 25.2277 133.091 24.8721C133.222 24.6588 133.909 24.8721 134.016 25.2395C134.122 25.6069 135.284 26.2469 135.71 25.8558C136.765 24.884 136.196 25.3936 137.038 23.9359C137.151 23.7664 137.327 23.6488 137.527 23.6088C137.727 23.5688 137.935 23.6097 138.104 23.7225C138.353 23.924 137.429 24.7181 137.37 26.5551C137.299 28.9254 138.377 29.4706 139.562 30.2883C140.048 30.6202 140.107 31.272 139.064 31.7461C137.014 32.7061 137.453 34.7683 138.804 36.0957C139.87 37.1268 140.712 36.4868 141.304 36.4275C142.608 36.3208 141.826 37.5416 142.691 37.269C146.092 36.2142 147.432 35.8349 147.989 35.6216C148.297 35.4912 148.427 34.8868 148.925 34.3061C149.599 33.4682 150.564 32.9141 151.627 32.7535C155.372 31.8291 159.212 35.5623 157.553 41.8082C156.19 47.0229 154.851 44.0837 156.368 47.2836C157.28 49.1917 157.032 49.0377 159.117 49.488C160.729 49.8436 163.159 48.1369 162.59 46.1103C162.377 45.3518 162.72 45.1977 162.993 43.9415ZM162.009 61.2804C162.009 61.1264 161.808 60.8893 161.713 60.6878C154.981 47.651 154.934 46.1459 154.531 46.371C154.128 46.5962 153.95 46.4896 154.057 46.7503C154.4 47.5799 156.024 49.5828 155.538 51.3013C155.382 51.6862 155.102 52.0073 154.741 52.2131C154.38 52.4189 153.961 52.4973 153.55 52.4357C153.14 52.3741 152.762 52.1761 152.477 51.8736C152.193 51.5711 152.019 51.1816 151.983 50.768C151.911 49.5323 152.031 48.293 152.338 47.094C152.516 46.4777 152.22 46.6555 151.39 46.3947C150.561 46.134 150.418 44.4392 151.212 44.9607C151.659 45.3065 152.202 45.5057 152.766 45.5312C153.33 45.5567 153.889 45.4071 154.365 45.1029C154.981 44.6288 156.557 43.6452 156.664 39.6393C156.722 38.249 156.402 36.8689 155.74 35.6453C155.37 35.109 154.867 34.6783 154.28 34.3956C153.693 34.113 153.043 33.9882 152.393 34.0335C151.743 34.079 151.117 34.2931 150.575 34.6548C150.033 35.0164 149.595 35.5131 149.304 36.0957C148.498 37.9801 148.617 40.7652 147.894 41.9267C147.662 42.3289 147.312 42.6506 146.892 42.8486C146.471 43.0466 146.001 43.1116 145.543 43.0348C145.085 42.957 144.661 42.741 144.33 42.4158C143.998 42.0907 143.774 41.6719 143.687 41.2156C143.592 40.3386 141.067 41.4408 140.925 39.1771C140.925 38.7386 140.653 38.9282 139.42 39.343C132.676 41.5948 132.724 41.2511 132.463 43.7874C132.452 44.3922 132.389 44.995 132.273 45.5888C131.944 46.7107 131.236 47.6838 130.27 48.3428C129.305 49.0018 128.14 49.306 126.976 49.2036C126.177 49.1373 125.404 48.8893 124.716 48.4785C124.028 48.0676 123.443 47.5049 123.005 46.8333C122.757 46.5607 122.531 46.1696 122.081 46.2762C121.868 46.2762 121.785 46.4659 121.88 46.774C122.406 47.6392 122.664 48.6418 122.623 49.654C122.58 50.6664 122.239 51.6436 121.642 52.4628C120.742 53.7902 120.197 54.1931 120.588 54.6316C121.939 56.1487 123.93 55.2598 125.174 53.9324C125.85 53.2094 126.608 54.9516 123.681 56.1961C123.242 56.3738 123.408 56.3146 123.906 57.2153C125.98 60.9249 129.168 66.4478 133.459 66.8981C136.742 67.23 141.684 64.8004 143.995 62.1575C146.306 59.5145 147.076 58.3768 147.384 58.0094C147.692 57.642 147.929 57.3931 148.095 57.5946C148.227 57.8849 148.252 58.212 148.166 58.519C147.704 60.9723 144.694 65.31 145.275 66.3885C147.005 69.6477 146.685 69.944 147.278 69.8492C154.875 69.4107 161.452 63.0937 162.009 61.2567V61.2804ZM161.191 25.3818C160.67 24.5047 161.417 25.5358 158.549 21.8263C158.3 21.4826 158.217 21.8263 158.063 22.1226C156.972 23.9833 156.32 25.0499 155.989 25.6781C154.4 28.8661 154.057 27.9417 154.649 28.6054C157.02 31.2128 156.854 31.272 157.103 30.9757C158.793 29.3739 160.178 27.4785 161.191 25.3818ZM159.532 78.169C160.255 77.8016 160.066 78.169 159.532 76.3794C158.91 74.3631 157.935 72.4731 156.652 70.7973C154.803 68.0122 155.858 69.6121 152.018 70.3943C151.485 70.4892 155.657 77.9676 153.926 78.2757C153.239 78.3942 153.275 77.5527 152.741 75.9765C149.648 67.0403 151.414 72.7765 145.488 70.9988C145.331 70.9739 145.181 70.9118 145.053 70.8176C144.924 70.7234 144.82 70.5998 144.748 70.4572C144.676 70.3152 144.638 70.158 144.639 69.9985C144.64 69.8391 144.679 69.6822 144.753 69.541C144.99 68.8181 145.204 69.541 144.362 67.6092C144.03 66.8507 140.641 70.3825 142.513 71.7928C144.09 72.978 144.575 73.9617 144.623 74.8269C144.623 76.012 143.983 76.4743 144.078 77.9676C144.101 78.3749 144.221 78.771 144.427 79.1232C144.633 79.4754 144.919 79.7739 145.263 79.9942C146.011 80.4993 146.885 80.7866 147.787 80.8238C148.214 80.8238 148.167 80.5157 148.143 80.2431C148.054 78.0964 147.601 75.9804 146.804 73.9854C146.401 72.8002 147.289 72.5276 147.538 73.0965C150.643 80.1246 148.143 80.6934 150.169 80.7527C153.439 80.5717 156.632 79.6906 159.532 78.169ZM157.636 20.7241C157.375 20.3922 157.837 20.7241 154.958 18.2352C154.507 17.8441 154.815 18.3419 153.772 20.0959C152.938 21.7894 151.946 23.4004 150.809 24.9077C150.525 25.2277 150.561 25.3581 150.975 25.5595C154.104 27.0647 152.848 29.198 155.206 25.0381C156.451 22.7507 157.233 21.5063 157.636 20.7241ZM153.559 51.5384C154.507 51.7398 154.744 50.7088 154.46 49.9265C154.193 48.9525 153.756 48.0336 153.168 47.2125C152.896 47.9728 152.764 48.7757 152.777 49.5828C152.824 50.8036 152.812 51.4198 153.571 51.5858L153.559 51.5384ZM153.808 17.6663C154.009 17.2989 154.14 17.37 151.283 15.296C149.992 14.3716 150.62 15.0708 149.209 17.7967C146.614 22.7981 146.472 22.2174 147.064 22.6677C147.657 23.1181 149.079 24.3507 149.636 24.6825C149.968 24.2914 151.141 22.4781 151.39 22.087C152.343 20.7136 153.157 19.2486 153.82 17.7137L153.808 17.6663ZM152.113 187.346C153.678 187.346 153.452 187.975 153.381 183.293C153.381 182.558 41.0157 183.293 4.05036 182.985C0.305237 182.985 1.26522 182.049 1.33633 186.944C1.36003 187.749 138.116 187.062 152.113 187.346ZM152.516 181.421C153.192 181.421 152.646 181.113 148.297 174.381C137.121 157.101 138.033 158.156 137.429 158.12C136.824 158.085 136.244 157.421 135.983 156.852C135.604 156.106 135.817 156.734 128.564 156.473C127.651 156.283 126.952 156.603 124.925 157.267C122.342 158.108 121.37 157.516 121.607 158.251C121.725 158.642 125.731 169.024 126.668 172.473C126.684 173.611 126.415 174.736 125.885 175.744C124.048 178.944 127.829 178.327 62.5975 177.818C47.937 177.699 48.1504 178.15 46.7756 175.921C29.9344 148.663 32.8973 151.483 30.0884 151.507C30.0884 151.507 17.7746 151.507 14.5391 151.353C13.7687 151.353 14.4206 150.606 7.83104 166.298C1.02819 182.547 1.40744 181.48 1.90521 181.527C2.24891 181.587 152.066 181.421 152.516 181.421ZM147.112 19.7167C150.525 13.0797 149.921 14.8575 147.894 13.3286C147.411 13.0023 146.899 12.7207 146.365 12.4872C146.033 12.3331 145.915 12.3805 145.772 12.7005C141.755 21.9566 141.577 20.3211 145.488 21.9566C145.784 22.0751 146.033 21.8144 147.112 19.7167ZM147.681 36.9727C147.764 36.6882 147.882 36.6645 145.488 37.423C142.347 38.4186 141.601 38.4423 142.015 39.2363C142.43 40.0304 144.741 39.0112 144.741 40.6467C144.728 40.8024 144.745 40.9594 144.792 41.1085C144.839 41.2576 144.915 41.3959 145.016 41.5154C145.117 41.6349 145.24 41.7333 145.379 41.8049C145.518 41.8765 145.67 41.9199 145.826 41.9326C145.981 41.9459 146.138 41.9284 146.287 41.8811C146.436 41.8338 146.574 41.7576 146.694 41.6569C146.813 41.5562 146.911 41.4329 146.983 41.2942C147.055 41.1554 147.099 41.0038 147.112 40.8482C147.171 39.5409 147.361 38.242 147.681 36.9727ZM141.755 19.7404C142.122 17.4767 145.476 12.2264 144.801 12.0368C143.924 11.7879 143.615 11.6812 141.838 11.1361C140.961 11.0768 142.49 10.9938 138.282 18.7211C138.152 18.97 137.962 18.8633 139.538 19.4085C141.743 20.2381 141.624 20.2381 141.719 19.7404H141.755ZM142.075 160.467C143.26 157.729 143.971 157.492 143.26 157.528C139.527 158.132 139.325 158.002 139.704 158.523C142.134 162.458 141.482 161.688 142.039 160.467H142.075ZM143.141 141.22C142.571 140.218 142.171 139.129 141.956 137.996C141.648 135.875 141.186 135.78 140.451 133.67C139.562 131.158 140.013 131.3 139.266 133.67C135.71 145.878 134.099 144.112 139.811 142.689C140.946 142.287 142.047 141.796 143.106 141.22H143.141ZM141.956 195.287C142.312 195.287 142.11 195.133 141.127 189.053C141.044 188.52 17.3242 188.745 13.6146 188.686C13.1761 188.686 13.2472 188.686 12.8561 191.613C12.2991 195.809 12.2991 195.429 12.7495 195.429C66.6153 195.299 61.9338 195.643 141.909 195.287H141.956ZM140.498 11.219C140.676 10.7568 140.38 10.9938 137.903 10.5553C136.955 10.3776 136.718 10.8398 136.374 11.7405C133.245 19.0767 133.636 17.9389 136.813 18.6856C137.251 18.7922 137.085 18.6856 138.721 15.533C139.498 14.1783 140.096 12.7281 140.498 11.219ZM140.096 37.8853C139.574 37.7075 138.91 37.8853 138.116 37.1742C136.22 35.4557 135.651 32.4335 137.82 31.035C138.436 30.6439 137.287 30.7743 136.635 29.1387C135.9 27.1951 136.279 27.0054 135.983 27.1003C134.596 27.5269 133.613 26.4129 133.399 26.804C131.325 29.8024 129.109 27.3491 128.836 27.918C128.185 29.281 127.651 30.4898 126.395 30.2883C124.842 30.0276 124.902 29.6958 124.7 30.2883C124.538 30.8445 124.189 31.3277 123.712 31.656C123.234 31.9842 122.658 32.1375 122.081 32.0898C118.928 31.5091 118.905 30.395 118.526 30.9046C117.625 32.0898 116.392 32.3268 116.641 39.9356C116.641 40.623 117.376 39.8645 117.968 41.263C118.04 41.4526 118.075 41.9622 117.66 41.9978C117.246 42.0333 117.34 41.4645 116.914 41.2985C116.724 41.2274 116.807 41.5237 116.843 41.8319C116.928 42.377 117.067 42.9139 117.257 43.4318C117.506 44.1666 118.917 43.4318 120.6 45.2096C120.733 45.3411 120.876 45.4644 121.026 45.577C122.211 44.7829 122.211 45.7192 122.081 44.5459C121.928 43.4017 122.164 42.2394 122.749 41.2446C123.335 40.2499 124.237 39.4802 125.312 39.0586C126.387 38.6384 127.572 38.591 128.677 38.9241C129.783 39.2571 130.744 39.9513 131.408 40.8956C131.539 41.0852 131.503 41.1208 132.309 40.7652C132.676 40.623 139.479 38.3238 140.096 37.8853ZM136.848 155.003C136.848 154.897 136.848 155.537 136.647 151.957C136.734 150.369 136.509 148.778 135.983 147.276C135.9 146.921 135.817 146.79 133.613 147.276C131.802 147.511 129.974 147.597 128.149 147.537C124.155 147.632 125.577 147.146 123.515 147.051C118.348 146.79 115.646 144.1 111 143.875C104.576 143.555 103.142 145.392 101.637 146.423C100.387 147.111 99.1976 147.904 98.0814 148.793C96.967 149.906 95.7166 150.873 94.36 151.673C93.4474 152.242 95.3674 153.463 99.2547 149.872C100.772 148.461 101.53 148.485 102.407 147.691C104.256 146.02 106.271 145.842 108.831 145.593C109.175 145.593 109.589 145.925 109.02 146.186C107.266 146.98 105.181 146.838 103.853 148.058C101.483 150.263 99.9303 150.061 99.7288 151.709C99.8034 151.72 99.8793 151.72 99.954 151.709C104.185 149.504 103.178 149.563 108.819 149.409C110.217 149.409 109.115 150.369 107.432 150.512C101.601 151.009 105.666 150.926 95.5807 154.778C94.0281 155.371 94.6918 157.871 104.718 152.408C105.916 151.979 107.213 151.905 108.452 152.194C111.794 152.574 111.332 152.349 111.616 152.491C112.398 152.917 110.68 153.391 109.803 153.391C105.868 153.391 105.939 153.06 104.932 153.629C100.452 156.224 97.8207 156.71 99.1362 157.066C100.867 157.54 105.856 154.814 107.338 154.944C108.761 155.026 110.164 155.326 111.497 155.833C112.75 156.006 114.014 156.097 115.278 156.106C117.242 156.375 119.222 156.505 121.204 156.497C122.825 156.493 124.432 156.192 125.945 155.608C128.493 154.932 128.113 155.548 131.764 155.323C136.753 155.003 136.801 155.513 136.848 155.003ZM135.829 10.6857C135.983 10.3657 136.102 10.3302 132.795 9.84424C132.214 9.70202 131.906 9.97461 131.681 10.4724C131.164 11.4679 130.728 12.5014 130.377 13.5657C130.164 14.336 131.906 14.8338 131.562 17.2278C131.562 17.6545 131.835 17.536 132.985 17.7611C133.542 17.8678 132.747 17.6189 133.684 15.4501L135.829 10.6857ZM127.236 48.0895C133.577 47.9355 132.167 37.6482 125.506 40.1608C124.993 40.3442 124.525 40.6361 124.134 41.0164C123.744 41.3968 123.439 41.8568 123.242 42.3652C123.045 42.8733 122.96 43.4181 122.993 43.9622C123.026 44.5063 123.175 45.0369 123.432 45.5177C123.759 46.2616 124.29 46.8977 124.963 47.3528C125.636 47.8078 126.424 48.0633 127.236 48.0895ZM130.851 10.0457C130.188 9.82053 131.195 9.93905 127.936 10.1405C126.217 10.2472 125.956 13.0086 126.869 12.8901C129.891 12.4635 128.896 14.9997 130.851 10.0457ZM125.162 174.784C125.174 174.709 125.174 174.633 125.162 174.559C121.24 175.246 131.539 175.495 96.4222 175.376C47.1193 175.199 50.8288 175.104 50.7459 175.886C50.6392 176.846 48.5889 176.455 69.0211 176.55C127.023 176.822 123.93 177.865 125.162 174.807V174.784ZM121.607 49.9621C121.939 48.9903 121.145 47.7577 120.588 46.8214C119.961 45.8661 118.988 45.1907 117.874 44.937C118.007 45.6393 118.242 46.3182 118.573 46.9518C118.763 47.3547 118.798 47.2599 119.758 46.7977C120.137 46.7977 120.943 47.5444 121.05 48.4451C121.065 48.538 121.06 48.6332 121.035 48.724C121.01 48.8148 120.966 48.8991 120.905 48.971C120.844 49.0428 120.768 49.1005 120.683 49.1401C120.597 49.1797 120.504 49.2001 120.41 49.2C120.284 49.2008 120.16 49.165 120.054 49.0969C119.675 48.848 119.912 48.8717 119.557 48.848V49.0377C121.192 51.0524 120.765 52.4154 121.595 49.9858L121.607 49.9621ZM120.291 174.002C127.651 174.002 125.53 172.674 120.291 158.18C120.125 157.741 120.197 157.907 117.364 157.717C116.144 157.495 114.907 157.376 113.666 157.362C113.169 157.362 113.275 157.066 114.318 161.06C116.807 170.541 117.328 171.086 115.373 171.074C113.939 171.074 102.075 170.968 98.6266 170.837C97.4414 170.837 97.9036 170.932 96.7659 160.538C96.3511 156.793 96.4459 156.793 96.114 156.9C94.9289 157.231 94.1111 156.165 94.2415 157.006C94.3576 157.862 94.4098 158.726 94.3955 159.59C94.3955 160.182 94.5378 160.775 94.5852 161.38C95.5214 172.33 96.0903 171.039 91.9185 171.086C55.9725 171.548 57.6436 171.584 58.2006 170.328C60.7605 164.603 66.2123 153.486 66.4256 153.06C69.7085 146.411 68.6182 147.134 71.6285 147.134H92.523C93.7081 147.134 93.4593 147.726 93.6015 150.559C93.6015 150.986 93.8267 150.559 95.2963 149.741C95.8414 149.433 95.5214 149.042 95.5096 148.023C95.5096 147.229 96.197 147.205 97.2755 147.122C98.9214 146.915 100.443 146.14 101.578 144.929C101.435 144.929 67.5871 144.811 67.2789 145.344C64.8375 149.575 50.7933 173.788 50.7814 173.788C50.5681 174.132 120.256 174.025 120.28 174.025L120.291 174.002ZM119.237 52.6406C121.038 52.2258 120.422 52.7946 118.502 49.0851C117.992 48.1014 117.731 48.4451 117.317 48.1369C116.677 47.6747 117.542 47.3784 117.4 46.9518C116.795 45.4111 116.76 44.8303 116.38 45.1266C114.046 46.9636 115.266 51.3132 119.237 52.6406ZM112.896 169.972C115.764 169.972 115.622 170.055 115.491 169.593C112.031 156.9 112.54 157.243 111.77 157.243C111.26 157.243 109.826 156.722 108.404 156.378C106.65 155.975 106.52 156.461 103.901 157.243C103.569 157.35 100.582 158.168 100.227 158.215C96.0666 158.737 97.0977 151.72 98.5673 169.533C98.6029 169.996 97.7851 169.913 112.896 169.996V169.972ZM110.229 82.2934C111.9 81.7245 111.142 79.9231 110.775 78.2757C109.838 74.3173 109.98 74.3528 109.352 74.4595C103.142 75.5617 104.517 75.2772 89.2045 77.932C88.4342 78.0624 89.003 78.1927 89.5008 80.6934C89.6786 81.5823 90.4489 81.689 90.9111 81.8786C94.7748 83.9171 94.4666 84.6163 96.6118 84.3675C98.3777 84.2371 107.302 83.2771 110.229 82.2934ZM108.38 71.2003C108.902 71.1055 108.878 70.9395 108.807 70.7025C108.594 70.0625 108.12 69.5173 107.468 69.7425C106.283 69.9203 91.3615 72.3262 89.3704 72.8002C88.7779 72.9425 87.9719 73.0847 87.7823 73.6299C87.6993 73.9244 87.6993 74.2361 87.7823 74.5306C87.8653 74.7676 88.0667 74.7558 88.2445 74.7084C102.431 72.3854 106.982 71.4492 108.38 71.2003ZM103.877 111.496C106.958 108.924 107.717 110.607 105.062 107.549C101.755 103.674 99.4088 101.861 99.7169 98.4235C100.404 90.8503 97.9273 90.9451 97.6429 85.4697C97.6429 85.2445 97.4651 85.2563 97.2518 85.3037C96.28 85.5052 96.8251 85.9437 96.7422 86.323C96.6592 86.7022 96.6711 87.5081 96.0903 87.7926C95.7585 87.9822 95.7585 88.0178 96.0903 88.3141C97.6547 89.7481 97.0148 92.1777 97.631 92.8058C97.9175 94.0017 97.9175 95.2484 97.631 96.4443C97.6191 97.2443 97.7188 98.0421 97.9273 98.8146C98.1525 100.343 96.6118 100.142 97.1333 100.581C97.9984 101.315 99.0651 103.449 98.3184 103.721C97.2399 104.112 97.7614 102.05 95.4977 100.853C94.9779 100.507 94.4936 100.11 94.0518 99.6679C92.4993 98.3287 92.6178 102.157 91.4208 101.6C91.1837 101.493 91.2904 100.616 91.2904 100.592C90.6267 100.711 90.2475 100.841 90.1052 100.462C89.7497 99.5376 91.8237 99.1939 92.7245 98.1865C92.9022 97.9969 93.7555 97.8428 94.04 96.7761C94.0786 96.672 94.1509 96.5838 94.2455 96.5256C94.34 96.4673 94.4513 96.4423 94.5616 96.4546C94.672 96.4669 94.7751 96.5157 94.8545 96.5932C94.9339 96.6708 94.9851 96.7728 95 96.8828C95.1422 97.665 94.6681 97.0606 95.1659 98.6487C95.2125 98.791 95.2896 98.9215 95.3918 99.031C95.4939 99.1405 95.6187 99.2264 95.7574 99.2828C95.8962 99.3392 96.0455 99.3647 96.1951 99.3576C96.3447 99.3504 96.4909 99.3107 96.6236 99.2413C97.0503 98.8739 96.6948 98.388 96.434 96.5154C96.3392 95.7806 95.877 95.6739 94.1467 94.4295C93.4711 93.9436 93.0681 94.4295 91.2074 95.7688C90.1189 96.5748 88.9831 97.3149 87.806 97.985C87.4832 98.3002 87.2512 98.6966 87.1344 99.1325C87.0176 99.5683 87.0203 100.028 87.1423 100.462C87.7823 103.046 90.2712 103.733 91.4919 104.278C96.5051 106.542 94.2178 106.506 99.9895 113.238C100.499 113.866 103.284 111.97 103.877 111.496ZM93.4237 93.3747C95.2726 93.0073 96.837 95.271 96.8014 94.6428C96.8533 94.3151 96.8358 93.9802 96.7501 93.6596C96.6643 93.3391 96.5122 93.0402 96.3036 92.7821C92.1082 88.7052 92.6178 90.5896 89.4771 92.7821C85.9216 95.2828 85.4475 95.2473 85.4594 96.0413C85.4103 96.4047 85.4578 96.7746 85.5972 97.1138C85.7366 97.4529 85.963 97.7494 86.2534 97.9732C86.7631 98.305 86.1349 97.2976 88.1616 96.5628C90.7689 95.591 91.1956 93.8014 93.4237 93.3747ZM96.0074 91.0044C96.1496 91.111 96.2088 90.9333 96.1733 90.8385C95.3792 88.3496 94.7985 89.1318 93.2815 88.0533C92.0963 87.1881 90.9111 86.5126 89.9156 87.603C88.9201 88.6933 88.7304 88.4207 87.5453 89.6533C85.6135 91.6562 85.0446 90.4948 83.729 93.4814C83.895 94.074 83.729 93.7777 84.5113 94.9865C84.5113 94.9865 89.5838 91.431 89.9393 91.1111C90.2949 90.7911 91.3378 89.6533 91.9778 89.5111C93.9333 89.0607 94.7392 89.9496 96.0074 90.9451V91.0044ZM95.9244 153.439C95.9244 153.024 95.6281 153.19 94.597 153.439C93.5659 153.688 93.8267 153.368 93.8978 154.434C93.8978 154.719 93.8978 154.683 95.794 153.688C95.8726 153.604 95.9188 153.495 95.9244 153.38V153.439ZM95.7822 86.3348C95.9837 85.9437 95.6044 85.8608 94.597 85.2919C90.3897 82.8386 90.2593 82.7793 89.2401 82.5067C88.6037 82.3561 87.9352 82.4238 87.3419 82.6989C86.7486 82.9741 86.2651 83.4407 85.969 84.0238C85.969 84.0238 83.9424 90.1629 84.049 90.8622C89.406 87.0578 87.7823 87.6859 86.8816 87.1407C86.2297 86.7378 87.7705 86.6548 88.5171 86.4652C89.2638 86.2756 87.4031 84.8178 88.0312 84.4504C88.2208 84.3319 88.5527 84.64 89.5126 85.5526C90.2712 86.2756 90.8874 85.8608 91.7408 86.003C92.5455 86.2685 93.3194 86.6193 94.0518 87.0459C94.9289 87.1526 95.7348 87.1289 95.7822 86.2756V86.3348ZM93.8148 170.043C94.5259 170.043 94.3481 170.114 94.0518 167.222C94.0518 166.571 94.3481 166.819 90.2593 166.772C89.3941 166.772 89.6667 166.535 89.6549 169.842C89.643 170.126 89.5956 169.984 93.8148 169.984V170.043ZM93.5659 165.658C94.1229 165.658 93.8741 165.575 93.6963 163.193C93.6963 162.624 94.0281 162.754 90.0223 162.695C89.5126 162.695 89.4889 162.837 89.4889 163.039C89.5838 166.227 88.6475 165.658 93.5659 165.599V165.658ZM93.2222 161.64C93.7437 161.64 93.5185 161.403 93.3289 159.14C93.3289 158.772 93.4948 158.82 89.7734 158.796C89.3112 158.796 89.3349 158.594 89.4415 161.166C89.4297 161.7 89.1097 161.498 93.2222 161.581V161.64ZM92.8667 157.753C93.2815 157.753 93.1985 157.753 93.0207 155.169C93.0207 154.707 92.9259 154.778 89.4652 154.826C89.0623 154.826 89.2638 154.707 89.3112 157.374C89.2875 157.717 89.2282 157.563 92.8667 157.717V157.753ZM92.4519 153.652C92.7482 153.652 92.9733 153.652 92.6415 151.353C92.5348 150.571 92.997 150.938 89.2282 150.986C88.9556 150.986 89.0267 150.986 89.1097 153.261C89.1452 153.818 88.8253 153.676 92.4519 153.652ZM91.4089 149.883C92.5941 149.883 92.44 150.144 92.4045 148.852C92.4045 148.106 92.6059 148.283 89.2045 148.295C88.8964 148.295 88.9675 148.461 88.9912 149.646C89.003 149.99 89.1808 149.883 91.4208 149.883H91.4089ZM83.9661 170.031C89.6075 169.901 88.7067 170.47 88.7067 168.775C88.7067 166.239 89.6193 166.653 84.3927 166.713C83.8357 166.713 83.9779 166.618 83.8594 168.811C83.7409 169.936 83.5987 170.055 83.9779 170.043L83.9661 170.031ZM88.1497 165.599C88.7304 165.599 88.529 165.338 88.4816 162.873C88.4816 162.351 84.9261 162.541 84.3927 162.565C83.8594 162.588 84.1557 162.707 84.0253 165.136C83.9898 165.871 83.8594 165.492 88.1616 165.611L88.1497 165.599ZM87.9719 161.534C88.4579 161.534 88.4697 161.605 88.363 158.985C88.363 158.559 88.2919 158.654 84.9024 158.594C84.3453 158.594 84.3809 158.417 84.2624 161.024C84.2505 161.557 83.8476 161.462 87.9838 161.545L87.9719 161.534ZM88.043 157.54C88.3749 157.54 88.3156 157.54 88.2564 155.169C88.2564 154.529 88.529 154.719 84.9853 154.671C84.4757 154.671 84.6416 154.814 84.4757 157.125C84.4757 157.563 84.6535 157.457 86.4194 157.457C86.4312 157.575 86.2534 157.563 88.0549 157.551L88.043 157.54ZM87.8534 153.652C88.2682 153.652 88.1379 153.534 88.126 151.282C88.126 150.855 88.043 150.938 85.092 150.986C84.7838 150.986 84.8431 151.294 84.7127 153.356C84.689 153.83 84.9735 153.593 87.8653 153.664L87.8534 153.652ZM86.7986 149.883C88.3749 149.789 87.9838 150.061 87.9838 148.509C87.9838 148.177 87.9245 148.189 85.3883 148.272C84.8549 148.272 84.9735 148.272 84.9261 149.457C84.9261 149.872 84.7838 150.014 86.8105 149.895L86.7986 149.883ZM83.2431 149.883C83.8002 149.883 84.1913 149.978 84.1439 148.935C84.1439 148.106 84.1439 148.319 83.575 148.319C80.6121 148.319 81.0861 147.809 80.7543 149.504C80.6002 150.132 80.778 149.943 83.2076 149.883H83.2431ZM83.9068 152.171C83.9068 150.689 84.6416 150.986 80.7898 150.986C80.5291 150.986 80.4343 150.986 80.1143 153.19C80.0432 153.711 79.8654 153.617 83.1483 153.629C83.9068 153.652 83.812 153.688 83.8713 152.171H83.9068ZM83.6698 154.932C83.6698 154.707 83.4446 154.743 80.2091 154.671C79.7824 154.671 79.8417 154.909 79.5691 156.473C79.3558 157.658 78.8343 157.433 83.255 157.457C83.6105 157.457 83.5394 157.385 83.6342 154.932H83.6698ZM83.4209 158.903C83.4209 158.428 83.4209 158.571 79.6165 158.488C79.2254 158.488 79.1306 158.618 79.095 158.82C78.6565 161.38 78.538 161.403 78.941 161.391C79.9484 161.391 81.3824 161.391 82.9231 161.451C83.4446 161.474 83.2194 161.273 83.4209 158.903ZM83.1246 162.778C83.1246 162.411 83.255 162.612 78.6921 162.494C78.3721 162.494 78.5025 162.257 77.9454 165.326C77.8625 165.753 77.9454 165.587 82.6861 165.611C83.1365 165.611 82.9705 165.765 83.1246 162.778ZM82.7454 169.747C82.8639 166.819 83.0535 166.701 82.5676 166.725C76.8906 167.021 77.8269 165.539 77.1869 169.699C77.104 170.221 77.0803 170.114 79.9128 170.114C79.901 169.936 82.7098 170.363 82.7454 169.747ZM79.9721 148.603C80.055 148.129 79.7943 148.319 77.4832 148.248C77.1277 148.248 77.1632 148.307 76.7958 149.635C76.6655 150.109 76.7129 149.919 79.4387 149.919C79.901 149.919 79.8061 149.492 79.9721 148.603ZM79.415 151.424C79.4862 150.986 79.415 151.057 76.5706 151.069C76.2269 151.069 76.2981 151.294 75.6699 153.368C75.5751 153.688 75.5633 153.569 78.7514 153.629C79.1069 153.629 79.0595 153.664 79.415 151.424ZM78.7395 155.181C78.8699 154.506 78.941 154.671 75.5751 154.636C75.1603 154.636 75.3144 154.636 74.6033 157.006C74.4018 157.658 76.1914 157.208 77.9691 157.374C78.538 157.386 78.3721 157.362 78.7869 155.181H78.7395ZM78.2299 158.642C78.2299 158.393 78.3247 158.5 74.5559 158.393C74.1766 158.393 74.2596 158.393 73.5485 160.929C73.4063 161.427 73.264 161.332 75.6344 161.332C76.2578 161.368 76.8835 161.368 77.5069 161.332C77.6965 161.344 77.7084 161.273 78.2299 158.642ZM77.0447 165.374C77.7084 161.617 78.4906 162.577 73.4892 162.411C72.9796 162.411 73.0507 162.517 72.3041 165.279C72.1974 165.646 71.9248 165.705 75.1721 165.646C76.8788 165.622 76.8906 165.694 76.9499 165.374H77.0447ZM76.3573 169.166C76.9262 166.085 77.7795 166.725 72.6952 166.796C72.2685 166.796 71.8655 166.594 71.7115 167.139C70.6804 170.908 69.673 170.233 75.5633 170.15C76.2388 170.114 76.0966 170.102 76.2625 169.166H76.3573ZM76.1558 148.947C76.3336 148.189 76.7129 148.224 73.7855 148.224C73.264 148.224 73.3114 148.378 72.8137 149.729C72.6952 150.049 72.707 150.049 75.3855 150.002C75.6699 150.002 75.8595 150.026 76.061 148.947H76.1558ZM75.2551 151.993C75.6462 150.618 75.6225 151.199 72.8848 151.045C72.1974 151.045 72.4463 150.962 71.5337 153.237C71.3441 153.7 71.5337 153.463 74.4136 153.605C74.7573 153.64 74.7929 153.237 75.1603 151.993H75.2551ZM74.3425 154.991C74.5203 154.363 73.9514 154.754 71.2967 154.624C70.7396 154.624 70.8463 154.944 70.1115 156.888C69.9337 157.326 70.0522 157.148 73.2877 157.291C73.6788 157.314 73.6314 157.089 74.2477 154.991H74.3425ZM73.2522 158.547C73.3589 158.191 73.0626 158.263 69.8152 158.251C69.436 158.251 69.4597 158.606 68.5471 160.965C68.4049 161.332 68.5471 161.249 70.4433 161.249C70.9601 161.295 71.4792 161.295 71.9959 161.249C72.4818 161.273 72.3041 161.427 73.1574 158.571L73.2522 158.547ZM71.83 149.753C72.3633 148.331 72.47 148.2 72.1144 148.2C69.8626 148.2 69.7441 148.082 69.5663 148.497C68.796 150.227 68.6182 150.073 70.2182 149.99C71.4863 150.014 71.6167 150.097 71.7352 149.777L71.83 149.753ZM72.0433 162.577C72.1263 162.292 72.3633 162.375 68.4878 162.292C67.836 162.292 68.073 162.008 66.8641 165.243C66.6271 165.859 66.5678 165.646 70.55 165.634C71.2137 165.658 70.9174 165.919 71.9485 162.6L72.0433 162.577ZM71.1426 151.472C71.3796 150.843 71.273 151.175 68.7723 151.069C68.2508 151.069 68.3337 151.246 67.3145 153.273C67.0893 153.747 68.6182 153.415 69.8863 153.522C70.3722 153.593 70.3604 153.415 71.0478 151.495L71.1426 151.472ZM70.5737 167.199C70.7515 166.582 70.7041 166.808 68.0256 166.808C66.3427 166.808 66.3545 166.559 66.1293 167.151C64.6716 170.885 64.0434 170.256 68.7841 170.256C68.7841 170.126 68.9856 170.256 69.2819 170.256C69.8626 170.126 69.7322 170.162 70.5737 167.199ZM69.6493 155.181C69.9456 154.446 69.7204 154.671 68.7011 154.636C67.1723 154.636 66.7456 154.494 66.6153 154.731C64.8257 158.061 65.0627 156.959 68.393 157.22C69.033 157.231 68.9145 156.983 69.6493 155.146V155.181ZM68.3693 158.559C68.5234 158.12 68.0849 158.251 67.4686 158.239C64.9086 158.239 64.956 158.108 64.8257 158.393C63.119 162.079 62.5857 161.154 67.0064 161.261C67.4686 161.273 67.3975 161.131 68.3693 158.523V158.559ZM66.793 162.648C66.959 162.245 66.9945 162.316 63.1664 162.28C62.8583 162.28 62.9175 162.387 61.4124 165.468C61.1635 165.99 61.7798 165.634 65.1931 165.753C65.7856 165.741 65.6316 165.563 66.793 162.612V162.648ZM66.0345 145.131C66.6627 144.076 67.1012 144.846 56.6362 125.813C54.4199 121.783 51.7296 117.161 48.4467 111.093C39.949 95.3776 38.5505 92.6044 37.2587 92.6162C35.3506 92.9836 38.0409 91.751 23.7834 99.1702C13.0102 104.776 11.9317 105.096 11.1732 105.855C7.86659 108.853 12.7495 110.951 49.4422 172.698C50.1177 173.847 55.5221 162.671 66.0345 145.095V145.131ZM65.0864 167.163C65.3827 166.405 63.3442 166.962 61.1753 166.808C60.6657 166.808 60.7013 166.926 59.3028 169.925C59.0183 170.541 59.3976 170.245 63.5457 170.28C64.0079 170.245 63.8894 170.268 65.0864 167.128V167.163ZM48.2807 175.732C48.2807 176.763 49.94 176.917 49.9163 175.732C49.9038 175.524 49.8187 175.327 49.6757 175.175C49.5327 175.023 49.341 174.927 49.1341 174.902C48.9269 174.929 48.7333 175.02 48.5803 175.163C48.4274 175.305 48.3226 175.492 48.2807 175.696V175.732ZM48.7904 174.002C49.5726 173.705 9.3599 111.283 9.07546 108.201C9.04595 108.169 9.00942 108.145 8.9688 108.13C6.95402 109.872 8.38807 110.809 24.8382 137.664C51.6229 181.35 46.4082 174.89 48.7904 173.966V174.002Z" fill="#1B1B1D"/>
  <path d="M199.84 150.996C200.088 152.181 191.792 153.935 188.059 153.722C187.111 153.722 181.493 154.564 183.117 153.829C183.105 153.773 183.081 153.72 183.046 153.675C182.619 153.284 186.127 152.632 186.601 152.561C187.224 152.501 187.851 152.501 188.474 152.561C194.257 152.655 199.555 149.633 199.84 150.996Z" fill="#1B1B1D"/>
  <path d="M189.102 200.004C190.358 203.986 190.655 204.531 189.6 204.744C189.538 204.767 189.471 204.777 189.405 204.774C189.339 204.77 189.274 204.753 189.215 204.724C189.155 204.696 189.102 204.656 189.058 204.606C189.014 204.557 188.981 204.499 188.96 204.436C187.87 201.402 183.733 186.718 178.803 180.318C169.476 168.182 162.46 170.505 161.986 168.538C161.76 167.625 162.827 168.004 163.728 168.265C166.219 168.824 168.615 169.747 170.839 171.003C179.905 176.49 178.886 180.484 179.265 176.715C179.467 174.807 182.157 166.784 183.686 167.554C184.93 168.194 180.64 171.583 180.237 179.05C180.154 181.42 182.987 180.768 189.102 200.004Z" fill="#1B1B1D"/>
  <path d="M152.895 35.3261C154.258 35.1721 154.638 36.3691 154.306 36.618C153.5 37.2106 152.481 35.6935 151.71 37.2698C151.284 38.1231 150.869 40.1142 152.101 40.0668C153.974 40.0668 155.467 42.4371 152.955 43.9304C152.808 44.0307 152.628 44.0691 152.453 44.0371C152.323 44.0132 152.203 43.9512 152.108 43.8589C152.013 43.7666 151.948 43.6482 151.92 43.5187C151.893 43.3893 151.904 43.2545 151.953 43.1316C152.002 43.0086 152.087 42.9031 152.196 42.8282C152.682 42.4964 153.263 42.2001 152.907 41.7379C152.066 40.6357 150.383 41.6194 150.217 39.8416C150.086 37.7557 150.75 35.1721 152.895 35.3261Z" fill="#1B1B1D"/>
  <path d="M134.572 52.4279C135.437 52.4279 137.155 53.0086 136.942 53.9568C136.847 54.573 136.136 53.8145 136.172 54.6323C136.278 57.5241 136.622 59.0767 135.378 60.7596C134.133 62.4425 131.561 62.9047 130.957 62.0988C130.353 61.2929 131.502 61.4707 131.313 61.0677C129.665 57.5952 129.298 58.3774 128.124 58.1285C128.302 57.8796 127.686 57.5359 128.397 57.3582C130.702 57.0842 132.819 55.9498 134.323 54.1819C134.868 53.4945 134.939 53.5064 134.524 53.3049C134.11 53.1034 134.05 52.416 134.572 52.4279ZM132.96 61.21C134.572 60.3448 135.84 59.7167 135.33 55.1775C135.579 54.2056 134.809 55.1775 134.513 55.533C133.515 56.663 132.216 57.4853 130.767 57.9033C130.329 58.0811 130.767 58.247 131.55 59.4915C132.676 61.3285 132.367 61.53 132.96 61.21Z" fill="#1B1B1D"/>
  <path d="M128.22 35.6456C126.561 35.7878 123.717 34.9108 122.152 37.3996C121.548 38.3596 121.05 38.2055 120.73 37.8026C120.591 37.645 120.511 37.4438 120.505 37.2337C120.505 36.9256 120.943 36.6174 121.299 36.1789C121.702 35.6535 122.226 35.2334 122.827 34.9548C123.427 34.6762 124.086 34.5472 124.748 34.5789C125.896 34.5706 127.041 34.6939 128.161 34.9463C128.564 35.0293 128.73 35.6456 128.22 35.6456Z" fill="#1B1B1D"/>
  <path d="M126.822 44.6288C126.929 44.8065 127.296 45.731 126.751 46.0747C126.206 46.4184 125.566 45.968 125.234 45.3517C124.902 44.7354 124.642 43.9769 125.234 43.7162C125.827 43.4555 125.957 43.3132 126.111 42.8273C126.206 42.531 126.49 42.6021 126.621 42.8273C126.917 43.254 126.621 43.5977 126.621 44.0125C126.597 44.214 126.656 44.2732 126.822 44.6288Z" fill="#1B1B1D"/>
  <path d="M87.8528 57.9495C88.718 62.2635 87.8528 63.6383 87.8528 63.8754C87.8528 64.1124 87.3906 64.1361 87.2246 64.3494C87.118 64.2546 86.8691 64.2428 87.1298 63.6146C89.5002 57.9021 80.8248 40.3972 75.2782 44.972C75.1241 45.1023 76.0841 49.7126 75.0648 53.9911C73.8797 58.7318 68.4635 55.6859 71.7819 48.563C73.6189 44.6164 74.2234 45.209 73.9152 44.3675C71.6397 38.0743 62.7273 33.464 57.1214 42.8979C56.4577 44.012 56.3155 44.5216 56.0192 44.6638C55.4622 44.9483 55.237 44.2727 55.4978 43.7631C57.6666 39.7454 60.0725 36.7706 64.6354 36.498C66.8284 36.5474 68.9566 37.2506 70.7473 38.5175C72.5379 39.7845 73.9093 41.5575 74.6856 43.609C75.0648 44.5335 75.1241 43.135 77.1981 43.2416C82.4129 43.5261 86.7269 52.237 87.8528 57.9495ZM72.3034 54.9985C74.6737 57.3688 74.6737 46.9275 74.1997 46.2164C73.4886 46.8445 70.1227 52.8296 72.3034 54.9985Z" fill="#1B1B1D"/>
  <path d="M39.4744 101.504C38.4196 98.7781 37.8507 94.7959 36.7367 97.5336C35.4093 100.805 35.433 100.71 34.8641 99.904C32.1856 96.1233 32.8493 95.6492 31.1901 101.539C30.3723 104.467 30.2538 104.846 30.0049 104.597C24.6717 100.236 25.525 99.9395 25.5132 106.802C25.5132 107.228 25.5132 107.193 24.1502 106.707C18.6037 104.799 18.1414 104.016 19.7296 108.105C20.7014 110.606 20.5592 110.002 15.6526 109.397C15.0245 109.326 14.6096 109.516 15.0956 110.369C18.2007 115.773 18.1414 115.714 18.3548 115.892C18.5681 116.07 19.0659 115.892 18.9592 115.548C18.6985 114.802 19.1844 116.034 17.1696 112.36C15.5696 109.468 15.5815 110.511 20.8318 110.89C21.9221 110.973 21.0214 109.302 20.417 107.833C20.1911 107.354 20.0469 106.842 19.9903 106.316C20.2629 106.316 21.8747 106.944 22.1473 107.039C25.7739 108.307 26.3309 108.97 26.3428 107.489C26.3428 103.732 26.3428 102.571 26.6865 102.891C29.5072 105.261 30.479 106.612 30.9412 105.628C31.1783 105.119 31.7708 102.914 32.8612 99.0388C32.9049 98.9414 32.9607 98.8498 33.0271 98.7662L33.2642 99.0151C36.1204 103.116 35.4567 102.891 37.3174 98.4581C37.6967 97.5573 38.23 100.722 39.5455 103.507C39.5718 103.595 39.6257 103.672 39.6994 103.727C39.7731 103.782 39.8625 103.812 39.9544 103.812C40.0463 103.812 40.1357 103.782 40.2094 103.727C40.2831 103.672 40.337 103.595 40.3633 103.507C40.5174 102.891 40.15 103.294 39.4744 101.504Z" fill="#1B1B1D"/>
</svg>
