<svg width="444" height="540" viewBox="0 0 444 540" fill="none" xmlns="http://www.w3.org/2000/svg">
  <g clip-path="url(#clip0_3464_66906)">
    <path d="M416.866 445.888C383.573 428.243 392.384 423.743 360.062 409.773L83.193 409.746C75.8355 410.918 39.5093 430.966 15.3645 454.105C12.0458 457.286 10.0613 460.911 9.98704 465.557C9.85429 473.59 25.5728 465.821 35.457 469.556C63.3458 480.099 74.5575 481.996 101.623 481.537C121.913 481.193 110.391 477.757 165.221 486.17C173.609 487.457 181.874 489.635 190.444 489.572C194.186 489.545 197.936 489.434 201.671 489.594C230.789 490.834 236.207 484.091 256.592 483.501C256.661 483.501 289.12 482.471 295.127 483.123C313.19 485.085 303.277 482.795 349.116 484.221C375.248 485.033 372.935 482.511 408.028 477.163C416.225 475.914 424.32 474.337 432.328 472.244C432.931 472.087 433.833 472.373 433.874 471.162C434.231 460.295 426.323 450.899 416.866 445.888Z" fill="#B5B6BA"/>
    <path d="M296.45 341.735C296.45 287.357 299.002 300.974 257.89 298.565C254.353 298.358 219.912 300.533 187.807 300.351C174.172 300.275 160.544 299.46 146.994 301.814C138.714 303.251 143.556 313.923 146.589 348.125C149.899 385.487 145.019 385.905 173.616 387.476C228.948 390.511 253.682 389.228 277.373 387.593C282.59 387.233 279.796 386.735 289.34 381.135C291.827 379.677 297.62 375.922 297.418 373.046C296.723 363.149 297.429 353.215 296.446 341.738L296.45 341.735Z" fill="#E6E6E6"/>
    <path d="M263.908 207.318C261.989 203.658 265.947 198.978 262.286 193.94C260.083 190.907 262.005 189.75 262.457 190.891C263.593 193.755 265.864 196.246 265.299 199.675C264.43 204.947 264.417 206.841 266.041 207.573C267.621 208.284 269.248 206.992 270.301 205.635C273.194 201.907 275.111 204.657 280.192 198.901C283.679 194.95 278.353 190.443 280.012 184.542C283 173.91 274.051 171.717 273.959 165.311C273.617 141.769 264.878 155.609 263.933 137.661C263.321 126.051 251.617 125.79 248.017 119.51C244.687 113.703 241.858 106.989 233.7 109.439C226.689 111.545 225.827 109.956 221.215 107.504C212.395 102.815 213.306 114.954 205.46 112.911C204.002 112.53 198.739 112.677 197.842 115.892C196.339 121.276 185.305 124.071 186.211 130.2C187.046 135.849 175.659 142.836 181.399 148.301C184.843 151.579 180.51 154.149 179.5 164.694C179.29 166.881 179.506 168.886 181.232 170.398C190.943 178.919 177.367 190.88 183.444 197.094C188.635 202.402 183.691 206.317 184.841 209.519C185.962 212.633 189.566 214.955 193.189 214.962C191.407 210.754 195.632 207.548 193.762 206.223C190.446 203.871 190.484 200.863 191.89 197.497C193.796 192.936 188.837 197.101 189.22 183.916C189.242 183.214 189.334 182.359 190.153 182.008C190.997 182.733 188.882 188.929 191.519 192.156C196.323 198.03 189.314 201.302 193.614 204.245C198.609 207.663 191.229 212.194 194.829 215.38C197.149 217.43 199.302 215.661 201.169 214.534C204.067 212.786 205.804 213.051 211.101 213.994C213.925 214.498 217.171 212.937 218.533 210.354C214.935 208.212 212.053 205.199 208.918 202.488C192.338 188.117 198.681 178.858 191.404 162.701C187.953 155.035 191.152 150.567 196.705 146.08C201.997 141.805 198.28 139.659 205.078 134.434C209.605 130.953 208.016 139.607 217.25 137.114C225.924 134.772 224.639 141.969 232.55 142.446C239.914 142.89 244.124 147.669 244.288 151.399C244.475 155.672 247.141 158.59 249.488 161.738C252.319 157.537 257.248 156.961 260.209 160.455C264.203 165.169 262.817 172.754 257.397 175.623C255.826 176.453 254.87 177.513 255.097 179.416C256.099 187.788 250.334 190.569 253.309 194.66C257.053 199.812 249.382 204.447 254.431 207.066C257.575 208.695 260.662 207.962 263.908 207.323V207.318Z" fill="#3B3C3F"/>
    <path d="M225.074 106.62C223.881 109.059 228.626 109.176 231.284 108.618C238 107.208 242.525 106.209 247.479 115.679C248.51 117.648 249.464 119.808 251.248 121.02C254.33 123.113 256.828 126.517 261.724 124.544C267.558 122.193 267.551 116.523 264.532 112.702C259.559 106.409 264.318 108.303 258.806 100.716C256.801 97.9557 254.535 96.7677 251.106 97.6565C248.368 98.372 247.693 97.9175 246.149 95.4965C244.037 92.1867 238.697 91.145 235.856 93.8742C233.633 96.0072 231.295 96.7992 228.314 96.8217C221.163 96.8757 225.182 103.905 225.069 106.62H225.074Z" fill="#3B3C3F"/>
    <path d="M196.931 450.347C184.355 446.749 183.617 451.312 174.422 449.166C169.008 447.901 163.973 444.576 158.028 446.038C156.93 446.308 141.126 442.22 139.094 443.21C129.251 448.002 125.513 438.066 117.105 447.937C116.183 449.022 115.8 450.527 116.273 451.877C116.664 452.986 118.005 452.601 118.932 452.7C146.747 455.661 157.992 470.142 223.085 458.206C247.688 453.695 246.543 460.278 263.949 453.778C287.984 444.801 284.062 446.781 288.067 445.008C286.719 443.293 269.795 423.518 264.858 415.429C262.957 412.313 263.175 412.691 260.176 415.186C240.776 431.325 171.971 465.483 196.931 450.349V450.347Z" fill="#FDE6B9"/>
    <path d="M231.522 432.015C230.159 430.971 204.675 414.037 197.644 410.201C194.593 408.536 190.358 418.225 184.326 424.747C177.232 432.415 176.915 442.846 178.499 443.251C182.654 444.318 196.319 450.465 200.155 448.543C229.461 433.869 200.495 449.182 231.522 432.015Z" fill="#FDE6B9"/>
    <path d="M257.883 457.179C258.155 457.357 269.714 460.113 273.487 460.404C288.339 461.547 286.924 457.218 316.115 461.25C317.123 461.389 318.291 461.639 318.44 460.219C318.53 459.348 318.05 459.317 315.656 458.784C314.324 458.487 314.889 457.31 315.814 457.497C319.958 458.329 320.111 459.189 320.793 456.39C321.198 454.722 320.906 455.087 316.203 454.538C315.632 454.47 314.752 454.644 314.828 453.818C314.9 453.037 315.782 453.289 316.338 453.307C320.708 453.447 321.574 454.259 321.466 452.756C321.412 452.007 322.721 448.236 316.127 449.671C315.767 449.75 315.245 449.874 315.096 449.374C314.912 448.749 315.449 448.641 315.899 448.479C320.206 446.928 321.542 450.258 321.934 445.965C322.044 444.762 322.143 443.389 320.287 443.441C318.761 443.481 317.222 443.335 315.71 443.704C315.38 443.785 314.858 444.028 314.716 443.445C314.59 442.926 315.096 442.813 315.438 442.651C318.347 441.274 321.45 443.25 322.492 440.907C324.474 436.452 322.591 433.651 321.376 433.867C314.052 435.174 308.612 432.285 307.462 437.638C307.442 437.733 301.2 444.242 298.671 446.71C294.088 451.185 291.635 443.493 283.688 448.137C283.407 448.301 283.054 448.344 282.732 448.434C274.295 450.78 266.467 454.844 257.883 457.179Z" fill="#FDE6B9"/>
    <path d="M251.695 210.695C253.871 205.858 250.786 208.256 251.194 204.395C251.707 199.533 254.256 198.554 252.591 196.394C247.972 190.407 255.097 186.78 253.628 180.223C251.794 172.049 264.066 176.385 260.113 163.321C259.395 160.95 257.503 160.014 255.271 159.688C251.965 159.199 251.25 162.073 250.361 163.306C248.278 166.19 247.857 161.834 246.088 159.692C242.461 155.302 244.149 151.59 240.936 147.668C235.826 141.431 230.539 146.737 224.504 140.056C219.786 134.832 213.664 143.152 207.751 135.669C207.132 134.888 206.639 134.931 205.937 135.507C203.887 137.185 202.078 139.021 201.453 141.721C199.729 149.167 187.102 149.855 192.779 162.399C202.072 182.941 189.922 186.447 217.943 208.364C221.413 211.078 225.478 211.964 229.886 210.715C243.919 206.74 246.066 197.692 247.722 198.734C249.562 199.893 236.861 220.087 222.855 216.284C217.549 214.844 218.314 212.916 215.549 215.13C214.465 215.998 216.478 216.291 217.862 218.854C221.856 226.249 244.48 226.733 251.7 210.693L251.695 210.695Z" fill="#FDE6B9"/>
    <path d="M180.134 404.306C176.017 404.108 168.853 405.733 151.03 403.424C137.4 401.66 137.431 401.471 137.553 400.839C137.868 399.206 153.726 404.201 177.052 403.148C180.766 402.979 182.452 401.523 183.534 398.47C183.714 397.968 184.393 397.511 183.257 396.641C179.839 394.019 175.4 389.351 171.476 389.117C156.338 388.221 148.954 387.134 147.912 378.539C147.831 377.86 147.772 377.097 146.809 376.845C144.546 376.247 142.305 375.389 139.947 375.464C120.644 376.071 120.736 376.94 120.637 376.01C120.518 374.883 122.059 375.056 122.869 375.009C130.976 374.534 139.108 372.959 147.169 375.371C147.716 372.383 146.231 370.7 144.033 368.887C138.385 364.229 132.207 360.933 124.966 359.651C118.086 358.431 108.521 355.745 100.068 356.093C89.6437 356.523 78.0855 363.984 75.9412 375.981C75.2212 380.015 74.9985 384.09 74.5642 388.136C74.211 391.445 73.635 394.906 75.156 398.24C78.1485 404.799 82.95 413.963 89.9857 415.428C97.0282 416.893 103.657 423.359 110.251 425.418C123.787 429.641 121.51 431.338 131.127 434.589C148.006 440.295 162.364 436.749 162.861 432.902C163.052 431.414 163.813 430.123 164.582 428.861C168.277 422.815 168.994 423.839 149.716 419.856C149.21 419.75 148.456 419.744 148.569 419.044C148.681 418.344 149.406 418.551 149.91 418.634C154.275 419.354 163.167 420.756 166.922 422.977C168.452 423.879 167.849 423.632 180.13 404.309L180.134 404.306Z" fill="#2576C7"/>
    <path d="M284.422 406.594C314.707 444.428 320.93 433.992 342.721 419.783C347.865 416.429 352.54 412.356 358.28 409.931C361.761 408.459 363.865 405.856 364.362 402.069C365.32 394.766 374.037 393.188 372.689 382.559C371.341 371.93 366.225 357.776 355.94 354.61C330.202 346.688 323.293 363.749 314.034 360.953C309.365 359.542 308.164 362.244 300.077 372.927C299.74 373.375 299.074 373.832 299.409 374.752C305.351 371.613 311.644 369.545 317.706 366.929C318.428 366.616 319.582 365.531 320.053 366.683C320.791 368.495 305.581 372.185 294.382 379.625C272.868 393.92 274.576 392.081 282.381 403.775C287.918 397.499 292.492 392.284 293.251 393.065C294.027 393.866 293.345 393.188 284.131 403.844C283.78 404.249 283.117 404.562 283.443 405.3C306.85 399.108 313.413 392.023 314.259 393.339C314.783 394.156 313.917 394.462 313.343 394.777C298.403 403.001 295.766 402.899 284.422 406.589V406.594Z" fill="#2576C7"/>
    <path d="M265.807 401.178C259.309 404.348 256.717 401.9 250.939 403.653C223.17 412.073 229.501 407.802 213.943 410.216C203.435 411.848 202.171 411.004 204.628 412.624C233.295 431.501 232.06 431.49 233.891 430.527C240.664 426.968 256.06 417.817 261.487 412.014C263.461 409.904 260.216 410.36 262.475 406.423C263.506 404.627 264.689 402.922 265.81 401.176L265.807 401.178Z" fill="#B5B6BA"/>
    <path d="M275.215 393.108C273.831 393.526 272.647 394.386 272.092 395.517C269.308 401.174 261.091 406.612 263.89 411.15C269.167 419.707 275.597 427.913 282.012 435.653C287.936 442.803 293.311 450.678 299.546 443.883C305.905 436.953 308.125 436.193 305.5 434.213C302.449 431.913 287.61 412.89 285.225 409.861C281.2 404.749 276.709 399.817 275.215 393.105V393.108Z" fill="#4C99E7"/>
    <path d="M170.662 445.669C174.878 445.439 176.107 444.951 176.303 440.825C176.872 428.798 180.708 427.394 184.844 421.621C196.933 404.741 197.952 407.473 196.832 404.667C195.414 401.114 192.521 398.761 190.003 396.11C186.473 392.391 188.972 393.894 169.456 423.95C166.522 428.468 164.002 433.028 163.291 438.568C162.661 443.475 163.505 445.669 170.662 445.669Z" fill="#4C99E7"/>
    <path d="M277.917 389.165C253.595 391.835 195.036 391.034 185.444 390.265C173.684 389.322 175.576 388.159 183.183 394.754C186.358 397.505 185.879 390.31 190.273 394.398C195.833 399.569 196.454 402.271 201.401 402.642C210.626 403.335 211.846 404.201 215.736 403.049C225.006 400.307 227.407 406.593 239.474 402.658C246.779 400.275 266.89 404.503 270.798 394.866C272.524 390.614 276.099 392.796 278.216 389.477C278.453 389.016 278.504 389.099 277.917 389.165Z" fill="#2576C7"/>
    <path d="M154.223 281.623C155.936 282.275 158.251 295.224 158.485 297.407C158.609 298.572 158.872 298.991 160.118 298.858C167.564 298.061 168.461 301.11 168.558 291.923C168.709 277.838 172.871 260.147 171.758 255.023C171.186 252.395 171.071 249.711 170.835 247.045C170.79 246.534 170.385 245.661 171.353 245.636C172.439 245.607 172.003 246.777 172.552 251.201C174.158 264.147 173.445 257.867 171.641 273.082C170.693 281.067 169.89 289.057 169.735 297.103C169.721 297.814 169.388 298.516 170.646 298.538C270.771 300.284 294.437 290.999 296.556 304.123C298.032 313.267 297.661 314.489 298.214 339.389C298.226 339.871 297.906 340.494 298.5 340.834C299.425 341.365 302.372 340.15 302.87 339.176C304.944 335.108 303.223 326.013 303.158 320.672C302.676 280.097 299.182 279.949 302.759 268.087C307.952 250.87 303.923 249.788 305.963 249.306C307.064 249.045 307.077 250.908 307.091 252.101C307.221 265.034 301.781 273.044 302.739 279.301C303.896 286.852 305.651 329.037 306.202 329.316C306.787 329.611 306.992 328.972 307.268 328.668C310.97 324.593 314.534 324.256 319.313 322.789C333.17 318.532 333.038 318.302 333.328 319.097C333.71 320.141 332.536 320.096 331.357 320.516C316.448 325.835 308.153 325.334 306.2 333.951C305.781 335.798 305.943 337.774 304.753 339.743C319.299 336.75 331.37 345.275 330.88 346.441C330.671 346.936 330.198 346.902 329.852 346.733C328.715 346.173 327.559 345.626 326.506 344.927C315.02 337.29 303.376 342.056 299.843 342.229C296.939 342.371 298.649 342.182 298.651 370.075C298.651 370.547 298.487 371.146 299.252 371.463C307.91 360.364 308.942 358.037 313.847 359.383C323.777 362.11 328.637 344.769 358.593 353.792C356.066 345.327 359.457 332.502 356.258 323.133C339.344 273.608 345.246 264.028 326.717 236.427C314.639 218.434 299.609 214.211 276.092 205.847C269.862 203.631 271.444 210.867 264.631 209.344C261.611 208.669 260.41 211.117 255.795 209.146C252.368 207.683 254.465 212.906 248.069 218.672C237.629 228.082 221.663 226.052 217.995 221.487C213.459 215.842 214.028 215.824 213.009 215.72C206.333 215.052 204.702 213.614 200.87 216.463C196.762 219.518 186.443 215.104 185.039 212.19C184.682 211.448 184.144 211.99 183.674 212.163C171.049 216.809 163.844 222.529 158.035 230.336C146.427 245.929 135.47 269.918 133.886 272.648C122.044 293.073 112.643 301.884 110.535 308.351C107.104 318.872 111.676 323.401 106.339 331.955C102.932 337.414 99.9196 347.222 101.006 353.564C101.317 355.376 102.305 354.107 107.9 354.968C125.846 357.729 135.645 359.536 143.912 366.911C147.32 369.953 146.65 371.666 144.825 346.961C144.742 345.838 144.267 345.401 143.158 345.579C127.43 348.119 126.51 352.752 125.54 351.002C125.264 350.5 125.95 350.18 126.922 349.517C135.776 343.48 144.728 345.282 144.4 343.302C141.353 324.899 142.721 324.596 141.533 324.724C138.408 325.059 127.93 320.181 126.533 323.849C125.516 326.519 138.055 330.725 137.063 332.554C136.793 333.053 136.403 332.81 136.037 332.617C128.922 328.859 124.269 326.267 125.234 323.412C127.457 316.835 142.478 326.328 141.905 322.62C141.286 318.64 141.623 314.588 140.946 310.607C140.37 307.219 141.538 301.153 146.047 300.617C149.501 300.208 152.907 299.416 156.392 299.22C157.288 299.171 157.803 299.186 157.565 297.879C156.674 293.006 155.715 288.159 154.223 283.425C154.055 282.892 153.656 282.323 154.223 281.616V281.623Z" fill="#00703F"/>
    <path d="M287.432 352.779C287.558 340.482 277.656 331.215 266.012 331.381C254.996 331.536 244.336 340.622 245.353 354.331C247.306 380.661 287.16 379.628 287.432 352.779Z" fill="#C875DD"/>
    <path d="M278.84 346.951C279.629 344.939 280.637 339.634 278.693 340.576C276.902 341.445 273.098 343.587 271.221 345.144C266.69 343.603 263.877 343.738 261.965 344.192C261.069 342.775 257.618 339.715 254.679 339.184C254.769 341.312 254.306 343.317 254.657 345.412C255.968 353.228 252.623 352 253.707 355.838C253.964 356.749 255.536 356.122 256.43 356.556C259.195 357.901 259.058 359.359 260.734 357.204C262.437 355.01 266.208 354.38 268.476 355.672C269.9 356.484 270.726 358.396 271.988 358.727C273.361 359.087 274.961 357.298 276.686 357.494C278.81 357.733 278.941 356.412 278.923 354.943C278.889 352.042 276.491 352.938 278.842 346.948L278.84 346.951Z" fill="#FFD200"/>
    <path d="M278.414 358.802C273.264 358.168 272.483 361.829 270.562 359.198C264.664 351.128 260.821 361.493 258.74 359.376C257.275 357.887 255.464 357.614 253.565 357.308C255.624 370.907 274.427 371.796 278.414 358.802Z" fill="white"/>
    <path d="M216.071 193.973C219.161 196.489 222.457 198.919 226.482 197.789C229.171 197.033 232.762 193.102 232.429 189.559C227.526 193.044 222.149 194.587 216.071 193.973Z" fill="white"/>
    <path d="M241.132 231.138C213.047 237.769 214.244 218.2 210.487 220.432C207.789 222.043 216.04 235.489 229.126 235.489C246.995 235.489 243.843 230.508 241.132 231.138Z" fill="#0A0430"/>
    <path d="M258.882 215.049C258.772 214.832 258.608 214.647 258.406 214.512C258.204 214.376 257.97 214.296 257.728 214.277C256.558 214.277 256.571 215.393 256.472 215.618C252.053 225.329 248.908 225.667 248.933 227.246C248.944 227.906 249.767 228.767 250.519 228.767C251.075 228.767 251.466 228.396 251.815 227.971C253.599 225.806 255.716 223.842 256.913 221.174C257.705 219.41 259.591 216.516 258.88 215.051L258.882 215.049Z" fill="#0A0430"/>
    <path d="M289.309 351.102C287.961 321.721 242.635 322.576 243.395 353.039C244.171 383.961 290.749 382.485 289.309 351.102ZM286.872 352.774C286.606 378.898 247.819 379.904 245.915 354.288C244.961 341.42 254.778 332.101 266.021 331.943C268.771 331.894 271.503 332.398 274.054 333.427C276.605 334.456 278.922 335.988 280.868 337.932C282.814 339.876 284.349 342.192 285.38 344.742C286.412 347.292 286.919 350.024 286.872 352.774Z" fill="#0A0430"/>
    <path d="M205.872 349.777C206.086 357.054 212.442 363.459 220.261 363.432C228.079 363.405 234.476 356.905 234.409 349.084C234.249 330.002 205.298 330.164 205.872 349.777ZM213.965 338.878C217.849 336.768 223.039 336.934 226.88 339.299C236.69 345.347 231.58 361.279 220.245 361.043C213.713 360.912 208.05 355.501 208.198 349.104C208.306 344.469 210.354 340.838 213.963 338.88L213.965 338.878Z" fill="#0A0430"/>
    <path d="M248.732 139.236C248.334 135.379 246.003 135.091 243.946 134.839C242.061 134.608 240.432 134.407 239.716 131.842C239.39 130.67 238.535 130.092 237.781 129.581C236.22 128.524 235.563 128.125 232.372 128.384C230.242 128.557 228.226 128.719 226.081 126.314C221.804 121.522 218.186 128.661 212.777 125.992C212.255 125.731 211.729 126.352 212.075 126.829C213.839 129.244 215.754 129.572 219.133 128.04C223.714 125.961 223.755 127.651 226.351 129.471C230.365 132.288 236.042 129.073 237.424 132.643C239.012 136.743 241.777 137.04 243.796 137.256C245.616 137.452 246.358 137.598 246.428 139.303C246.617 143.945 251.52 142.845 251.524 147.322C251.524 148.396 251.682 149.523 251.763 150.56C251.808 151.123 252.571 151.278 252.827 150.767C256.506 143.432 249.027 142.091 248.734 139.236H248.732Z" fill="#0A0430"/>
    <path d="M269.81 178.051C267.639 173.268 271.419 169.371 267.95 165.744C266.019 163.726 266.474 161.881 266.957 159.928C267.536 157.583 268.204 154.897 263.488 152.854C262.635 152.485 262.307 152.37 262.106 151.87C261.974 151.528 262.025 150.577 261.357 150.23C260.763 149.924 259.73 150.275 259.746 151.418C259.762 152.552 260.711 154.165 262.433 154.917C265.315 156.177 265.484 156.514 264.71 159.475C264.057 161.968 263.742 164.862 266.361 167.409C268.67 169.652 265.304 174.413 267.891 179.278C268.577 180.569 266.813 182.731 268.476 183.609C268.605 183.677 268.754 183.692 268.894 183.652C269.034 183.612 269.152 183.519 269.225 183.393C270.359 181.429 270.551 179.68 269.81 178.051Z" fill="#0A0430"/>
    <path d="M242.808 125.177C239.532 119.507 235.79 121.024 234.794 119.174C232.935 115.707 229.702 116.022 227.436 116.558C225.483 117.021 224.72 116.636 223.838 116.189C219.242 113.869 215.149 118.729 209.897 117.849C209.405 117.766 209.256 118.243 209.193 118.443C209.114 118.688 209.033 118.857 209.164 119.1C209.202 119.169 209.254 119.229 209.317 119.277C209.379 119.325 209.452 119.359 209.528 119.377C217.43 121.249 219.647 115.381 223.631 118.477C226.901 121.013 230.496 115.583 233.043 120.623C233.354 121.238 234.134 121.528 235.219 121.928C241.278 124.178 240.92 126.739 241.809 126.98C242.345 127.126 243.413 126.233 242.81 125.18L242.808 125.177Z" fill="#0A0430"/>
    <path d="M204.311 126.908C203.789 125.565 196.908 127.367 196.094 131.811C195.441 135.377 189.827 134.934 189.861 139.78C189.89 143.506 183.534 144.145 186.09 149.545C186.198 149.775 186.072 150.486 186.605 150.85C187.348 151.363 188.873 150.738 188.133 148.807C186.599 144.807 192.516 144.26 192.134 141.013C191.846 138.556 193.175 137.701 194.856 136.619C196.409 135.62 198.173 134.486 198.476 131.862C198.647 130.391 199.538 130.04 200.888 129.509C201.944 129.093 203.138 128.622 204.194 127.493C204.266 127.415 204.314 127.319 204.334 127.215C204.354 127.112 204.344 127.004 204.306 126.906L204.311 126.908Z" fill="#0A0430"/>
    <path d="M235.369 184.331C234.742 183.941 234.332 184.061 234.098 184.227C233.536 184.63 233.65 185.523 233.857 186.371C233.828 186.412 233.695 186.482 233.61 186.531C233.478 186.598 233.352 186.677 233.234 186.767C223.467 194.595 213.508 191.751 212.449 191.4C212.425 191.34 212.403 191.279 212.381 191.218C212.064 190.334 211.531 189.92 210.671 190.307C209.629 190.777 210.012 191.924 209.942 192.525C209.92 192.701 209.951 192.836 210.077 192.959C210.273 193.335 209.924 194.656 210.723 194.987C211.234 195.194 211.69 194.771 211.866 194.611C212.867 193.693 213.144 193.864 213.859 194.681C216.676 197.891 224.455 201.908 228.446 199.025C233.7 195.232 234.352 191.693 234.742 189.578C235.016 188.111 235.025 187.96 236.083 188.246C236.782 188.437 237.453 188.016 237.597 187.127C237.707 186.452 236.051 184.756 235.369 184.331ZM231.848 190.635C231.472 193.612 228.487 196.64 226.329 197.246C223.192 198.125 220.56 196.726 217.84 194.656C222.868 194.827 227.488 193.497 231.848 190.635Z" fill="#0A0430"/>
    <path d="M225.611 184.166C225.413 183.801 225.146 183.578 224.815 183.506C224.252 183.385 223.748 183.758 223.386 184.031C220.448 186.263 216.512 185.03 216.776 183.32C216.888 182.6 217.408 176.903 216.247 175.591C216.15 175.473 216.028 175.38 215.888 175.318C215.749 175.257 215.598 175.228 215.446 175.235C214.123 175.278 214.397 175.962 214.402 180.005C214.109 180.505 214.472 181.495 214.262 182.534C213.502 186.281 218.443 189.788 224.432 186.317C225.013 185.984 226.217 185.288 225.611 184.166Z" fill="#0A0430"/>
    <path d="M234.114 153.685C233.335 151.138 226.036 148.996 222.691 153.457C222.297 153.975 221.451 154.605 221.498 155.453C221.534 156.103 222.16 156.691 222.76 156.691C223.406 156.691 223.807 156.126 224.167 155.611C225.724 153.354 229.454 152.661 231.677 154.522C231.735 154.596 231.785 154.676 231.828 154.76C231.99 155.041 232.235 155.469 232.719 155.539C233.407 155.629 234.445 154.774 234.114 153.685Z" fill="#0A0430"/>
    <path d="M203.827 157.326C200.922 156.988 196.199 158.741 195.288 162.793C195.077 163.736 195.302 164.364 195.959 164.665C196.104 164.743 196.264 164.79 196.428 164.803C196.592 164.816 196.757 164.795 196.913 164.742C197.471 164.517 197.579 163.885 197.734 163.621C201.278 157.528 204.151 161.16 205.676 160.188C206.657 159.562 206.432 157.627 203.829 157.326H203.827Z" fill="#0A0430"/>
    <path d="M255.883 163.465C257.109 163.292 258.524 165.06 257.903 165.751C257.156 166.581 255.35 163.22 254.456 166.363C254.175 167.351 253.563 170.719 252.571 169.049C251.878 167.882 253.885 163.465 255.883 163.465Z" fill="#0A0430"/>
    <path d="M253.097 170.07C252.717 170.07 252.38 169.824 252.089 169.336C251.552 168.432 252.083 166.674 252.845 165.333C255.784 160.176 259.719 164.575 258.324 166.128C257.386 167.169 256.013 165.367 255.512 165.567C254.756 165.853 254.731 170.07 253.097 170.07ZM253.102 168.832C253.862 167.574 253.716 165.043 255.113 164.514C256.097 164.139 257.089 165.149 257.561 165.313C257.496 165.264 257.462 165.075 257.287 164.818C255.298 161.895 252.398 167.766 253.102 168.834V168.832Z" fill="#0A0430"/>
    <path d="M205.501 171.833C205.388 168.953 201.107 168.575 201.602 171.736C201.734 172.602 201.955 174.051 203.534 174.162C204.86 174.27 205.55 173.142 205.501 171.835V171.833Z" fill="#0A0430"/>
    <path d="M229.137 165.441C229.272 167.216 230.417 167.752 231.434 167.732C232.809 167.705 232.967 166.575 233.052 165.97C233.576 162.37 228.872 161.972 229.137 165.441Z" fill="#0A0430"/>
    <path d="M117.915 452.294C116.855 452.505 116.086 452.066 115.906 450.971C115.766 450.118 118.084 448.433 119.377 448.343C120.984 448.232 120.973 449.524 121.099 450.509C121.261 451.772 120.48 452.17 117.913 452.294H117.915Z" fill="#0A0430"/>
    <path d="M320.779 439.97C316.993 439.527 317.562 435.733 322.282 435.684C323.785 435.668 323.747 436.865 323.81 437.803C323.9 439.14 322.775 439.938 320.779 439.97Z" fill="#0A0430"/>
    <path d="M320.699 444.655C322.782 444.508 323.223 447.022 320.426 447.145C318.473 447.233 318.005 444.598 320.699 444.655Z" fill="#0A0430"/>
    <path d="M320.696 450.48C322.764 450.827 322.208 452.697 320.505 452.647C319.045 452.604 318.667 450.712 320.696 450.48Z" fill="#0A0430"/>
    <path d="M320.548 455.959C321.479 456.459 321.065 457.393 320.361 457.541C319.67 457.687 318.955 457.226 318.944 456.655C318.932 456.137 319.502 455.397 320.55 455.959H320.548Z" fill="#0A0430"/>
    <path d="M257.532 114.161C256.216 113.423 256.751 112.879 257.19 110.96C257.197 110.93 257.201 110.9 257.204 110.87C257.528 105.638 252.701 106.291 251.327 103.973C249.806 101.408 246.471 104.939 252.101 107.783C253.988 108.737 254.724 110.219 254.312 112.233C254.069 113.426 253.961 115.124 255.836 116.101C257.543 116.992 256.157 117.885 256.871 118.727C257.145 119.051 257.586 119.087 257.813 119.087C259.339 119.087 260.135 115.624 257.532 114.161Z" fill="#0A0430"/>
    <path d="M281.49 341.06C281.103 338.591 279.672 337.793 277.402 339.019C272.465 341.69 272.004 343.771 268.485 342.524C267.113 342.038 265.74 342.088 264.417 342.135C262.156 342.218 262.093 342.137 261.015 340.999C260.176 340.11 258.907 338.769 255.766 337.237C254.848 336.789 254.108 336.735 253.568 337.077C252.623 337.676 252.888 338.713 252.724 341.204C252.569 343.553 252.533 344.804 253.057 346.669C253.32 347.607 253.57 348.496 253.16 349.236C251.669 351.943 249.808 360.484 254.281 364.581C256.796 366.887 260.673 369.763 264.086 369.763C272.096 369.763 276.243 366.23 278.313 363.251C280.835 359.629 281.247 355.329 280.349 352.96C278.714 348.633 282.444 347.175 281.49 341.06ZM255.21 345.321C254.915 343.562 255.235 341.764 255.251 339.919C257.069 340.549 258.956 342.331 260.126 343.971C261.638 346.084 262.712 342.925 270.789 345.598C271.064 345.69 271.357 345.711 271.642 345.66C271.927 345.609 272.195 345.487 272.42 345.305C273.809 344.196 278.106 341.307 279.08 341.026C279.53 341.478 279.092 344.765 278.313 346.748C275.874 352.962 278.327 352.319 278.356 354.953C278.374 356.506 278.216 357.102 276.745 356.938C275.726 356.816 274.783 357.273 273.955 357.669C272.222 358.502 272.002 358.493 270.591 356.873C269.309 355.394 268.215 354.438 265.713 354.438C263.641 354.438 261.49 355.313 260.286 356.861C259.744 357.557 259.202 357.701 258.657 357.293C256.583 355.745 256.067 355.817 255.131 355.817C254.774 355.817 254.283 355.817 254.245 355.687C253.237 352.118 256.553 353.329 255.21 345.321ZM258.34 359.771C261.175 362.653 264.374 351.68 270.107 359.53C272.238 362.446 273.476 359.082 277.654 359.3C273.509 370.782 256.736 370.019 254.258 357.993C255.824 358.261 257.195 358.605 258.34 359.771Z" fill="#0A0430"/>
    <path d="M257.939 352.623C257.847 355.006 260.941 354.435 260.77 352.434C260.939 350.2 258.041 350.052 257.939 352.623Z" fill="#0A0430"/>
    <path d="M274.79 352.437C274.324 350.968 272.209 350.939 272.148 353.245C272.126 354.116 272.632 354.564 273.327 354.564C274.063 354.564 275.132 353.511 274.79 352.437Z" fill="#0A0430"/>
    <path d="M263.697 360.036C263.339 361.37 264.172 363.352 265.461 363.352C266.489 363.352 267.65 362.119 267.961 361.241C268.712 359.113 264.212 358.107 263.695 360.033L263.697 360.036Z" fill="#0A0430"/>
    <path d="M394.76 428.533C379.561 415.838 369.767 412.331 365.062 410.645C363.876 410.22 362.756 409.82 362.618 409.669C362.618 409.669 362.666 409.516 363.068 409.156C365.233 407.216 365.674 405.171 366.104 403.191C366.529 401.216 366.972 399.17 369.143 396.97C373.783 392.265 375.495 386.764 374.372 380.156C370.896 359.701 361.255 355.291 360.161 354.056C359.918 350.62 359.117 347.216 359.363 343.764C359.898 336.224 360.02 327.335 356.867 318.553C346.533 289.775 345.527 270.311 339.088 255.431C320.033 211.412 297.51 213.138 277.852 203.681C280.059 201.578 285.572 199.19 282.451 191.099C280.496 186.026 282.964 183.521 282.518 179.795C281.479 171.189 275.969 169.031 275.865 165.805C275.611 157.889 275.98 151.497 269.522 147.211C263.191 143.012 268.739 135.045 261.926 128.3C260.97 127.352 260.867 127.058 260.86 126.999C260.959 126.83 261.596 126.594 262.752 126.302C269.801 124.502 270.245 115.146 265.661 110.768C262.226 107.478 266.091 107.525 260.718 99.8101C254.679 91.1431 250.231 98.3769 247.862 94.4776C245.051 89.8539 238.328 88.8189 234.314 92.4459C232.553 94.0366 230.903 94.6959 228.62 94.7184C222.891 94.7769 220.778 99.0519 222.752 104.112C223.312 105.561 223.127 105.615 223.087 106.155C219.683 105.017 216.06 102.024 210.858 108.585C207.245 113.146 206.246 109.985 201.39 111.393C193.556 113.661 198.744 114.602 192.892 119.066C189.02 122.02 183.703 125.408 184.355 129.859C184.956 133.972 180.251 135.934 178.364 142.403C177.234 146.279 178.609 147.832 179.716 149.078C182.632 152.363 179.07 151.902 177.653 164.221C177.257 167.645 178.208 170.352 180.557 172.494C185.06 176.596 182.375 180.223 180.438 189.558C178.361 199.535 185.314 197.674 183.617 204.334C183.181 206.051 182.657 207.628 182.906 209.284C183.03 210.105 182.834 210.31 182.184 210.499C149.55 220.136 145.644 257.321 114.257 298.17C101.465 314.818 111.869 317.763 103.731 332.753C95.5388 347.843 100.916 353.925 98.5358 354.177C86.0213 355.493 75.6713 364.628 73.923 375.894C70.6313 397.096 72.6675 399.195 78.3488 408.454C73.824 410.6 69.6638 413.044 65.463 415.368C33.63 432.979 23.415 443.675 13.5218 452.034C10.815 454.325 9.06905 457.308 8.18255 461.156C4.2563 478.22 24.6075 467.579 34.899 471.479C96.666 494.867 88.9981 474.698 169.204 488.988C184.477 491.708 184.769 491.704 192.377 491.666C194.766 491.652 205.667 491.738 207.004 491.738C233.768 491.738 231.126 487.784 251.909 485.939C254.177 485.739 286.573 484.691 290.769 484.952C309.287 486.106 314.698 485.964 320.426 485.811C344.798 485.163 361.534 488.788 384.045 483.674C401.388 479.732 411.416 480.681 433.372 474.269C435.23 473.726 436.211 472.574 436.29 470.842C437.309 448.349 411.702 442.681 394.764 428.531L394.76 428.533ZM253.363 121.91C250.712 119.81 250.454 120.229 248.336 116.114C245.776 111.137 242.939 107.156 237.419 107.156C235.498 107.156 233.441 107.588 231.167 108.068C229.027 108.518 226.169 108.419 225.546 107.618C225.278 107.285 225.623 106.918 225.636 106.643C225.724 104.535 223.658 100.366 225.15 98.4646C226.925 96.1921 231.266 99.0631 236.252 94.2796C238.832 91.8024 243.76 92.7856 245.681 95.8006C247.313 98.3589 248.242 98.9866 251.252 98.2014C254.22 97.4296 256.344 98.2801 258.356 101.045C263.636 108.317 259.089 106.713 264.095 113.047C267.142 116.906 266.665 121.943 261.517 124.018C257.881 125.48 255.689 123.746 253.365 121.907L253.363 121.91ZM109.696 319.784C109.473 308.597 111.723 305.973 118.448 296.84C124.645 288.425 131.683 278.447 136.329 269.087C140.174 261.335 149.179 243.18 158.487 230.675C168.664 217.004 181.68 213.856 184.252 212.515C184.346 212.465 184.508 212.38 184.533 212.436C186.018 215.721 196.854 220.151 201.208 216.914C204.824 214.227 206.18 215.602 212.955 216.281C213.637 216.349 213.259 216.488 217.559 221.839C221.582 226.845 237.989 228.515 248.449 219.089C253.64 214.409 253.493 209.966 254.598 209.498C255.498 209.113 256.997 211.298 261.656 210.103C262.601 209.86 263.42 209.651 264.509 209.894C268.226 210.726 269.759 209.061 270.989 207.725C273.545 204.944 274.227 205.79 280.871 208.13C301.513 215.397 315.15 220.203 326.252 236.741C337.292 253.188 339.563 262.982 343.322 279.212C355.234 330.626 357.635 318.222 357.092 339.705C356.971 344.52 356.856 349.088 357.79 352.967C328.58 344.565 323.387 361.409 313.996 358.839C309.289 357.545 307.786 359.487 301.481 367.664C298.883 371.025 299.186 370.775 299.204 370.314C299.252 369.131 299.222 360 298.826 349.148C298.673 344.948 299.02 342.828 299.868 342.785C300.586 342.749 301.565 342.549 302.804 342.293C318.892 338.969 322.739 343.861 329.6 347.234C330.317 347.587 331.085 347.393 331.395 346.658C331.607 346.156 331.19 345.65 331.055 345.483C329.359 343.418 318.872 336.767 305.759 338.978C306.456 337.266 306.393 335.626 306.744 334.071C308.614 325.829 316.644 326.36 331.541 321.041C332.486 320.706 334.469 320.58 333.85 318.89C333.58 318.155 331.22 318.483 326.771 319.876C313.202 324.122 310.729 324.014 306.85 328.284C306.58 328.581 306.652 331.731 305.405 309.623C304.708 297.286 303.92 283.298 303.293 279.209C302.386 273.29 307.779 264.877 307.651 252.074C307.637 250.688 307.568 249.498 306.884 248.96C306.736 248.847 306.565 248.769 306.383 248.733C306.2 248.697 306.012 248.704 305.833 248.753C304.631 249.037 304.721 249.797 304.836 250.756C305.054 252.578 305.563 256.838 302.219 267.919C300.17 274.712 300.399 277.65 301.081 286.373C302.906 309.663 302.215 317.482 302.926 325.987C303.324 330.75 303.774 336.148 302.363 338.915C301.985 339.658 299.36 340.673 298.775 340.34C298.696 340.292 298.669 340.279 298.73 339.863C298.786 339.469 298.707 337.066 298.502 325.571C298.293 313.598 298.25 311.108 297.107 304.025C295.735 295.524 286.541 295.857 256.079 296.962C205.656 298.793 170.678 298.08 170.25 297.92C170.23 297.851 170.291 297.2 170.293 297.106C170.489 286.817 172.091 272.16 173.542 263.851C174.262 259.715 174.17 259.724 173.103 251.123C172.568 246.8 173.047 245.021 171.33 245.066C170.468 245.088 169.98 245.594 170.221 246.818C170.273 247.073 170.257 246.897 170.408 248.78C171.159 258.293 172.316 253.37 170.045 270.191C169.116 277.081 168.063 284.888 167.989 291.911C167.897 300.483 167.552 297.486 160.051 298.292C159.218 298.382 159.142 298.31 159.038 297.34C159.023 297.189 156.775 281.988 154.417 281.09C154.306 281.049 154.184 281.043 154.069 281.074C153.955 281.105 153.853 281.171 153.778 281.264C153.107 282.096 153.398 282.845 153.589 283.34C155.018 287.057 157.137 298.274 157.049 298.575C156.971 298.622 156.662 298.638 156.354 298.656C152.828 298.854 149.435 299.644 145.973 300.056C141.428 300.591 139.655 306.41 140.384 310.698C141.05 314.611 140.717 318.701 141.34 322.704C141.668 324.844 127.028 316.323 124.694 323.228C123.592 326.486 128.184 329.105 135.818 333.137C136.118 333.297 137.024 333.781 137.551 332.818C138.275 331.484 135.944 330.185 132.718 328.39C130.459 327.132 126.679 325.026 127.052 324.043C128.18 321.084 138.401 325.555 141.54 325.28C141.736 326.502 141.693 330.451 143.851 343.364C143.657 343.636 142.211 343.845 140.933 344.03C134.939 344.9 131.217 345.996 126.164 349.333C125.412 349.83 124.555 350.388 125.041 351.263C125.167 351.491 125.378 351.803 125.772 351.907C127.426 352.334 128.751 348.464 143.241 346.124C143.97 346.007 144.195 346.156 144.258 346.991C145.129 358.745 145.907 366.194 145.745 367.85C145.428 367.578 144.85 366.984 144.283 366.482C135.879 358.983 126.058 357.183 107.984 354.402C102.476 353.552 101.762 354.65 101.56 353.459C100.498 347.261 103.463 337.619 106.816 332.244C109.849 327.384 109.772 323.687 109.694 319.775L109.696 319.784ZM247.929 201.101C248.357 200.124 248.831 198.77 248.019 198.257C245.423 196.632 244.437 206.006 229.729 210.173C225.557 211.354 221.71 210.596 218.288 207.92C190.424 186.122 202.675 182.912 193.29 162.169C187.796 150.023 200.198 149.627 202 141.847C202.601 139.25 204.416 137.475 206.291 135.941C206.781 135.536 206.914 135.52 207.308 136.019C213.392 143.719 219.743 135.626 224.084 140.429C230.253 147.265 235.613 142.063 240.497 148.023C241.969 149.819 242.356 151.578 242.765 153.441C244.104 159.545 245.033 158.245 246.962 162.36C247.558 163.631 248.071 164.729 249.014 164.817C249.806 164.885 250.422 164.176 250.816 163.634C251.727 162.369 252.29 159.815 255.185 160.243C257.618 160.603 259.01 161.633 259.571 163.483C263.36 176 251.135 171.689 253.077 180.344C254.495 186.676 247.27 190.42 252.143 196.736C253.536 198.54 251.153 199.395 250.634 204.334C250.442 206.145 250.951 206.816 251.536 207.394C251.948 207.806 252.242 208.098 251.18 210.461C244.293 225.767 222.236 225.779 218.353 218.583C217.678 217.334 216.854 216.578 216.31 216.079C216.11 215.897 215.86 215.674 215.788 215.674C215.788 215.674 215.806 215.638 215.896 215.561C218.319 213.624 217.25 215.341 222.704 216.821C234.362 219.989 245.324 207.032 247.929 201.094V201.101ZM117.535 448.297C125.781 438.613 129.062 448.715 139.342 443.711C141.131 442.843 156.908 446.897 158.165 446.58C163.928 445.165 168.803 448.427 174.296 449.71C183.338 451.823 184.256 447.626 195.527 450.545C190.934 453.375 190.957 453.699 190.986 454.102C191 454.214 191.041 454.321 191.107 454.413C191.174 454.504 191.262 454.578 191.364 454.626C193.855 455.702 246.59 427.577 261.395 414.887C262.093 414.293 262.754 413.728 262.961 413.762C263.211 413.802 263.778 414.731 264.379 415.717C268.854 423.05 282.525 439.187 287.165 444.785C284.091 446.112 286.87 444.614 263.756 453.247C246.55 459.675 247.614 453.134 222.988 457.65C158.179 469.532 146.733 455.092 118.995 452.138C118.106 452.043 117.033 452.331 116.806 451.688C116.417 450.583 116.696 449.287 117.537 448.299L117.535 448.297ZM277.262 389.797C275.3 391.916 271.977 390.461 270.278 394.652C266.539 403.873 246.719 399.704 239.3 402.12C227.326 406.028 225.128 399.681 215.579 402.507C213.023 403.263 211.691 403.115 208.133 402.719C198.645 401.657 198.987 402.73 194.51 397.895C193.278 396.541 191.994 395.236 190.66 393.982C186.745 390.344 185.732 394.738 184.565 394.83C184.011 394.877 184.259 394.754 178.287 390.128C206.671 392.488 258.835 391.718 277.267 389.795L277.262 389.797ZM177.367 445.156C177.797 444.53 182.076 446.425 184.121 447.23C180.821 447.876 177.662 448.259 174.642 447.156C175.661 446.774 176.654 446.195 177.367 445.156ZM184.738 425.124C189.969 419.47 194.402 410.576 196.922 410.576C198.425 410.576 227.479 429.892 230.465 431.951C201.449 448.018 228.109 433.908 199.903 448.034C196.352 449.811 182.54 443.682 178.676 442.717C177.617 441.776 178.127 432.268 184.738 425.124ZM261.427 410.285C261.647 410.769 261.722 410.931 261.071 411.626C255.604 417.474 239.933 426.71 233.518 430.083C232.321 430.724 233.054 430.79 204.641 411.957C206.351 411.725 208.777 411.581 214.024 410.769C229.612 408.35 223.204 412.643 251.099 404.188C256.272 402.62 258.839 404.516 264.309 402.437C261.697 406.422 260.444 408.137 261.427 410.285ZM299.126 443.5C293.273 449.876 288.281 442.339 282.44 435.292C276.972 428.693 269.975 419.951 264.363 410.852C261.857 406.787 269.831 401.371 272.591 395.762C272.99 394.952 273.782 394.272 274.805 393.845C276.475 400.437 280.966 405.376 285.484 411.109C296.804 425.471 303.209 433.195 305.153 434.66C307.199 436.205 305.734 436.3 299.123 443.5H299.126ZM320.919 453.074C320.719 453.112 320.168 453.049 319.628 452.988C318.854 452.903 317.792 452.786 316.352 452.741C315.859 452.723 315.173 452.538 314.657 452.966C314.174 453.368 314.126 454.21 314.518 454.653C314.959 455.15 315.697 455.042 316.133 455.092C317.522 455.254 320.197 455.492 320.352 455.582C320.395 455.76 319.967 457.551 319.706 457.706C319.43 457.868 317.965 457.349 315.92 456.939C314.239 456.597 313.494 458.879 315.528 459.329C317.976 459.871 317.904 459.853 317.873 460.157C317.846 460.42 317.778 460.595 317.668 460.681C316.752 461.394 303.286 457.614 285.943 459.524C276.747 460.537 272.803 460.271 259.982 457.151C267.772 454.779 275.147 451.001 282.878 448.97C283.43 448.826 283.673 448.787 283.965 448.616C291.62 444.143 294.144 451.904 299.058 447.107C299.146 447.021 307.907 438.215 308.009 437.749C308.641 434.801 310.493 434.714 314.612 434.79C322.064 434.923 321.371 433.886 322.116 434.835C322.838 435.758 323.234 437.839 321.974 440.672C321.167 442.483 318.379 440.759 315.053 442.197C314.752 442.328 313.946 442.663 314.165 443.57C314.192 443.709 314.248 443.842 314.329 443.958C314.41 444.075 314.515 444.173 314.637 444.247C315.026 444.474 315.443 444.346 315.839 444.242C316.874 443.97 317.936 443.993 319.052 444.002C320.276 444.008 320.897 443.912 321.196 444.231C321.653 444.717 321.286 447.374 320.937 447.647C320.519 447.966 318.701 446.864 315.575 447.986C315.206 448.112 314.23 448.448 314.549 449.528C314.842 450.52 315.877 450.293 316.237 450.214C322.591 448.83 320.595 452.322 320.915 453.074H320.919ZM295.888 341.78C296.876 353.309 296.156 363.08 296.858 373.079C297.006 375.194 292.925 378.374 289.057 380.642C279.517 386.237 282.345 386.676 277.334 387.023C252.74 388.721 227.96 389.885 173.648 386.906C145.599 385.367 150.479 385.607 147.147 348.068C144.13 314.006 139.445 303.689 147.091 302.362C160.505 300.031 174.233 300.827 187.802 300.908C220.065 301.082 254.378 298.917 257.856 299.122C298.694 301.514 295.98 287.906 295.888 341.78ZM189.593 396.493C192.174 399.213 194.939 401.443 196.321 404.903C197.214 407.144 196.107 404.924 184.385 421.29C180.31 426.967 176.316 428.6 175.738 440.795C175.562 444.508 174.743 444.879 170.642 445.104C164.101 445.104 163.228 443.455 163.844 438.635C164.513 433.44 166.756 429.127 169.924 424.253C189.627 393.912 186.718 393.464 189.591 396.495L189.593 396.493ZM358.06 409.41C352.266 411.86 347.528 415.976 342.413 419.31C320.426 433.645 314.801 443.453 285.367 406.877C295.982 403.468 298.916 403.193 313.611 395.273C314.545 394.772 314.819 394.558 314.945 394.09C315.035 393.752 314.963 393.399 314.729 393.037C313.287 390.791 308.771 397.856 284.273 404.496C284.372 404.406 284.466 404.313 284.557 404.215C293.75 393.579 294.914 393.973 293.654 392.675C292.481 391.462 289.687 394.646 282.44 402.856C275.222 392.18 273.84 393.941 294.693 380.095C300.692 376.112 307.858 373.205 313.091 371.084C317.967 369.108 320.138 368.192 320.559 367.198C320.813 366.595 320.37 365.864 319.787 365.666C318.941 365.38 318.019 366.179 317.483 366.413C311.708 368.903 305.795 370.874 300.111 373.754C300.248 373.586 300.388 373.446 300.525 373.266C308.654 362.529 309.611 360.205 313.87 361.492C323.583 364.426 330.169 347.265 355.774 355.147C365.658 358.189 370.761 371.853 372.131 382.628C373.445 392.987 364.796 394.423 363.804 401.994C363.343 405.5 361.412 407.995 358.062 409.41H358.06ZM101.616 356.616C109.617 356.616 118.327 359.035 124.868 360.196C131.512 361.375 137.663 364.356 143.675 369.313C145.759 371.032 146.891 372.438 146.699 374.645C138.732 372.465 130.655 373.984 122.836 374.441C122.051 374.486 120.959 374.371 120.374 375.032C120.254 375.173 120.166 375.338 120.115 375.516C120.063 375.693 120.051 375.88 120.077 376.063C120.251 377.714 120.287 376.639 139.963 376.018C141.729 375.966 143.403 376.45 145.183 376.965C147.154 377.534 147.199 377.325 147.35 378.601C148.47 387.864 156.804 388.807 171.438 389.673C174.28 389.842 177.533 392.594 180.402 395.021C183.464 397.609 183.514 397.319 183.194 397.879C183.118 398.005 183.053 398.138 182.999 398.275C181.937 401.263 180.317 402.431 177.02 402.579C162.652 403.227 151.186 401.582 144.335 400.599C138.867 399.814 137.216 399.575 136.995 400.727C136.709 402.23 138.354 402.345 150.954 403.976C167.343 406.098 174.908 404.894 179.117 404.845C176.834 408.447 174.568 412.061 172.32 415.685C169.46 420.287 168.027 422.597 167.591 422.676C166.954 422.638 166.589 420.818 150.495 418.149C149.123 417.922 148.88 417.881 148.461 418.178C148.339 418.269 148.236 418.383 148.159 418.515C148.082 418.646 148.032 418.792 148.013 418.943C147.829 420.093 148.97 420.278 149.399 420.356C161.466 422.584 165.579 423.47 166.054 424.573C166.524 425.669 162.731 429.507 162.303 432.817C162.231 433.373 161.696 433.987 160.8 434.547C154.718 438.347 136.581 438.239 123.196 430.313C120.638 428.798 117.992 427.23 110.42 424.868C103.576 422.732 97.476 416.399 90.1028 414.866C83.4293 413.476 78.6705 404.573 75.6713 397.996C73.9995 394.328 74.9378 390.488 75.4755 384.554C75.7298 381.764 75.9953 378.878 76.497 376.07C78.5581 364.525 89.6978 356.616 101.616 356.616ZM89.9115 417.461C100.921 420.845 96.0203 422.285 112.108 428.198C115.332 429.381 118.374 430.499 121.434 432.344C132.214 438.847 144.679 439.882 153.782 440.638C161.428 441.272 161.178 441.173 161.104 442.58C161.081 442.978 161.057 443.421 161.214 443.842C156.239 444.582 158.84 443.943 141.747 440.996C137.292 440.233 138.28 443.783 127.77 441.743C120.523 440.332 114.882 444.663 114.198 450.871C113.993 452.743 108.578 449.235 96.7673 453.287C89.574 455.758 84.327 452.518 83.9693 455.072C83.5328 458.174 94.8165 456.935 97.701 455.794C105.101 452.869 113.024 453.065 131.602 456.633C137.096 457.688 150.833 464.384 173.675 464.513C177.041 464.526 187.496 467.026 217.844 461.129C231.581 458.46 252.26 457.263 265.209 460.942C281.78 465.653 295.672 458.172 322.805 465.01C337.135 468.621 353.706 471.591 367.973 466.223C370.309 465.345 369.308 462.798 367.271 463.586C354.399 468.569 340.19 465.59 322.202 461.828C322.078 461.804 320.165 461.381 320.118 461.498C320.159 460.773 320.003 460.346 320.55 460.123C321.783 459.619 322.528 458.6 322.593 457.328C322.71 454.991 324.35 452.394 322.559 449.737C322.94 449.219 324.044 448.416 323.754 446.902C322.771 441.722 327.647 437.474 324.177 433.6C327.37 432.497 330.396 430.742 333.861 428.002C335.819 426.454 338.026 425.162 340.157 423.916C350.03 418.138 347.163 417.825 358.514 412.106C359.448 411.635 360.161 411.602 361.059 411.991C393.09 425.837 383.429 428.803 416.6 446.382C427.063 451.926 433.622 461.646 433.311 471.141C433.286 471.807 433.01 471.488 432.186 471.697C414.92 476.208 408.541 475.99 382.785 481.01C371.236 483.262 366.457 484.198 349.134 483.656C325.712 482.927 316.718 483.172 311.343 483.318C293.123 483.815 309.392 481.32 256.574 482.938C235.979 483.532 230.82 490.268 201.692 489.031C198.35 488.889 194.93 488.97 190.437 489.008C181.912 489.083 173.495 486.866 165.305 485.613C110.45 477.196 121.774 480.632 101.612 480.974C74.2515 481.442 63.1635 479.43 35.655 469.028C25.8113 465.309 10.4393 472.682 10.5473 465.563C10.6148 461.36 12.2708 457.846 15.7538 454.507C39.2708 431.966 77.5838 411.451 80.9183 411.793C83.8073 415.584 86.6378 416.453 89.9115 417.461ZM205.321 113.456C213.754 115.646 212.543 103.534 220.954 108.002C225.641 110.495 226.606 112.16 233.864 109.978C241.35 107.728 243.922 113.488 247.531 119.788C251.268 126.306 262.777 126.389 263.373 137.689C264.338 156.071 273.062 142.016 273.399 165.319C273.498 172.107 282.397 173.988 279.472 184.39C277.78 190.411 282.948 194.929 279.773 198.529C274.817 204.14 272.891 201.382 269.86 205.29C269.403 205.875 267.797 207.743 266.276 207.061C265.076 206.521 264.991 205.022 265.857 199.766C266.458 196.121 264.102 193.509 262.984 190.683C262.239 188.811 258.999 190.366 261.834 194.27C265.166 198.857 261.778 203.099 263.119 206.901C260.203 207.479 257.444 207.988 254.695 206.561C250.366 204.316 257.654 199.672 253.768 194.326C251.14 190.703 256.655 187.666 255.662 179.348C255.489 177.899 256.07 176.963 257.665 176.117C266.705 171.333 263.308 157.176 255.154 157.615C253.028 157.732 250.998 158.879 249.488 160.792C247.196 157.795 245.024 155.14 244.858 151.373C244.673 147.155 239.933 142.326 232.593 141.883C224.932 141.422 226.174 134.127 217.113 136.568C212.363 137.849 210.746 136.051 209.443 134.604C208.338 133.376 207.193 132.104 204.745 133.985C197.961 139.201 201.32 141.633 196.361 145.64C190.532 150.35 187.37 155.09 190.901 162.932C198.175 179.093 191.767 188.361 208.559 202.914C211.517 205.477 214.341 208.395 217.775 210.548C216.411 212.623 213.63 213.876 211.209 213.444C205.717 212.463 204.023 212.094 200.281 214.432C198.575 215.498 196.971 216.515 195.212 214.958C192.156 212.254 199.246 207.41 193.943 203.78C190.255 201.256 196.87 197.795 191.967 191.799C189.236 188.458 192.161 181.445 190.167 181.445C190.09 181.444 190.015 181.46 189.944 181.49C188.725 182.014 188.687 183.335 188.671 183.897C188.439 191.9 190.176 193.759 191.213 194.87C191.839 195.539 192.028 195.741 191.387 197.278C190.289 199.906 189.31 203.74 193.452 206.678C193.873 206.975 193.763 207.441 193.169 208.883C192.586 210.301 191.812 212.186 192.397 214.355C189.267 214.04 186.34 211.982 185.384 209.324C184.36 206.478 189.256 202.219 183.858 196.697C178.161 190.868 191.609 178.738 181.613 169.967C180.292 168.811 179.831 167.249 180.071 164.743C181.073 154.301 185.566 151.475 181.799 147.888C176.487 142.83 187.663 136.08 186.781 130.113C185.939 124.432 196.827 121.66 198.398 116.039C199.187 113.213 204.146 113.144 205.334 113.452L205.321 113.456Z" fill="#0A0430"/>
    <g clip-path="url(#clip1_3464_66906)">
      <mask id="mask0_3464_66906" style="mask-type:luminance" maskUnits="userSpaceOnUse" x="152" y="307" width="20" height="24">
        <path d="M169.168 307.848L152.381 309.859L154.897 330.859L171.684 328.848L169.168 307.848Z" fill="white"/>
      </mask>
      <g mask="url(#mask0_3464_66906)">
        <path d="M170.379 325.595L155.429 327.387L155.831 330.746L170.781 328.955L170.379 325.595Z" fill="#1B1B1D"/>
        <path d="M160.775 308.854C156.146 309.408 152.81 313.439 153.337 317.839C153.864 322.239 158.058 325.367 162.687 324.813C167.316 324.258 170.652 320.227 170.125 315.827C169.598 311.428 165.403 308.299 160.775 308.854ZM162.266 321.301C159.767 321.601 157.493 319.84 157.198 317.377C156.903 314.914 158.696 312.666 161.196 312.367C163.695 312.067 165.97 313.828 166.266 316.291C166.561 318.754 164.767 321.001 162.266 321.301Z" fill="#1B1B1D"/>
      </g>
    </g>
  </g>
  <defs>
    <clipPath id="clip0_3464_66906">
      <rect width="444" height="540" fill="white"/>
    </clipPath>
    <clipPath id="clip1_3464_66906">
      <rect width="16.9897" height="21.2372" fill="white" transform="translate(152.381 309.859) rotate(-6.83306)"/>
    </clipPath>
  </defs>
</svg>
