<svg width="338" height="338" viewBox="0 0 338 338" fill="none" xmlns="http://www.w3.org/2000/svg">
  <path d="M8.92384 203.08C8.92047 210.904 9.32993 218.722 10.1522 226.502C11.6266 236.827 9.30971 255.619 10.3628 267.865C11.8406 285.18 4.40636 316.405 16.4743 322.944C24.6938 327.398 88.4794 322.161 109.119 324.641C121.409 326.119 163.143 324.429 183.611 324.217C195.121 324.099 221.429 326.33 247.978 326.33C274.527 326.33 305.962 325.206 318.256 325.694C330.55 326.183 326.176 322.299 327.17 309.038C328.164 295.777 325.198 293.302 325.198 293.302C265.12 271.178 307.917 288.121 248.404 266.173C248.404 266.173 156.815 235.582 152.594 234.106C148.373 232.63 123.057 222.923 98.3603 212.37C73.6632 201.816 52.3699 201.643 26.8657 195.68C13.3133 192.529 8.84633 197.196 8.92384 203.08Z" fill="white"/>
  <path d="M299.914 197.534C300.369 203.307 300.847 207.659 298.933 213.193C296.068 221.493 294.161 221.267 291.785 222.398C291.738 222.422 291.524 222.26 291.527 222.196C292.95 200.474 291.032 214.386 293.324 195.017C293.457 193.896 293.529 189.734 293.721 187.65C294.188 182.556 293.453 181.572 293.929 178.645C295.15 171.093 293.674 171.836 297.194 185.994C299.587 195.639 299.777 195.81 299.914 197.534Z" fill="#FDE6B9"/>
  <path d="M291.627 146.075C294.634 145.984 295.391 145.034 294.776 152.113C294.776 152.156 293.734 164.216 293.765 164.538C293.948 166.738 292.754 169.739 292.825 173.366C292.865 175.352 291.797 179.115 292.115 182.284C292.55 186.621 290.624 202.54 290.621 202.58C290.142 208.262 291.45 222.527 284.944 250.097C283.983 254.171 283.699 256.837 282.585 256.603C266.803 253.211 272.62 253.255 262.122 250.66C236.005 244.21 252.417 247.315 234.517 242.693C231.573 241.87 228.703 240.799 225.94 239.492C225.238 239.217 223.153 238.838 219.166 237.567C211.131 235.008 213.97 237.69 217.439 222.571C222.139 202.088 221.573 176.897 221.428 145.004C221.428 143.509 221.042 143.477 225.933 144.048C239.595 145.646 234.124 144.363 238.659 145.068C242.728 145.555 246.822 145.807 250.922 145.824C257.509 146.547 253.817 145.577 255.234 150.19C256.09 152.979 256.486 155.287 258.968 156.057C261.866 156.955 262.154 154.927 262.911 155.72C263.924 156.255 265.032 156.585 266.173 156.691C267.939 156.788 268.07 155.511 268.679 156.162C269.447 156.791 270.402 157.147 271.395 157.173C272.388 157.2 273.361 156.895 274.161 156.307C274.372 156.138 274.46 156.138 274.697 156.327C275.059 156.662 275.489 156.915 275.958 157.07C276.426 157.225 276.922 157.277 277.413 157.224C277.903 157.171 278.377 157.013 278.801 156.761C279.225 156.509 279.59 156.169 279.872 155.764C280.846 153.448 281.277 150.939 281.132 148.431C281.016 146.539 281.589 146.374 283.127 146.36C284.87 146.338 285.274 146.271 291.627 146.075Z" fill="white"/>
  <path d="M286.781 143.961C286.945 144.187 287.091 144.424 287.216 144.674C285.531 144.874 283.699 144.824 282.894 144.861C281.659 144.916 281.927 143.666 280.688 144.579C279.45 145.493 279.526 148.623 279.509 150.069C279.465 151.477 279.212 152.87 278.759 154.204C278.634 154.589 278.381 154.921 278.043 155.144C277.705 155.366 277.3 155.468 276.897 155.431C276.494 155.394 276.115 155.22 275.823 154.94C275.53 154.659 275.343 154.287 275.29 153.886C274.469 149.589 273.751 148.354 275.434 144.322C275.465 144.173 275.443 144.019 275.372 143.885C275.3 143.752 275.184 143.648 275.044 143.591C274.904 143.534 274.748 143.528 274.604 143.574C274.46 143.62 274.336 143.715 274.255 143.843C273.15 146.603 272.467 147.995 273.01 151.088C273.419 153.419 274.031 154.627 272.578 155.163C272.23 155.319 271.852 155.398 271.47 155.393C271.088 155.389 270.712 155.301 270.368 155.137C270.023 154.973 269.718 154.735 269.474 154.442C269.231 154.148 269.054 153.805 268.956 153.436C267.763 146.013 268.753 148.315 269.39 143.688C269.402 143.58 269.384 143.471 269.337 143.374C269.29 143.276 269.217 143.193 269.126 143.135C269.034 143.077 268.928 143.045 268.82 143.044C268.712 143.042 268.605 143.071 268.512 143.127C268.388 143.201 268.295 143.319 268.253 143.457C267.842 144.344 267.491 145.257 267.203 146.19C266.479 150.044 266.677 147.907 267.276 153.773C267.34 154.411 267.476 154.531 266.265 154.924C265.795 154.856 265.33 154.758 264.873 154.632C263.356 154.506 263.136 152.937 262.836 151.328C261.9 146.303 263.385 146.805 263.806 143.764C263.822 143.61 263.781 143.455 263.69 143.33C263.6 143.204 263.467 143.116 263.316 143.081C263.165 143.047 263.006 143.069 262.87 143.144C262.735 143.22 262.632 143.342 262.581 143.489C261.344 146.979 260.559 147.563 260.965 150.061C261.592 153.968 261.639 153.867 261.302 154.115C261.059 154.295 260.78 154.421 260.484 154.483C260.188 154.545 259.882 154.541 259.587 154.473C259.292 154.405 259.016 154.273 258.777 154.087C258.538 153.901 258.342 153.666 258.204 153.397C257.717 152.481 257.331 151.515 257.053 150.516C256.239 147.54 256.315 148.556 256.618 146.418C256.899 145.103 257.423 143.853 258.163 142.731C259.29 140.594 259.52 139.263 261.643 138.891C263.001 138.651 263.198 138.619 263.442 138.737C265.107 139.541 265.918 138.756 268.41 138.774C269.084 138.774 269.589 139.679 271.149 139.149C276.418 137.347 274.496 138.566 278.011 139.149C278.998 139.317 280.169 138.562 281.32 139.032C283.44 139.888 283.58 140.304 286.781 143.961Z" fill="#FDE6B9"/>
  <path d="M285.008 194.457C285.725 194.866 285.851 193.951 278.056 204.014C276.103 206.542 262.595 224.089 260.861 225.547C260.381 226.566 259.627 226.809 253.747 225.367C252.599 225.085 253.587 225.535 250.254 202.742C250.109 201.748 253.398 201.451 254.667 201.194C257.755 200.568 257.6 200.417 257.62 201.103C257.905 210.801 258.048 205.652 258.507 212.544C258.844 217.725 259.058 215.712 274.878 200.301C282.473 192.903 282.124 192.981 282.917 193.392C283.598 193.759 284.329 194.069 285.008 194.457Z" fill="#00703F"/>
  <path d="M276.119 129.881C277.576 131.418 281.386 136.906 280.592 136.987C274.725 137.585 278.511 136.331 274.641 136.313C273.224 136.311 271.825 136.626 270.546 137.236C269.829 137.573 269.599 136.975 268.634 136.899C265.626 136.655 265.699 137.509 264.305 137.093C260.115 135.839 258.874 139.027 257.346 139.103C256.065 139.167 254.426 140.07 253.503 139.912C251.887 139.632 250.502 140.08 249.16 139.743C248.569 139.556 247.942 139.508 247.329 139.604C246.716 139.7 246.134 139.937 245.629 140.296C245.123 140.656 244.708 141.128 244.416 141.675C244.123 142.222 243.962 142.83 243.945 143.45C243.967 143.765 243.888 143.767 243.65 143.752C238.343 143.449 237.146 142.628 234.924 143.078C233.861 143.168 232.79 143.111 231.743 142.909C224.386 142.35 220.205 141.137 219.993 143.302C219.555 147.776 219.993 146.606 219.912 147.078C219.612 148.753 220.027 150.436 219.833 152.123C219.637 153.757 219.58 155.405 219.664 157.05C219.833 159.936 219.664 166.991 219.664 168.233C220.031 174.691 219.992 181.166 219.55 187.619C218.145 210.749 218.598 201.278 217.513 210.404C216.839 216.121 216.738 219.516 215.686 219.536C214.477 219.585 213.269 219.414 212.121 219.031C209.73 218.177 204.493 217.422 200.211 216.101C199.465 215.87 196.494 214.69 195.234 214.311C191.161 213.086 191.161 214.648 187.348 212.508C183.671 210.446 182.933 210.215 182.106 210.471C180.957 210.827 179.511 209.588 179.132 208.574C178.753 207.56 178.925 207.354 180.829 204.405C181.671 203.108 180.52 201.598 182.421 199.244C183.385 198.049 183.25 197.013 183.198 194.433C182.891 192.772 182.256 191.188 181.331 189.774C179.952 187.663 179.695 185.186 178.955 182.529C177.994 179.085 177.027 177.993 177.507 173.43C178.675 162.337 177.339 171.425 179.942 159.682C180.03 159.286 179.993 158.671 179.538 158.63C178.466 158.531 178.801 158.216 176.911 165.247C175.777 169.46 177.659 166.815 170.643 165.435C167.204 164.761 167.067 165.824 168.739 161.615C169.75 159.05 170.291 159.16 172.489 155.235C172.523 155.132 172.593 155.045 172.686 154.989C172.779 154.934 172.888 154.913 172.995 154.932C176.702 155.1 176.946 153.971 179.445 152.529C181.695 151.232 181.823 147.681 180.921 145.338C180.385 143.942 180.318 143.99 180.486 143.545C180.815 142.991 181.02 142.374 181.089 141.734C181.157 141.095 181.087 140.448 180.884 139.838C180.708 139.16 180.365 138.537 179.887 138.025C179.497 137.688 179.587 137.282 179.807 136.82C180.384 135.826 180.558 134.65 180.294 133.532C180.029 132.414 179.346 131.441 178.385 130.811C177.543 130.328 178.776 130.37 178.328 128.467C177.122 123.355 172.346 124.55 171.433 124.353C172.892 121.545 181.735 117.677 181.907 117.562C184.054 116.123 192.522 112.055 192.809 112.001C192.753 113.41 191.168 116.979 192.268 121.138C193.86 127.151 194.693 128.83 198.718 133.217C200.214 134.848 206.277 137.059 207.947 133.057C208.746 130.828 209.411 128.554 209.94 126.246C210.127 125.547 210.215 125.023 209.566 124.816C208.368 124.433 208.409 125.284 207.696 127.723C206.983 130.161 206.823 132.833 204.98 133.322C204.025 133.554 203.024 133.512 202.092 133.201C201.16 132.889 200.335 132.322 199.711 131.563C197.712 129.614 196.156 127.257 195.148 124.654C193.294 119.094 193.383 118.61 193.592 116.647C193.805 113.183 195.272 109.916 197.721 107.457C198.934 106.069 203.809 101.258 204.191 103.838C204.279 104.47 204.289 105.11 204.223 105.743C204.223 105.991 203.357 106.202 202.707 106.486C200.894 107.275 199.107 110.52 198.632 113.226C198.157 115.933 201.008 118.787 203.63 119.786C207.384 121.207 204.826 119.761 208.936 121.535C210.264 122.108 210.621 122.167 211.234 123.557C213.912 129.571 212.385 132.879 214.06 132.887C214.623 132.887 214.796 132.343 214.796 131.8L215.349 131.773C215.332 132.341 215.435 132.907 215.652 133.433C216.043 134.016 217.017 133.77 216.945 132.51C216.909 129.746 217.321 126.995 218.161 124.361C219.044 121.084 222.576 122.452 227.372 119.137C230.428 117.024 231.584 116.521 232.502 115.339C233.601 114.309 234.486 113.072 235.105 111.699C235.723 110.325 236.065 108.843 236.108 107.337C236.232 105.747 235.746 104.169 234.75 102.923C233.941 101.824 232.406 101.605 232.391 100.801C232.391 100.247 231.886 99.3387 232.728 99.5342C234.804 100.079 236.661 101.252 238.044 102.894C239.427 104.535 240.268 106.564 240.452 108.702C240.85 111.179 240.809 113.707 240.333 116.17C240.099 117.131 239.913 118.104 239.777 119.084C239.738 119.385 239.295 119.589 239.6 119.98C239.637 120.027 239.067 119.877 239.291 120.278C239.46 120.592 239.215 120.75 239.123 120.952C237.343 125.138 238.112 124.199 237.832 124.388C237.214 124.818 237.158 125.601 236.715 126.127C236.831 126.331 236.845 126.295 236.634 126.204C233.847 130.575 228.816 135.608 223.708 135.58C223.374 135.549 223.058 135.413 222.805 135.192C219.794 132.911 221.184 126.388 220.402 125.326C219.991 124.769 219.083 124.898 219.044 126.619C218.942 131.087 219.262 137.066 223.825 137.317C227.073 137.497 233.429 134.206 236.386 129.482C236.979 128.531 237.75 127.706 238.341 126.745C241.504 121.577 242.91 115.524 242.348 109.491C242.28 108.876 241.913 108.915 253.27 113.986C254.744 114.532 256.158 115.237 257.483 116.084C264.871 120.854 269.384 122.77 276.119 129.881Z" fill="#FFD200"/>
  <path d="M261.519 252.457C262.233 252.64 262.178 253.212 262.464 254.725C262.127 260.317 259.01 261.249 260.228 263.61C260.976 265.061 260.902 265.052 260.397 267.757C259.969 270.023 260.626 269.352 251.39 266.272C250.13 265.853 245.377 264.756 242.723 263.847C239.949 262.904 239.073 262.078 235.674 261.131C230.992 259.827 224.515 257.517 221.568 256.61C216.937 255.185 216.92 255.456 217.155 254.661C217.709 252.701 217.505 250.604 216.583 248.787C214.919 245.417 208.495 243.456 204.212 246.638C201.567 249.014 202.045 250.482 201.058 250.148C192.665 247.323 192.936 247.639 190.872 246.886C187.706 245.73 185.212 244.239 179.668 242.448C171.616 239.85 172.101 239.192 168.231 238.306C163.961 237.024 159.773 235.487 155.688 233.703C157.268 232.192 159.157 231.043 161.224 230.333C162.683 230.031 164.079 229.479 165.349 228.7C166.134 228.326 166.954 228.031 167.798 227.82C171.284 226.627 174.147 227.977 174.418 223.822C174.472 223.003 173.575 220.979 176.047 219.748C177.145 219.318 178.301 219.057 179.476 218.972C180.836 218.181 181.032 219.898 184.742 220.885C184.91 220.929 189.965 222.922 190.001 222.922C194.663 224.759 192.038 223.819 196.306 224.619C198.652 224.959 200.906 225.766 202.933 226.996C205.508 228.601 207.543 228.297 213.266 228.744C214.179 228.816 213.992 228.804 212.474 233.372C212.103 234.488 211.505 235.55 212.379 236.267C213.304 237.029 210.728 236.81 219.261 239.541C224.693 241.28 223.136 240.106 227.822 242.237C230.276 243.378 232.847 244.246 235.489 244.827C239.885 245.901 244.184 247.339 248.341 249.129C251.795 250.261 257.66 251.468 261.519 252.457Z" fill="#2576C7"/>
  <path d="M257.03 141.241C257.473 141.292 257.099 141.563 256.789 142.121C255.665 144.133 255.778 144.621 254.696 144.497C245.725 143.462 245.661 144.443 245.697 143.425C245.744 142.067 246.843 141.054 248.898 141.435C251.594 141.941 252.017 141.305 253.153 141.585C254.563 141.929 255.252 141.041 257.03 141.241Z" fill="#FDE6B9"/>
  <path d="M183.78 67.5124L183.76 67.5427C183.914 71.4402 179.249 73.8042 176.97 71.1891C176.164 70.264 178.377 71.2733 180.365 67.4164C181.464 64.6429 181.917 61.6554 181.693 58.6813C181.693 57.5675 180.85 57.1918 180.682 57.5979C180.151 58.8532 180.522 58.8414 180.201 61.8356C180.004 63.6891 180.058 63.6706 176.407 64.5519C175.82 64.5302 175.249 64.3586 174.748 64.0536C174.246 63.7487 173.831 63.3204 173.542 62.8096C172.686 61.1869 178.69 65.3927 179.233 55.2928C179.838 44.0488 177.605 44.4633 179.172 36.9583C180.769 29.3067 190.084 23.0672 192.652 23.4665C194.315 23.4075 195.978 23.5508 197.606 23.8911C198.101 24.0175 198.698 24.1186 198.854 23.63C199.106 22.8448 198.605 22.6055 197.904 22.4757C196.001 22.1301 194.067 21.9754 192.133 22.014C190.465 22.1354 189.486 22.6661 185.784 24.9813C185.604 25.0942 182.727 27.8812 182.321 28.1289C182.508 25.9485 185.627 23.0149 187.824 21.8371C191.531 19.8438 192.187 19.9836 193.596 19.8337C196.044 19.2948 198.604 19.6385 200.824 20.8042C200.971 20.8817 201.092 21.0098 201.242 21.0839C202.538 21.7276 202.966 20.42 202.236 19.864C201.721 19.464 201.149 19.1426 200.539 18.9103C195.372 17.3314 194.473 18.6221 193.409 18.3003C194.517 17.7211 195.66 17.2107 196.831 16.772C199.064 16.2016 201.431 16.4909 203.461 17.5825C204.179 17.9768 206.039 18.9962 206.358 18.184C206.695 17.3129 206.09 17.0568 205.347 16.558C207.672 14.9947 210.308 13.9521 213.074 13.5014C218.394 12.669 219.524 12.3758 225.489 14.7888C227.704 15.8521 229.653 17.3973 231.193 19.3113C231.867 20.0224 231.419 20.511 232.344 21.0081C235.168 22.5246 237.219 23.4042 239.134 25.9755C244.333 32.9497 243.669 46.1146 249.682 49.1139C250.468 49.5048 250.953 49.7626 250.137 50.3557C249.463 50.8612 248.978 50.809 247.049 50.8343C246.591 50.8343 246.134 50.5259 245.691 51.3398C245.507 51.6768 245.691 51.9211 245.881 52.1823C247.667 54.6795 251.177 54.7822 249.955 55.3063C248.072 56.2391 245.99 56.6983 243.889 56.6442C242.636 56.6661 242.437 55.0198 240.043 54.6609C239.386 54.4069 238.684 54.2955 237.981 54.3342C237.279 54.3728 236.593 54.5606 235.968 54.885C234.846 55.4411 231.65 52.5833 230.784 51.8605C227.944 49.4846 226.586 42.9653 225.865 39.1791C225.244 34.9851 223.099 31.1669 219.841 28.4541C219.197 27.8492 219.587 28.2199 219.54 26.3563C219.472 23.7277 219.624 21.4597 216.685 19.5118C215.29 18.6397 213.666 18.2037 212.021 18.2599C210.376 18.316 208.786 18.8616 207.453 19.8269C207.045 20.1011 206.706 20.4648 206.461 20.8902C206.437 20.9559 206.427 21.026 206.434 21.0957C206.438 21.1658 206.459 21.2338 206.494 21.2946C206.529 21.3554 206.576 21.4082 206.633 21.4492C206.689 21.4902 206.754 21.5185 206.823 21.5321C207.033 21.581 207.249 21.5321 208.592 20.7907C210.015 19.866 211.747 19.5441 213.408 19.8958C215.068 20.2474 216.521 21.2439 217.447 22.6661C217.939 24.25 218.09 25.9182 217.892 27.5644C217.413 32.8536 215.608 32.9295 214.744 36.5354C214.286 38.4462 216.564 39.929 215.185 39.8515C214.101 39.9085 213.036 39.5443 212.214 38.835C211.392 38.1257 210.875 37.1261 210.772 36.045C210.516 34.7998 211.952 31.9707 212.336 29.7078C212.889 26.4035 210.884 24.6174 208.884 25.0353C207.15 25.3975 205.434 26.0193 204.691 26.176C204.307 26.2569 204.594 26.0378 204.599 25.7682C204.602 25.6324 204.554 25.5003 204.464 25.3984C204.374 25.2966 204.249 25.2325 204.113 25.2189C202.26 25.1987 200.686 28.2738 200.464 30.5553C200.037 34.9363 202.868 34.8942 201.938 39.7942C201.727 40.6306 201.269 41.384 200.624 41.956C200.393 41.0697 201.453 40.5255 198.898 37.3425C198.005 36.2128 197.281 34.9581 196.752 33.6186C196.463 32.9113 196.37 32.1393 196.482 31.3836C196.595 30.6279 196.908 29.9164 197.39 29.3236C197.769 28.7945 198.401 27.9874 198.015 27.5779C197.414 26.9528 196.297 28.1188 195.889 28.8518C194.739 30.6513 193.156 32.1338 191.285 33.1637C189.127 34.0669 185.599 37.9171 185.535 40.2929C185.172 41.0175 184.914 41.7892 184.77 42.5845C184.196 45.1122 183.936 47.7006 183.993 50.2917C183.976 55.7242 185.541 59.844 184.401 63.7936C183.963 64.9835 183.753 66.245 183.78 67.5124Z" fill="#3B3C3F"/>
  <path d="M238.038 277.637C239.864 278.404 247.42 281.032 247.811 281.236C246.773 282.542 213.42 301.365 207.772 304.858C204.936 306.612 201.81 308.683 199.136 310.26C197.269 310.904 195.527 311.861 193.982 313.089C192.024 314.774 189.868 316.214 187.562 317.376C184.797 318.387 182.18 322.246 180.059 320.721C178.594 319.669 177.096 318.682 175.72 317.499C173.396 315.502 153.712 302.71 151.009 301.593C149.105 300.769 147.32 299.692 145.703 298.391C143.272 296.841 139.383 295.112 134.582 291.74C132.943 290.722 131.242 289.806 129.49 288.997C125.134 286.593 125.626 287.936 120.256 284.52C119.992 284.352 120.017 284.183 120.352 284.069C121.78 283.609 135.501 279.701 139.464 277.278C141.481 276.232 143.632 275.465 145.857 275C160.036 270.39 153.21 271.844 164.36 268.479C167.293 267.593 180.458 263.621 183.341 262.619C185.795 261.571 188.318 260.692 190.892 259.99C192.165 259.601 197.605 262.265 199.017 262.934C202.314 264.496 202.518 264.292 202.469 264.873C202.373 266.223 201.969 267.533 201.29 268.703C200.838 269.461 198.38 267.087 197.077 267.701C186.741 272.543 196.572 267.581 187.11 272.329C186.091 272.835 186.167 274.587 186.201 274.591C186.332 277.743 186.224 277.871 186.706 278.129C193.461 281.796 188.814 279.646 208.985 291.004C213.209 293.383 212.977 292.944 215.435 291.754C228.442 285.459 227.013 287.255 226.662 282.18C226.664 281.881 226.607 281.584 226.494 281.307C226.381 281.031 226.215 280.779 226.005 280.566C225.794 280.354 225.544 280.185 225.268 280.069C224.993 279.953 224.697 279.893 224.398 279.892C224.096 279.848 217.948 277.155 217.927 277.142C214.492 275.757 214.257 271.952 213.968 269.29C213.87 268.396 214.456 269.023 215.728 269.372C218.955 270.253 220.094 271.495 224.6 273.035C237.182 277.339 230.166 274.329 238.038 277.637Z" fill="white"/>
  <path d="M233.231 56.1677C233.937 56.5855 233.689 56.2351 232.287 58.6699C232.047 59.1808 231.931 59.7416 231.95 60.306C231.947 60.4609 231.999 60.6119 232.097 60.7321C232.194 60.8522 232.332 60.9335 232.484 60.9615C233.084 61.1738 233.197 60.3751 233.475 59.7297C234.457 57.455 237.172 55.4717 238.907 56.1407C239.769 56.4777 242.256 56.8147 242.497 59.6708C242.833 63.6811 241.914 69.2466 238.496 71.3411C236.796 72.3824 235.617 72.6891 237.057 71.2956C237.977 70.4126 237.057 69.4606 236.127 69.9931C234.213 71.0866 234.993 72.2544 233.585 73.2889C229.372 76.3893 230.263 97.7551 231.146 102.958C231.989 107.879 232.103 109.434 233.842 110.12C233.883 110.128 233.922 110.146 233.955 110.172C233.988 110.198 234.014 110.232 234.033 110.27C234.05 110.308 234.059 110.349 234.057 110.391C234.056 110.433 234.046 110.474 234.026 110.511C233.434 112.37 232.277 113.998 230.715 115.168C224.125 119.559 224.708 118.875 219.85 120.6C216.409 121.824 215.437 128.602 215.58 131.875L215.023 131.895C215.023 129.974 213.705 122.247 211.73 120.953C207.278 118.041 203.964 119.596 200.973 115.436C199.473 113.348 201.49 114.998 204.343 112.147C206.741 109.746 206.148 107.513 206.042 104.306C206.02 103.656 207.029 104.382 211.993 104.182C219.336 103.883 224.929 91.6841 225.01 90.941C225.038 90.6798 225.153 90.4001 224.759 90.1726C224.628 90.0665 224.463 90.0129 224.295 90.0226C224.127 90.0323 223.969 90.1044 223.852 90.2249C217.895 96.0937 214.584 99.9878 204.079 97.4181C202.988 96.9126 201.94 96.3195 200.944 95.6455C197.406 93.3202 197.069 92.781 193.136 88.1355C191.212 85.3957 189.655 82.4154 188.506 79.2707C186.772 75.4188 184.067 72.4296 186.221 63.7889C187.717 57.7836 181.102 40.0843 192.444 34.3806C193.982 33.6072 194.113 32.9719 194.899 32.6501C195.006 33.4808 195.259 34.2846 195.648 35.026C196.772 37.722 197.645 37.8702 199.118 40.6657C199.19 41.2181 199.102 41.7796 198.866 42.2841C198.629 42.7885 198.254 43.215 197.783 43.5133C197.563 43.6422 197.392 43.8392 197.294 44.0745C197.196 44.3099 197.177 44.5707 197.241 44.8175C197.445 45.323 198.302 45.4241 198.816 45.1309C200.447 44.1957 202.677 43.3414 203.322 40.2444C203.848 38.0636 203.578 35.7666 202.56 33.7673C201.125 31.506 202.422 28.3955 203.066 28.3618C204.259 28.1664 205.423 27.8239 206.532 27.3424C209.172 26.5437 209.631 26.1477 210.296 27.2446C212.15 30.2978 207.816 34.3739 209.747 38.1095C210.092 39.0267 210.696 39.8243 211.485 40.4062C212.273 40.988 213.214 41.3292 214.192 41.3885C215.567 41.6042 218.441 41.3413 218.465 40.0304C218.495 38.4414 217.363 40.5224 216.221 37.3513C215.7 35.9022 218.184 34.1936 219.05 30.1614C219.122 29.8244 219.228 29.7806 219.437 30.0047C226.642 37.7742 223.466 46.302 229.259 52.8297C230.496 54.0429 231.824 55.1583 233.231 56.1677Z" fill="#FDE6B9"/>
  <path d="M213.08 287.301C226.897 281.917 225.146 281.188 225.36 283.641C225.237 286.019 226.184 284.652 217.259 289.1C212.654 291.395 212.92 291.478 212.773 290.635C212.246 287.594 212.275 287.614 213.08 287.301Z" fill="#AD8F00"/>
  <path d="M222.803 280.915C222.913 280.973 223.016 281.043 223.109 281.126C219.65 282.89 216.1 284.472 212.475 285.866C212.228 286.076 211.913 286.187 211.588 286.179C211.264 286.17 210.955 286.042 210.72 285.819C210.679 285.792 189.219 274.192 188.141 273.161C191.326 271.963 194.448 270.603 197.494 269.087C197.979 268.851 197.831 268.947 199.888 269.98C201.439 270.76 193.674 273.033 197.339 275.203C199.489 276.475 201.91 277.849 202.057 277.97C204.527 279.904 207.292 281.429 210.246 282.486C211.426 282.113 212.132 281.882 212.708 281.743C214.113 281.406 214.009 281.225 217.461 280.044C218.941 279.532 216.526 278.376 222.803 280.915Z" fill="#856D00"/>
  <path d="M216.111 278.441C216.35 278.712 216.494 278.683 213.056 279.925C212.181 280.106 211.33 280.386 210.517 280.757C210.116 281.012 205.472 278.42 203.103 276.724C202.02 275.945 199.881 274.944 198.634 274.184C196.727 273.02 202.815 274.161 204.124 264.303C204.685 260.091 203.816 264.688 212.273 261.791C213.129 261.5 211.562 269.542 213.146 274.225C213.766 275.856 214.786 277.306 216.111 278.441Z" fill="#5C4C00"/>
  <path d="M215.444 250.566C215.831 252.465 215.666 254.435 214.969 256.243C214.165 257.462 213.019 258.417 211.674 258.987C210.33 259.557 208.846 259.716 207.411 259.444C205.749 258.984 204.305 257.948 203.337 256.521C202.193 255.019 202.457 249.752 205.544 247.656C206.933 246.87 208.565 246.63 210.121 246.982C213.558 247.592 214.355 248.311 215.444 250.566Z" fill="#5C4C00"/>
  <path d="M213.074 221.244C216.193 221.984 216.308 219.815 214.995 225.377C214.623 226.956 214.567 226.963 214.212 226.933C207.303 226.343 207.175 226.469 206.1 226.259C202.983 225.637 204.619 224.948 199.134 223.374C197.281 222.928 195.407 222.576 193.518 222.321C187.008 219.95 186.468 219.49 184.306 218.951C183.396 218.661 182.522 218.269 181.7 217.783C181.607 217.753 181.526 217.697 181.466 217.62C181.406 217.544 181.37 217.452 181.363 217.355C181.224 216.554 181.174 215.74 181.213 214.929C181.774 211.704 181.447 211.292 186.866 214.255C190.3 216.128 190.844 215.566 193.367 215.83C196.216 216.127 199.571 218.545 205.708 219.397C207.608 219.647 211.389 220.845 213.074 221.244Z" fill="#2576C7"/>
  <path d="M214.22 77.2305C213.713 79.2258 212.832 81.1069 211.625 82.7742C211.052 83.4246 210.407 84.0025 209.699 84.4996C209.468 84.6681 209.064 84.6007 208.619 84.6563C205.471 84.3193 205.227 83.4414 202.015 80.063C201.884 79.9232 201.924 79.7395 202.165 79.7496C204.94 79.8651 207.711 79.4257 210.314 78.4572C211.637 78.1184 212.941 77.7089 214.22 77.2305Z" fill="white"/>
  <path d="M211.115 289.948C211.024 291.008 211.939 291.337 201.986 285.325C201.948 285.301 187.579 277.343 187.54 276.504C187.402 273.607 185.784 273.563 198.597 280.826C206.193 285.131 208.136 285.946 210.572 287.175C211.019 287.402 210.877 287.158 211.115 289.948Z" fill="#AD8F00"/>
  <path d="M178.468 145.424C179.752 146.128 179.868 147.148 179.709 149.546C179.69 149.797 179.612 150.041 179.482 150.257C179.352 150.473 179.173 150.656 178.96 150.791C176.417 152.4 175.704 153.226 173.591 153.002C173.911 151.888 173.221 152.665 176.882 150.011C177.219 149.765 177.655 148.964 177.324 148.713C176.962 148.52 176.543 148.466 176.144 148.56C172.993 150.479 172.388 150.536 171.808 152.594C169.911 159.314 166.283 155.755 165.218 174.886H165.34C165.269 188.926 166.15 177.603 166.182 197.297C166.182 199.216 166.049 200.985 166.152 201.582C166.176 201.744 166.256 201.894 166.377 202.005C166.499 202.115 166.655 202.181 166.819 202.189C166.983 202.198 167.146 202.15 167.278 202.052C167.411 201.955 167.506 201.815 167.547 201.656C168.134 199.878 167.884 188.237 167.812 187.057C167.621 183.911 166.927 182.738 167.096 179.63C167.163 178.393 166.949 174.743 166.986 172.499C167.01 171.117 167.207 170.608 167.299 168.286C167.372 166.45 167.593 166.755 168.406 166.928C170.322 167.001 172.202 167.475 173.923 168.32C174.51 168.596 175.054 168.958 175.64 169.233C177.494 170.101 174.644 174.244 176.599 180.336C178.872 187.424 178.141 186.666 179.126 188.874C179.649 190.053 177.32 194.473 177.307 194.506C172.238 206.686 169.202 208.741 168.609 210.393C168.037 211.982 167.246 212.583 165.101 214.956C163.287 216.969 161.854 216.656 158.517 218.988C154.483 221.81 148.07 218.145 144.811 212.806C143.803 211.417 142.931 209.934 142.208 208.377C140.978 204.958 140.725 201.264 141.477 197.71C144.255 186.12 141.767 190.127 153.075 163.294C154.399 160.153 153.698 157.623 155.146 154.442C156.643 151.153 157.007 142.039 157.466 137.291C157.511 136.812 158.591 132.932 158.905 132.025C159.425 130.713 160.319 129.583 161.476 128.774C162.633 127.965 164.001 127.514 165.412 127.475C167.111 127.347 174.088 124.987 175.822 127.241C176.424 127.92 176.747 128.802 176.729 129.708C176.715 130.145 176.655 130.246 176.25 130.313C171.434 131.113 172.764 131.007 170.479 131.022C169.806 130.93 169.12 130.991 168.474 131.2C167.827 131.408 167.236 131.76 166.743 132.229C166.555 132.355 166.42 132.547 166.365 132.767C166.311 132.988 166.341 133.221 166.449 133.42C167.158 134.244 168.241 132.374 170.506 132.758C173.694 133.297 177.099 130.884 178.334 133.149C179.285 134.889 178.548 136.704 177.955 136.763C175.02 137.058 169.867 137.131 168.428 138.679C168.309 138.788 168.23 138.934 168.204 139.093C168.178 139.253 168.206 139.416 168.283 139.558C168.361 139.699 168.484 139.811 168.632 139.874C168.781 139.938 168.946 139.949 169.102 139.907C170.551 139.45 172.04 139.131 173.549 138.955C178.921 138.362 178.484 139.097 179.29 140.548C179.858 141.569 179.345 143.35 177.96 143.03C176.988 142.806 176.781 142.922 171.153 143.936C170.385 144.074 169.611 144.147 169.637 144.92C169.674 146.004 172.132 145.69 173.202 145.569C176.835 145.163 177.157 144.703 178.468 145.424Z" fill="#FDE6B9"/>
  <path d="M168.529 252.364C168.381 255.65 168.349 255.078 163.98 256.639C161.752 257.432 155.402 259.739 153.76 260.037C149.974 260.725 137.16 265.812 133.471 266.44C131.641 266.754 120.591 270.7 118.872 271.02C112.266 272.248 106.97 275.064 107.76 273.657C107.509 268.705 107.423 268.963 107.723 268.905C110.294 268.568 114.707 267.052 125.469 264.674C127.731 264.169 138.371 260.967 139.692 260.576C145.947 258.757 152.616 257.447 155.456 256.645C156.549 256.337 159.002 255.328 159.587 255.213C162.62 254.436 165.606 253.485 168.529 252.364Z" fill="#B5B6BA"/>
  <path d="M161.893 125.942C161.945 126.309 161.842 126.493 161.465 126.709C155.473 130.129 161.237 132.018 156.059 118.307C155.501 116.826 155.048 116.029 155.791 115.443C156.876 114.6 157.786 115.763 158.634 116.868C160.976 119.926 160.346 120.575 160.952 120.851C161.087 120.914 161.001 121.37 161.096 121.615C161.527 123.022 161.795 124.474 161.893 125.942Z" fill="#FDE6B9"/>
  <path d="M160.884 248.535C142.937 241.377 113.485 228.47 105.447 225.788C105.513 220.933 105.616 215.785 105.73 210.276C106.13 192.332 105.206 205.991 105.73 184.048C105.75 182.53 105.687 181.011 105.54 179.499C105.502 178.472 105.081 177.496 104.361 176.763C100.46 173.138 76.7468 167.633 73.552 166.74C70.3573 165.847 74.2867 166.632 54.3835 160.945C49.2375 159.474 44.693 158.661 26.2794 153.547C25.5611 153.354 24.7962 153.443 24.1414 153.795C23.4867 154.148 22.9916 154.738 22.7577 155.444C22.2017 158.554 22.8858 166.693 22.9751 169.884C23.0475 172.461 22.9987 226.111 24.4831 229.481C25.7722 232.411 23.6811 232.029 33.0379 236.747C36.7763 238.496 40.3847 240.51 43.8354 242.774C59.1116 251.728 83.5019 262.735 86.6141 264.254C106.907 274.166 105.823 274.811 105.982 273.016C106.089 271.788 105.739 270.32 105.739 267.884C106.797 267.589 107.673 267.336 107.793 267.311C113.421 266.039 112.47 265.894 114.297 265.613C114.334 265.613 125.718 262.853 125.755 262.842C135.001 260.367 133.026 260.635 142.816 257.787C145.343 257.048 153.263 255.749 156.929 254.229C158.648 253.518 164.545 252.187 166.599 251.088C167.241 250.734 166.267 250.683 160.884 248.535Z" fill="#B5B6BA"/>
  <path d="M183.78 67.5111C183.749 66.2485 183.954 64.9911 184.385 63.8041C185.526 59.8544 183.969 55.7414 183.978 50.3022C183.919 47.7106 184.18 45.1225 184.754 42.595C184.903 41.7997 185.159 41.0279 185.519 40.3034C185.583 37.9275 189.11 34.0807 191.27 33.1741C193.141 32.1436 194.723 30.6612 195.874 28.8622C196.281 28.1293 197.4 26.9616 198 27.5884C198.389 27.9961 197.754 28.8049 197.375 29.334C196.893 29.9268 196.579 30.6384 196.467 31.394C196.355 32.1497 196.448 32.9217 196.736 33.6291C197.266 34.9676 197.989 36.2211 198.883 37.3496C201.438 40.5325 200.378 41.0852 200.609 41.9631C201.254 41.3907 201.712 40.6374 201.923 39.8013C202.853 34.9013 200.022 34.9501 200.448 30.5624C200.671 28.2877 202.251 25.2058 204.098 25.226C204.233 25.2403 204.358 25.3046 204.448 25.4063C204.537 25.508 204.586 25.6397 204.583 25.7753C204.583 26.0432 204.292 26.264 204.676 26.1831C205.419 26.0264 207.135 25.4029 208.868 25.0423C210.868 24.6261 212.875 26.4004 212.321 29.7148C211.945 31.966 210.498 34.8069 210.757 36.0521C210.86 37.1331 211.377 38.1324 212.199 38.8416C213.022 39.5508 214.086 39.9151 215.17 39.8585C216.549 39.9327 214.271 38.4533 214.729 36.5425C215.593 32.9366 217.398 32.8607 217.876 27.5715C218.075 25.9257 217.924 24.2564 217.432 22.6732C216.505 21.2517 215.052 20.2558 213.392 19.9042C211.732 19.5526 210 19.874 208.577 20.7978C207.229 21.551 207.018 21.5881 206.808 21.5392C206.739 21.5254 206.674 21.497 206.618 21.4559C206.561 21.4149 206.514 21.3621 206.48 21.3011C206.445 21.2402 206.424 21.1726 206.418 21.1029C206.413 21.0332 206.422 20.9631 206.445 20.8972C206.686 20.449 207.033 20.0648 207.456 19.7801C208.79 18.8178 210.381 18.274 212.024 18.2179C213.668 18.1618 215.292 18.5959 216.688 19.465C219.583 21.3859 219.475 23.6775 219.543 26.3095C219.592 28.1731 219.206 27.8024 219.844 28.4073C223.101 31.1213 225.245 34.9389 225.868 39.1323C226.59 42.9168 227.949 49.4428 230.789 51.8136C231.653 52.5365 234.863 55.3926 235.972 54.8466C236.595 54.52 237.282 54.3309 237.984 54.2923C238.687 54.2536 239.39 54.3662 240.046 54.6225C242.423 54.9797 242.641 56.626 243.893 56.6058C245.994 56.6609 248.076 56.2016 249.959 55.2679C251.174 54.7438 247.655 54.6461 245.884 52.1439C245.699 51.881 245.51 51.6283 245.694 51.3014C246.151 50.4825 246.607 50.806 247.052 50.7959C248.98 50.742 249.452 50.8161 250.141 50.3173C250.96 49.7259 250.478 49.4748 249.686 49.0755C243.665 46.0914 244.331 32.9147 239.138 25.9371C237.225 23.3674 235.186 22.471 232.347 20.9697C231.424 20.481 231.869 19.9924 231.196 19.2729C229.669 17.3465 227.717 15.7988 225.493 14.7504C219.516 12.3341 218.397 12.6306 213.078 13.463C210.312 13.918 207.679 14.961 205.35 16.5196C206.1 17.0251 206.712 17.2745 206.361 18.1456C206.043 18.9578 204.182 17.9384 203.466 17.5441C201.435 16.4519 199.068 16.1626 196.834 16.7336C195.663 17.1724 194.52 17.6822 193.412 18.2602C194.468 18.5972 195.375 17.293 200.543 18.8719C201.156 19.0977 201.729 19.4195 202.24 19.8256C202.979 20.3479 202.541 21.6892 201.245 21.0438C201.095 20.9697 200.974 20.8433 200.828 20.7658C198.608 19.6001 196.048 19.2564 193.599 19.7952C192.194 19.952 191.562 19.7952 187.828 21.7987C185.637 22.9782 182.512 25.9101 182.325 28.0888C182.729 27.8411 185.607 25.0558 185.787 24.9429C189.494 22.6277 190.47 22.097 192.136 21.9756C194.071 21.9328 196.004 22.0875 197.907 22.4373C198.608 22.5704 199.109 22.8063 198.858 23.5916C198.703 24.0802 198.105 23.9791 197.609 23.8527C195.981 23.5115 194.318 23.3689 192.655 23.4281C190.089 23.0271 180.773 29.2683 179.175 36.9199C177.607 44.4401 179.849 44.0255 179.236 55.2544C178.687 65.3543 172.69 61.1519 173.546 62.7712C173.835 63.2819 174.25 63.71 174.751 64.0147C175.253 64.3194 175.824 64.4906 176.41 64.5118C180.06 63.6389 180.008 63.6693 180.205 61.7956C180.523 58.8013 180.149 58.8131 180.685 57.5595C180.854 57.1517 181.696 57.5291 181.696 58.6429C181.925 61.6177 181.471 64.6055 180.368 67.378C178.37 71.2383 176.156 70.2189 176.973 71.149C179.255 73.7489 183.9 71.4017 183.764 67.5027L183.78 67.5111ZM327.988 293.24C328.603 293.401 329.245 293.859 329.034 294.395C328.316 296.216 322.343 292.994 312.509 290.426C308.073 289.267 306.566 287.704 301.343 286.135C295.663 284.43 294.552 283.331 287.447 281.213C286.242 280.852 280.412 278.397 277.903 277.454C276.107 276.78 273.303 276.123 267.961 273.841C261.39 271.035 261.208 271.728 255.688 269.655C252.491 268.374 249.19 267.373 245.82 266.661C241.407 265.59 238.604 263.677 234.315 262.587C232.553 262.139 222.657 258.772 220.038 257.994C216.469 256.932 216.488 256.86 216.134 257.406C214.153 260.464 213.944 258.169 213.944 266.641C213.944 267.082 213.912 267.076 217.396 268.23C221.253 269.507 222.926 271.46 233.299 274.052C234.969 274.47 243.777 278.254 247.694 279.3C248.948 279.637 249.885 280.825 249.598 281.491C249.103 282.67 249.083 283.21 242.978 286.244C241.229 287.114 198.954 312.32 198.92 312.328C196.475 313.002 194.42 315.125 192.509 316.426C190.662 317.708 188.713 318.835 186.68 319.796C177.413 325.763 183.816 323.419 157.698 307.539C152.675 304.486 153.317 304.742 152.503 304.274C148.291 301.844 150.185 303.709 145.743 300.504C143.598 298.956 134.927 294.213 134.666 293.963C130.379 289.872 111.964 285.383 120.423 282.396C121.617 281.912 122.86 281.559 124.13 281.343C129.208 279.756 134.177 277.841 139.007 275.609C141.954 273.905 149.347 272.373 154.124 270.385C161.097 267.492 156.337 269.074 170.806 264.825C188.161 259.729 180.063 261.613 190.689 258.322C191.941 257.935 198.834 261.072 199.818 261.524C203.175 263.069 203.042 263.965 203.08 259.111C202.693 258.378 202.238 257.682 201.722 257.033C201.143 255.532 200.934 253.914 201.114 252.315C201.133 251.425 196.624 251.255 186.176 246.798C182.212 245.113 182.975 245.579 176.412 243.233C172.619 241.885 171.916 241.196 166.617 239.614C163.386 238.77 160.244 237.62 157.232 236.18C155.958 235.659 154.641 235.253 153.295 234.965C148.559 233.479 113.839 220.339 112.316 219.687C110.485 218.9 110.126 218.329 107.344 217.116C107.211 219.153 107.13 222.615 107.11 223.906C107.074 225.943 107.465 224.28 116.771 228.683C116.805 228.683 166.459 248.965 169.994 250.537C170.24 250.804 170.413 251.127 170.499 251.478C169.84 256.329 171.249 256.103 162.184 259.262C153.422 262.316 151.87 262.273 144.377 264.882C141.133 266.223 137.79 267.309 134.378 268.131C126.993 270.078 122.527 272.067 119.98 272.633C100.68 276.916 112.471 278.722 84.6704 265.387C72.1795 259.397 79.6491 263.365 66.5162 256.767C44.0451 245.466 41.0879 242.938 37.0877 240.879C30.5398 237.509 22.9337 234.51 22.8292 230.537C22.0719 226.289 21.7304 221.977 21.8098 217.663C21.124 168.244 20.3809 157.509 21.5958 154.115C21.6976 153.729 21.8756 153.366 22.1194 153.05C22.3632 152.733 22.6679 152.469 23.0156 152.272C23.3632 152.075 23.7467 151.949 24.1436 151.903C24.5404 151.856 24.9426 151.889 25.3264 152C33.8609 152.998 67.8608 163.121 70.0109 163.785C82.426 167.642 85.4927 167.72 92.29 170.043C110.562 176.278 106.894 173.376 107.228 194.575C107.366 203.359 107.682 192.43 107.295 211.594C107.224 215.132 107.126 215.21 107.8 215.469C110.269 216.418 110.079 217.227 116.145 219.417C163.764 236.604 147.758 234.193 159.181 229.037C160.981 228.225 162.399 228.363 163.86 227.424C166.064 226.228 168.491 225.5 170.99 225.284C173.234 225.03 172.156 224.364 172.449 221.818C172.658 220.005 174.595 217.811 178.402 217.38C179.118 217.299 179.612 217.52 179.546 216.723C179.425 215.269 179.435 215.516 180.22 212.355C180.412 211.582 179.489 212.187 178.946 211.147C178.732 210.736 175.517 208.524 178.796 204.48C180.496 202.384 178.869 201.047 180.874 198.508C182.576 196.355 181.302 193.387 180.609 191.768C180.549 191.625 180.25 191.487 180.195 191.717C179.807 193.349 179.61 193.023 177.086 199.261C174.666 205.24 170.514 210.155 170.017 211.484C169.299 213.013 168.277 214.379 167.013 215.5C164.861 218.391 162.101 218.742 159.902 220.33C154.743 224.063 147.049 219.79 143.991 214.9C141.504 210.925 140.284 210.05 139.576 205.464C138.702 199.79 139.264 199.642 140.744 192.949C143.258 177.299 152.781 162.255 152.539 159.226C152.202 155.192 154.232 153.906 154.576 149.741C156.31 128.749 157.885 128.574 155.981 122.868C153.734 116.128 154.33 119.072 153.924 116.297C153.587 113.948 156.861 112.443 158.797 114.487C160.095 115.913 161.174 117.524 161.998 119.268C162.777 121.217 163.294 123.261 163.539 125.344C163.594 126.112 164.036 125.542 165.987 125.586C166.861 125.53 167.723 125.35 168.546 125.052C168.802 124.948 169.023 124.773 169.182 124.547C172.373 120.075 176.58 118.405 180.773 116.371C182.1 115.727 183.3 114.792 185.258 113.869C196.934 108.344 192.504 111.262 196.716 106.101C197.257 105.543 197.83 105.017 198.435 104.529C199.812 103.122 201.474 102.027 203.31 101.317C203.958 101.034 203.832 100.736 203.781 99.9591C203.695 98.6246 203.544 99.4671 201.085 97.986C196.684 95.2781 192.998 91.5525 190.337 87.1228C189.631 85.7916 188.775 84.6947 188.242 83.4731C187.489 81.414 186.581 79.415 185.526 77.493C184.579 75.7493 183.993 73.8332 183.801 71.8584L183.74 71.9325C182.705 73.0546 181.286 73.7464 179.765 73.8703C176.518 73.936 175.669 72.2257 174.226 70.7277C173.751 70.2323 173.952 69.1388 174.692 69.2938C176.764 69.7319 178.335 67.9964 179.224 66.0755C179.277 65.9236 179.305 65.7643 179.307 65.6037C178.784 65.6458 178.274 65.7705 177.79 65.971C171.556 67.629 169.229 57.9032 173.338 60.461C173.698 60.6501 174.097 60.7514 174.503 60.7568C174.909 60.7622 175.31 60.6715 175.675 60.4921C176.039 60.3126 176.356 60.0496 176.599 59.7244C176.842 59.3992 177.005 59.0211 177.074 58.621C177.532 57.0561 177.737 55.4281 177.681 53.7985C177.642 52.8516 177.792 51.8945 177.753 50.9475C177.362 41.3616 176.171 42.5225 177.703 36.6469C178.779 32.5119 180.695 31.0864 180.577 30.1968C180.486 28.8217 180.761 27.447 181.376 26.2134C182.079 24.706 183.096 23.3666 184.36 22.2857C186.727 20.0177 189.843 19.4212 190.699 18.3681C191.934 16.8516 193.193 16.5702 195.791 15.5777C197.578 14.9578 199.497 14.8263 201.352 15.1969C203.301 15.3148 203.374 16.1 203.977 15.5642C207.138 12.7873 215.012 10.3407 220.908 11.5202C224.311 12.0314 227.494 13.5147 230.074 15.7917C231.36 16.8299 232.425 18.1157 233.205 19.5728C233.656 21.0573 239.618 20.8602 242.959 29.4183C246.301 37.9764 243.935 36.4666 248.222 45.1697C249.991 48.7604 253.769 47.7595 252.724 49.4428C250.855 52.4539 250.533 51.8743 248.8 52.4994C248.87 52.5769 248.928 52.6999 249.017 52.7303C251.388 53.5374 250.749 52.9291 252.367 54.4776C252.608 54.7085 252.004 55.6184 251.715 55.8088C249.233 57.4449 249.72 58.1357 244.826 58.3363C243.598 58.3885 244.306 58.4155 244.27 60.9143C244.152 69.0781 240.696 71.6258 240.614 72.1179C241.155 73.5045 241.376 74.9953 241.261 76.4793C241.147 77.9632 240.699 79.4023 239.952 80.6895C239.659 81.1152 239.258 81.4551 238.79 81.6743C238.322 81.8935 237.804 81.9839 237.289 81.9364C236.775 81.8896 236.282 81.7067 235.861 81.4065C235.441 81.1062 235.108 80.6993 234.897 80.2278C234.418 78.998 234.024 77.7369 233.717 76.4534C232.485 78.5478 232.012 92.6378 232.071 93.9588C232.261 98.2202 232.207 97.7467 232.913 97.9169C235.119 98.4305 237.139 99.548 238.746 101.144C240.353 102.741 241.484 104.753 242.012 106.955C242.263 107.825 242.277 107.498 247.302 109.525C247.335 109.525 256.947 113.636 258.552 114.656C267.833 120.538 277.391 125.49 282.692 136.214C283 137.241 283.672 138.121 284.584 138.689C285.718 139.784 286.778 140.952 287.755 142.189C290.175 144.716 287.027 145.053 294.266 144.426C297.152 144.175 296.638 149.719 296.456 152.418C294.94 175.811 294.574 164.213 296.911 176.965C299.28 189.906 303.473 196.471 301.368 210.519C300.863 213.867 298.062 221.918 294.423 223.291C288.288 225.606 293.526 220.738 286.84 249.862C284.737 259.028 285.403 259.064 281.28 258.287C272.487 256.634 268.615 254.469 264.598 253.232C263.358 252.849 264.497 253.737 263.946 256.602C263.609 258.399 262.974 260.128 262.069 261.717C261.255 263.128 263.294 262.663 262.406 267.234C261.99 269.384 261.499 269.676 262.114 269.829C262.729 269.982 298.33 283.353 302.064 284.502C305.682 285.614 308.76 287.304 312.273 288.546C313.972 289.143 313.47 288.612 319.428 290.6C322.208 291.702 325.07 292.586 327.988 293.24ZM298.933 213.203C300.844 207.668 300.369 203.307 299.914 197.544C299.777 195.82 299.59 195.652 297.194 186.004C293.68 171.85 295.156 171.102 293.929 178.655C293.452 181.582 294.188 182.566 293.722 187.66C293.53 189.744 293.457 193.906 293.324 195.027C291.032 214.379 293.23 200.503 291.528 222.206C291.528 222.27 291.738 222.432 291.786 222.408C294.158 221.269 296.067 221.491 298.933 213.193V213.203ZM294.776 152.122C295.321 145.045 294.635 146.002 291.627 146.084C285.273 146.263 284.864 146.362 283.138 146.388C281.601 146.41 281.027 146.568 281.143 148.458C281.288 150.967 280.857 153.475 279.883 155.792C279.601 156.197 279.236 156.537 278.812 156.789C278.388 157.041 277.915 157.2 277.424 157.254C276.934 157.308 276.437 157.255 275.968 157.1C275.5 156.945 275.07 156.69 274.708 156.354C274.471 156.166 274.371 156.166 274.172 156.334C273.375 156.928 272.4 157.237 271.406 157.211C270.411 157.185 269.455 156.825 268.689 156.189C268.081 155.547 267.95 156.816 266.184 156.718C265.043 156.614 263.934 156.285 262.922 155.748C262.16 154.942 261.877 156.969 258.979 156.085C256.495 155.33 256.101 153.006 255.245 150.219C253.828 145.604 257.519 146.576 250.933 145.852C246.834 145.839 242.739 145.586 238.669 145.095C234.133 144.384 239.606 145.666 225.944 144.084C221.058 143.515 221.425 143.543 221.438 145.038C221.727 176.928 222.141 202.109 217.443 222.582C213.974 237.701 211.135 235.019 219.17 237.578C223.157 238.849 225.236 239.228 225.944 239.502C228.707 240.81 231.577 241.881 234.521 242.704C252.421 247.326 236.019 244.22 262.126 250.671C272.624 253.264 266.809 253.227 282.589 256.614C283.696 256.851 283.979 254.189 284.948 250.108C291.449 222.538 290.139 208.273 290.625 202.591C290.625 202.55 292.574 186.634 292.119 182.295C291.782 179.124 292.866 175.363 292.829 173.376C292.759 169.76 293.973 166.758 293.769 164.549C293.732 164.201 294.773 152.162 294.776 152.112V152.122ZM287.219 144.682C287.094 144.433 286.949 144.195 286.784 143.97C283.583 140.317 283.441 139.894 281.325 139.022C280.176 138.551 279.003 139.302 278.016 139.139C274.501 138.559 276.423 137.341 271.154 139.139C269.603 139.668 269.1 138.775 268.415 138.765C265.922 138.729 265.112 139.531 263.447 138.728C263.203 138.61 262.992 138.643 261.648 138.881C259.52 139.255 259.289 140.579 258.168 142.721C257.428 143.84 256.903 145.087 256.62 146.398C256.316 148.536 256.24 147.52 257.054 150.496C257.332 151.495 257.718 152.461 258.205 153.377C258.458 153.867 258.895 154.237 259.419 154.406C259.944 154.575 260.514 154.53 261.006 154.28C261.762 153.893 261.612 154.014 260.965 150.041C260.562 147.562 261.353 146.964 262.581 143.469C262.631 143.322 262.734 143.199 262.87 143.124C263.006 143.049 263.165 143.026 263.316 143.061C263.467 143.096 263.6 143.184 263.69 143.31C263.781 143.435 263.822 143.59 263.806 143.744C263.385 146.777 261.929 146.271 262.836 151.308C263.127 152.929 263.341 154.484 264.873 154.612C265.329 154.738 265.794 154.836 266.265 154.904C267.479 154.511 267.345 154.398 267.276 153.753C266.709 147.886 266.479 150.019 267.203 146.17C267.491 145.237 267.842 144.323 268.253 143.437C268.291 143.294 268.382 143.171 268.508 143.093C268.634 143.015 268.785 142.988 268.93 143.017C269.075 143.046 269.204 143.13 269.289 143.251C269.375 143.372 269.411 143.521 269.39 143.668C268.753 148.295 267.763 145.993 268.956 153.416C269.055 153.784 269.232 154.127 269.476 154.42C269.72 154.713 270.025 154.95 270.369 155.114C270.713 155.278 271.089 155.365 271.47 155.37C271.852 155.375 272.23 155.298 272.578 155.143C274.043 154.614 273.421 153.409 273.01 151.069C272.469 147.983 273.139 146.588 274.255 143.823C274.469 143.292 275.637 143.486 275.434 144.302C273.749 148.324 274.465 149.574 275.288 153.866C275.344 154.265 275.533 154.634 275.825 154.912C276.117 155.191 276.495 155.362 276.896 155.399C277.298 155.436 277.7 155.336 278.038 155.116C278.376 154.895 278.629 154.567 278.757 154.184C279.204 152.849 279.451 151.456 279.49 150.049C279.51 148.603 279.386 145.5 280.67 144.559C281.954 143.619 281.64 144.896 282.875 144.841C283.703 144.819 285.549 144.873 287.219 144.672V144.682ZM280.766 137.068C281.559 136.987 277.75 131.499 276.292 129.962C269.552 122.852 265.045 120.939 257.673 116.177C256.347 115.331 254.935 114.627 253.46 114.079C242.103 109.008 242.471 108.986 242.538 109.584C243.086 115.616 241.682 121.665 238.533 126.838C237.95 127.795 237.173 128.623 236.577 129.575C233.623 134.293 227.277 137.592 224.015 137.41C219.452 137.157 219.128 131.175 219.235 126.712C219.275 124.991 220.185 124.858 220.593 125.419C221.373 126.483 219.984 133.002 222.995 135.285C223.248 135.507 223.564 135.643 223.899 135.673C229.016 135.701 234.049 130.641 236.824 126.299C237.035 126.39 237.021 126.424 236.905 126.22C237.357 125.694 237.399 124.904 238.022 124.483C238.309 124.289 237.569 125.246 239.313 121.047C239.402 120.83 239.65 120.671 239.481 120.373C239.252 119.974 239.818 120.12 239.79 120.073C239.485 119.69 239.928 119.478 239.967 119.177C240.09 118.196 240.304 117.229 240.523 116.263C241 113.8 241.04 111.272 240.642 108.795C240.458 106.657 239.616 104.628 238.233 102.987C236.851 101.346 234.994 100.172 232.918 99.6272C232.086 99.4334 232.581 100.342 232.581 100.894C232.581 101.7 234.118 101.905 234.94 103.016C235.943 104.259 236.428 105.84 236.299 107.43C236.196 110.468 234.9 113.343 232.693 115.432C231.783 116.612 230.62 117.117 227.562 119.232C222.76 122.54 219.235 121.183 218.352 124.456C217.502 127.087 217.091 129.84 217.135 132.604C217.214 133.861 216.234 134.111 215.843 133.528C215.034 132.326 215.522 122.112 219.811 120.594C224.68 118.868 224.096 119.552 230.676 115.161C232.236 113.99 233.393 112.362 233.985 110.502C234.005 110.465 234.016 110.424 234.017 110.383C234.019 110.341 234.011 110.299 233.993 110.261C233.975 110.224 233.948 110.191 233.916 110.165C233.883 110.139 233.844 110.121 233.803 110.113C232.064 109.439 231.95 107.872 231.107 102.952C230.224 97.7467 229.312 76.3658 233.545 73.2822C234.949 72.2577 234.172 71.0782 236.088 69.9847C237.021 69.4522 237.941 70.4059 237.018 71.2888C235.577 72.6739 236.742 72.379 238.457 71.3327C241.879 69.2483 242.794 63.6743 242.457 59.664C242.216 56.7995 239.739 56.4625 238.868 56.134C237.134 55.4819 234.423 57.4449 233.436 59.7213C233.156 60.3667 233.046 61.162 232.445 60.9547C232.108 60.8368 231.897 60.6868 231.911 60.2993C231.886 59.7344 232.002 59.1722 232.248 58.6631C233.65 56.2283 233.897 56.5788 233.191 56.1609C231.797 55.129 230.468 54.0107 229.213 52.8128C223.42 46.2969 226.595 37.7574 219.39 29.9878C219.182 29.7637 219.078 29.7873 219.004 30.1428C218.161 34.1868 215.652 35.8853 216.175 37.3344C217.317 40.5056 218.449 38.4246 218.419 40.0136C218.394 41.3245 215.519 41.5857 214.144 41.3717C213.166 41.3131 212.225 40.972 211.436 40.3897C210.648 39.8074 210.045 39.0089 209.701 38.091C207.77 34.357 212.112 30.2557 210.25 27.2278C209.576 26.1275 209.126 26.5268 206.486 27.3255C205.377 27.8072 204.213 28.1496 203.02 28.3449C202.371 28.377 201.074 31.4875 202.514 33.7487C203.536 35.7474 203.806 38.0464 203.276 40.2276C202.629 43.328 200.401 44.1823 198.77 45.1141C198.256 45.4089 197.412 45.3078 197.195 44.8023C197.131 44.5555 197.15 44.2947 197.248 44.0594C197.346 43.8241 197.517 43.627 197.737 43.4981C198.209 43.2012 198.586 42.775 198.822 42.2701C199.059 41.7653 199.146 41.2031 199.072 40.6505C197.599 37.8534 196.726 37.7068 195.602 35.0108C195.216 34.2679 194.962 33.4633 194.853 32.6333C194.067 32.9703 193.936 33.592 192.398 34.3654C181.056 40.0692 187.671 57.7684 186.175 63.7738C184.021 72.4144 186.726 75.4002 188.46 79.2555C189.607 82.4009 191.164 85.3815 193.09 88.1203C197.028 92.7625 197.355 93.3017 200.898 95.6304C201.894 96.3044 202.942 96.8975 204.032 97.403C214.538 99.9726 217.849 96.0786 223.806 90.208C223.924 90.0895 224.082 90.0189 224.25 90.0095C224.417 90.0002 224.582 90.0529 224.712 90.1575C225.105 90.385 224.992 90.663 224.964 90.9241C224.881 91.6824 219.29 103.875 211.947 104.165C206.983 104.362 205.974 103.639 205.995 104.291C206.098 107.493 206.681 109.73 204.297 112.13C201.456 114.994 199.432 113.331 200.927 115.421C203.92 119.588 207.229 118.031 211.684 120.937C213.629 122.206 214.789 129.137 214.977 131.679C214.977 132.309 214.877 132.963 214.237 132.96C212.562 132.95 214.089 129.644 211.411 123.63C210.793 122.242 210.441 122.183 209.113 121.608C205.003 119.834 207.561 121.271 203.807 119.859C201.181 118.872 198.341 116.054 198.809 113.299C199.277 110.544 201.058 107.344 202.883 106.559C203.539 106.275 204.4 106.064 204.4 105.816C204.474 105.183 204.477 104.544 204.413 103.91C203.965 101.341 199.154 106.141 197.941 107.53C195.493 109.989 194.025 113.256 193.813 116.72C193.604 118.683 193.516 119.173 195.368 124.727C196.378 127.329 197.934 129.685 199.931 131.635C200.555 132.395 201.38 132.963 202.312 133.274C203.244 133.585 204.245 133.627 205.2 133.395C207.054 132.906 207.207 130.234 207.916 127.795C208.626 125.357 208.59 124.508 209.787 124.889C210.435 125.098 210.348 125.62 210.161 126.319C209.633 128.62 208.968 130.887 208.171 133.108C206.506 137.112 200.44 134.898 198.944 133.268C194.912 128.879 194.081 127.202 192.492 121.188C191.393 117.03 192.979 113.461 193.033 112.052C192.746 112.11 184.288 116.192 182.131 117.613C181.962 117.726 173.116 121.593 171.657 124.403C172.57 124.601 177.345 123.406 178.552 128.518C179.002 130.421 177.762 130.372 178.609 130.862C179.568 131.493 180.25 132.466 180.515 133.584C180.779 134.701 180.607 135.877 180.033 136.871C179.811 137.332 179.721 137.732 180.111 138.076C180.587 138.588 180.931 139.211 181.108 139.889C181.311 140.499 181.381 141.146 181.312 141.785C181.244 142.425 181.039 143.042 180.712 143.596C180.544 144.047 180.611 143.993 181.147 145.388C182.045 147.731 181.92 151.286 179.669 152.58C177.167 154.022 176.926 155.146 173.219 154.983C173.112 154.964 173.003 154.985 172.91 155.041C172.817 155.096 172.747 155.183 172.713 155.286C170.513 159.21 169.977 159.103 168.961 161.665C167.293 165.878 167.426 164.813 170.865 165.485C177.881 166.852 175.999 169.511 177.133 165.298C179.025 158.267 178.692 158.558 179.762 158.681C180.215 158.73 180.254 159.337 180.164 159.733C177.563 171.476 178.897 162.388 177.731 173.481C177.249 178.05 178.223 179.141 179.177 182.58C179.912 185.232 180.169 187.707 181.553 189.825C182.479 191.238 183.115 192.822 183.422 194.484C183.472 197.064 183.609 198.1 182.643 199.295C180.742 201.654 181.89 203.159 181.051 204.456C179.142 207.407 178.946 207.565 179.354 208.625C179.762 209.685 181.18 210.881 182.328 210.522C183.154 210.266 183.892 210.497 187.57 212.559C191.395 214.706 191.393 213.139 195.456 214.362C196.716 214.741 199.687 215.921 200.433 216.152C204.715 217.474 209.943 218.228 212.345 219.082C213.492 219.464 214.7 219.635 215.908 219.587C216.961 219.567 217.056 216.172 217.735 210.455C218.818 201.329 218.365 210.792 219.772 187.67C220.215 181.217 220.254 174.743 219.888 168.284C219.878 167.044 220.057 159.987 219.888 157.101C219.805 155.457 219.861 153.808 220.057 152.174C220.252 150.477 219.824 148.804 220.136 147.129C220.224 146.657 219.769 147.825 220.217 143.353C220.434 141.188 224.611 142.401 231.968 142.96C233.016 143.162 234.086 143.219 235.149 143.129C237.368 142.691 238.568 143.513 243.874 143.803C244.112 143.803 244.191 143.803 244.169 143.501C244.196 142.566 244.549 141.67 245.167 140.967C245.784 140.265 246.628 139.8 247.553 139.654C248.166 139.559 248.793 139.606 249.384 139.794C250.732 140.131 252.1 139.688 253.726 139.963C254.65 140.121 256.291 139.218 257.57 139.154C259.105 139.078 260.338 135.89 264.531 137.144C265.923 137.56 265.85 136.706 268.859 136.95C269.823 137.029 270.052 137.624 270.77 137.287C272.049 136.677 273.448 136.361 274.865 136.364C278.693 136.402 274.899 137.656 280.766 137.058V137.068ZM262.465 254.735C262.178 253.218 262.234 252.65 261.52 252.467C257.661 251.478 251.792 250.276 248.314 249.137C244.158 247.35 239.86 245.911 235.464 244.835C232.822 244.253 230.252 243.384 227.798 242.246C223.117 240.114 224.657 241.282 219.236 239.55C210.707 236.823 213.28 237.037 212.355 236.276C211.48 235.558 212.078 234.496 212.449 233.381C213.966 228.813 214.146 228.831 213.239 228.752C207.519 228.304 205.488 228.6 202.909 227.005C200.878 225.783 198.626 224.975 196.281 224.627C192.007 223.813 194.639 224.77 189.976 222.93C189.942 222.93 184.884 220.937 184.717 220.893C181.01 219.906 180.81 218.184 179.452 218.981C178.277 219.068 177.121 219.33 176.023 219.756C173.547 220.972 174.447 223.001 174.393 223.83C174.124 227.985 171.259 226.636 167.773 227.829C166.93 228.039 166.11 228.334 165.325 228.708C164.054 229.485 162.658 230.038 161.2 230.341C159.132 231.051 157.243 232.201 155.663 233.711C159.746 235.497 163.933 237.034 168.201 238.314C172.119 239.214 171.595 239.858 179.639 242.456C185.182 244.247 187.674 245.742 190.842 246.895C192.916 247.649 192.654 247.307 201.028 250.157C202.017 250.494 201.534 249.019 204.182 246.647C208.385 243.526 214.848 245.339 216.554 248.795C217.469 250.614 217.672 252.708 217.125 254.669C216.896 255.463 216.916 255.195 221.538 256.619C224.485 257.525 230.962 259.835 235.645 261.14C239.04 262.086 239.92 262.912 242.693 263.856C245.347 264.759 250.107 265.861 251.361 266.28C260.595 269.35 259.946 270.016 260.367 267.763C260.873 265.049 260.948 265.067 260.199 263.618C259.002 261.252 262.124 260.317 262.465 254.725V254.735ZM256.788 142.106C257.098 141.548 257.462 141.274 257.029 141.226C255.25 141.033 254.559 141.912 253.154 141.563C252.018 141.282 251.598 141.9 248.899 141.413C246.838 141.039 245.738 142.052 245.697 143.403C245.662 144.414 245.729 143.424 254.697 144.475C255.764 144.603 255.669 144.118 256.788 142.106ZM247.8 281.238C247.414 281.041 239.859 278.406 238.027 277.639C230.155 274.331 237.171 277.341 224.586 273.039C220.08 271.499 218.943 270.249 215.715 269.376C214.444 269.039 213.861 268.4 213.954 269.293C214.25 271.966 214.474 275.743 217.913 277.145C217.951 277.145 224.082 279.856 224.384 279.895C224.684 279.894 224.981 279.952 225.258 280.067C225.535 280.181 225.786 280.35 225.997 280.563C226.208 280.776 226.374 281.03 226.486 281.308C226.598 281.586 226.653 281.884 226.649 282.183C226.994 287.276 228.43 285.466 215.421 291.758C212.96 292.949 213.195 293.392 208.971 291.008C188.812 279.626 193.447 281.799 186.692 278.133C186.207 277.87 186.315 277.742 186.187 274.594C186.153 274.594 186.074 272.845 187.096 272.333C190.071 270.838 195.698 268.345 197.063 267.704C198.374 267.091 200.833 269.465 201.276 268.707C201.956 267.537 202.36 266.227 202.455 264.877C202.504 264.279 202.295 264.51 199.003 262.937C197.589 262.263 192.152 259.604 190.878 259.994C188.302 260.692 185.779 261.57 183.327 262.622C180.442 263.633 167.279 267.596 164.346 268.483C153.196 271.853 160.022 270.394 145.843 275.004C143.619 275.471 141.468 276.238 139.45 277.282C135.49 279.696 121.774 283.629 120.338 284.072C120.001 284.177 119.978 284.355 120.242 284.524C125.618 287.939 125.121 286.615 129.466 289.014C134.132 291.589 132.855 290.549 134.558 291.758C139.337 295.146 143.238 296.855 145.679 298.408C147.295 299.711 149.08 300.788 150.985 301.61C153.701 302.729 173.377 315.521 175.696 317.516C177.057 318.696 178.57 319.687 180.035 320.738C182.156 322.263 184.786 318.404 187.538 317.393C189.845 316.232 192.001 314.792 193.958 313.107C195.501 311.876 197.244 310.919 199.111 310.277C201.786 308.7 204.914 306.631 207.748 304.885C213.416 301.371 246.767 282.544 247.805 281.238H247.8ZM238.388 79.2218C239.214 77.7677 239.625 76.7381 239.271 73.3884C239.252 73.2199 239.188 73.107 239.013 73.2199C236.691 74.7818 235.79 73.2502 235.79 75.257C235.813 76.6556 236.209 78.0238 236.934 79.2218C237.411 79.8267 238.016 79.8756 238.388 79.2218ZM225.361 283.641C225.147 281.201 226.896 281.917 213.081 287.301C212.275 287.614 212.25 287.592 212.774 290.635C212.923 291.491 212.656 291.4 217.26 289.1C226.19 284.64 225.238 286.008 225.361 283.641ZM223.11 281.125C223.017 281.043 222.914 280.972 222.803 280.915C216.527 278.375 218.953 279.526 217.453 280.038C214.011 281.218 214.119 281.397 212.7 281.737C212.122 281.875 211.419 282.108 210.238 282.48C207.282 281.429 204.516 279.904 202.049 277.964C201.906 277.843 199.483 276.47 197.331 275.197C193.665 273.027 201.432 270.756 199.881 269.974C197.81 268.938 197.971 268.847 197.486 269.081C196.138 269.731 189.584 272.817 188.133 273.155C189.216 274.166 210.676 285.793 210.712 285.813C210.949 286.032 211.258 286.157 211.581 286.166C211.904 286.175 212.219 286.066 212.468 285.86C212.523 285.826 222.06 282.062 223.11 281.125ZM213.057 279.924C216.507 278.677 216.36 278.714 216.112 278.439C214.769 277.315 213.737 275.865 213.115 274.227C211.505 269.554 213.098 261.5 212.242 261.793C203.795 264.69 204.659 260.096 204.093 264.306C202.772 274.151 196.696 273.022 198.603 274.186C199.85 274.946 201.997 275.952 203.072 276.726C205.443 278.431 210.078 281.012 210.486 280.76C211.308 280.384 212.171 280.104 213.057 279.924ZM214.968 256.243C215.669 254.443 215.834 252.478 215.443 250.586C214.335 248.32 213.553 247.626 210.117 247.007C208.561 246.654 206.929 246.894 205.541 247.681C202.437 249.789 202.224 255.095 203.333 256.546C204.303 257.971 205.747 259.007 207.408 259.47C208.845 259.736 210.33 259.572 211.675 258.998C213.02 258.424 214.166 257.465 214.968 256.243ZM214.995 225.379C216.308 219.818 216.195 221.985 213.074 221.245C211.376 220.844 207.595 219.651 205.706 219.392C199.569 218.526 196.201 216.12 193.365 215.825C190.837 215.56 190.308 216.126 186.864 214.249C181.43 211.287 181.775 211.69 181.211 214.923C181.172 215.735 181.223 216.549 181.361 217.35C181.368 217.446 181.404 217.539 181.464 217.615C181.524 217.691 181.605 217.748 181.698 217.778C182.52 218.264 183.394 218.656 184.304 218.945C186.466 219.49 187.024 219.956 193.516 222.315C195.405 222.572 197.279 222.922 199.132 223.369C204.617 224.942 202.986 225.608 206.098 226.253C207.175 226.477 207.293 226.373 214.21 226.927C214.554 226.963 214.623 226.958 215 225.379H214.995ZM201.985 285.326C211.937 291.335 211.024 291.009 211.115 289.95C210.877 287.159 211.017 287.393 210.572 287.176C208.12 285.978 206.191 285.136 198.597 280.827C185.791 273.56 187.395 273.608 187.54 276.505C187.58 277.331 201.948 285.302 201.985 285.326ZM179.709 149.545C179.864 147.148 179.75 146.13 178.468 145.424C177.185 144.718 176.835 145.158 173.212 145.559C172.142 145.677 169.684 145.993 169.647 144.91C169.62 144.136 170.393 144.067 171.163 143.926C176.794 142.906 176.998 142.795 177.971 143.019C179.356 143.339 179.87 141.567 179.3 140.537C178.498 139.085 178.931 138.347 173.559 138.945C172.053 139.117 170.567 139.43 169.119 139.885C168.963 139.927 168.798 139.915 168.649 139.852C168.501 139.789 168.378 139.677 168.3 139.536C168.222 139.394 168.194 139.23 168.221 139.071C168.247 138.912 168.326 138.766 168.445 138.657C169.894 137.112 175.037 137.036 177.972 136.741C178.565 136.682 179.302 134.867 178.351 133.127C177.116 130.862 173.711 133.275 170.523 132.736C168.258 132.352 167.175 134.222 166.465 133.398C166.358 133.198 166.328 132.966 166.383 132.745C166.437 132.525 166.572 132.333 166.76 132.207C167.251 131.736 167.843 131.384 168.49 131.175C169.137 130.966 169.823 130.906 170.496 131C172.443 131.026 174.384 130.788 176.267 130.291C176.671 130.223 176.732 130.122 176.746 129.686C176.764 128.779 176.441 127.898 175.839 127.219C174.105 124.965 167.124 127.325 165.431 127.453C164.02 127.494 162.652 127.946 161.496 128.755C160.339 129.563 159.444 130.692 158.922 132.003C158.607 132.909 157.528 136.79 157.483 137.268C157.024 142.02 156.662 151.131 155.162 154.42C153.715 157.601 154.416 160.13 153.092 163.271C141.785 190.091 144.271 186.098 141.494 197.687C140.734 201.241 140.988 204.938 142.225 208.355C142.95 209.914 143.822 211.398 144.828 212.792C148.095 218.121 154.498 221.793 158.534 218.974C161.869 216.647 163.308 216.952 165.117 214.942C167.252 212.564 168.054 211.968 168.626 210.379C169.219 208.728 172.085 206.599 177.324 194.493C177.324 194.459 179.666 190.038 179.143 188.86C178.163 186.652 178.894 187.411 176.616 180.322C174.663 174.231 177.514 170.087 175.657 169.219C175.071 168.945 174.526 168.582 173.94 168.306C172.222 167.453 170.341 166.978 168.423 166.914C167.611 166.746 167.395 166.449 167.316 168.272C167.214 170.591 167.026 171.1 167.003 172.485C166.966 174.743 167.18 178.382 167.112 179.616C166.944 182.725 167.647 183.897 167.829 187.043C167.896 188.208 168.166 199.849 167.564 201.642C167.523 201.801 167.428 201.941 167.295 202.039C167.163 202.136 167 202.184 166.836 202.176C166.672 202.167 166.516 202.102 166.394 201.991C166.272 201.88 166.193 201.731 166.169 201.568C166.066 200.972 166.206 199.192 166.199 197.283C166.128 177.592 165.282 188.929 165.357 174.873H165.235C166.3 155.741 169.928 159.3 171.825 152.58C172.405 150.523 173.005 150.465 176.161 148.546C176.56 148.452 176.979 148.507 177.34 148.699C177.677 148.952 177.236 149.753 176.899 149.997C173.244 152.647 173.928 151.874 173.608 152.988C175.721 153.212 176.444 152.403 178.976 150.777C179.187 150.644 179.362 150.462 179.489 150.248C179.617 150.034 179.692 149.794 179.709 149.545ZM163.973 256.641C168.354 255.079 168.388 255.651 168.523 252.366C165.601 253.494 162.615 254.447 159.58 255.22C158.996 255.335 156.547 256.344 155.449 256.652C152.61 257.454 145.942 258.76 139.686 260.583C138.368 260.968 127.722 264.183 125.463 264.681C114.7 267.057 110.286 268.575 107.716 268.912C107.415 268.951 107.502 268.695 107.753 273.664C106.963 275.071 112.259 272.252 118.866 271.027C120.591 270.707 131.641 266.759 133.465 266.447C137.151 265.817 149.968 260.737 153.754 260.044C155.402 259.736 161.754 257.434 163.973 256.641ZM166.598 251.099C167.246 250.743 166.261 250.677 160.885 248.536C139.945 240.193 107.071 225.451 107.061 226.814V234.171C107.061 235.19 107.78 234.857 109.706 236.025C112.434 237.691 114.845 238.223 120.519 241.118C122.767 242.387 125.109 243.477 127.527 244.38C132.351 246.354 135.672 248.93 140.061 250.532C140.604 250.731 142.122 251.543 141.915 251.958C141.608 252.785 140.922 252.664 124.468 257.493C122.783 257.985 116.441 260.171 107.802 262.13C107.128 262.284 107.128 261.906 107.398 267.017C107.398 267.303 107.472 267.401 107.802 267.327C113.432 266.06 112.48 265.91 114.306 265.628C114.343 265.628 125.727 262.868 125.764 262.858C135.008 260.383 133.033 260.651 142.823 257.803C145.351 257.063 153.27 255.766 156.937 254.244C158.647 253.535 164.558 252.222 166.598 251.099ZM161.464 126.708C161.842 126.493 161.945 126.309 161.892 125.942C161.795 124.475 161.528 123.025 161.095 121.62C160.999 121.375 161.095 120.919 160.952 120.856C160.344 120.584 160.979 119.943 158.633 116.873C157.791 115.766 156.874 114.605 155.791 115.448C155.048 116.027 155.501 116.826 156.059 118.312C161.237 132.018 155.471 130.136 161.464 126.708ZM139.261 251.735C138.924 251.521 139.529 251.806 137.318 251.016C133.925 249.803 132.88 248.088 131.547 248.564C124.049 251.249 123.813 250.863 125.097 251.377C132.477 254.327 131.129 253.823 131.837 253.923C132.604 253.761 139.05 251.879 139.261 251.735ZM130.287 247.567C129.801 247.021 130.961 247.643 122.906 244.172C122.074 243.813 122.173 244.138 120.027 244.82C115.066 246.397 114.866 246.246 115.597 246.633C122.819 250.457 121.402 249.732 122.227 250.003C122.903 249.843 129.714 247.926 130.287 247.567ZM121.033 256.834C129.786 254.283 128.278 254.915 128.725 254.566C128.416 254.379 122.167 251.747 121.776 251.623C120.733 251.853 122.391 251.417 114.53 253.547C112.473 254.105 112.193 253.68 117.762 256.501C119.528 257.399 118.886 257.459 121.033 256.834ZM119.602 250.532C119.179 250.152 120.212 250.74 113.624 247.311C112.613 246.78 112.66 247.001 107.802 248.669C107.197 248.876 107.071 248.856 107.224 249.848C107.224 250.691 107.143 250.815 107.529 251.028C110.717 252.816 110.636 253.063 111.373 252.831C113.201 252.258 118.886 250.964 119.602 250.532ZM112.894 245.309C113.838 245.065 120.15 243.353 120.702 243.075C118.718 241.84 116.576 240.881 114.333 240.224C114.212 240.24 110.378 241.201 107.425 242.284C107.044 242.423 107.298 242.731 107.425 242.79C108.34 243.257 111.937 244.95 112.889 245.314L112.894 245.309ZM117.186 258.007C116.815 257.616 117.594 258.15 113.737 256.143C111.142 254.795 110.967 254.531 110.304 254.758C106.638 256.017 107.204 255.053 107.204 258.152C107.275 258.152 107.219 258.064 107.234 260.098C107.234 260.7 107.293 260.733 107.869 260.587C108.665 260.39 115.152 258.799 117.186 258.012V258.007ZM110.235 239.853C112.97 239.11 114.111 239.974 107.571 236.798C106.815 236.429 107.143 236.933 107.177 240.193C107.187 241.139 107.086 240.714 110.235 239.858V239.853ZM110.341 246.182C110.555 246.104 110.564 245.953 110.341 245.845C107.221 244.288 107.067 244.045 107.14 244.562C107.194 244.921 107.14 246.406 107.14 247.115C107.625 247.306 107.993 246.947 108.412 246.827C109.074 246.654 109.706 246.418 110.341 246.187V246.182ZM107.767 253.956C109.175 253.565 109 253.518 107.43 252.682C107.386 252.684 107.344 252.696 107.306 252.717C107.268 252.739 107.236 252.769 107.212 252.805C107.211 253.68 106.992 254.177 107.767 253.961V253.956ZM105.981 273.01C106.12 271.415 104.668 257.594 105.731 210.269C106.134 192.326 105.207 205.984 105.731 184.042C105.751 182.523 105.687 181.005 105.541 179.493C105.503 178.465 105.082 177.489 104.361 176.756C100.461 173.132 76.7475 167.627 73.5528 166.734C70.358 165.841 74.2874 166.626 54.3842 160.939C49.2382 159.468 44.6938 158.654 26.2801 153.54C25.5618 153.347 24.7968 153.436 24.1419 153.789C23.487 154.141 22.992 154.732 22.7585 155.438C22.2024 158.548 22.8865 166.687 22.9758 169.878C23.0483 172.455 22.9994 226.105 24.4839 229.475C25.7729 232.405 23.6818 232.023 33.0386 236.741C36.7771 238.489 40.3855 240.504 43.8361 242.768C59.1123 251.722 83.5027 262.728 86.6149 264.248C106.902 274.153 105.829 274.801 105.981 273.01Z" fill="#1B1B1D"/>
  <path d="M282.833 191.621C289.696 194.176 287.134 194.764 282.615 200.789C280.275 203.91 275.075 210.431 273.159 212.631C269.058 217.349 268.116 220.158 260.917 227.81C260.365 228.398 259.682 228.26 257.182 227.84C255.805 227.608 254.444 227.289 253.108 226.887C251.347 226.359 251.537 227.545 248.735 202.516C248.578 201.118 250.654 200.196 252.425 199.903C256.201 199.278 258.333 198.093 259.165 199.903C259.35 200.904 259.387 201.925 259.278 202.936C259.064 206.148 260.323 209.998 260.208 212.54C263.559 209.532 266.753 206.352 269.776 203.013C270.372 202.339 271.134 201.826 271.777 201.204C272.421 200.582 273.093 199.842 273.787 199.167C280.19 192.932 280.428 192.932 280.696 192.516C280.948 192.199 281.276 191.951 281.65 191.795C282.023 191.639 282.43 191.579 282.833 191.621ZM278.056 204.014C285.862 193.955 285.724 194.868 285.008 194.457C284.292 194.046 283.613 193.761 282.917 193.399C282.125 192.988 282.472 192.903 274.878 200.307C259.057 215.718 258.857 217.732 258.506 212.551C258.041 205.666 257.906 210.808 257.62 201.109C257.6 200.435 257.753 200.572 254.666 201.2C253.414 201.457 250.117 201.755 250.253 202.749C253.396 225.562 252.599 225.092 253.746 225.373C259.627 226.816 260.38 226.573 260.86 225.554C262.576 224.106 276.141 206.48 278.056 204.014Z" fill="#1B1B1D"/>
  <path d="M280.083 208.829C280.536 211.448 280.524 214.126 280.045 216.741C278.928 221.89 276.323 226.598 272.552 230.279C271.233 231.602 269.717 232.712 268.057 233.569C264.729 235.384 260.928 236.143 257.158 235.746C252.355 235.245 247.86 233.139 244.403 229.767C240.508 225.597 238.207 220.187 237.905 214.489C237.396 210.428 238.212 206.312 240.231 202.752C242.561 198.513 246.18 195.126 250.564 193.082C254.948 191.038 259.869 190.444 264.614 191.385C266.688 191.61 268.67 192.364 270.369 193.575C270.66 193.819 272.896 195.248 272.837 196.579C272.816 196.782 272.736 196.973 272.608 197.13C272.479 197.287 272.307 197.403 272.112 197.462C271.918 197.522 271.71 197.521 271.516 197.461C271.321 197.402 271.149 197.286 271.021 197.129C270.502 196.118 269.479 195.661 268.672 194.994C267.999 194.536 267.242 194.217 266.444 194.057C262.737 192.787 258.744 192.611 254.939 193.552C252.077 194.282 249.424 195.666 247.188 197.596C245.309 198.848 243.767 200.543 242.697 202.531C241.269 204.717 240.313 207.178 239.894 209.756C239.472 212.333 239.594 214.97 240.253 217.497C240.679 220.638 241.921 223.61 243.855 226.121C246.824 230.487 250.497 231.82 254.526 233.344C257.239 234.372 261.79 233.83 265.268 232.628C270.547 230.805 276.915 224.22 278.061 215.517C278.662 210.947 278.086 210.243 278.529 208.796C278.679 208.652 278.858 208.542 279.054 208.474C279.251 208.406 279.46 208.381 279.666 208.401C279.858 208.503 280.116 208.713 280.083 208.829Z" fill="#1B1B1D"/>
  <path d="M271.439 163.877C271.426 164.143 271.33 164.398 271.164 164.605C270.999 164.813 270.771 164.964 270.515 165.035C268.625 165.109 266.052 166.61 264.264 166.1C262.63 165.633 263.172 164.33 261.758 164.403C256.11 164.693 254.963 169.217 251.856 164.477C250.56 162.501 244.484 167.805 242.121 164.162C241.24 162.802 240.984 163.208 237.247 164.787C236.733 165.012 236.206 165.203 235.668 165.36C235.371 165.462 235.054 165.494 234.743 165.452C234.431 165.411 234.134 165.297 233.874 165.12C233.615 164.944 233.4 164.709 233.246 164.435C233.093 164.16 233.006 163.854 232.992 163.54C232.824 162.373 232.942 161.872 232.318 162.032C230.969 162.306 229.666 162.774 228.451 163.422C227.578 163.876 227.024 164.796 226.384 164.192C225.177 163.055 229.44 160.73 232.407 160.317C232.843 160.283 233.278 160.386 233.651 160.612C234.025 160.838 234.318 161.176 234.49 161.577C234.605 161.843 234.66 162.132 234.657 162.421C234.773 164.411 234.942 163.601 239.329 161.936C240.949 161.321 242.388 161.178 243.304 162.686C245.158 165.737 250.899 159.415 253.49 163.501C254.531 165.143 254.25 164.937 255.972 164.175C265.177 160.131 263.604 164.72 265.533 164.199C266.011 164.069 269.664 163.09 270.286 163.031C270.548 163.011 270.808 163.085 271.02 163.24C271.231 163.396 271.38 163.622 271.439 163.877Z" fill="#1B1B1D"/>
  <path d="M259.383 175.349C259.268 175.391 254.97 176.089 254.218 176.102C251.123 176.161 252.292 173.383 250.565 173.644C246.016 174.335 242.083 177.31 240.543 175.253C239.739 174.178 239.382 174.655 235.678 175.801C235.428 175.901 235.158 175.94 234.889 175.916C234.621 175.891 234.362 175.803 234.135 175.659C233.906 175.515 233.716 175.319 233.579 175.087C233.443 174.854 233.364 174.592 233.35 174.323C233.414 172.693 233.725 172.217 233.013 172.362C230.096 172.948 227.688 175.442 226.864 174.507C226.502 174.095 227.095 173.426 227.369 173.238C230.355 171.155 235.548 168.874 235.227 172.528C235.1 173.954 235.067 174.026 235.702 173.854C236.167 173.73 238.903 172.881 239.318 172.72C239.684 172.621 240.072 172.63 240.434 172.746C240.795 172.863 241.115 173.081 241.355 173.376C242.213 174.697 243.04 173.736 247.894 172.265C250.156 171.58 252.84 171.086 253.509 173.58C253.716 174.352 253.551 174.234 256.606 173.817C257.453 173.625 258.32 173.533 259.189 173.543C260.446 173.674 260.382 174.985 259.383 175.349Z" fill="#1B1B1D"/>
  <path d="M252.184 153.543C253.284 153.855 252.595 155.186 251.967 155.262C248.654 155.656 249.377 154.42 247.417 154.994C245.262 155.63 244.157 156.585 242.699 155.7C239.456 153.731 240.883 152.817 239.595 153.242C234.842 154.812 233.036 156.558 232.025 153.838C231.897 153.351 231.831 152.849 231.828 152.345C231.726 151.252 227.559 154.384 226.793 154.135C225.885 153.838 225.876 153.124 226.555 152.777C227.721 152.182 231.29 149.936 232.473 150.349C234.689 151.122 232.424 154.108 234.51 153.306C234.662 153.247 239.602 151.366 239.756 151.341C240.234 151.286 240.717 151.393 241.127 151.646C241.537 151.9 241.849 152.284 242.013 152.736C242.33 153.37 242.88 153.855 243.547 154.094C243.786 154.181 244.043 154.209 244.295 154.174C244.547 154.14 244.787 154.045 244.994 153.897C246.329 153.164 247.878 152.917 249.375 153.201C250.661 153.707 251.058 153.223 252.184 153.543Z" fill="#1B1B1D"/>
  <path d="M247.67 185.079C245.884 185.467 242.596 184.279 238.557 185.511C238.152 185.626 237.74 185.719 237.324 185.789C236.86 185.868 236.383 185.773 235.985 185.522C235.586 185.27 235.295 184.88 235.167 184.427C235.081 184.128 235.07 183.812 235.134 183.507C235.162 183.339 235.428 182.781 234.84 182.879C231.966 183.359 228.046 185.785 227.61 184.213C227.349 183.276 228.491 183.214 231.907 182.077C235.445 180.897 234.013 181.27 235.391 181.066C236.589 181.12 237.572 181.775 237.171 182.763C236.146 185.28 237.981 183.037 242.423 183.1C247.668 183.175 244.918 183.389 247.458 183.3C249.036 183.241 249.165 184.753 247.67 185.079Z" fill="#1B1B1D"/>
  <path d="M241.035 59.3101C241.072 59.4226 241.08 59.5426 241.059 59.6591C241.038 59.7756 240.988 59.8848 240.913 59.977C240.839 60.0691 240.743 60.1412 240.633 60.1866C240.524 60.232 240.405 60.2493 240.287 60.2369C240.13 60.2217 239.983 60.1548 239.868 60.0465C239.234 59.5612 238.897 59.0624 238.127 59.5713C237.335 60.1779 236.816 61.071 236.683 62.0601C236.393 63.462 236.365 63.0711 237.288 63.9136C237.802 64.4502 238.119 65.1451 238.187 65.8849C238.256 66.6247 238.072 67.366 237.665 67.9879C236.909 68.7091 236.749 69.0932 236.09 69.1792C235.431 69.2651 235.091 68.8422 235.214 68.1598C235.33 67.7554 235.576 67.4015 235.913 67.1488C236.078 67.0307 236.211 66.8733 236.3 66.6909C236.389 66.5085 236.431 66.3068 236.422 66.1041C236.411 65.9021 236.351 65.7058 236.246 65.5327C236.142 65.3596 235.996 65.2149 235.822 65.1116C235.383 64.8219 235.055 64.3918 234.892 63.8917C234.73 63.3915 234.741 62.8509 234.926 62.3583C235.06 60.7988 235.79 59.3508 236.963 58.3143C237.269 58.0357 237.639 57.8365 238.04 57.7344C238.442 57.6323 238.862 57.6303 239.264 57.7286C239.666 57.827 240.038 58.0226 240.347 58.2984C240.656 58.5742 240.892 58.9216 241.035 59.3101Z" fill="#1B1B1D"/>
  <path d="M239.646 40.3406C239.87 41.5572 238.79 41.6313 238.499 41.2134C237.744 40.1283 237.092 27.998 228.365 23.1587C228.198 23.0675 228.067 22.9227 227.993 22.7478C227.919 22.5728 227.907 22.378 227.957 22.1949C228.463 20.2891 234.143 25.4402 235.356 27.8649C238.389 33.9309 238.377 33.4287 239.646 40.3406Z" fill="#1B1B1D"/>
  <path d="M238.803 51.1139C238.7 51.3312 238.649 51.6362 238.51 51.6834C238.225 51.7794 237.935 52.0069 237.569 51.7205C233.463 48.5072 233.379 46.3773 232.477 40.741C231.987 38.5875 231.256 36.4962 230.297 34.5065C229.29 32.4038 227.938 30.484 226.298 28.8264C225.018 27.379 226.93 24.8076 231.903 34.0499C235.008 39.8193 233.468 46.3841 237.352 49.284C237.986 49.7574 238.486 50.3893 238.803 51.1139Z" fill="#1B1B1D"/>
  <path d="M223.12 18.0617C223.953 19.6372 225.36 21.1419 224.662 23.8918C224.62 24.0529 224.525 24.1951 224.393 24.2954C224.26 24.3957 224.097 24.4483 223.931 24.4445C223.765 24.4413 223.604 24.3824 223.476 24.2773C223.347 24.1722 223.258 24.0269 223.221 23.8648C223.326 22.574 223.022 21.2829 222.352 20.1747C221.899 19.0874 221.126 18.1637 220.136 17.5262C219.146 16.8887 217.985 16.5677 216.808 16.6058C213.637 16.3581 213.972 16.0397 210.987 17.1703C209.679 17.664 209.421 16.4963 210.097 16.0902C211.306 15.1994 212.781 14.7423 214.282 14.7928C215.878 14.9529 221.341 14.695 223.12 18.0617Z" fill="#1B1B1D"/>
  <path d="M224.402 47.9652C224.446 48.1978 224.402 48.437 224.277 48.6392C223.585 48.6972 222.895 48.4974 222.341 48.0781C221.016 47.4591 219.538 47.2441 218.092 47.4597C216.846 48.0439 215.634 48.6976 214.462 49.4177C214.263 49.5616 214.021 49.6345 213.776 49.6248C213.531 49.615 213.295 49.5231 213.108 49.3639C212.921 49.2046 212.793 48.9872 212.744 48.7464C212.696 48.5057 212.729 48.2555 212.84 48.036C213.266 47.2036 213.669 46.8161 216.855 45.5978C218.149 45.1092 223.794 46.0292 224.402 47.9652Z" fill="#1B1B1D"/>
  <path d="M221.802 55.6496C222.25 56.2377 221.691 56.6859 221.086 57.0701C220.006 57.7559 221.066 58.5664 217.517 59.4628L217.487 59.3651C215.328 59.3651 216.129 56.8005 218.788 56.177C221.174 55.6159 221.261 54.9419 221.802 55.6496Z" fill="#1B1B1D"/>
  <path d="M213.484 75.3774C212.407 72.9072 217.75 74.8719 217.398 76.6412C217.159 77.8459 216.2 76.7406 216.003 77.3775C215.393 79.304 214.597 81.1664 213.625 82.938C212.907 84.1481 211.912 85.1708 210.722 85.9221C209.49 86.7882 206.835 86.2355 205.429 85.5851C203.291 84.0749 201.477 82.1522 200.093 79.9303C199.993 79.7906 199.925 79.6307 199.893 79.4619C199.862 79.293 199.867 79.1193 199.91 78.9529C199.953 78.7865 200.031 78.6315 200.14 78.4988C200.249 78.366 200.386 78.2588 200.541 78.1846C200.748 78.0847 200.979 78.0472 201.207 78.0768C203.42 78.474 205.699 78.2858 207.817 77.5308C208.907 77.0506 213.908 76.3564 213.484 75.3774ZM211.63 82.7762C212.859 81.1209 213.741 79.2349 214.225 77.2309C212.946 77.7094 211.642 78.1189 210.319 78.4576C207.703 79.3759 204.943 79.8138 202.171 79.75C201.93 79.75 201.889 79.9185 202.021 80.0634C205.231 83.4502 205.477 84.3029 208.624 84.6567C208.992 84.6719 209.357 84.618 209.704 84.5C210.424 84.0181 211.072 83.4384 211.63 82.7762Z" fill="#1B1B1D"/>
  <path d="M216.427 179.376C217.69 179.863 216.668 181.794 215.786 181.246C214.523 180.463 214.229 181.654 208.507 178.651C205.746 177.375 202.718 176.786 199.68 176.934C197.304 176.934 194.143 176.533 192.889 176.483C187.637 176.267 181.177 170.08 184.449 170.545C185.515 170.693 188.36 174.614 193.029 174.798C202.128 175.157 205.681 174.897 210.231 177.477C213.652 179.411 214.639 178.685 216.427 179.376Z" fill="#1B1B1D"/>
  <path d="M208.261 67.8878C209.831 67.7362 209.452 69.6116 208.04 70.0345C205.034 70.9309 200.23 68.4135 203.357 63.3788C203.987 62.1365 204.294 60.7556 204.25 59.3634C204.692 58.5361 205.337 58.6641 205.521 59.3634C206.139 61.7392 204.786 64.0612 204.087 65.6956C203.465 67.1515 205.106 68.2771 206.803 68.3731C207.238 68.3984 208.054 67.908 208.261 67.8878Z" fill="#1B1B1D"/>
  <path d="M206.42 297.283C206.505 297.36 206.565 297.461 206.592 297.573C206.617 297.686 206.609 297.803 206.567 297.91C206.524 298.017 206.449 298.108 206.353 298.171C206.257 298.234 206.144 298.267 206.029 298.264C205.814 298.284 205.598 298.284 205.384 298.264C201.195 297.917 198.683 298.404 201.065 294.988C199.849 294.683 198.609 294.485 197.358 294.397C194.809 294.06 195.66 291.901 194.689 291.709C193.147 291.403 192.231 291.559 192.047 290.646C192.024 290.452 192.057 290.255 192.141 290.079C192.224 289.902 192.356 289.753 192.521 289.647C192.685 289.542 192.876 289.485 193.071 289.483C193.267 289.481 193.459 289.533 193.626 289.635C194.158 289.885 194.736 290.024 195.324 290.045C197.744 290.474 195.874 292.523 198.142 292.86C199.513 292.966 200.875 293.177 202.216 293.487C202.453 293.544 202.668 293.667 202.837 293.842C203.007 294.017 203.122 294.236 203.171 294.474C203.219 294.712 203.2 294.959 203.115 295.187C203.03 295.414 202.883 295.613 202.691 295.762L202.066 296.436C203.761 296.741 205.901 296.662 206.42 297.283Z" fill="#1B1B1D"/>
  <path d="M200.067 301.895C201.265 302.015 201.078 303.258 200.029 303.332C196.648 303.568 191.688 303.263 193.314 300.272C193.706 299.551 193.708 299.553 192.883 299.335C191.186 298.887 190.085 298.714 189.577 295.785C189.568 295.633 189.506 295.489 189.4 295.379C189.295 295.269 189.154 295.201 189.002 295.187C188.052 294.949 187.118 294.634 186.161 294.41C184.358 293.986 184.934 292.658 182.486 291.645C179.285 290.322 179.285 290.454 179.092 289.406C178.956 288.691 180.077 288.563 180.643 288.861C183.263 290.209 184.646 290.162 185.624 291.691C187.219 294.183 190.847 292.245 191.361 295.566C191.698 297.757 192.252 297.251 194.418 298.019C194.712 298.123 194.969 298.311 195.155 298.561C195.341 298.812 195.449 299.111 195.464 299.423C195.474 299.63 195.444 299.836 195.375 300.031C195.127 300.729 194.364 301.265 194.94 301.398C196.628 301.733 198.345 301.9 200.067 301.895Z" fill="#1B1B1D"/>
  <path d="M197.755 49.2044C198.292 49.4791 198.38 49.6897 198.269 50.2154C198.157 50.7411 198.001 50.8456 197.446 50.8894C196.554 50.9579 195.657 50.9098 194.777 50.7462C190.297 49.9559 190.076 53.8398 189.006 54.6335C188.705 54.7498 188.376 54.7698 188.063 54.6908C187.136 53.8297 189.591 50.6148 190.59 49.5987C191.62 48.8505 192.843 48.4154 194.114 48.3454C195.385 48.2755 196.649 48.5738 197.755 49.2044Z" fill="#1B1B1D"/>
  <path d="M197.659 58.8245C197.801 58.9293 197.915 59.0668 197.992 59.2252C198.069 59.3837 198.106 59.5583 198.101 59.7344C198.094 59.9104 198.044 60.082 197.956 60.2346C197.868 60.3872 197.744 60.5162 197.595 60.6106C197.191 60.8046 196.766 60.9527 196.328 61.052C195.348 60.8347 193.754 60.715 193.658 59.5726C193.585 58.7301 192.355 58.6071 192.798 57.8741C192.852 57.7811 192.924 57.7 193.01 57.6354C193.096 57.5709 193.194 57.5243 193.299 57.4984C193.509 57.4453 193.732 57.478 193.919 57.5894C194.689 58.0595 196.207 57.9651 197.659 58.8245Z" fill="#1B1B1D"/>
  <path d="M193.094 27.1671C194.188 27.1503 194.114 28.0517 193.651 28.4511C192.936 28.9587 192.064 29.1975 191.19 29.1251C189.113 29.2346 188.81 29.8378 185.099 33.7875C183.365 35.6309 182.925 41.7255 182.371 44.1266C182.034 45.6044 181.323 44.5243 181.31 44.3558C181.362 41.8047 181.662 39.2671 182.203 36.7733C183.106 33.6341 184.036 32.2474 187.367 29.0695C189.726 26.8217 191.652 27.89 192.73 27.2396C192.845 27.1899 192.969 27.1652 193.094 27.1671Z" fill="#1B1B1D"/>
  <path d="M191.562 307.988C192.554 308.156 192.478 309.044 191.996 309.258C191.672 309.373 191.338 309.458 190.999 309.513C187.994 309.028 184.596 309.044 186.694 305.856C187.732 304.281 182.65 305.292 182.035 303.524C181.44 301.826 181.671 301.605 181.024 301.344C179.763 300.838 179.76 301.145 178.902 300.39C177.699 299.332 176.675 299.731 176.467 298.929C176.071 297.404 178.304 297.63 179.404 298.51C181.386 300.092 183.091 299.398 183.399 301.88C183.617 303.625 184.39 302.554 187.036 303.415C187.37 303.526 187.671 303.717 187.915 303.971C188.158 304.225 188.335 304.535 188.431 304.874C188.529 305.211 188.542 305.568 188.47 305.912C188.399 306.257 188.245 306.579 188.021 306.851C187.263 307.568 188.252 307.425 191.562 307.988Z" fill="#1B1B1D"/>
  <path d="M185.364 312.635C185.458 312.7 185.532 312.791 185.576 312.897C185.62 313.003 185.631 313.119 185.61 313.232C185.588 313.344 185.535 313.448 185.455 313.531C185.376 313.613 185.275 313.671 185.163 313.697C184.804 313.779 184.438 313.825 184.069 313.837C179.262 313.262 175.84 313.683 178.431 309.912C178.859 309.287 177.372 309.407 173.314 308.809C173.029 308.765 172.755 308.665 172.508 308.514C172.262 308.364 172.047 308.166 171.877 307.933C171.708 307.699 171.585 307.434 171.518 307.154C171.451 306.873 171.44 306.581 171.486 306.296C171.671 305.117 172.428 304.347 171.614 304.313C167.878 304.16 167.477 304.055 166.667 301.937C166.148 300.579 160.555 300.365 161.275 298.694C161.394 298.503 161.563 298.35 161.763 298.249C161.964 298.149 162.189 298.105 162.412 298.124C162.687 298.183 162.956 298.262 163.218 298.365C167.049 299.85 167.792 299.858 168.202 301.23C168.433 302.005 168.845 302.325 169.142 302.409C170.76 302.829 174.642 302.129 173.641 305.125C173.526 305.462 173.356 305.799 173.24 306.136C172.551 308.133 176.185 306.942 179.255 308.12C179.506 308.196 179.733 308.337 179.913 308.528C180.093 308.719 180.22 308.953 180.282 309.208C180.344 309.463 180.339 309.729 180.266 309.981C180.196 310.234 180.061 310.463 179.874 310.647C179.636 310.901 179.306 311.321 179.382 311.557C179.564 312.106 184.801 312.145 185.364 312.635Z" fill="#1B1B1D"/>
  <path d="M172.183 282.254C173.143 282.856 174.223 283.663 173.568 284.613C172.751 285.793 168.135 288.293 164.585 290.197C158.961 293.215 152.328 297.871 150.549 296.988C149.683 296.58 148.84 296.127 148.022 295.63C131.788 285.291 132.816 286.317 132.587 285.478C132.408 284.819 132.804 284.367 133.429 284.082C149.766 276.726 146.79 278.551 149.386 277.137C150.082 276.758 150.874 276.645 153.801 275.258C156.728 273.871 156.516 274.323 158.432 273.47C159.286 273.088 159.709 273.629 161.018 274.525C167.793 279.162 166.241 277.984 168.033 279.198C169.295 280.371 170.688 281.396 172.183 282.254ZM170.7 285.041C172.132 284.234 172.179 284.14 171.814 283.914C169.475 282.482 159.513 275.349 159.095 275.162C158.327 274.825 156.231 275.817 150.374 278.316C133.21 285.643 134.13 285.007 134.643 285.385C139.302 288.807 142.503 289.934 147.314 293.304C148.647 294.317 150.077 295.193 151.585 295.921C157.193 292.848 147.819 297.942 170.7 285.043V285.041Z" fill="#1B1B1D"/>
  <path d="M167.706 146.832C168.306 147.472 168.742 148.249 168.975 149.096C169.208 149.942 169.231 150.833 169.042 151.69C169.008 151.831 168.93 151.957 168.819 152.05C168.708 152.144 168.57 152.198 168.425 152.207C168.28 152.215 168.137 152.176 168.016 152.097C167.895 152.017 167.803 151.9 167.753 151.764C167.735 150.44 167.313 149.152 166.543 148.074C164.371 145.274 167.049 144.3 165.308 142.323C163.271 140.011 165.743 138.185 163.842 136.459C161.397 134.242 163.306 132.041 161.635 131.632C161.538 131.613 161.447 131.574 161.365 131.519C161.284 131.464 161.214 131.393 161.161 131.31C161.108 131.227 161.072 131.135 161.055 131.038C161.039 130.941 161.042 130.841 161.065 130.746C161.087 130.65 161.129 130.56 161.187 130.481C161.246 130.401 161.319 130.335 161.404 130.285C161.489 130.235 161.583 130.202 161.68 130.189C161.778 130.176 161.877 130.183 161.972 130.21C163.52 130.402 164.012 131.672 164.029 133.221C164.054 135.469 165.51 134.535 166.236 137.669C166.006 140.785 165.837 140.178 166.99 141.811C168.415 143.826 166.486 145.257 167.706 146.832Z" fill="#1B1B1D"/>
  <path d="M165.98 284.133C167.003 285.083 165.063 285.739 164.863 285.831C162.33 287.174 159.564 288.02 156.714 288.324C154.739 287.987 154.385 287.752 154.205 288.374C153.736 289.565 152.82 290.525 151.652 291.05C150.709 291.478 149.642 291.548 148.651 291.245C147.661 290.942 146.815 290.288 146.272 289.405C145.912 288.821 145.699 288.159 145.65 287.474C145.744 286.572 146.114 285.721 146.71 285.037C147.306 284.353 148.099 283.87 148.98 283.654C150.291 283.317 151.273 283.855 151.384 283.186C151.721 281.149 153.693 279.693 155.26 278.359C157.317 276.604 157.976 277.491 162.994 281.56C163.313 281.83 163.651 282.077 164.005 282.296C164.73 282.832 165.392 283.449 165.98 284.133ZM163.729 284.807C164.442 284.526 164.322 284.386 157.617 279.145C157.122 278.758 157.112 278.66 154.901 280.635C154.096 281.354 152.498 283.093 152.926 284.071C153.15 284.943 153.688 285.703 154.436 286.204C155.185 286.705 156.092 286.913 156.984 286.787C157.881 286.753 158.771 286.606 159.631 286.349C161.023 285.899 162.374 285.341 163.729 284.802V284.807ZM152.623 287.7C153.42 285.173 147.728 283.341 147.266 287.656C147.398 288.335 147.786 288.937 148.35 289.338C148.914 289.739 149.61 289.907 150.294 289.808C150.85 289.732 151.37 289.489 151.786 289.112C152.201 288.735 152.493 288.241 152.623 287.695V287.7Z" fill="#1B1B1D"/>
  <path d="M65.9501 200.25C66.3225 201.619 66.5297 203.027 66.5685 204.444C66.2618 208.301 66.186 210.662 64.4656 213.712C63.5894 214.888 62.3482 215.742 60.9359 216.138C59.5235 216.535 58.0196 216.453 56.659 215.904C55.7565 215.541 54.9449 214.984 54.2815 214.273C52.305 212.099 51.1103 209.71 51.1743 204.953C51.2468 199.491 52.8728 197.485 54.8004 195.952C55.494 195.273 56.3429 194.773 57.2734 194.496C58.204 194.219 59.1881 194.173 60.1402 194.363C62.6256 195.12 63.3249 194.729 65.9501 200.25ZM59.1595 214.674C64.2516 214.184 64.6661 209.533 64.9307 204.396C64.7352 200.095 62.666 195.297 58.2968 195.991C56.7723 196.493 55.426 197.427 54.4213 198.678C54.2747 199.699 52.8762 200.493 52.8054 204.239C52.8054 204.638 52.7094 207.002 52.7717 207.44C53.2502 210.77 55.8013 214.996 59.1595 214.674Z" fill="#1B1B1D"/>
</svg>
