<svg width="211" height="186" viewBox="0 0 211 186" fill="none" xmlns="http://www.w3.org/2000/svg">
  <path d="M205.566 156.359C206.422 160.884 206.484 165.523 205.754 170.068C204.828 174.476 197.235 199.635 196.695 199.503C196.155 199.371 186.711 198.566 184.452 199.095C182.193 199.624 166.467 199.095 166.467 199.095C166.467 199.095 158.279 199.569 158.18 199.47C158.081 199.371 158.533 184.604 158.533 184.604L172.352 166.575L205.566 156.359Z" fill="#2576C7"/>
  <path d="M188.265 199.297C188.265 199.297 189.213 138.951 189.213 138.18C189.213 137.408 189.301 135.976 184.43 136.67C179.559 137.364 103.929 135.777 103.929 135.777L1.99361 137.739C1.99361 137.739 0.0540811 148.88 1.20016 152.77C2.34625 156.66 0.847524 165.069 0.847524 169.675C0.847524 174.281 1.02384 184.894 1.28832 186.04C1.55281 187.186 0.186322 192.145 1.46465 193.203C2.74297 194.261 68.3562 193.699 68.3562 193.699H142.19L142.984 200.2C152.902 199.881 149.398 200.046 158.203 199.495L158.555 184.629L176.606 160.385L178.733 198.691C179.722 199.343 180.859 199.74 182.039 199.848C183.306 199.738 188.265 199.297 188.265 199.297Z" fill="white"/>
  <path d="M207.771 141.307C207.958 141.77 208.156 141.681 203.638 144.514C199.451 147.136 196.883 147.941 191.582 149.241C189.808 149.671 189.654 149.825 189.665 149.362C189.742 137.637 190.216 136.866 188.342 136.238C187.835 136.072 163.525 136.348 162.6 136.171C162.732 135.819 163.757 133.593 164.131 133.648C165.729 133.912 167.294 132.965 169.101 132.766C174.997 132.16 173.829 131.356 179.637 132.105C184.441 132.722 181.587 131.841 191.703 132.204C192.221 132.204 193.753 131.907 195.01 131.83C198.646 131.565 203.826 128.898 204.057 129.725C206.404 137.042 205.159 133.141 206.404 136.337C207.074 137.927 207.534 139.598 207.771 141.307Z" fill="url(#paint0_linear_3901_17325)"/>
  <path d="M193.5 98.4177C197.434 111.091 202.393 109.294 194.349 111.708C188.761 113.383 186.734 112.953 181.676 112.898C178.91 112.898 179.901 113.791 181.114 108.237C182.138 103.553 181.786 104.358 184.188 99.112C185.169 96.9851 185.29 96.5884 185.566 96.6765C189.213 97.9328 192.674 95.4533 192.927 96.2027C193.079 96.9505 193.271 97.6899 193.5 98.4177Z" fill="url(#paint1_linear_3901_17325)"/>
  <path d="M125.529 102.284C126.476 106.262 128.835 110.45 128.526 111.221C125.407 118.23 127.766 116.632 125.044 114.207C123.534 112.863 118.652 107.816 115.599 106.923C114.497 106.615 114.641 106.824 114.707 105.821C114.883 102.714 115.203 100.465 115.104 98.6251C115.074 98.1238 115.145 97.6217 115.313 97.1484C118.079 98.2504 116.701 97.6554 119.17 99.2422C124.911 102.912 125.297 101.215 125.529 102.284Z" fill="url(#paint2_linear_3901_17325)"/>
  <path d="M141.925 101.611C150.058 99.1531 151.425 97.3899 150.83 98.4368C146.422 106.151 147.931 104.189 146.697 105.985C146.37 106.607 146.241 107.315 146.327 108.012C146.414 108.71 146.713 109.364 147.182 109.887C147.821 110.427 148.383 110.989 148.989 111.628C149.221 111.848 149.254 111.551 147.424 115.022C146.62 116.565 146.664 116.818 146.036 116.862C142.73 117.061 140.096 118.614 133.385 117.678C131.831 117.468 133.385 116.906 130.905 111.859C128.316 106.592 129.958 109.765 128.878 107.099C125.517 98.7453 126.806 106.217 141.925 101.611Z" fill="url(#paint3_linear_3901_17325)"/>
  <path d="M183.537 92.3782C185.323 93.4031 185.367 93.348 182.524 99.1996C178.799 106.914 180.496 108.412 178.799 106.991C177.53 105.914 176.098 105.047 174.556 104.423C171.944 102.957 171.735 100.941 168.01 99.5523C159.613 96.4116 163.514 97.1169 158.191 95.9818C154.951 95.2875 153.343 96.103 153.563 95.3647C154.665 91.8383 154.411 92.1468 155.767 90.3065C158.467 86.5486 158.059 87.4413 158.864 85.8323C159.448 84.7303 162.974 84.9948 162.974 84.8516C166.137 85.094 163.305 84.6422 171.493 87.0556C173.785 87.7829 173.465 86.5266 183.537 92.3782Z" fill="url(#paint4_linear_3901_17325)"/>
  <path d="M186.677 68.5297C187.644 70.6377 188.339 72.8594 188.749 75.1417C187.867 75.0425 182.137 71.2296 174.974 70.6015C171.04 70.2709 171.073 70.8219 167.723 71.1966C163.612 71.6594 163.006 74.2491 165.144 70.0946C165.585 69.235 166.18 68.2542 165.243 68.0338C164.307 67.8134 160.593 76.0233 159.832 76.6955C157.65 78.6447 155.196 80.2668 152.548 81.5113C152.174 81.7097 152.196 81.4342 152.196 81.0485C152.328 79.7812 152.967 71.45 153.022 71.0092C153.077 70.5684 153.11 71.0864 156.813 68.4526C172.682 57.1791 179.294 61.532 181.828 62.1381C183.096 62.3915 186.082 67.3946 186.677 68.5297Z" fill="url(#paint5_linear_3901_17325)"/>
  <path d="M134.828 86.782C134.917 87.311 134.674 86.9914 134.233 87.2008C133.065 87.7738 132.151 87.6967 130.002 88.0713C122.96 87.6305 121.285 86.8591 118.001 85.4927C117.185 85.151 117.207 85.0519 117.516 84.3907C120.029 78.8806 123.191 76.875 123.643 77.7786C124.076 78.3259 124.618 78.7777 125.234 79.1058C125.852 79.4339 126.528 79.6311 127.225 79.6851C128.348 80.0193 129.535 80.0761 130.685 79.8504C132.988 79.4647 132.889 79.4978 133.01 79.8504C134.795 85.7241 133.98 81.261 134.828 86.782Z" fill="url(#paint6_linear_3901_17325)"/>
  <path d="M176.462 162.112C176.671 166.079 176.682 165.815 176.352 165.881C175.039 166.219 173.702 166.452 172.352 166.575C172.561 166.068 175.415 162.343 175.768 161.892C176.44 160.999 176.396 160.834 176.462 162.112Z" fill="#42E694"/>
  <path d="M208.089 143.359C208.706 148.946 208.838 148.869 208.221 151.073C207.89 152.252 206.447 154.445 206.149 155.481C206.061 155.79 205.73 156.032 205.565 156.33C204.661 157.917 201.157 159.283 200.22 159.724C198.105 160.76 196.518 160.528 194.887 161.542C191.415 163.746 190.479 163.592 189.784 163.746C189.454 163.834 189.498 163.834 189.542 161.135C189.762 148.748 188.991 150.798 190.644 150.346C195.878 148.946 195.603 149.409 198.92 148.142C204.981 145.894 207.945 142.312 208.089 143.359Z" fill="#42E694"/>
  <path d="M125.956 117.139C126.364 117.569 126.1 117.713 125.196 120.115C124.546 121.856 124.744 122.716 123.829 124.6C123.058 126.176 123.973 126.231 118.584 119.85C116.655 117.558 115.146 117.79 115.113 116.302C114.903 108.334 114.374 107.717 114.881 107.695C116.424 108.191 116.71 107.85 124.799 115.409C125.207 115.817 124.964 116.137 125.956 117.139Z" fill="#42E694"/>
  <path d="M203.33 127.158C203.484 128.337 203.738 128.183 202.515 128.613C195.329 131.092 190.877 131.114 190.866 131.092C188.236 130.94 185.598 130.991 182.976 131.247C180.519 131.247 177.268 130.596 175.328 130.806C167.405 131.654 165.928 132.867 164.484 132.767C164.793 132.062 163.955 133.451 169.994 123.819C170.446 123.092 171.879 124.921 174.777 124.183C175.064 124.106 175.284 123.819 175.548 123.632C176.312 122.901 176.829 121.949 177.025 120.91C180.706 110.76 176.849 114.375 185.94 114.066C189.213 114.129 192.468 113.564 195.528 112.402C200.531 110.727 198.448 110.088 200.806 116.535C201.998 119.984 202.843 123.542 203.33 127.158Z" fill="#42E694"/>
  <path d="M133.088 118.618C140.802 119.907 146.312 117.24 145.684 118.276C141.683 124.888 142.984 126.299 135.865 128.459C135.281 128.635 136.184 128.723 133.584 122.343C133.182 121.225 132.916 120.064 132.79 118.882C132.746 118.607 132.834 118.552 133.088 118.618Z" fill="#42E694"/>
  <path d="M177.951 107.843C178.778 108.603 179.45 108.537 179.307 109.232C178.767 111.898 177.83 113.011 176.805 116.439C174.921 122.742 176.067 121.199 173.124 119.227C166.215 114.598 167.262 111.965 160.187 111.171C156.462 110.752 152.859 107.028 149.872 106.444C148.384 106.146 148.858 106.444 148.318 106.366C148.484 105.474 151.624 100.383 153.046 97.2198C153.343 96.5366 153.288 96.7239 154.545 96.5586C162.611 97.5504 160.848 97.9912 163.217 98.9389C170.182 101.694 168.727 100.713 170.546 102.476C173.279 105.165 172.981 105.033 174.182 105.551C175.555 106.104 176.828 106.878 177.951 107.843Z" fill="#42E694"/>
  <path d="M192.035 93.2625C192.167 93.516 192.63 94.9045 192.354 95.0698C191.344 95.4216 190.313 95.7124 189.269 95.9404C188.439 96.048 187.598 96.048 186.767 95.9404C185.665 95.9404 185.72 95.8302 185.908 95.2241C188.001 88.4137 186.657 93.0972 187.55 87.5982C187.825 85.8901 187.55 86.5844 187.66 85.5926C187.66 85.3061 188.046 84.4245 187.219 84.2592C185.908 84.0057 186.117 92.9319 185.147 92.1165C183.142 90.5075 182.458 90.5296 179.031 88.6452C177.264 87.5082 175.296 86.7155 173.235 86.3089C163.592 83.9506 165.697 83.5429 160.506 84.1049C159.404 84.2261 158.964 85.6697 160.595 79.774C160.98 78.3635 162.204 74.4844 163.537 73.8783C165.454 73.0187 164.639 72.7212 167.592 72.2363C172.662 71.3657 173.929 71.2666 178.469 72.3355C180.95 72.9803 183.37 73.8432 185.698 74.9142C189.632 76.986 189.004 75.8729 189.875 80.8099C191.12 87.7966 190.801 90.7941 192.035 93.2625Z" fill="#42E694"/>
  <path d="M176.362 58.3248C177.464 58.7105 180.891 60.639 179.878 60.3855C173.53 58.8097 170.092 60.3855 163.579 63.0414C162.755 63.327 162.002 63.7896 161.375 64.3968C160.626 65.058 160.163 64.7936 157.959 66.4025C153.407 69.7085 153.661 69.5322 153.551 69.5542C153.253 69.6534 153.319 69.466 153.33 69.4881C154.686 61.9283 155.314 62.0496 154.95 60.8594C154.829 60.4737 154.95 60.617 157.441 59.9668C168.549 57.1236 170.202 56.1538 176.362 58.3248Z" fill="#42E694"/>
  <path d="M170.359 119.441C171.108 119.904 167.229 125.48 164.22 130.329C154.424 146.11 157.608 145.382 148.991 146.738C129.331 149.834 122.091 147.256 109.594 147.531C108.624 147.531 108.768 141.437 108.79 141.084C108.812 140.732 108.79 140.677 109.131 140.522C112.085 139.178 111.589 138.418 112.338 138.087C113.087 137.756 114.2 137.448 117.584 136.39C119.424 135.806 124.835 134.01 125.992 133.525C135.238 129.69 142.048 129.414 144.142 124.025C144.649 122.703 149.949 113.347 151.911 109.303C152.098 108.917 151.911 109.159 154.655 110.691C158.137 112.62 157.84 112.388 162.744 113.435C165.951 114.096 167.416 117.59 170.359 119.441Z" fill="#FDE6B9"/>
  <path d="M167.989 21.4559C168.121 26.5141 169.091 28.8283 168.298 31.6164C167.118 35.5064 166.799 36.0244 165.565 37.1264C163.096 39.4626 165.653 40.223 162.391 42.0413C162.27 42.1185 162.226 42.0413 162.237 41.9421C162.588 37.5023 162.051 33.0371 160.661 28.8063C159.922 26.9769 160.11 26.0182 159.129 26.4259C158.148 26.8337 161.443 34.9334 161.013 39.7822C160.881 41.336 160.022 42.6695 160.077 44.1902C160.143 46.0636 158.644 47.8268 158.06 47.926C157.079 48.0913 156.231 47.926 155.459 48.1574C153.938 48.488 153.332 49.6562 151.712 49.2594C150.61 48.9509 152.341 45.8653 152.131 43.4629C151.139 32.2335 151.029 30.2389 146.28 23.693C143.723 20.1886 141.133 19.3621 137.937 17.7421C130.036 13.7749 132.978 12.0227 125.496 9.09142C124.588 8.61579 123.603 8.30602 122.587 8.17676C121.485 8.17676 122.829 8.45226 120.746 8.12165C120.305 8.05553 120.371 6.52375 121.848 5.75235C124.702 4.2977 124.669 2.44634 128.063 2.44634C129.992 2.22594 131.755 3.98914 135.436 5.75235C137.331 6.67803 138.026 7.80207 139.315 9.05836C140.116 9.73003 141.083 10.1752 142.114 10.3477C143.062 10.7114 143.602 11.3064 144.02 10.6783C144.439 10.0502 143.216 9.3559 142.378 9.06938C141.078 8.59552 140.88 8.9151 139.778 7.70289C137.1 4.76055 136.582 4.99197 135.304 4.34179C134.025 3.6916 134.951 4.05526 133.728 3.37202C133.331 3.1406 133.298 3.0855 133.618 2.74388C133.76 2.57924 133.942 2.45405 134.147 2.38022C137.199 1.15699 138.874 2.29206 141.541 3.27284C145.321 4.67239 145.111 0.969645 152.109 3.55936C155.856 4.93687 157.509 5.90663 160.077 9.80772C162.402 13.3452 163.846 13.3782 165.961 16.2655C167.058 17.8004 167.754 19.5843 167.989 21.4559Z" fill="url(#paint7_linear_3901_17325)"/>
  <path d="M159.272 78.5508C159.272 78.7822 157.971 83.7302 157.586 84.7771C156.88 86.7387 155.492 87.7966 153.552 90.783C152.836 91.885 152.594 92.987 151.591 96.6236C151.403 97.3289 151.117 96.6236 150.368 97.1416C147.657 98.9929 141.034 100.745 140.681 100.888C137.97 101.99 129.661 102.387 128.559 102.068C126.267 101.406 127.545 104.856 125.253 92.5572C125.219 92.4375 125.146 92.3321 125.047 92.2572C124.948 92.1821 124.826 92.1416 124.702 92.1416C124.577 92.1416 124.456 92.1821 124.357 92.2572C124.258 92.3321 124.185 92.4375 124.151 92.5572C124.303 95.2711 124.671 97.9686 125.253 100.624C125.55 102.112 117.748 97.1085 117.429 96.9763C114.552 95.742 115.037 98.2546 117.054 86.6725C117.329 85.0746 117.23 87.0472 123.17 88.2704C129.562 89.5818 130.884 88.9096 132.438 88.7884C133.259 88.747 134.06 88.5249 134.785 88.1382C135.391 87.9839 134.917 89.0088 135.887 91.345C137.331 94.7612 140.978 97.9571 143.601 96.9983C149.828 94.618 150.39 89.692 151.745 83.08C151.855 82.54 152.12 82.6723 153.949 81.978C155.811 80.9779 157.591 79.8319 159.272 78.5508Z" fill="#42E694"/>
  <path d="M145.806 52.8292C146.908 54.7688 153.443 62.626 153.365 62.9126C152.1 67.4917 151.379 72.2041 151.217 76.9521C150.952 80.8421 149.2 90.5177 147.359 92.3801C145.155 94.5841 145.299 94.7604 142.852 95.5869C141.75 95.9726 138.191 93.8678 136.89 90.0769C136.362 87.9476 135.993 85.7817 135.788 83.5972C135.601 82.3629 134.543 81.6025 133.86 76.1035C133.618 74.0758 134.014 75.1558 135.271 76.93C137.871 80.6107 138.213 81.0625 138.731 80.7099C139.48 80.192 138.268 78.9467 138.092 78.6932C133.033 71.1996 129.573 66.4169 126.311 66.0092C117.837 64.9072 117.11 67.8165 110.101 61.6012C109.869 61.3918 110.872 60.6424 110.674 58.5817C110.743 58.2456 110.731 57.8977 110.636 57.5676C110.543 57.2376 110.37 56.9352 110.134 56.6862C109.671 56.3116 110.696 56.0471 111.39 56.0471C112.713 55.9369 112.944 57.083 113.748 55.9038C115.115 53.9202 116.129 56.6862 119.258 57.5127C119.765 57.645 120.085 57.7001 120.206 57.2372C120.471 56.2344 118.983 56.4107 117.231 54.9561C116.865 54.5906 116.427 54.3041 115.946 54.1146C115.464 53.9251 114.948 53.8363 114.432 53.8541C113.671 53.788 113.23 54.7247 112.768 54.8679C112.305 55.0112 112.349 54.7137 111.115 54.7026C110.553 54.7026 111.346 54.0855 111.037 53.1598C110.641 52.0027 109.638 51.8815 108.371 51.4297C107.985 51.2864 108.47 51.3636 108.459 50.9448C108.448 50.526 108.944 47.8592 108.955 47.8372C109.065 47.2641 109.34 48.1127 110.762 47.8372C111.588 47.9883 112.441 47.8357 113.164 47.4074C114.266 46.6029 113.264 45.7984 112.062 46.2503C109.241 47.2751 106.398 44.1785 108.525 42.79C109.726 42.0076 112.933 42.3161 113.098 38.8558C113.098 38.4481 113.241 38.5473 113.87 38.8558C114.498 39.1644 113.98 40.7733 115.556 42.6026C116.074 43.2551 116.748 43.7659 117.516 44.0875C118.285 44.4092 119.123 44.531 119.95 44.442C120.779 44.3528 121.572 44.0556 122.254 43.5779C122.936 43.1003 123.487 42.4577 123.854 41.71C124.504 40.3876 126.763 39.9248 128.262 40.2003C131.965 40.8725 131.733 40.7072 131.402 41.4125C131.072 42.1178 130.84 42.7128 130.521 43.352C130.323 43.7377 130.047 44.0793 129.849 44.454C129.055 45.9858 130.367 46.4045 132.053 47.2972C135.788 49.3138 135.359 48.3992 138.059 43.5283C138.621 42.5586 138.709 43.6385 139.304 42.7349C139.644 42.0798 140.142 41.5207 140.755 41.1087C141.368 40.6966 142.073 40.4449 142.808 40.3766C150.137 39.8035 149.167 47.1098 143.91 52.0688C142.885 53.0276 140.736 52.6088 139.502 51.7933C139.119 51.4677 138.774 51.0979 138.477 50.6913C137.981 50.2285 137.023 50.6362 137.849 51.9697C138.676 53.3031 141.298 54.0194 142.489 53.9753C145.442 53.8871 145.133 51.5619 145.806 52.8292ZM146.357 45.3356C146.93 45.5119 147.172 44.2336 146.72 43.4512C146.351 42.9812 145.884 42.5976 145.351 42.3272C144.817 42.057 144.232 41.9065 143.635 41.8863C142.18 41.5447 139.403 44.2667 141.354 46.4596C141.971 47.1539 142.775 47.5617 142.048 48.4102C141.045 49.5122 142.301 50.1403 142.951 49.402C144.715 47.3743 142.544 45.7984 142.312 45.534C141.265 44.432 142.852 42.7569 144.395 43.2638C146.709 44.0242 145.321 45.005 146.357 45.3356ZM122.631 60.0143C123.292 59.5404 124.405 58.5156 123.733 58.218C123.325 58.0417 123.435 57.7882 121.98 59.1657C121.253 59.8049 121.925 60.5322 122.631 60.0143ZM120.36 59.0004C120.944 60.1024 124.008 57.2042 122.564 56.6752C122.035 56.4879 122.057 56.9507 121.264 57.7772C120.944 58.0527 120.03 58.3833 120.36 59.0004Z" fill="#FDE6B9"/>
  <path d="M150.047 36.9039C150.543 41.2127 151.689 43.6922 149.738 48.6182C148.548 51.6266 149.738 51.6487 149.033 52.2327C148.008 53.0703 148.306 54.1943 147.931 53.7094C144.834 49.7092 147.501 52.2107 149.33 45.4664C149.579 44.1156 149.386 42.7206 148.779 41.4882C148.284 39.714 144.206 38.3475 141.242 39.5377C140.658 39.7691 140.889 39.8132 138.52 41.0474C138.288 41.1686 138.729 41.0474 136.481 40.4303C132.503 39.4495 133.902 40.0887 133.594 38.9426C133.463 38.3157 133.573 37.6625 133.902 37.1133C134.63 35.6256 133.748 34.9974 132.15 31.5151C131.269 29.6086 134.288 28.6168 132.007 26.8977C130.828 26.0161 133.484 24.4402 132.327 23.8782C131.423 23.4374 131.081 23.7019 130.629 23.1399C129.087 21.2665 127.643 22.9966 126.144 21.6962C124.238 20.0432 123.94 19.8228 123.235 20.0102C118.827 21.1122 119.058 20.3518 116.722 19.8449C116.459 19.7575 116.173 19.7622 115.913 19.8583C115.653 19.9544 115.433 20.1362 115.29 20.3738C114.838 21.0901 114.011 20.6824 112.876 20.2526C110.948 19.5033 111.774 22.0048 109.669 20.7706C106.363 18.798 105.669 13.5855 105.812 13.1888C106.519 14.2614 107.389 15.2169 108.391 16.0209C108.717 16.6395 109.007 17.276 109.262 17.9274C109.537 18.5004 110.364 18.4233 110.242 17.7952C109.395 15.8107 109.018 13.6571 109.14 11.5027C109.213 10.7233 109.398 9.95848 109.691 9.23259C109.87 10.2163 110.204 11.1652 110.683 12.0427C110.948 12.5055 110.683 12.9243 111.179 14.4891C111.388 15.1614 112.281 14.8418 112.149 14.2136C111.922 13.5449 111.899 12.8237 112.083 12.1419C112.204 11.8994 112.083 10.5109 113.57 10.544C116.116 10.544 114.43 11.4697 115.774 14.5773C116.645 16.6601 117.538 15.525 117.053 14.5773C115.752 11.9656 116.777 7.43632 117.053 6.86328C117.391 8.19549 118.08 9.41288 119.047 10.3897C119.875 11.4033 120.612 12.4874 121.251 13.6296C121.332 13.743 121.45 13.8242 121.584 13.8586C121.719 13.893 121.861 13.8783 121.985 13.8174C122.11 13.7563 122.209 13.6528 122.264 13.5255C122.319 13.3983 122.328 13.2555 122.287 13.1227C121.946 11.5137 119.29 9.50809 120.855 9.38687C123.422 9.17749 126.001 10.544 128.458 12.197C128.745 12.3843 128.458 12.3182 127.169 13.0565C126.391 13.8223 125.748 14.7124 125.263 15.6903C124.326 17.4315 125.803 17.8392 125.913 17.145C126.289 15.9042 127.025 14.8032 128.029 13.9822C129.638 13.288 129.682 12.9794 129.979 13.299C133.869 17.5637 134.255 17.4205 135.93 18.2249C136.679 18.5776 133.638 18.4453 132.315 19.2167C131.489 19.6906 130.861 19.9441 131.213 20.4951C131.566 21.0461 131.842 20.6383 132.966 20.1204C133.583 19.8339 133.682 19.889 135.17 19.7567C137.814 19.5143 138.123 19.371 138.894 19.7567C141.958 21.3326 142.807 21.3546 146.035 25.6524C146.642 26.4569 143.975 24.5504 140.525 26.5671C139.423 27.2283 138.95 26.7765 136.845 26.2475C136.195 26.0822 135.743 26.5891 136.128 27.041C136.514 27.4928 137.23 27.4818 138.542 27.9997C140.415 28.7601 141.109 27.2393 142.95 27.052C145.661 26.7655 145.352 27.4046 146.608 27.4928C147.369 27.5479 147.303 28.2972 148.515 30.1596C149.87 32.3857 149.727 34.0497 150.047 36.9039ZM145.991 35.0856C148.261 35.2399 147.347 33.5538 145.826 33.7742C143.997 34.0387 144.195 33.653 142.167 33.2452C141.135 33.1599 140.097 33.3185 139.137 33.7081C138.487 34.0497 139.005 34.7219 139.456 34.6778C140.832 34.2865 142.3 34.3839 143.611 34.9533C144.548 35.3941 144.933 35.1517 145.991 35.0856Z" fill="#B07E19"/>
  <path d="M142.685 168.614C144.426 168.526 145.66 164.151 144.768 163.369C143.016 161.826 142.476 162.961 142.564 161.716C142.564 160.812 142.476 160.79 143.401 160.757C149.198 160.547 146.608 171.545 141.296 170.025C140.613 169.826 140.536 169.386 141.065 168.923C141.594 168.46 141.385 168.68 142.685 168.614Z" fill="white"/>
  <path d="M140.262 161.902C141.551 160.944 141.694 160.448 140.791 164.437C139.887 168.426 139.633 170.851 135.666 171.887C130.751 173.165 122.299 172.989 119.93 168.581C118.968 166.294 118.487 163.832 118.519 161.351C121.88 164.47 135.611 165.374 140.262 161.902Z" fill="white"/>
  <path d="M140.857 159.49C140.857 159.843 140.56 160.041 139.38 160.934C139.204 161.066 139.028 160.625 138.962 160.427C137.959 157.385 126.928 157.551 122.927 158.223C119.985 158.741 119.919 160.768 119.621 160.162C119.015 159.137 118.927 159.06 119.214 158.609C119.875 157.661 122.586 156.482 122.619 156.746C127.214 156.085 140.725 154.796 140.857 159.49Z" fill="white"/>
  <path d="M140.725 174.343C140.439 175.368 140.373 176.547 139.326 177.154C134.741 179.997 122.531 179.126 120.448 176.272C120.21 176.006 120.029 175.696 119.914 175.358C119.798 175.022 119.751 174.665 119.776 174.309C119.8 173.954 119.896 173.607 120.057 173.29C120.218 172.971 120.441 172.689 120.713 172.459C121.738 171.633 122.046 172.261 122.509 172.459C123.71 172.933 119.589 176.007 131.524 176.294C134.631 176.371 135.281 176.007 136.626 175.06C137.463 174.476 138.334 173.814 137.882 172.856C137.706 172.492 137.97 172.492 138.676 172.007C139.072 171.732 140.505 172.834 140.725 174.343Z" fill="white"/>
  <path d="M136.866 41.7214C137.132 41.7681 137.384 41.8736 137.605 42.03C133.792 47.7383 135.842 47.7053 131.61 45.5894C130.717 45.1376 130.905 45.5894 132.943 41.3577C133.153 40.939 133.009 40.95 136.866 41.7214Z" fill="#B07E19"/>
  <path d="M136.67 173.255C136.869 173.641 134.841 174.986 132.957 174.986C131.304 174.986 123.931 174.986 123.832 173.355C123.832 172.594 124.614 173.266 125.617 173.443C132.097 174.545 136.439 172.804 136.67 173.255Z" fill="white"/>
  <path d="M128.988 74.8894C130.211 74.2282 133.131 71.4952 132.768 74.0188C131.985 79.4296 134.972 78.3056 129.175 79.066C125.406 78.4929 125.594 78.4819 123.896 76.9722C127.103 75.0106 125.737 76.6416 128.988 74.8894Z" fill="#42E694"/>
  <path d="M130.983 32.1322C132.889 36.4631 133.187 35.3721 132.393 37.4659C131.6 39.5597 134.134 39.9454 129.517 39.0748C128.036 38.7286 126.534 38.4746 125.021 38.3144C124.304 38.3144 125.153 36.959 123.522 34.8542C121.891 32.7493 118.012 31.46 115.246 35.317C114.254 36.6835 114.618 37.8847 113.946 37.521C113.667 37.3226 113.334 37.216 112.992 37.216C112.651 37.216 112.318 37.3226 112.039 37.521C111.631 37.7745 111.852 37.3337 110.937 36.1104C109.725 34.5346 108.524 35.1076 108.524 34.3583C108.524 30.2919 108.292 31.7685 110.651 31.0522C111.246 30.8869 111.279 29.2339 110.133 29.0466C109.339 28.9254 109.405 29.5205 109.196 29.5976C108.799 29.7519 108.766 29.5976 108.799 29.3441C109.097 27.0144 109.671 24.7283 110.507 22.5338C110.673 22.0709 111.257 22.5338 112.171 21.586C112.645 21.0571 112.932 22.093 114.717 22.0489C116.502 22.0048 115.819 20.8257 117.097 21.2665C121.23 22.7762 123.037 20.3959 124.249 21.7293C126.971 24.6937 128.768 23.0297 129.451 23.8451C130.553 25.1014 131.159 24.5504 130.883 25.2447C129.781 27.9226 132.085 27.7022 131.468 28.5507C131.101 29.0627 130.864 29.6568 130.78 30.2812C130.695 30.9055 130.764 31.541 130.983 32.1322ZM124.062 32.0661C124.062 31.7906 124.404 31.7024 124.338 31.46C124.249 30.4241 123.236 30.2257 122.949 30.0053C122.255 29.4323 121.351 30.0053 120.635 29.5205C120.172 29.2229 118.651 29.84 118.343 29.2009C118.297 29.1071 118.229 29.0261 118.144 28.9657C118.061 28.9052 117.961 28.8672 117.858 28.8551C117.754 28.8429 117.649 28.8573 117.554 28.8965C117.457 28.9357 117.372 28.9988 117.307 29.0797C117.119 29.289 117.064 29.2229 116.888 29.0797C116.106 28.4625 115.995 29.4213 115.544 29.5094C115.434 29.5425 115.334 29.5997 115.25 29.6768C115.167 29.7539 115.101 29.8487 115.059 29.9545C115.016 30.0604 114.998 30.1744 115.006 30.288C115.014 30.4017 115.047 30.5123 115.103 30.6114C115.34 30.9676 115.673 31.2504 116.062 31.4276C116.452 31.6049 116.883 31.6695 117.307 31.6143C118.332 31.3277 117.615 32.6171 121.715 31.2947C123.136 30.8318 123.324 31.9118 123.522 31.9889C123.699 32.0292 123.88 32.055 124.062 32.0661Z" fill="#FDE6B9"/>
  <path d="M122.112 35.1415C122.74 35.715 123.2 36.4492 123.442 37.2649C123.684 38.0806 123.698 38.9469 123.484 39.7702C123.27 40.5935 122.834 41.3427 122.225 41.9369C121.617 42.5311 120.857 42.9478 120.029 43.1421C117.737 43.5388 115.312 41.7646 115.389 38.0949C115.224 34.9983 119.621 32.5849 122.112 35.1415ZM121.957 39.5496C122.872 39.2079 121.825 37.6541 119.059 37.6651C118.034 37.7533 116.084 38.0839 116.392 39.0537C116.535 39.5275 117.263 39.263 117.637 39.2079C118.012 39.1528 117.847 39.4834 118.21 40.5414C118.475 41.2797 119.863 41.6434 119.941 40.321C119.985 39.9369 119.899 39.5492 119.698 39.219C119.279 38.5467 121.296 39.7589 121.99 39.5165L121.957 39.5496Z" fill="#FDE6B9"/>
  <path d="M119.787 123.766C123.093 127.887 123.093 126.334 120.768 129.772C120.768 129.772 96.2591 126.785 96.2371 126.774C94.2424 126.146 94.0331 119.622 93.8237 117.815C93.0082 110.432 96.733 106.123 103.742 84.9644C103.742 84.9644 105.946 77.6691 105.946 77.636C108.778 68.9082 107.753 73.228 107.863 69.8559C107.863 69.2939 107.621 69.1947 105.604 67.6519C103.973 66.3736 104.381 65.3818 102.298 64.4451C99.8626 63.3431 98.8819 59.9048 101.064 58.6926C101.927 58.341 102.747 57.8937 103.51 57.3592C107.136 54.6372 105.626 55.1552 108.183 56.5878C108.808 56.9554 109.321 57.4846 109.67 58.1196C109.582 60.3236 109.67 59.8828 109.064 60.8635C108.976 61.0068 108.37 60.7093 106.86 60.2685C106.309 60.1032 107.962 58.362 106.75 57.9653C105.78 57.6457 106.023 60.3456 105.329 59.442C105.227 59.3188 105.091 59.2273 104.939 59.1785C104.787 59.1297 104.624 59.1255 104.469 59.1665C104.353 59.2803 104.269 59.423 104.227 59.5798C104.184 59.7367 104.184 59.9022 104.227 60.0591C104.767 61.8554 103.764 63.0014 104.568 63.1778C105.67 63.4312 105.296 60.9738 106.023 61.2823C109.009 62.4835 108.491 62.0647 110.354 63.4863C112.668 65.2716 114.365 66.1201 114.288 68.1809C114.288 69.6135 113.968 70.0873 114.652 70.2967C115.335 70.5061 115.599 69.4592 115.665 68.6547C115.82 66.7923 115.081 66.3515 115.82 66.594C118.894 67.5858 119.5 66.6601 119.566 67.4756C119.787 70.2416 117.792 71.9607 117.043 77.3936C116.711 80.8277 116.155 84.2364 115.379 87.5981C112.789 101.55 114.464 94.6069 113.638 101.924C113.032 107.335 113.098 105.164 113.417 113.649C113.891 126.157 114.023 122.113 114.09 123.821C114.09 123.968 114.148 124.108 114.25 124.211C114.354 124.314 114.494 124.372 114.641 124.372C114.787 124.372 114.927 124.314 115.031 124.211C115.133 124.108 115.192 123.968 115.192 123.821C115.258 122.785 115.092 119.622 115.192 119.049C116.393 119.27 119.721 123.744 119.787 123.766Z" fill="#FDE6B9"/>
  <path d="M115.379 134.672C119.787 130.98 119.522 130.881 119.39 133.228C119.39 134.33 119.456 134.331 119.181 134.496C117.404 135.229 115.586 135.858 113.737 136.38C113.549 136.38 113.373 136.38 113.56 136.215C114.178 135.675 115.379 134.694 115.379 134.672Z" fill="white"/>
  <path d="M75.4966 165.035C75.1991 165.266 26.8873 154.984 26.8652 154.973C27.5485 154.07 76.808 128.261 80.5438 126.134C80.9626 125.891 118.111 130.729 118.387 130.872C117.924 131.379 87.1007 155.579 75.4966 165.035Z" fill="white"/>
  <path d="M107.027 42.8405C106.531 43.5018 106.2 43.8434 105.748 43.0279C105.297 42.2124 104.095 39.777 105.021 37.9036C105.947 36.0302 108.041 34.84 109.749 36.3387C110.277 36.7648 110.707 37.299 111.012 37.9053C111.316 38.5118 111.487 39.1762 111.512 39.8541C111.6 40.4272 111.721 40.5925 110.862 40.7688C109.422 41.1073 108.099 41.8223 107.027 42.8405Z" fill="#FDE6B9"/>
  <path d="M110.253 136.437C110.771 137.605 109.658 139.005 106.143 139.225C102.429 139.445 101.889 136.922 103.939 135.754C106.297 134.42 109.449 134.608 110.253 136.437Z" fill="#FFD200"/>
  <path d="M109.605 53.5222C110.167 54.2826 108.976 54.8446 107.974 54.7234C106.971 54.6021 106.629 53.7316 105.329 54.2054C104.436 54.536 104.139 55.0319 102.078 56.4976C101.384 56.9935 100.249 57.1698 99.5433 57.9633C99.2789 58.2498 99.2789 57.7869 99.1797 57.2029C99.1797 54.7785 101.869 54.514 105.031 52.5855C105.369 52.4012 105.749 52.3047 106.133 52.3047C106.518 52.3047 106.897 52.4012 107.235 52.5855C108.932 53.1144 109.406 53.2467 109.605 53.5222Z" fill="#FDE6B9"/>
  <path d="M107.566 46.7125C108.249 47.0431 108.018 47.6051 107.93 48.1231C107.731 49.2251 105.659 46.7897 102.508 48.8614C102.188 49.0708 100.59 49.754 99.6645 50.2169C98.7388 50.6797 98.2209 48.2223 103.114 46.6023C105.152 45.9301 106.288 46.6684 107.059 46.448C107.268 46.404 107.5 46.7125 107.566 46.7125Z" fill="#FDE6B9"/>
  <path d="M107.213 49.7743C107.753 49.8624 107.378 50.8763 107.213 50.9975C107.048 51.1187 105.527 50.4355 104.304 51.3611C103.357 51.9362 102.366 52.4336 101.339 52.8489C99.2016 54.017 99.3779 54.3366 99.1355 53.7856C98.5514 52.1546 99.9179 51.3391 101.56 50.7991C102.552 50.4795 103.83 49.3775 104.568 49.4326C105.462 49.4093 106.355 49.5245 107.213 49.7743Z" fill="#FDE6B9"/>
  <path d="M103.4 143.202C103.4 144.381 103.477 146.056 103.488 146.276C103.499 146.497 103.488 146.574 102.452 146.673C101.506 146.805 100.553 146.882 99.5977 146.904C95.9501 147.411 94.0877 145.516 91.7845 145.406C89.4813 145.296 89.0516 144.359 88.0818 145.218C87.8816 145.499 87.6083 145.719 87.2916 145.855C86.9748 145.991 86.6269 146.038 86.2855 145.99C85.6023 145.99 85.2607 146.442 85.2937 146.772C85.2937 147.433 86.528 147.334 87.1231 147.334C87.7181 147.334 86.7814 147.984 87.4977 148.37C88.0267 148.657 88.1589 147.797 88.9854 146.574C89.1397 146.342 89.5805 146.475 89.8119 146.783C90.0434 147.092 90.0103 147.544 89.8119 148.26C89.7238 148.679 89.6136 149.307 88.4124 149.847C87.784 150.154 87.0774 150.266 86.3847 150.166C85.7015 150.034 85.1064 150.089 84.6766 150.012C83.6628 149.825 83.2991 149.461 82.9795 148.414C81.8114 144.469 82.0759 145.108 83.0677 144.37C83.5908 143.938 84.0314 143.415 84.368 142.827C84.4452 142.706 86.4949 140.623 86.517 140.623C86.9578 140.193 86.517 139.587 85.9219 139.841C84.8311 140.473 83.858 141.29 83.0456 142.254C81.9436 143.797 80.5772 143.808 80.8416 145.736C80.9629 146.838 81.1061 146.53 81.2494 147.588C81.3265 148.15 80.6874 147.863 80.489 147.885C78.5384 148.084 79.0784 144.16 79.387 142.232C79.5302 141.383 82.6269 139.356 83.3322 138.011C83.4017 137.922 83.4406 137.812 83.4431 137.698C83.4457 137.586 83.4117 137.475 83.3463 137.382C83.2809 137.289 83.1874 137.22 83.0797 137.185C82.972 137.15 82.8558 137.15 82.7481 137.185C82.3073 137.471 82.3073 137.537 78.7809 140.678C77.3483 141.945 78.4503 143.411 77.0948 144.182C75.5295 145.831 73.7933 147.309 71.9154 148.59C70.9677 149.23 69.5902 149.042 69.469 148.337C69.3037 147.378 70.6371 146.618 72.2791 145.439C75.1002 143.411 75.0892 141.857 76.6871 141.097C78.285 140.336 77.9874 139.29 81.3816 136.535C81.7766 136.306 82.1461 136.036 82.4836 135.73C83.0567 135.157 82.153 132.832 76.8414 139.124C76.2573 139.819 76.0589 139.565 74.1966 141.328C73.0946 142.375 72.8962 142.045 73.5574 140.755C76.5879 134.793 75.7614 137.67 78.7258 134.353C79.4972 133.493 80.5441 132.424 81.7673 132.611C83.4644 132.887 84.7317 132.171 87.2773 133.405C91.6854 135.532 89.305 133.835 95.5864 136.502C97.3026 137.162 99.0582 137.714 100.843 138.155C101.504 138.331 101.074 139.466 103.234 140.469C104.028 140.832 103.367 141.064 103.4 143.202Z" fill="#FDE6B9"/>
  <path d="M102.463 148.27C102.033 148.71 105.185 146.066 77.1168 168.734C76.4225 169.285 76.2903 169.263 76.2682 168.844C76.0589 166.056 76.147 166.353 75.9707 166.298C76.4997 165.56 92.5008 153.074 97.6471 148.876C98.121 148.468 98.143 148.677 102.463 148.27Z" fill="white"/>
  <path d="M67.9932 89.2814C81.3715 127.851 80.6883 124.612 80.0271 124.975C80.0271 124.975 28.3321 152.525 27.8362 152.658C26.591 152.944 28.8391 157.209 10.6119 108.765C8.59526 103.42 6.86512 100.092 9.39972 99.1002C17.1137 96.1028 39.5836 86.2729 62.0314 77.2695C64.3787 77.6332 64.2464 78.5038 67.9932 89.2814Z" fill="#B5B6BA"/>
  <path d="M75.0346 168.948C75.1227 170.05 73.5469 169.378 58.5045 166.05C24.7612 158.567 26.304 158.997 26.2489 157.686C26.1828 156.121 26.0505 156.011 26.5685 156.121C80.5997 168 74.7481 165.069 75.0346 168.948Z" fill="white"/>
  <path d="M64.9963 102.185C67.4318 108.379 67.7734 106.428 52.4555 113.988C51.585 114.429 26.0075 127.212 24.9055 127.212C23.528 127.113 23.4949 127.344 21.0595 120.732C20.6187 119.553 20.4424 118.969 22.7566 117.591C26.1507 115.564 34.8786 111.817 56.1473 101.888C62.5389 98.8903 63.3213 97.9536 64.9963 102.185ZM50.2736 112.302C51.4417 111.486 50.527 109.833 49.6344 108.742C48.7418 107.651 47.6728 108.643 36.0357 113.933C23.0321 119.883 23.7263 119.321 23.55 120.743C24.9606 125.25 22.999 124.931 40.8184 116.743C48.4773 113.238 49.1936 113.062 50.2736 112.302Z" fill="white"/>
  <path d="M6.84274 101.812C6.84274 101.812 26.3702 153.607 26.1168 154.069C25.5676 154.563 25.2187 155.242 25.136 155.976C25.1225 156.026 25.104 156.073 25.0809 156.119C24.6731 155.711 20.3313 143.38 10.6336 117.67C5.60851 104.358 4.78201 103.939 6.84274 101.812Z" fill="white"/>
  <path d="M210.051 147.104C210.375 150.687 209.269 154.252 206.976 157.022C205.709 158.697 209.775 160.901 204.574 177.2L201.984 184.606C201.378 186.038 201.422 187.041 199.967 191.669C199.306 193.395 198.743 195.158 198.281 196.948C197.631 199.273 197.587 199.791 196.959 200.133C196.331 200.474 195.626 200.045 196.099 198.865C196.915 196.893 196.992 195.306 197.785 193.168C198.679 190.69 199.415 188.157 199.99 185.586C202.249 177.387 206.811 170.555 205.5 158.929C205.433 158.312 204.904 159.546 202.844 160.361C200.166 161.463 201.345 161.287 198.05 162.18C196.448 162.536 194.919 163.165 193.532 164.042C193.057 164.377 192.532 164.637 191.978 164.814C191.237 165.111 190.451 165.279 189.653 165.309C189.157 165.309 189.421 195.405 188.936 199.472C188.87 199.956 188.066 200.199 187.834 199.604C187.515 198.667 188.496 145.297 188.507 145.033C188.518 144.768 188.418 144.79 188.275 144.955C185.472 148.369 182.878 151.95 180.506 155.678C180.76 156.394 180.627 154.576 182.203 199.064C182.203 199.879 182.203 200.265 181.685 200.298C180.958 200.298 181.035 199.846 180.991 198.579L179.647 156.703C179.305 156.978 177.443 159.59 177.443 159.612C177.288 159.821 177.2 157.981 178.721 184.617C179.536 198.943 179.823 200.133 178.666 199.659C178.093 199.427 176.693 167.701 176.693 167.635C176.693 166.951 175.349 167.954 172.55 168.064C170.467 168.142 172.34 166.61 161.089 181.542C158.554 184.848 159.094 182.104 158.885 194.369C158.939 196.171 158.884 197.974 158.719 199.769C158.51 200.585 157.617 200.298 157.617 199.637C157.617 198.976 158.058 186.192 158.003 185.785C157.929 185.816 157.862 185.861 157.805 185.917C148.989 197.477 152.096 192.76 151.413 200.166C151.413 200.651 150.543 200.596 150.443 200.243C150.3 199.714 150.333 199.802 150.311 195.03C150.311 194.182 150.454 194.446 146.642 194.457C142.443 194.457 142.597 194.237 142.696 194.942C143.501 200.75 143.468 200.386 143.313 200.618C143.267 200.72 143.189 200.806 143.091 200.861C142.993 200.917 142.879 200.939 142.768 200.926C142.656 200.913 142.551 200.863 142.468 200.786C142.387 200.709 142.331 200.608 142.311 200.496C142.311 200.496 141.903 196.75 141.649 195.163C141.583 194.7 141.649 194.524 140.437 194.502C127.345 194.336 8.1969 194.843 1.44163 194.05C1.17715 194.05 1.08899 193.807 1.05593 193.587C1.02287 193.366 1.05593 193.102 1.34245 193.091C1.62897 193.08 149.099 193.543 149.937 193.377C150.41 193.289 150.289 193.466 150.278 190.336C150.278 187.592 150.41 187.438 149.903 187.438C143.468 187.438 1.88244 187.162 1.25429 187.129C0.890633 187.129 0.824513 187.008 0.791453 186.787C0.758393 186.567 0.526972 186.225 1.13307 186.137C5.02314 185.586 137.164 186.468 149.463 186.27C149.798 186.284 150.13 186.209 150.427 186.052C150.723 185.896 150.972 185.662 151.149 185.377C159.171 174.621 187.261 137.991 187.427 137.616C187.702 137.076 188.121 137.374 177.255 137.418C160.923 137.484 161.981 137.33 161.772 137.693C160.439 140.14 160.152 140.305 159.568 141.242C158.609 142.895 158.653 143.446 157.573 144.647C154.598 148.019 151.435 147.6 144.779 148.713C128.095 151.501 112.744 147.347 109.129 148.537C107.73 149 105.603 149.209 104.92 148.647C104.435 148.25 104.435 148.647 94.1311 156.978C80.0475 168.439 83.5849 165.023 80.2128 167.998C78.0088 169.927 76.0913 171.249 73.2481 170.599C24.4625 159.513 26.5673 160.835 24.4845 157.838C23.7021 156.736 17.1231 138.652 17.1121 138.63C16.9248 138.09 17.1121 138.299 12.2082 138.321C1.29837 138.321 2.43344 138.321 1.98162 138.321C1.52979 138.321 1.59591 138.068 1.55183 137.87C1.54148 137.767 1.5695 137.663 1.63053 137.58C1.69157 137.497 1.78128 137.439 1.88244 137.418C2.40038 137.263 6.69818 137.319 16.2085 137.208C16.7154 137.208 16.6272 137.407 14.324 131.258C3.4583 101.812 3.3481 104.016 6.85246 99.608C8.26302 97.8448 7.45856 98.9248 46.1719 82.3176C65.6333 73.9754 63.5174 73.0938 67.5949 84.6979C67.5949 84.6979 81.2817 123.61 81.414 124.635C81.414 125.097 81.4801 125.02 92.8858 126.332C94.9576 126.574 92.7536 126.607 92.7646 121.846C92.7646 117.262 91.0565 117.053 93.8666 108.049C94.3846 106.407 107.598 71.4959 106.341 70.2837C106.046 69.9438 105.722 69.6304 105.372 69.347C102.55 67.4626 103.465 66.559 101.393 65.6663C98.3628 64.366 98.1865 60.6412 98.5942 59.44C98.7044 59.1204 97.2828 58.0956 98.2195 55.6491C98.3518 55.3185 98.4179 55.043 98.0322 54.2606C97.1285 52.4423 98.6934 51.737 98.2195 50.9546C96.6547 48.4641 99.8284 46.3152 102.628 45.3234C105.427 44.3316 106.474 45.3234 106.518 44.9817C106.595 44.3316 105.416 44.6401 104.446 42.7777C102.694 39.3615 104.446 35.5376 106.947 34.8323C107.366 34.7111 107.278 34.645 107.322 32.2536C107.322 31.6145 106.925 32.7385 106.341 32.6614C105.989 32.6614 105.889 32.5401 105.867 32.1875C105.779 30.5124 107.289 31.339 107.553 29.2782C107.789 26.8441 108.465 24.473 109.548 22.2805C109.857 21.6854 108.358 22.2033 106.573 19.3492C103.366 14.2138 104.534 7.74507 106.573 12.0649C106.912 12.8059 107.4 13.4696 108.005 14.0155C108.237 12.9686 107.476 10.7095 109.438 7.10591C109.502 6.99901 109.598 6.91482 109.712 6.86556C109.827 6.81619 109.955 6.80396 110.076 6.83084C110.198 6.85762 110.308 6.92198 110.391 7.01488C110.475 7.10767 110.527 7.22437 110.54 7.34834C111.399 12.7702 110.804 9.55235 112.953 9.36501C116.821 9.03441 114.177 11.4037 116.05 5.75044C117.042 2.74197 118.662 7.80017 118.882 8.10873C120.072 9.79479 118.507 7.00672 120.149 5.32066C120.943 4.5162 121.725 4.47212 123.136 3.11665C124.136 2.04969 125.461 1.34437 126.905 1.11107C128.348 0.877769 129.829 1.12965 131.114 1.82731C131.853 2.23505 131.93 2.46647 132.216 2.20199C133.748 0.670207 135.875 0.438786 138.035 0.604087C139.269 0.703267 140.239 1.39753 142.707 2.13587C143.644 2.42239 144.911 1.58487 146.289 1.30937C148.438 0.857548 149.837 1.30937 153.066 2.41137C159.954 4.7366 160.02 8.63769 163.546 11.8004C169.982 17.5639 169.056 19.6467 169.839 27.3387C170.144 30.5869 169.473 33.8524 167.91 36.7167C167.346 37.4458 166.731 38.1343 166.07 38.7775C165.111 39.7472 166.07 41.0696 164.318 42.4582C162.565 43.8467 161.309 43.6704 161.364 44.6622C161.346 45.5031 161.137 46.3289 160.756 47.0786C160.374 47.8283 159.829 48.4826 159.16 48.993C158.719 49.3236 158.18 49.4669 155.854 49.544C154.697 49.544 154.598 50.7232 152.273 50.7011C150.708 50.7011 150.377 49.5991 150.377 50.3595C150.44 50.9193 150.469 51.4824 150.465 52.0456C150.377 53.4672 148.956 53.4011 149.253 55.2745C149.253 55.2745 151.138 57.8752 151.303 58.0956C152.912 60.2996 152.879 60.2996 153.187 60.0792C154.907 58.5584 161.574 57.8201 163.701 57.0156C166.334 56.0238 166.797 56.5307 169.144 55.9136C173.365 54.8116 183.239 57.5776 188.584 68.9393C190.512 73.0498 192.815 90.1639 193.311 92.3679C194.283 97.1395 196.032 101.718 198.491 105.923C203.582 115.025 203.318 124.37 207.472 134.938C209.908 141.021 209.5 143.115 210.051 147.104ZM208.221 151.083C208.839 148.879 208.706 148.945 208.089 143.369C207.968 142.322 204.982 145.881 198.943 148.206C195.637 149.485 195.901 149.022 190.667 150.41C188.992 150.862 189.763 148.812 189.565 161.199C189.565 163.899 189.476 163.899 189.807 163.811C190.468 163.623 191.438 163.745 194.909 161.607C196.54 160.593 198.127 160.824 200.243 159.788C201.147 159.348 204.651 157.981 205.588 156.394C205.764 156.097 206.095 155.854 206.172 155.546C206.447 154.455 207.946 152.262 208.221 151.083ZM203.637 144.471C208.155 141.638 207.957 141.727 207.77 141.264C207.518 139.537 207.04 137.851 206.348 136.25C205.136 133.098 206.348 136.999 204.001 129.638C203.736 128.811 198.59 131.478 194.953 131.742C193.752 131.82 192.22 132.128 191.647 132.117C181.531 131.753 184.385 132.635 179.58 132.018C173.773 131.269 174.941 132.018 169.045 132.679C167.238 132.877 165.673 133.781 164.075 133.561C163.701 133.561 162.676 135.765 162.543 136.084C163.469 136.261 187.779 135.985 188.286 136.15C190.16 136.779 189.686 137.55 189.609 149.275C189.609 149.738 189.752 149.584 191.526 149.154C196.926 147.942 199.45 147.137 203.637 144.515V144.471ZM202.535 128.558C203.758 128.128 203.505 128.282 203.351 127.103C202.873 123.488 202.039 119.93 200.86 116.48C198.502 110.033 200.585 110.672 195.581 112.347C192.521 113.509 189.267 114.074 185.994 114.011C176.903 114.32 180.76 110.705 177.079 120.855C176.883 121.894 176.366 122.846 175.602 123.577C175.338 123.764 175.117 124.05 174.831 124.128C171.932 124.91 170.5 123.026 170.048 123.764C163.976 133.395 164.814 132.007 164.538 132.712C165.982 132.811 167.458 131.61 175.382 130.751C177.321 130.541 180.572 131.202 183.03 131.191C185.651 130.936 188.29 130.885 190.92 131.037C190.92 131.037 195.328 131.081 202.513 128.602L202.535 128.558ZM194.347 111.73C202.392 109.317 197.279 111.168 193.499 98.4399C193.264 97.7172 193.073 96.9813 192.926 96.2359C192.672 95.4865 189.212 97.966 185.564 96.7098C185.3 96.6216 185.168 97.0183 184.187 99.1452C181.784 104.391 182.137 103.553 181.112 108.27C179.9 113.78 178.908 112.898 181.674 112.931C186.732 112.953 188.76 113.383 194.347 111.73ZM192.353 95.0898C192.617 94.9245 192.165 93.536 192.033 93.2825C190.799 90.7589 191.118 87.7725 189.829 80.8299C188.958 75.8929 189.587 77.006 185.652 74.9342C183.324 73.8632 180.904 73.0003 178.423 72.3555C173.883 71.2535 172.616 71.3857 167.547 72.2563C164.637 72.7412 165.409 73.0387 163.491 73.8983C162.158 74.5044 160.935 78.3835 160.549 79.794C158.918 85.6897 159.326 84.202 160.461 84.1249C165.651 83.5629 163.546 83.9706 173.189 86.3289C175.251 86.7355 177.218 87.5282 178.985 88.6651C182.413 90.5496 183.096 90.5275 185.101 92.1365C186.104 92.9519 185.862 84.0257 187.173 84.2792C188 84.4445 187.658 85.3812 187.614 85.6126C187.471 86.6044 187.779 85.9101 187.504 87.6182C186.611 93.1283 187.956 88.4337 185.862 95.2441C185.674 95.8502 185.575 95.9053 186.721 95.9604C187.552 96.0681 188.392 96.0681 189.223 95.9604C190.283 95.7253 191.328 95.4272 192.353 95.0678V95.0898ZM188.749 75.2538C188.339 72.9713 187.644 70.7498 186.677 68.6418C186.082 67.5397 183.096 62.5036 181.828 62.2171C179.239 61.644 172.66 57.2911 156.813 68.5756C153.11 71.2094 153.11 70.5592 153.022 71.1323C152.934 71.7053 152.328 79.9483 152.196 81.1715C152.196 81.5572 152.196 81.8327 152.548 81.6344C155.196 80.3899 157.651 78.7677 159.833 76.8186C160.593 76.1464 164.362 68.0026 165.243 68.1569C166.125 68.3111 165.585 69.3581 165.144 70.2176C163.006 74.3942 163.612 71.8045 167.723 71.3196C171.029 70.9449 171.029 70.3939 174.974 70.7245C182.181 71.2645 187.867 75.0774 188.749 75.1766V75.2538ZM188.661 141.914C188.716 137.087 189.267 137.297 186.38 141.076C150.234 188.363 151.479 185.917 151.369 188.176C151.369 188.727 151.446 192.408 151.479 192.518C151.512 192.628 188.639 143.17 188.661 141.837V141.914ZM182.523 99.2774C185.366 93.4258 185.322 93.4809 183.537 92.456C173.464 86.6044 173.729 87.8607 171.415 87.1885C163.227 84.72 166.059 85.1718 162.896 84.9845C162.896 85.1277 159.37 84.8081 158.786 85.9652C157.981 87.5742 158.389 86.6815 155.689 90.4394C154.367 92.2797 154.587 91.9711 153.485 95.4976C153.265 96.2359 154.873 95.4204 158.113 96.1147C163.436 97.2167 159.535 96.5445 167.932 99.6852C171.657 101.074 171.866 103.09 174.478 104.556C176.02 105.18 177.452 106.047 178.721 107.124C180.495 108.424 178.787 106.892 182.523 99.2003V99.2774ZM179.878 60.4649C180.892 60.7183 177.465 58.7898 176.363 58.4041C170.202 56.2001 168.549 57.203 157.452 60.0461C154.929 60.6963 154.84 60.5531 154.962 60.9388C155.325 62.1289 154.697 62.0408 153.342 69.5674C153.342 69.5674 153.265 69.7327 153.562 69.6336C153.65 69.6336 153.397 69.7768 157.97 66.4818C160.174 64.8729 160.637 65.1374 161.386 64.4762C162.013 63.869 162.766 63.4064 163.59 63.1207C170.092 60.3547 173.53 58.8339 179.878 60.3877V60.4649ZM179.294 109.229C179.437 108.534 178.765 108.6 177.938 107.84C176.815 106.875 175.543 106.101 174.17 105.548C172.968 105.03 173.266 105.162 170.533 102.473C168.748 100.71 170.169 101.691 163.205 98.9358C160.835 97.9881 162.599 97.5473 154.532 96.5555C153.276 96.7208 153.331 96.5555 153.033 97.2167C151.656 100.379 148.471 105.471 148.306 106.363C148.846 106.363 148.372 106.143 149.859 106.44C152.846 107.025 156.471 110.749 160.174 111.168C167.249 111.961 166.202 114.595 173.112 119.224C176.054 121.196 174.919 122.739 176.792 116.436C177.828 113.008 178.754 111.895 179.294 109.229ZM176.341 165.882C176.671 165.816 176.671 166.081 176.451 162.114C176.385 160.835 176.451 161.012 175.756 161.893C175.404 162.345 172.55 166.07 172.34 166.577C173.694 166.453 175.036 166.222 176.352 165.882H176.341ZM164.218 130.299C167.227 125.45 171.106 119.874 170.357 119.411C167.414 117.593 165.949 114.099 162.742 113.405C157.838 112.303 158.135 112.59 154.653 110.661C151.909 109.129 152.096 108.887 151.909 109.273C149.948 113.317 144.647 122.673 144.14 123.995C142.046 129.384 135.236 129.66 125.99 133.495C124.888 133.98 119.378 135.776 117.582 136.36C114.199 137.462 113.008 137.759 112.336 138.057C111.664 138.354 112.083 139.159 109.129 140.492C108.799 140.647 108.799 140.647 108.788 141.054C108.777 141.462 108.622 147.523 109.592 147.501C122.056 147.226 129.351 149.804 148.989 146.708C157.562 145.352 154.422 146.079 164.218 130.299ZM168.274 31.6145C169.122 28.8264 168.087 26.5122 167.965 21.454C167.736 19.5709 167.039 17.7751 165.938 16.2305C163.822 13.3432 162.378 13.3102 160.053 9.77275C157.485 5.87166 155.832 4.9019 152.085 3.5244C145.088 0.934688 145.297 4.6264 141.517 3.23787C138.85 2.25709 137.175 1.12203 134.123 2.34525C133.918 2.41909 133.736 2.54427 133.594 2.70891C133.274 3.05053 133.307 3.10563 133.704 3.33705C134.927 4.0203 133.913 3.60154 135.28 4.30682C136.646 5.0121 137.076 4.72558 139.754 7.66793C140.856 8.88013 141.054 8.56055 142.355 9.03441C143.192 9.32093 144.471 9.91601 143.997 10.6433C143.523 11.3707 143.038 10.6433 142.09 10.3127C141.072 10.1378 140.118 9.69682 139.324 9.03441C138.035 7.77813 137.341 6.65408 135.445 5.7284C131.764 3.92112 130.001 2.15791 128.073 2.42239C124.679 2.42239 124.712 4.2958 121.857 5.7284C120.348 6.4998 120.282 8.03159 120.755 8.09771C122.838 8.42831 121.516 8.09771 122.596 8.15281C123.612 8.28207 124.597 8.59185 125.505 9.06747C132.988 11.9988 130.045 13.751 137.947 17.7182C141.143 19.3381 143.732 20.1646 146.289 23.669C151.072 30.2039 151.149 32.2095 152.141 43.4389C152.35 45.8413 150.576 48.949 151.722 49.2355C153.353 49.6763 153.926 48.5082 155.469 48.1335C156.24 47.9572 157.089 48.0674 158.069 47.9021C158.653 47.8029 160.152 46.0397 160.086 44.1663C160.031 42.6786 160.89 41.3451 161.023 39.7583C161.452 34.9094 158.102 26.8428 159.138 26.402C160.174 25.9612 159.932 26.953 160.67 28.7823C162.061 33.0131 162.597 37.4783 162.246 41.9182C162.246 42.0394 162.246 42.0945 162.4 42.0174C165.706 40.1991 163.105 39.4387 165.574 37.1024C166.797 35.9894 167.172 35.5045 168.274 31.6145ZM157.584 84.7751C157.97 83.6731 159.304 78.7802 159.27 78.5488C157.589 79.7876 155.812 80.893 153.959 81.8548C152.152 82.5821 151.887 82.4498 151.755 82.9568C150.366 89.5688 149.804 94.5498 143.501 96.8971C140.889 97.8669 137.241 94.6931 135.787 91.2438C134.784 88.9076 135.258 87.9378 134.685 88.037C133.96 88.4237 133.159 88.6457 132.338 88.6872C130.839 88.8084 129.461 89.4806 123.07 88.1692C117.13 86.946 117.229 84.9734 116.954 86.5713C114.937 98.1534 114.452 95.6408 117.328 96.8751C117.648 97.0073 125.45 102.01 125.152 100.523C124.571 97.8675 124.203 95.17 124.05 92.456C124.085 92.3362 124.157 92.2309 124.257 92.156C124.356 92.0809 124.477 92.0404 124.601 92.0404C124.726 92.0404 124.847 92.0809 124.946 92.156C125.046 92.2309 125.118 92.3362 125.152 92.456C127.489 104.754 126.254 101.272 128.458 101.966C129.56 102.286 137.848 101.966 140.581 100.787C140.933 100.644 147.556 98.8917 150.267 97.0404C151.016 96.5334 151.303 97.2277 151.49 96.5224C152.592 92.996 152.846 91.894 153.551 90.792C155.491 87.7946 156.868 86.7366 157.584 84.7751ZM153.364 62.9113C153.441 62.6248 146.906 54.7675 145.804 52.828C145.088 51.5607 145.44 53.93 142.498 53.9961C141.308 53.9961 138.74 53.4341 137.859 51.9905C136.977 50.5469 137.991 50.2493 138.487 50.7122C138.783 51.1186 139.128 51.4885 139.512 51.8142C140.691 52.6297 142.818 53.0484 143.92 52.0897C149.22 47.1307 150.19 39.8244 142.818 40.3974C142.083 40.4657 141.377 40.7174 140.765 41.1295C140.152 41.5415 139.654 42.1007 139.313 42.7557C138.718 43.6593 138.63 42.5794 138.068 43.5491C135.335 48.3649 135.798 49.3347 132.062 47.318C130.398 46.4143 129.087 46.0066 129.858 44.4748C130.056 44.0891 130.332 43.7475 130.53 43.3728C130.85 42.7337 131.114 42.0725 131.412 41.4333C131.709 40.7941 131.974 40.8933 128.271 40.2211C126.728 39.9456 124.469 40.4084 123.863 41.7308C123.496 42.4785 122.945 43.1211 122.263 43.5987C121.581 44.0765 120.789 44.3737 119.96 44.4627C119.132 44.5519 118.295 44.43 117.526 44.1083C116.757 43.7867 116.083 43.276 115.565 42.6235C113.989 40.7941 114.606 39.3175 113.879 38.8767C113.152 38.4358 113.13 38.4358 113.108 38.8767C112.964 42.3369 109.735 42.0284 108.534 42.8108C106.407 44.1993 109.251 47.296 112.072 46.2711C113.284 45.8193 114.276 46.6237 113.174 47.4282C112.451 47.8565 111.598 48.0092 110.771 47.858C109.361 48.1665 109.074 47.318 108.964 47.858C108.964 47.858 108.457 50.4807 108.468 50.9656C108.479 51.4505 107.994 51.3072 108.38 51.4505C109.647 51.9023 110.65 52.0235 111.047 53.1806C111.355 54.1063 110.562 54.7235 111.124 54.7235C112.358 54.7235 112.457 54.9769 112.777 54.8888C113.097 54.8006 113.681 53.7868 114.441 53.8749C114.958 53.8572 115.474 53.9459 115.955 54.1354C116.437 54.325 116.874 54.6114 117.24 54.9769C118.992 56.4316 120.48 56.2552 120.215 57.2581C120.094 57.7209 119.775 57.6658 119.268 57.5336C116.149 56.7071 115.135 53.941 113.758 55.9246C112.953 57.1038 112.722 55.9246 111.399 56.0679C110.705 56.0679 109.68 56.3324 110.143 56.7071C110.379 56.956 110.552 57.2584 110.646 57.5884C110.74 57.9185 110.753 58.2664 110.683 58.6025C110.882 60.6632 109.879 61.4126 110.11 61.622C117.119 67.8263 117.824 64.928 126.321 66.03C129.627 66.4377 133.043 71.2204 138.101 78.7141C138.277 78.9675 139.49 80.2128 138.74 80.7307C138.222 81.0834 137.881 80.6315 135.28 76.9509C134.024 75.1766 133.627 74.0967 133.869 76.1244C134.553 81.6344 135.61 82.3837 135.798 83.618C136.003 85.8025 136.371 87.9685 136.9 90.0977C138.2 93.8776 141.749 95.9824 142.862 95.6078C145.308 94.7813 145.154 94.6049 147.369 92.4009C149.209 90.5716 150.961 80.896 151.226 76.9729C151.382 72.2179 152.101 67.4981 153.364 62.9113ZM150.829 98.4399C151.424 97.3379 150.058 99.1562 141.925 101.614C126.816 106.198 125.516 98.7485 128.877 107.124C129.979 109.791 128.315 106.617 130.905 111.884C133.384 116.932 131.831 117.494 133.384 117.703C140.096 118.64 142.762 117.086 146.035 116.887C146.664 116.887 146.619 116.59 147.424 115.047C149.253 111.576 149.22 111.873 148.989 111.653C148.383 111.069 147.821 110.452 147.182 109.912C146.712 109.389 146.413 108.735 146.326 108.037C146.24 107.34 146.369 106.632 146.697 106.011C147.931 104.192 146.366 106.22 150.829 98.4399ZM149.727 48.6184C151.678 43.6924 150.532 41.2129 150.036 36.9041C149.716 34.0499 149.859 32.3418 148.427 30.1047C147.215 28.2423 147.325 27.493 146.52 27.4379C145.264 27.3497 145.573 26.7105 142.862 26.9971C141.021 27.1844 140.327 28.7052 138.454 27.9448C137.164 27.4268 136.404 27.3717 136.04 26.986C135.677 26.6003 136.106 26.0273 136.757 26.1926C138.861 26.7216 139.302 27.1734 140.437 26.5122C143.909 24.5175 146.575 26.402 145.947 25.5975C142.718 21.2997 141.87 21.2777 138.806 19.7018C138.035 19.3051 137.704 19.4483 135.082 19.7018C133.605 19.834 133.506 19.7789 132.878 20.0655C131.776 20.5834 131.434 20.892 131.125 20.4401C130.817 19.9883 131.379 19.6357 132.227 19.1618C133.55 18.3904 136.635 18.5227 135.842 18.17C134.167 17.3656 133.781 17.5088 129.891 13.2441C129.594 12.9245 129.549 13.2441 127.941 13.9273C126.937 14.7483 126.2 15.8493 125.825 17.0901C125.715 17.7843 124.238 17.3766 125.175 15.6354C125.656 14.6558 126.301 13.7653 127.081 13.0016C128.37 12.2633 128.657 12.3294 128.37 12.1421C125.913 10.4891 123.334 9.12257 120.767 9.33195C119.202 9.45317 121.869 11.4588 122.199 13.0677C122.24 13.2005 122.231 13.3434 122.176 13.4706C122.121 13.5979 122.022 13.7014 121.897 13.7624C121.773 13.8234 121.63 13.838 121.496 13.8037C121.362 13.7693 121.244 13.6881 121.163 13.5747C120.524 12.4324 119.787 11.3484 118.959 10.3348C117.992 9.35796 117.303 8.14057 116.965 6.80836C116.678 7.41447 115.653 11.9437 116.965 14.5224C117.449 15.5032 116.557 16.6382 115.686 14.5224C114.386 11.4147 116.072 10.5331 113.482 10.4891C112.039 10.4891 112.116 11.8445 111.995 12.087C111.811 12.7688 111.834 13.49 112.061 14.1587C112.138 14.7869 111.3 15.1064 111.091 14.4342C110.595 12.8694 110.86 12.4506 110.595 11.9878C110.116 11.1103 109.782 10.1614 109.603 9.17767C109.31 9.90356 109.125 10.6683 109.052 11.4478C108.93 13.6022 109.307 15.7557 110.154 17.7402C110.286 18.3684 109.449 18.4455 109.173 17.8725C108.92 17.2211 108.629 16.5846 108.303 15.966C107.301 15.162 106.431 14.2064 105.724 13.1339C105.581 13.5306 106.308 18.7431 109.581 20.7156C111.631 21.9499 110.859 19.4483 112.788 20.1977C113.89 20.6275 114.75 21.0352 115.201 20.3189C115.345 20.0813 115.565 19.8995 115.825 19.8034C116.085 19.7073 116.371 19.7026 116.634 19.79C118.97 20.2969 118.728 21.0573 123.147 19.9553C123.896 19.7679 124.15 19.9553 126.056 21.6413C127.555 22.9417 128.998 21.2115 130.541 23.0849C130.993 23.647 131.335 23.3825 132.238 23.8233C133.395 24.3853 130.74 25.9612 131.919 26.8428C134.2 28.5619 131.18 29.5537 132.062 31.4602C133.66 34.9425 134.542 35.5706 133.814 37.0583C133.485 37.6076 133.375 38.2607 133.506 38.8877C133.814 39.9897 132.404 39.3946 136.393 40.3754C138.597 40.9374 138.2 41.1137 138.432 40.9925C140.801 39.7583 140.57 39.7142 141.154 39.4827C144.118 38.2926 148.195 39.6591 148.691 41.4333C149.297 42.6657 149.491 44.0607 149.242 45.4115C147.413 52.1558 144.746 49.6542 147.843 53.6545C148.217 54.1394 147.92 53.0153 148.945 52.1778C149.749 51.6489 148.548 51.6268 149.738 48.6184H149.727ZM145.672 118.276C146.3 117.24 140.735 119.907 133.076 118.618C132.822 118.551 132.734 118.618 132.778 118.882C132.904 120.063 133.171 121.225 133.572 122.342C136.173 128.723 135.269 128.635 135.853 128.458C142.983 126.299 141.683 124.866 145.683 118.276H145.672ZM137.594 42.0284C137.371 41.8764 137.12 41.7714 136.856 41.7198C132.966 41.0256 133.142 40.9374 132.933 41.3562C130.894 45.5658 130.729 45.136 131.599 45.5878C135.842 47.7037 133.792 47.7368 137.605 42.0284H137.594ZM134.222 87.2105C134.663 87.0011 134.905 87.3207 134.817 86.7917C133.969 81.2817 134.817 85.6897 132.999 79.8601C132.9 79.5295 132.999 79.4965 130.674 79.8601C129.524 80.0858 128.336 80.0291 127.213 79.6948C126.517 79.6408 125.84 79.4436 125.223 79.1155C124.607 78.7874 124.065 78.3356 123.632 77.7884C123.18 76.8296 120.017 78.8904 117.505 84.4004C117.196 85.0947 117.174 85.1938 117.989 85.5024C121.295 86.8689 122.948 87.6403 129.99 88.0811C132.15 87.6954 133.065 87.7725 134.233 87.1995L134.222 87.2105ZM133.484 129.362C134.332 129.098 134.442 129.186 134.233 128.712C130.53 119.984 131.368 116.215 130.167 113.581C129.318 111.73 129.065 113.515 127.963 116.722C127.566 117.956 126.861 119.521 126.508 120.524C125.329 124.117 126.232 122.464 124.701 125.825C124.326 126.64 123.852 126.927 123.599 127.379C122.772 129.395 122.937 129.02 121.295 130.971C120.48 131.952 120.436 130.596 120.436 132.349C120.623 134.145 120.535 134.079 120.778 133.991C130.056 130.585 133.01 129.45 133.484 129.362ZM132.767 74.0636C133.131 71.54 130.211 74.273 128.987 74.9342C125.737 76.6864 127.103 75.0554 123.896 77.017C125.593 78.5267 125.406 78.5377 129.175 79.1108C134.982 78.3063 131.985 79.4304 132.767 74.0195V74.0636ZM132.393 37.5102C133.208 35.4164 132.889 36.5073 130.982 32.1765C130.775 31.6001 130.708 30.9827 130.786 30.3752C130.864 29.7677 131.087 29.1877 131.434 28.6831C132.051 27.7905 129.803 28.0109 130.85 25.3771C131.125 24.6939 130.464 25.2339 129.417 23.9776C128.734 23.1621 126.938 24.8261 124.216 21.8617C123.004 20.5283 121.196 22.9086 117.064 21.3989C115.83 20.9581 116.358 22.1482 114.683 22.1813C113.008 22.2144 112.612 21.1895 112.138 21.7185C111.223 22.7213 110.639 22.2033 110.474 22.6662C109.644 24.8324 109.07 27.0886 108.766 29.3884C108.766 29.6198 108.766 29.7961 109.162 29.6419C109.372 29.5647 109.306 28.9696 110.099 29.0909C111.201 29.2782 111.201 30.9312 110.617 31.0965C108.259 31.7577 108.512 30.281 108.49 34.4025C108.49 35.1519 109.691 34.5788 110.904 36.1547C111.851 37.3779 111.631 37.8187 112.006 37.5653C112.284 37.3669 112.617 37.2602 112.959 37.2602C113.3 37.2602 113.634 37.3669 113.912 37.5653C114.584 37.9069 114.221 36.7057 115.212 35.3613C118.023 31.5043 121.824 32.7275 123.488 34.8984C125.152 37.0694 124.271 38.3477 124.987 38.3587C126.5 38.5188 128.002 38.7728 129.483 39.1191C134.112 39.9456 131.621 39.4497 132.393 37.4661V37.5102ZM129.638 72.5869C130.916 71.4849 131.577 71.9808 131.026 71.3417C127.323 67.0328 128.194 67.1651 120.866 67.0879C120.436 67.0879 120.634 67.3524 120.612 68.4764C120.524 71.6502 118.474 72.3996 117.956 80.323C117.956 81.3148 118.86 77.9977 123.808 75.2427C125.869 74.0416 127.5 74.4493 129.638 72.5428V72.5869ZM128.536 111.267C128.877 110.496 126.486 106.308 125.538 102.33C125.285 101.228 124.921 102.947 119.18 99.2774C116.711 97.6905 118.078 98.2967 115.323 97.1836C115.155 97.6569 115.083 98.159 115.113 98.6603C115.212 100.501 114.893 102.749 114.717 105.856C114.65 106.87 114.551 106.661 115.609 106.958C118.662 107.851 123.544 112.898 125.053 114.243C127.764 116.634 125.395 118.232 128.525 111.223L128.536 111.267ZM125.23 120.16C126.133 117.758 126.398 117.615 125.99 117.185C124.998 116.149 125.241 115.863 124.8 115.444C116.744 107.895 116.458 108.237 114.882 107.73C114.375 107.73 114.882 108.369 115.113 116.336C115.113 117.824 116.656 117.593 118.585 119.885C123.973 126.265 123.059 126.21 123.83 124.635C124.745 122.75 124.546 121.857 125.197 120.116L125.23 120.16ZM120.061 43.1855C120.89 42.9912 121.649 42.5745 122.258 41.9803C122.867 41.3861 123.302 40.6369 123.516 39.8136C123.731 38.9902 123.717 38.124 123.474 37.3083C123.233 36.4926 122.772 35.7584 122.144 35.1849C119.653 32.6393 115.256 35.0417 115.422 38.1383C115.312 41.7639 117.736 43.5381 120.028 43.1414L120.061 43.1855ZM120.744 129.814C123.103 126.376 123.07 127.93 119.764 123.808C119.764 123.808 116.458 119.312 115.223 119.047C115.146 119.62 115.312 122.783 115.223 123.819C115.223 123.966 115.165 124.106 115.063 124.209C114.959 124.312 114.819 124.37 114.672 124.37C114.526 124.37 114.386 124.312 114.282 124.209C114.18 124.106 114.121 123.966 114.121 123.819C114.055 122.111 113.923 126.155 113.449 113.648C113.13 105.162 113.063 107.333 113.67 101.922C114.496 94.627 112.821 101.559 115.411 87.5962C116.115 84.2371 116.601 80.8357 116.865 77.4137C117.615 71.9037 119.609 70.2397 119.389 67.4957C119.323 66.6802 118.717 67.6059 115.642 66.6141C114.904 66.3716 115.642 66.8124 115.488 68.6748C115.422 69.4793 115.245 70.5482 114.474 70.3168C113.703 70.0854 114.055 69.6336 114.11 68.201C114.188 66.1402 112.49 65.2917 110.176 63.5064C108.314 62.0518 108.832 62.4705 105.845 61.3024C105.118 61.0049 105.537 63.5064 104.391 63.1979C103.586 63.0215 104.589 61.8755 104.049 60.0792C104.007 59.9223 104.007 59.7569 104.049 59.5999C104.092 59.4431 104.176 59.3004 104.292 59.1866C104.49 59.0543 104.964 59.1866 105.151 59.4621C105.845 60.3657 105.603 57.6658 106.573 57.9854C107.796 58.3821 106.132 60.1233 106.683 60.2886C108.16 60.7294 108.766 61.0269 108.887 60.8837C109.46 59.9029 109.405 60.2996 109.493 58.1397C109.144 57.5047 108.63 56.9755 108.005 56.6079C105.449 55.1643 106.903 54.6573 103.333 57.3793C102.57 57.9138 101.749 58.3611 100.886 58.7127C98.6824 59.9249 99.6852 63.4072 102.121 64.4652C104.247 65.4019 103.84 66.3937 105.427 67.672C107.443 69.2478 107.697 69.347 107.686 69.876C107.576 73.182 108.6 68.9283 105.768 77.6561C105.768 77.6561 103.564 84.9624 103.564 84.9845C96.6106 106.143 92.8858 110.452 93.6462 117.835C93.8446 119.642 94.065 126.166 96.0596 126.794C96.2029 126.783 120.7 129.792 120.711 129.77L120.744 129.814ZM119.433 133.274C119.565 130.927 119.885 131.07 115.422 134.718C115.422 134.718 114.21 135.721 113.603 136.261C113.416 136.426 113.603 136.481 113.78 136.426C115.629 135.904 117.447 135.274 119.224 134.542C119.466 134.354 119.4 134.321 119.4 133.23L119.433 133.274ZM112.259 135.809C114.375 134.079 117.945 131.401 118.419 130.916C118.144 130.773 80.9511 125.935 80.5765 126.177C76.8076 128.26 27.5481 154.069 26.8648 154.973C26.8648 154.973 75.1987 165.265 75.4962 165.034C77.2594 163.59 95.8392 148.846 96.2139 148.504C95.707 148.151 96.5335 148.647 92.8087 147.281C92.2356 147.071 91.1006 146.708 91.1116 147.281C91.079 147.752 90.9902 148.218 90.8471 148.669C90.7195 149.485 90.2762 150.216 89.6129 150.708C88.9995 151.132 88.2847 151.387 87.5411 151.446C84.9294 151.347 84.0808 151.512 83.0119 150.642C82.6262 150.333 82.1744 149.793 81.9099 149.749C80.1908 149.386 80.0916 149.397 79.794 149.628C79.4965 149.859 74.2179 154.036 66.4157 160.284C66.008 160.604 66.8565 160.626 58.4372 158.896C43.7475 155.81 38.7665 154.851 37.1355 154.455C36.1768 154.212 35.8241 153.705 36.849 153.033C37.8738 152.361 40.5958 150.829 47.1527 147.193C84.753 126.188 80.4332 128.051 82.3176 128.051C82.9678 127.896 101.415 130.255 101.437 130.255C101.867 130.255 102.363 130.255 102.617 130.828C102.771 131.18 102.837 131.158 102.561 131.456C101.537 132.558 97.0514 135.489 97.7677 135.688C102.594 137.109 100.666 137.098 102.176 135.566C103.105 134.707 104.24 134.102 105.472 133.809C106.703 133.514 107.99 133.543 109.206 133.891C112.006 134.872 111.388 136.448 112.226 135.765L112.259 135.809ZM111.157 40.2982C111.366 40.1329 111.245 39.9787 111.267 39.7362C111.201 39.1632 111.267 39.3395 111.025 39.1411C110.309 40.1329 110.121 39.1411 110.176 40.5517C110.154 40.7501 110.705 40.5737 111.135 40.2542L111.157 40.2982ZM109.328 38.3036C110.749 38.2375 111.036 38.9758 110.65 38.0722C110.473 37.5785 110.181 37.1341 109.797 36.7757C109.414 36.4174 108.951 36.1554 108.446 36.0114C108.446 36.5294 108.578 36.5624 108.6 36.849C108.636 36.9761 108.619 37.112 108.553 37.2266C108.488 37.3413 108.38 37.4255 108.253 37.4606C108.127 37.4956 107.99 37.4788 107.875 37.4136C107.761 37.3486 107.677 37.2406 107.642 37.1134C107.267 36.2869 107.465 36.0114 106.947 36.2759C104.865 37.5322 104.181 40.4635 106.198 42.9981C106.738 43.6704 106.584 42.1827 107.884 41.5215C108.611 41.1578 108.281 41.0256 108.193 40.717C107.994 40.0558 107.983 40.3203 107.52 40.4746C106.837 40.695 106.418 40.0227 107.124 39.3726C107.3 39.2073 107.609 39.1411 107.741 38.9538C107.937 38.7327 108.178 38.5563 108.448 38.4365C108.718 38.3167 109.01 38.2563 109.306 38.2595L109.328 38.3036ZM106.143 139.28C109.658 139.071 110.771 137.66 110.253 136.492C109.449 134.652 106.297 134.475 103.95 135.809C101.889 136.922 102.429 139.445 106.143 139.28ZM107.972 54.7786C108.975 54.8998 110.176 54.3378 109.603 53.5774C109.405 53.3019 108.931 53.1696 107.267 52.6186C106.929 52.4344 106.55 52.3378 106.165 52.3378C105.78 52.3378 105.401 52.4344 105.063 52.6186C101.9 54.5471 99.2113 54.8226 99.2113 57.236C99.3105 57.8201 99.3105 58.2829 99.575 57.9964C100.28 57.203 101.415 57.0266 102.11 56.5307C104.17 55.0651 104.468 54.5692 105.361 54.2386C106.628 53.7317 106.892 54.6022 107.972 54.7235V54.7786ZM107.972 48.1665C108.06 47.6486 108.292 47.0645 107.609 46.756C107.542 46.756 107.311 46.4364 107.102 46.4915C106.33 46.7229 105.195 45.9735 103.157 46.6458C98.2636 48.2657 98.7485 50.7452 99.7072 50.2603C100.666 49.7755 102.231 49.1583 102.55 48.9049C105.658 46.8001 107.73 49.2465 107.928 48.1335L107.972 48.1665ZM107.3 51.0317C107.421 50.9326 107.796 49.9297 107.3 49.8085C106.469 49.5677 105.607 49.4526 104.743 49.4669C104.005 49.4669 102.727 50.5689 101.735 50.8334C100.093 51.3734 98.7264 52.1888 99.3105 53.8198C99.5089 54.3708 99.3105 54.0512 101.515 52.8831C102.501 52.4515 103.451 51.943 104.358 51.3623C105.57 50.4367 107.135 51.1199 107.256 50.9987L107.3 51.0317ZM103.443 143.236C103.443 141.098 104.071 140.856 103.333 140.514C101.129 139.512 101.603 138.376 100.941 138.2C99.1567 137.759 97.4011 137.207 95.6849 136.547C89.4035 133.88 91.7508 135.577 87.3758 133.451C84.8412 132.216 83.5739 132.933 81.8658 132.657C80.6426 132.47 79.5957 133.539 78.8243 134.398C75.8489 137.704 76.6864 134.839 73.6559 140.801C72.9947 142.09 73.182 142.421 74.295 141.374C76.1574 139.622 76.3558 139.875 76.9398 139.17C82.2515 132.877 83.1551 135.203 82.5821 135.776C82.2419 136.079 81.8727 136.349 81.4801 136.58C78.0859 139.335 78.3394 140.382 76.7856 141.143C75.2317 141.903 75.2207 143.457 72.3776 145.484C70.7356 146.664 69.4021 147.435 69.5674 148.383C69.6887 149.088 71.0662 149.275 72.0139 148.636C73.8918 147.355 75.628 145.877 77.1933 144.228C78.5488 143.457 77.4468 142.024 78.8794 140.724C82.4058 137.583 82.4058 137.517 82.8466 137.23C82.9543 137.195 83.0705 137.195 83.1782 137.23C83.2858 137.266 83.3793 137.335 83.4447 137.428C83.5102 137.52 83.5442 137.632 83.5416 137.744C83.5391 137.857 83.5002 137.968 83.4306 138.057C82.7254 139.401 79.6287 141.429 79.4855 142.278C79.1549 144.206 78.6149 148.129 80.5875 147.931C80.7858 147.931 81.425 148.195 81.3479 147.633C81.2046 146.531 81.0613 146.895 80.9401 145.782C80.7087 143.853 82.0421 143.842 83.1441 142.3C83.9565 141.335 84.9296 140.519 86.0203 139.886C86.5934 139.633 87.0562 140.239 86.6154 140.669C86.6154 140.669 84.5437 142.729 84.4665 142.873C84.1299 143.461 83.6893 143.984 83.1662 144.415C82.1744 145.176 81.9099 144.515 83.078 148.46C83.3976 149.562 83.7612 149.87 84.7751 150.058C85.2049 150.135 85.7999 150.058 86.4832 150.212C87.1759 150.311 87.8825 150.2 88.5109 149.892C89.7121 149.352 89.8223 148.724 89.9104 148.306C90.0647 147.589 90.1639 147.204 89.9104 146.829C89.657 146.454 89.2382 146.388 89.0839 146.619C88.2574 147.843 88.1252 148.702 87.5962 148.416C86.8799 148.03 87.7725 147.38 87.2215 147.38C86.6705 147.38 85.4363 147.479 85.3922 146.818C85.3922 146.487 85.7008 146.046 86.384 146.035C86.7253 146.084 87.0733 146.037 87.39 145.901C87.7067 145.764 87.98 145.545 88.1803 145.264C89.15 144.404 89.5688 145.33 91.883 145.451C94.1972 145.573 96.0486 147.457 99.6962 146.95C100.651 146.928 101.604 146.851 102.55 146.719C103.652 146.619 103.652 146.631 103.586 146.322C103.52 146.013 103.41 144.382 103.399 143.203L103.443 143.236ZM96.7428 135.126C101.581 131.247 101.735 131.39 101.25 131.225C101.25 131.225 82.1082 128.646 81.5572 129.02C80.2789 129.649 37.6975 153.606 37.6865 153.606C38.3146 153.871 36.5845 153.452 47.7147 155.711C67.4075 159.7 65.7325 159.744 66.4488 159.182C79.6728 148.438 79.3422 149.154 78.9896 148.835C77.6672 147.611 78.0088 145.991 77.4909 146.388C74.0416 149.044 74.6477 148.592 74.3832 148.857C75.1987 149.165 76.5872 149.143 76.3999 149.738C76.1354 150.73 73.9093 149.154 72.9726 149.892C67.4075 154.3 67.5508 153.871 68.3332 154.08C69.1156 154.289 70.0854 154.19 69.8319 154.896C69.7969 154.99 69.7279 155.069 69.6383 155.116C69.5487 155.162 69.4449 155.174 69.347 155.149C66.1512 154.642 67.3524 154.289 64.1236 156.681C63.7268 156.978 63.1979 156.604 63.7158 156.174C65.7766 154.488 65.9198 154.532 65.1925 154.411C56.123 152.813 59.8037 152.846 54.9769 155.513C54.5912 155.733 54.2276 155.259 54.6022 154.995C54.6022 154.995 57.1038 153.165 57.225 153L57.0487 152.923C48.5412 151.358 50.613 151.336 47.9572 152.923C45.6981 154.256 45.7532 154.212 45.6099 154.025C45.2352 153.606 45.9185 153.298 46.5135 152.923C49.2355 151.182 49.2135 151.645 46.227 151.072C45.2242 150.884 44.9046 150.763 45.0148 150.421C45.3013 149.496 49.0702 151.358 50.3265 150.554C52.9933 148.857 56.3655 146.895 56.6961 146.542C56.0349 146.179 54.2606 146.355 54.4259 145.617C54.5251 145.176 54.6463 145.297 57.3903 145.793C58.0625 145.914 57.5887 146.057 63.5946 142.366C65.0602 141.473 64.7958 141.627 64.906 141.44C63.6387 141.12 62.702 141.264 62.5146 140.691C62.3273 140.118 63.9142 140.47 65.9529 140.79C66.8014 140.437 71.9588 137.197 72.1241 137.065C71.7715 136.922 71.2315 136.867 70.2176 136.624C69.7107 136.492 69.5234 136.106 69.7658 135.941C69.8528 135.894 69.9483 135.865 70.0467 135.855C70.1452 135.846 70.2445 135.856 70.3388 135.886C72.62 136.283 73.1049 136.459 73.5016 136.228C79.7279 132.536 77.7333 133.186 76.9288 132.855C76.1244 132.525 76.5762 132.117 77.0611 132.194L78.2733 132.371C79.0116 132.492 78.9675 132.084 79.5957 131.831C81.954 130.883 81.3368 131.412 82.1964 130.905C83.056 130.398 83.6621 129.803 83.9706 130.211C84.2792 130.618 83.6841 130.795 83.3094 131.258C84.1029 131.544 85.1167 131.026 87.5521 131.985C87.9268 132.139 87.9048 132.062 89.2382 131.158C89.2782 131.122 89.3253 131.093 89.3766 131.076C89.428 131.058 89.4824 131.05 89.5365 131.055C89.5907 131.059 89.6435 131.074 89.6916 131.099C89.7396 131.124 89.782 131.159 89.816 131.201C89.85 131.244 89.8751 131.293 89.8894 131.346C89.9037 131.398 89.9072 131.453 89.8995 131.507C89.8918 131.561 89.8732 131.612 89.8447 131.659C89.8163 131.704 89.7786 131.745 89.7341 131.775C89.106 132.338 88.6321 132.382 89.0949 132.613C91.7397 134.002 90.5937 133.076 92.0042 133.638C92.4891 133.825 92.3899 133.748 94.3515 132.216C94.9466 131.753 95.3653 132.393 94.9686 132.756C93.2936 134.288 93.0622 133.858 94.065 134.31C96.3131 135.258 96.3241 135.401 96.6988 135.093L96.7428 135.126ZM77.1272 168.77C105.228 146.146 102.077 148.746 102.473 148.306C98.1534 148.713 98.1314 148.504 97.6244 148.912C92.4671 153.132 76.477 165.596 75.948 166.334C76.1244 166.334 76.0362 166.092 76.2456 168.88C76.2566 169.266 76.3888 169.288 77.0831 168.737L77.1272 168.77ZM80.0255 124.954C80.6867 124.579 81.3699 127.775 67.9916 89.2602C64.2448 78.4826 64.377 77.6121 62.0297 77.2484C39.5819 86.2738 17.079 96.1037 9.39808 99.1011C6.86348 100.093 8.59362 103.421 10.6103 108.766C28.8374 157.254 26.5893 152.945 27.8346 152.658C28.3195 152.504 80.0034 124.954 80.0255 124.954ZM58.5584 166.048C73.5457 169.354 75.0885 170.048 75.0885 168.946C74.802 165.067 80.5985 167.998 26.6775 156.119C26.1596 156.009 26.2918 156.119 26.3579 157.684C26.3579 158.995 24.8151 158.565 58.5584 166.048ZM71.9368 141.484C73.7991 137.274 74.3612 137.286 73.4796 137.274C71.4288 138.39 69.4354 139.607 67.5067 140.922C67.694 141.032 67.3524 140.988 69.4572 141.341C71.8927 141.782 71.7935 141.826 71.9368 141.484ZM71.1543 144.79C71.5951 144.404 71.5841 144.305 71.1543 144.548C70.0523 145.176 66.9777 147.424 66.9667 147.435C67.1651 147.556 66.9667 147.49 67.9034 147.688C68.5095 147.688 68.3442 147.115 69.0054 146.586C69.9752 145.738 70.8237 145.121 71.1543 144.79ZM66.9998 153.496C70.0964 150.95 71.5731 150.058 70.9119 150.19C70.2882 150.283 69.6516 150.161 69.1046 149.848C68.3663 149.363 68.4654 148.801 68.2561 148.746C67.6169 148.603 66.6692 148.361 65.9088 148.228C65.1705 148.636 59.98 152.163 59.6825 152.515C59.9029 152.603 59.6825 152.581 61.3796 152.879C66.8896 153.794 66.592 153.849 66.9998 153.518V153.496ZM66.03 147.027C73.3804 141.892 73.8763 142.884 66.4378 141.66C63.9587 142.982 61.5628 144.454 59.2637 146.068C59.2637 146.068 65.446 147.457 66.03 147.049V147.027ZM59.0103 151.865C62.162 149.562 63.9803 148.559 64.5203 147.975C63.9142 147.744 58.4042 146.763 58.1727 146.719C57.7099 146.928 51.4395 150.73 51.2081 150.994C51.4726 151.127 53.4121 151.457 53.7427 151.512C57.9413 152.273 58.2499 152.438 59.0103 151.887V151.865ZM26.1045 154.069C26.3579 153.606 6.85246 101.812 6.84144 101.812C4.7807 103.95 5.60721 104.369 10.6213 117.681C24.4845 154.433 24.9473 156.813 25.1237 155.987C25.2066 155.247 25.5598 154.564 26.1155 154.069H26.1045Z" fill="#1B1B1D"/>
  <path d="M145.133 159.801C146.022 160.125 146.779 160.733 147.292 161.528C147.803 162.325 148.039 163.266 147.965 164.209C147.326 173.301 140.251 171.163 140.086 171.174C140.218 171.394 143.392 172.849 141.243 176.949C139.755 179.748 134.157 180.034 130.983 180.023C127.677 180.023 125.142 180.244 121.01 178.26C120.482 178.011 120.009 177.659 119.618 177.226C119.227 176.793 118.926 176.287 118.732 175.736C118.538 175.185 118.455 174.602 118.49 174.019C118.523 173.436 118.671 172.867 118.927 172.342C119.412 171.24 120.69 171.428 120.029 170.755C117.583 168.309 117.142 162.689 117.428 159.228C117.957 153.134 141.672 152.716 142.29 159.085C142.389 160.088 142.929 158.986 145.133 159.801ZM144.747 163.372C145.64 164.154 144.405 168.529 142.664 168.617C141.364 168.684 141.474 168.408 141 168.882C140.526 169.356 140.548 169.83 141.232 169.984C146.543 171.505 149.133 160.507 143.336 160.716C142.411 160.716 142.532 160.716 142.499 161.675C142.477 162.964 143.017 161.829 144.769 163.372H144.747ZM143.898 164.474C143.898 163.835 143.303 163.625 142.664 163.581C141.661 163.504 142.455 163.945 141.452 166.435C141.395 166.664 141.354 166.896 141.331 167.13C141.331 167.306 141.331 167.416 141.551 167.405C142.444 167.405 142.774 167.471 143.028 167.075C143.554 166.303 143.862 165.405 143.92 164.474H143.898ZM140.769 164.474C141.672 160.485 141.529 160.981 140.24 161.939C135.589 165.411 121.858 164.507 118.497 161.344C118.465 163.825 118.946 166.287 119.908 168.573C122.277 173.069 130.73 173.202 135.644 171.879C139.623 170.854 139.865 168.518 140.791 164.441L140.769 164.474ZM139.358 160.969C140.537 160.077 140.846 159.867 140.835 159.526C140.692 154.831 127.192 156.121 122.542 156.804C122.542 156.528 119.798 157.719 119.136 158.666C118.85 159.096 118.938 159.195 119.544 160.22C119.897 160.826 119.963 158.799 122.85 158.281C126.85 157.586 137.882 157.421 138.884 160.485C139.028 160.639 139.204 161.069 139.38 160.936L139.358 160.969ZM139.303 177.191C140.405 176.541 140.405 175.406 140.703 174.381C140.482 172.871 139.05 171.769 138.653 172.045C137.948 172.53 137.683 172.53 137.859 172.893C138.311 173.841 137.441 174.502 136.603 175.097C135.259 176.045 134.609 176.409 131.501 176.331C119.566 176.045 123.688 172.97 122.487 172.496C122.024 172.309 121.715 171.681 120.69 172.496C120.418 172.727 120.195 173.009 120.035 173.327C119.874 173.645 119.778 173.992 119.754 174.347C119.728 174.703 119.776 175.06 119.891 175.396C120.006 175.733 120.189 176.044 120.426 176.309C122.531 179.131 134.741 180.056 139.325 177.158L139.303 177.191ZM132.934 174.987C134.818 174.987 136.846 173.643 136.647 173.257C136.449 172.871 132.074 174.546 125.627 173.444C124.624 173.268 123.798 172.596 123.842 173.356C123.93 174.987 131.303 174.987 133.011 174.987H132.934Z" fill="#1B1B1D"/>
  <path d="M146.72 43.4067C147.172 44.145 146.929 45.4674 146.356 45.2911C145.32 44.9605 146.709 43.9797 144.394 43.2193C142.852 42.7124 141.265 44.3213 142.312 45.4895C142.543 45.7539 144.714 47.3298 142.951 49.3575C142.301 50.0958 141.044 49.5118 142.047 48.3657C142.775 47.5392 141.97 47.1094 141.353 46.4151C139.402 44.2111 142.179 41.5002 143.634 41.8418C144.231 41.862 144.818 42.0124 145.35 42.2827C145.883 42.5531 146.351 42.9367 146.72 43.4067Z" fill="#1B1B1D"/>
  <path d="M145.826 33.7741C147.347 33.5537 148.261 35.2397 145.991 35.0854C144.889 35.1516 144.548 35.394 143.611 34.9532C142.299 34.3838 140.832 34.2864 139.456 34.6777C139.004 34.6777 138.486 34.0496 139.137 33.7079C140.097 33.3184 141.135 33.1598 142.167 33.2451C144.195 33.6528 144.03 34.0385 145.826 33.7741Z" fill="#1B1B1D"/>
  <path d="M124.338 31.4586C124.404 31.701 124.029 31.7892 124.062 32.0647C123.872 32.0439 123.684 32.007 123.5 31.9545C123.302 31.8773 123.115 30.8525 121.693 31.2602C117.616 32.5826 118.387 31.2602 117.285 31.5798C116.861 31.635 116.43 31.5704 116.04 31.3931C115.651 31.2159 115.318 30.9332 115.081 30.577C115.025 30.4778 114.992 30.3673 114.984 30.2535C114.976 30.1399 114.995 30.026 115.037 29.9201C115.079 29.8143 115.145 29.7194 115.229 29.6424C115.313 29.5653 115.413 29.508 115.522 29.475C115.974 29.3868 116.084 28.4281 116.866 29.0452C117.043 29.1774 117.098 29.2435 117.285 29.0452C117.35 28.9643 117.436 28.9013 117.532 28.862C117.628 28.8228 117.734 28.8085 117.836 28.8206C117.94 28.8327 118.039 28.8707 118.124 28.9312C118.207 28.9916 118.276 29.0726 118.321 29.1664C118.63 29.8056 120.15 29.1664 120.613 29.486C121.329 29.9378 122.233 29.3978 122.927 29.9709C123.214 30.1802 124.25 30.4227 124.338 31.4586Z" fill="#1B1B1D"/>
  <path d="M123.688 58.2151C124.405 58.5126 123.292 59.5375 122.586 60.0114C121.881 60.4852 121.209 59.802 121.892 59.1628C123.391 57.7853 123.281 58.0388 123.688 58.2151Z" fill="#1B1B1D"/>
  <path d="M122.585 56.6276C124.007 57.1565 120.954 60.0327 120.381 58.9528C120.051 58.3357 120.965 58.0051 121.307 57.6745C122.078 56.9471 122.056 56.4843 122.585 56.6276Z" fill="#1B1B1D"/>
  <path d="M119.059 37.6289C121.825 37.6289 122.872 39.1717 121.957 39.5133C121.296 39.7558 119.279 38.5436 119.753 39.2378C119.953 39.5681 120.039 39.9558 119.995 40.3398C119.918 41.6843 118.53 41.2986 118.265 40.5602C117.902 39.4582 118.188 39.1497 117.692 39.2268C117.196 39.304 116.59 39.5464 116.447 39.0725C116.083 38.0477 118.034 37.7171 119.059 37.6289Z" fill="#1B1B1D"/>
  <path d="M99.8175 74.5941C100.523 74.5941 101.019 75.5639 100.236 75.8063C98.5323 76.2109 96.8659 76.7603 95.2552 77.4483C85.1499 81.8563 79.3533 91.7743 82.8687 103.621C83.2544 104.91 81.359 106.563 80.6647 97.097C80.6647 88.6116 86.1747 79.5972 97.0625 75.6851C97.6356 75.4757 96.8091 75.3324 96.1809 75.1892C88.1473 73.3929 80.6427 58.4938 87.6845 41.9968C88.8967 39.1647 89.8885 38.5365 86.5274 41.6332C78.053 49.4574 65.1595 55.6617 58.3491 46.4489C53.3681 39.7157 55.2305 29.2356 54.3709 31.5168C50.2604 42.5368 43.7807 51.1545 32.3308 48.3334C27.0633 47.044 22.9528 43.4074 21.7075 42.5148C21.0904 42.063 22.1263 43.3523 23.3716 46.482C27.6253 57.1494 23.6801 68.9188 10.5993 69.4698C9.87202 69.4698 12.8034 70.5718 15.4592 75.3324C18.4236 80.6 19.0958 88.1597 14.8641 91.8625C13.6078 92.9645 13.2662 91.9947 13.9164 91.4878C19.8672 86.8814 16.6053 74.6492 9.50836 70.0428C9.02348 69.7343 8.10882 69.3045 7.97658 69.2053C7.63496 68.9629 7.66802 68.3017 8.28514 68.3678C23.1512 70.0979 31.2619 53.7442 15.6906 36.7954C14.7098 35.6934 15.6245 35.2746 16.462 36.1562C24.727 44.818 35.0308 52.2124 44.5961 45.1045C53.7207 38.3272 54.426 24.3648 55.7484 24.497C56.2113 24.497 56.2553 24.9819 56.1341 25.4337C55.2671 30.2418 55.3871 35.1759 56.4868 39.9361C60.3658 55.2099 75.4963 52.8626 91.4313 35.2636C91.6958 34.9661 92.4451 35.0652 92.401 35.6603C92.401 35.8256 81.1386 50.317 88.2024 66.2519C89.635 69.4808 92.1366 72.5774 95.3764 73.8888C96.7876 74.4452 98.3035 74.6859 99.8175 74.5941Z" fill="#1B1B1D"/>
  <path d="M66.1075 102.024C69.2813 108.978 67.6723 108.03 43.9242 119.656C26.3252 128.263 26.5015 128.263 25.0138 128.318C24.4896 128.417 23.9475 128.346 23.466 128.116C22.9846 127.886 22.5887 127.509 22.3359 127.04C18.1042 116.537 16.5504 119.05 36.3644 109.793C64.0357 96.8556 63.1541 95.5443 66.1075 102.024ZM52.4537 113.992C67.7825 106.443 67.4299 108.383 64.9945 102.189C63.3194 97.9576 62.537 98.8833 56.1784 101.892C33.1356 112.669 24.7714 116.218 22.0164 118.08C20.5176 119.127 20.6939 119.7 21.0797 120.736C23.5151 127.348 23.5481 127.117 24.9256 127.216C25.9505 127.161 51.5831 114.433 52.4537 113.992Z" fill="#1B1B1D"/>
  <path d="M49.6314 108.744C50.5241 109.846 51.4387 111.488 50.2706 112.304C49.1025 113.119 48.4743 113.24 40.8485 116.712C23.0291 124.955 25.0127 125.263 23.5801 120.756C23.7564 119.334 23.0621 119.896 36.0658 113.946C47.6699 108.645 48.827 107.774 49.6314 108.744Z" fill="#AA3CC5"/>
  <path d="M35.6367 89.5338C35.6367 88.2003 37.3228 88.3436 37.2236 89.3354C37.2498 89.4454 37.2526 89.5597 37.2316 89.6708C37.2108 89.7819 37.1666 89.8874 37.1023 89.9804C37.0378 90.0733 36.9545 90.1517 36.8578 90.2102C36.7611 90.2688 36.6531 90.3063 36.5409 90.3203C36.4287 90.3344 36.3148 90.3246 36.2066 90.2916C36.0985 90.2587 35.9984 90.2032 35.9131 90.129C35.8278 90.0548 35.759 89.9634 35.7114 89.8608C35.6638 89.7582 35.6384 89.6468 35.6367 89.5338Z" fill="#1B1B1D"/>
  <defs>
    <linearGradient id="paint0_linear_3901_17325" x1="168.77" y1="149.644" x2="194.435" y2="118.511" gradientUnits="userSpaceOnUse">
      <stop stop-color="#00703F"/>
      <stop offset="1" stop-color="#36AA73"/>
    </linearGradient>
    <linearGradient id="paint1_linear_3901_17325" x1="182.457" y1="112.988" x2="201.855" y2="101.416" gradientUnits="userSpaceOnUse">
      <stop stop-color="#00703F"/>
      <stop offset="1" stop-color="#36AA73"/>
    </linearGradient>
    <linearGradient id="paint2_linear_3901_17325" x1="116.556" y1="116.271" x2="133.448" y2="109.666" gradientUnits="userSpaceOnUse">
      <stop stop-color="#00703F"/>
      <stop offset="1" stop-color="#36AA73"/>
    </linearGradient>
    <linearGradient id="paint3_linear_3901_17325" x1="130.568" y1="117.976" x2="154.039" y2="102.951" gradientUnits="userSpaceOnUse">
      <stop stop-color="#00703F"/>
      <stop offset="1" stop-color="#36AA73"/>
    </linearGradient>
    <linearGradient id="paint4_linear_3901_17325" x1="157.803" y1="107.47" x2="186.01" y2="86.4983" gradientUnits="userSpaceOnUse">
      <stop stop-color="#00703F"/>
      <stop offset="1" stop-color="#36AA73"/>
    </linearGradient>
    <linearGradient id="paint5_linear_3901_17325" x1="157.18" y1="81.5774" x2="184.186" y2="55.9922" gradientUnits="userSpaceOnUse">
      <stop stop-color="#00703F"/>
      <stop offset="1" stop-color="#36AA73"/>
    </linearGradient>
    <linearGradient id="paint6_linear_3901_17325" x1="119.709" y1="88.0713" x2="133.305" y2="75.855" gradientUnits="userSpaceOnUse">
      <stop stop-color="#00703F"/>
      <stop offset="1" stop-color="#36AA73"/>
    </linearGradient>
    <linearGradient id="paint7_linear_3901_17325" x1="127.067" y1="49.3406" x2="179.049" y2="21.0029" gradientUnits="userSpaceOnUse">
      <stop stop-color="#00703F"/>
      <stop offset="1" stop-color="#36AA73"/>
    </linearGradient>
  </defs>
</svg>
