<svg width="192" height="188" viewBox="0 0 192 188" fill="none" xmlns="http://www.w3.org/2000/svg">
  <path d="M2.77404 140.744C0.29338 143.447 -1.93519 149.89 5.73874 156.314C15.7522 164.704 3.4295 177.248 21.8126 184.337C40.1958 191.427 45.1874 182.502 61.9873 184.61C78.7873 186.717 100.306 186.969 116.339 186.445C147.731 185.437 187.28 195.279 186.927 165.561C186.826 156.183 181.169 152.723 184.699 145.211C187.179 139.926 187.33 136.812 187.33 136.812C150.574 135.864 98.1879 137.507 76.2451 141.006C50.2384 145.161 23.5168 137.336 2.77404 140.744Z" fill="white"/>
  <path d="M185.99 46.0243C186.373 46.9419 191.657 47.184 190.578 48.0411C184.598 52.5587 187.018 48.2125 187.028 55.3823C187.028 56.0075 186.242 55.8159 185.848 55.3823C181.29 51.268 183.156 53.5167 178.144 54.8881C178.054 54.9392 177.951 54.9607 177.848 54.9496C177.745 54.9385 177.648 54.8953 177.571 54.8261C177.494 54.757 177.441 54.6654 177.419 54.5643C177.397 54.4633 177.407 54.3578 177.448 54.2629C179.798 48.626 181.2 51.5907 178.336 47.5772C176.551 45.0663 176.702 45.0461 179.657 45.5604C182.027 45.9436 181.26 45.7823 183.035 43.4125C186.232 39.026 185.163 44.0579 185.99 46.0243Z" fill="#FFD200"/>
  <path d="M164.198 13.5242C166.084 14.0788 165.428 16.7208 163.956 17.0939C161.082 17.5779 161.647 12.7578 164.198 13.5242Z" fill="#FFE25C"/>
  <path d="M155.909 170.776C155.909 173.186 156.767 175.101 150.867 176.039C125.859 180.072 100.972 177.734 100.447 173.872C100.336 173.095 100.306 168.829 100.316 168.445C100.326 168.062 100.316 168.788 104.007 169.656C116.34 172.509 146.683 172.379 155.798 167.852C155.894 168.823 155.932 169.8 155.909 170.776Z" fill="#7A560C"/>
  <path d="M155.395 48.7968C155.224 50.5716 155.476 52.8304 155.264 53.4455C150.131 49.18 109.836 47.738 100.417 53.1128C99.3482 53.7279 99.9028 53.5262 99.7414 48.696C99.7414 47.385 100.185 46.9615 100.639 46.6792C107.103 42.817 143.114 41.9599 154.418 46.6792C155.305 47.0321 155.304 47.9498 155.395 48.7968Z" fill="#7A560C"/>
  <path d="M155.102 56.1388C155.202 56.9152 152.984 58.3976 152.974 57.5203C152.974 52.2363 102.342 51.6716 102.04 57.1976C102.04 57.5304 102.04 57.964 101.697 57.8127C99.9119 56.9455 99.68 55.927 100.245 55.0598C103.512 49.7153 154.94 49.322 155.102 56.1388Z" fill="#B07E19"/>
  <path d="M147.438 168.938C138.1 170.078 107.566 172.014 101.354 167.315C100.114 166.377 100.053 164.763 102.141 163.906C103.24 163.463 101.132 165.691 107.263 166.861C114.756 168.283 150.08 169.765 153.519 163.624C154.164 162.454 160.507 167.355 147.438 168.938Z" fill="#B07E19"/>
  <path d="M152.561 157.011C152.843 164.856 152.218 164.554 145.452 165.764C139.825 166.772 106.215 168.638 103.875 163.747C102.756 161.407 104.319 137.648 104.511 136.186C107.032 116.916 137.526 116.433 116.974 102.547C112.941 99.8345 106.568 93.7235 104.995 89.1353C103.421 84.5471 102.927 66.0631 103.109 61.485C103.22 58.9035 103.028 57.0884 104.864 56.5741C116.43 53.3371 147.67 54.769 150.756 57.1085C153.327 59.0547 152.178 83.5185 148.84 91.6261C145.936 98.6849 130.89 105.28 130.951 110.594C130.951 113.619 133.976 115.796 136.517 117.743C150.141 128.169 151.552 128.07 152.561 157.011Z" fill="white"/>
  <path d="M148.618 161.882C148.566 161.85 148.507 161.833 148.446 161.833C148.386 161.833 148.326 161.85 148.275 161.882C145.855 162.941 147.045 162.508 142.709 162.75C141.65 162.81 141.7 163.082 140.772 162.86C140.198 162.719 136.174 163.103 135.559 163.123C134.784 163.005 133.995 163.005 133.22 163.123C132.03 163.274 131.798 162.77 130.85 163.244C130.416 163.455 127.361 162.9 124.608 163.344C123.267 163.192 124.305 163.687 119.566 163.244C118.157 163.005 116.728 162.91 115.3 162.961C110.258 162.961 111.549 162.326 109.976 162.437C108.968 162.508 106.87 162.114 106.951 160.934C106.933 160.485 106.865 160.038 106.749 159.603C107.152 155.126 106.033 153.644 107.757 153.291C107.979 153.291 108.544 153.069 108.604 152.807C108.665 152.545 109.018 152.736 109.431 152.222C110.167 151.334 110.964 152.393 111.741 151.445C112.517 150.498 113.102 151.103 113.394 150.568C113.687 150.034 113.606 149.56 114.04 149.711C114.705 149.973 114.897 149.64 115.199 149.6C115.346 149.62 115.491 149.65 115.633 149.691C116.581 149.761 116.561 148.864 117.499 148.178C118.164 147.684 118.416 149.347 119.253 147.965C119.596 147.401 120.262 148.511 121.058 147.634C121.502 147.19 122.42 148.461 123.075 146.948C123.357 146.333 123.579 146.746 124.225 146.686C125.082 146.615 125.102 145.092 126.715 145.385C127.081 145.459 127.459 145.459 127.825 145.385C128.046 145.385 128.581 145.536 128.833 145.385C129.559 145.052 130.699 147.079 131.475 146.827C131.97 146.762 132.472 146.762 132.967 146.827C133.623 146.827 133.502 147.402 134.258 147.452C135.014 147.503 134.621 148.047 135.216 148.067C135.811 148.087 137.233 147.644 137.727 148.511C138.221 149.378 139.381 149.015 139.986 149.348C140.591 149.681 140.177 149.731 140.651 150.538C140.833 150.85 141.66 150.839 142.013 150.739C142.819 150.497 144.393 151.516 144.544 151.597C145.109 151.889 144.171 152.696 146.177 152.978C147.962 153.22 146.46 154.602 148.194 154.057C149.152 153.855 149.404 162.336 148.618 161.882Z" fill="#FFD200"/>
  <path d="M147.851 81.91C147.851 82.3234 148.003 82.7066 148.003 83.1301C148.003 83.9066 147.488 84.6327 147.488 85.5301C147.488 91.2881 139.099 98.5395 134.894 101.182C134.682 101.323 134.389 101.323 134.198 101.464C133.791 102.039 133.321 102.567 132.796 103.037C129.347 105.447 130.184 105.75 129.821 106.526C129.045 108.16 128.813 106.304 128.581 111.397C128.581 111.931 128.702 113.797 128.702 114.26C128.702 114.361 127.956 127.148 129.71 129.386C129.942 129.689 130.174 129.75 130.174 130.213C130.174 130.526 129.569 132.684 130.063 133.602C130.45 133.995 130.685 134.513 130.729 135.064C130.729 135.497 130.517 135.457 130.416 135.699C130.184 136.274 130.164 137.02 129.72 137.504C129.519 137.726 129.226 137.706 128.994 137.857C128.47 138.2 128.712 139.4 128.369 140.025C127.694 141.235 127.472 139.823 127.3 139.622C127.129 139.42 126.665 139.44 126.433 139.208C126.201 138.976 126.191 138.492 125.888 138.2C125.586 137.907 125.112 138.109 125.112 137.343C125.112 136.334 125.858 136.556 125.858 135.669C125.858 134.6 126.231 134.882 126.312 133.652C126.312 133.41 126.181 133.178 126.181 132.926C126.181 132.412 126.786 131.978 126.786 131.373C126.786 130.768 126.241 130.425 126.241 129.749C126.241 128.913 126.857 128.741 126.857 128.035C126.857 127.329 126.413 127.138 126.413 126.583C126.413 125.645 127.421 124.072 127.421 121.309C127.421 120.301 127.169 120.069 127.169 119.434C127.169 118.496 127.26 116.247 127.26 115.642C127.26 105.77 125.566 106.234 124.517 104.892C124.235 104.529 124.003 103.965 123.841 103.884C123.488 103.642 123.004 103.41 122.641 103.188C122.278 102.966 122.107 102.644 121.804 102.402C121.502 102.16 121.351 102.21 121.159 102.049C120.967 101.887 120.151 100.163 118.668 99.7294C115.825 98.2168 118.104 98.8723 116.137 97.6319C115.401 97.158 116.016 96.7244 114.01 95.6151C113.798 95.474 113.717 95.232 113.515 95.1009C111.085 93.4067 111.731 93.7698 111.176 92.7311C111.025 92.4488 110.783 92.2068 110.641 91.9244C110.5 91.642 110.248 90.9967 110.107 90.7446C109.966 90.4925 109.875 88.8992 109.452 88.5362C108.262 87.5278 109.038 88.032 109.038 87.2656C108.957 86.3177 108.181 86.3681 108.03 86.1362C107.878 85.9043 108.161 85.7026 108.161 85.1278C108.161 84.553 106.467 81.0942 107.757 81.0942C108.766 81.1849 108.655 80.6404 109.109 80.4286C110.594 80.0722 112.11 79.8628 113.636 79.8034C113.989 79.6905 114.35 79.6058 114.715 79.5513C115.199 79.5513 115.502 80.0656 115.986 80.0656C116.47 80.0656 116.813 79.5211 117.236 79.5211C117.448 79.5211 117.65 79.632 117.862 79.632C118.87 79.5312 118.961 79.1379 119.304 79.1379C119.681 79.2367 120.065 79.3012 120.453 79.3295C121.3 79.3295 121.845 78.8454 122.601 78.8454C123.146 78.8454 123.7 79.1177 124.204 79.1177C124.709 79.1177 124.9 78.9967 125.213 78.9967C126.062 79.1275 126.925 79.1275 127.774 78.9967C130.951 77.9883 130.547 78.8152 131.687 78.8152C131.999 78.8152 132.221 78.6841 132.584 78.6841C133.24 78.6841 133.925 79.0673 134.601 79.0673C135.277 79.0673 135.378 78.7749 135.851 78.8253C137.102 78.9665 137.041 79.269 137.636 79.269C140.001 79.2982 142.361 79.5039 144.695 79.8841C145.389 79.674 146.129 79.674 146.823 79.8841C148.245 80.2572 147.851 81.0327 147.851 81.91Z" fill="#FFD200"/>
  <path d="M132.806 5.91026C134.309 6.00102 131.475 8.70353 130.427 9.77244C129.821 10.3876 129.842 10.7808 129.993 11.164C130.295 11.9002 130.396 12.6968 130.749 13.4128C131.193 14.3002 130.679 14.9657 129.539 14.3304C124.669 11.638 126.514 12.001 123.146 14.0178C118.174 17.043 123.479 10.7203 121.694 9.43966C120.453 8.54219 117.66 6.88841 119.062 6.54556C120.367 6.29719 121.698 6.20914 123.025 6.28337C124.658 6.63631 125.485 0.474985 126.232 1.68507C128.521 5.3859 127.139 6.43463 130.729 5.86993C130.83 5.85984 132.383 5.84976 132.806 5.91026Z" fill="#FFD200"/>
  <path d="M97.2406 112.749C97.2406 112.749 98.3902 150.767 98.249 150.979C97.4524 151.927 43.6945 154.054 35.1937 154.004C22.7702 154.004 23.0929 155.919 23.1837 151.028C23.2744 145.623 22.8408 100.487 22.1047 98.3696C21.7316 97.3612 19.5837 97.9571 20.1786 99.2983C20.4509 99.9134 15.0661 148.497 17.4459 149.374C18.8798 149.737 20.3723 149.803 21.8324 149.566C22.1551 149.455 22.0543 149.879 22.0139 150.574C21.9635 151.653 22.0139 151.785 21.7316 151.764C14.5114 151.21 13.4425 154.991 14.9249 143.173C15.298 140.148 18.9585 100.124 18.9585 100.084C19.14 99.1965 18.656 97.4923 20.3702 96.4435C20.5518 96.3326 24.0005 96.2721 24.3433 96.2822C25.1601 96.2822 23.8492 99.6704 25.9064 99.983C29.7181 100.548 27.8324 96.2529 28.7803 96.2529C29.8895 96.2529 29.4358 96.4738 29.5669 96.8771C29.6874 97.3755 29.7114 97.8924 29.6374 98.3998C29.5063 100.265 32.824 100.316 33.1769 99.0755C34.1853 95.5763 31.8156 96.4042 38.6727 96.263C39.8828 96.5151 38.1988 99.5191 40.5382 99.6805C44.2693 99.9427 42.0408 96.4748 43.5635 96.2529C43.745 96.2529 43.987 96.0301 44.0475 96.3528C44.1604 96.9407 44.1876 97.5427 44.1282 98.1376C43.987 99.9528 47.2744 100.033 47.6777 98.7124C48.2223 96.8973 47.6777 96.2015 48.0307 96.141C48.3836 96.0805 53.8996 95.7881 53.9601 96.0805C54.0901 96.6492 54.1234 97.2351 54.0609 97.815C53.95 98.8839 55.4424 99.7712 56.9953 99.0553C57.7012 98.7326 57.7416 98.0469 57.8827 96.6855C57.9735 95.7578 57.6306 95.6771 58.5584 95.6771C58.9718 95.6771 58.9718 95.5561 59.0323 97.6939C59.0928 99.8318 62.2491 99.4183 62.5516 98.3494C63.3886 95.3242 61.8155 95.1024 64.5684 95.3242C68.7936 95.6166 69.6104 93.8923 69.318 97.4933C69.2272 98.5823 70.6289 99.5101 72.2726 98.7639C73.5533 98.2193 72.8272 95.3746 73.4222 95.3545C75.2071 95.2738 73.2508 98.4704 75.439 98.8536C79.4726 99.5494 77.3449 95.0731 78.2524 95.0126C81.8423 94.7504 80.8138 95.1931 84.0003 94.82C85.0087 94.699 84.8675 95.1326 84.9079 97.099C84.9079 98.4704 86.6322 98.7739 87.9331 98.2294C89.2339 97.6849 88.4171 94.9924 89.0625 94.9622C89.2268 94.9824 89.3932 94.9824 89.5566 94.9622C90.3129 94.7706 89.1028 97.9864 91.0288 98.3595C91.8557 98.5309 93.2373 98.3595 93.4188 97.5427C94.0843 94.5175 92.965 94.9612 94.9919 94.7696C96.6154 94.6183 97.1196 95.2133 97.2406 112.749Z" fill="white"/>
  <path d="M92.3706 92.4504C93.0361 93.2772 92.6933 96.9478 92.4916 97.1192C91.9874 97.5226 90.8176 97.7949 90.7773 96.5445C90.6865 93.6302 91.1605 92.7529 90.1118 92.8537C90.0378 92.8757 89.9704 92.9158 89.9158 92.9704C89.8612 93.025 89.8211 93.0923 89.7992 93.1663C89.7992 93.3982 89.3353 93.368 89.295 93.0957C89.2849 91.7747 91.7756 91.6638 92.3706 92.4504Z" fill="#7A560C"/>
  <path d="M88.8311 16.5195C89.2547 20.3918 83.7286 18.3548 85.8866 15.622C86.0997 15.3753 86.3799 15.1957 86.6932 15.1052C87.0064 15.0147 87.3392 15.0171 87.6511 15.1122C87.9629 15.2072 88.2405 15.3908 88.45 15.6407C88.6595 15.8905 88.7919 16.1958 88.8311 16.5195Z" fill="#FFE25C"/>
  <path d="M87.6315 93.2074C88.6399 99.0269 85.766 97.8057 85.766 96.6864C85.766 93.1771 85.766 93.167 85.3626 92.9956C85.3122 92.9673 85.2556 92.9517 85.1978 92.9503C85.1399 92.9489 85.0826 92.9617 85.0309 92.9876C84.9791 93.0134 84.9345 93.0516 84.9009 93.0987C84.8674 93.1458 84.8458 93.2004 84.8383 93.2578C84.8887 93.6007 84.1727 93.4091 84.5862 92.7637C85.1408 91.8662 87.3593 91.715 87.6315 93.2074Z" fill="#7A560C"/>
  <path d="M77.6578 140.975C77.6578 141.5 78.2225 141.56 75.0259 141.58C73.473 141.58 63.4797 141.803 62.9251 141.894C61.8461 142.045 62.1184 142.125 61.9772 139.311C61.6444 132.908 61.5335 132.958 61.9772 132.888C62.9856 132.716 77.3755 132.142 77.3856 132.686C77.4259 136.649 77.6578 140.582 77.6578 140.975Z" fill="#1FA863"/>
  <path d="M76.8706 93.532C77.0521 94.2782 77.4151 97.5656 76.5882 97.9387C73.9462 98.695 75.7815 93.9051 75.005 93.5421C74.6823 93.3707 74.2185 93.3001 74.1983 93.653C74.1781 94.006 73.8252 93.9152 73.8151 93.5925C73.7647 92.2917 76.6487 92.0698 76.8706 93.532Z" fill="#7A560C"/>
  <path d="M75.7924 45.3496C75.3789 46.8622 73.8966 47.9513 73.0697 49.121C72.2428 50.2908 73.7353 51.2588 74.4512 54.0824C74.6327 55.5445 72.9588 54.2941 70.5185 53.074C68.3201 51.763 65.0025 60.6672 66.2227 51.1681C66.4143 49.6454 63.9538 49.3126 62.4109 47.9311C60.8681 46.5496 66.6966 46.7916 66.9588 45.8337C67.9672 42.3849 66.6563 38.553 70.9319 44.5631C72.0411 46.1261 71.5672 45.1479 74.4714 45.1278C74.6932 44.9765 75.9134 44.9463 75.7924 45.3496Z" fill="#FFD200"/>
  <path d="M72.1315 93.6425C72.2122 94.6509 72.5046 97.5854 71.7988 97.9484C68.7131 99.5416 71.224 93.7837 69.7315 93.5215C68.8845 93.3803 69.4996 93.9954 68.9954 93.9349C68.4912 93.8744 69.0458 93.1081 69.5198 92.856C70.4677 92.3417 72.0509 92.5232 72.1315 93.6425Z" fill="#7A560C"/>
  <path d="M61.7251 94.5801C61.7251 94.9835 61.7856 97.9482 61.4326 98.1297C58.6394 99.1381 60.4242 94.2877 59.7688 93.8238C59.557 93.6927 59.0629 93.5415 58.9419 93.9751C58.9419 94.802 57.6209 93.3499 59.557 92.9667C61.1705 92.6238 61.6948 93.1684 61.7251 94.5801Z" fill="#7A560C"/>
  <path d="M60.0511 116.069C60.0511 116.069 60.1116 121.605 60.0511 122.119C60.0511 122.472 47.4058 122.795 47.3049 122.785C44.1587 122.502 44.3402 123.925 44.3402 121.898C44.3402 114.719 44.2091 115.071 44.5621 115.071C44.4612 115.071 44.3503 115.01 58.0545 114.536C60.515 114.415 60.0814 113.911 60.0511 116.069Z" fill="#8EF8C3"/>
  <path d="M56.5923 93.5808C56.915 94.0144 56.9957 97.8161 56.5923 98.1489C56.3852 98.3288 56.1239 98.4345 55.8499 98.4491C55.5759 98.4637 55.3048 98.3864 55.0797 98.2295C54.5654 97.7455 55.4327 94.0144 54.4444 93.8329C53.6075 93.6716 54.1217 94.3976 53.6781 94.4581C53.2344 94.5186 53.315 94.3875 53.3352 94.1959C53.557 92.6128 55.7957 92.4917 56.5923 93.5808Z" fill="#7A560C"/>
  <path d="M46.7202 98.3927C46.4956 98.5666 46.2249 98.6707 45.9417 98.6922C45.6585 98.7137 45.3752 98.6517 45.1269 98.5137C44.8244 98.2717 44.9958 97.2834 44.895 94.7624C44.895 93.8246 44.0781 94.0263 44.0076 94.3994C43.937 94.7725 43.463 94.5507 43.4529 94.3994C43.3723 93.1389 46.0748 92.8868 46.5891 93.6633C47.1034 94.4397 47.0529 98.0801 46.7202 98.3927Z" fill="#7A560C"/>
  <path d="M41.88 98.1803C41.797 98.4292 41.6204 98.6361 41.3877 98.7572C41.1549 98.8784 40.8842 98.9044 40.6326 98.8297C40.466 98.7802 40.3151 98.6881 40.195 98.5624C39.9126 98.2902 40.0942 95.1944 40.0236 94.5288C40.0236 94.186 39.0958 94.065 39.0152 94.5288C39.0857 94.9524 38.8538 95.0845 38.5009 94.9433C38.1479 94.8021 38.5009 92.5937 41.2941 93.471C42.2219 93.955 42.0414 97.3534 41.88 98.1803Z" fill="#7A560C"/>
  <path d="M32.1493 93.8828C32.7644 94.3477 32.5627 98.8048 32.0282 98.9258C29.2652 100.237 30.9694 95.1141 30.2635 94.4586C29.84 94.3578 29.6585 94.3981 29.5375 94.741C29.4165 95.0838 28.9325 94.8015 28.9425 94.741C29.0434 93.1174 31.2719 93.1164 32.1493 93.8828Z" fill="#7A560C"/>
  <path d="M27.5101 96.706C28.0143 100.225 25.3924 99.3269 25.3924 98.2983C25.3924 94.5975 25.705 94.6277 25.1605 94.547C24.1521 94.4059 24.8781 94.9716 24.3235 94.9514C23.7689 94.9312 23.8597 94.5077 24.142 94.1245C24.6765 93.5497 26.6328 93.2573 27.1672 94.0338C27.5101 94.4462 27.379 95.7884 27.5101 96.706Z" fill="#7A560C"/>
  <path d="M21.9332 148.334C21.5299 148.425 18.303 148.566 18.2021 148.566C17.0828 148.566 20.9551 95.5951 21.4391 100.577C21.4492 100.677 22.4576 148.203 21.9332 148.334Z" fill="#00703F"/>
  <path d="M144.474 68.1391C144.927 61.645 145.301 57.3492 140.551 57.8433C138.534 58.055 135.993 59.6685 137.193 63.6618C138.393 67.655 137.314 67.776 137.072 70.9424C136.97 71.6669 137.107 72.4047 137.462 73.0444C137.817 73.6841 138.371 74.1908 139.039 74.4879C139.483 74.6846 139.965 74.7824 140.45 74.7753C142.608 74.9669 144.08 73.7155 144.474 68.1391Z" fill="white"/>
  <path d="M144.07 127.364C141.579 124.742 137.556 121.435 135.186 120.689C132.524 119.842 132.897 124.46 134.177 125.489C139.058 129.523 140.54 130.167 140.813 135.905C141.135 142.782 139.804 143.681 145.532 144.417C146.46 144.538 147.367 144.588 147.468 141.392C147.599 136.39 147.498 130.994 144.07 127.364Z" fill="white"/>
  <path d="M187.783 50.9227C187.168 51.3361 187.975 51.9311 187.854 55.521C187.878 55.7046 187.857 55.8913 187.793 56.065C187.728 56.2387 187.623 56.3943 187.486 56.5185C187.348 56.6426 187.183 56.7317 187.004 56.778C186.825 56.8244 186.637 56.8266 186.456 56.7845C186.215 56.7295 185.998 56.5979 185.837 56.4094C183.084 54.1808 183.175 53.3842 182.046 53.8581C180.737 54.5753 179.39 55.2216 178.012 55.7942C177.828 55.8484 177.633 55.8535 177.446 55.8089C177.26 55.7643 177.088 55.6716 176.948 55.54C176.809 55.4085 176.706 55.2427 176.65 55.059C176.594 54.8754 176.588 54.6804 176.631 54.4934C177.306 51.4682 179.494 50.1976 178.859 49.4514C175.199 44.9741 174.826 43.9556 180.533 44.7119C181.673 44.8632 183.044 40.6077 185.111 40.5977C186.583 40.5977 186.442 45.559 186.916 45.6397C193.794 47.1724 192.442 47.8077 187.783 50.9237V50.9227ZM190.577 47.9983C191.646 47.1714 186.372 46.9395 185.988 45.9815C185.182 44.0555 186.231 38.9832 183.044 43.2588C181.279 45.6386 182.036 45.7899 179.666 45.4067C176.711 44.9429 176.55 44.9227 178.355 47.4235C181.168 51.3966 179.747 48.6437 177.457 54.1092C177.42 54.2042 177.412 54.3084 177.435 54.4079C177.458 54.5075 177.511 54.5976 177.587 54.6665C177.662 54.7354 177.757 54.7797 177.858 54.7937C177.959 54.8076 178.062 54.7904 178.153 54.7445C183.195 53.3731 181.32 51.1243 185.857 55.2386C187.491 57.1747 187.209 53.3227 186.533 51.205C186.341 50.5899 186.815 50.1966 188.126 49.5109C188.985 49.0672 189.81 48.561 190.597 47.9983H190.577Z" fill="#1B1B1D"/>
  <path d="M190.123 136.565C190.395 138.178 152.48 135.869 152.641 137.452C153.306 143.906 153.942 152.82 153.952 160.464C153.952 161.835 153.801 161.946 154.244 162.168C157.854 163.983 157.048 164.356 157.269 173.26C157.451 181.075 99.0444 181.388 99.0041 173.664C99.0041 165.122 99.0041 164.82 99.8814 163.943C102.342 161.401 102.302 163.943 101.979 160.423C101.979 159.566 102.281 149.108 102.302 147.716C102.483 136.725 103.703 138.844 101.717 138.793C98.5705 138.712 99.2562 138.612 99.2864 141.758C99.4074 154.181 101.495 152.85 93.3671 152.951C89.3335 153.022 25.0883 156.238 23.7875 155.583C22.8396 155.099 22.3354 155.2 22.0228 154.101C21.8413 153.485 21.9623 153.042 21.5287 153.092C20.5203 153.193 16.0329 153.193 15.801 153.213C15.4048 153.21 15.0139 153.123 14.6547 152.955C14.2955 152.788 13.9764 152.546 13.7191 152.245C13.4619 151.943 13.2724 151.59 13.1635 151.209C13.0547 150.828 13.0291 150.428 13.0884 150.037C13.0884 149.936 13.885 140.689 13.643 140.669C8.24804 140.275 -0.323364 141.677 0.00940778 140.054C0.1405 139.408 11.1623 139.519 13.6531 139.499C13.7842 139.499 18.1606 96.9445 18.2211 96.8437C19.2295 95.1596 20.8631 95.2705 22.7589 95.1798C23.3841 95.1798 22.6783 94.5546 23.5455 93.4857C24.1505 92.7395 26.0564 92.5781 27.0749 92.9109C27.7102 93.1227 28.0833 94.2319 28.2245 93.7781C28.5875 92.5277 32.3488 91.7613 33.1253 93.9798C33.3471 94.6252 33.1253 95.0689 33.5085 95.089C37.4311 95.2201 37.3908 95.089 37.411 94.847C37.411 92.5781 39.6496 92.0336 41.5656 92.5983C42.8563 92.9815 42.3824 94.0605 42.8563 93.2537C43.3303 92.447 45.1454 92.2453 46.1941 92.4168C47.5252 92.5781 47.6765 94.3126 47.7471 94.5445C47.8479 95.1395 52.1538 94.7563 52.2546 94.7462C52.5168 94.7462 52.2546 92.6285 53.6261 92.2857C57.6597 91.2773 57.2563 93.7781 57.5891 93.0722C57.6834 92.8594 57.8222 92.6692 57.9962 92.5144C58.1701 92.3596 58.3751 92.2438 58.5975 92.1748C63.1756 91.2168 62.3286 93.9294 62.6311 94.1916C64.2536 94.4084 65.8983 94.3811 67.5117 94.1109C67.8042 94.0403 67.4008 93.2033 68.4495 92.326C69.1526 91.8789 69.977 91.6605 70.8092 91.7008C72.8865 91.9731 72.5134 93.284 72.826 92.7092C73.3302 91.842 73.8344 91.8521 75.0848 91.6302C75.6039 91.4768 76.1618 91.527 76.6452 91.7706C77.1285 92.0141 77.5009 92.4327 77.6865 92.9411C78.2714 94.0302 76.9705 94.0302 79.3504 93.9495C83.0008 93.8588 82.9806 93.8285 83.2125 93.6067C83.4445 93.3848 82.7184 92.0235 84.826 91.3479C85.4028 91.0867 86.0513 91.0292 86.6651 91.185C87.2789 91.3407 87.8216 91.7004 88.2041 92.205C88.668 92.9512 87.8915 90.6622 91.915 91.1966C92.2082 91.2582 92.4818 91.3905 92.712 91.5821C92.9423 91.7737 93.1222 92.0187 93.236 92.2958C93.5285 92.8 93.2965 93.6773 93.7806 93.647C99.2763 93.3445 97.189 93.0521 98.5301 120.682C99.3772 138.128 98.7419 137.956 99.2864 137.825C100.103 137.593 103.028 137.926 102.826 137.26C102.715 136.877 103.018 133.227 105.418 128.82C110.772 119.049 124.224 115.66 122.56 109.408C121.552 105.476 106.628 100.403 103.007 87.3344C102.261 84.6319 101.535 69.3446 101.596 66.4807C101.767 58.9984 101.767 59.2606 101.142 59.0286C98.1873 57.9698 98.1167 55.6707 98.3587 51.0824C98.4495 49.227 98.1772 48.0572 98.3587 47.3715C99.8915 41.0287 135.307 42.0371 143.565 43.0858C158.157 44.9312 156.553 45.4152 156.523 53.674C156.523 59.916 153.105 58.1412 153.337 59.8454C153.639 62.0538 153.024 74.7294 153.004 74.9715C151.592 89.321 153.72 91.8823 138.251 103.841C130.678 109.7 129.175 110.901 138.614 117.879C142.285 120.602 146.863 124.05 149.364 127.842C152.752 132.965 151.925 136.423 152.782 136.151C153.79 136.151 164.621 135.405 180.079 135.889C188.772 136.121 189.911 135.365 190.123 136.565ZM155.908 170.769C155.927 169.793 155.887 168.817 155.787 167.845C146.712 172.373 116.328 172.513 103.996 169.649C100.275 168.782 100.365 167.946 100.305 168.44C100.244 168.934 100.305 173.099 100.436 173.865C101.011 177.748 125.908 180.017 150.856 176.033C156.705 175.106 155.908 173.22 155.908 170.769ZM155.303 53.4421C155.515 52.8673 155.303 50.5682 155.434 48.7934C155.313 47.9463 155.333 47.0488 154.426 46.6757C142.728 41.7346 106.94 42.9346 100.648 46.6757C100.194 46.948 99.6999 47.3715 99.7503 48.6925C99.9116 53.5228 99.357 53.7345 100.426 53.1093C109.996 47.6942 150.261 49.2169 155.303 53.4421ZM153.024 57.4757C153.024 58.5547 157.269 55.9833 153.851 54.0673C144.775 48.9749 92.0259 50.4371 100.618 57.0925C100.789 57.2236 101.898 58.0404 101.999 57.7076C102.241 56.9413 101.596 55.6908 106.517 54.6824C113.525 53.2203 148.658 51.7682 152.984 57.5765L153.024 57.4757ZM147.478 168.883C160.517 167.3 154.204 162.4 153.528 163.57C150.08 169.761 114.503 168.178 107.273 166.806C101.162 165.647 103.239 163.407 102.15 163.851C100.063 164.708 100.133 166.322 101.364 167.26C107.515 172 137.626 170.124 147.438 168.934L147.478 168.883ZM152.137 163.176C153.145 161.159 152.268 135.899 149.112 129.778C142.91 117.889 123.095 115.086 134.54 105.203C141.428 99.2436 149.021 95.684 150.745 86.0437C151.602 81.284 152.923 62.3463 151.693 58.1211C150.352 53.5127 114.241 54.5513 109.229 55.4992C106.668 55.9833 103.32 56.2555 103.37 58.6757C103.071 64.4753 103.125 70.2877 103.532 76.0807C104.117 85.6202 103.844 89.1899 108.523 94.605C117.417 104.921 127.683 106.605 123.347 113.321C121.138 116.739 107.656 125.512 106.386 130.141C104.782 136.01 104.671 129.938 103.764 150.49C103.189 163.478 102.886 164.406 106.849 165.455C114.433 167.563 149.656 167.795 152.096 163.227L152.137 163.176ZM98.2478 150.924C98.6713 150.42 96.5234 96.1579 96.5234 96.0571C96.5234 95.7663 96.4298 95.4833 96.2566 95.2498C96.0834 95.0163 95.8396 94.8447 95.5614 94.7603C95.3765 94.7048 95.1819 94.6897 94.9906 94.7159C92.9738 94.9075 94.073 94.4941 93.4175 97.489C93.236 98.3159 91.8545 98.4964 91.0276 98.3048C89.0915 97.8914 90.3117 94.7159 89.5554 94.9176C89.391 94.9327 89.2256 94.9327 89.0612 94.9176C88.4159 94.9176 89.0612 97.7109 87.9318 98.1848C86.8024 98.6588 84.9671 98.4369 84.9066 97.0554C84.9066 95.089 85.0478 94.6544 83.9991 94.7754C80.8125 95.1485 81.8411 94.7058 78.2512 94.968C77.4344 95.0285 79.3403 99.4847 75.4378 98.809C73.1588 98.4258 75.2361 95.2403 73.3705 95.3109C72.7958 95.3109 73.5016 98.1747 72.231 98.7294C70.5873 99.4352 69.2058 98.5479 69.2764 97.4588C69.5789 93.8487 68.6815 95.5721 64.5269 95.2796C61.7235 95.088 63.2764 95.3502 62.5101 98.3048C62.2176 99.3636 59.0513 99.7277 58.9907 97.6403C58.9302 95.5529 58.9302 95.6235 58.5168 95.5731C57.5891 95.5731 57.9319 95.6941 57.8311 96.5815C57.6899 97.9831 57.6597 98.5983 56.9538 98.9512C55.4008 99.6672 53.9286 98.7798 54.0193 97.7109C54.342 94.5546 53.2328 96.3193 49.4916 95.9462C46.8799 95.8958 48.4832 95.8958 47.6362 98.6084C47.2328 99.9394 43.9454 99.8487 44.0866 98.0336C44.1403 97.4377 44.1132 96.8373 44.0059 96.2487C43.9454 95.926 43.7034 96.1277 43.5219 96.1479C43.3404 96.168 43.0883 96.1479 42.9975 96.2285C42.6647 96.6218 43.8244 99.8184 40.5068 99.5865C38.7824 99.4655 39.1858 97.5697 39.1353 96.8033C39.0849 96.0369 39.2059 96.2184 34.5068 96.1983C32.49 96.1983 34.0228 95.8655 33.1454 98.9714C32.7925 100.212 29.4749 100.16 29.606 98.3048C29.6785 97.7943 29.6546 97.2747 29.5354 96.7731C29.4043 96.3596 29.8581 96.1579 28.7488 96.1579C27.6396 96.1579 29.7572 100.444 25.8749 99.8789C23.8581 99.5865 25.1085 96.1983 24.3119 96.1781C19.6228 96.047 19.4715 96.2991 19.0077 98.6487C14.7522 143.018 14.9741 143.018 14.9237 143.079C13.4917 154.857 14.49 151.146 21.7304 151.66C22.0329 151.66 21.9623 151.549 22.0127 150.47C22.0127 149.754 22.1539 149.331 21.8312 149.462C20.371 149.699 18.8766 149.629 17.4447 149.26C15.2665 148.464 20.4093 99.7176 20.1774 99.1932C19.9455 98.6689 20.3892 97.5395 21.1354 97.7411C22.9303 98.2151 22.8194 97.6705 23.243 144.521C23.3539 157.247 20.369 153.889 35.1824 153.909C41.6563 154.04 97.31 152.043 98.2074 150.975L98.2478 150.924ZM92.4091 92.4369C91.7839 91.6504 89.3133 91.7613 89.3335 93.0823C89.3335 93.3445 89.8377 93.3949 89.8377 93.1529C89.8579 93.078 89.8975 93.0098 89.9523 92.9549C90.0072 92.9 90.0754 92.8605 90.1503 92.8403C91.1587 92.7395 90.7755 93.6067 90.8159 96.53C90.8159 97.8208 92.0965 97.4588 92.5302 97.1058C92.7822 96.9042 93.0041 93.2437 92.3688 92.447L92.4091 92.4369ZM87.7402 96.9042C88.4159 88.5748 83.0613 93.6067 84.6142 93.4151C84.6949 93.4151 84.8562 93.526 84.826 93.2739C84.8321 93.2287 84.8472 93.1851 84.8704 93.1458C84.8937 93.1065 84.9245 93.0722 84.9611 93.045C84.9977 93.0178 85.0394 92.9981 85.0838 92.9872C85.1281 92.9763 85.1742 92.9743 85.2192 92.9815C86.3083 93.1428 85.2192 97.0151 86.0663 97.4386C86.9134 97.8621 87.7402 97.2672 87.7402 96.9042ZM77.0008 97.4285C78.0697 89.2302 72.4327 93.7176 73.9756 93.8386C74.4596 93.8386 73.9756 93.0218 74.984 93.5563C75.3873 93.7579 74.8327 97.4285 75.4579 97.8621C76.6478 98.3764 77.142 97.4084 77.0109 97.4084L77.0008 97.4285ZM72.1201 93.6571C72.0394 92.5277 70.4462 92.3563 69.5185 92.8605C69.0445 93.1227 68.621 93.8689 69.0042 93.9395C69.3874 94.01 68.9033 93.3848 69.7302 93.5361C71.2025 93.7882 68.8025 99.5159 71.8075 97.9529C72.5033 97.5798 72.2109 94.6554 72.1302 93.6369L72.1201 93.6571ZM61.3605 93.2537C60.5235 92.5378 58.3353 92.9109 58.5168 94.01C58.5273 94.0571 58.5534 94.0991 58.591 94.1293C58.6286 94.1594 58.6753 94.1759 58.7235 94.1759C58.7717 94.1759 58.8184 94.1594 58.856 94.1293C58.8936 94.0991 58.9198 94.0571 58.9302 94.01C59.0513 93.5764 59.5555 93.7277 59.7571 93.8588C60.5134 94.363 58.5672 99.2235 61.421 98.1647C61.7538 97.9126 61.9756 93.7479 61.3706 93.2336L61.3605 93.2537ZM56.5706 98.1647C56.8429 97.9428 57.3269 93.4353 55.9353 93.0117C53.3639 92.3966 52.9101 94.5647 53.6563 94.4739C54.0899 94.4134 53.5958 93.6874 54.4227 93.8487C55.058 93.9596 54.8866 93.4857 54.8966 97.3781C54.9067 99.2134 56.7218 98.1445 56.5807 98.1445L56.5706 98.1647ZM46.7084 98.4067C47.0412 98.084 47.0412 94.3731 46.5773 93.6672C46.1135 92.9613 43.3303 93.1025 43.4311 94.4033C43.4311 94.5747 43.9555 94.6655 43.9958 94.4033C44.0664 93.9899 44.8429 93.8689 44.8731 94.7563C44.974 97.1361 44.7925 98.2554 45.1051 98.5075C45.3558 98.6493 45.6429 98.7135 45.9302 98.6919C46.2174 98.6704 46.4917 98.5641 46.7185 98.3865L46.7084 98.4067ZM41.8681 98.1949C42.0012 96.9346 42.0012 95.6637 41.8681 94.4033C41.7673 93.4655 40.9404 93.2739 40.0026 93.2739C38.1975 93.4252 38.3185 94.8773 38.4597 94.9378C38.8127 95.079 39.0446 94.9368 38.974 94.5233C39.0547 94.0796 39.9824 94.2006 39.9824 94.5233V97.6605C40.053 99.9294 42.3622 98.1747 41.8782 98.1747L41.8681 98.1949ZM30.7757 93.4252C29.9186 93.4857 29.0413 93.4958 28.9606 94.7159C28.9606 94.8168 29.4749 94.9781 29.5555 94.7159C29.6362 94.4537 29.8581 94.3327 30.2816 94.4336C31.0278 95.1294 29.2732 100.212 32.0463 98.9008C32.6211 98.7697 32.4093 97.5596 32.4698 96.9344C32.1975 96.9546 33.4782 93.2033 30.7555 93.405L30.7757 93.4252ZM27.448 98.6084C27.5992 97.2268 27.5287 94.4739 27.2261 94.0706C26.6614 93.3143 24.7051 93.5663 24.2009 94.1613C23.9186 94.5243 23.9287 95.0184 24.3724 94.9882C24.9875 94.9882 24.1707 94.4437 25.2093 94.5848C25.7539 94.6554 25.4211 94.5848 25.4413 98.326C25.3908 99.4252 27.3371 99.4252 27.4278 98.5882L27.448 98.6084ZM20.6715 105.223C20.6715 105.324 16.9909 148.585 18.2211 148.585C18.322 148.585 21.5589 148.444 21.9522 148.353C22.3455 148.262 22.2749 81.7782 20.6514 105.203L20.6715 105.223Z" fill="#1B1B1D"/>
  <path d="M174.946 51.295C175.824 52.4042 171.377 52.8983 169.904 52.505C168.23 52.0613 168.977 49.4798 168.422 49.6714C166.143 50.3571 163.38 51.8597 161.918 52.3235C160.456 52.7874 160.657 51.7084 161.121 51.5168C166.516 49.3487 169.783 47.4832 169.814 49.5706C169.814 50.579 169.33 52.1823 172.274 51.5874C173.877 51.5773 174.573 50.821 174.946 51.295Z" fill="#1B1B1D"/>
  <path d="M164.742 17.8455C163.583 18.7429 160.063 17.4018 161.596 13.8119C161.848 13.4347 162.191 13.1264 162.592 12.9151C162.994 12.7038 163.442 12.5961 163.895 12.6018C166.285 12.6219 167.404 15.748 164.742 17.8455ZM165.267 15.6875C166.043 13.227 162.564 12.6623 162.11 14.8102C161.747 16.4942 162.826 17.2808 163.956 17.0892C165.085 16.8976 165.115 15.6875 165.267 15.6875Z" fill="#1B1B1D"/>
  <path d="M160.345 20.5305C160.617 21.0246 157.986 23.0414 157.391 26.0968C156.856 28.8901 155.928 26.9641 155.475 27.3473C152.863 29.5758 152.449 35.8783 151.27 33.3977C150.846 32.5103 150.705 32.5204 150.15 32.8935C149.142 33.5792 147.78 36.0699 147.246 37.1893C146.53 38.722 145.955 38.1977 145.925 37.8548C145.895 37.5119 148.749 30.2111 151.552 31.8044C151.996 32.0565 152.56 28.6279 154.577 26.5809C155.586 25.5725 156.17 26.6414 156.362 25.6532C156.695 23.6969 159.337 18.7557 160.345 20.5305Z" fill="#1B1B1D"/>
  <path d="M149.082 163.105C147.912 163.105 147.367 164.204 145.824 163.922C145.693 163.922 112.386 165.94 106.578 162.814C105.398 162.067 105.569 157.206 105.751 155.925C105.841 155.26 105.135 154.423 105.892 153.535C106.093 153.293 106.184 152.527 106.9 152.265C109.109 151.398 108.362 151.6 109.038 150.915C109.865 150.067 110.42 151.045 111.055 150.349C111.922 149.34 112.497 149.915 112.588 149.34C112.69 149.015 112.895 148.732 113.172 148.534C113.535 148.171 114.181 148.735 114.806 148.352C115.431 147.969 115.431 148.705 115.814 148.261C117.609 145.942 118.073 147.194 118.406 146.901C119.414 146.034 120.009 146.9 120.423 146.487C120.836 146.073 122.026 146.688 122.228 146.073C122.442 145.744 122.746 145.485 123.105 145.327C123.428 145.135 123.912 145.6 124.235 145.126C124.627 144.73 125.056 144.372 125.515 144.056C126.294 143.937 127.09 144.038 127.814 144.349C128.53 144.752 128.188 143.946 129.277 144.168C130.154 144.35 130.678 144.52 130.91 144.964C131.687 146.436 133.31 144.964 134.349 146.073C134.692 146.446 135.186 146.205 135.619 146.669C136.053 147.133 137.979 146.255 138.645 147.495C139.109 148.372 140.016 147.495 141.428 148.766C141.841 149.139 141.508 149.542 142.023 149.502C143.457 149.452 144.852 149.971 145.905 150.945C146.298 151.267 145.633 151.357 146.712 151.861C147.216 152.103 147.952 152.014 148.245 152.73C148.416 153.143 148.991 152.557 149.485 153.303C150.048 154.013 150.319 154.912 150.241 155.814C150.029 156.248 150.977 163.135 149.082 163.105ZM148.95 161.34C149.041 159.717 149.223 159.717 149.092 159.324C148.789 158.487 149.233 158.225 148.991 157.489C148.497 155.987 149.495 155.936 148.537 154.202C148.456 154.041 148.406 154.05 148.245 154.1C146.48 154.645 147.982 153.253 146.228 153.021C146.006 153.021 145.845 152.809 145.572 152.809C144.564 152.88 145.018 151.801 144.564 151.619C144.413 151.539 142.84 150.5 142.043 150.762C141.71 150.873 140.863 150.883 140.672 150.561C140.208 149.754 140.672 149.734 140.016 149.371C139.361 149.008 138.231 149.371 137.747 148.534C137.263 147.697 135.851 148.12 135.246 148.09C134.641 148.06 134.934 147.505 134.238 147.475C133.542 147.445 133.613 146.86 132.957 146.85C132.462 146.786 131.96 146.786 131.465 146.85C130.688 147.102 129.539 145.076 128.823 145.409C128.571 145.52 128.036 145.409 127.814 145.409C127.448 145.482 127.071 145.482 126.705 145.409C124.981 145.076 125.152 146.628 124.225 146.708C123.579 146.769 123.357 146.356 123.075 146.971C122.379 148.483 121.461 147.214 121.058 147.657C120.211 148.535 119.586 147.424 119.253 147.989C118.436 149.34 118.124 147.738 117.498 148.202C116.571 148.888 116.591 149.785 115.633 149.715C115.49 149.676 115.345 149.646 115.199 149.623C114.887 149.623 114.695 149.996 114.04 149.734C113.606 149.562 113.697 150.036 113.384 150.591C113.072 151.145 112.487 150.531 111.73 151.469C110.974 152.407 110.157 151.357 109.431 152.245C109.018 152.759 108.655 152.547 108.604 152.829C108.554 153.112 107.979 153.273 107.757 153.313C106.073 153.666 107.203 155.129 106.749 159.626C106.877 160.059 106.949 160.506 106.961 160.957C106.85 162.137 108.978 162.53 109.986 162.46C109.986 162.46 124.658 163.589 135.539 163.155C135.69 163.155 140.198 162.752 140.752 162.893C141.629 163.115 141.629 162.844 142.688 162.783C143.233 162.783 142.688 162.974 143.999 162.712C146.672 162.157 144.635 163.498 148.255 161.915C148.587 161.663 148.89 162.238 148.95 161.34Z" fill="#1B1B1D"/>
  <path d="M144.211 94.4377C143.202 95.2545 143.646 95.3856 142.658 96.2226C132.019 105.197 130.839 105.48 130.94 106.307C131.041 107.134 129.831 108.131 129.75 108.938C129.105 115.553 129.982 125.99 129.982 126.08C129.982 127.936 129.77 127.423 131.061 129.177C131.616 129.933 131.162 130.689 131.011 132.625C131.011 133.058 132.544 134.199 131.747 136.004C131.303 136.468 131.293 137.668 130.628 138.313C129.962 138.959 129.821 138.716 129.76 139.169C129.367 142.195 127.421 142.406 126.513 140.742C126.241 140.309 125.767 140.391 125.414 139.876C124.537 138.575 123.891 138.605 123.861 137.425C124.005 136.683 124.289 135.974 124.698 135.338C124.698 134.441 125.223 134.199 125.152 133.544C125.067 133.21 125.059 132.861 125.129 132.523C125.198 132.186 125.344 131.869 125.555 131.596C125.898 131.082 124.829 131.294 125.132 129.337C125.182 128.89 125.326 128.456 125.555 128.067C125.697 127.855 124.678 127.362 125.818 124.246C126.412 122.623 126.765 108.747 124.9 106.982C124.797 106.847 124.721 106.693 124.678 106.528C124.315 105.651 123.992 106.357 123.307 104.955C122.923 104.179 122.51 104.692 121.512 103.603C120.937 102.988 120.352 103.08 120.029 102.253C119.323 100.498 116.339 100.367 115.996 98.9453C115.885 98.4814 114.917 98.431 114.544 97.231C114.443 96.8781 113.737 96.6461 113.424 96.505C113.112 96.3638 111.307 94.8108 111.206 94.7403C110.45 94.2663 110.349 93.2579 109.935 92.8041C109.522 92.3504 109.451 91.6848 109.3 91.4932C108.443 90.4848 109.028 89.4764 108.292 89.1134C107.757 88.8815 107.666 88.3873 107.586 87.9033C107.394 86.663 106.971 87.1873 106.819 85.8159C106.769 85.4226 107.263 85.2512 106.92 84.8075C106.734 84.5839 106.604 84.3189 106.54 84.0347C106.477 83.7506 106.483 83.4554 106.557 83.1739C106.799 82.6899 105.892 82.3067 106.164 81.2781C106.547 79.826 107.868 80.179 108.181 79.8059C109.061 79.2501 110.096 78.9888 111.135 79.0596C111.569 79.221 111.76 78.9285 112.426 78.9285C114.16 78.9285 114.715 78.0613 115.522 78.6361C116.147 79.0899 116.076 78.3336 117.488 78.4344C118.335 78.4848 118.728 77.9907 119.344 78.0412C120.17 78.1017 119.918 78.3033 120.634 78.2327C121.169 77.9148 121.769 77.7216 122.389 77.6675C123.008 77.6134 123.632 77.6997 124.214 77.9201C125.34 77.8296 126.472 77.8872 127.582 78.0916C128.187 78.0916 127.996 77.4563 130.285 77.426C130.779 77.426 131.626 77.7991 132.019 77.6176C132.715 77.2949 134.5 77.9504 134.742 77.7386C135.367 77.1941 137.636 78.0714 138.06 77.9806C139.673 77.6277 144.302 78.8277 145.058 78.5857C145.814 78.3437 147.801 78.9487 148.89 79.3924C149.777 79.7655 148.859 90.7773 144.211 94.4377ZM148.002 83.1336C148.002 82.7201 147.851 82.3268 147.851 81.9134C147.851 81.0361 148.285 80.2395 146.843 79.8966C146.15 79.679 145.408 79.679 144.715 79.8966C144.11 79.8966 140.681 79.2008 138.775 79.2008C138.15 79.2008 138.029 79.2815 137.696 79.2815C137.102 79.2815 137.172 78.9689 135.912 78.8277C135.428 78.7773 135.206 79.0697 134.671 79.0697C134.137 79.0697 133.33 78.6966 132.654 78.6966C132.291 78.6966 132.07 78.8176 131.757 78.8176C131.233 78.8176 130.749 78.5252 130.083 78.505C128.903 78.505 127.643 79.2916 126.876 79.1101C126.004 78.9385 125.107 78.9385 124.234 79.1101C123.73 79.1101 123.226 78.8277 122.631 78.8277C121.875 78.8277 121.33 79.3218 120.483 79.3218C120.095 79.2931 119.71 79.229 119.334 79.1302C118.95 79.1302 118.92 79.5235 117.892 79.6143C117.68 79.6143 117.478 79.5134 117.266 79.5134C116.853 79.5134 116.52 80.0479 116.016 80.0479C115.512 80.0479 115.229 79.5437 114.745 79.5437C114.38 79.5946 114.019 79.6755 113.666 79.7857C112.141 79.8508 110.625 80.0602 109.139 80.4109C108.675 80.6227 108.765 81.1773 107.787 81.0865C106.497 81.0865 108.191 84.6159 108.191 85.1201C108.191 85.6243 107.949 85.8663 108.06 86.1285C108.171 86.3907 108.937 86.2999 109.068 87.2478C109.068 88.0041 108.302 87.5302 109.481 88.5285C109.905 88.8815 109.925 90.3336 110.137 90.7268C110.349 91.1201 110.54 91.6646 110.671 91.9167C110.802 92.1688 111.055 92.4411 111.206 92.7134C111.71 93.6714 111.155 93.4495 113.555 95.0821C113.757 95.2233 113.828 95.4653 114.039 95.5964C116.349 96.8569 115.199 96.9678 116.167 97.6132C117.67 98.6216 116.772 98.4713 117.327 98.9453C119.031 100.065 119.344 99.5806 120.695 101.295C120.876 101.517 120.967 101.849 121.189 102.031C121.411 102.213 121.643 102.222 121.844 102.383C122.096 102.674 122.372 102.941 122.671 103.18C123.004 103.381 123.528 103.623 123.871 103.865C124.033 103.986 124.265 104.551 124.547 104.874C124.628 104.975 126.675 106.075 127.007 110.078C127.248 111.916 127.346 113.771 127.3 115.624C127.3 116.249 127.199 118.488 127.199 119.426C127.199 120.051 127.451 120.282 127.451 121.301C127.451 124.053 126.443 125.647 126.443 126.574C126.443 127.119 126.886 127.473 126.886 128.017C126.886 128.562 126.271 128.905 126.271 129.742C126.271 130.417 126.816 130.749 126.816 131.364C126.816 131.979 126.211 132.373 126.211 132.917C126.211 133.159 126.342 133.401 126.342 133.643C126.271 134.884 125.888 134.652 125.888 135.66C125.888 136.537 125.142 136.296 125.142 137.335C125.142 138.101 125.626 137.939 125.918 138.191C126.211 138.443 126.181 138.897 126.463 139.2C126.745 139.502 127.118 139.372 127.33 139.614C127.542 139.856 127.733 141.228 128.399 140.017C128.732 139.402 128.5 138.202 129.024 137.849C129.266 137.698 129.549 137.728 129.75 137.496C130.194 137.022 130.224 136.255 130.446 135.69C130.547 135.458 130.759 135.5 130.759 135.056C130.716 134.505 130.48 133.987 130.093 133.593C129.599 132.675 130.204 130.569 130.204 130.216C130.204 129.429 128.933 129.408 128.933 126.564C128.933 126.101 128.57 126.565 128.57 117.318C128.57 116.975 128.732 114.746 128.732 114.211C128.732 113.677 128.591 111.893 128.611 111.359C128.833 106.256 129.085 108.112 129.851 106.488C132.715 100.438 147.629 94.5376 147.518 85.4932C147.498 84.6663 148.244 83.1336 148.002 83.1336Z" fill="#1B1B1D"/>
  <path d="M144.685 154.233C146.097 153.749 146.621 155.241 144.685 155.564C144.352 155.625 144.221 155.504 144.211 155.625C141.852 155.191 142.85 155.786 140.641 156.492C140.127 156.23 137.969 157.087 137.213 156.825C137.023 156.721 136.814 156.659 136.598 156.642C136.383 156.624 136.166 156.652 135.962 156.724C135.357 156.835 135.115 156.593 134.621 156.794C134.459 156.835 134.29 156.835 134.127 156.794C133.587 156.75 133.044 156.805 132.524 156.956C131.858 156.835 131.868 157.762 131.193 157.49C130.517 157.218 130.426 156.663 129.69 156.825C127.673 157.268 127.885 157.833 126.826 156.986C125.616 155.978 125.394 157.994 124.537 157.49C123.68 156.986 121.926 157.954 121.563 157.43C121.048 156.673 121.068 157.309 120.685 157.097C120.494 156.996 120.413 157.783 119.768 157.682C118.9 157.399 119.707 156.542 118.83 156.845C117.68 157.238 117.458 156.341 116.319 156.24C115.805 156.189 115.875 155.766 115.048 156.32C114.594 156.623 114.635 157.611 112.235 156.129C111.6 155.725 111.65 156.351 111.176 156.351C110.168 156.351 110.662 155.695 109.905 155.504C109.695 155.477 109.495 155.393 109.328 155.262C109.161 155.13 109.033 154.956 108.958 154.757C108.847 154.566 109.068 154.425 109.109 154.253C109.179 153.92 110.309 154.455 111.126 154.757C111.509 154.899 111.64 154.294 112.447 154.838C112.699 155.009 112.931 155.252 113.314 155.171C113.697 155.09 113.899 155.806 114.242 155.423C115.542 153.991 117.862 155.423 117.963 155.534C118.225 155.786 118.477 155.534 118.739 155.534C119.354 155.05 119.606 155.846 120.373 155.796C121.714 155.725 121.381 155.302 122.238 155.907C122.853 156.371 123.61 155.746 124.507 156.088C124.85 156.22 125.394 154.818 126.947 155.574C128.268 156.22 129.751 154.909 130.92 155.766C131.475 156.179 131.273 155.514 132.06 155.615C132.201 155.615 135.841 155.352 136.87 155.463C139.018 155.685 137.304 155.463 140.551 155.131C140.994 155.131 141.559 154.606 142.073 154.354C143.394 153.769 143.788 154.546 144.685 154.233Z" fill="#1B1B1D"/>
  <path d="M144.453 82.5473C144.685 82.6683 144.393 83.3843 143.939 83.475C143.485 83.5658 143.303 83.5456 142.84 83.5859C140.137 82.6784 141.266 83.475 140.137 82.628C139.401 82.0935 139.29 82.87 138.372 82.7187C137.455 82.5675 138.735 80.7523 140.198 81.4078C140.782 81.6599 140.833 81.8515 141.337 81.8918C142.214 81.8918 142.648 82.5574 143.556 82.2246C143.979 82.0733 144.211 82.4061 144.453 82.5473Z" fill="#1B1B1D"/>
  <path d="M138.614 85.8635C140.54 85.7123 140.631 87.0434 139.492 87.114C139.492 87.2148 137.818 87.114 138.221 86.1862C138.247 86.0995 138.298 86.0225 138.368 85.9651C138.439 85.9076 138.524 85.8723 138.614 85.8635Z" fill="#1B1B1D"/>
  <path d="M134.207 84.4028C133.713 84.4028 133.43 84.0397 133.007 84.2011C132.583 84.3624 131.434 83.9792 133.138 82.9406C133.803 82.5372 133.823 83.2129 134.58 82.9406C135.689 82.7893 135.881 84.2818 134.207 84.4028Z" fill="#1B1B1D"/>
  <path d="M133.471 5.14109C136.496 5.94781 130.728 10.3949 130.94 10.8789C131.433 12.0244 131.727 13.2456 131.807 14.489C131.918 17.8268 126.342 12.8957 125.404 13.6621C124.173 14.5761 122.835 15.338 121.421 15.931C120.574 16.2032 119.959 15.1041 120.039 14.6705C120.554 7.76293 122.893 12.1696 118.365 8.12595C117.165 7.05705 117.357 5.65537 119.686 5.44361C120.724 5.32469 121.769 5.28088 122.812 5.31251C123.901 5.6352 124.466 -0.899232 126.755 0.865469C127.854 1.71252 128.54 5.04025 129.054 5.03016C131.575 4.96966 132.402 4.82848 133.471 5.14109ZM130.446 9.7999C134.752 5.35285 134.036 5.90747 128.661 5.92764C127.905 5.92764 127.552 3.77975 126.251 1.68227C125.828 0.986476 125.243 3.02345 124.708 4.35453C123.7 6.91587 124.164 6.20999 121.602 6.29066C117.397 6.42175 118.083 6.8352 121.713 9.43687C123.508 10.7175 118.204 16.9696 123.165 14.015C126.523 11.9982 124.688 11.6352 129.559 14.3377C130.698 14.973 131.212 14.3377 130.779 13.41C130.416 12.694 130.325 11.8873 130.012 11.1713C129.841 10.7982 129.831 10.3949 130.426 9.76964L130.446 9.7999Z" fill="#1B1B1D"/>
  <path d="M131.464 86.4098C131.212 86.8736 130.91 86.793 129.79 86.9039C128.782 86.7728 128.681 87.6703 127.995 87.1156C126.412 85.8148 132.402 84.6047 131.464 86.4098Z" fill="#1B1B1D"/>
  <path d="M129.225 81.0834C129.376 80.9926 130.526 81.3758 129.487 82.1826C128.54 82.7977 127.34 81.9405 127.531 81.5573C128.076 80.5389 128.479 81.5271 129.225 81.0834Z" fill="#1B1B1D"/>
  <path d="M127.441 23.0908C129.055 23.363 126.362 27.8202 125.424 30.7143C124.537 33.2958 127.885 31.0874 126.524 35.8874C126.392 36.3714 125.515 36.3916 125.566 35.7462C125.616 35.1008 126.171 33.7798 125.374 33.1849C124.779 32.7412 123.882 32.6202 124.154 31.5109C124.809 28.7782 126.312 26.2067 126.897 24.5731C127.26 23.5647 125.989 24.4219 124.88 23.8874C122.863 22.879 124.446 17.4437 125.092 17.6051C125.999 17.837 124.739 19.5412 124.819 21.7799C124.88 23.6051 126.06 22.8588 127.441 23.0908Z" fill="#1B1B1D"/>
  <path d="M122.601 84.6662C121.462 84.2225 121.068 84.3234 120.978 83.7183C120.816 82.599 120.211 84.3637 119.213 83.9301C118.215 83.4965 117.912 83.7687 117.69 83.9301C117.075 84.3233 115.986 82.5183 118.699 82.4981C119.052 82.4981 119.374 82.9519 119.778 82.4981C120.564 81.8225 120.615 81.9637 121.875 82.6192C122.167 82.7704 121.956 83.325 122.722 83.4057C123.841 83.4965 123.509 85.0191 122.601 84.6662Z" fill="#1B1B1D"/>
  <path d="M118.445 87.0301C118.526 87.1712 118.365 87.2317 118.324 87.3326C118.173 87.6956 118.213 87.6452 115.602 88.0485C115.097 87.7359 114.896 87.5443 114.654 87.7359C114.25 88.0485 113.464 87.02 114.654 86.4754C115.471 86.1124 115.41 87.1208 116.782 86.5763C117.467 86.3141 118.183 86.3544 118.445 87.0301Z" fill="#1B1B1D"/>
  <path d="M112.417 83.5765C111.781 83.2236 111.852 84.1816 110.954 84.111C109.149 83.9597 110.127 82.9614 110.662 82.8807C111.196 82.8001 111.096 82.0841 112.114 82.2152C114.302 82.316 113.284 83.99 112.417 83.5765Z" fill="#1B1B1D"/>
  <path d="M105.74 38.5603C104.933 38.8224 101.626 30.9468 100.607 34.3351C100.558 34.4477 100.476 34.5426 100.371 34.6069C100.266 34.6713 100.144 34.7021 100.022 34.6951C99.8991 34.6885 99.7816 34.6448 99.6845 34.5699C99.5875 34.495 99.5154 34.3923 99.478 34.2756C99.0545 32.9546 96.8461 27.8621 95.6562 28.5579C93.831 29.6168 94.8394 27.2067 92.7419 24.5243C90.7957 22.0235 90.7251 22.2353 91.0175 21.7815C92.0259 20.4504 94.8495 25.3411 95.2125 27.0252C95.4041 27.8621 97.1083 25.4016 99.9419 32.4504C100.295 33.3378 100.769 31.6336 102.322 32.7731C103.421 33.5394 107.041 38.1267 105.74 38.5603Z" fill="#1B1B1D"/>
  <path d="M95.2239 141.517C95.6273 142.323 94.2155 142.384 89.355 142.334C83.9298 142.273 83.8593 142.535 80.5517 142.555C78.3635 142.555 78.787 142.172 78.8979 144.572C79.0593 148.394 79.4324 149.876 78.3534 149.745C77.7786 149.675 77.9198 148.586 77.9399 148.092C77.9601 147.597 77.8794 148.475 77.7685 144.986C77.6979 142.525 77.7685 142.607 77.3551 142.617C66.0206 142.869 73.382 142.424 63.2375 142.969C61.6845 143.05 61.9971 142.708 62.098 144.886C62.2492 148.435 62.4106 150.018 62.098 150.229C61.7854 150.441 61.3013 150.532 61.0896 149.997C60.8778 149.463 61.0896 143.101 60.5753 143.131L45.3182 143.846C44.7938 143.846 45.5199 150.31 45.3182 151.248C45.1165 152.186 44.3098 151.994 44.2392 151.419C44.1686 151.016 43.9367 144.098 43.9266 144.078C43.9165 144.058 35.214 144.229 33.8426 144.28C27.9939 144.502 26.6224 144.916 26.7838 143.918C26.9956 142.748 39.2779 143.473 43.2812 142.848C43.8661 142.757 43.9367 142.99 43.9064 142.153C43.5031 133.077 43.6644 133.682 43.3518 133.722C43.251 133.722 27.893 134.458 26.9451 134.206C26.6224 134.125 26.4308 133.4 26.9451 133.319C28.6392 133.037 40.4375 132.794 41.1938 132.713C44.2997 132.391 43.3518 133.631 43.4022 129.214C43.4022 127.893 43.2308 128.409 43.2005 124.506C43.2005 124.072 43.2005 124.031 42.7871 124.112C42.6056 124.112 27.0056 124.889 26.7334 124.758C22.4578 123.004 41.2039 123.336 42.8678 122.993C43.2308 122.923 43.019 123.125 43.0291 117.407C43.0291 114.946 43.1703 115.138 42.7266 115.168C34.2157 115.168 24.8376 116.72 26.2897 114.835C26.7233 114.35 41.8291 114.401 42.8678 113.826C43.0896 113.645 42.777 107.846 42.7165 107.221C42.5753 105.87 42.7871 106.626 38.1283 106.626C29.5468 106.626 25.7754 107.745 25.6443 106.414C25.5132 105.245 42.7871 105.901 42.7165 105.084C42.3434 101.726 43.2308 101.715 43.7249 102.512C43.7249 102.613 43.8358 105.093 43.7955 105.184C43.8459 105.083 55.5232 104.811 59.3249 104.508C59.7988 104.508 59.5366 104.256 59.5366 103.218C59.5247 102.615 59.5517 102.012 59.6173 101.413C60.1417 100.707 60.6761 101.514 60.6257 101.635C60.5823 102.399 60.6096 103.165 60.7064 103.924C60.7064 104.932 60.7064 104.035 69.1064 104.004C75.6005 104.004 76.1652 104.005 76.2559 103.804C76.5282 103.259 75.8223 99.3757 77.2038 100.687C77.5265 101.05 77.2038 103.914 77.587 103.893C81.6206 103.682 94.0945 103.218 94.0038 103.893C93.8323 105.265 92.9147 104.105 77.6677 104.972C77.2744 104.972 77.4055 105.658 77.4156 105.688C77.5668 106.031 77.5467 109.52 77.7181 112.041C77.7181 112.505 93.1769 112.203 93.2777 112.192C93.9937 112.122 93.7819 113.051 93.671 113.121C92.9349 113.555 77.8089 113.181 77.8089 114.018C77.8089 122.004 77.7584 121.461 78.0408 121.441C78.666 121.39 94.034 120.834 94.3769 121.369C95.1231 123.255 87.8727 121.742 78.3131 122.589C77.8089 122.64 78.0105 122.821 77.9803 123.033C77.8895 123.618 78.1215 127.066 78.1215 127.066C78.4744 130.555 77.8996 131.1 78.4946 131.1C79.4021 131.019 92.7332 130.687 92.834 130.687C93.4088 130.687 95.3953 130.404 95.0424 131.513C94.8912 131.987 80.0878 132.058 78.5853 132.27C78.1517 132.34 78.2525 132.27 78.5853 139.782C78.6962 141.95 78.1013 141.305 83.1332 141.214C94.8004 141.063 94.9113 140.892 95.2239 141.517ZM75.0559 141.577C78.2525 141.577 77.6878 141.497 77.6878 140.972C77.6878 140.448 77.4559 136.646 77.3652 132.683C77.3652 132.502 61.6946 132.159 61.6744 133.268C61.6744 133.369 61.977 141.678 62.0778 141.779C62.1786 141.88 75.0257 141.406 75.0257 141.577H75.0559ZM77.0727 131.293C77.4559 131.293 77.2542 131.292 76.9719 123.315C76.9719 122.992 77.0223 122.599 76.4979 122.851C76.3971 122.902 65.819 122.852 61.866 123.215C60.8576 123.316 61.624 123.729 61.6543 131.453C61.6543 131.705 61.3114 131.836 64.8106 131.453C66.7064 131.312 76.9921 131.393 77.0425 131.293H77.0727ZM74.7131 121.723C77.6475 121.662 76.871 123.114 76.871 114.14C76.871 113.797 76.6996 113.776 76.2055 113.806C70.6895 114.038 61.2005 113.615 61.2308 114.674C61.5938 124.325 59.2139 121.884 66.9786 121.733C70.1148 121.723 67.9366 121.854 74.6828 121.723H74.7131ZM76.5383 112.647C76.75 112.647 76.7803 105.074 76.3063 105.084C66.6358 105.397 72.0711 104.872 62.4408 105.477C59.9803 105.638 61.0291 105.063 61.0291 110.145C61.0291 110.145 61.0291 109.934 61.1602 112.757C61.1602 113.695 61.1602 112.505 73.261 112.757C73.4021 112.727 76.4576 112.777 76.508 112.677L76.5383 112.647ZM57.3787 142.213C61.7854 141.991 60.9585 142.455 60.8576 139.974C60.5249 132.552 60.7871 132.915 60.2324 132.915C51.9232 133.52 53.4358 133.017 45.1064 133.582C44.8039 133.582 44.7535 133.127 45.2174 142.061C45.2678 143.07 45.0661 142.606 48.0308 142.576C48.0207 142.646 56.5417 142.283 57.3383 142.283L57.3787 142.213ZM60.2627 131.856C60.8173 131.856 60.3938 127.702 60.3333 126.623C60.1316 122.589 60.6963 123.295 58.8509 123.376C58.7501 123.376 49.6039 123.719 48.9484 123.799C42.5249 124.535 44.9148 121.863 44.814 132.401C44.7636 132.633 60.2223 131.786 60.2223 131.887L60.2627 131.856ZM60.1215 122.055V116.004C60.1215 113.887 60.5652 114.391 58.1551 114.482C53.0526 114.663 43.7653 115.016 44.6627 115.016C44.3098 115.016 44.4409 114.663 44.4409 121.843C44.4409 122.72 44.4409 122.962 44.6224 122.942L60.1215 122.055ZM59.8997 108.331C59.3753 105.094 60.7064 105.739 58.1854 105.779C58.1854 105.779 45.3888 106.143 44.33 106.335C43.9871 106.395 43.9165 106.273 44.0678 108.824C44.3703 113.866 44.0678 113.937 44.5821 113.866C49.0896 113.574 59.9501 113.433 59.9602 113.009C59.9198 113.191 59.7383 108.704 59.8593 108.362L59.8997 108.331Z" fill="#1B1B1D"/>
  <path d="M94.7997 144.113C95.5862 145.999 91.9358 146.13 92.9543 144.113C93.0332 143.934 93.1624 143.782 93.3263 143.675C93.4901 143.569 93.6814 143.512 93.877 143.512C94.0726 143.512 94.2639 143.569 94.4277 143.675C94.5915 143.782 94.7208 143.934 94.7997 144.113Z" fill="#1B1B1D"/>
  <path d="M93.3079 134.912C91.997 134.912 91.8054 132.34 93.7617 132.895C94.6995 133.207 94.4373 134.881 93.3079 134.912Z" fill="#1B1B1D"/>
  <path d="M92.1072 123.99C92.4602 122.588 94.84 123.656 93.8921 125.159C93.4585 125.844 91.6333 125.845 92.1072 123.99Z" fill="#1B1B1D"/>
  <path d="M93.6502 115.49C93.6145 115.757 93.4792 116 93.2714 116.171C93.0635 116.342 92.7986 116.429 92.5299 116.412C92.2611 116.398 92.0079 116.282 91.8209 116.088C91.6339 115.895 91.5269 115.638 91.5215 115.369C91.6627 113.705 93.6401 114.138 93.6502 115.49Z" fill="#1B1B1D"/>
  <path d="M93.1056 105.762C94.2753 108.091 90.0804 108.051 91.2501 105.762C91.4821 105.308 92.8434 105.237 93.1056 105.762Z" fill="#1B1B1D"/>
  <path d="M92.2885 100.529C91.2801 100.529 90.3826 102.121 89.707 102.121C89.2733 102.121 89.0717 101.436 88.6078 101.436C87.9725 101.436 87.5994 102.444 87.2868 102.444C86.3792 102.363 87.0448 101.437 86.2784 101.255C85.3204 101.003 84.433 102.464 83.6767 102.464C82.386 102.464 83.8885 100.812 83.0515 100.812C81.2868 101.094 80.5103 102.071 80.3389 101.385C80.0465 100.266 83.9389 98.9652 84.3725 100.377C84.5843 101.093 85.0683 100.105 85.9557 100.115C86.8431 100.125 87.2767 100.649 87.5187 100.649C87.7607 100.649 87.9423 100.267 88.5271 100.267C89.7977 100.267 89.1725 101.163 90.5439 100.105C92.9742 98.1282 93.67 100.529 92.2885 100.529Z" fill="#1B1B1D"/>
  <path d="M91.25 51.0326C91.492 51.1233 92.4701 51.3956 92.3088 51.8595C91.7743 53.4124 83.9491 48.2595 84.171 49.8427C84.7659 54.0981 78.2618 51.9906 77.9391 51.5368C76.85 49.9939 83.687 52.8174 83.092 50.3872C82.134 46.4847 87.2164 49.5099 91.25 51.0326Z" fill="#1B1B1D"/>
  <path d="M88.0643 19.4427C87.479 19.6293 86.8472 19.607 86.2766 19.3795C85.706 19.1521 85.232 18.7336 84.9356 18.1956C84.6392 17.6576 84.5388 17.0334 84.6514 16.4295C84.7641 15.8257 85.0829 15.2797 85.5533 14.8847C88.8306 11.7284 91.6037 18.6662 88.0643 19.4427ZM88.8508 16.5183C88.8112 16.1949 88.6785 15.8899 88.469 15.6404C88.2594 15.3908 87.982 15.2074 87.6703 15.1124C87.3586 15.0174 87.026 15.0149 86.7129 15.1051C86.3998 15.1954 86.1196 15.3745 85.9063 15.6208C83.708 18.3536 89.2743 20.4107 88.8508 16.5183Z" fill="#1B1B1D"/>
  <path d="M77.0924 144.121C77.5159 146.753 73.9764 145.259 75.4588 143.727C75.5953 143.575 75.7783 143.473 75.9791 143.437C76.1798 143.4 76.387 143.432 76.568 143.526C76.6487 143.818 77.0419 143.808 77.0924 144.121Z" fill="#1B1B1D"/>
  <path d="M75.3384 135.042C74.8141 134.79 74.9552 133.026 76.1048 133.147C77.5065 133.116 77.325 135.678 75.3384 135.042Z" fill="#1B1B1D"/>
  <path d="M75.7912 44.286C78.3122 44.4675 75.4484 47.6036 73.9459 49.6305C73.3408 50.4372 76.7895 54.8742 74.5509 55.6809C73.7744 55.9532 70.5173 54.1784 69.8719 53.8456C69.2265 53.5129 64.124 61.7313 65.2434 51.2641C65.3745 50.1045 61.3711 49.086 61.3005 47.5633C61.2501 46.2524 63.882 46.0608 65.6064 45.5465C67.6232 44.9616 65.1627 35.0692 71.7375 44.2457C72.1812 44.8709 73.1795 44.0944 75.7912 44.286ZM75.7912 45.2944C75.9022 44.891 74.682 44.9213 74.4702 45.0625C71.445 45.0625 72.0501 46.0709 70.9307 44.4978C66.6551 38.4474 67.9055 42.3196 66.9576 45.7683C66.7761 46.4238 65.556 46.2423 63.2165 46.8877C61.1089 47.4725 62.5106 48.007 64.7089 49.2978C67.4417 50.9011 65.7879 50.5179 65.8787 54.3398C65.9392 56.8204 66.8871 55.2876 69.2165 53.1196C70.7089 51.7582 76.124 57.6675 74.0064 52.6961C72.998 50.3263 72.4333 50.0036 73.0685 49.086C73.7038 48.1683 75.7912 46.2524 75.7912 45.3448V45.2944Z" fill="#1B1B1D"/>
  <path d="M76.507 124.869C76.6986 125.877 74.4902 126.311 74.6718 124.677C74.7928 123.255 76.5171 123.659 76.507 124.869Z" fill="#1B1B1D"/>
  <path d="M75.5705 114.887C76.7301 115.28 76.1856 116.45 75.5705 116.662C73.715 117.247 73.9369 114.332 75.5705 114.887Z" fill="#1B1B1D"/>
  <path d="M75.5697 107.563C75.4704 107.678 75.3465 107.77 75.2071 107.83C75.0677 107.891 74.9165 107.919 74.7646 107.913C74.6127 107.908 74.4641 107.868 74.3297 107.797C74.1954 107.725 74.0788 107.625 73.9886 107.503C73.868 107.338 73.8002 107.141 73.7939 106.937C74.2881 105.132 76.4269 106.222 75.5697 107.563Z" fill="#1B1B1D"/>
  <path d="M74.6318 101.08C74.3394 101.21 74.0731 101.391 73.8452 101.614C73.6032 101.866 73.4318 102.311 73.0789 102.311C72.7259 102.311 72.5142 102.018 72.3427 102.018C71.5562 102.21 71.7276 102.775 71.1427 102.775C70.2755 102.775 70.8503 101.826 70.4469 101.826C70.0436 101.826 69.5797 102.602 69.0654 102.602C68.5511 102.602 68.3293 102.169 67.9058 102.169C67.2604 102.169 67.0285 103.037 66.3629 103.037C65.1629 103.037 66.8873 100.555 64.5982 102.118C61.9159 103.954 64.8201 99.0124 66.615 100.858C66.736 100.979 66.8066 101.242 67.0184 101.242C67.2301 101.242 67.4923 100.98 67.8755 100.98C68.2587 100.98 68.531 101.313 68.8839 101.313C69.2368 101.313 69.8116 100.516 70.4873 100.516C70.931 100.516 71.2536 100.908 71.5461 100.908C71.8385 100.908 71.8688 100.748 72.131 100.748C72.6049 100.748 72.6452 100.98 73.1394 100.556C74.4704 99.3361 75.3881 100.424 74.6318 101.08Z" fill="#1B1B1D"/>
  <path d="M58.7393 145.451C58.7393 143.333 61.4519 144.594 60.1611 146.096C60.0399 146.213 59.8865 146.291 59.7207 146.319C59.5549 146.348 59.3843 146.326 59.2311 146.256C59.0779 146.187 58.9491 146.073 58.8614 145.929C58.7737 145.786 58.7312 145.619 58.7393 145.451Z" fill="#1B1B1D"/>
  <path d="M59.5665 125.393C59.5419 125.618 59.4351 125.827 59.2666 125.978C59.098 126.13 58.8795 126.214 58.6529 126.214C58.4263 126.214 58.2078 126.13 58.0394 125.978C57.8709 125.827 57.7644 125.618 57.7403 125.393C57.7302 124.254 59.5967 124.193 59.5665 125.393Z" fill="#1B1B1D"/>
  <path d="M57.2773 116.367C57.2773 114.925 59.2941 115.438 59.1933 116.255C59.032 117.707 57.2874 117.879 57.2773 116.367Z" fill="#1B1B1D"/>
  <path d="M58.9718 134.332C60.8474 134.332 59.4054 137.487 58.2054 135.672C58.0928 135.467 58.064 135.226 58.1252 135.001C58.1863 134.775 58.3325 134.581 58.5331 134.461C58.6656 134.382 58.8173 134.337 58.9718 134.332Z" fill="#1B1B1D"/>
  <path d="M58.8508 106.992C59.4961 109.009 56.5718 108.787 57.3281 106.901C57.5398 106.387 58.6592 106.457 58.8508 106.992Z" fill="#1B1B1D"/>
  <path d="M57.7716 101.122C57.7111 101.859 57.338 101.638 56.5514 102.475C56.2287 102.818 55.7346 103.482 55.3212 102.837C54.3934 101.385 53.0724 103.623 52.6792 103.633C51.6708 103.633 52.5985 102.08 51.6708 102.08C50.743 102.08 49.5329 104.865 49.0792 102.545C48.8371 101.295 47.5968 103.493 46.4674 103.493C46.8506 103.493 45.459 103.281 47.9094 101.476C49.2506 100.468 49.8254 101.708 50.1077 101.708C50.6422 101.708 51.1161 100.246 52.6489 101.315C52.8102 101.426 52.9716 101.667 53.1834 101.667C53.3951 101.667 53.7985 101.244 54.5649 101.244C55.0691 101.244 55.3615 101.446 55.6842 101.446C56.0069 101.446 56.4909 100.709 57.217 100.648C57.3178 100.709 57.7716 101.001 57.7716 101.122Z" fill="#1B1B1D"/>
  <path d="M42.8379 145.186C44.3908 146.194 41.9706 148.403 41.416 146.003C41.5572 145.004 42.3639 144.793 42.8379 145.186Z" fill="#1B1B1D"/>
  <path d="M41.3552 125.573C42.0611 124.211 44.3804 126.843 42.0107 127.035C41.214 127.156 41.1636 126.006 41.3552 125.573Z" fill="#1B1B1D"/>
  <path d="M42.2323 134.832C43.6239 134.943 43.7045 136.849 41.9298 136.748C41.7335 136.613 41.5822 136.422 41.4956 136.199C41.4089 135.977 41.3909 135.734 41.4437 135.502C41.479 135.347 41.5446 135.202 41.6363 135.074C41.7472 134.923 42.0306 134.903 42.2323 134.832Z" fill="#1B1B1D"/>
  <path d="M41.5164 116.278C44.1786 116.358 41.0122 119.808 40.75 117.156C40.7803 116.581 40.9113 116.267 41.5164 116.278Z" fill="#1B1B1D"/>
  <path d="M40.6385 108.837C40.2956 108.444 40.225 107.022 41.4956 107.355C43.3712 107.829 41.6569 110.017 40.6385 108.837Z" fill="#1B1B1D"/>
  <path d="M39.2673 102.414C38.2589 102.414 37.7648 103.513 37.2505 103.634C37.1396 103.957 36.2421 103.635 36.3026 103C36.3631 102.364 36.5144 101.991 35.8892 102.213C35.6573 102.334 34.548 103.372 34.4068 103.452C33.9531 103.715 33.7211 103.19 33.3984 103.19C33.2976 103.19 31.6136 104.723 31.6136 103.089C31.6136 102.01 32.1178 101.496 29.6875 103.704C29.0018 104.33 27.943 103.584 30.0203 102.031C31.3111 101.023 32.2892 100.579 32.7026 102.263C33.9026 101.033 33.59 101.909 34.3665 101.909C34.5581 101.909 36.6556 99.7928 37.2707 101.547C37.785 102.747 37.6035 101.375 39.0354 101.365C40.1749 101.355 40.1043 102.414 39.2673 102.414Z" fill="#1B1B1D"/>
</svg>
