<svg width="237" height="195" viewBox="0 0 237 195" fill="none" xmlns="http://www.w3.org/2000/svg">
  <path d="M131.123 84.3438C138.635 84.3438 139.052 80.1997 141 73.8685C138.774 61.6666 127.088 62.3573 124.306 69.3792C121.524 76.401 122.915 83.9984 131.123 84.3438Z" fill="#FDE6B9"/>
  <path d="M115.5 78.8437C123.5 66.3438 108 59.3436 110.5 74.8439C109.5 82.3436 109 85.344 115.5 78.8437Z" fill="#FDE6B9"/>
  <path d="M77.7954 158.579L81.6467 170.099L86.6829 167.504L81.4571 156.616C81.4571 156.616 78.0443 158.389 77.7954 158.579Z" fill="#AA3CC5"/>
  <path d="M102.728 125.902C109.193 124.069 115.448 121.561 121.392 118.417L150.803 123.058C150.803 123.058 156.183 126.188 156.835 126.283C158.676 126.133 160.519 126.547 162.12 127.473C164.289 128.984 168.626 128.984 169.751 129.175C171.377 129.703 172.93 130.434 174.373 131.352C175.499 132.019 180.499 133.625 181.353 134.196C182.206 134.768 184.173 135.386 184.647 137.766C185.309 140.691 185.706 143.671 185.832 146.668C185.737 148.845 185.18 154.712 184.327 156.985C183.474 159.258 179.8 171.086 179.587 172.455C179.374 173.823 178.935 183.058 178.402 184.962C177.869 186.866 175.297 196.862 174.847 198.682C174.397 200.503 170.984 209.571 170.415 211.177C169.846 212.784 168.993 215.723 169.23 216.949C169.572 218.277 169.668 219.656 169.514 221.019C169.325 222.542 170.557 230.015 170.178 230.539C169.799 231.062 156.598 231.669 151.988 230.253C147.379 228.837 128.987 230.824 121.534 230.444C114.08 230.063 94.3854 229.872 91.5651 229.254C88.7448 228.635 85.2491 228.504 86.9436 226.612C88.6382 224.72 88.8278 222.066 88.9226 219.472C89.1707 217.127 89.6429 214.812 90.3327 212.558L84.4077 171.8L93.1056 153.95L102.728 125.902Z" fill="url(#paint0_linear_3901_17182)"/>
  <path d="M184.552 114.24C186.033 115.287 185.844 115.061 184.552 115.228C183.26 115.394 182.585 115.442 182.431 116.287C182.304 116.975 182.11 117.649 181.85 118.298C181.79 118.253 181.734 118.201 181.684 118.143C179.314 114.645 181.151 115.549 176.802 115.192C175.937 115.192 178.319 114.383 179.018 112.812C179.279 112.229 178.058 110.051 178.745 110.432C180.831 111.539 180.156 111.134 180.416 111.289C181.198 111.777 183.521 109.861 184.41 109.599C184.682 111.527 182.49 112.717 184.552 114.24Z" fill="#AA3CC5"/>
  <path d="M202.09 77.35C202.671 77.5642 200.905 78.0759 200.182 78.6233C198.997 79.5039 200.111 80.2417 200.016 81.4793C199.092 81.0866 198.049 79.0993 196.675 79.0993C194.198 79.9323 194.044 80.2893 193.605 80.2893C193.748 79.3968 195.833 77.588 194.648 76.6241C194.186 76.2671 193.037 74.5654 193.617 74.6963C195.916 75.2318 195.904 75.3389 196.343 75.0295C198.654 73.4349 198.713 70.9835 199.139 74.3393C199.507 77.35 198.76 76.16 202.09 77.35Z" fill="#C875DD"/>
  <path d="M199.21 38.1513C199.151 38.2346 199.104 38.3417 199.021 38.3774C196.035 39.9244 195.833 39.734 196.011 40.7574C196.461 43.5777 196.355 43.1374 196.283 43.6253C193.12 40.7455 194.376 41.1144 193.913 41.0311C193.037 40.9002 191.401 41.8879 189.825 42.2211C189.28 42.2211 189.493 42.1021 190.856 39.8411C192.361 37.3778 185.038 34.4623 191.389 36.2711C192.574 36.6162 192.361 36.4496 194.518 33.5341C195.205 32.594 194.767 36.8423 196.366 36.9851C196.923 36.9851 197.694 37.6515 198.962 37.9371C199.055 37.9955 199.138 38.0678 199.21 38.1513Z" fill="#AA3CC5"/>
  <path d="M76.6341 89.964C82.6539 88.6074 76.6341 90.5114 77.9731 92.7724C79.0752 94.724 79.5255 94.5455 77.3806 94.0695C74.8921 93.5102 76.0179 93.3436 73.4346 95.9735C73.1265 96.2948 73.4938 94.9858 73.5886 93.7482C73.6953 92.2726 70.8513 91.7966 70.4365 91.0231C70.638 91.0231 70.2825 91.0231 72.1074 90.8446C74.3589 90.6542 73.2924 89.3809 74.2759 87.3579C75.0817 88.06 75.9112 90.1187 76.6341 89.964Z" fill="#C875DD"/>
  <path d="M88.7448 63.2127C89.0411 63.7125 87.5598 63.2127 85.4624 62.4273C84.2774 61.987 84.5499 61.0945 81.7533 65.0215C80.675 66.5566 82.251 61.6419 80.4617 60.9755C76.409 59.4523 76.409 59.7855 80.8646 58.1671C81.8363 57.8101 81.3741 55.68 82.0496 53.8474C86.28 57.822 82.7132 57.4888 88.8988 56.0608C87.9864 58.5122 86.0904 59.2143 87.1806 60.4876C87.7859 61.3448 88.3096 62.2571 88.7448 63.2127Z" fill="#AA3CC5"/>
  <path d="M121.06 133.054C121.617 135.696 122.162 136.005 121.545 135.91C116.177 135.065 110.94 129.734 109.861 125.259C109.66 124.414 109.518 124.498 110.418 124.188C113.061 123.248 114.424 122.237 114.092 122.832C113.428 124.022 113.902 125.557 113.819 126.104C113.511 128.163 114.933 129.9 116.983 130.995C117.256 131.138 117.161 131.114 118.974 131.233C120.159 130.947 120.313 130.828 120.455 131.233C120.721 131.816 120.923 132.427 121.06 133.054Z" fill="#FDE6B9"/>
  <path d="M163.293 42.4591C166.54 43.8276 167.453 44.0418 165.26 44.5892C163.886 44.256 163.72 44.2322 162.89 42.5424C162.807 42.3282 163.068 42.3639 163.293 42.4591Z" fill="#B5B6BA"/>
  <path d="M169.787 41.9357C169.988 41.9357 169.977 42.0785 169.894 42.1856C169.408 42.8401 168.851 43.804 167.938 43.2209C165.568 41.6858 160.947 40.9837 162.215 38.9964C162.736 38.1872 162.31 39.1154 165.011 40.2816C167.938 41.543 168.993 42.0309 169.787 41.9357Z" fill="#B5B6BA"/>
  <path d="M170.759 39.3653C171.482 39.4367 170.593 40.7338 169.443 40.71C167.536 40.0436 161.788 37.9254 163.376 36.664C163.566 36.5212 163.471 36.1166 163.743 36.1404C164.217 36.1404 163.589 36.6402 166.73 37.9016C169.87 39.163 170.143 39.2701 170.759 39.3653Z" fill="#B5B6BA"/>
  <path d="M164.822 33.5938C171.102 38.3537 173.591 35.9023 171.695 38.1157C171.339 38.5322 169.965 37.8301 169.443 37.6397C166.907 36.6996 162.677 35.343 164.822 33.5938Z" fill="#B5B6BA"/>
  <path d="M181.435 25.1328C181.803 25.2399 181.53 26.1086 181.198 25.9301C179.942 25.2875 180.997 24.99 181.435 25.1328Z" fill="#FFF2B7"/>
  <path d="M168.91 21.8723C168.258 22.4078 167.962 21.3725 168.388 21.2535C168.531 21.2178 168.78 21.67 168.91 21.8723Z" fill="#FFF2B7"/>
  <path d="M173.377 12.1381C188.059 12.0548 191.223 31.4518 175.961 33.2011C173.97 33.4391 173.591 32.8679 172.974 33.6652C171.86 35.2479 172.583 35.9619 171.671 35.7239C169.808 35.2459 168.032 34.4747 166.409 33.4391C164.904 32.5228 167.594 32.2491 166.812 30.5474C166.03 28.8457 165.995 30.1428 164.762 28.1674C159.062 19.0401 167.144 11.793 173.377 12.1381ZM180.701 27.2987C181.447 29.1551 183.77 24.764 181.98 24.1809C180.191 23.5978 179.717 24.8592 179.433 24.7878C176.683 24.169 178.39 24.526 176.802 23.7049C176.067 23.3241 175.487 24.2166 174.894 23.3717C173.958 22.0151 174.633 23.3717 170.237 21.6105C169.929 21.4915 169.763 21.0631 169.526 20.7775C169.289 20.4919 168.922 20.4919 168.483 20.3729C167.203 20.0278 166.469 22.6577 168.483 23.0028C168.696 23.0028 168.851 23.0028 168.779 23.3717C168.329 25.3114 170.948 26.9417 170.427 27.8818C169.718 29.2422 169.218 30.7026 168.945 32.2134C168.886 32.5704 169.206 32.38 169.336 32.4871C169.834 32.9155 170.071 30.6783 171.351 28.2626C172.216 26.6561 169.704 25.0496 169.763 23.6692C169.834 21.8961 170.521 22.9076 172.133 23.4193C173.034 23.7049 173.721 23.4193 173.97 24.0143C174.131 24.3322 174.4 24.5815 174.728 24.7169C175.056 24.8524 175.423 24.8649 175.759 24.7521C176.849 24.4665 176.565 25.3114 177.845 25.5851C179.124 25.8588 179.113 25.7993 179.113 26.2753C179.113 26.4419 179.113 26.6204 178.911 26.668C178.302 26.8767 177.72 27.1605 177.181 27.5129C176.506 27.8342 176.802 27.2868 175.676 28.0246C173.982 29.1313 174.266 28.4292 173.555 28.9885C172.37 29.9524 169.775 32.7013 170.604 33.3558C171.434 34.0103 171.529 32.2967 173.211 30.7497C174.894 29.2027 174.633 29.9524 175.202 29.5597C176.387 28.8219 176.553 28.7148 176.731 28.7029C177.75 28.6196 178.532 27.7628 179.302 27.6914C180.345 27.5962 180.072 26.6799 180.298 26.7513C180.523 26.8227 180.618 27.0964 180.701 27.2987Z" fill="#FFE25C"/>
  <path d="M79.1341 23.1454C79.3203 23.7637 79.3152 24.4242 79.1193 25.0395C78.9235 25.6547 78.5462 26.1958 78.0375 26.5912C77.5287 26.9864 76.9124 27.2171 76.2701 27.2529C75.6279 27.2886 74.9899 27.1277 74.4408 26.7914C73.8916 26.4551 73.457 25.9593 73.1947 25.3695C72.9323 24.7797 72.8544 24.1238 72.9714 23.4886C73.0884 22.8535 73.3947 22.2688 73.8497 21.8124C74.3048 21.3559 74.8872 21.0488 75.5199 20.932C76.2876 20.7929 77.0796 20.9413 77.7456 21.3492C78.4117 21.7571 78.9058 22.3962 79.1341 23.1454Z" fill="#62636A"/>
  <path d="M67.3907 33.3915C67.9121 32.7965 68.5757 32.2015 68.8957 32.9988C68.8957 32.9988 58.124 45.0892 58.1003 45.113C57.2234 44.5061 56.8798 45.7437 67.3907 33.3915Z" fill="#00703F"/>
  <path d="M74.5364 43.911C74.7497 44.4227 74.6549 44.2323 67.1894 51.6579C66.8102 52.0506 66.988 52.0387 66.5732 46.0768C66.5732 45.5175 71.3132 41.7928 72.8419 39.9602C74.3705 38.1276 73.9676 38.437 74.5364 43.911Z" fill="#00703F"/>
  <path d="M61.549 28.56C62.4614 28.441 59.8781 30.5473 57.994 33.4033C57.5674 34.0221 55.9558 36.1879 55.3277 36.2712C55.3277 36.2712 49.4027 36.4497 49.4027 36.414C49.2368 36.1879 52.4008 33.1534 55.3277 29.7857C55.6951 29.2264 55.6951 29.3216 61.549 28.56Z" fill="#00703F"/>
  <path d="M90.3563 11.2931C90.2399 12.977 89.8723 14.6336 89.2661 16.2078C86.4102 23.205 86.6591 22.5743 85.877 21.1701C82.2509 14.6846 77.2265 14.0301 78.1745 13.447C80.5778 11.6699 83.2788 10.3399 86.1495 9.52004C90.6407 8.33004 90.143 9.52004 90.3563 11.2931Z" fill="#1FA863"/>
  <path d="M162.25 98.4248C161.338 95.2951 163.589 87.4054 164.265 85.6561C165.181 82.5025 165.447 79.1943 165.047 75.9338C164.573 72.2091 161.966 65.9021 160.591 62.8438C159.217 59.7855 153.244 54.1211 151.348 52.6455C149.452 51.1699 140.363 47.3381 137.128 45.9101C133.893 44.4821 128.075 44.1608 128.075 44.1608C127.206 43.0699 125.995 42.3073 124.638 41.9981C123.283 41.689 121.862 41.8515 120.609 42.4591C117.054 44.0418 116.462 47.8498 116.154 47.9331C108.807 47.8498 107.776 53.7998 107.776 53.7998C105.05 56.5725 105.809 58.3218 106.946 60.1425C108.084 61.9632 111.769 62.0108 111.769 62.0108C111.769 62.0108 134.177 57.1199 141.015 67.8299C147.852 78.5399 145.162 96.0091 145.162 96.0091L145.352 113.359C146.437 114.394 147.794 115.097 149.264 115.386C150.732 115.674 152.253 115.537 153.647 114.99C149.393 111.729 150.21 109.873 150.21 109.873C156.657 113.871 159.501 109.873 159.501 109.873C158.406 109.657 157.379 109.176 156.511 108.471C155.644 107.766 154.961 106.858 154.524 105.827C156.423 106.404 158.385 106.752 160.366 106.862C165.663 107.374 166.848 104.482 166.848 104.482C166.848 104.482 163.151 101.555 162.25 98.4248Z" fill="#966A11"/>
  <path d="M116.865 107.1C116.533 106.729 116.35 106.248 116.35 105.749C116.35 105.251 116.533 104.77 116.865 104.399C109.577 99.8886 111.141 96.1639 109.577 96.9136C107.9 97.657 106.108 98.1078 104.28 98.2464C103.806 98.3892 105.595 101.459 109.542 102.78C112.883 103.899 105.987 107.1 104.932 107.183C103.214 107.314 110.466 111.682 114.578 108.897C114.674 108.818 114.793 108.772 114.917 108.765C115.041 108.758 115.165 108.79 115.27 108.857C115.374 108.924 115.456 109.023 115.502 109.139C115.548 109.255 115.556 109.383 115.526 109.504C115.192 111.167 114.596 112.766 113.76 114.24C115.81 114.609 118.156 113.252 119.863 112.086C120.313 111.789 120.147 111.265 120.325 110.896C120.396 110.73 118.903 109.623 116.865 107.1Z" fill="#B07E19"/>
  <path d="M98.2007 121.761C100.369 126.283 100.464 126.057 99.9308 126.247L75.8398 134.232C75.5554 134.232 75.9464 134.91 70.5902 124.272C70.3177 123.736 68.8838 124.462 85.7938 118.774C88.7326 117.786 91.5292 116.798 94.6694 115.763C95.4752 115.501 94.7998 114.692 98.2007 121.761ZM94.9657 125.628C94.4561 124.748 94.0532 125.354 93.4252 125.378C93.2711 125.378 77.9254 130.138 76.8352 130.662C76.3019 130.888 75.8161 131.602 76.4678 131.769C76.7167 131.828 94.0532 126.687 94.9657 125.628ZM91.2448 120.606C91.624 120.416 91.8847 119.75 91.0789 119.583C90.9367 119.583 90.0242 119.857 88.7089 120.19C84.0281 121.38 83.3764 122.26 82.1677 122.237C80.7694 122.237 80.8286 122.808 78.743 123.272C74.003 124.331 74.7733 124.783 73.5053 124.843C73.3513 124.843 73.1024 125.212 73.055 125.354C72.9484 125.783 74.24 126.033 74.8562 125.688C76.174 124.976 77.613 124.52 79.0985 124.343C81.0538 123.998 80.9827 123.367 82.1321 123.427C84.3244 123.129 85.1539 122.237 87.1447 121.737C89.1355 121.237 89.728 121.38 91.2448 120.606ZM88.1282 124.95C88.3266 124.963 88.5231 124.905 88.6817 124.784C88.8405 124.664 88.9511 124.491 88.9933 124.295C88.9933 122.927 84.2533 125.105 82.0136 125.485C79.9754 125.83 75.3421 127.187 74.6666 127.925C74.1926 128.448 74.4533 128.746 75.0932 128.782C77.4632 127.972 77.1433 127.865 77.9965 127.592C82.9261 126.199 79.537 127.342 84.7628 125.83C87.1328 125.188 87.2869 124.95 88.1282 124.95Z" fill="white"/>
  <path d="M79.3952 153.879C79.7507 154.605 78.4472 155.009 77.6888 155.152C77.2385 154.855 78.2339 156.509 67.3793 134.553C60.4352 120.678 60.4352 121.237 61.1462 121.237C64.8434 121.249 59.1198 113.05 79.3952 153.879Z" fill="#FFD200"/>
  <path d="M63.7767 129.888C76.9776 156.782 76.7287 155.545 76.1599 155.747C69.0499 158.199 72.6049 162.887 71.8702 164.494C71.4792 163.934 46.9852 113.538 46.8193 113.121C47.0089 113.05 46.369 112.729 56.7496 118.952C60.0795 120.952 58.1479 118.405 63.7767 129.888Z" fill="#FFD200"/>
  <path d="M100.251 116.703C96.2099 108.29 96.4825 108.79 96.1507 108.909C92.5957 110.182 73.9912 116.382 70.851 117.417C63.1129 119.988 63.5987 119.488 64.0727 120.416C82.2032 156.009 79.4777 153.998 81.5515 153.439C83.9807 153.379 82.3573 157.437 82.4402 157.651C82.5232 157.865 83.1157 159.353 83.4475 159.234C84.1632 158.921 84.895 158.647 85.6397 158.413C87.3146 158.164 88.9463 157.68 90.4864 156.973C93.8044 155.271 93.8518 160.614 89.6569 162.673C88.522 163.366 87.3034 163.91 86.0308 164.292C85.8175 164.292 85.7701 164.458 85.8649 164.649C86.7181 166.457 86.5048 166.314 87.0499 166.314C93.4489 166.314 92.6905 165.279 97.1224 164.339C98.4259 164.054 98.971 165.66 98.4614 166.719C98.3429 166.957 98.5444 166.933 98.7933 166.862C98.7933 166.862 120.123 160.519 121.048 160.222C121.972 159.924 121.533 160.995 100.251 116.703ZM100.725 127.187C100.535 127.259 78.4942 134.601 75.8398 135.386C74.8562 135.279 75.0458 135.815 69.5593 124.355C68.8246 122.832 67.8529 123.546 94.8591 114.526C95.9256 114.169 95.8782 114.526 97.3594 117.572C101.365 125.831 102.242 126.664 100.725 127.187Z" fill="#FFD200"/>
  <path d="M164.62 186.164C165.805 187.937 166.078 185.152 156.23 199.111C155.163 200.561 154.007 201.944 152.77 203.252C151.099 205.192 149.76 207.357 147.118 209.392C140.932 214.152 136.299 212.962 130.907 206.62C130.09 205.226 129.51 203.705 129.189 202.121C128.418 198.992 127.044 198.123 126.084 194.577C123.572 185.307 126.309 140.515 126.558 140.289C127.577 139.349 125.989 139.813 123.702 136.814C121.842 134.434 122.707 131.888 118.962 125.771C118.888 125.606 118.776 125.459 118.636 125.344C118.497 125.228 118.332 125.146 118.156 125.105C117.434 124.986 118.026 125.926 118.358 126.664C118.856 127.746 117.836 127.056 117.647 127.044C117.161 126.985 116.829 127.544 118.488 128.52C118.69 128.639 119.235 128.651 119.377 128.841C119.516 129.107 119.616 129.391 119.673 129.686C119.673 129.853 119.673 129.9 119.519 129.912C118.216 130.067 117.647 130.341 116.568 129.424C115.952 128.901 114.85 127.711 114.874 126.902C114.933 124.522 114.53 123.332 116.568 122.142C117.362 121.701 117.505 120.952 117.552 120.071C117.635 118.453 119.258 119.333 119.922 117.227C120.87 114.228 125.207 116.87 124.579 115.192C122.659 110.134 116.64 106.862 117.469 105.41C118.251 104.137 121.107 106.505 121.842 107.362C124.141 109.968 128.359 113.514 128.738 115.989C128.975 117.477 130.006 117.988 131.037 121.463C132.898 127.699 135.007 130.353 135.256 137.243C135.647 147.953 146.656 189.055 146.667 189.091C146.976 189.734 147.71 189.46 147.675 188.793C147.248 180.809 142.816 172.003 143.906 171.943C145.704 171.818 147.502 172.172 149.12 172.966C150.211 173.788 156.941 179.797 157.534 180.356C160.117 182.665 162.855 183.45 164.62 186.164Z" fill="#FDE6B9"/>
  <path d="M151.206 85.216C156.206 80.9677 162.12 84.4187 157.131 92.4393C156.135 94.022 155.14 95.3905 150.791 97.1993C145.139 99.5793 144.463 85.0494 144.356 111.479C144.356 118.976 145.162 121.225 155.65 126.33C156.064 126.533 152.426 129.258 152.403 129.27C146.087 133.816 149.796 131.65 142.804 134.47C141.619 134.922 136.725 136.957 136.642 136.207C135.694 128.246 133.798 126.426 132.495 121.761C131.31 117.643 129.982 116.596 129.864 115.216C129.698 113.193 125.124 109.266 124.567 108.552C124.366 108.314 124.389 108.219 124.685 108.112C138.04 103.744 136.014 100.424 134.663 101.221C131.914 102.828 119.602 107.255 113.866 100.65C107.574 93.3913 107.432 80.5036 110.039 81.3128C111.116 81.5521 112.238 81.49 113.283 81.1333C114.328 80.7766 115.255 80.139 115.964 79.2898C116.651 78.5996 115.964 81.2295 119.282 81.8364C119.969 81.9673 120.23 81.1224 119.815 80.9201C118.808 80.4084 117.86 80.1704 117.315 78.4687C116.888 77.1478 120.988 78.2069 120.87 75.1129C120.87 74.2918 120.076 74.268 119.898 75.0058C119.578 76.2791 119.898 76.0887 118.002 76.4457C117.836 76.4457 117.789 76.4457 117.848 76.2434C118.891 72.9471 118.559 72.007 119.626 71.2097C120.088 70.9385 120.614 70.797 121.148 70.7998C121.684 70.8027 122.208 70.9499 122.667 71.226C123.126 71.5021 123.503 71.8969 123.758 72.3692C124.012 72.8415 124.137 73.3741 124.117 73.911C124.271 77.8023 128.027 83.5024 132.412 83.3358C138.621 83.0859 140.41 76.6599 141.536 75.9578C142.283 75.4818 143.065 75.7793 146.217 77.719C147.141 78.2783 144.451 83.9189 148.836 85.8467C149.298 86.049 148.291 86.6678 149.416 87.0367C149.547 87.1795 150.187 86.0728 151.206 85.216ZM156.882 88.9526C157.045 88.6201 157.114 88.2482 157.079 87.8788C157.043 87.5095 156.906 87.1576 156.68 86.8628C156.457 86.5681 156.154 86.3423 155.808 86.2111C155.463 86.0799 155.088 86.0485 154.725 86.1204C152.806 86.5369 150.708 88.9883 151.727 90.9756C152.071 91.6539 151.727 93.0581 151.016 93.2247C149.606 93.5341 149.511 92.8677 149.168 93.5103C148.824 94.1529 149.582 94.7003 150.353 94.7003C152.794 94.7003 153.611 91.8919 152.829 90.3806C152.729 90.2158 152.67 90.0288 152.657 89.836C152.646 89.6433 152.68 89.4502 152.758 89.2739C153.256 88.0839 155.732 85.8348 155.969 89.024C156.029 89.3572 156.633 89.4762 156.882 88.9526ZM119.483 90.2973C119.483 89.8689 119.223 88.6194 118.227 88.5956C117.042 88.5956 116.864 90.3687 117.718 91.2374C118.227 91.7729 119.199 91.8919 119.483 90.2973Z" fill="#FDE6B9"/>
  <path d="M100.334 178.988C103.794 181.368 103.261 179.095 101.59 190.376C100.781 195.243 99.6445 200.05 98.1892 204.763C97.8574 205.739 98.3551 201.967 98.1892 197.968C98.0233 192.542 92.4538 183.474 91.8613 183.688C90.6763 184.081 93.0463 185.473 95.9377 193.518C97.9166 199.158 96.8738 206.917 95.4874 208.988C93.6862 211.653 92.122 212.784 87.5834 212.094C85.5476 211.785 83.6483 210.879 82.1254 209.486C80.6027 208.095 79.5247 206.282 79.0277 204.275C78.3878 201.634 77.345 198.587 77.8427 195.386C80.2127 178.25 78.7907 186.187 81.7532 190.281H82.2865C82.1206 188.984 82.0021 189.091 80.4142 183.855C79.9165 182.189 79.9046 181.951 79.3832 181.618C77.1436 180.214 77.5583 179.987 77.1199 177.607C76.8473 176.168 75.0817 176.548 75.3068 174.525C75.3684 173.955 75.2843 173.378 75.0625 172.849C74.8406 172.32 74.4883 171.857 74.0389 171.503C73.2212 170.729 73.4108 168.444 74.8328 166.957C77.3687 164.315 77.6531 163.137 80.1179 161.304C80.509 161.007 80.6038 161.114 84.2536 160.257C85.0475 160.067 84.5617 159.876 86.2325 159.579C90.7 158.77 91.8257 157.199 91.7783 158.199C91.676 159.003 91.3524 159.763 90.8438 160.394C90.3352 161.025 89.6617 161.501 88.8988 161.769C87.9382 162.33 86.9214 162.79 85.8652 163.137C78.7552 164.755 79.1344 169.539 80.2957 168.171C81.8125 166.386 81.5873 166.017 82.1561 167.064C82.5827 167.849 82.3694 167.492 80.9711 168.754C79.7861 169.825 75.8282 173.038 77.7479 172.752C78.0205 172.752 78.1745 172.574 80.6867 170.456C82.4761 168.932 83.1989 167.564 88.9817 167.504C92.3116 167.504 94.9067 165.969 97.1701 165.529C98.0351 165.35 97.81 168.135 91.7428 169.777C90.4189 170.31 89.0453 170.709 87.6427 170.967C86.5333 171.023 85.4635 171.399 84.5617 172.05C83.7322 172.836 83.116 173.24 83.5426 173.68C83.6966 173.847 83.8388 173.978 84.064 173.74C85.4978 172.241 86.9791 172.312 89.989 171.705C90.8896 171.527 90.7 171.074 92.1338 170.932C93.6006 170.678 95.0525 170.345 96.4828 169.932C97.6678 169.932 96.7553 172.455 90.5578 174.859C87.5597 176.049 86.1496 176.37 85.0949 177.953C84.8105 178.381 84.5735 179.024 85.0949 179.262C85.96 179.654 85.4386 177.834 88.5314 176.703C89.0647 176.513 89.195 176.465 89.3846 178.845C89.7875 184.01 87.8915 186.271 87.7375 188.365C87.7375 188.651 88.0693 189.02 88.4248 188.579C88.963 187.414 89.4415 186.223 89.8586 185.009C92.513 177.036 86.3036 174.442 94.5986 177.001C98.3551 178.167 98.8765 177.988 100.334 178.988Z" fill="#FDE6B9"/>
  <path d="M81.149 154.819C82.7606 154.45 81.4215 157.949 78.4709 159.579C76.1009 160.924 75.8639 161.055 75.5321 161.459C75.2003 161.864 75.5321 162.376 75.8402 162.268C77.7836 161.697 81.0068 158.211 74.3945 165.838C72.8303 167.647 73.0673 167.778 72.854 166.184C72.8681 165.578 72.9235 164.973 73.0199 164.375C73.3161 162.959 71.7638 159.615 73.4228 158.556C75.5696 157.244 77.8499 156.167 80.2247 155.343C80.5103 155.131 80.8206 154.955 81.149 154.819Z" fill="#FDE6B9"/>
  <path d="M110.584 66.64C110.584 66.4734 111.532 61.88 112.693 60.2021C113.855 58.5242 117.836 54.2521 117.836 54.2521C117.836 54.2521 120.799 55.7991 121.071 53.0621C121.071 53.0621 122.185 54.1212 123.441 52.1577C124.697 50.1942 127.98 50.3965 129.165 50.9201C130.35 51.4437 133.609 52.0387 135.41 55.0732C137.211 58.1077 143.385 68.6868 144.487 70.21C145.589 71.7332 149.085 76.16 146.489 76.9097L141.749 74.1965C141.749 74.1965 140.102 69.3532 135.967 68.663C131.831 67.9728 126.913 67.5563 124.899 71.043C124.899 71.043 120.929 68.663 118.168 71.1977C118.168 71.1977 117.54 67.473 114.092 66.8899C110.643 66.3068 110.584 66.64 110.584 66.64Z" fill="#FDE6B9"/>
  <path d="M31.2246 89.4641L30.6676 86.0964L33.3339 88.3574L36.7704 86.739L35.6091 90.5827L38.0502 94.1527L33.9738 93.4506L32.3622 97.0682L31.3312 92.7247L27.7881 91.0349L31.2246 89.4641Z" fill="#AA3CC5"/>
  <path d="M201.9 88.4528C196.366 92.8796 195.774 101.364 192.989 99.3294C189.801 96.9494 187.763 94.4623 187.668 90.8923C187.668 89.9046 187.135 88.9407 186.187 89.2977C185.417 89.6351 184.625 89.9213 183.817 90.1545C181.103 90.8685 181.21 88.3933 179.954 89.5476C179.448 89.8988 178.975 90.2973 178.544 90.7376C178.153 91.0946 178.342 90.8923 177.442 90.214C176.541 89.5357 175.238 90.4639 175.415 90.9875C175.502 91.1148 175.629 91.2088 175.774 91.2543C175.921 91.2996 176.079 91.2937 176.221 91.2374C176.92 90.928 177.027 91.5944 177.738 92.1656C178.923 93.1295 179.859 89.9879 180.878 90.7138C182.573 91.9038 183.343 91.4992 185.926 90.6186C187.526 90.0831 184.457 93.6412 190.868 99.1033C194.423 102.162 195.027 101.198 197.812 95.6047C198.831 93.5579 200.834 90.2259 202.647 89.1073C203.393 88.6432 204.27 88.4052 206.095 89.7023C210.373 92.7487 208.465 93.5222 207.908 94.8431C207.813 95.0811 208.323 95.5095 208.548 95.2001C209.958 93.2604 209.567 93.8673 209.863 92.9272C209.354 89.976 204.555 86.3346 201.9 88.4528Z" fill="#1B1B1D"/>
  <path d="M200.123 73.2803C200.028 72.6853 199.838 72.0903 199.72 71.5072C199.705 71.3662 199.65 71.2328 199.559 71.1245C199.467 71.0162 199.346 70.938 199.21 70.9003C198.748 70.7575 198.689 71.0193 197.101 72.9114C195.691 74.5893 196.532 74.3037 193.072 73.4469C192.881 73.4809 192.7 73.5573 192.542 73.6706C192.385 73.7838 192.253 73.931 192.159 74.1014C191.922 74.4465 191.946 74.5774 193.001 76.291C193.901 77.7547 194.186 77.3977 193.759 78.0284C191.519 81.3961 190.512 82.5028 194.636 80.9915C197.006 80.1347 196.911 80.0038 197.255 80.3489C198.855 81.9554 201.059 84.6686 201.189 82.3957C201.245 81.504 201.107 80.6107 200.786 79.7777C200.62 78.9209 203.879 78.4806 204.069 77.2549C204.085 77.2017 204.09 77.1459 204.083 77.0907C204.077 77.0356 204.059 76.9824 204.031 76.9343C204.003 76.8863 203.967 76.8446 203.922 76.8117C203.877 76.7789 203.826 76.7554 203.772 76.7432C199.258 75.1367 200.656 76.7075 200.123 73.2803ZM200.182 78.5996C198.997 79.4802 200.111 80.218 200.016 81.4556C199.092 81.0629 198.049 79.0756 196.674 79.0756C194.198 79.9086 194.044 80.2656 193.605 80.2656C193.747 79.3731 195.833 77.5643 194.648 76.6004C194.186 76.2434 193.036 74.5417 193.617 74.6726C195.916 75.2081 195.904 75.3152 196.342 75.0058C198.653 73.4112 198.712 70.9598 199.139 74.3156C199.506 77.3382 198.76 76.1006 202.09 77.3144C202.635 77.5405 200.928 78.0522 200.182 78.5996Z" fill="#1B1B1D"/>
  <path d="M185.334 53.9308C185.429 58.6908 188.403 61.0708 183.426 60.4282C175.795 59.4286 174.266 57.5841 174.989 63.1533C175.084 63.903 175.119 63.665 171.434 65.1644C169.585 65.926 170.427 66.8661 171.434 66.4734C174.799 65.093 176.281 64.8907 176.174 63.4151C175.937 60.809 175.605 60.3449 176.589 60.5115C183.237 61.5825 184.362 61.8324 185.559 61.7015C190.228 61.2017 184.279 53.7404 187.467 52.1815C189.707 51.0629 190.453 52.8479 201.201 57.1438C201.794 57.3818 202.386 57.6198 202.576 57.0605C202.765 56.5012 202.22 56.4655 201.924 56.3465C191.259 51.9554 192.349 51.7412 190.074 50.9915C189.574 50.7562 189.022 50.6498 188.471 50.6818C187.919 50.7138 187.384 50.8833 186.914 51.175C186.443 51.4666 186.052 51.8712 185.776 52.3524C185.501 52.8335 185.348 53.3759 185.334 53.9308Z" fill="#1B1B1D"/>
  <path d="M189.932 39.3534C189.043 40.8171 186.981 44.0063 188.889 43.5303C189.6 43.3637 190.963 43.1019 191.259 42.9829C193.072 42.3641 193.131 42.1142 193.38 42.376C195.75 44.756 197.445 47.3621 197.326 43.0067C197.255 40.9599 196.805 40.6267 197.385 40.4006C198.156 40.0674 199.684 39.2106 200.111 39.1035C201.568 38.6632 201.64 37.7112 201.011 37.4256C200.383 37.14 198.641 36.8068 197.563 36.3427C195.845 35.5692 196.58 36.6283 195.478 32.2491C195.451 32.1188 195.385 32 195.288 31.9098C195.191 31.8196 195.068 31.7625 194.936 31.7467C194.806 31.7308 194.672 31.7571 194.557 31.8216C194.441 31.8863 194.348 31.9859 194.293 32.1063C194.15 32.2967 193.653 33.0107 192.136 35.2479C191.78 35.7834 188.379 33.9865 187.822 34.6529C186.424 36.2832 190.394 38.5918 189.932 39.3534ZM191.354 36.3308C192.539 36.6759 192.325 36.5093 194.482 33.5938C195.169 32.6537 194.731 36.902 196.331 37.0448C196.876 37.0448 197.658 37.7112 198.926 37.9968C199.028 38.0339 199.124 38.086 199.21 38.1515C199.151 38.2348 199.104 38.3419 199.021 38.3776C196.034 39.9246 195.833 39.7342 196.011 40.7576C196.461 43.5779 196.354 43.1376 196.283 43.6255C193.119 40.7457 194.375 41.1146 193.913 41.0313C193.036 40.9004 191.401 41.8881 189.825 42.2213C189.28 42.2213 189.493 42.1023 190.856 39.8413C192.325 37.4018 185.002 34.5101 191.354 36.3308Z" fill="#1B1B1D"/>
  <path d="M161.918 42.0785C161.865 42.5432 161.91 43.0138 162.049 43.4602C162.187 43.9066 162.417 44.319 162.724 44.6708C163.031 45.0227 163.408 45.3061 163.831 45.5032C164.253 45.7003 164.712 45.8065 165.177 45.8151C166.907 45.9698 167.606 44.4823 168.258 44.6251C169.716 44.9107 170.877 43.2923 170.924 42.138C170.924 41.5311 171.375 41.1265 171.612 40.5434C171.849 39.9603 171.541 39.5914 171.849 39.4962C172.303 39.183 172.668 38.758 172.911 38.262C173.153 37.766 173.265 37.2158 173.235 36.664C173.235 36.5093 173.638 35.9619 173.235 35.474C173.152 35.3669 173.555 34.7243 173.65 34.6291C173.745 34.5339 185.026 35.4383 187.005 25.4542C189.896 10.8648 166.564 4.96239 162.215 18.9806C159.845 26.5252 166.007 30.5236 165.639 31.2971C164.68 33.2844 164.063 32.4871 163.708 33.3558C162.76 35.5573 163.708 35.2836 163.198 35.5573C161.492 36.4379 162.44 37.5208 161.847 37.9373C161.385 38.2783 161.071 38.7855 160.972 39.353C160.872 39.9205 160.995 40.5047 161.314 40.9837C161.776 41.5311 162.013 41.6501 161.918 42.0785ZM165.26 44.5894C163.886 44.2562 163.72 44.2324 162.89 42.5426C162.784 42.3284 163.044 42.3641 163.269 42.4593C166.54 43.8159 167.452 44.0301 165.26 44.5894ZM164.715 28.1674C159.015 19.0877 167.085 11.793 173.33 12.1381C188.012 12.0548 191.176 31.4518 175.913 33.2011C173.923 33.4391 173.543 32.8679 172.927 33.6652C171.813 35.2479 172.536 35.9619 171.624 35.7239C169.761 35.246 167.984 34.4747 166.362 33.4391C164.857 32.5228 167.547 32.2491 166.765 30.5474C165.983 28.8457 165.995 30.1428 164.715 28.1674ZM164.774 33.5938C171.055 38.3538 173.543 35.9024 171.647 38.1158C171.292 38.5323 169.917 37.8302 169.396 37.6398C166.907 36.6997 162.677 35.3431 164.822 33.5938H164.774ZM163.329 36.664C163.518 36.5212 163.423 36.1166 163.696 36.1404C164.17 36.1404 163.542 36.6402 166.682 37.9016C169.822 39.163 170.095 39.3058 170.711 39.3653C171.327 39.4248 170.64 40.7338 169.455 40.71C167.535 40.0436 161.8 37.9254 163.376 36.664H163.329ZM162.144 39.044C162.665 38.2348 162.238 39.163 164.94 40.3292C167.867 41.6025 168.922 42.0785 169.68 41.9833C169.882 41.9833 169.87 42.1261 169.787 42.2332C169.301 42.8877 168.744 43.8516 167.832 43.2685C165.521 41.6501 160.947 40.9837 162.215 38.9964L162.144 39.044Z" fill="#1B1B1D"/>
  <path d="M185.346 113.478C184.422 112.883 184.777 112.812 184.979 111.931C185.796 108.361 185.761 108.611 185.713 108.361C185.707 108.261 185.674 108.164 185.617 108.081C185.559 107.998 185.481 107.932 185.389 107.892C185.296 107.851 185.195 107.837 185.096 107.85C184.996 107.864 184.903 107.905 184.825 107.969C183.64 108.909 182.289 109.468 181.08 110.349C180.523 110.73 178.651 108.826 178.224 108.992C177.596 109.254 177.134 109.563 177.335 110.337C178.177 113.395 177.916 113.074 177.478 113.359C176.186 114.192 175.108 114.549 175.191 115.609C175.191 116.465 177.774 116.406 178.746 116.418C179.717 116.43 179.516 116.846 179.848 117.394C181.329 119.845 182.218 121.261 182.952 118.476C183.592 116.168 182.798 116.418 186.732 116.287C188.415 116.156 187.147 114.633 185.346 113.478ZM184.505 115.204C183.118 115.382 182.538 115.418 182.383 116.263C182.257 116.951 182.062 117.625 181.803 118.274C181.742 118.229 181.687 118.177 181.637 118.119C179.267 114.621 181.104 115.525 176.755 115.168C175.89 115.168 178.272 114.359 178.971 112.788C179.231 112.205 178.011 110.027 178.698 110.408C180.784 111.515 180.108 111.11 180.369 111.265C181.151 111.753 183.474 109.837 184.362 109.575C184.682 111.539 182.431 112.729 184.552 114.228C186.045 115.263 185.844 115.037 184.505 115.204Z" fill="#1B1B1D"/>
  <path d="M172.133 129.579C168.768 127.794 166.054 129.127 161.906 126.771C160.716 125.933 159.267 125.545 157.818 125.676C156.811 125.938 148.066 122.106 146.182 117.941C145.783 116.855 145.575 115.707 145.565 114.549C145.482 113.645 149.914 117.524 154.204 115.406C154.315 115.367 154.413 115.297 154.485 115.204C154.558 115.111 154.602 114.999 154.614 114.881C154.625 114.764 154.602 114.645 154.549 114.54C154.495 114.435 154.413 114.347 154.311 114.288C152.757 113.633 151.448 112.505 150.566 111.063C150.424 110.825 150.258 110.349 150.803 110.718C155.626 114.014 161.954 110.492 160.022 109.528C158.305 109.09 156.78 108.095 155.685 106.695C155.448 106.398 155.685 106.446 155.827 106.529C159.382 108.123 164.383 107.897 167.203 105.172C168.673 103.744 163.957 103.137 162.926 97.5682C161.895 91.999 165.296 88.3457 165.888 78.8376C166.196 73.8872 162.523 64.7123 160.2 61.2851C153.884 51.9793 144.795 47.4335 133.455 44.1967C130.769 43.5761 127.972 43.6539 125.326 44.4228C124.852 44.6132 124.958 45.3986 125.527 45.3153C129.62 44.4078 133.899 44.9371 137.65 46.8147C142.271 49.0043 151.407 51.0749 158.34 60.8686C173.555 82.2886 154.785 92.9986 164.182 102.78C166.161 104.839 166.445 104.506 165.509 105.065C163.831 106.008 161.922 106.459 160.001 106.366C158.08 106.274 156.223 105.641 154.642 104.542C153.908 104.066 153.149 104.542 153.54 105.434C155.188 109.432 159.193 109.956 158.162 110.313C152.711 112.158 150.507 108.802 149.737 108.373C148.101 107.493 147.805 111.063 152.308 114.502C153.244 115.216 145.376 114.609 145.447 112.027C146.099 90.2735 144.013 99.8173 150.305 98.9367C155.531 98.187 161.563 90.7495 160.117 85.5016C159.145 82.0149 155.934 82.4195 155.128 81.8364C147.319 76.2077 143.172 74.4703 140.908 70.9003C138.23 66.6877 128.241 65.2359 124.721 70.1982C124.591 70.3886 124.484 70.4362 124.306 70.1982C123.981 69.8061 123.579 69.4851 123.125 69.2551C122.671 69.0252 122.176 68.8909 121.667 68.8608C121.16 68.8307 120.652 68.9053 120.174 69.08C119.697 69.2548 119.261 69.526 118.891 69.8769C118.737 70.0435 118.666 70.0435 118.607 69.8055C117.99 67.2589 114.542 66.057 111.71 65.9023C111.271 65.9023 111.188 66.057 112.326 63.0939C112.539 62.5465 113.772 62.4275 115.597 63.7365C117.244 64.7599 116.094 60.9281 113.476 60.9876C112.291 60.9876 116.936 55.8825 117.659 55.0376C118.038 54.6092 118.144 55.347 119.081 55.4303C119.472 55.4303 119.72 54.8115 119.246 54.4426C113.167 49.6826 119.614 39.9008 125.349 43.0543C126.534 43.7326 127.115 42.4712 125.965 41.8643C121.913 39.877 117.327 42.5902 116.047 47.0408C115.881 47.5882 115.845 46.9575 113.084 47.6001C111.848 47.8933 110.711 48.5103 109.788 49.3882C108.866 50.266 108.192 51.3736 107.835 52.5981C107.674 53.1599 107.363 53.6663 106.934 54.0618C104.209 57.013 105.512 60.7734 108.617 61.7135C108.842 61.7849 109.731 61.892 109.802 61.4755C109.992 60.7853 109.435 60.7734 108.996 60.6425C104.849 59.393 107.278 53.7881 107.74 55.7754C108.202 57.7627 110.88 60.2617 111.461 59.2383C112.042 58.2149 107.242 56.9773 109.02 52.5148C110.418 48.9448 115.715 47.7548 115.703 49.1471C115.632 53.5501 117.576 53.9071 117.102 54.4069C114.732 56.894 113.547 57.7746 112.089 60.8686C111.984 61.1356 111.786 61.3553 111.532 61.4874C109.743 62.3204 109.079 65.0574 109.766 64.6528C111.236 63.6651 110.762 63.7246 110.395 65.5691C110.217 66.4378 109.032 65.6405 106.046 67.2589C100.725 70.2101 103.308 77.2192 107.835 80.3251C109.553 81.5151 104.446 83.1692 109.518 95.3905C109.541 95.4299 109.555 95.4745 109.558 95.5204C109.561 95.5663 109.553 95.6123 109.534 95.6544C109.516 95.6964 109.487 95.7334 109.451 95.7621C109.415 95.7907 109.373 95.8102 109.328 95.8189C107.464 96.6614 105.447 97.107 103.403 97.1279C102.692 97.0565 102.716 97.8419 102.929 98.4131C104.695 103.173 109.589 103.613 108.664 104.161C104.932 106.398 105.015 105.981 104.019 106.219C103.836 106.238 103.667 106.328 103.549 106.47C103.431 106.613 103.375 106.797 103.391 106.981C103.308 107.945 104.055 108.492 105.098 109.242C109.553 112.431 113.938 110.432 114.163 110.646C113.812 111.846 113.246 112.971 112.492 113.966C110.857 116.049 115.514 116.346 119.389 113.895C119.459 113.877 119.532 113.877 119.602 113.895C119.469 114.759 119.278 115.614 119.033 116.453C118.464 118.346 117.031 117.643 116.485 119.607C116 121.428 106.804 123.974 105.607 124.736C105.216 124.974 105.5 125.152 101.922 117.81C96.85 107.445 97.1818 107.457 95.8783 107.897C92.8447 108.873 93.8993 109.385 92.0033 105.517C91.0316 103.53 68.8602 109.337 62.0583 117.465C60.6245 119.25 61.4895 119.69 61.9754 119.25C62.2479 119.012 64.1439 115.252 74.8089 110.622C79.8682 108.42 85.2087 106.939 90.6761 106.219C91.2923 106.148 91.0434 105.97 92.264 108.683C92.5721 109.373 62.9471 118.548 62.2124 119.488C61.4777 120.428 59.8424 120.131 60.3401 119.75C60.4502 119.675 60.5274 119.561 60.5561 119.43C60.5847 119.299 60.5625 119.162 60.4941 119.048C58.1241 113.538 55.4223 113.098 55.7541 111.908C55.7541 111.682 54.7113 109.218 54.9009 108.861C55.0905 108.504 60.6837 113.502 60.4941 116.799C60.4941 117.632 61.8214 117.989 61.608 116.465C61.0037 112.003 55.0905 105.934 53.5263 107.862C53.2538 108.183 54.4032 110.527 54.4269 111.229C53.6685 111.003 49.5092 107.659 48.1938 109.313C47.8976 109.67 48.0398 109.718 49.8884 113.145C50.3505 114.014 49.0233 113.038 47.708 112.253C43.7619 109.873 45.338 112.169 47.4354 116.632C70.7918 164.934 72.6522 167.802 72.4152 169.135C72.2949 169.846 72.3592 170.577 72.6021 171.257C72.8449 171.936 73.2581 172.542 73.8017 173.014C73.9855 173.205 74.1179 173.439 74.1862 173.695C74.2547 173.951 74.257 174.221 74.1927 174.478C74.0624 177.417 76.1598 176.941 76.1361 178.583C76.1487 179.7 76.5707 180.771 77.3211 181.594C79.1223 182.915 78.3521 180.333 76.7523 195.089C76.302 199.218 77.5818 202.586 78.281 205.144C79.7622 210.475 85.391 213.403 89.3015 213.474C89.7044 213.474 89.8703 213.331 89.3015 215.104C87.4884 220.805 89.7873 221.983 87.0619 225.481C86.5798 226.185 86.3008 227.008 86.2561 227.861C86.2712 227.975 86.3249 228.08 86.4082 228.159C86.4914 228.237 86.599 228.285 86.713 228.293C86.827 228.302 86.9404 228.271 87.0341 228.205C87.1279 228.139 87.1962 228.043 87.2277 227.933C87.7966 225.803 89.5977 224.874 89.6688 221.899C89.6688 221.376 89.74 218.091 89.8585 217.592C90.9131 213.01 90.688 213.486 91.2923 213.391C95.1436 212.772 95.9612 210.606 98.1297 207.655C99.6465 205.584 102.87 191.78 103.877 182.058C103.877 181.677 103.877 181.285 104.221 181.023C104.564 180.761 106.271 170.134 106.235 169.123C106.235 168.73 105.548 168.575 105.406 168.932C105.015 169.873 104.422 175.704 103.676 179.571C103.593 180.047 103.403 179.75 101.626 178.488C99.2555 176.798 98.9119 177.203 95.9612 176.358C91.2212 174.966 92.4062 175.668 95.0487 173.978C98.6037 171.669 98.3667 169.516 97.9638 169.004C97.5609 168.492 96.2811 168.79 97.9638 168.302C113.641 163.744 119.649 162.03 121.794 161.162C123.275 160.591 122.979 160.424 122.624 160.043C122.624 160.043 120.372 155.45 106.034 126.14C105.82 125.688 105.69 125.854 108.534 124.95C108.724 124.95 108.783 124.95 108.818 125.152C109.525 128.264 111.182 131.077 113.558 133.197C119.922 138.564 122.256 136.695 122.742 137.516C126.783 144.43 124.721 128.223 123.927 178.143C123.927 197.124 125.598 195.993 127.85 201.55C128.027 201.967 129.035 206.31 129.734 207.084C136.666 215.331 142.212 215.188 148.303 210.202C153.41 206.025 161.978 192.518 162.641 193.03C163.305 193.542 164.395 193.589 165.438 194.303C166.848 195.267 169.052 196.207 170.675 195.731C172.015 195.339 171.659 196.267 178.615 175.739C178.982 174.644 178.295 184.664 175.972 193.792C172.773 206.334 167.677 213.498 168.862 218.282C169.336 220.138 168.519 220.805 168.862 223.851C170.047 232.657 169.467 232.098 170.415 232.181C171.363 232.264 170.308 225.338 170.225 224.934C169.502 221.233 170.438 220.174 169.953 218.127C168.697 212.903 175.605 204.502 178.674 186.152C180.025 178.119 178.994 174.99 181.732 167.219C185.144 157.604 187.348 150.833 185.749 140.694C184.564 133.28 182.277 134.958 172.133 129.579ZM61.1459 121.249C64.8431 121.249 59.0958 113.038 79.3593 153.891C79.7149 154.617 78.4113 155.021 77.6529 155.164C77.2026 154.867 78.1981 156.521 67.3435 134.565C60.4349 120.678 60.4349 121.237 61.1459 121.237V121.249ZM49.4381 110.194C51.0141 110.004 57.7331 114.609 59.3565 119.202C56.5957 117.823 53.9452 116.232 51.4289 114.442C51.2037 113.478 49.6395 110.884 49.4381 110.182V110.194ZM71.8701 164.506C71.4791 163.934 46.9851 113.55 46.8192 113.133C47.0088 113.062 46.3689 112.741 56.7495 118.964C60.0794 120.964 58.1478 118.429 63.7766 129.9C76.9775 156.794 76.7286 155.557 76.1598 155.759C69.0617 158.199 72.593 162.875 71.8701 164.494V164.506ZM72.8537 166.219C72.8678 165.614 72.9233 165.009 73.0196 164.41C73.3158 162.994 71.7635 159.65 73.4225 158.591C75.5694 157.28 77.8497 156.203 80.2244 155.378C80.5087 155.158 80.8192 154.974 81.1487 154.831C82.7603 154.474 81.4212 157.961 78.4706 159.591C76.1006 160.936 75.8636 161.067 75.5318 161.471C75.2 161.876 75.5318 162.387 75.8399 162.28C77.7833 161.709 81.0065 158.222 74.3942 165.85C72.83 167.671 73.067 167.79 72.8537 166.207V166.219ZM81.9308 159.079C82.1322 159.579 82.0611 159.496 80.2126 159.865C80.2126 159.865 80.2126 159.865 80.2126 159.769C81.2435 159.139 81.3975 158.425 81.599 158.472C81.8004 158.52 81.7649 158.71 81.9308 159.115V159.079ZM91.6952 169.718C90.3713 170.251 88.9978 170.65 87.5951 170.908C86.4857 170.964 85.4159 171.34 84.5141 171.991C83.6846 172.776 83.0684 173.181 83.495 173.621C83.649 173.788 83.7913 173.919 84.0164 173.681C85.4502 172.181 86.9315 172.253 89.9414 171.646C90.842 171.467 90.6524 171.015 92.0862 170.872C93.553 170.619 95.0048 170.285 96.4352 169.873C97.6202 169.873 96.7077 172.395 90.5102 174.799C87.5003 175.989 86.102 176.31 85.0473 177.893C84.7629 178.322 84.5259 178.964 85.0473 179.202C85.9124 179.595 85.391 177.774 88.4838 176.644C89.0171 176.453 89.1474 176.406 89.337 178.786C89.7399 183.95 87.8439 186.211 87.6899 188.306C87.6899 188.591 88.0217 188.96 88.3772 188.52C88.7327 188.08 89.6926 185.259 89.8111 184.95C92.4655 176.977 86.2561 174.383 94.5511 176.941C98.3549 178.131 98.8289 177.929 100.286 178.928C103.747 181.308 103.213 179.036 101.543 190.317C100.733 195.184 99.5968 199.99 98.1416 204.704C97.8098 205.68 98.3075 201.907 98.1416 197.909C97.9757 192.483 92.4062 183.415 91.8137 183.629C90.6287 184.022 92.9987 185.414 95.8901 193.458C97.869 199.099 96.8263 206.858 95.4398 208.928C93.6386 211.594 92.0744 212.724 87.5359 212.034C85.5 211.726 83.6007 210.819 82.0779 209.427C80.5551 208.036 79.4771 206.222 78.9801 204.216C78.3403 201.574 77.2975 198.528 77.7952 195.327C80.1651 178.191 78.7431 186.128 81.7056 190.222H82.2389C82.073 188.924 81.9545 189.032 80.3666 183.796C79.8689 182.13 79.857 181.892 79.3356 181.558C77.096 180.154 77.5107 179.928 77.0723 177.548C76.7997 176.108 75.0341 176.489 75.2592 174.466C75.3207 173.896 75.2367 173.319 75.0149 172.789C74.7931 172.261 74.4408 171.798 73.9913 171.443C73.1736 170.67 73.3632 168.385 74.7852 166.898C77.3211 164.256 77.6055 163.078 80.0703 161.245C80.4614 160.948 80.5562 161.055 84.206 160.198C84.9999 160.007 84.5141 159.817 86.185 159.52C90.6524 158.71 91.7782 157.14 91.7308 158.139C91.6285 158.944 91.3049 159.704 90.7963 160.335C90.2875 160.965 89.6141 161.441 88.8512 161.709C87.8906 162.271 86.8738 162.73 85.8176 163.078C78.7076 164.696 79.0868 169.48 80.2481 168.111C81.7649 166.326 81.5397 165.957 82.1086 167.005C82.5351 167.79 82.3218 167.433 80.9235 168.694C79.7385 169.765 75.7806 172.978 77.7003 172.693C77.9729 172.693 78.127 172.514 80.6392 170.396C82.4285 168.873 83.1514 167.504 88.9342 167.445C92.264 167.445 94.8591 165.91 97.1225 165.47C97.9875 165.327 97.7624 168.111 91.6952 169.754V169.718ZM83.5187 167.076C83.3647 166.933 83.4357 167.159 82.7603 165.779C82.6062 165.446 82.867 165.351 84.526 164.839C84.7393 164.767 84.9289 165.16 85.4147 166.243C85.5214 166.529 85.3199 166.6 83.5187 167.112V167.076ZM120.988 160.222C120.04 160.519 98.7696 166.85 98.7341 166.862C98.4852 166.933 98.2838 166.957 98.4023 166.719C98.9118 165.624 98.4023 164.018 97.0633 164.339C92.6314 165.279 93.3898 166.303 86.9908 166.314C86.5049 166.314 86.7182 166.457 85.8058 164.648C85.711 164.458 85.8058 164.339 85.9717 164.291C87.2442 163.909 88.4629 163.366 89.5977 162.673C93.7926 160.614 93.7452 155.271 90.4272 156.973C88.8871 157.68 87.2555 158.164 85.5806 158.413C84.8358 158.647 84.1041 158.921 83.3884 159.234C83.0566 159.353 82.5351 158.044 82.3811 157.651C82.227 157.259 83.9216 153.379 81.4923 153.439C79.4186 153.998 82.1441 156.009 64.0136 120.416C63.5396 119.488 63.0537 119.988 70.7918 117.417C73.9321 116.382 92.5839 110.182 96.0915 108.909C96.4233 108.79 96.0916 108.29 100.192 116.703C121.534 160.995 121.865 159.984 120.988 160.257V160.222ZM147.331 78.909C147.331 78.433 147.094 78.433 152.9 82.2172C153.659 82.7051 151.893 82.5028 150.092 84.5972C149.748 85.0018 149.737 84.978 149.239 84.74C147.082 83.7761 147.023 81.4199 147.331 78.9447V78.909ZM126.416 70.2101C128.786 68.2585 136.488 68.3061 139.451 71.6738C142.034 74.625 135.635 85.4183 129.319 80.9796C126.285 78.8495 123.465 72.5901 126.416 70.2101ZM111.105 75.6127C111.105 75.0177 110.442 67.6159 111.402 67.6635C113.204 67.5991 114.985 68.071 116.521 69.0201C119.069 70.698 116.177 82.2886 109.968 79.9919C109.304 79.7301 111.058 78.1712 111.105 75.6127ZM107.835 68.2466C108.451 68.0562 109.02 67.9134 109.707 67.7468C109.921 67.7468 110.027 67.7468 110.003 67.9848C109.387 73.3517 111.117 74.8749 109.067 78.9923C108.83 79.4921 108.783 79.5159 108.38 79.1946C103.415 75.1248 102.028 70.0673 107.835 68.2466ZM110.027 81.3366C111.105 81.5759 112.227 81.5138 113.271 81.1571C114.316 80.8004 115.243 80.1627 115.952 79.3136C116.628 78.6234 115.952 81.2533 119.27 81.8602C119.957 81.9911 120.218 81.1462 119.803 80.9439C118.796 80.4322 117.848 80.1942 117.303 78.4925C116.876 77.1716 120.977 78.2307 120.858 75.1367C120.858 74.3156 120.064 74.2918 119.886 75.0296C119.566 76.3029 119.886 76.1125 117.99 76.4695C117.824 76.4695 117.777 76.4695 117.836 76.2672C118.879 72.9709 118.547 72.0308 119.614 71.2335C120.076 70.9623 120.602 70.8208 121.137 70.8236C121.672 70.8265 122.196 70.9737 122.656 71.2498C123.114 71.5258 123.491 71.9207 123.746 72.393C124.001 72.8653 124.125 73.3978 124.105 73.9348C124.259 77.8261 128.015 83.5262 132.4 83.3596C138.609 83.1097 140.399 76.6837 141.524 75.9816C142.271 75.5056 143.053 75.8031 146.205 77.7428C147.13 78.3021 144.44 83.9427 148.824 85.8705C149.286 86.0728 148.279 86.6916 149.405 87.0605C149.582 87.0605 150.222 86.0014 151.241 85.1446C156.242 80.8963 162.155 84.3473 157.166 92.3679C156.171 93.9506 155.176 95.3191 150.827 97.1279C145.174 99.5079 144.499 84.978 144.392 111.408C144.392 118.905 145.198 121.154 155.685 126.259C156.1 126.461 152.462 129.186 152.438 129.198C146.122 133.744 149.831 131.578 142.84 134.399C141.655 134.851 136.761 136.886 136.678 136.136C135.73 128.175 133.834 126.354 132.53 121.689C131.345 117.572 130.018 116.525 129.9 115.144C129.734 113.121 125.16 109.194 124.603 108.48C124.401 108.242 124.425 108.147 124.721 108.04C138.076 103.673 136.05 100.353 134.699 101.15C131.95 102.757 119.638 107.183 113.902 100.579C107.539 93.4627 107.396 80.575 110.003 81.3842L110.027 81.3366ZM113.76 114.24C114.594 112.758 115.186 111.151 115.514 109.48C115.544 109.359 115.536 109.231 115.49 109.115C115.444 108.999 115.362 108.901 115.258 108.833C115.153 108.766 115.029 108.734 114.905 108.741C114.781 108.748 114.662 108.794 114.566 108.873C110.454 111.658 103.202 107.29 104.92 107.16C105.951 107.076 112.871 103.875 109.529 102.757C105.583 101.436 103.794 98.3655 104.268 98.2227C106.119 98.0996 107.935 97.6568 109.636 96.9137C111.2 96.164 109.636 99.8887 116.924 104.399C116.592 104.77 116.409 105.251 116.409 105.749C116.409 106.248 116.592 106.729 116.924 107.1C118.962 109.599 120.479 110.67 120.372 110.908C120.194 111.289 120.372 111.812 119.91 112.098C118.144 113.3 115.798 114.657 113.76 114.24ZM121.557 135.862C116.189 135.017 110.951 129.686 109.873 125.212C109.672 124.367 109.529 124.45 110.43 124.141C113.073 123.201 114.435 122.189 114.104 122.784C113.44 123.974 113.914 125.509 113.831 126.057C113.523 128.115 114.945 129.853 116.995 130.948C117.268 131.09 117.173 131.067 118.986 131.186C120.171 130.9 120.325 130.781 120.467 131.186C120.727 131.779 120.929 132.397 121.071 133.03C121.545 135.66 122.162 136.005 121.545 135.91L121.557 135.862ZM156.242 199.063C155.174 200.514 154.019 201.897 152.782 203.204C151.111 205.144 149.772 207.31 147.13 209.345C140.944 214.105 136.31 212.915 130.919 206.572C130.102 205.179 129.522 203.658 129.2 202.074C128.43 198.944 127.056 198.076 126.096 194.529C123.584 185.259 126.321 140.468 126.57 140.242C127.589 139.301 126.001 139.766 123.714 136.767C121.853 134.387 122.719 131.84 118.974 125.724C118.899 125.558 118.788 125.412 118.648 125.296C118.508 125.181 118.344 125.099 118.168 125.057C117.445 124.938 118.038 125.878 118.37 126.616C118.867 127.699 117.848 127.009 117.659 126.997C117.173 126.937 116.841 127.497 118.5 128.472C118.701 128.591 119.246 128.603 119.389 128.794C119.527 129.059 119.628 129.344 119.685 129.639C119.685 129.805 119.685 129.853 119.531 129.865C118.227 130.019 117.659 130.293 116.58 129.377C115.964 128.853 114.862 127.663 114.886 126.854C114.945 124.474 114.542 123.284 116.58 122.094C117.374 121.654 117.516 120.904 117.564 120.023C117.647 118.405 119.27 119.286 119.934 117.179C120.882 114.181 125.219 116.822 124.591 115.144C122.671 110.087 116.651 106.814 117.481 105.363C118.263 104.089 121.107 106.457 121.853 107.314C124.152 109.92 128.371 113.467 128.75 115.942C128.987 117.417 130.018 117.941 131.049 121.416C132.91 127.651 135.019 130.305 135.268 137.195C135.659 147.905 146.667 189.008 146.679 189.043C146.987 189.686 147.722 189.424 147.686 188.746C147.26 180.761 142.828 171.955 143.918 171.896C145.716 171.771 147.513 172.124 149.132 172.919C150.222 173.74 156.953 179.75 157.546 180.309C159.999 182.57 162.736 183.355 164.502 186.068C165.758 187.937 166.09 185.152 156.23 199.111L156.242 199.063ZM120.692 114.407C121.237 111.598 121.178 111.705 121.51 112.027C122.103 112.682 122.588 113.429 122.944 114.24C123.192 114.704 122.434 114.538 122.422 114.49C120.728 114.799 120.526 114.942 120.621 114.454L120.692 114.407ZM171.552 192.494C171.503 192.594 171.434 192.682 171.351 192.756C171.286 192.691 171.225 192.618 171.173 192.542C167.95 187.782 166.327 186.592 165.568 185.235C164.608 183.534 161.835 181.773 160.165 180.749C159.062 180.071 156.918 177.857 155.223 176.513C151.396 173.478 151.301 171.562 145.838 170.813C145.008 170.694 143.74 171.063 143.539 170.896C143.338 170.729 143.539 170.444 144.499 168.587C145.303 166.911 146.268 165.317 147.378 163.827C152.284 156.878 151.289 157.235 152.96 154.367C155.899 149.274 156.669 149.892 161.373 144.847C167.82 137.921 168.14 137.766 168.566 136.672C168.756 136.16 168.305 135.922 168.068 136.172C153.327 151.808 154.737 148.667 151.715 154.331C145.02 166.898 148.931 158.151 143.219 168.492C142.615 169.575 136.109 139.718 136.737 137.719C136.915 137.148 137.578 138.064 142.662 135.898C150.353 132.602 146.3 135.279 152.735 130.519C155.993 128.139 157.475 125.486 160.781 127.473C165.047 130.043 166.587 128.984 170.593 130.174C172.714 130.805 172.5 131.507 181.4 135.113C184.007 136.172 184.374 138.48 184.682 140.753C186.211 152.737 185.144 154.188 171.481 192.542L171.552 192.494Z" fill="#1B1B1D"/>
  <path d="M168.543 23.0027C168.756 23.0027 168.91 23.0027 168.839 23.3716C168.389 25.3113 171.008 26.9416 170.486 27.8817C169.777 29.2421 169.277 30.7026 169.005 32.2133C168.946 32.5703 169.266 32.3799 169.396 32.487C169.894 32.9154 170.131 30.6782 171.41 28.2625C172.275 26.656 169.763 25.0495 169.823 23.6691C169.894 21.896 170.581 22.9075 172.193 23.4192C173.093 23.7048 173.78 23.4192 174.029 24.0142C174.19 24.3322 174.459 24.5815 174.788 24.7169C175.116 24.8524 175.482 24.8648 175.819 24.752C176.909 24.4664 176.624 25.3113 177.904 25.585C179.184 25.8587 179.172 25.7992 179.172 26.2752C179.172 26.4418 179.172 26.6203 178.971 26.6679C178.362 26.8767 177.78 27.1605 177.241 27.5128C176.565 27.8341 176.861 27.2867 175.736 28.0245C174.041 29.1312 174.326 28.4291 173.615 28.9884C172.43 29.9523 169.834 32.7012 170.664 33.3557C171.493 34.0102 171.588 32.2966 173.271 30.7496C174.954 29.2026 174.693 29.9523 175.262 29.5596C176.447 28.8218 176.613 28.7147 176.79 28.7028C177.809 28.6195 178.592 27.7627 179.362 27.6913C180.405 27.5961 180.132 26.6798 180.357 26.7512C180.582 26.8226 180.582 27.0487 180.665 27.251C181.412 29.1193 183.734 24.7163 181.945 24.1332C180.156 23.5501 179.682 24.8115 179.397 24.7401C176.648 24.1213 180.559 21.1452 178.971 20.3241C178.236 19.9433 175.451 24.1689 174.859 23.324C173.923 21.9674 174.598 23.324 170.202 21.5628C169.894 21.4438 169.728 21.0154 169.491 20.7298C169.254 20.4442 168.886 20.4442 168.448 20.3252C167.204 20.0277 166.469 22.61 168.543 23.0027ZM181.436 25.1328C181.803 25.2399 181.53 26.1086 181.199 25.9301C179.942 25.2875 180.997 24.99 181.436 25.1328ZM168.401 21.2534C168.543 21.2534 168.792 21.6699 168.922 21.8722C168.27 22.4077 167.962 21.42 168.389 21.2534H168.401Z" fill="#1B1B1D"/>
  <path d="M176.814 151.202C172.88 153.225 167.63 156.902 155.484 157.651C155.022 157.651 154.56 157.866 154.619 158.342C154.678 158.818 164.751 159.353 177.134 152.177C178.769 151.213 177.892 150.654 176.814 151.202Z" fill="#1B1B1D"/>
  <path d="M157.333 154.45C163.672 152.463 171.825 146.12 171.304 145.43C170.273 144.109 167.666 149.416 156.989 153.605C156.61 153.748 156.776 154.331 157.333 154.45Z" fill="#1B1B1D"/>
  <path d="M152.865 73.4587C153.067 73.6729 157.747 77.9331 158.257 76.6122C158.447 76.1124 158.138 75.9696 156.503 74.8272C147.983 69.02 144.369 57.2628 140.316 54.74C140.043 54.5734 139.818 55.2279 139.925 55.4302C140.856 56.4609 141.7 57.5674 142.449 58.7384C147.414 66.7114 146.182 66.1878 152.865 73.4587Z" fill="#1B1B1D"/>
  <path d="M153.47 133.816C150.78 135.422 150.72 136.196 149.322 136.802C148.398 137.207 141.027 140.099 141.655 141.182C141.999 141.741 141.939 141.289 149.95 137.707C151.089 136.995 152.174 136.199 153.197 135.327C157.25 132.388 157.818 132.435 157.617 131.757C157.262 130.674 155.057 132.875 153.47 133.816Z" fill="#1B1B1D"/>
  <path d="M150.388 94.6526C152.83 94.6526 153.647 91.8442 152.865 90.3329C152.764 90.1681 152.705 89.9813 152.693 89.7884C152.681 89.5956 152.716 89.4026 152.794 89.2262C153.292 88.0362 155.768 85.7871 156.005 88.9763C156.005 89.3571 156.622 89.4761 156.882 88.9763C157.046 88.6438 157.115 88.2719 157.079 87.9026C157.043 87.5332 156.906 87.1813 156.681 86.8866C156.457 86.5918 156.155 86.366 155.809 86.2348C155.464 86.1037 155.088 86.0722 154.726 86.1441C152.806 86.5606 150.708 89.012 151.727 90.9993C152.071 91.6776 151.728 93.0818 151.017 93.2484C149.606 93.5578 149.512 92.8914 149.168 93.534C148.824 94.1766 149.583 94.6526 150.388 94.6526Z" fill="#1B1B1D"/>
  <path d="M142.2 40.46C142.271 39.6508 142.034 37.3779 144.037 36.8305C145.649 36.3783 146.537 36.533 147.26 35.2716C147.876 34.2006 147.26 33.8674 147.841 32.7607C149.784 29.1907 148.789 29.7381 151.396 28.5957C158.364 25.4898 152.581 21.5271 151.965 23.5263C151.645 24.4902 152.261 25.0376 152.676 24.1094C152.889 23.6215 155.152 25.3827 152.486 26.8464C150.021 28.1911 148.824 28.1792 148.161 29.8809C147.497 31.5826 146.431 32.6655 146.466 34.2363C146.466 35.3549 145.435 35.3192 144.238 35.5572C143.292 35.8177 142.462 36.3975 141.891 37.1992C141.319 38.0009 141.039 38.9758 141.098 39.9602C141.122 42.1022 142.046 42.3164 142.2 40.46Z" fill="#1B1B1D"/>
  <path d="M127.269 50.0632C126.502 50.0454 125.74 50.191 125.033 50.4906C124.326 50.79 123.691 51.2365 123.169 51.8006C122.47 52.5503 123.169 53.2286 123.88 52.6217C124.409 52.0723 125.067 51.6647 125.793 51.4361C126.52 51.2075 127.292 51.1651 128.039 51.3127C136.903 52.5027 137.519 63.4864 146.584 74.3392C147.663 75.6125 148.504 75.1484 148.089 74.3987C146.416 72.3242 144.868 70.1505 143.456 67.8894C135.979 54.4186 135.256 51.2532 127.269 50.0632Z" fill="#1B1B1D"/>
  <path d="M127.98 61.1065C127.565 61.5468 127.257 62.4988 127.874 62.2965C128.727 61.9514 129.533 60.9399 131.677 60.9637C134.652 60.9637 135.73 65.3429 135.932 63.1176C135.683 59.5833 131.369 57.4532 127.98 61.1065Z" fill="#1B1B1D"/>
  <path d="M130.03 75.1127C130.67 75.1127 130.705 74.6843 130.871 74.0298C130.682 72.7684 129.686 72.8398 129.449 73.5657C129.212 74.2916 129.331 75.077 130.03 75.1127Z" fill="#1B1B1D"/>
  <path d="M120.432 51.646C120.432 52.4433 120.432 53.8951 121.249 53.7642C122.328 53.5976 120.55 51.5746 122.197 49.0042C122.381 48.6479 122.64 48.3371 122.958 48.0942C123.276 47.8513 123.643 47.6824 124.034 47.6C124.171 47.5438 124.291 47.4529 124.382 47.336C124.474 47.2192 124.533 47.0805 124.555 46.9336C124.496 45.3628 120.384 47.0883 120.432 51.646Z" fill="#1B1B1D"/>
  <path d="M112.575 7.56852C112.93 7.66372 113.44 7.15201 114.009 7.05681C114.862 6.91401 117.125 6.84261 117.564 7.71131C118.974 10.4364 114.198 13.8398 113.618 17.6002C113.25 19.9802 115.739 20.599 119.543 21.6581C122.825 22.5625 116.711 26.7632 118.583 29.2979C118.891 29.7025 119.768 30.4879 120.479 31.2376C122.268 33.1178 119.946 35.6287 121.119 35.8786C122.292 36.1285 123.157 32.2015 121.119 30.2142C118.855 27.9294 118.618 28.7267 121.024 24.5022C121.652 23.3955 121.996 21.4558 120.621 20.8608C119.246 20.2658 119.436 20.7061 116.142 19.4209C111.117 17.4812 120.668 11.7216 118.405 7.23531C117.884 5.95011 116.782 6.09291 115.277 5.95011C112.243 5.87871 112.136 7.44952 112.575 7.56852Z" fill="#1B1B1D"/>
  <path d="M119.483 90.2972C119.483 89.8688 119.223 88.6193 118.227 88.5955C117.042 88.5955 116.865 90.3686 117.718 91.2373C118.227 91.7728 119.199 91.8918 119.483 90.2972Z" fill="#1B1B1D"/>
  <path d="M115.158 73.1017C115.064 71.9117 114.127 71.9117 113.973 72.3639C113.227 73.7086 114.779 74.97 115.158 73.1017Z" fill="#1B1B1D"/>
  <path d="M94.7999 114.526C67.7937 123.558 68.7299 122.856 69.5001 124.355C74.9867 135.815 74.7971 135.279 75.7806 135.386C78.4824 134.601 100.523 127.259 100.666 127.187C102.182 126.664 101.306 125.831 97.2528 117.572C95.8308 114.573 95.8782 114.169 94.7999 114.526ZM99.9191 126.247L75.8399 134.232C75.5555 134.232 75.9465 134.91 70.5903 124.272C70.3178 123.736 68.8839 124.462 85.7939 118.774C88.7327 117.786 91.5293 116.799 94.6695 115.763C95.4872 115.501 94.8354 114.692 98.2245 121.713C100.369 126.283 100.464 126.069 99.9309 126.247H99.9191Z" fill="#1B1B1D"/>
  <path d="M93.4253 125.378C93.2712 125.378 77.9255 130.138 76.8353 130.662C76.302 130.888 75.8162 131.602 76.4679 131.769C76.6812 131.769 94.0178 126.687 94.9302 125.628C94.4562 124.748 94.0533 125.355 93.4253 125.378Z" fill="#1B1B1D"/>
  <path d="M79.1223 124.343C81.0776 123.998 81.0065 123.367 82.1559 123.427C84.3482 123.129 85.1777 122.237 87.1685 121.737C89.1593 121.237 89.7281 121.38 91.2804 120.547C91.6596 120.357 91.9203 119.69 91.1145 119.524C90.9723 119.524 90.0599 119.797 88.7445 120.131C84.0638 121.321 83.412 122.201 82.2033 122.177C80.805 122.177 80.8643 122.749 78.7787 123.213C74.0387 124.272 74.8089 124.724 73.541 124.783C73.3869 124.783 73.1381 125.152 73.0907 125.295C72.984 125.724 74.2757 125.973 74.8919 125.628C76.2101 124.939 77.6449 124.504 79.1223 124.343Z" fill="#1B1B1D"/>
  <path d="M83.1277 64.9622C84.8578 62.6536 83.8386 62.9868 89.5385 64.9622C89.6571 65.0174 89.7901 65.0332 89.9183 65.0075C90.0465 64.9818 90.1632 64.9159 90.2515 64.8191C90.3399 64.7224 90.3954 64.6 90.41 64.4695C90.4245 64.3391 90.3974 64.2073 90.3325 64.0935C89.7087 62.734 88.9878 61.4217 88.1758 60.1665C87.6899 59.5477 90.1903 56.8702 90.2377 55.4065C90.3088 53.2526 85.9124 56.8345 84.9526 55.5731C84.1823 54.5616 83.0092 53.443 82.2389 52.2173C81.8953 51.658 81.2316 51.4557 81.125 52.1221C80.2125 58.203 81.682 56.7036 78.3047 58.0126C76.4206 58.7504 76.3613 58.7385 76.2546 59.3454C75.9228 61.2613 80.3311 61.535 80.3429 62.4037C80.414 66.3188 80.26 66.0808 80.3429 66.9019C80.3596 67.0121 80.4056 67.1156 80.4761 67.2016C80.5465 67.2878 80.6388 67.3531 80.7432 67.3908C80.8475 67.4287 80.9601 67.4375 81.0691 67.4163C81.178 67.3951 81.2792 67.3449 81.362 67.2708C82.0139 66.5521 82.6045 65.7799 83.1277 64.9622ZM80.4614 60.9757C76.4087 59.4525 76.4087 59.7857 80.8643 58.1673C81.836 57.8103 81.3738 55.6802 82.0493 53.8476C86.2797 57.8222 82.7129 57.489 88.8986 56.061C87.9861 58.5124 86.0901 59.2145 87.1804 60.4878C87.7898 61.3444 88.3175 62.2568 88.7564 63.2129C89.0527 63.7127 87.5714 63.2129 85.4739 62.4275C84.2889 61.9872 84.5615 61.0947 81.7649 65.0217C80.6747 66.5568 82.2508 61.6421 80.4614 60.9757Z" fill="#1B1B1D"/>
  <path d="M60.3163 44.161C60.8851 43.5422 60.897 43.5422 61.4184 44.161C61.9491 44.7948 62.3516 45.5264 62.6034 46.3149C62.8167 47.0765 62.0109 46.6719 61.762 46.6838C60.577 46.6838 61.0629 47.5763 61.3591 47.7191C64.2742 49.1352 65.5303 45.7675 65.6133 46.8742C65.7436 48.3736 65.7318 50.0039 65.8029 51.9674C65.8029 52.8599 66.5257 53.5382 67.1301 52.9908C67.7344 52.4434 69.346 50.8012 71.6331 48.564C75.3777 44.8869 75.5317 44.994 75.4843 44.2681C74.9392 36.2951 74.2993 38.3181 76.9063 35.474C80.0584 32.0587 86.3863 25.1091 88.4364 20.9441C91.6003 14.649 92.8564 8.02069 89.9058 7.68749C85.9597 7.24719 79.0986 10.7101 75.6858 13.7208C73.2383 15.8255 70.9526 18.1128 68.8483 20.5633C61.7383 28.4054 63.7528 27.1321 60.5533 27.5605C54.1188 28.3935 56.3703 27.0012 48.3715 35.7596C47.388 36.8425 48.0871 37.5803 48.727 37.5803C50.6477 37.3788 52.5802 37.3152 54.5098 37.3899C54.1749 37.7378 53.9289 38.1621 53.7928 38.6262C53.6565 39.0904 53.6342 39.5808 53.7277 40.0555C53.9749 40.9987 54.4701 41.8576 55.1616 42.5426C55.5526 42.7925 55.837 42.3522 55.683 41.8881C55.6119 41.6501 54.3913 39.8413 54.7468 39.401C55.1023 38.9607 56.0029 39.401 58.6218 41.4002C59.3446 41.9476 57.9582 42.4712 56.785 44.2086C56.1096 45.232 57.3064 45.7556 57.6264 45.9936C57.9463 46.2316 58.2426 46.2792 58.5625 46.0531L60.3163 44.161ZM54.5098 52.1697C46.2148 65.2597 44.3662 78.9685 50.7652 96.0093C50.8837 96.3068 51.2866 97.6515 51.6895 97.3778C52.9693 96.5329 46.203 85.8229 48.4308 70.0673C50.4808 55.5731 60.0082 47.2074 60.2808 45.946C60.423 45.3272 60.1978 45.0654 59.4631 45.351C57.6477 47.4988 55.9921 49.7778 54.5098 52.1697ZM58.207 39.7342C55.8963 37.9849 54.9838 38.7584 55.4223 38.0087C55.6356 37.6398 55.8489 37.2233 56.1925 37.378C57.8397 37.5208 58.4085 38.1515 60.3993 39.5081C60.7429 39.7461 60.4704 40.0079 59.9253 40.5434C59.6053 40.9004 59.6764 40.829 58.2544 39.7342H58.207ZM58.0648 45.113C57.1879 44.5061 56.7969 45.7437 67.3552 33.3915C67.8766 32.7965 68.5402 32.2015 68.8602 32.9988C68.8957 33.0345 58.1241 45.0892 58.0648 45.113ZM64.4046 46.303C63.3618 47.1955 64.2979 46.303 62.4967 43.923C61.6672 42.8282 61.5606 42.8282 61.7146 42.6497C62.6745 41.5192 62.473 40.9837 64.7719 45.4938C65.0089 45.8151 64.7719 45.9936 64.4401 46.2792L64.4046 46.303ZM67.1538 51.6818C66.7746 52.0745 66.9523 52.0626 66.5376 46.1007C66.5376 45.5414 71.2776 41.8167 72.8062 39.9841C74.3349 38.1515 73.9912 38.4609 74.5008 43.9349C74.7496 44.4228 74.6548 44.2324 67.1893 51.658L67.1538 51.6818ZM78.2098 13.4471C80.6023 11.6737 83.2911 10.3439 86.1493 9.52009C90.6405 8.33009 90.1428 9.52009 90.3561 11.2932C90.2409 12.9772 89.8734 14.634 89.2659 16.2079C86.41 23.2051 86.6589 22.5744 85.8768 21.1702C82.2507 14.6847 77.2381 14.054 78.2098 13.4471ZM76.6812 14.6371C78.198 13.1972 86.8129 22.0865 85.5687 23.7525C81.9307 28.6553 69.2749 42.9353 65.9332 44.994C65.2373 43.6338 64.4452 42.3254 63.5632 41.0789C63.267 40.6386 63.2314 40.9361 67.4145 36.2594C69.7845 33.5462 70.4599 33.2368 69.6304 32.2134C69.2749 31.7731 68.3269 31.1305 67.7226 31.7493C67.1182 32.3681 66.7864 32.7846 63.8121 36.2118C61.0747 39.3534 61.6435 38.9964 60.6718 38.2586C56.7613 35.2955 56.0622 37.6279 58.5625 34.4268C64.1701 27.4477 70.2098 20.8301 76.6456 14.6133L76.6812 14.6371ZM55.2445 29.7501C55.7304 29.1789 55.7304 29.2741 61.5487 28.5601C62.4612 28.4411 59.8779 30.5474 57.9937 33.4034C57.5671 34.0222 55.9555 36.188 55.3275 36.2713C55.3275 36.2713 49.4025 36.4498 49.4025 36.4141C49.1536 36.1999 52.3176 33.1654 55.2445 29.7501Z" fill="#1B1B1D"/>
  <path d="M84.763 125.878C87.133 125.188 87.287 124.974 88.1284 124.962C88.3268 124.975 88.5232 124.917 88.682 124.797C88.8408 124.676 88.9512 124.503 88.9934 124.307C88.9934 122.939 84.2534 125.117 82.0138 125.497C79.9756 125.843 75.3422 127.199 74.6668 127.937C74.1928 128.461 74.4535 128.758 75.0934 128.794C77.4634 127.985 77.1434 127.877 77.9966 127.604C82.9499 126.247 79.5371 127.39 84.763 125.878Z" fill="#1B1B1D"/>
  <path d="M80.5802 88.0601C79.8455 88.1553 77.4044 88.6908 77.0252 88.7979C76.3261 88.9764 74.1338 84.1092 73.5769 85.918C72.2141 90.3686 74.0864 89.6428 70.6144 89.9403C69.1924 90.0593 69.1687 90.4401 69.2042 91.1303C69.2042 91.5944 69.3701 91.6895 70.2233 92.2131C74.0746 94.5931 72.3919 92.8676 72.0719 97.2706C72.0719 97.8775 72.38 98.1631 72.8659 98.0084C73.9679 97.6395 75.7099 94.4384 76.5157 94.8549C77.6815 95.2599 78.8683 95.6016 80.0707 95.8783C80.7461 96.0687 81.0305 95.7117 80.9476 95.1881C80.8172 94.3551 79.9048 93.9981 78.9923 92.3083C78.7909 91.9156 78.8383 92.0941 81.1016 89.369C81.4927 88.8692 81.6704 87.9292 80.5802 88.0601ZM77.9732 92.82C79.0753 94.7716 79.5256 94.5931 77.3807 94.1171C74.8922 93.5578 76.018 93.3913 73.4347 96.0212C73.1266 96.3425 73.4939 95.0334 73.5887 93.7958C73.6954 92.3202 70.8514 91.8442 70.4366 91.0707C70.6381 91.0707 70.2826 91.0707 72.1075 90.8922C74.359 90.7018 73.2925 89.4285 74.276 87.4055C75.0818 88.0957 75.9113 90.1663 76.646 90.0116C82.654 88.6074 76.6697 90.5114 77.9732 92.82Z" fill="#1B1B1D"/>
  <path d="M76.148 28.3458C81.8716 28.0483 81.4687 19.635 75.9703 19.7659C69.9149 20.5037 71.017 28.56 76.148 28.3458ZM75.52 20.9321C75.9814 20.8499 76.4552 20.8712 76.9074 20.9946C77.3597 21.118 77.779 21.3403 78.1356 21.6458C78.4922 21.9511 78.7771 22.3319 78.9697 22.7609C79.1624 23.1898 79.2582 23.6563 79.2501 24.1268C79.2422 24.5973 79.1305 25.0602 78.9233 25.4823C78.7161 25.9044 78.4185 26.2752 78.0517 26.5682C77.685 26.8612 77.2582 27.0689 76.802 27.1768C76.3459 27.2845 75.8717 27.2896 75.4133 27.1915C74.6927 27.0374 74.048 26.6365 73.5894 26.0576C73.1308 25.4785 72.8869 24.7574 72.8995 24.0177C72.9121 23.278 73.1804 22.5656 73.6584 22.0028C74.1365 21.4399 74.7946 21.0613 75.52 20.9321Z" fill="#1B1B1D"/>
  <path d="M63.0777 107.505C62.2956 107.647 62.1415 108.695 63.1488 108.695C68.2917 108.611 68.5524 99.2578 63.5991 99.3292C63.0606 99.3094 62.5229 99.3859 62.0112 99.5553C61.9401 98.877 63.1962 95.9139 61.869 93.6053C60.3996 91.0587 56.1454 91.2253 54.759 94.7358C54.2268 96.2543 53.9988 97.8635 54.0883 99.4707C54.1779 101.078 54.5829 102.652 55.2804 104.101C55.5529 104.637 56.2402 104.327 56.0743 103.613C52.5193 93.4625 59.4753 90.8445 61.0395 94.5097C62.343 97.568 59.5227 100.948 60.7432 101.65C61.6083 102.138 62.0467 100.222 63.7176 100.46C65.8861 100.841 66.2772 103.209 65.9217 104.791C65.3173 107.397 63.682 107.386 63.0777 107.505Z" fill="#1B1B1D"/>
  <path d="M50.8128 98.4606C44.1886 87.5364 42.5178 68.4369 50.7061 52.8717C52.5896 49.5554 54.6999 46.3744 57.0222 43.3517C58.1242 42.2688 57.0222 41.6976 56.4178 42.3878C49.5567 50.5393 44.1768 62.3441 44.1768 72.9827C44.1768 88.5717 48.0636 96.1639 50.007 98.4963C50.955 99.5911 51.4408 99.4959 50.8128 98.4606Z" fill="#1B1B1D"/>
  <path d="M45.3146 107.862C39.3896 109.73 40.065 102.828 45.9308 105.22C46.0031 105.264 46.0841 105.291 46.1682 105.301C46.2524 105.31 46.3375 105.301 46.4176 105.273C46.4977 105.246 46.5709 105.202 46.6322 105.143C46.6934 105.085 46.7412 105.013 46.7721 104.934C47.0921 104.208 46.464 104.03 45.8597 103.827C42.6246 102.745 46.227 96.5446 50.7063 104.113C51.0737 104.732 51.7017 104.303 51.5595 103.827C50.6115 100.436 46.8195 97.8774 44.4495 99.9599C43.9455 100.388 43.6084 100.981 43.4979 101.634C43.3873 102.287 43.5103 102.959 43.8452 103.53C41.0486 103.601 40.2902 104.72 39.9702 106.184C39.3303 109.635 44.8643 110.039 46.2744 108.683C46.8195 108.135 46.3692 107.528 45.3146 107.862Z" fill="#1B1B1D"/>
  <path d="M37.2685 86.7153C37.0907 86.3583 36.9722 85.6681 36.1546 86.1679C32.8247 88.2028 33.5002 87.8815 32.5996 86.9176C31.2487 85.5015 30.905 84.9541 30.2296 85.1207C29.9333 85.204 30.0044 85.8109 30.0755 86.1322C30.8932 89.9402 31.1539 88.9287 29.6134 89.4999C29.2579 89.6427 28.9498 89.8093 27.5041 90.4162C27.3679 90.4789 27.2525 90.5795 27.1717 90.706C27.0907 90.8326 27.0479 90.9798 27.0479 91.1302C27.0479 91.2806 27.0907 91.4278 27.1717 91.5544C27.2525 91.6809 27.3679 91.7816 27.5041 91.8442C31.9123 93.4983 30.9169 93.1889 31.2131 95.0572C31.5568 97.1992 31.616 97.7347 32.0663 97.7823C32.2499 97.8072 32.4365 97.7705 32.5972 97.6779C32.7579 97.5855 32.8837 97.4422 32.9551 97.2706C34.8037 92.7605 33.595 93.9505 35.3251 94.2599C38.2994 94.7954 38.4535 95.0929 38.8801 94.5693C39.3067 94.0457 38.4416 93.2722 38.015 92.7843C35.2184 89.5475 36.0479 91.6895 37.2685 86.7153ZM36.3916 93.2246C35.7584 93.1771 35.1435 92.9902 34.5904 92.6772C33.0973 92.1893 33.0973 95.1881 32.5048 95.6998C32.3613 95.0709 32.2819 94.429 32.2678 93.7839C32.2678 92.4749 31.5568 92.3797 29.4001 91.1897C28.9261 90.916 30.0044 90.8089 31.225 90.1901C32.4455 89.5713 31.4738 88.3813 31.4501 87.5483C31.4501 87.0485 32.2796 88.2504 32.801 88.9049C33.6068 89.9164 33.7016 88.3099 35.965 87.6316C35.5858 89.5951 34.2704 90.1068 35.5384 91.4634C37.387 93.4507 36.8893 93.2722 36.3916 93.2246Z" fill="#1B1B1D"/>
  <defs>
    <linearGradient id="paint0_linear_3901_17182" x1="98.2383" y1="231.128" x2="213.406" y2="175.344" gradientUnits="userSpaceOnUse">
      <stop stop-color="#00703F"/>
      <stop offset="1" stop-color="#36AA73"/>
    </linearGradient>
  </defs>
</svg>
