<svg width="232" height="188" viewBox="0 0 232 188" fill="none" xmlns="http://www.w3.org/2000/svg">
  <path d="M230.006 182.864C228.062 188.475 224.389 203.077 212.667 204.043C208.121 204.418 194.028 203.055 172.204 204.266C154.456 205.252 127.494 203.97 111.716 203.6C95.9376 203.23 57.9779 204.332 40.8467 203.966C23.6617 203.6 3.31428 209.062 0.822128 187.651C-1.2683 169.701 1.1628 156.532 2.21534 148.431C3.95899 135.009 2.58165 128.511 2.6366 125.699C3.12501 125.507 104.152 125.772 226.96 125.772C226.357 133.666 226.939 141.605 228.686 149.327C230.599 156.856 232.277 176.308 230.006 182.864Z" fill="white"/>
  <path d="M230.687 179.835C230.569 180.866 230.34 181.882 230.006 182.864C228.062 188.475 224.389 203.101 212.667 204.043C207.44 199.571 200.213 193.478 198.424 192.443C195.542 190.768 186.303 182.463 176.792 180.588C167.281 178.714 161.791 176.904 159.647 175.632C157.503 174.36 153.955 170.677 152.548 169.805C151.113 168.685 149.749 167.477 148.464 166.188C146.791 164.783 143.507 162.306 143.442 160.694C143.376 159.082 146.186 157.478 150.003 159.489C153.82 161.5 161.254 167.858 161.857 166.251C162.46 164.644 161.857 162.234 160.586 160.357C159.315 158.48 151.276 151.183 148.531 149.978C145.635 148.923 142.495 148.736 139.495 149.441C137.622 150.043 132.864 152.255 131.258 149.306C129.652 146.358 132.798 145.887 134.336 145.022C135.875 144.156 138.892 141.807 140.7 141.539C142.509 141.272 148.271 140.735 150.947 141.874C150.947 141.874 147.129 136.379 144.785 135.913C142.44 135.446 137.953 138.794 134.27 135.245C134.27 135.245 133.401 133.838 135.946 132.566C138.49 131.294 143.714 128.212 148.603 129.952C153.492 131.692 155.098 134.038 156.573 135.111C158.096 134.707 159.699 134.704 161.224 135.103C162.749 135.501 164.145 136.288 165.276 137.385C165.194 137.229 162.57 132.284 160.924 131.427C159.252 130.556 154.966 130.018 154.295 128.679C153.658 127.407 152.779 126.193 157.355 125.774C157.592 125.752 157.844 125.686 158.112 125.667C159.594 125.551 161.083 125.573 162.561 125.732C164.186 125.833 165.731 126.469 166.956 127.541C168.849 129.481 170.532 131.614 171.98 133.905C174.834 137.744 178.04 141.308 181.556 144.552C184.773 147.297 189.993 156.142 191.602 157.617C193.191 159.068 194.913 160.368 196.745 161.498C198.486 162.571 204.782 167.258 207.328 168.458C209.143 169.324 222.941 176.054 230.687 179.835Z" fill="#FDE6B9"/>
  <path d="M49.7525 181.707L25.5759 204.322C13.8661 204.503 3.49212 202.979 1.09277 189.478C2.17462 188.509 3.47991 187.813 4.42256 187.049C6.83289 185.095 30.6102 166.855 30.6102 166.855C37.9695 168.899 44.1846 174.333 49.7525 181.707Z" fill="#FDE6B9"/>
  <path d="M40.499 164.492C40.836 164.591 41.1337 164.792 41.3497 165.069C41.5658 165.346 41.6893 165.684 41.7029 166.034C41.6486 166.401 41.4693 166.737 41.1954 166.987C40.9215 167.236 40.5698 167.383 40.1998 167.403C39.8502 167.377 39.5213 167.228 39.2715 166.982C39.0217 166.736 38.8674 166.409 38.8359 166.06C38.9381 165.669 39.1483 165.315 39.4424 165.037C39.7365 164.76 40.1026 164.571 40.499 164.492Z" fill="#1B1B1D"/>
  <path d="M37.389 168.785C37.6655 168.806 37.9258 168.924 38.1248 169.117C38.3237 169.31 38.4488 169.567 38.4782 169.843C38.4241 170.123 38.2836 170.38 38.0763 170.577C37.8689 170.775 37.6051 170.902 37.3219 170.942C37.0441 170.929 36.7786 170.823 36.5677 170.642C36.3569 170.461 36.2127 170.214 36.1582 169.941C36.1963 169.635 36.3402 169.352 36.565 169.141C36.7897 168.93 37.0812 168.804 37.389 168.785Z" fill="#1B1B1D"/>
  <path d="M218.995 161.9C219.065 162.189 219.07 162.49 219.01 162.781C218.95 163.072 218.825 163.346 218.646 163.583C218.466 163.82 218.235 164.014 217.971 164.15C217.707 164.286 217.416 164.362 217.118 164.372C196.771 164.403 203.642 165.365 196.998 160.448C195.117 159.055 193.595 159.425 191.434 156.073C185.901 147.491 184.149 145.726 181.686 143.234C180.236 141.768 180.88 143.386 196.362 142.135C196.711 142.143 197.057 142.058 197.362 141.888C197.668 141.718 197.922 141.47 198.1 141.169C198.275 140.867 198.367 140.523 198.365 140.174C198.364 139.824 198.269 139.482 198.091 139.181C195.836 135.93 189.461 126.719 186.117 124.65C184.747 123.802 94.2401 124.327 93.4684 123.653C92.2371 122.751 90.7452 122.276 89.2192 122.299C86.931 122.097 82.1164 124.313 81.7464 123.901C80.8612 122.908 76.3909 122.689 75.0759 122.968C71.1795 123.792 77.9148 125.009 55.0654 123.769C52.6757 123.7 50.284 123.791 47.9064 124.041C47.0383 124.111 46.1518 123.93 45.2751 123.942C37.4043 124.052 39.5362 122.765 33.9194 130.084C33.3211 130.861 31.3003 133.332 27.0877 139.622C26.7986 140.006 26.672 140.488 26.735 140.965C26.7981 141.441 27.0457 141.874 27.4247 142.17C27.675 142.365 27.9729 142.492 28.288 142.538C36.2711 142.839 53.7894 142.583 54.4183 142.583C48.0469 152.422 51.0824 148.836 43.2494 155.833C43.2213 155.858 42.2726 156.924 41.623 156.545C39.8586 155.512 38.3432 156.129 36.8609 157.156C34.426 158.869 32.2007 160.863 30.2306 163.095C29.1439 164.316 29.1683 163.599 23.576 163.515C23.5515 163.515 7.91365 164.034 6.44474 163.466C5.137 162.959 5.7927 161.818 7.29947 159.559C8.38253 157.94 35.0171 122.304 35.53 121.66C37.7864 118.825 36.9952 120.116 65.1879 119.783C65.2123 119.783 174.809 119.852 178.944 119.81C191.127 119.688 188.077 117.124 196.603 128.292C201.846 135.145 216.079 153.916 218.995 161.9Z" fill="#B5B6BA"/>
  <path d="M219.397 165.68L218.607 172.962C203.344 165.531 204.835 166.318 204.946 166.167C216.89 166.167 217.22 166.382 219.397 165.68Z" fill="#8A8C93"/>
  <path d="M190.207 131.18C196.473 141.218 200.506 140.394 190.983 140.785C185.659 141.002 185.471 141.008 179.742 141.01C179.431 141.01 179.648 141.143 174.858 136.453C174.959 136.277 174.89 136.217 175.605 136.156C180.444 135.737 180.421 135.565 180.871 136.224C182.84 139.113 183.154 140.028 183.972 139.492C184.942 138.857 183.625 137.591 182.16 135.484C186.997 135.118 189.017 135.908 189.242 134.814C189.448 133.806 187.655 133.914 186.616 133.928C185.107 133.766 183.583 133.817 182.088 134.077C181.001 134.397 181.056 133.987 178.547 130.212C181.74 130.212 184.53 130.962 184.561 129.724C184.576 129.153 184.173 128.957 183.664 128.951C177.689 128.887 177.662 128.982 177.344 128.616C176.394 127.517 176.069 126.488 175.289 126.96C174.564 127.401 175.27 128.194 175.9 129.186C169.931 129.186 170.227 129.221 169.979 129.047C164.744 125.384 165.553 125.977 165.217 125.529C185.975 125.529 185.486 125.179 187.105 127.307C188.109 128.622 189.336 129.787 190.207 131.18Z" fill="white"/>
  <path d="M189.624 99.4166C189.654 101.476 189.906 109.918 189.51 112.376C189.022 115.366 188.2 118.056 184.959 118.195C177.503 118.515 44.7994 118.746 41.5135 118.637C38.3999 118.536 36.7869 117.89 35.6965 116.726C34.1287 115.052 33.9016 112.048 33.9748 105.904C34.4559 66.7268 33.7306 19.8107 34.0847 11.7531C34.2557 7.88605 33.0737 4.38532 38.8309 2.82727C42.8311 1.74421 56.4335 2.37549 71.6916 2.40357C88.9083 2.43532 168.777 2.301 178.916 2.48172C187.775 2.63923 188.814 3.00799 189.024 6.69065C189.637 17.3577 189.462 88.7031 189.624 99.4166ZM184.705 109.994C185.14 105.293 185.777 53.05 185.2 15.0255C185.137 13.9762 184.677 12.9903 183.912 12.2687C183.148 11.5472 182.137 11.1444 181.086 11.1426C178.024 10.9899 45.0521 10.8471 42.61 11.0632C39.4024 11.1572 37.6441 12.7067 37.3596 16.6617C36.9688 22.1991 37.246 34.9199 37.1483 66.3825C37.1483 66.4069 37.4951 108.125 37.953 109.957C38.0895 110.499 38.401 110.98 38.8393 111.327C39.2775 111.674 39.8179 111.867 40.3768 111.875C173.384 113.071 184.397 113.321 184.705 109.994ZM111.416 7.3378C111.782 4.77361 107.987 3.82486 107.692 7.23279C107.75 7.5277 107.843 7.81463 107.969 8.08752C108.714 9.28292 111.045 9.89222 111.416 7.3378Z" fill="#B5B6BA"/>
  <path d="M183.679 15.6756C183.758 17.1262 184.027 65.8738 183.485 100.567C183.315 111.476 184.024 109.862 177.29 109.819C80.367 109.209 51.4515 110.384 42.892 110.127C38.7038 110.005 39.6025 109.045 39.3204 106.038C39.1764 98.4549 38.9907 26.5209 38.9785 18.4889C38.9712 13.4203 40.6538 12.6706 44.7883 12.6034C47.0411 12.5656 165.492 12.4423 180.501 12.717C180.912 12.6642 181.33 12.7025 181.724 12.8293C182.119 12.9561 182.481 13.1683 182.784 13.4507C183.088 13.7331 183.325 14.0788 183.48 14.4633C183.635 14.8479 183.703 15.2618 183.679 15.6756ZM172.285 70.8105C172.393 66.1278 172.302 57.4096 172.119 55.6513C171.935 53.893 171.666 53.7929 170.581 53.4974C168.563 52.9479 93.8632 53.3753 93.7411 53.3814C54.7825 53.6537 54.4882 52.2934 54.1671 55.7526C54.045 57.0298 54.0254 64.4464 54.045 67.1449C54.0889 72.9815 53.7385 73.4846 56.8534 73.8705C60.072 74.2685 120.852 74.1623 125.018 74.1501C133.499 74.1244 166.91 74.3308 169.902 74.0683C172.343 73.8558 172.243 72.7801 172.285 70.8105ZM172.285 98.6833C172.393 94.0005 172.302 85.2848 172.119 83.5265C171.935 81.7682 171.666 81.6656 170.581 81.3701C168.574 80.8243 93.8632 81.2565 93.7411 81.2565C54.8142 81.5264 54.4894 80.1576 54.1671 83.6278C54.045 84.9026 54.0254 92.3216 54.045 95.0177C54.0889 100.838 53.7251 101.356 56.8534 101.743C60.1502 102.151 121.522 102.033 125.018 102.023C133.499 101.997 166.91 102.204 169.902 101.941C172.343 101.729 172.243 100.655 172.285 98.6833ZM130.867 26.1741C131.065 25.6857 129.646 24.9323 129.385 25.4525C127.947 28.2425 127.797 28.8518 127.629 28.2841C127.581 28.1253 127.515 27.9739 127.461 27.7883C124.653 18.1812 115.382 15.0577 106.818 17.8844C100.493 19.9724 96.7167 25.4488 96.4933 32.2622C96.4314 34.3757 96.7942 36.48 97.5603 38.4507C98.3264 40.4214 99.4801 42.2183 100.953 43.7351C102.426 45.2518 104.189 46.4575 106.136 47.2807C108.084 48.1039 110.177 48.528 112.291 48.5277C115.845 48.5836 119.312 47.425 122.118 45.2434C124.925 43.0618 126.903 39.9879 127.725 36.5298C127.827 36.1052 127.891 35.6725 127.917 35.2367C127.917 35.1524 128.01 34.5993 127.257 34.4552C127.129 34.4296 126.647 34.3929 126.505 34.675C126.375 34.9809 126.278 35.2998 126.216 35.6262C124.854 42.2992 119.378 46.5948 112.353 46.8598C108.652 46.8875 105.091 45.4494 102.447 42.8595C99.8024 40.2696 98.2908 36.7385 98.2418 33.0376C98.1319 18.2447 113.529 16.2092 120.238 20.4853C123.216 22.4138 125.322 25.4312 126.105 28.8921C126.162 29.1742 126.201 29.4441 125.847 29.2365C125.401 28.9764 123.637 28.0777 122.725 27.6626C122.421 27.5234 122.237 27.5234 122.037 27.7663C121.769 28.0875 121.575 28.7566 121.893 28.9227C124.427 30.2365 126.85 31.5259 127.04 31.554C127.359 31.7323 127.83 31.9802 128.082 31.504C128.497 30.7237 130.199 27.8359 130.872 26.1741H130.867ZM119.373 40.5458C119.901 40.5116 120.244 40.1795 120.094 39.2173C119.791 37.2722 118.818 29.0985 118.768 28.8384C118.558 27.759 118.523 27.9605 116.881 27.875C116.666 27.864 116.68 27.7883 116.65 27.4025C116.441 24.5342 115.213 22.4743 112.314 22.4743C109.416 22.4743 108.187 24.5379 107.98 27.4025C107.952 27.7883 107.963 27.8469 107.748 27.875C106.58 28.0301 105.982 27.6503 105.861 28.8384C105.837 29.0655 105.091 35.4247 104.685 38.3686C104.523 39.547 104.16 40.5384 105.796 40.5665C108.375 40.6141 119.129 40.5629 119.378 40.5458H119.373Z" fill="#C8FDE3"/>
  <path d="M177.058 130.724C179.733 134.529 179.384 134.064 179.456 134.405C173.839 134.828 173.832 135.029 173.374 134.283C170.81 130.121 171.265 130.945 171.106 130.516C177.074 130.524 176.876 130.472 177.058 130.724Z" fill="white"/>
  <path d="M170.831 56.5187C171.065 61.304 171.155 66.668 171.029 69.5594C170.98 70.6804 171.21 72.4655 170.046 72.6731C167.549 73.12 58.2709 72.7683 58.1451 72.7647C55.2585 72.6829 55.3819 72.0101 55.3281 69.7328C55.2427 66.1857 55.2769 58.2221 55.4502 56.0681C55.5577 54.7812 56.1279 54.7848 57.4869 54.7042C60.7032 54.5138 68.9061 54.4197 85.0336 54.526C126.033 54.7983 112.032 54.3196 143.668 54.41C148.919 54.4246 167.889 54.4576 168.936 54.5321C170.856 54.6603 170.759 55.0559 170.831 56.5187ZM119.169 65.1405C119.24 64.613 119.23 64.0782 119.14 63.5531C119.09 63.3407 119.082 63.2381 118.902 63.2137C117.959 63.0916 116.107 63.3126 116.355 63.0134C116.501 62.8376 117.196 62.5104 118.097 61.8058C118.789 61.2649 118.91 61.1135 118.523 60.63C117.424 59.249 117.458 59.2954 117.008 59.553C116.309 60.0353 115.64 60.5604 115.008 61.1245C114.989 61.1375 114.965 61.1427 114.943 61.1388C114.92 61.1349 114.899 61.1223 114.886 61.1037C114.822 61.017 114.946 59.6385 114.915 58.9339C114.899 58.5676 114.905 58.4565 114.558 58.3771C113.942 58.3271 113.322 58.3271 112.705 58.3771C112.358 58.4565 112.365 58.5676 112.351 58.9339C112.329 59.459 112.394 60.3296 112.398 61.0524C112.398 61.0647 112.395 61.0767 112.39 61.0878C112.385 61.0989 112.377 61.1089 112.368 61.1171C112.359 61.1253 112.348 61.1315 112.337 61.1355C112.325 61.1395 112.313 61.1412 112.301 61.1404C112.284 61.1395 112.268 61.134 112.254 61.1245C111.619 60.5612 110.95 60.0364 110.252 59.553C109.746 59.2636 109.822 59.3259 108.737 60.63C108.34 61.1062 108.47 61.2649 109.163 61.8058C110.065 62.5104 110.661 62.8376 110.806 63.0134C110.866 63.0855 110.772 63.1551 110.676 63.1575C109.852 63.1146 109.026 63.1318 108.204 63.2088C108.026 63.2515 107.972 63.3846 107.96 63.602C107.965 64.1038 108.003 64.6057 108.076 65.1026C108.076 65.4213 108.392 65.4201 108.548 65.4323C109.339 65.4868 110.134 65.4536 110.917 65.3334C111.052 65.3053 111.071 65.4274 111.016 65.4738C110.961 65.5202 110.871 65.574 110.787 65.6423C110.208 66.0993 109.682 66.6199 109.219 67.1943C109.115 67.6009 109.404 67.8207 110.146 68.4739C110.976 69.2066 110.821 68.977 112.455 67.0612C112.46 67.0529 112.469 67.0468 112.479 67.0439C112.488 67.041 112.499 67.0415 112.508 67.0453C112.518 67.049 112.525 67.0557 112.53 67.0643C112.536 67.073 112.538 67.083 112.536 67.0929C112.488 67.7474 112.455 68.8805 112.459 69.4422C112.459 69.905 112.737 69.7963 113.225 69.8378C113.628 69.8708 114.033 69.8574 114.433 69.7988C114.69 69.7438 114.782 69.7707 114.775 69.3677C114.764 68.8158 114.786 67.9025 114.737 67.0783C114.737 67.0697 114.738 67.0612 114.743 67.0539C114.747 67.0467 114.754 67.0411 114.762 67.0378C114.77 67.0345 114.778 67.0337 114.787 67.0355C114.795 67.0372 114.803 67.0415 114.809 67.0478C116.5 68.9367 116.377 69.264 117.209 68.5289C117.951 67.8756 118.24 67.6558 118.136 67.2468C117.646 66.6539 117.094 66.1159 116.488 65.6423C116.402 65.574 116.309 65.5202 116.257 65.4738C116.204 65.4274 116.22 65.3224 116.356 65.3334C117.157 65.4006 117.961 65.4177 118.765 65.3823C118.908 65.3798 119.124 65.4555 119.169 65.1405ZM102.861 65.1405C102.932 64.613 102.922 64.0782 102.832 63.5531C102.783 63.3407 102.775 63.2381 102.595 63.2137C101.651 63.0916 99.7985 63.3126 100.046 63.0134C100.193 62.8376 100.888 62.5104 101.79 61.8058C102.481 61.2649 102.603 61.1135 102.215 60.63C101.116 59.249 101.151 59.2954 100.701 59.553C100.002 60.0353 99.3333 60.5591 98.7008 61.1245C98.6816 61.1372 98.6583 61.1422 98.6356 61.1383C98.6129 61.1345 98.5925 61.1221 98.5787 61.1037C98.5152 61.0158 98.6397 59.6385 98.6092 58.9339C98.5921 58.5676 98.5982 58.4565 98.2527 58.3771C97.6354 58.3271 97.0151 58.3271 96.3979 58.3771C96.0536 58.4565 96.0597 58.5676 96.0438 58.9339C96.023 59.459 96.0877 60.3296 96.0914 61.0524C96.0913 61.0691 96.0866 61.0854 96.0778 61.0996C96.0689 61.1138 96.0564 61.1252 96.0415 61.1327C96.0265 61.1401 96.0099 61.1433 95.9932 61.1419C95.9766 61.1404 95.9607 61.1344 95.9473 61.1245C95.3115 60.5625 94.6437 60.0378 93.9473 59.553C93.4869 59.2905 93.5211 59.2624 92.4307 60.63C92.0437 61.1184 92.167 61.2649 92.8581 61.8058C93.758 62.5091 94.3539 62.8376 94.4992 63.0134C94.559 63.0855 94.465 63.1551 94.3771 63.1575C93.5527 63.1146 92.7263 63.1318 91.9045 63.2088C91.7262 63.2515 91.6737 63.3846 91.6602 63.602C91.6664 64.1038 91.7054 64.6057 91.7762 65.1026C91.7762 65.4213 92.0937 65.4201 92.2488 65.4323C93.04 65.4867 93.8349 65.4535 94.6188 65.3334C94.7519 65.3053 94.7715 65.4274 94.7177 65.4738C94.664 65.5202 94.5712 65.574 94.487 65.6423C93.9082 66.099 93.3831 66.6192 92.9204 67.1943C92.8141 67.6009 93.106 67.8207 93.8459 68.4739C94.6774 69.2066 94.5688 69.0161 96.1549 67.0612C96.1611 67.0533 96.1696 67.0476 96.1793 67.0449C96.189 67.0423 96.1993 67.0428 96.2086 67.0465C96.2178 67.0503 96.2257 67.0567 96.2311 67.065C96.2366 67.0733 96.2394 67.083 96.2392 67.0929C96.1947 67.8753 96.1694 68.6586 96.1635 69.4422C96.1635 69.905 96.437 69.7963 96.9278 69.8378C97.3308 69.8696 97.7337 69.8574 98.133 69.7988C98.3931 69.7438 98.4822 69.7707 98.4749 69.3677C98.4651 68.8158 98.4639 67.9025 98.4383 67.0783C98.4383 67.0697 98.4382 67.0612 98.4444 67.0539C98.4478 67.0483 98.4525 67.0436 98.4582 67.0402C98.4638 67.0367 98.4701 67.0347 98.4767 67.0342C98.4832 67.0338 98.4898 67.0349 98.4959 67.0374C98.5019 67.04 98.5073 67.0439 98.5115 67.049C100.156 68.977 100.077 69.264 100.911 68.5289C101.651 67.8756 101.944 67.6546 101.839 67.2468C101.349 66.6533 100.795 66.1152 100.188 65.6423C100.103 65.574 100.012 65.5202 99.9572 65.4738C99.9023 65.4274 99.9206 65.3224 100.059 65.3334C100.859 65.4004 101.663 65.4167 102.465 65.3823C102.601 65.3798 102.816 65.4555 102.857 65.1405H102.861ZM86.5526 65.1405C86.6234 64.613 86.6137 64.0782 86.5245 63.5531C86.4745 63.3407 86.4672 63.2381 86.2864 63.2137C85.3438 63.0916 83.4915 63.3126 83.7393 63.0134C83.8847 62.8376 84.5819 62.5091 85.4818 61.8058C86.1729 61.2649 86.295 61.1135 85.9079 60.63C84.809 59.2514 84.8456 59.2954 84.3926 59.553C83.6954 60.0365 83.0275 60.5616 82.3925 61.1245C82.3825 61.132 82.3711 61.1373 82.3589 61.1401C82.3468 61.1429 82.3341 61.1432 82.3219 61.1409C82.3096 61.1386 82.2979 61.1338 82.2876 61.1268C82.2773 61.1197 82.2685 61.1106 82.2619 61.1001C82.253 61.0858 82.2483 61.0693 82.2485 61.0524C82.2485 60.3296 82.3181 59.4651 82.2961 58.9339C82.2814 58.5676 82.2863 58.4565 81.942 58.3771C81.3243 58.3271 80.7036 58.3271 80.086 58.3771C79.7417 58.4565 79.7465 58.5676 79.7319 58.9339C79.7099 59.459 79.7746 60.3296 79.7783 61.0524C79.7782 61.0648 79.7755 61.0771 79.7704 61.0884C79.7653 61.0997 79.758 61.1099 79.7488 61.1183C79.7397 61.1266 79.7289 61.133 79.7172 61.137C79.7054 61.141 79.693 61.1426 79.6806 61.1416C79.6643 61.1401 79.6487 61.1342 79.6354 61.1245C78.9996 60.5625 78.3318 60.0378 77.6354 59.553C77.1775 59.2917 77.219 59.2551 76.12 60.63C75.733 61.1184 75.8539 61.2649 76.5462 61.8058C77.4461 62.5091 78.0432 62.8352 78.1897 63.0134C78.2471 63.0843 78.1519 63.1551 78.0578 63.1575C77.2335 63.114 76.4071 63.1312 75.5852 63.2088C75.4094 63.2515 75.3557 63.3846 75.3349 63.602C75.3422 64.1038 75.3838 64.6057 75.457 65.1026C75.457 65.4213 75.7733 65.4201 75.9296 65.4323C76.7204 65.4868 77.5148 65.4536 78.2984 65.3334C78.4315 65.3053 78.4522 65.4274 78.3997 65.4738C78.3472 65.5202 78.252 65.574 78.169 65.6423C77.5902 66.099 77.0639 66.6192 76.5999 67.1943C76.4949 67.6009 76.7855 67.8207 77.5279 68.4739C78.3607 69.2066 78.2044 68.977 79.8381 67.0612C79.844 67.0529 79.8525 67.0468 79.8622 67.0439C79.872 67.041 79.8824 67.0415 79.8918 67.0453C79.9011 67.049 79.9089 67.0557 79.914 67.0643C79.9191 67.073 79.9212 67.083 79.9199 67.0929C79.8745 67.8753 79.8488 68.6586 79.843 69.4422C79.843 69.905 80.1177 69.7963 80.6074 69.8378C81.0067 69.8708 81.4084 69.8598 81.8052 69.8049C82.0641 69.7499 82.1532 69.7768 82.1459 69.3738C82.1361 68.8219 82.1349 67.9086 82.1093 67.0844C82.1093 67.0758 82.1117 67.0673 82.1154 67.06C82.1188 67.0543 82.1236 67.0495 82.1293 67.046C82.135 67.0424 82.1414 67.0403 82.148 67.0397C82.1547 67.0391 82.1614 67.0401 82.1676 67.0425C82.1738 67.045 82.1793 67.0489 82.1837 67.0539C83.8273 68.9831 83.7479 69.2701 84.5819 68.535C85.323 67.8817 85.6161 67.6607 85.5099 67.2529C85.0197 66.6603 84.4671 66.1224 83.8614 65.6484C83.7772 65.5801 83.6832 65.5263 83.6319 65.4799C83.5806 65.4335 83.594 65.3285 83.7308 65.3395C84.5306 65.4067 85.334 65.4238 86.1362 65.3884C86.2925 65.3798 86.5087 65.4555 86.549 65.1405H86.5526ZM70.2481 65.1405C70.3245 64.6132 70.3134 64.0768 70.2151 63.5531C70.1736 63.3395 70.1589 63.2381 69.9806 63.2137C69.0356 63.0855 67.182 63.3126 67.4311 63.0134C67.5764 62.8376 68.2736 62.5091 69.1735 61.8058C69.8646 61.2649 69.999 61.1062 69.6021 60.63C68.5142 59.3234 68.5899 59.2648 68.0844 59.553C67.3878 60.0377 66.72 60.5624 66.0843 61.1245C66.0715 61.1367 66.0553 61.1449 66.0379 61.148C66.0204 61.1511 66.0025 61.149 65.9862 61.142C65.9699 61.1349 65.9561 61.1233 65.9464 61.1085C65.9367 61.0936 65.9316 61.0763 65.9317 61.0586C65.9317 60.3357 66.0013 59.4712 65.9793 58.94C65.9634 58.5737 65.9695 58.4626 65.6252 58.3832C65.0084 58.3332 64.3885 58.3332 63.7716 58.3832C63.4249 58.4626 63.431 58.5737 63.4151 58.94C63.3907 59.4651 63.4578 60.3357 63.4615 61.0586C63.4614 61.071 63.4587 61.0832 63.4536 61.0945C63.4486 61.1059 63.4412 61.116 63.4321 61.1244C63.4229 61.1327 63.4121 61.1391 63.4004 61.1431C63.3886 61.1471 63.3762 61.1487 63.3638 61.1477C63.3475 61.1461 63.3319 61.1402 63.3186 61.1306C62.685 60.566 62.017 60.0412 61.3186 59.5591C60.8607 59.2978 60.9022 59.2612 59.8033 60.6361C59.4162 61.1245 59.5371 61.271 60.2294 61.8119C61.1305 62.5165 61.7264 62.8437 61.8729 63.0195C61.9315 63.0916 61.8375 63.1612 61.7411 63.1636C60.9167 63.1201 60.0903 63.1373 59.2684 63.2149C59.0926 63.2576 59.0377 63.3907 59.0242 63.6081C59.0291 64.1099 59.067 64.6118 59.139 65.1088C59.139 65.4274 59.4553 65.4262 59.614 65.4384C60.4048 65.4929 61.1993 65.4597 61.9828 65.3395C62.1159 65.3114 62.1342 65.4335 62.0817 65.4799C62.0292 65.5263 61.9364 65.5801 61.8509 65.6484C61.2715 66.1054 60.7452 66.626 60.2819 67.2004C60.1757 67.607 60.4699 67.8268 61.2099 68.48C62.0414 69.2127 61.8864 68.9831 63.5201 67.0673C63.526 67.059 63.5345 67.0529 63.5442 67.05C63.554 67.0471 63.5644 67.0476 63.5738 67.0514C63.5831 67.0551 63.5909 67.0618 63.596 67.0704C63.6011 67.0791 63.6032 67.0891 63.6019 67.099C63.4676 70.2066 63.3663 69.7646 64.2894 69.8439C64.6923 69.8757 65.0953 69.8635 65.4958 69.8049C65.7546 69.7499 65.8438 69.7768 65.8364 69.3738C65.8267 68.8219 65.8254 67.9086 65.7998 67.0844C65.7998 67.0758 65.8022 67.0673 65.8059 67.06C65.8094 67.0543 65.8142 67.0495 65.8198 67.046C65.8255 67.0424 65.8319 67.0403 65.8386 67.0397C65.8452 67.0391 65.8519 67.0401 65.8581 67.0425C65.8643 67.045 65.8698 67.0489 65.8743 67.0539C67.5178 68.9831 67.4384 69.2701 68.2724 68.535C69.0148 67.8805 69.3066 67.6607 69.2004 67.2529C68.7103 66.6603 68.1576 66.1224 67.552 65.6484C67.4677 65.5801 67.3737 65.5263 67.3224 65.4799C67.2711 65.4335 67.2846 65.3285 67.4213 65.3395C68.2211 65.4067 69.0246 65.4226 69.8268 65.3884C69.9867 65.3798 70.2053 65.4555 70.2444 65.1405H70.2481Z" fill="white"/>
  <path d="M170.831 84.3935C171.065 89.1787 171.155 94.5428 171.029 97.4342C170.98 98.5575 171.21 100.343 170.046 100.55C167.533 101 58.2696 100.646 58.1451 100.642C55.2585 100.559 55.3819 99.8848 55.3281 97.6076C55.2427 94.0604 55.2769 86.0992 55.4502 83.9453C55.5577 82.6559 56.1279 82.662 57.4869 82.5814C60.7032 82.3934 68.9061 82.2945 85.0336 82.4007C126.033 82.673 112.032 82.1956 143.668 82.2847C148.919 82.2994 167.867 82.292 168.914 82.3641C170.834 82.4947 170.759 82.9306 170.831 84.3935ZM119.169 93.0152C119.239 92.4902 119.229 91.9578 119.14 91.4364C119.09 91.224 119.082 91.1189 118.902 91.0945C117.986 90.9724 116.106 91.1995 116.355 90.8967C116.501 90.7184 117.196 90.3912 118.097 89.6867C118.789 89.1457 118.911 88.9943 118.523 88.5108C117.406 87.1151 117.452 87.1786 117.008 87.4338C116.309 87.9162 115.642 88.4412 115.008 89.0053C114.995 89.0159 114.979 89.0224 114.962 89.0241C114.946 89.0259 114.929 89.0227 114.914 89.0151C114.899 89.0076 114.886 88.9959 114.877 88.9814C114.869 88.9669 114.864 88.9502 114.865 88.9333C114.92 86.4582 115.035 86.3691 114.555 86.258C113.938 86.2116 113.318 86.2116 112.701 86.258C112.354 86.3398 112.362 86.4509 112.347 86.8148C112.325 87.3398 112.389 88.2104 112.395 88.9333C112.395 88.95 112.39 88.9663 112.381 88.9804C112.372 88.9946 112.36 89.006 112.345 89.0135C112.33 89.0209 112.313 89.0241 112.297 89.0227C112.28 89.0212 112.264 89.0152 112.251 89.0053C111.617 88.4395 110.948 87.9146 110.248 87.4338C109.743 87.1432 109.826 87.2031 108.733 88.5108C108.335 88.9858 108.467 89.1457 109.159 89.6867C110.061 90.3912 110.656 90.7184 110.803 90.8967C110.861 90.9688 110.768 91.0384 110.672 91.0408C109.848 90.997 109.022 91.0134 108.2 91.0896C108.022 91.1324 107.968 91.2679 107.956 91.4865C107.961 91.9883 108 92.489 108.072 92.9859C108.072 93.3034 108.389 93.301 108.545 93.3132C109.336 93.3665 110.13 93.3342 110.914 93.2167C111.048 93.1862 111.067 93.3083 111.013 93.3547C110.958 93.4011 110.867 93.4548 110.783 93.5232C110.201 93.9781 109.672 94.4975 109.207 95.0715C109.103 95.4805 109.392 95.7003 110.133 96.3536C110.964 97.0862 110.768 96.8188 112.442 94.9384C112.449 94.9311 112.457 94.926 112.467 94.9239C112.476 94.9217 112.486 94.9225 112.495 94.9262C112.504 94.9297 112.512 94.936 112.517 94.9441C112.522 94.9522 112.525 94.9617 112.524 94.9713C112.475 95.6246 112.442 96.7577 112.447 97.3218C112.447 97.7822 112.724 97.6735 113.213 97.715C113.616 97.748 114.021 97.7346 114.42 97.6759C114.678 97.621 114.77 97.6503 114.762 97.2449C114.751 96.6954 114.773 95.7797 114.725 94.9555C114.725 94.9469 114.726 94.9384 114.731 94.931C114.735 94.9235 114.742 94.9176 114.75 94.9143C114.758 94.911 114.767 94.9104 114.776 94.9127C114.784 94.9152 114.791 94.9204 114.797 94.9274C116.443 96.8542 116.364 97.1411 117.197 96.4061C117.938 95.7528 118.228 95.533 118.124 95.124C117.634 94.5311 117.081 93.9931 116.475 93.5195C116.39 93.4511 116.297 93.3974 116.245 93.351C116.192 93.3046 116.208 93.2008 116.344 93.213C117.145 93.2802 117.949 93.2948 118.753 93.2594C118.908 93.2558 119.124 93.3327 119.169 93.0152ZM102.861 93.0152C102.932 92.4905 102.922 91.9581 102.832 91.4364C102.783 91.224 102.775 91.1189 102.595 91.0945C101.678 90.9724 99.7973 91.1995 100.046 90.8967C100.193 90.7184 100.888 90.3912 101.79 89.6867C102.481 89.1457 102.603 88.9943 102.215 88.5108C101.098 87.1151 101.144 87.1786 100.701 87.4338C100.002 87.9162 99.3333 88.4412 98.7008 89.0053C98.6874 89.0157 98.6714 89.0221 98.6546 89.0239C98.6377 89.0256 98.6207 89.0225 98.6055 89.0151C98.5905 89.0075 98.5779 88.9957 98.5693 88.9813C98.5606 88.9668 98.5563 88.9501 98.5567 88.9333C98.6129 86.4277 98.7215 86.3691 98.2478 86.258C97.6304 86.2116 97.0104 86.2116 96.393 86.258C96.0487 86.3398 96.0548 86.4509 96.0389 86.8148C96.0169 87.3398 96.0816 88.2104 96.0865 88.9333C96.0868 88.9501 96.0824 88.9667 96.0738 88.9811C96.0651 88.9956 96.0526 89.0074 96.0377 89.0151C96.0226 89.0228 96.0055 89.026 95.9886 89.0243C95.9717 89.0226 95.9557 89.016 95.9424 89.0053C95.3088 88.4407 94.6409 87.9159 93.9424 87.4338C93.4869 87.1725 93.5284 87.131 92.4258 88.5108C92.0388 88.9931 92.1621 89.1457 92.8532 89.6867C93.7531 90.39 94.3478 90.7184 94.4943 90.8967C94.5541 90.9688 94.4601 91.0384 94.3722 91.0408C93.5479 90.997 92.7215 91.0134 91.8996 91.0896C91.7213 91.1324 91.6688 91.2679 91.6554 91.4865C91.6615 91.9883 91.7005 92.489 91.7714 92.9859C91.7714 93.3034 92.0888 93.301 92.2439 93.3132C93.0351 93.3665 93.8297 93.3342 94.6139 93.2167C94.747 93.1862 94.7666 93.3083 94.7128 93.3547C94.6591 93.4011 94.5663 93.4548 94.4821 93.5232C93.898 93.9781 93.3672 94.4975 92.8996 95.0715C92.7934 95.4805 93.0852 95.7003 93.8252 96.3536C94.6567 97.0862 94.4613 96.8188 96.1341 94.9384C96.1403 94.9304 96.1489 94.9247 96.1586 94.9221C96.1682 94.9194 96.1785 94.92 96.1879 94.9237C96.1972 94.9273 96.2051 94.9337 96.2106 94.942C96.2161 94.9503 96.2188 94.9602 96.2184 94.9701C96.1739 95.7533 96.1486 96.5374 96.1427 97.3218C96.1427 97.7822 96.4162 97.6735 96.9071 97.715C97.31 97.748 97.713 97.7346 98.1122 97.6759C98.3723 97.621 98.4615 97.6503 98.4541 97.2449C98.4444 96.6954 98.4639 95.7797 98.4175 94.9555C98.4175 94.9469 98.4199 94.9384 98.4248 94.931C98.4284 94.9257 98.4332 94.9214 98.4387 94.9182C98.4443 94.9151 98.4505 94.9132 98.4569 94.9129C98.4633 94.9125 98.4696 94.9136 98.4755 94.9162C98.4814 94.9187 98.4866 94.9225 98.4908 94.9274C100.135 96.8542 100.056 97.1411 100.89 96.4061C101.63 95.7528 101.923 95.5318 101.818 95.124C101.328 94.5304 100.774 93.9924 100.167 93.5195C100.082 93.4511 99.9914 93.3974 99.9365 93.351C99.8815 93.3046 99.8998 93.2008 100.038 93.213C100.839 93.2802 101.642 93.2948 102.444 93.2594C102.601 93.2558 102.816 93.3327 102.857 93.0152H102.861ZM86.5526 93.0152C86.6222 92.4902 86.6137 91.9578 86.5245 91.4364C86.4745 91.224 86.4672 91.1189 86.2864 91.0945C85.3707 90.9724 83.4903 91.1995 83.7393 90.8967C83.8859 90.7184 84.5819 90.3912 85.4818 89.6867C86.1729 89.1457 86.295 88.9943 85.9079 88.5108C84.7992 87.1261 84.8432 87.1762 84.3926 87.4338C83.6942 87.9162 83.025 88.44 82.3925 89.0053C82.3792 89.0157 82.3632 89.0221 82.3463 89.0239C82.3295 89.0256 82.3125 89.0225 82.2973 89.0151C82.2822 89.0075 82.2697 88.9957 82.261 88.9813C82.2524 88.9668 82.248 88.9501 82.2485 88.9333C82.2655 86.5034 82.4621 86.3813 81.942 86.258C81.3242 86.2116 80.7038 86.2116 80.086 86.258C79.7417 86.3398 79.7465 86.4509 79.7319 86.8148C79.7099 87.3398 79.7734 88.2104 79.7783 88.9333C79.7787 88.9501 79.7744 88.9668 79.7657 88.9813C79.7571 88.9957 79.7445 89.0075 79.7294 89.0151C79.7143 89.0226 79.6974 89.0256 79.6806 89.0236C79.6641 89.0221 79.6484 89.0157 79.6354 89.0053C79.0014 88.4412 78.3335 87.9164 77.6354 87.4338C77.3911 87.2934 77.269 87.2031 77.0407 87.4241C76.7159 87.7708 76.4168 88.1396 76.12 88.5108C75.7318 88.9992 75.8539 89.1457 76.5462 89.6867C77.4461 90.39 78.0432 90.7172 78.1897 90.8967C78.2471 90.9675 78.1519 91.0384 78.0578 91.0408C77.2336 90.9964 76.4071 91.0128 75.5852 91.0896C75.4094 91.1324 75.3557 91.2679 75.3349 91.4865C75.3422 91.9883 75.3838 92.489 75.457 92.9859C75.457 93.3034 75.7733 93.301 75.9296 93.3132C76.7203 93.3665 77.5146 93.3342 78.2984 93.2167C78.4315 93.1862 78.4522 93.3083 78.3997 93.3547C78.3472 93.4011 78.252 93.4548 78.169 93.5232C77.5865 93.9786 77.0578 94.4988 76.5914 95.0715C76.4851 95.4805 76.777 95.7003 77.5194 96.3536C78.3521 97.0862 78.1995 96.8566 79.8296 94.9384C79.836 94.9311 79.8445 94.926 79.8539 94.9239C79.8633 94.9217 79.8731 94.9225 79.8821 94.9262C79.8911 94.9297 79.8987 94.936 79.904 94.9441C79.9092 94.9522 79.9118 94.9617 79.9114 94.9713C79.8659 95.7541 79.8402 96.5378 79.8345 97.3218C79.8345 97.7822 80.1092 97.6735 80.5988 97.715C81.0018 97.7492 81.4047 97.737 81.8052 97.6796C82.0641 97.6247 82.1532 97.654 82.1459 97.2486C82.1361 96.6991 82.1557 95.7833 82.1093 94.9591C82.1093 94.9506 82.1117 94.942 82.1166 94.9347C82.1203 94.9294 82.1252 94.925 82.1308 94.9219C82.1365 94.9187 82.1428 94.9169 82.1493 94.9165C82.1557 94.9162 82.1622 94.9173 82.1682 94.9198C82.1742 94.9223 82.1795 94.9262 82.1837 94.931C83.8273 96.8578 83.7479 97.1448 84.5819 96.4097C85.323 95.7565 85.6161 95.5355 85.5099 95.1276C85.0197 94.535 84.4671 93.9971 83.8614 93.5232C83.7772 93.4548 83.6832 93.4011 83.6319 93.3547C83.5806 93.3083 83.594 93.2045 83.7308 93.2167C84.5308 93.2835 85.3343 93.299 86.1362 93.2631C86.2925 93.2558 86.5075 93.3327 86.549 93.0152H86.5526ZM70.2481 93.0152C70.3238 92.4902 70.3128 91.9578 70.2151 91.4364C70.1736 91.2227 70.1589 91.1189 69.9806 91.0945C69.0697 90.9724 67.1808 91.1995 67.4311 90.8967C67.5776 90.7184 68.2736 90.3912 69.1735 89.6867C69.8646 89.1457 70.0002 88.9858 69.6021 88.5108C68.5215 87.2189 68.596 87.1408 68.0844 87.4338C67.3859 87.9162 66.7168 88.4412 66.0843 89.0053C66.0746 89.0153 66.0628 89.0228 66.0497 89.0274C66.0366 89.032 66.0226 89.0334 66.0089 89.0317C65.9951 89.0299 65.982 89.0249 65.9705 89.0172C65.959 89.0094 65.9495 88.9991 65.9427 88.987C65.9334 88.9707 65.9296 88.9519 65.9317 88.9333C65.9488 86.5034 66.1453 86.3813 65.6252 86.258C65.0082 86.2116 64.3886 86.2116 63.7716 86.258C63.2954 86.3703 63.4053 86.4228 63.4615 88.9333C63.4619 88.9501 63.4576 88.9668 63.4489 88.9813C63.4403 88.9957 63.4277 89.0075 63.4127 89.0151C63.3976 89.0227 63.3806 89.0257 63.3638 89.0236C63.3473 89.0221 63.3316 89.0157 63.3186 89.0053C62.6846 88.4412 62.0167 87.9164 61.3186 87.4338C61.0744 87.2934 60.9523 87.2031 60.7239 87.4241C60.3991 87.7708 60.1 88.1396 59.8033 88.5108C59.415 88.9992 59.5371 89.1457 60.2294 89.6867C61.1305 90.3912 61.7264 90.7184 61.8729 90.8967C61.9315 90.9688 61.8375 91.0384 61.7411 91.0408C60.9168 90.9964 60.0903 91.0128 59.2684 91.0896C59.0926 91.1324 59.0377 91.2679 59.0242 91.4865C59.0291 91.9883 59.067 92.489 59.139 92.9859C59.139 93.3034 59.4553 93.301 59.614 93.3132C60.4048 93.3659 61.1989 93.3336 61.9828 93.2167C62.1159 93.1862 62.1342 93.3083 62.0817 93.3547C62.0292 93.4011 61.9364 93.4548 61.8509 93.5232C61.2721 93.979 60.7462 94.4984 60.2831 95.0715C60.1769 95.4805 60.4712 95.7003 61.2111 96.3536C62.0426 97.0862 61.8766 96.842 63.5213 94.9384C63.5277 94.9311 63.5362 94.926 63.5456 94.9239C63.555 94.9217 63.5649 94.9225 63.5738 94.9262C63.5828 94.9297 63.5905 94.936 63.5957 94.9441C63.601 94.9522 63.6036 94.9617 63.6031 94.9713C63.5714 95.6258 63.5189 96.7577 63.5262 97.3218C63.5262 97.7822 63.8009 97.6735 64.2906 97.715C64.6935 97.748 65.0965 97.7346 65.497 97.6759C65.7558 97.621 65.845 97.6503 65.8376 97.2449C65.8279 96.6954 65.8474 95.7797 65.801 94.9555C65.801 94.9469 65.8035 94.9384 65.8083 94.931C65.8121 94.9257 65.8169 94.9213 65.8226 94.9182C65.8283 94.915 65.8346 94.9132 65.841 94.9129C65.8475 94.9125 65.854 94.9136 65.8599 94.9162C65.8659 94.9187 65.8712 94.9225 65.8755 94.9274C67.519 96.8578 67.4397 97.1472 68.2736 96.4146C69.016 95.7601 69.3078 95.5403 69.2016 95.1325C68.7115 94.5399 68.1588 94.002 67.5532 93.5281C67.469 93.4597 67.3749 93.406 67.3237 93.3596C67.2724 93.3132 67.2858 93.2094 67.4226 93.2216C68.2226 93.2884 69.026 93.3039 69.828 93.268C69.9868 93.2558 70.2053 93.3327 70.2444 93.0152H70.2481Z" fill="white"/>
  <path d="M161.254 164.126C161.398 164.534 162.154 166.746 159.251 164.729C158.397 164.133 157.61 163.736 156.861 163.189C152.416 159.95 149.147 157.156 146.115 157.556C143.847 157.855 140.942 159.895 143.904 163.801C122.005 163.801 96.706 163.903 89.8914 163.854C94.7756 158.158 93.2236 159.615 96.5485 153.667C97.1468 152.596 97.8917 151.61 98.5132 150.546C100.223 147.599 97.4435 145.983 95.5827 146.211C91.7681 146.68 89.8865 151.405 85.6238 154.336C84.9437 154.803 79.6859 157.606 79.25 156.987C82.0352 152.897 80.7275 154.016 87.956 146.422C89.7328 144.694 91.9872 143.539 94.4276 143.107C97.0223 142.509 101.716 147.787 104.844 145.974C105.473 145.608 107.444 145.14 106.763 143.105C106.317 141.772 124.956 143.793 134.876 142.982C136.999 142.808 133.712 144.188 131.5 145.517C129.249 146.869 129.583 149.311 131.683 150.663C134.136 152.243 137.574 151.295 140.985 150.113C142.384 149.625 142.816 149.662 147.57 150.453C148.416 150.594 148.338 150.719 154.069 155.287C157.002 157.618 159.549 159.289 161.254 164.126Z" fill="#B5B6BA"/>
  <path d="M162.437 134.904C158.611 132.8 157.132 134.995 155.966 133.624C155.336 132.883 154.728 132.123 154.117 131.376C158.066 131.019 160.743 131.969 162.437 134.904Z" fill="white"/>
  <path d="M95.3818 125.745C99.9913 125.537 149.216 125.547 153.524 125.547C152.194 127.087 153.036 127.974 153.949 129.794C151.097 129.96 151.303 130.114 149.877 129.413C144.889 126.962 141.262 129.413 139.465 129.092C138.522 128.926 137.775 128.891 128.985 128.998C125.759 129.037 125.52 129.398 125.407 128.68C125.346 128.282 125.148 127.906 125.067 127.507C124.973 127.046 124.623 126.756 124.274 126.844C124.059 126.897 123.734 127.675 123.759 127.896C123.984 129.867 124.874 129.148 116.447 129.148C116.595 127.764 116.766 127.403 116.096 127.212C115.241 126.968 115.226 127.988 114.972 129.195H111.843C111.122 127.774 109.724 127.573 108.302 127.441C105.916 127.277 103.542 126.972 101.193 126.526C99.526 126.375 99.8496 126.685 95.5467 126.369C95.4978 126.195 95.4539 126.019 95.3818 125.745Z" fill="white"/>
  <path d="M154.801 173C120.503 173 106.823 173.335 88.5529 172.869C78.4378 172.611 66.8709 173.064 66.833 172.674C78.8835 170.522 79.8982 170.277 84.6712 167.438C89.4821 164.578 83.3281 165.809 100.065 165.72C118.886 165.621 136.294 165.64 139.303 165.681C146.27 165.772 146.488 165.523 147.13 166.126C148.215 167.121 149.245 168.176 150.214 169.284C151.252 170.506 153.603 171.649 154.801 173Z" fill="#8A8C93"/>
  <path d="M125.849 130.547C147.181 130.547 133.186 129.925 133.111 134.614C133.092 135.918 134.644 135.653 126.762 135.347C126.487 133.885 126.182 132.286 125.849 130.547Z" fill="white"/>
  <path d="M124.345 130.671C124.657 132.266 124.956 133.815 125.284 135.464C122.058 135.852 118.935 135.194 115.617 135.319C115.808 133.808 115.968 132.406 116.181 131.015C116.306 130.203 117.31 131.082 124.345 130.671Z" fill="white"/>
  <path d="M114.798 37.2935C114.961 37.8027 114.902 38.1018 114.326 38.1226C113.935 38.136 110.873 38.1226 110.473 38.1226C109.716 38.1226 109.661 37.8527 109.84 37.2911C110.077 36.5487 110.532 34.7659 110.917 33.6841C110.931 33.6412 110.93 33.5944 110.914 33.5523C110.897 33.5102 110.865 33.4755 110.825 33.4545C110.428 33.1975 110.131 32.8127 109.983 32.3638C109.835 31.9149 109.844 31.4288 110.009 30.986C110.175 30.5431 110.487 30.17 110.893 29.9284C111.299 29.6867 111.776 29.591 112.244 29.6571C113.831 29.6351 114.564 30.2603 114.741 31.6108C114.796 31.9768 114.736 32.3508 114.57 32.6815C114.404 33.0122 114.139 33.2835 113.813 33.4582C113.772 33.4788 113.741 33.5134 113.724 33.5557C113.707 33.5979 113.706 33.6449 113.721 33.6878C114.112 34.7647 114.562 36.5499 114.798 37.2935Z" fill="white"/>
  <path d="M148.337 139.521C145.369 136.705 145.204 136.688 144.839 136.765C141.701 137.431 140.131 138.414 137.146 137.78C133.8 137.147 130.391 136.913 126.99 137.083C127.109 138.031 127.284 138.972 127.512 139.9C127.733 141.157 126.224 141.546 126 140.254C125.468 137.201 125.633 137.085 124.713 137.079C120.756 137.057 122.413 136.898 115.336 136.898C115.136 140.007 115.262 140.512 114.457 140.512C113.194 140.512 113.691 138.373 113.92 137.009C106.457 136.399 108.773 137.103 107.337 136.244C107.786 135.764 107.912 135.434 108.605 135.452C110.127 135.31 111.66 135.332 113.177 135.517C114.536 135.842 114.286 134.979 114.662 130.655C111.89 130.276 112.02 130.209 111.494 131.544C109.736 136.008 103.372 134.633 97.8398 134.633C98.0499 134.942 102.949 139.064 105.033 140.784C105.636 141.283 107.597 140.81 114.435 141.091C119.957 141.321 117.651 141.625 137.958 141.443C139.338 140.813 140.838 140.489 142.354 140.492C144.572 140.271 146.808 140.282 149.023 140.525C148.828 140.168 148.598 139.832 148.337 139.521Z" fill="white"/>
  <path d="M114.372 27.6184C114.388 27.9651 113.748 27.8846 113.452 27.8907H111.187C110.89 27.8846 110.25 27.9651 110.266 27.6184C110.328 26.2618 110.51 25.0127 111.869 24.7294C112.166 24.6683 112.471 24.6683 112.768 24.7294C114.122 25.0127 114.31 26.2642 114.372 27.6184Z" fill="#FFF2B7"/>
  <path d="M109.514 129.491C110.69 129.709 109.809 131.838 108.218 132.38C102.621 134.286 99.0605 129.694 80.906 137.9C76.4382 139.92 78.3846 141.831 79.2955 141.212C79.8376 140.847 80.3456 140.433 80.812 139.975C82.121 138.683 92.0773 135.973 92.103 135.971C95.2203 135.666 96.9334 135.586 99.0458 137.895C101.873 140.985 106.086 143.057 104.67 144.021C101.799 145.975 97.1178 140.372 93.3143 141.477C88.8709 142.766 85.4837 145.977 84.8182 147.512C84.7047 147.775 73.8106 158.073 79.0232 158.857C80.3663 159.057 80.558 158.63 84.6949 156.937C86.7951 156.083 88.2445 154.597 92.9699 149.542C94.0347 148.402 96.5183 147.211 97.2619 148.703C97.6868 149.558 96.7954 149.467 92.5389 157.582C90.4509 161.564 89.2421 161.113 85.8464 164.335C84.7217 165.182 83.5301 165.936 82.2834 166.59C79.6215 168.421 76.4602 168.708 66.5527 171.26C63.2021 172.124 61.5464 173.33 56.9064 172.875C56.3069 172.816 56.4632 172.865 52.5107 168.86C52.1102 168.453 51.2835 168.557 51.7781 166.768C52.2958 164.918 48.8964 162.243 47.4165 160.928C44.2748 158.137 43.464 158.337 44.105 157.681C45.4979 156.121 46.9691 154.633 48.513 153.223C50.2371 152.079 51.6684 150.545 52.6914 148.747C57.4095 141.359 55.6219 142.764 60.5061 138.081C62.8187 135.865 63.5672 136.161 65.0752 133.57C68.1107 128.354 71.609 127.087 73.7446 125.481C75.3393 124.282 75.5371 124.607 80.5214 125.018C78.4786 128.315 75.7483 126.718 69.9753 133.004C68.9569 134.113 70.4881 134.925 71.3184 134.177C74.7227 131.087 75.3295 130.148 78.757 128.852C80.9243 128.029 81.3285 125.951 83.8561 125.339C87.4496 124.471 90.9698 122.835 93.5316 126.444C91.3069 126.739 90.319 126.664 88.5192 127.696C81.4714 131.74 78.3382 131.032 74.5676 136.209C74.0792 136.879 74.8326 138.155 75.7044 137.245C76.4541 136.459 76.8229 134.844 81.2272 133.009C90.2873 129.233 89.2995 128.299 95.0323 128.259C98.6954 128.232 102.028 128.217 103.522 128.775C105.433 129.492 107.082 129.04 109.514 129.491Z" fill="#FDE6B9"/>
  <path d="M70.0517 125.807C62.5753 131.24 69.8429 128.717 60.6301 129.176C59.8059 129.216 58.9793 129.184 58.0305 129.184C58.2515 128.649 58.4091 128.207 58.613 127.796C58.9598 127.096 58.0195 126.453 57.6056 127.111C55.8168 129.944 58.5263 128.899 47.6102 128.899C48.4441 127.463 48.7714 127.236 48.112 126.693C47.5943 126.266 47.1278 126.987 46.4416 128.193C46.1388 128.724 46.2463 128.694 41.9335 128.601C40.8834 128.579 39.7601 128.01 39.0873 128.772C38.1801 129.799 39.6563 129.7 45.1314 130.247C44.8103 130.889 42.9678 134.783 42.2009 134.815C38.9041 134.949 38.3815 133.96 37.1458 134.649C37.0537 134.713 36.9785 134.799 36.9269 134.899C36.8752 134.999 36.8485 135.11 36.8491 135.223C36.9334 135.731 37.2924 135.693 41.6344 136.432C40.2656 138.76 39.4792 139.632 40.4133 140.127C40.9274 140.398 41.1863 139.986 41.4012 139.652C43.1277 136.965 42.5966 136.323 45.0179 136.345C51.7959 136.404 49.7702 136.357 52.962 136.711C52.5428 137.577 52.2524 138.499 52.0999 139.449C52.0534 139.615 52.0715 139.793 52.1505 139.947C52.2296 140.1 52.3639 140.219 52.5264 140.277C52.6889 140.336 52.8676 140.332 53.0267 140.264C53.1859 140.197 53.3137 140.072 53.3845 139.914C55.1037 136.292 52.8692 136.664 59.1234 136.664C53.7349 142.495 57.0122 141.312 51.1585 141.288C38.7967 141.236 32.501 141.359 29.8892 141.172C27.1638 140.976 28.4239 140.439 29.971 138.241C39.2277 125.054 39.0433 125.534 40.1252 125.525C66.5937 125.336 57.9268 125.807 70.0517 125.807Z" fill="white"/>
  <path d="M57.409 130.914C57.5763 130.573 57.6996 130.643 64.9282 130.643C61.3554 135.843 63.3408 134.957 55.5029 134.957C56.1073 133.659 56.7447 132.28 57.409 130.914Z" fill="white"/>
  <path d="M55.7119 174.695C56.1099 175.306 56.9891 176.391 56.0318 177.206C54.3561 178.677 52.589 180.04 50.741 181.288C50.3747 180.799 50.0353 180.327 49.6738 179.835C51.6788 178.129 53.6788 176.428 55.7119 174.695Z" fill="#8A8C93"/>
  <path d="M54.3144 173.107C54.4365 173.486 54.1923 173.686 53.9811 173.936C53.7369 174.216 50.1958 177.272 48.6927 178.711C48.2858 178.197 47.8522 177.704 47.3936 177.236C49.302 175.443 51.9712 173.178 53.1141 171.84C53.5305 172.248 54.3669 172.901 54.3144 173.107Z" fill="#8A8C93"/>
  <path d="M56.0518 130.506C53.8979 135.012 54.1543 135.39 52.4778 135.048C51.1347 134.779 50.8319 134.91 44.3701 134.91C46.5765 130.521 46.4007 130.312 47.4349 130.356C49.7305 130.454 48.3373 130.239 56.0518 130.506Z" fill="white"/>
  <path d="M50.6178 169.621L52.0086 170.773C50.0854 172.616 48.2111 174.411 46.31 176.235L44.8057 174.973C48.4273 171.758 46.8839 173.185 50.6178 169.621Z" fill="#8A8C93"/>
  <path d="M47.9991 165.868C48.0292 167.824 47.3049 169.724 45.9594 171.218C44.614 172.713 42.7383 173.701 40.6777 174C38.4974 173.987 36.4006 173.212 34.7962 171.827C33.1918 170.442 32.1949 168.546 32 166.509C32.1875 164.441 33.0935 162.489 34.5787 160.952C36.064 159.415 38.0463 158.378 40.221 158C42.2975 158.242 44.2163 159.164 45.6392 160.604C47.062 162.043 47.8978 163.907 47.9991 165.868Z" fill="#1B1B1D"/>
  <path d="M45.2684 170.788C45.2029 171.481 44.8945 172.129 44.3975 172.617C43.9006 173.105 43.2471 173.401 42.5528 173.454C41.972 173.368 41.4452 173.065 41.0782 172.607C40.7113 172.149 40.5314 171.569 40.5747 170.983C40.6 170.357 40.8562 169.762 41.2941 169.314C41.732 168.865 42.3205 168.595 42.946 168.555C43.5423 168.569 44.1117 168.806 44.5417 169.219C44.9717 169.633 45.231 170.193 45.2684 170.788Z" fill="#1B1B1D"/>
  <path d="M39.9831 158.887C40.3895 158.986 40.753 159.214 41.0192 159.537C41.2855 159.859 41.4403 160.259 41.4605 160.677C41.488 161.071 41.3871 161.463 41.1729 161.795C40.9587 162.127 40.6428 162.38 40.2725 162.517C39.9652 162.632 39.6328 162.661 39.31 162.604C38.9873 162.546 38.686 162.402 38.4376 162.188C38.1892 161.974 38.0028 161.697 37.898 161.387C37.7931 161.076 37.7735 160.743 37.8414 160.422C37.9551 159.952 38.2339 159.538 38.627 159.256C39.0201 158.975 39.5014 158.844 39.9831 158.887Z" fill="#1B1B1D"/>
  <path d="M33.5839 162.698C34.0939 162.466 34.6708 162.425 35.2086 162.583C35.7463 162.742 36.2087 163.089 36.5108 163.562C36.711 163.874 36.8331 164.23 36.8685 164.6C36.7647 166.286 35.9845 167.181 34.4826 167.305C32.1651 167.496 31.1736 164.205 33.5839 162.698Z" fill="#1B1B1D"/>
  <path d="M29.1382 166.246C29.275 166.759 29.1138 167.046 28.6632 167.397C22.9451 171.859 22.558 172.73 21.5067 172.749C16.1549 172.846 12.521 172.774 8.1546 172.653C5.76624 172.586 6.10447 171.078 5.29492 164.754C11.5406 165.461 25.9818 165.137 26.0075 165.14C29.5937 165.29 28.9087 165.382 29.1382 166.246Z" fill="#8A8C93"/>
  <path d="M221.046 174.145C231.629 179.207 232.369 179.568 231.895 180.616C231.837 180.741 231.755 180.853 231.654 180.946C231.552 181.038 231.433 181.11 231.304 181.156C231.175 181.203 231.037 181.223 230.9 181.216C230.763 181.209 230.628 181.174 230.504 181.115C230.504 181.115 206.797 169.382 205.573 168.704C197.959 164.493 200.56 165.708 197.932 163.59C194.161 160.554 196.58 162.663 192.961 160.335C190.031 158.446 188.836 155.13 183.737 148.214C180.173 143.377 178.871 143.094 175.718 139.713C173.705 137.693 171.882 135.494 170.272 133.141C168.881 131.108 169.83 131.056 165.982 128.306C164.698 127.397 163.207 126.826 161.645 126.643C156.877 126.066 156.953 126.563 155.117 126.947C154.247 127.129 155.469 128.656 156.412 129.089C162.557 131.921 159.618 127.501 169.452 140.77C170.084 141.625 168.782 142.235 168.146 141.822C165.337 139.984 163.563 136.752 158.684 135.716L158.587 135.852C161.137 139.102 161.472 139.681 162.563 140.972C163.529 142.112 165.127 143.14 165.118 143.753C165.094 145.408 162.431 143.477 161.146 141.885C155.529 134.925 157.804 137.743 154.729 134.912C153.9 133.908 152.956 133.006 151.915 132.225C146.532 129.741 146.409 130.257 144.337 130.255C141.377 130.255 136.336 133.46 135.524 134.116C134.025 135.327 137.391 136.129 138.821 136.118C142.081 136.094 144.727 133.45 147.246 135.958C148.209 136.915 149.286 137.759 150.238 138.727C155.309 143.88 150.806 140.644 158.975 145.366C159.506 145.674 159.63 146.587 159.45 146.709C158.663 147.278 158.434 146.667 153.647 144.417C152.049 143.667 148.519 142.006 147.524 142.036C141.696 142.209 139.973 142.135 137.562 144.027C133.334 147.343 130.591 147.034 132.49 148.866C135.129 151.41 139.985 147.421 143.02 148.011C146.765 148.736 147.402 147.947 150.338 150.136C158.291 156.064 162.464 158.458 163.563 166.394C163.556 166.619 163.496 166.84 163.388 167.037C163.279 167.235 163.125 167.404 162.939 167.531C162.753 167.658 162.539 167.739 162.315 167.767C162.092 167.796 161.865 167.771 161.652 167.695C154.159 164.738 154.061 161.873 148.221 159.621C146.182 158.834 143.687 159.837 144.572 161.731C145.818 164.394 147.591 163.184 151.044 167.55C152.122 168.912 152.203 168.539 157.352 172.801C158.371 173.719 159.559 174.431 160.849 174.897C162.574 175.456 164.245 176.194 165.977 176.72C166.11 176.76 179.696 179.615 185.956 183.059C191.546 186.133 198.743 191.833 204.809 196.709C207.162 198.6 213.046 203.058 213.516 203.455C214.759 204.653 213.225 206.148 211.251 204.565C195.121 191.622 193.095 189.302 186.58 185.492C180.194 181.762 165.245 178.538 161.999 177.338C153.825 174.316 160.29 174.516 151.242 174.636C147.226 174.688 117.247 174.758 99.9579 174.725C64.9702 174.654 60.4352 173.111 58.3204 176.895C57.3254 178.427 56.0211 179.734 54.4912 180.732C52.5705 182.409 51.6669 182.947 49.8195 183.22C49.5033 182.69 34.7177 197.702 26.754 204.909C25.5586 205.99 24.1666 204.325 25.6624 203.086C27.6393 201.447 30.5466 198.812 35.0437 194.518C52.0626 178.243 36.3685 193.326 48.7621 181.535C47.2916 179.607 45.6344 177.829 43.8144 176.227C43.0122 175.477 41.9181 177.392 38.9449 175.516C35.8809 173.533 33.0605 171.197 30.5417 168.556C30.2132 168.344 1.79713 190.606 1.77149 190.623C0.817855 191.307 -0.104031 190.16 0.773898 189.244C3.7044 186.192 19.9955 174.799 19.8002 174.312C16.7671 173.871 8.95244 174.444 6.32109 173.815C4.61163 173.406 4.49564 171.278 4.07926 168.413C2.85822 160.035 2.75443 163.814 30.1192 126.587C-0.925793 126.587 0.876466 126.565 0.595626 125.96C0.0034205 124.688 3.56154 125.046 22.0029 124.963C33.996 124.909 29.7578 126.383 34.5931 120.632C35.8557 119.128 37.0706 119.495 35.9717 118.943C30.2816 116.089 32.9972 110.212 32.3623 45.9074C32.3427 43.9636 32.7359 9.17972 32.7042 8.23952C32.3452 -2.40674 45.4689 1.01706 76.7703 0.91327C76.8131 0.91327 177.589 0.744766 183.742 1.18556C190.026 1.63491 190.161 2.77292 190.702 6.23701C191.38 10.5803 190.684 69.0633 191.172 94.2461C191.211 96.2681 191.106 99.6321 191.111 101.654C191.131 110.427 191.844 114.808 188.692 118.081C188.868 118.395 190.402 118.219 192.457 120.489C196.318 124.745 194.016 122.751 196.222 124.895C226.954 124.895 229.732 123.797 229.557 125.428C229.451 126.445 230.778 126.457 197.159 126.457C198.737 128.761 205.351 136.714 212.997 148.484C220.201 159.574 221.544 161.439 220.812 167.898C220.087 174.605 219.957 173.624 221.046 174.145ZM217.118 164.377C217.415 164.367 217.707 164.292 217.971 164.155C218.236 164.019 218.466 163.825 218.646 163.588C218.825 163.351 218.949 163.076 219.01 162.785C219.07 162.494 219.065 162.193 218.995 161.904C216.079 153.921 201.862 135.136 196.605 128.286C188.882 118.222 191.354 120.043 179.176 120.166C177.017 120.188 65.19 119.778 65.19 119.778C36.9973 120.442 37.5663 119.252 35.3086 122.086C34.7958 122.729 8.38465 157.934 7.30281 159.553C5.78994 161.816 5.13424 162.958 6.44808 163.461C7.91333 164.029 23.5537 163.51 23.5781 163.51C29.1717 163.594 29.1473 164.312 30.234 163.09C32.2036 160.857 34.4285 158.864 36.863 157.15C38.3417 156.12 39.857 155.503 41.6251 156.54C42.271 156.918 43.2234 155.853 43.2515 155.828C51.0845 148.83 48.049 152.417 54.4204 142.577C53.7916 142.577 36.2733 142.834 28.2901 142.532C27.9749 142.487 27.6769 142.36 27.4256 142.165C27.1743 141.969 26.9784 141.712 26.8572 141.417C26.7359 141.123 26.6936 140.802 26.7344 140.486C26.7752 140.17 26.8977 139.87 27.0898 139.616C31.3024 133.327 33.3244 130.855 33.9215 130.079C39.5481 122.76 37.4125 124.047 45.2833 123.937C46.16 123.925 47.0465 124.105 47.9147 124.036C50.2923 123.786 52.6839 123.695 55.0737 123.764C77.923 125.004 71.1914 123.787 75.0841 122.963C76.3992 122.684 80.8694 122.903 81.7559 123.895C82.1222 124.308 86.9392 122.092 89.2286 122.293C90.7511 122.272 92.2392 122.746 93.4681 123.645C94.2398 124.319 184.747 123.794 186.117 124.643C189.46 126.718 195.835 135.928 198.091 139.173C198.225 139.398 198.313 139.647 198.35 139.906C198.386 140.165 198.369 140.429 198.301 140.682C198.233 140.935 198.115 141.171 197.954 141.377C197.792 141.583 197.591 141.755 197.362 141.881C197.056 142.051 196.711 142.135 196.362 142.127C180.88 143.383 180.235 141.76 181.686 143.226C184.149 145.718 185.901 147.483 191.434 156.065C193.595 159.417 195.116 159.047 196.998 160.44C203.64 165.364 196.771 164.402 217.118 164.372V164.377ZM218.605 172.967L219.395 165.684C217.217 166.388 216.889 166.173 204.944 166.173C204.833 166.318 203.342 165.527 218.605 172.962V172.967ZM190.983 140.787C200.507 140.397 196.478 141.221 190.206 131.183C189.336 129.789 188.109 128.624 187.107 127.306C185.491 125.177 185.98 125.528 165.219 125.528C165.549 125.976 164.74 125.385 169.981 129.046C170.225 129.219 169.933 129.185 175.902 129.185C175.278 128.192 174.572 127.4 175.291 126.959C176.072 126.486 176.396 127.518 177.346 128.615C177.664 128.981 177.691 128.886 183.666 128.949C184.176 128.949 184.579 129.152 184.563 129.722C184.526 130.964 181.742 130.211 178.549 130.211C181.052 133.986 180.991 134.395 182.09 134.075C183.585 133.815 185.109 133.765 186.618 133.926C187.658 133.913 189.451 133.804 189.244 134.813C189.02 135.912 186.999 135.117 182.162 135.483C183.627 137.589 184.944 138.856 183.974 139.491C183.156 140.027 182.842 139.112 180.873 136.223C180.423 135.564 180.447 135.735 175.608 136.155C174.892 136.216 174.962 136.277 174.86 136.451C179.654 141.141 179.437 141.008 179.745 141.008C185.471 141.006 185.659 141 190.983 140.782V140.787ZM189.51 112.382C189.906 109.922 189.656 101.483 189.624 99.4233C189.46 88.7099 189.635 17.3693 189.024 6.69735C188.814 3.01468 186.912 2.5458 178.052 2.39073C167.917 2.21002 88.9026 2.44201 71.692 2.41027C56.429 2.38218 42.8315 1.75091 38.8313 2.83397C33.0741 4.39202 34.2573 7.89275 34.0864 11.7598C33.7286 19.8187 34.4527 66.7335 33.9765 105.911C33.7945 120.807 35.41 118.622 56.1836 118.476C59.688 118.451 177.6 118.518 184.96 118.202C188.2 118.058 189.028 115.368 189.51 112.377V112.382ZM179.455 134.417C179.383 134.076 179.727 134.545 177.057 130.737C176.876 130.479 177.074 130.532 171.106 130.532C171.264 130.962 170.809 130.136 173.373 134.299C173.831 135.036 173.841 134.836 179.455 134.412V134.417ZM159.251 164.736C162.152 166.753 161.397 164.54 161.253 164.132C159.544 159.296 157.001 157.624 154.072 155.29C148.341 150.722 148.419 150.597 147.572 150.456C142.824 149.664 142.387 149.631 140.987 150.116C137.577 151.298 134.139 152.246 131.686 150.666C129.585 149.314 129.252 146.872 131.502 145.52C133.715 144.19 136.997 142.811 134.879 142.985C124.956 143.8 106.32 141.779 106.765 143.107C107.447 145.143 105.476 145.612 104.847 145.977C101.719 147.79 97.025 142.511 94.4303 143.11C91.9899 143.542 89.7355 144.697 87.9588 146.425C80.7302 154.019 82.0379 152.896 79.2527 156.989C79.6886 157.608 84.9464 154.806 85.6266 154.338C89.8892 151.408 91.7709 146.682 95.5854 146.214C97.4438 145.985 100.225 147.602 98.5159 150.548C97.9054 151.613 97.1496 152.598 96.5512 153.669C93.2263 159.618 94.7734 158.16 89.8941 163.856C96.7087 163.905 122.008 163.804 143.907 163.804C140.945 159.897 143.85 157.857 146.118 157.558C149.153 157.159 152.42 159.955 156.863 163.192C157.611 163.738 158.393 164.135 159.251 164.731V164.736ZM155.961 133.631C157.131 135.002 158.609 132.807 162.433 134.91C160.738 131.98 158.061 131.026 154.109 131.383C154.724 132.126 155.331 132.885 155.961 133.626V133.631ZM153.519 125.551C149.211 125.551 99.986 125.541 95.3766 125.749L95.5378 126.373C99.8444 126.689 99.5172 126.373 101.184 126.53C103.533 126.976 105.907 127.281 108.293 127.445C109.714 127.577 111.112 127.778 111.834 129.2H114.968C115.222 127.992 115.233 126.974 116.092 127.217C116.762 127.407 116.591 127.769 116.443 129.152C124.868 129.152 123.98 129.871 123.755 127.9C123.73 127.679 124.055 126.902 124.27 126.848C124.619 126.76 124.969 127.051 125.063 127.511C125.144 127.91 125.342 128.286 125.403 128.684C125.516 129.402 125.755 129.041 128.981 129.002C137.772 128.896 138.518 128.93 139.461 129.096C141.258 129.411 144.885 126.966 149.873 129.417C151.299 130.118 151.094 129.964 153.945 129.798C153.037 127.974 152.194 127.086 153.524 125.546L153.519 125.551ZM154.795 173.006C153.592 171.655 151.247 170.512 150.209 169.29C149.239 168.182 148.21 167.128 147.124 166.132C146.482 165.529 146.27 165.778 139.297 165.687C136.289 165.646 118.88 165.627 100.059 165.726C83.3237 165.815 89.4765 164.584 84.6656 167.444C79.8901 170.283 78.8779 170.528 66.8274 172.68C66.8653 173.07 78.4273 172.617 88.5473 172.875C107.626 173.357 122.423 172.984 154.8 173.001L154.795 173.006ZM149.023 140.526C148.827 140.169 148.595 139.832 148.332 139.521C145.364 136.713 145.198 136.688 144.834 136.765C141.694 137.431 140.125 138.414 137.141 137.78C133.795 137.147 130.386 136.913 126.984 137.083C127.105 138.031 127.28 138.972 127.507 139.9C127.728 141.16 126.219 141.544 125.994 140.254C125.463 137.201 125.628 137.085 124.707 137.079C120.751 137.057 122.408 136.898 115.331 136.898C115.127 140.053 115.233 140.452 114.526 140.509C113.165 140.62 113.691 138.35 113.916 137.009C110.668 136.743 109.276 136.726 108.613 136.721C106.693 136.708 107.602 135.426 108.6 135.453C110.123 135.31 111.656 135.332 113.173 135.517C114.532 135.843 114.282 134.98 114.658 130.655C111.886 130.277 112.015 130.209 111.489 131.544C109.731 136.008 103.368 134.633 97.8358 134.633C98.0458 134.942 102.945 139.063 105.029 140.784C105.517 141.187 106.128 140.935 111.518 141.014C120.797 141.152 113.932 141.658 137.957 141.443C139.337 140.813 140.836 140.489 142.353 140.492C144.573 140.271 146.81 140.281 149.028 140.522L149.023 140.526ZM133.106 134.62C133.178 129.931 147.176 130.553 125.843 130.553L126.759 135.348C134.644 135.655 133.088 135.92 133.11 134.616L133.106 134.62ZM125.28 135.464L124.341 130.671C117.305 131.082 116.302 130.203 116.177 131.015C115.963 132.406 115.803 133.808 115.613 135.319C118.938 135.19 122.059 135.848 125.285 135.46L125.28 135.464ZM108.212 132.382C109.8 131.84 110.684 129.711 109.508 129.493C107.08 129.042 105.427 129.493 103.508 128.777C102.013 128.219 98.6832 128.234 95.0176 128.261C89.2787 128.301 90.2726 129.237 81.2125 133.01C76.8082 134.842 76.4394 136.461 75.6897 137.246C74.8179 138.157 74.0657 136.88 74.5529 136.211C78.3235 131.034 81.4567 131.742 88.5046 127.698C90.3044 126.666 91.2922 126.74 93.517 126.446C90.9528 122.837 87.4349 124.473 83.8414 125.341C81.3139 125.952 80.9109 128.027 78.7423 128.854C75.3149 130.154 74.7129 131.089 71.3037 134.179C70.4795 134.926 68.9483 134.114 69.9606 133.006C75.7337 126.72 78.4639 128.319 80.508 125.02C75.5225 124.608 75.3246 124.287 73.7299 125.483C71.5956 127.088 68.0973 128.356 65.0605 133.572C63.5526 136.163 62.8041 135.867 60.4914 138.083C55.6072 142.764 57.3936 141.361 52.6767 148.749C51.6536 150.547 50.2224 152.08 48.4983 153.225C46.9544 154.635 45.4832 156.123 44.0904 157.683C43.4493 158.339 44.2601 158.138 47.4018 160.93C48.8817 162.245 52.286 164.92 51.7634 166.77C51.264 168.559 52.0906 168.455 52.496 168.862C56.4546 172.867 56.2984 172.818 56.8918 172.876C61.5317 173.332 63.1826 172.125 66.538 171.262C76.4455 168.71 79.6032 168.419 82.2687 166.592C83.5151 165.937 84.7066 165.183 85.8317 164.336C89.2274 161.115 90.4363 161.566 92.5242 157.584C96.7808 149.469 97.6722 149.556 97.2472 148.705C96.5036 147.212 94.02 148.404 92.9553 149.543C88.2298 154.599 86.7817 156.081 84.6803 156.939C80.5434 158.632 80.348 159.059 79.0085 158.859C73.7959 158.075 84.69 147.777 84.8036 147.514C85.4691 145.979 88.8562 142.768 93.2996 141.478C97.1093 140.373 101.791 145.978 104.655 144.023C106.072 143.058 101.858 140.986 99.0312 137.897C96.9188 135.588 95.2056 135.667 92.0883 135.973C92.0627 135.973 82.1063 138.685 80.7974 139.977C80.3306 140.434 79.823 140.848 79.2808 141.213C78.3699 141.833 76.4236 139.922 80.8914 137.902C99.058 129.692 102.62 134.284 108.217 132.378L108.212 132.382ZM60.6245 129.179C69.8373 128.72 62.5696 131.242 70.0461 125.81C57.9211 125.81 66.5881 125.339 40.1305 125.524C39.0487 125.533 39.2331 125.051 29.9763 138.24C28.4342 140.438 27.1679 140.979 29.8945 141.171C32.5063 141.358 38.802 141.235 51.1639 141.287C57.0175 141.311 53.7403 142.494 59.1287 136.663C52.8709 136.663 55.0993 136.296 53.3898 139.913C53.3225 140.076 53.1951 140.206 53.034 140.277C52.8729 140.348 52.6907 140.354 52.5252 140.294C52.3597 140.234 52.2237 140.113 52.1454 139.955C52.0672 139.798 52.0528 139.616 52.1053 139.448C52.2577 138.498 52.5482 137.576 52.9674 136.71C49.7755 136.356 51.8013 136.403 45.0232 136.344C42.6019 136.322 43.1331 136.964 41.4065 139.651C41.1916 139.985 40.9328 140.397 40.4187 140.125C39.4797 139.631 40.2661 138.759 41.6397 136.431C37.2977 135.692 36.9387 135.73 36.8545 135.222C36.8541 135.109 36.8808 134.998 36.9325 134.898C36.9841 134.799 37.0592 134.713 37.1512 134.648C38.3869 133.962 38.9095 134.948 42.2063 134.814C42.9756 134.782 44.8181 130.888 45.1368 130.246C39.6617 129.699 38.1854 129.798 39.0926 128.771C39.7654 128.009 40.8888 128.578 41.9389 128.6C46.2516 128.693 46.1442 128.722 46.447 128.192C47.1332 126.986 47.5996 126.265 48.1174 126.692C48.7767 127.235 48.4495 127.462 47.6155 128.898C58.5316 128.898 55.8221 129.943 57.611 127.11C58.0249 126.455 58.9651 127.095 58.6183 127.795C58.4144 128.209 58.252 128.65 58.0359 129.183C58.9798 129.183 59.8052 129.215 60.6294 129.175L60.6245 129.179ZM64.9226 130.644C57.694 130.644 57.5707 130.575 57.4034 130.915C56.7391 132.283 56.1018 133.665 55.4974 134.958C63.3462 134.956 61.3547 135.841 64.9275 130.642L64.9226 130.644ZM56.0261 177.207C56.9834 176.393 56.1042 175.309 55.7061 174.697C53.6731 176.43 51.6767 178.13 49.6681 179.836C50.0344 180.325 50.3739 180.798 50.7353 181.289C52.5852 180.041 54.354 178.677 56.0309 177.205L56.0261 177.207ZM53.9759 173.94C54.1884 173.696 54.4289 173.489 54.3093 173.111C54.3618 172.904 53.5254 172.256 53.109 171.843C51.9661 173.186 49.2969 175.447 47.3884 177.239C47.8475 177.708 48.2798 178.2 48.6876 178.714C50.1919 177.273 53.7427 174.217 53.9808 173.937L53.9759 173.94ZM52.4728 135.051C54.1493 135.39 53.8929 135.014 56.0468 130.509C48.3311 130.236 49.7243 130.456 47.4299 130.358C46.3957 130.314 46.5752 130.523 44.3651 134.913C50.8317 134.91 51.1382 134.779 52.4777 135.048L52.4728 135.051ZM52.0113 170.769L50.6205 169.617C46.8853 173.182 48.43 171.759 44.8083 174.969L46.3127 176.232L52.0113 170.769ZM45.464 167.008C46.0093 166.923 46.5056 166.644 46.8617 166.223C47.2177 165.801 47.4096 165.265 47.4018 164.714C47.375 164.16 47.1538 163.634 46.7772 163.228C46.4006 162.822 45.8928 162.562 45.3432 162.494C44.768 162.601 44.2439 162.894 43.851 163.328C43.458 163.761 43.2179 164.311 43.1673 164.894C43.2185 165.469 43.4818 166.003 43.9057 166.394C44.3296 166.785 44.8839 167.004 45.4604 167.008H45.464ZM42.5555 173.451C43.2497 173.398 43.9029 173.102 44.3997 172.614C44.8966 172.126 45.2052 171.479 45.2711 170.786C45.2329 170.191 44.9737 169.632 44.5444 169.219C44.1151 168.806 43.5468 168.568 42.9511 168.553C42.3258 168.593 41.7377 168.864 41.2999 169.312C40.8621 169.761 40.6057 170.355 40.5799 170.981C40.5352 171.566 40.7139 172.146 41.0798 172.604C41.4457 173.063 41.9717 173.365 42.5519 173.451H42.5555ZM41.7008 166.034C41.6859 165.683 41.5619 165.346 41.346 165.07C41.1301 164.793 40.8332 164.591 40.4968 164.491C40.0994 164.569 39.7321 164.758 39.4377 165.036C39.1433 165.314 38.9339 165.67 38.8338 166.063C38.8654 166.412 39.0199 166.738 39.2696 166.984C39.5193 167.23 39.8482 167.38 40.1977 167.406C40.569 167.388 40.9225 167.241 41.1972 166.99C41.472 166.74 41.6509 166.402 41.7032 166.034H41.7008ZM41.4566 160.677C41.436 160.259 41.281 159.859 41.0148 159.537C40.7486 159.214 40.3853 158.986 39.9791 158.887C39.4973 158.843 39.0156 158.973 38.6224 159.255C38.2291 159.537 37.9504 159.951 37.8374 160.422C37.7849 160.677 37.7876 160.941 37.8454 161.195C37.9032 161.449 38.0147 161.688 38.1724 161.896C38.3302 162.104 38.5305 162.275 38.76 162.399C38.9894 162.523 39.2427 162.597 39.5029 162.615C39.8948 162.642 40.285 162.542 40.6162 162.331C40.9474 162.12 41.2021 161.808 41.343 161.441C41.4361 161.198 41.476 160.937 41.4602 160.677H41.4566ZM38.4736 169.843C38.4453 169.567 38.3206 169.31 38.1214 169.116C37.9223 168.923 37.6613 168.806 37.3844 168.786C37.0776 168.805 36.7871 168.931 36.5625 169.141C36.338 169.351 36.1935 169.632 36.1536 169.937C36.2081 170.21 36.3523 170.456 36.5631 170.638C36.774 170.819 37.0395 170.924 37.3173 170.937C37.6005 170.899 37.8646 170.772 38.0726 170.576C38.2806 170.38 38.4221 170.124 38.4772 169.843H38.4736ZM36.8703 164.603C36.8183 164.044 36.5664 163.524 36.161 163.136C35.7556 162.749 35.2239 162.521 34.6639 162.495C34.2932 162.477 33.9235 162.548 33.5857 162.701C31.1754 164.207 32.1669 167.499 34.4844 167.308C35.9851 167.184 36.7641 166.288 36.8703 164.603ZM28.6649 167.397C29.1155 167.046 29.2755 166.759 29.1399 166.246C28.9104 165.382 29.5954 165.29 26.0092 165.14C25.9835 165.14 11.5423 165.461 5.29664 164.754C6.10619 171.078 5.76796 172.586 8.15632 172.653C12.5228 172.775 16.1566 172.846 21.5084 172.749C22.561 172.731 22.9505 171.859 28.6625 167.397H28.6649Z" fill="#1B1B1D"/>
  <path d="M185.199 15.0268C185.785 53.0513 185.139 105.295 184.705 109.996C184.397 113.322 173.382 113.073 40.3775 111.871C39.8188 111.863 39.2784 111.67 38.8402 111.323C38.402 110.977 38.0905 110.495 37.9538 109.953C37.4959 108.121 37.1479 66.4034 37.1479 66.379C37.2456 34.9164 36.9708 22.1955 37.3603 16.6581C37.6387 12.7032 39.397 11.1537 42.6108 11.0596C48.9602 10.5138 58.5991 11.4919 82.8295 11.1817C86.9505 11.1292 178.029 10.99 181.089 11.1427C182.14 11.1452 183.15 11.5485 183.914 12.2702C184.678 12.9919 185.137 13.9778 185.199 15.0268ZM183.484 100.567C184.023 65.8734 183.757 17.1258 183.678 15.6752C183.7 15.2618 183.632 14.8484 183.478 14.4643C183.323 14.0801 183.086 13.7345 182.784 13.4517C182.481 13.1691 182.12 12.9567 181.726 12.8294C181.331 12.7022 180.914 12.6633 180.503 12.7154C165.494 12.4406 47.0432 12.564 44.7904 12.6018C40.6559 12.669 38.9733 13.4187 38.9807 18.4872C38.9929 26.5205 39.1785 98.4545 39.3226 106.036C39.6034 109.043 38.7059 109.999 42.8941 110.125C51.4536 110.383 80.3679 109.212 177.292 109.818C184.022 109.861 183.314 111.476 183.484 100.567Z" fill="#1B1B1D"/>
  <path d="M172.123 55.6545C172.306 57.4128 172.397 66.131 172.289 70.8137C172.242 72.7845 172.342 73.859 169.91 74.0715C166.917 74.334 133.507 74.1276 125.026 74.1533C121.028 74.1655 60.0871 74.2754 56.8611 73.8737C54.1833 73.5428 54.1162 73.0641 54.0698 69.9053C54.0393 67.8185 54.0136 57.4506 54.1711 55.7558C54.4935 52.2844 54.8268 53.6569 93.7451 53.3846C121.155 53.1929 154.309 53.2283 164.177 53.2759C171.712 53.3162 171.87 53.2271 172.123 55.6545ZM171.024 69.5658C171.146 66.6744 171.059 61.3104 170.826 56.5251C170.754 55.0598 170.85 54.6667 168.937 54.5348C167.179 54.4127 145.954 54.4225 143.669 54.4127C112.033 54.3223 126.033 54.801 85.0342 54.5287C68.9067 54.4225 60.7037 54.5165 57.4875 54.707C56.1285 54.7876 55.5582 54.7839 55.4508 56.0709C55.2713 58.2248 55.2371 66.1884 55.3287 69.7355C55.3824 72.0128 55.2591 72.6856 58.1456 72.7674C58.3898 72.7747 167.519 73.1337 170.047 72.6758C171.209 72.4719 170.98 70.6867 171.029 69.5658H171.024Z" fill="#1B1B1D"/>
  <path d="M172.123 83.5274C172.306 85.2857 172.397 94.0015 172.289 98.6842C172.242 100.657 172.342 101.73 169.91 101.942C166.917 102.204 133.507 101.998 125.026 102.024C121.559 102.034 60.1555 102.146 56.8611 101.744C54.1833 101.413 54.1162 100.937 54.0698 97.7758C54.0393 95.7 54.0136 85.3211 54.1711 83.6288C54.4923 80.1683 54.7755 81.5274 93.7451 81.2575C121.155 81.0683 154.309 81.0963 164.177 81.1464C171.662 81.1843 171.869 81.0878 172.123 83.5274ZM171.024 97.4363C171.146 94.5449 171.059 89.1809 170.826 84.3956C170.754 82.9304 170.826 82.4969 168.915 82.3662C166.817 82.2221 146.682 82.2954 143.669 82.2869C112.033 82.1977 126.033 82.6752 85.0342 82.4029C68.9067 82.2966 60.7037 82.3955 57.4875 82.5836C56.1285 82.6642 55.5582 82.6581 55.4508 83.9475C55.2713 86.1014 55.2371 94.0626 55.3287 97.6097C55.3824 99.887 55.2591 100.561 58.1456 100.644C58.4265 100.653 167.542 100.999 170.047 100.552C171.21 100.345 170.98 98.5609 171.029 97.4363H171.024Z" fill="#1B1B1D"/>
  <path d="M129.389 25.453C129.657 24.9329 131.069 25.685 130.872 26.1747C130.199 27.8365 128.497 30.7255 128.081 31.5094C127.83 31.9856 127.359 31.7377 127.04 31.5595C126.849 31.5314 124.427 30.242 121.893 28.9281C121.575 28.7621 121.771 28.0929 122.037 27.7718C122.241 27.5276 122.421 27.5276 122.725 27.668C123.637 28.0832 125.401 28.9819 125.847 29.2419C126.201 29.4495 126.162 29.1797 126.105 28.8976C125.324 25.4334 123.218 22.4125 120.237 20.4822C115.146 17.2366 106.684 18.1622 102.385 22.249C100.968 23.6494 99.8652 25.3356 99.1509 27.1953C98.4365 29.055 98.1265 31.0456 98.2416 33.0345C98.2905 36.7354 99.8022 40.2665 102.446 42.8564C105.09 45.4463 108.652 46.8844 112.353 46.8567C119.38 46.5954 124.854 42.2998 126.216 35.6231C126.278 35.2967 126.375 34.9779 126.505 34.6719C126.652 34.3898 127.129 34.4277 127.257 34.4521C128.009 34.5962 127.92 35.1493 127.917 35.2336C127.891 35.6694 127.827 36.1021 127.725 36.5267C126.902 39.9843 124.924 43.0578 122.117 45.2392C119.311 47.4206 115.845 48.5796 112.291 48.5246C110.177 48.5246 108.085 48.1004 106.138 47.2772C104.191 46.454 102.429 45.2486 100.957 43.7322C99.4842 42.2159 98.3308 40.4195 97.5649 38.4494C96.799 36.4793 96.4362 34.3756 96.498 32.2628C96.7214 25.4494 100.498 19.973 106.823 17.885C115.339 15.0766 124.65 18.1366 127.466 27.7889C127.52 27.9745 127.588 28.1259 127.633 28.2846C127.802 28.8329 127.912 28.3213 129.389 25.453Z" fill="#1B1B1D"/>
  <path d="M120.099 39.2188C120.249 40.1773 119.906 40.5131 119.378 40.5472C119.134 40.5643 108.375 40.6156 105.801 40.5704C104.165 40.5411 104.528 39.5509 104.69 38.3726C105.096 35.4286 105.843 29.0695 105.866 28.8484C105.988 27.6604 106.591 28.0389 107.754 27.885C107.968 27.857 107.957 27.7983 107.985 27.4125C108.195 24.5199 109.441 22.4844 112.319 22.4844C115.197 22.4844 116.444 24.5113 116.655 27.4125C116.685 27.7983 116.671 27.8741 116.886 27.885C118.522 27.9693 118.561 27.7629 118.773 28.8484C118.823 29.1 119.796 37.2736 120.099 39.2188ZM114.327 38.1198C114.903 38.0991 114.962 37.7999 114.799 37.2907C114.562 36.5471 114.113 34.7632 113.722 33.6838C113.707 33.6409 113.708 33.594 113.725 33.5517C113.742 33.5094 113.773 33.4748 113.814 33.4542C114.14 33.2795 114.404 33.0082 114.571 32.6775C114.737 32.3468 114.797 31.9728 114.742 31.6068C114.56 30.2636 113.831 29.6348 112.245 29.6531C111.777 29.587 111.3 29.6828 110.894 29.9244C110.487 30.166 110.176 30.5391 110.01 30.982C109.845 31.4248 109.836 31.9109 109.984 32.3598C110.132 32.8087 110.429 33.1935 110.826 33.4506C110.866 33.4713 110.898 33.506 110.915 33.5482C110.932 33.5904 110.933 33.6372 110.918 33.6801C110.533 34.762 110.078 36.5447 109.841 37.2871C109.662 37.8487 109.719 38.1137 110.474 38.1186C110.874 38.1296 113.936 38.1394 114.327 38.1247V38.1198ZM113.452 27.8887C113.749 27.8826 114.389 27.9632 114.373 27.6164C114.311 26.2623 114.122 25.0107 112.769 24.7274C112.472 24.6658 112.166 24.6658 111.87 24.7274C110.516 25.0107 110.329 26.2598 110.267 27.6164C110.251 27.9632 110.891 27.8826 111.187 27.8887C111.522 27.8997 113.115 27.8997 113.452 27.8936V27.8887Z" fill="#1B1B1D"/>
  <path d="M119.136 63.5666C119.226 64.0917 119.236 64.6265 119.165 65.154C119.123 65.469 118.907 65.3982 118.752 65.3982C117.949 65.4336 117.144 65.4165 116.343 65.3493C116.208 65.3383 116.192 65.4434 116.244 65.4898C116.297 65.5362 116.39 65.5899 116.475 65.6583C117.081 66.132 117.634 66.6693 118.123 67.2627C118.227 67.6718 117.938 67.8916 117.197 68.5448C116.364 69.2774 116.487 68.9526 114.796 67.0637C114.79 67.0568 114.783 67.052 114.774 67.0499C114.765 67.0478 114.756 67.0485 114.748 67.0519C114.74 67.0553 114.733 67.0613 114.729 67.0689C114.724 67.0765 114.722 67.0854 114.723 67.0942C114.772 67.9209 114.751 68.8318 114.762 69.3837C114.769 69.7866 114.676 69.7597 114.42 69.8147C114.02 69.8735 113.614 69.8866 113.211 69.8538C112.723 69.8123 112.452 69.9209 112.447 69.4582C112.447 68.8965 112.475 67.7633 112.524 67.1089C112.525 67.0988 112.523 67.0887 112.518 67.08C112.513 67.0713 112.505 67.0646 112.495 67.0609C112.486 67.0572 112.475 67.0569 112.466 67.0598C112.456 67.0627 112.448 67.0688 112.442 67.0771C110.808 68.9929 110.963 69.2237 110.133 68.4899C109.392 67.8366 109.102 67.6168 109.205 67.2102C109.669 66.6363 110.194 66.1149 110.774 65.6583C110.858 65.5899 110.952 65.5362 111.004 65.4898C111.055 65.4434 111.039 65.3213 110.905 65.3493C110.121 65.4695 109.327 65.5027 108.536 65.4482C108.38 65.436 108.063 65.4373 108.063 65.1186C107.99 64.6216 107.952 64.1202 107.947 63.6179C107.964 63.4006 108.018 63.2675 108.191 63.2247C109.013 63.1478 109.84 63.1307 110.663 63.1734C110.759 63.1734 110.853 63.1014 110.794 63.0294C110.647 62.8535 110.052 62.5263 109.15 61.8217C108.458 61.2808 108.327 61.1221 108.723 60.6459C109.801 59.3528 109.731 59.2783 110.239 59.5689C110.938 60.0525 111.607 60.5775 112.242 61.1404C112.252 61.1475 112.263 61.1524 112.275 61.1549C112.287 61.1574 112.3 61.1575 112.312 61.1551C112.324 61.1527 112.335 61.1479 112.346 61.141C112.356 61.1341 112.364 61.1251 112.371 61.1148C112.38 61.1009 112.385 61.0849 112.386 61.0684C112.386 60.3455 112.316 59.481 112.337 58.9499C112.353 58.5835 112.345 58.4724 112.691 58.3931C113.308 58.3429 113.929 58.3429 114.546 58.3931C114.893 58.4724 114.886 58.5835 114.902 58.9499C114.926 59.4749 114.86 60.3455 114.856 61.0684C114.856 61.0848 114.861 61.1009 114.869 61.1149C114.878 61.1289 114.89 61.1403 114.905 61.1477C114.92 61.1552 114.936 61.1584 114.953 61.1571C114.969 61.1558 114.985 61.15 114.999 61.1404C115.632 60.5758 116.3 60.051 116.999 59.5689C117.457 59.3076 117.415 59.271 118.514 60.6459C118.901 61.1343 118.78 61.2808 118.088 61.8217C117.187 62.5263 116.492 62.8535 116.346 63.0294C116.101 63.3297 117.944 63.1014 118.893 63.2296C119.078 63.2516 119.086 63.3542 119.136 63.5666Z" fill="#1B1B1D"/>
  <path d="M119.136 91.4396C119.225 91.961 119.235 92.4933 119.165 93.0184C119.123 93.3358 118.907 93.2626 118.752 93.2626C117.949 93.2992 117.144 93.2833 116.343 93.2162C116.208 93.204 116.192 93.3078 116.244 93.3542C116.297 93.4006 116.39 93.4543 116.475 93.5227C117.081 93.9964 117.634 94.5337 118.123 95.1271C118.227 95.5362 117.938 95.7559 117.197 96.4092C116.364 97.1418 116.442 96.8573 114.796 94.9305C114.791 94.9238 114.783 94.919 114.775 94.9168C114.767 94.9146 114.758 94.9151 114.75 94.9183C114.742 94.9214 114.735 94.927 114.73 94.9343C114.726 94.9415 114.723 94.95 114.724 94.9586C114.773 95.7877 114.751 96.6986 114.761 97.2481C114.769 97.6534 114.678 97.6241 114.419 97.6791C114.019 97.7377 113.615 97.7508 113.212 97.7182C112.724 97.6766 112.452 97.7853 112.447 97.325C112.447 96.7609 112.475 95.6277 112.524 94.9733C112.524 94.9636 112.522 94.9541 112.516 94.946C112.511 94.9379 112.503 94.9316 112.494 94.9281C112.485 94.9245 112.475 94.9239 112.466 94.9263C112.457 94.9287 112.448 94.9341 112.442 94.9415C110.768 96.8219 110.963 97.0905 110.133 96.3567C109.392 95.7034 109.102 95.4837 109.205 95.0746C109.669 94.5007 110.194 93.9793 110.774 93.5227C110.858 93.4543 110.952 93.4006 111.004 93.3542C111.055 93.3078 111.039 93.1857 110.905 93.2162C110.121 93.3337 109.327 93.366 108.536 93.3126C108.38 93.3004 108.063 93.3029 108.063 92.9854C107.991 92.4887 107.952 91.9878 107.947 91.486C107.964 91.2674 108.018 91.1319 108.191 91.0891C109.013 91.0122 109.84 90.9963 110.663 91.0403C110.759 91.0403 110.852 90.9682 110.794 90.8962C110.647 90.7179 110.052 90.3907 109.15 89.6861C108.458 89.1452 108.326 88.9853 108.723 88.5103C109.803 87.2184 109.73 87.1403 110.239 87.4333C110.939 87.9146 111.608 88.4394 112.242 89.0048C112.252 89.0123 112.263 89.0176 112.275 89.0204C112.287 89.0233 112.3 89.0235 112.312 89.0212C112.325 89.0189 112.336 89.0141 112.347 89.0071C112.357 89.0001 112.366 88.991 112.372 88.9804C112.381 88.9659 112.385 88.9495 112.385 88.9328C112.38 88.2099 112.316 87.3454 112.338 86.8143C112.353 86.4479 112.345 86.3393 112.692 86.2575C113.309 86.2111 113.929 86.2111 114.546 86.2575C115.022 86.3698 114.912 86.4223 114.856 88.9328C114.855 88.9496 114.86 88.9663 114.868 88.9807C114.877 88.9952 114.89 89.007 114.905 89.0146C114.92 89.0221 114.937 89.0251 114.953 89.0234C114.97 89.0217 114.986 89.0152 114.999 89.0048C115.634 88.4407 116.3 87.9156 116.999 87.4333C117.243 87.2929 117.365 87.2025 117.593 87.4236C117.918 87.7703 118.217 88.1391 118.514 88.5103C118.902 88.9987 118.78 89.1452 118.088 89.6861C117.187 90.3907 116.492 90.7179 116.346 90.8962C116.101 91.199 117.976 90.9719 118.893 91.094C119.078 91.1221 119.086 91.2271 119.136 91.4396Z" fill="#1B1B1D"/>
  <path d="M107.69 7.232C107.986 3.82407 111.786 4.7716 111.415 7.33701C111.043 9.90242 108.714 9.28213 107.968 8.08184C107.842 7.81051 107.749 7.52524 107.69 7.232Z" fill="#1B1B1D"/>
  <path d="M102.828 63.5666C102.918 64.0916 102.928 64.6264 102.857 65.1539C102.816 65.469 102.601 65.3981 102.445 65.3981C101.642 65.4325 100.838 65.4162 100.038 65.3493C99.9 65.3383 99.8853 65.4433 99.9366 65.4897C99.9879 65.5361 100.082 65.5898 100.167 65.6582C100.774 66.1308 101.327 66.6692 101.818 67.2627C101.923 67.6705 101.63 67.8915 100.89 68.5448C100.056 69.2774 100.136 68.9929 98.4909 67.0636C98.4852 67.0568 98.4775 67.052 98.4689 67.0498C98.4603 67.0477 98.4512 67.0484 98.443 67.0518C98.4348 67.0553 98.4279 67.0612 98.4234 67.0688C98.4188 67.0764 98.4168 67.0853 98.4177 67.0942C98.4433 67.922 98.4445 68.8317 98.4543 69.3836C98.4616 69.7866 98.3725 69.7597 98.1124 69.8146C97.7134 69.8728 97.3091 69.8859 96.9072 69.8537C96.4188 69.8122 96.1477 69.9209 96.1428 69.4581C96.1488 68.6745 96.1741 67.8912 96.2186 67.1088C96.2186 67.1015 96.2169 67.0942 96.2137 67.0876C96.2105 67.081 96.2059 67.0752 96.2001 67.0706C96.1944 67.066 96.1877 67.0628 96.1805 67.0611C96.1733 67.0595 96.1659 67.0595 96.1587 67.0612C96.1491 67.0637 96.1405 67.0693 96.1343 67.0771C94.5469 69.0307 94.6568 69.2237 93.8253 68.4898C93.0854 67.8366 92.7935 67.6168 92.8998 67.2102C93.3625 66.6363 93.8876 66.1149 94.4664 65.6582C94.5506 65.5898 94.6446 65.5361 94.6971 65.4897C94.7496 65.4433 94.7313 65.3212 94.5982 65.3493C93.8143 65.4694 93.0194 65.5026 92.2282 65.4482C92.0731 65.436 91.7556 65.4372 91.7556 65.1185C91.6846 64.6213 91.6459 64.1201 91.6396 63.6179C91.6592 63.4005 91.7117 63.2674 91.8839 63.2247C92.7057 63.1477 93.5321 63.1305 94.3565 63.1734C94.4505 63.1734 94.5445 63.1014 94.4786 63.0293C94.3333 62.8535 93.7374 62.525 92.8375 61.8217C92.1464 61.2808 92.0231 61.1294 92.4101 60.6458C93.5213 59.2526 93.481 59.3149 93.9267 59.5689C94.6227 60.0536 95.2906 60.5787 95.9267 61.1404C95.9367 61.1478 95.9482 61.1532 95.9603 61.156C95.9725 61.1588 95.9851 61.1591 95.9974 61.1568C96.0097 61.1545 96.0213 61.1497 96.0317 61.1427C96.042 61.1356 96.0507 61.1265 96.0574 61.1159C96.0662 61.1016 96.0708 61.0851 96.0708 61.0683C96.0708 60.3455 96.0024 59.481 96.0232 58.9498C96.0391 58.5835 96.033 58.4724 96.3773 58.393C96.9945 58.343 97.6148 58.343 98.2321 58.393C98.5776 58.4724 98.5715 58.5835 98.5886 58.9498C98.6118 59.4749 98.5459 60.3455 98.541 61.0683C98.5414 61.0848 98.5463 61.1009 98.5551 61.1149C98.5639 61.1289 98.5763 61.1402 98.591 61.1477C98.6059 61.1551 98.6225 61.1583 98.6391 61.1571C98.6556 61.1558 98.6715 61.15 98.6851 61.1404C99.3185 60.5755 99.9864 60.0507 100.685 59.5689C101.142 59.3076 101.1 59.2709 102.199 60.6458C102.588 61.1343 102.465 61.2808 101.774 61.8217C100.872 62.5262 100.177 62.8535 100.031 63.0293C99.7864 63.3297 101.629 63.1014 102.579 63.2296C102.772 63.2515 102.779 63.3541 102.828 63.5666Z" fill="#1B1B1D"/>
  <path d="M102.828 91.4396C102.918 91.9609 102.928 92.4933 102.857 93.0184C102.816 93.3358 102.601 93.2626 102.445 93.2626C101.642 93.2992 100.838 93.2833 100.038 93.2162C99.9 93.204 99.8853 93.3078 99.9366 93.3542C99.9879 93.4006 100.082 93.4543 100.167 93.5227C100.774 93.9952 101.327 94.5337 101.818 95.1271C101.923 95.5349 101.63 95.7559 100.89 96.4092C100.056 97.1418 100.136 96.8573 98.4909 94.9305C98.4852 94.9238 98.4775 94.9191 98.4689 94.9171C98.4627 94.9156 98.4563 94.9155 98.45 94.9169C98.4438 94.9183 98.438 94.9212 98.433 94.9252C98.4281 94.9292 98.4241 94.9343 98.4214 94.9401C98.4188 94.9459 98.4175 94.9522 98.4177 94.9586C98.4641 95.7877 98.4445 96.6986 98.4543 97.2481C98.4616 97.6534 98.3725 97.6241 98.1124 97.6791C97.7135 97.7379 97.3091 97.751 96.9072 97.7182C96.4188 97.6766 96.1477 97.7853 96.1428 97.325C96.1488 96.5406 96.174 95.7564 96.2186 94.9733C96.2186 94.9659 96.2169 94.9586 96.2137 94.952C96.2105 94.9454 96.2059 94.9396 96.2001 94.935C96.1944 94.9304 96.1877 94.9272 96.1805 94.9256C96.1733 94.924 96.1659 94.924 96.1587 94.9256C96.1491 94.9282 96.1405 94.9337 96.1343 94.9415C94.4615 96.8219 94.6568 97.0905 93.8253 96.3567C93.0854 95.7034 92.7935 95.4837 92.8998 95.0746C93.3625 94.5007 93.8876 93.9793 94.4664 93.5227C94.5506 93.4543 94.6446 93.4006 94.6971 93.3542C94.7496 93.3078 94.7313 93.1857 94.5982 93.2162C93.814 93.3337 93.0194 93.366 92.2282 93.3126C92.0731 93.3004 91.7556 93.3029 91.7556 92.9854C91.6846 92.4886 91.6459 91.9878 91.6396 91.486C91.6592 91.2674 91.7117 91.1319 91.8839 91.0891C92.7056 91.0122 93.5323 90.9963 94.3565 91.0403C94.4505 91.0403 94.5445 90.9682 94.4786 90.8962C94.332 90.7179 93.7374 90.3907 92.8375 89.6861C92.1464 89.1452 92.0231 88.9926 92.4101 88.5103C93.52 87.1207 93.4822 87.1793 93.9267 87.4333C94.6251 87.9156 95.2942 88.4407 95.9267 89.0048C95.94 89.0152 95.956 89.0216 95.9728 89.0233C95.9895 89.025 96.0065 89.0219 96.0216 89.0144C96.0366 89.0068 96.0493 88.9951 96.058 88.9807C96.0667 88.9662 96.0712 88.9496 96.0708 88.9328C96.0537 86.5029 95.8571 86.3808 96.3773 86.2575C96.9947 86.2111 97.6147 86.2111 98.2321 86.2575C98.707 86.3698 98.5984 86.4223 98.541 88.9328C98.5407 88.9496 98.5451 88.9662 98.5537 88.9806C98.5624 88.9951 98.5749 89.0068 98.5898 89.0146C98.605 89.022 98.622 89.0251 98.6388 89.0233C98.6557 89.0216 98.6717 89.0152 98.6851 89.0048C99.3185 88.44 99.9865 87.9152 100.685 87.4333C100.929 87.2929 101.051 87.2025 101.279 87.4236C101.603 87.7703 101.903 88.1391 102.199 88.5103C102.588 88.9987 102.465 89.1452 101.774 89.6861C100.872 90.3907 100.177 90.7179 100.031 90.8962C99.7864 91.199 101.662 90.9719 102.579 91.094C102.772 91.1221 102.779 91.2271 102.828 91.4396Z" fill="#1B1B1D"/>
  <path d="M86.5207 63.5666C86.611 64.0916 86.6196 64.6264 86.5488 65.1539C86.5073 65.469 86.2923 65.3981 86.1361 65.3981C85.3338 65.4335 84.5304 65.4164 83.7306 65.3493C83.5939 65.3383 83.5768 65.4433 83.6317 65.4897C83.6867 65.5361 83.777 65.5898 83.8613 65.6582C84.4669 66.132 85.02 66.6705 85.5097 67.2627C85.6159 67.6705 85.3228 67.8915 84.5817 68.5448C83.7477 69.2774 83.8271 68.9929 82.1835 67.0636C82.1791 67.0587 82.1736 67.0548 82.1674 67.0523C82.1612 67.0499 82.1545 67.0489 82.1478 67.0495C82.1412 67.0501 82.1348 67.0522 82.1291 67.0557C82.1234 67.0593 82.1186 67.0641 82.1152 67.0697C82.1107 67.0771 82.1085 67.0856 82.1091 67.0942C82.1347 67.922 82.1359 68.8317 82.1457 69.3836C82.153 69.7866 82.0639 69.7597 81.805 69.8147C81.4056 69.8728 81.001 69.8859 80.5986 69.8537C80.1102 69.8122 79.8391 69.9209 79.8343 69.4581C79.8269 68.8964 79.8758 67.7645 79.9112 67.1088C79.9125 67.0988 79.9104 67.0886 79.9052 67.0799C79.9001 67.0712 79.8922 67.0645 79.8827 67.0609C79.8733 67.0572 79.8629 67.0568 79.8533 67.0597C79.8436 67.0627 79.8352 67.0688 79.8294 67.0771C78.1956 68.9929 78.3519 69.2224 77.5192 68.4898C76.7768 67.8366 76.4862 67.6168 76.5912 67.2102C77.0552 66.6363 77.5802 66.1149 78.1602 65.6582C78.2432 65.5898 78.336 65.5361 78.391 65.4897C78.4459 65.4433 78.4227 65.3212 78.2896 65.3493C77.5061 65.4695 76.7117 65.5026 75.9208 65.4482C75.7645 65.436 75.4483 65.4372 75.4483 65.1185C75.3745 64.6215 75.3337 64.1202 75.3262 63.6179C75.3469 63.4005 75.4007 63.2674 75.5765 63.2247C76.3983 63.147 77.2248 63.1299 78.0491 63.1734C78.1431 63.1734 78.2384 63.1001 78.181 63.0293C78.0344 62.851 77.4374 62.525 76.5374 61.8217C75.8451 61.2808 75.7242 61.1294 76.1113 60.6458C77.2102 59.2648 77.1761 59.3112 77.6266 59.5689C78.3226 60.0536 78.9905 60.5787 79.6267 61.1404C79.6366 61.1478 79.6479 61.1531 79.66 61.1559C79.6721 61.1587 79.6846 61.159 79.6968 61.1567C79.709 61.1544 79.7205 61.1496 79.7308 61.1426C79.741 61.1356 79.7496 61.1265 79.7561 61.1159C79.7649 61.1016 79.7696 61.0851 79.7695 61.0683C79.7695 60.3455 79.7012 59.481 79.7231 58.9498C79.7378 58.5835 79.7329 58.4724 80.0772 58.393C80.6949 58.343 81.3156 58.343 81.9332 58.393C82.2776 58.4724 82.2727 58.5835 82.2873 58.9498C82.3093 59.4749 82.2446 60.3455 82.2397 61.0683C82.2398 61.085 82.2445 61.1013 82.2534 61.1155C82.2622 61.1296 82.2747 61.1411 82.2897 61.1485C82.3046 61.156 82.3213 61.1592 82.3379 61.1577C82.3545 61.1563 82.3704 61.1503 82.3838 61.1404C83.0187 60.5775 83.6866 60.0536 84.3839 59.5689C84.8442 59.3064 84.8015 59.2722 85.8992 60.6458C86.2862 61.1343 86.1641 61.2808 85.473 61.8217C84.5731 62.525 83.8759 62.8535 83.7306 63.0293C83.4864 63.3297 85.329 63.1014 86.2777 63.2296C86.4633 63.2515 86.4706 63.3541 86.5207 63.5666Z" fill="#1B1B1D"/>
  <path d="M86.5207 91.4396C86.6098 91.9609 86.6184 92.4933 86.5488 93.0184C86.5073 93.3358 86.2923 93.2626 86.1361 93.2626C85.3341 93.2984 84.5306 93.2829 83.7306 93.2162C83.5939 93.204 83.5768 93.3078 83.6317 93.3542C83.6866 93.4006 83.777 93.4543 83.8613 93.5227C84.4669 93.9964 85.02 94.5349 85.5097 95.1271C85.6159 95.5349 85.3228 95.7559 84.5817 96.4092C83.7477 97.1418 83.8271 96.8573 82.1835 94.9305C82.1779 94.9241 82.1705 94.9195 82.1622 94.9173C82.1539 94.9151 82.1452 94.9155 82.1371 94.9183C82.1289 94.9213 82.1218 94.9268 82.1167 94.934C82.1117 94.9412 82.109 94.9498 82.1091 94.9586C82.1555 95.7877 82.1359 96.6986 82.1457 97.2481C82.153 97.6534 82.0639 97.6241 81.805 97.6791C81.4057 97.7379 81.0009 97.751 80.5986 97.7182C80.1102 97.6766 79.8391 97.7853 79.8343 97.325C79.8269 96.7609 79.8758 95.629 79.9112 94.9733C79.9116 94.9636 79.909 94.9541 79.9038 94.946C79.8985 94.9379 79.8909 94.9316 79.8819 94.9281C79.8729 94.9247 79.863 94.9243 79.8538 94.9269C79.8443 94.929 79.8357 94.9341 79.8294 94.9415C78.1993 96.8598 78.3519 97.0893 77.5192 96.3567C76.7768 95.7034 76.4849 95.4836 76.5912 95.0746C77.0552 94.5007 77.5802 93.9806 78.1602 93.5227C78.2432 93.4543 78.336 93.4006 78.391 93.3542C78.4459 93.3078 78.4227 93.1857 78.2896 93.2162C77.5058 93.3337 76.7116 93.366 75.9208 93.3126C75.7645 93.3004 75.4483 93.3029 75.4483 92.9854C75.3747 92.4888 75.3339 91.9879 75.3262 91.486C75.3469 91.2674 75.4007 91.1319 75.5765 91.0891C76.3982 91.0122 77.2249 90.9963 78.0491 91.0403C78.1431 91.0403 78.2384 90.967 78.181 90.8962C78.0344 90.7167 77.4373 90.3907 76.5374 89.6861C75.8451 89.1452 75.723 88.9938 76.1113 88.5103C77.2286 87.1146 77.1822 87.1781 77.6266 87.4333C78.3248 87.9158 78.9927 88.4406 79.6267 89.0048C79.6365 89.0127 79.648 89.0183 79.6602 89.0213C79.6724 89.0244 79.6852 89.0248 79.6976 89.0224C79.71 89.0201 79.7217 89.0152 79.732 89.0079C79.7423 89.0007 79.751 88.9913 79.7573 88.9804C79.7658 88.966 79.77 88.9495 79.7695 88.9328C79.7537 86.5029 79.5571 86.3808 80.0772 86.2575C80.695 86.2111 81.3154 86.2111 81.9332 86.2575C82.2776 86.3393 82.2727 86.4504 82.2873 86.8143C82.3093 87.3393 82.2458 88.2099 82.2397 88.9328C82.2391 88.9496 82.2434 88.9663 82.2521 88.9809C82.2607 88.9954 82.2734 89.0071 82.2886 89.0146C82.3038 89.022 82.3207 89.0251 82.3376 89.0233C82.3544 89.0216 82.3704 89.0152 82.3838 89.0048C83.0172 88.4399 83.6852 87.9151 84.3839 87.4333C84.8418 87.172 84.8002 87.1378 85.8992 88.5103C86.2862 88.9987 86.1641 89.1452 85.473 89.6861C84.5731 90.3895 83.8771 90.7179 83.7306 90.8962C83.4864 91.199 85.3607 90.9719 86.2777 91.094C86.4633 91.1221 86.4706 91.2271 86.5207 91.4396Z" fill="#1B1B1D"/>
  <path d="M70.2114 63.5666C70.309 64.0904 70.3213 64.6264 70.2443 65.1539C70.2016 65.469 69.9867 65.3981 69.828 65.3981C69.0257 65.4323 68.2223 65.4164 67.4225 65.3493C67.2857 65.3383 67.2686 65.4433 67.3236 65.4897C67.3785 65.5361 67.4689 65.5898 67.5531 65.6582C68.1588 66.132 68.7119 66.6705 69.2016 67.2627C69.3078 67.6705 69.016 67.8903 68.2736 68.5448C67.4396 69.2774 67.519 68.9929 65.8754 67.0636C65.8695 67.0569 65.8616 67.0522 65.8528 67.0502C65.844 67.0483 65.8349 67.0491 65.8266 67.0526C65.8186 67.0561 65.8118 67.062 65.8073 67.0694C65.8027 67.0768 65.8005 67.0855 65.801 67.0942C65.8266 67.922 65.8278 68.8317 65.8376 69.3836C65.8449 69.7866 65.7558 69.7597 65.4969 69.8146C65.0975 69.8728 64.6928 69.8859 64.2905 69.8537C63.3613 69.7743 63.47 70.1944 63.6031 67.1088C63.6046 67.0987 63.6027 67.0884 63.5976 67.0795C63.5925 67.0706 63.5845 67.0637 63.575 67.06C63.5654 67.0563 63.5549 67.056 63.5451 67.0591C63.5354 67.0622 63.527 67.0685 63.5213 67.0771C61.8875 68.9929 62.0426 69.2237 61.2111 68.4898C60.4711 67.8366 60.1768 67.6168 60.2831 67.2102C60.7471 66.6363 61.2721 66.1149 61.8521 65.6582C61.9376 65.5898 62.0279 65.5361 62.0829 65.4897C62.1378 65.4433 62.1171 65.3212 61.984 65.3493C61.2004 65.4695 60.406 65.5026 59.6152 65.4482C59.4564 65.436 59.1402 65.4372 59.1402 65.1185C59.0684 64.6214 59.03 64.1201 59.0254 63.6179C59.0425 63.4005 59.0974 63.2674 59.2696 63.2247C60.0914 63.147 60.9179 63.1299 61.7422 63.1734C61.8387 63.1734 61.9327 63.1013 61.8741 63.0293C61.7276 62.8535 61.1317 62.5262 60.2306 61.8217C59.5382 61.2808 59.4173 61.1294 59.8044 60.6458C60.9033 59.2648 60.8692 59.3112 61.3197 59.5689C62.0182 60.0512 62.6861 60.5762 63.3198 61.1404C63.3389 61.1534 63.3623 61.1585 63.385 61.1546C63.4078 61.1508 63.4282 61.1382 63.4419 61.1196C63.5066 61.0305 63.3808 59.6544 63.4126 58.9498C63.4285 58.5835 63.4224 58.4724 63.7691 58.393C64.386 58.343 65.0058 58.343 65.6227 58.393C65.967 58.4724 65.9609 58.5835 65.9768 58.9498C65.9988 59.4749 65.934 60.3455 65.9292 61.0683C65.9293 61.085 65.934 61.1013 65.9428 61.1155C65.9516 61.1296 65.9642 61.1411 65.9791 61.1485C65.994 61.156 66.0107 61.1592 66.0273 61.1577C66.0439 61.1563 66.0598 61.1503 66.0732 61.1404C66.709 60.5784 67.3768 60.0537 68.0733 59.5689C68.5947 59.2722 68.5263 59.3674 69.5911 60.6458C69.9879 61.122 69.8536 61.2808 69.1625 61.8217C68.2626 62.525 67.5654 62.8535 67.4201 63.0293C67.1758 63.3297 69.0233 63.1014 69.9696 63.2296C70.1564 63.2515 70.1711 63.3529 70.2114 63.5666Z" fill="#1B1B1D"/>
  <path d="M70.2114 91.4396C70.309 91.961 70.3188 92.4933 70.2443 93.0184C70.2016 93.3358 69.9867 93.2626 69.828 93.2626C69.026 93.2984 68.2225 93.2829 67.4225 93.2162C67.2857 93.204 67.2686 93.3078 67.3236 93.3542C67.3785 93.4006 67.4689 93.4543 67.5531 93.5227C68.1588 93.9964 68.7119 94.5349 69.2016 95.1271C69.3078 95.5349 69.016 95.7547 68.2736 96.4092C67.4396 97.1418 67.519 96.8573 65.8754 94.9305C65.8695 94.9244 65.8618 94.9202 65.8535 94.9183C65.8452 94.9163 65.8365 94.9167 65.8285 94.9196C65.8205 94.9224 65.8135 94.9275 65.8083 94.9342C65.8035 94.9414 65.8009 94.9499 65.801 94.9586C65.8474 95.7877 65.8278 96.6986 65.8376 97.2481C65.8449 97.6534 65.7558 97.6241 65.4969 97.6791C65.0976 97.7379 64.6928 97.751 64.2905 97.7182C63.8021 97.6766 63.531 97.7853 63.5261 97.325C63.5188 96.7609 63.5713 95.629 63.6031 94.9733C63.6035 94.9636 63.6009 94.9541 63.5956 94.946C63.5904 94.9379 63.5827 94.9316 63.5738 94.9281C63.5647 94.9245 63.5548 94.9239 63.5454 94.9263C63.5359 94.9287 63.5275 94.9341 63.5213 94.9415C61.8765 96.8476 62.0426 97.0906 61.2111 96.3567C60.4711 95.7034 60.1768 95.4837 60.2831 95.0746C60.7471 94.5007 61.2721 93.9793 61.8521 93.5227C61.9376 93.4543 62.0279 93.4006 62.0829 93.3542C62.1378 93.3078 62.1171 93.1857 61.984 93.2162C61.2001 93.333 60.4059 93.3654 59.6152 93.3126C59.4564 93.3004 59.1402 93.3029 59.1402 92.9854C59.0684 92.4887 59.03 91.9878 59.0254 91.486C59.0425 91.2674 59.0974 91.1319 59.2696 91.0891C60.0914 91.0122 60.918 90.9963 61.7422 91.0403C61.8387 91.0403 61.9327 90.9682 61.8741 90.8962C61.7276 90.7179 61.1317 90.3907 60.2306 89.6861C59.5382 89.1452 59.4161 88.9938 59.8044 88.5103C60.9217 87.1146 60.8753 87.1781 61.3197 87.4333C62.0182 87.9156 62.6861 88.4407 63.3198 89.0048C63.3329 89.0154 63.3489 89.0219 63.3656 89.0237C63.3824 89.0254 63.3993 89.0223 63.4144 89.0147C63.4295 89.0071 63.442 88.9954 63.4506 88.9808C63.4591 88.9663 63.4633 88.9496 63.4627 88.9328C63.4065 86.4272 63.299 86.3686 63.7728 86.2575C64.3898 86.2111 65.0094 86.2111 65.6263 86.2575C65.9707 86.3393 65.9658 86.4504 65.9804 86.8143C66.0024 87.3393 65.9377 88.2099 65.9328 88.9328C65.9322 88.9497 65.9365 88.9664 65.9452 88.9809C65.9539 88.9954 65.9665 89.0071 65.9817 89.0146C65.9969 89.022 66.0138 89.0251 66.0307 89.0233C66.0475 89.0216 66.0635 89.0152 66.0769 89.0048C66.7105 88.4402 67.3785 87.9154 68.077 87.4333C68.5849 87.1427 68.5043 87.205 69.5947 88.5103C69.9928 88.9853 69.8573 89.1452 69.1661 89.6861C68.2662 90.3895 67.5702 90.7179 67.4237 90.8962C67.1795 91.199 69.0587 90.9719 69.9733 91.094C70.1564 91.1221 70.1711 91.2259 70.2114 91.4396Z" fill="#1B1B1D"/>
</svg>
