<svg width="12" height="16" viewBox="0 0 12 16" fill="none" xmlns="http://www.w3.org/2000/svg">
    <path d="M9.1482 7.81172C9.96154 7.98505 10.6149 8.39172 11.1082 9.03172C11.6015 9.65839 11.8482 10.3784 11.8482 11.1917C11.8482 12.3651 11.4349 13.2984 10.6082 13.9917C9.79487 14.6717 8.65487 15.0117 7.1882 15.0117H0.648203V0.971718H6.9682C8.39487 0.971718 9.5082 1.29838 10.3082 1.95172C11.1215 2.60505 11.5282 3.49172 11.5282 4.61172C11.5282 5.43838 11.3082 6.12505 10.8682 6.67172C10.4415 7.21839 9.8682 7.59839 9.1482 7.81172ZM4.0682 6.65172H6.3082C6.8682 6.65172 7.29487 6.53172 7.5882 6.29172C7.89487 6.03839 8.0482 5.67172 8.0482 5.19172C8.0482 4.71172 7.89487 4.34505 7.5882 4.09172C7.29487 3.83839 6.8682 3.71172 6.3082 3.71172H4.0682V6.65172ZM6.5882 12.2517C7.16154 12.2517 7.60154 12.1251 7.9082 11.8717C8.2282 11.6051 8.3882 11.2251 8.3882 10.7317C8.3882 10.2384 8.22154 9.85172 7.8882 9.57172C7.5682 9.29172 7.12154 9.15172 6.5482 9.15172H4.0682V12.2517H6.5882Z" fill="#1B1B1D"/>
</svg>
