<svg width="14" height="16" viewBox="0 0 14 16" fill="none" xmlns="http://www.w3.org/2000/svg">
    <path d="M0.0428125 7.97172C0.0428125 6.58505 0.342813 5.35172 0.942813 4.27172C1.54281 3.17839 2.37615 2.33172 3.44281 1.73172C4.52281 1.11838 5.74281 0.811718 7.10281 0.811718C8.76948 0.811718 10.1961 1.25172 11.3828 2.13172C12.5695 3.01172 13.3628 4.21172 13.7628 5.73172H10.0028C9.72281 5.14505 9.32281 4.69839 8.80281 4.39172C8.29615 4.08505 7.71615 3.93172 7.06281 3.93172C6.00948 3.93172 5.15615 4.29839 4.50281 5.03172C3.84948 5.76505 3.52281 6.74505 3.52281 7.97172C3.52281 9.19838 3.84948 10.1784 4.50281 10.9117C5.15615 11.6451 6.00948 12.0117 7.06281 12.0117C7.71615 12.0117 8.29615 11.8584 8.80281 11.5517C9.32281 11.2451 9.72281 10.7984 10.0028 10.2117H13.7628C13.3628 11.7317 12.5695 12.9317 11.3828 13.8117C10.1961 14.6784 8.76948 15.1117 7.10281 15.1117C5.74281 15.1117 4.52281 14.8117 3.44281 14.2117C2.37615 13.5984 1.54281 12.7517 0.942813 11.6717C0.342813 10.5917 0.0428125 9.35839 0.0428125 7.97172Z" fill="#1B1B1D"/>
</svg>
