<svg width="14" height="16" viewBox="0 0 14 16" fill="none" xmlns="http://www.w3.org/2000/svg">
    <path d="M6.23438 0.971718C7.71438 0.971718 9.00771 1.26505 10.1144 1.85172C11.221 2.43838 12.0744 3.26505 12.6744 4.33172C13.2877 5.38505 13.5944 6.60505 13.5944 7.99172C13.5944 9.36505 13.2877 10.5851 12.6744 11.6517C12.0744 12.7184 11.2144 13.5451 10.0944 14.1317C8.98771 14.7184 7.70104 15.0117 6.23438 15.0117H0.974375V0.971718H6.23438ZM6.01438 12.0517C7.30771 12.0517 8.31438 11.6984 9.03438 10.9917C9.75438 10.2851 10.1144 9.28505 10.1144 7.99172C10.1144 6.69839 9.75438 5.69172 9.03438 4.97172C8.31438 4.25172 7.30771 3.89172 6.01438 3.89172H4.39438V12.0517H6.01438Z" fill="#1B1B1D"/>
</svg>
