<svg width="237" height="195" viewBox="0 0 237 195" fill="none" xmlns="http://www.w3.org/2000/svg">
    <path d="M77.7949 158.579L81.6462 170.098L86.6824 167.504L81.4566 156.615C81.4566 156.615 78.0438 158.388 77.7949 158.579Z" fill="#AA3CC5"/>
    <path d="M102.727 125.901C109.192 124.069 115.448 121.56 121.391 118.416L150.803 123.057C150.803 123.057 156.183 126.187 156.834 126.282C158.676 126.132 160.519 126.546 162.12 127.472C164.288 128.983 168.625 128.983 169.751 129.174C171.377 129.702 172.929 130.433 174.372 131.351C175.498 132.018 180.499 133.624 181.352 134.195C182.205 134.767 184.172 135.385 184.646 137.765C185.309 140.69 185.706 143.67 185.831 146.667C185.737 148.844 185.18 154.711 184.326 156.984C183.473 159.257 179.8 171.085 179.586 172.454C179.373 173.822 178.935 183.057 178.401 184.961C177.868 186.865 175.297 196.861 174.846 198.682C174.396 200.502 170.983 209.57 170.415 211.177C169.846 212.783 168.993 215.722 169.23 216.948C169.572 218.276 169.668 219.655 169.514 221.018C169.324 222.541 170.557 230.014 170.178 230.538C169.798 231.061 156.597 231.668 151.988 230.252C147.378 228.836 128.987 230.823 121.533 230.443C114.08 230.062 94.3849 229.871 91.5646 229.253C88.7443 228.634 85.2486 228.503 86.9431 226.611C88.6377 224.719 88.8273 222.065 88.9221 219.471C89.1702 217.127 89.6424 214.811 90.3322 212.557L84.4072 171.799L93.1051 153.949L102.727 125.901Z" fill="#592466"/>
    <path d="M184.552 114.241C186.033 115.288 185.844 115.062 184.552 115.228C183.26 115.395 182.585 115.443 182.431 116.287C182.304 116.975 182.11 117.649 181.85 118.299C181.79 118.253 181.734 118.201 181.684 118.144C179.314 114.645 181.151 115.55 176.802 115.193C175.937 115.193 178.319 114.383 179.018 112.813C179.279 112.23 178.058 110.052 178.745 110.433C180.831 111.539 180.156 111.135 180.416 111.289C181.198 111.777 183.521 109.861 184.41 109.6C184.682 111.527 182.49 112.717 184.552 114.241Z" fill="white"/>
    <path d="M202.09 77.3505C202.671 77.5647 200.905 78.0764 200.182 78.6238C198.997 79.5044 200.111 80.2422 200.016 81.4798C199.092 81.0871 198.049 79.0998 196.675 79.0998C194.198 79.9328 194.044 80.2898 193.605 80.2898C193.748 79.3973 195.833 77.5885 194.648 76.6246C194.186 76.2676 193.037 74.5659 193.617 74.6968C195.916 75.2323 195.904 75.3394 196.343 75.03C198.654 73.4354 198.713 70.984 199.139 74.3398C199.507 77.3505 198.76 76.1605 202.09 77.3505Z" fill="white"/>
    <path d="M199.21 38.1513C199.151 38.2346 199.103 38.3417 199.02 38.3774C196.034 39.9244 195.833 39.734 196.01 40.7574C196.461 43.5777 196.354 43.1374 196.283 43.6253C193.119 40.7455 194.375 41.1144 193.913 41.0311C193.036 40.9002 191.401 41.8879 189.825 42.2211C189.28 42.2211 189.493 42.1021 190.856 39.8411C192.361 37.3778 185.037 34.4623 191.389 36.2711C192.574 36.6162 192.361 36.4496 194.517 33.5341C195.205 32.594 194.766 36.8423 196.366 36.9851C196.923 36.9851 197.693 37.6515 198.961 37.9371C199.055 37.9955 199.138 38.0678 199.21 38.1513Z" fill="white"/>
    <path d="M76.6341 89.9635C82.6539 88.6069 76.6341 90.5109 77.9731 92.7719C79.0752 94.7235 79.5255 94.545 77.3806 94.069C74.8921 93.5097 76.0179 93.3431 73.4346 95.973C73.1265 96.2943 73.4938 94.9853 73.5886 93.7477C73.6953 92.2721 70.8513 91.7961 70.4365 91.0226C70.638 91.0226 70.2825 91.0226 72.1074 90.8441C74.3589 90.6537 73.2924 89.3804 74.2759 87.3574C75.0817 88.0595 75.9112 90.1182 76.6341 89.9635Z" fill="white"/>
    <path d="M88.7448 63.213C89.0411 63.7128 87.5598 63.213 85.4624 62.4276C84.2774 61.9873 84.5499 61.0948 81.7533 65.0218C80.675 66.5569 82.251 61.6422 80.4617 60.9758C76.409 59.4526 76.409 59.7858 80.8646 58.1674C81.8363 57.8104 81.3741 55.6803 82.0496 53.8477C86.28 57.8223 82.7132 57.4891 88.8988 56.0611C87.9864 58.5125 86.0904 59.2146 87.1806 60.4879C87.7859 61.345 88.3096 62.2574 88.7448 63.213Z" fill="white"/>
    <path d="M121.06 133.054C121.617 135.696 122.162 136.005 121.545 135.91C116.177 135.065 110.94 129.734 109.861 125.26C109.66 124.415 109.518 124.498 110.418 124.189C113.061 123.249 114.424 122.237 114.092 122.832C113.428 124.022 113.902 125.557 113.819 126.105C113.511 128.163 114.933 129.901 116.983 130.996C117.256 131.138 117.161 131.115 118.974 131.234C120.159 130.948 120.313 130.829 120.455 131.234C120.721 131.817 120.923 132.427 121.06 133.054Z" fill="white"/>
    <path d="M163.293 42.4598C166.54 43.8283 167.452 44.0425 165.26 44.5899C163.885 44.2567 163.719 44.2329 162.89 42.5431C162.807 42.3289 163.068 42.3646 163.293 42.4598Z" fill="white"/>
    <path d="M169.786 41.9359C169.988 41.9359 169.976 42.0787 169.893 42.1858C169.407 42.8403 168.85 43.8042 167.938 43.2211C165.568 41.686 160.946 40.9839 162.214 38.9966C162.736 38.1874 162.309 39.1156 165.011 40.2818C167.938 41.5432 168.992 42.0311 169.786 41.9359Z" fill="white"/>
    <path d="M170.758 39.3646C171.481 39.436 170.592 40.7331 169.443 40.7093C167.535 40.0429 161.788 37.9247 163.376 36.6633C163.565 36.5205 163.47 36.1159 163.743 36.1397C164.217 36.1397 163.589 36.6395 166.729 37.9009C169.869 39.1623 170.142 39.2694 170.758 39.3646Z" fill="white"/>
    <path d="M164.822 33.5938C171.102 38.3537 173.591 35.9023 171.695 38.1157C171.339 38.5322 169.965 37.8301 169.443 37.6397C166.907 36.6996 162.677 35.343 164.822 33.5938Z" fill="white"/>
    <path d="M181.436 25.1328C181.803 25.2399 181.531 26.1086 181.199 25.9301C179.943 25.2875 180.997 24.99 181.436 25.1328Z" fill="#AA3CC5"/>
    <path d="M168.91 21.8727C168.259 22.4082 167.962 21.3729 168.389 21.2539C168.531 21.2182 168.78 21.6704 168.91 21.8727Z" fill="#AA3CC5"/>
    <path d="M173.378 12.1388C188.06 12.0555 191.224 31.4525 175.961 33.2018C173.97 33.4398 173.591 32.8686 172.975 33.6659C171.861 35.2486 172.584 35.9626 171.671 35.7246C169.808 35.2467 168.032 34.4754 166.41 33.4398C164.905 32.5235 167.595 32.2498 166.813 30.5481C166.031 28.8464 165.995 30.1435 164.763 28.1681C159.063 19.0408 167.145 11.7937 173.378 12.1388ZM180.701 27.2994C181.448 29.1558 183.77 24.7647 181.981 24.1816C180.191 23.5985 179.717 24.8599 179.433 24.7885C176.684 24.1697 178.39 24.5267 176.802 23.7056C176.068 23.3248 175.487 24.2173 174.894 23.3724C173.958 22.0158 174.634 23.3724 170.237 21.6112C169.929 21.4922 169.763 21.0638 169.526 20.7782C169.289 20.4926 168.922 20.4926 168.484 20.3736C167.204 20.0285 166.469 22.6584 168.484 23.0035C168.697 23.0035 168.851 23.0035 168.78 23.3724C168.33 25.3121 170.948 26.9424 170.427 27.8825C169.718 29.2429 169.218 30.7034 168.946 32.2141C168.887 32.5711 169.206 32.3807 169.337 32.4878C169.835 32.9162 170.072 30.679 171.351 28.2633C172.216 26.6568 169.704 25.0503 169.763 23.6699C169.835 21.8968 170.522 22.9083 172.133 23.42C173.034 23.7056 173.721 23.42 173.97 24.015C174.131 24.333 174.4 24.5823 174.729 24.7177C175.057 24.8531 175.423 24.8656 175.76 24.7528C176.85 24.4672 176.565 25.3121 177.845 25.5858C179.125 25.8595 179.113 25.8 179.113 26.276C179.113 26.4426 179.113 26.6211 178.912 26.6687C178.303 26.8774 177.721 27.1612 177.182 27.5136C176.506 27.8349 176.802 27.2875 175.677 28.0253C173.982 29.132 174.266 28.4299 173.555 28.9892C172.37 29.9531 169.775 32.702 170.605 33.3565C171.434 34.011 171.529 32.2974 173.212 30.7504C174.895 29.2034 174.634 29.9531 175.203 29.5604C176.388 28.8226 176.554 28.7155 176.731 28.7036C177.75 28.6203 178.532 27.7635 179.303 27.6921C180.346 27.5969 180.073 26.6806 180.298 26.752C180.523 26.8234 180.618 27.0971 180.701 27.2994Z" fill="#AA3CC5"/>
    <path d="M79.1346 23.1451C79.3208 23.7635 79.3157 24.4239 79.1198 25.0393C78.924 25.6545 78.5467 26.1956 78.038 26.5909C77.5292 26.9861 76.9128 27.2168 76.2706 27.2527C75.6284 27.2884 74.9904 27.1275 74.4413 26.7912C73.892 26.4549 73.4575 25.959 73.1951 25.3693C72.9328 24.7795 72.8549 24.1236 72.9719 23.4883C73.0889 22.8532 73.3952 22.2686 73.8502 21.8121C74.3053 21.3556 74.8877 21.0486 75.5204 20.9317C76.2881 20.7926 77.08 20.941 77.7461 21.349C78.4122 21.7569 78.9063 22.3959 79.1346 23.1451Z" fill="#592466"/>
    <path d="M67.3912 33.3912C67.9126 32.7962 68.5762 32.2012 68.8962 32.9985C68.8962 32.9985 58.1245 45.0889 58.1008 45.1127C57.2239 44.5058 56.8803 45.7434 67.3912 33.3912Z" fill="#592466"/>
    <path d="M74.5364 43.9117C74.7497 44.4234 74.6549 44.233 67.1894 51.6586C66.8102 52.0513 66.988 52.0394 66.5732 46.0775C66.5732 45.5182 71.3132 41.7935 72.8419 39.9609C74.3705 38.1283 73.9676 38.4377 74.5364 43.9117Z" fill="#592466"/>
    <path d="M61.549 28.5595C62.4614 28.4405 59.8781 30.5468 57.994 33.4028C57.5674 34.0216 55.9558 36.1874 55.3277 36.2707C55.3277 36.2707 49.4027 36.4492 49.4027 36.4135C49.2368 36.1874 52.4008 33.1529 55.3277 29.7852C55.6951 29.2259 55.6951 29.3211 61.549 28.5595Z" fill="#592466"/>
    <path d="M90.3563 11.2934C90.2399 12.9772 89.8723 14.6338 89.2661 16.2081C86.4102 23.2053 86.6591 22.5746 85.877 21.1704C82.2509 14.6849 77.2265 14.0304 78.1745 13.4473C80.5778 11.6702 83.2788 10.3401 86.1495 9.52029C90.6407 8.33029 90.143 9.52029 90.3563 11.2934Z" fill="#592466"/>
    <path d="M162.25 98.4253C161.338 95.2956 163.589 87.4059 164.265 85.6566C165.181 82.503 165.447 79.1948 165.047 75.9343C164.573 72.2096 161.966 65.9026 160.591 62.8443C159.217 59.786 153.244 54.1216 151.348 52.646C149.452 51.1704 140.363 47.3386 137.128 45.9106C133.893 44.4826 128.075 44.1613 128.075 44.1613C127.206 43.0703 125.995 42.3078 124.638 41.9986C123.283 41.6895 121.862 41.852 120.609 42.4596C117.054 44.0423 116.462 47.8503 116.154 47.9336C108.807 47.8503 107.776 53.8003 107.776 53.8003C105.05 56.573 105.809 58.3223 106.946 60.143C108.084 61.9637 111.769 62.0113 111.769 62.0113C111.769 62.0113 134.177 57.1204 141.015 67.8304C147.852 78.5404 145.162 96.0096 145.162 96.0096L145.352 113.36C146.437 114.395 147.794 115.098 149.264 115.386C150.732 115.675 152.253 115.538 153.647 114.99C149.393 111.73 150.21 109.873 150.21 109.873C156.657 113.872 159.501 109.873 159.501 109.873C158.406 109.658 157.379 109.177 156.511 108.471C155.644 107.766 154.961 106.858 154.524 105.827C156.423 106.405 158.385 106.752 160.366 106.862C165.663 107.374 166.848 104.482 166.848 104.482C166.848 104.482 163.151 101.555 162.25 98.4253Z" fill="#AA3CC5"/>
    <path d="M116.864 107.099C116.533 106.728 116.35 106.247 116.35 105.749C116.35 105.25 116.533 104.769 116.864 104.398C109.577 99.8879 111.141 96.1632 109.577 96.9129C107.899 97.6563 106.108 98.1071 104.28 98.2457C103.806 98.3885 105.595 101.459 109.541 102.78C112.883 103.898 105.986 107.099 104.931 107.183C103.213 107.314 110.465 111.681 114.577 108.896C114.674 108.818 114.793 108.771 114.917 108.764C115.041 108.757 115.164 108.789 115.269 108.857C115.374 108.924 115.455 109.022 115.501 109.138C115.547 109.254 115.556 109.382 115.525 109.503C115.192 111.166 114.596 112.765 113.76 114.239C115.81 114.608 118.156 113.252 119.862 112.085C120.313 111.788 120.147 111.264 120.325 110.895C120.396 110.729 118.903 109.622 116.864 107.099Z" fill="#AA3CC5"/>
    <path d="M98.2012 121.761C100.37 126.283 100.465 126.057 99.9313 126.247L75.8403 134.232C75.5559 134.232 75.9469 134.91 70.5907 124.272C70.3182 123.736 68.8843 124.462 85.7943 118.774C88.7331 117.786 91.5297 116.798 94.6699 115.763C95.4757 115.501 94.8003 114.692 98.2012 121.761ZM94.9662 125.628C94.4566 124.748 94.0537 125.354 93.4257 125.378C93.2716 125.378 77.9259 130.138 76.8357 130.662C76.3024 130.888 75.8166 131.602 76.4683 131.769C76.7172 131.828 94.0537 126.687 94.9662 125.628ZM91.2453 120.606C91.6245 120.416 91.8852 119.75 91.0794 119.583C90.9372 119.583 90.0247 119.857 88.7094 120.19C84.0286 121.38 83.3769 122.26 82.1682 122.237C80.7699 122.237 80.8291 122.808 78.7435 123.272C74.0035 124.331 74.7738 124.783 73.5058 124.843C73.3518 124.843 73.1029 125.212 73.0555 125.354C72.9489 125.783 74.2405 126.033 74.8567 125.688C76.1744 124.976 77.6135 124.52 79.099 124.343C81.0543 123.998 80.9832 123.367 82.1326 123.427C84.3249 123.129 85.1544 122.237 87.1452 121.737C89.136 121.237 89.7285 121.38 91.2453 120.606ZM88.1287 124.95C88.3271 124.963 88.5236 124.905 88.6822 124.784C88.841 124.664 88.9516 124.491 88.9938 124.295C88.9938 122.927 84.2538 125.105 82.0141 125.485C79.9759 125.83 75.3426 127.187 74.6671 127.925C74.1931 128.448 74.4538 128.746 75.0937 128.782C77.4637 127.972 77.1438 127.865 77.997 127.592C82.9266 126.199 79.5375 127.342 84.7633 125.83C87.1333 125.188 87.2874 124.95 88.1287 124.95Z" fill="white"/>
    <path d="M79.3947 153.88C79.7502 154.606 78.4467 155.01 77.6883 155.153C77.238 154.855 78.2334 156.51 67.3788 134.554C60.4347 120.679 60.4347 121.238 61.1457 121.238C64.8429 121.25 59.1194 113.051 79.3947 153.88Z" fill="#AA3CC5"/>
    <path d="M63.7767 129.889C76.9776 156.783 76.7287 155.545 76.1599 155.748C69.0499 158.199 72.6049 162.888 71.8702 164.494C71.4792 163.935 46.9852 113.538 46.8193 113.122C47.0089 113.05 46.369 112.729 56.7496 118.953C60.0795 120.952 58.1479 118.405 63.7767 129.889Z" fill="#AA3CC5"/>
    <path d="M100.251 116.704C96.2104 108.291 96.483 108.791 96.1512 108.91C92.5962 110.183 73.9917 116.383 70.8514 117.418C63.1134 119.989 63.5992 119.489 64.0732 120.417C82.2037 156.01 79.4782 153.999 81.552 153.439C83.9812 153.38 82.3578 157.438 82.4407 157.652C82.5237 157.866 83.1162 159.354 83.448 159.235C84.1637 158.922 84.8955 158.648 85.6402 158.414C87.3151 158.165 88.9467 157.681 90.4869 156.974C93.8049 155.272 93.8523 160.615 89.6574 162.674C88.5225 163.366 87.3039 163.91 86.0313 164.292C85.818 164.292 85.7706 164.459 85.8654 164.649C86.7186 166.458 86.5053 166.315 87.0504 166.315C93.4494 166.315 92.691 165.28 97.1229 164.34C98.4264 164.054 98.9715 165.661 98.4619 166.72C98.3434 166.958 98.5449 166.934 98.7937 166.863C98.7937 166.863 120.124 160.52 121.048 160.222C121.972 159.925 121.534 160.996 100.251 116.704ZM100.725 127.188C100.536 127.259 78.4947 134.602 75.8403 135.387C74.8567 135.28 75.0463 135.816 69.5598 124.356C68.8251 122.833 67.8534 123.547 94.8595 114.526C95.926 114.169 95.8786 114.526 97.3599 117.573C101.365 125.831 102.242 126.664 100.725 127.188Z" fill="#AA3CC5"/>
    <path d="M164.62 186.163C165.805 187.936 166.077 185.151 156.23 199.11C155.162 200.561 154.007 201.943 152.77 203.251C151.099 205.191 149.76 207.357 147.117 209.392C140.932 214.152 136.298 212.962 130.906 206.619C130.09 205.225 129.509 203.705 129.188 202.121C128.418 198.991 127.043 198.122 126.084 194.576C123.571 185.306 126.309 140.514 126.558 140.288C127.577 139.348 125.989 139.812 123.702 136.813C121.841 134.433 122.706 131.887 118.962 125.77C118.887 125.605 118.776 125.459 118.636 125.343C118.496 125.228 118.332 125.146 118.156 125.104C117.433 124.985 118.026 125.925 118.357 126.663C118.855 127.746 117.836 127.055 117.646 127.044C117.16 126.984 116.829 127.543 118.488 128.519C118.689 128.638 119.234 128.65 119.376 128.84C119.515 129.106 119.616 129.39 119.673 129.685C119.673 129.852 119.673 129.9 119.519 129.911C118.215 130.066 117.646 130.34 116.568 129.424C115.952 128.9 114.85 127.71 114.873 126.901C114.933 124.521 114.53 123.331 116.568 122.141C117.362 121.7 117.504 120.951 117.552 120.07C117.634 118.452 119.258 119.332 119.922 117.226C120.87 114.227 125.207 116.869 124.579 115.191C122.659 110.134 116.639 106.861 117.469 105.409C118.251 104.136 121.107 106.504 121.841 107.361C124.14 109.967 128.359 113.513 128.738 115.988C128.975 117.476 130.006 117.988 131.037 121.462C132.897 127.698 135.007 130.352 135.255 137.242C135.646 147.952 146.655 189.054 146.667 189.09C146.975 189.733 147.71 189.459 147.674 188.793C147.248 180.808 142.816 172.002 143.906 171.942C145.704 171.817 147.501 172.171 149.12 172.966C150.21 173.787 156.941 179.796 157.533 180.356C160.117 182.664 162.854 183.45 164.62 186.163Z" fill="white"/>
    <path d="M151.206 85.215C156.206 80.9667 162.12 84.4177 157.131 92.4383C156.135 94.021 155.14 95.3895 150.791 97.1983C145.139 99.5783 144.463 85.0484 144.356 111.478C144.356 118.975 145.162 121.224 155.65 126.33C156.064 126.532 152.426 129.257 152.403 129.269C146.087 133.815 149.796 131.649 142.804 134.469C141.619 134.921 136.725 136.956 136.642 136.207C135.694 128.245 133.798 126.425 132.495 121.76C131.31 117.643 129.982 116.595 129.864 115.215C129.698 113.192 125.124 109.265 124.567 108.551C124.366 108.313 124.389 108.218 124.685 108.111C138.04 103.743 136.014 100.423 134.663 101.221C131.914 102.827 119.602 107.254 113.866 100.649C107.574 93.3903 107.432 80.5026 110.039 81.3118C111.116 81.5511 112.238 81.489 113.283 81.1324C114.328 80.7756 115.255 80.138 115.964 79.2888C116.651 78.5986 115.964 81.2285 119.282 81.8354C119.969 81.9663 120.23 81.1214 119.815 80.9191C118.808 80.4074 117.86 80.1694 117.315 78.4677C116.888 77.1468 120.988 78.2059 120.87 75.1119C120.87 74.2908 120.076 74.267 119.898 75.0048C119.578 76.2781 119.898 76.0877 118.002 76.4447C117.836 76.4447 117.789 76.4447 117.848 76.2424C118.891 72.9461 118.559 72.006 119.626 71.2087C120.088 70.9375 120.614 70.796 121.148 70.7989C121.684 70.8017 122.208 70.9489 122.667 71.225C123.126 71.5011 123.503 71.8959 123.758 72.3682C124.012 72.8406 124.137 73.3731 124.117 73.91C124.271 77.8013 128.027 83.5014 132.412 83.3348C138.621 83.0849 140.41 76.6589 141.536 75.9568C142.283 75.4808 143.065 75.7783 146.217 77.718C147.141 78.2773 144.451 83.9179 148.836 85.8457C149.298 86.048 148.291 86.6668 149.416 87.0357C149.547 87.1785 150.187 86.0718 151.206 85.215ZM156.882 88.9516C157.045 88.6191 157.114 88.2472 157.079 87.8779C157.043 87.5085 156.906 87.1566 156.68 86.8618C156.457 86.5671 156.154 86.3413 155.808 86.2101C155.463 86.0789 155.088 86.0475 154.725 86.1194C152.806 86.5359 150.708 88.9873 151.727 90.9746C152.071 91.6529 151.727 93.0571 151.016 93.2237C149.606 93.5331 149.511 92.8667 149.168 93.5093C148.824 94.1519 149.582 94.6993 150.353 94.6993C152.794 94.6993 153.611 91.8909 152.829 90.3796C152.729 90.2148 152.67 90.0278 152.657 89.8351C152.646 89.6423 152.68 89.4493 152.758 89.2729C153.256 88.0829 155.732 85.8338 155.969 89.023C156.029 89.3562 156.633 89.4752 156.882 88.9516ZM119.483 90.2963C119.483 89.8679 119.223 88.6184 118.227 88.5946C117.042 88.5946 116.864 90.3677 117.718 91.2364C118.227 91.7719 119.199 91.8909 119.483 90.2963Z" fill="white"/>
    <path d="M100.334 178.989C103.794 181.369 103.26 179.096 101.59 190.377C100.78 195.244 99.644 200.05 98.1887 204.764C97.8569 205.74 98.3546 201.968 98.1887 197.969C98.0228 192.543 92.4533 183.475 91.8608 183.689C90.6758 184.082 93.0458 185.474 95.9372 193.519C97.9161 199.159 96.8733 206.918 95.4869 208.988C93.6857 211.654 92.1215 212.785 87.5829 212.094C85.5471 211.786 83.6478 210.879 82.1249 209.487C80.6022 208.096 79.5242 206.282 79.0272 204.276C78.3873 201.634 77.3445 198.588 77.8422 195.387C80.2122 178.251 78.7902 186.188 81.7527 190.282H82.286C82.1201 188.985 82.0016 189.092 80.4137 183.856C79.916 182.19 79.9041 181.952 79.3827 181.619C77.1431 180.214 77.5578 179.988 77.1194 177.608C76.8468 176.168 75.0812 176.549 75.3063 174.526C75.3679 173.956 75.2838 173.379 75.062 172.849C74.8401 172.321 74.4878 171.858 74.0384 171.504C73.2207 170.73 73.4103 168.445 74.8323 166.958C77.3682 164.316 77.6526 163.138 80.1174 161.305C80.5085 161.008 80.6033 161.115 84.2531 160.258C85.047 160.068 84.5612 159.877 86.232 159.58C90.6995 158.771 91.8252 157.2 91.7778 158.199C91.6756 159.004 91.3519 159.764 90.8433 160.395C90.3347 161.026 89.6612 161.502 88.8983 161.769C87.9377 162.331 86.9209 162.79 85.8647 163.138C78.7547 164.756 79.1339 169.54 80.2952 168.172C81.812 166.387 81.5868 166.018 82.1556 167.065C82.5822 167.85 82.3689 167.493 80.9706 168.755C79.7856 169.826 75.8277 173.039 77.7474 172.753C78.02 172.753 78.174 172.575 80.6862 170.456C82.4756 168.933 83.1984 167.565 88.9812 167.505C92.3111 167.505 94.9062 165.97 97.1696 165.53C98.0346 165.351 97.8095 168.136 91.7423 169.778C90.4184 170.311 89.0449 170.71 87.6422 170.968C86.5328 171.024 85.463 171.4 84.5612 172.051C83.7317 172.836 83.1155 173.241 83.5421 173.681C83.6961 173.848 83.8383 173.979 84.0635 173.741C85.4973 172.241 86.9786 172.313 89.9885 171.706C90.8891 171.527 90.6995 171.075 92.1333 170.932C93.6001 170.679 95.052 170.346 96.4823 169.933C97.6673 169.933 96.7548 172.456 90.5573 174.859C87.5592 176.049 86.1491 176.371 85.0944 177.953C84.81 178.382 84.573 179.024 85.0944 179.262C85.9595 179.655 85.4381 177.834 88.5309 176.704C89.0642 176.513 89.1945 176.466 89.3841 178.846C89.787 184.01 87.891 186.271 87.737 188.366C87.737 188.651 88.0688 189.02 88.4243 188.58C88.9625 187.415 89.441 186.224 89.8581 185.01C92.5125 177.037 86.3031 174.443 94.5981 177.001C98.3546 178.168 98.876 177.989 100.334 178.989Z" fill="white"/>
    <path d="M81.149 154.818C82.7606 154.449 81.4215 157.948 78.4709 159.578C76.1009 160.923 75.8639 161.054 75.5321 161.458C75.2003 161.863 75.5321 162.375 75.8402 162.267C77.7836 161.696 81.0068 158.21 74.3945 165.837C72.8303 167.646 73.0673 167.777 72.854 166.183C72.8681 165.577 72.9235 164.972 73.0199 164.374C73.3161 162.958 71.7638 159.614 73.4228 158.555C75.5696 157.243 77.8499 156.166 80.2247 155.342C80.5103 155.13 80.8206 154.954 81.149 154.818Z" fill="white"/>
    <path d="M110.584 66.639C110.584 66.4724 111.532 61.879 112.693 60.2011C113.855 58.5232 117.836 54.2511 117.836 54.2511C117.836 54.2511 120.799 55.7981 121.071 53.0611C121.071 53.0611 122.185 54.1202 123.441 52.1567C124.697 50.1932 127.98 50.3955 129.165 50.9191C130.35 51.4427 133.609 52.0377 135.41 55.0722C137.211 58.1067 143.385 68.6858 144.487 70.209C145.589 71.7322 149.085 76.159 146.489 76.9087L141.749 74.1955C141.749 74.1955 140.102 69.3522 135.967 68.662C131.831 67.9718 126.913 67.5553 124.899 71.042C124.899 71.042 120.929 68.662 118.168 71.1967C118.168 71.1967 117.54 67.472 114.092 66.8889C110.643 66.3058 110.584 66.639 110.584 66.639Z" fill="white"/>
    <path d="M31.2246 89.4634L30.6676 86.0957L33.3339 88.3567L36.7704 86.7383L35.6091 90.582L38.0502 94.152L33.9738 93.4499L32.3622 97.0675L31.3312 92.724L27.7881 91.0342L31.2246 89.4634Z" fill="white"/>
    <path d="M201.901 88.4526C196.367 92.8794 195.774 101.364 192.989 99.3292C189.802 96.9492 187.764 94.4621 187.669 90.8921C187.669 89.9044 187.135 88.9405 186.187 89.2975C185.417 89.6348 184.626 89.921 183.817 90.1543C181.104 90.8683 181.21 88.3931 179.954 89.5474C179.448 89.8985 178.976 90.2971 178.544 90.7374C178.153 91.0944 178.343 90.8921 177.442 90.2138C176.542 89.5355 175.238 90.4637 175.416 90.9873C175.502 91.1146 175.629 91.2086 175.775 91.2541C175.922 91.2994 176.079 91.2934 176.222 91.2372C176.921 90.9278 177.027 91.5942 177.738 92.1654C178.923 93.1293 179.86 89.9877 180.879 90.7136C182.573 91.9036 183.343 91.499 185.927 90.6184C187.527 90.0829 184.457 93.641 190.868 99.1031C194.423 102.161 195.028 101.197 197.812 95.6045C198.831 93.5577 200.834 90.2257 202.647 89.1071C203.394 88.643 204.271 88.405 206.095 89.7021C210.373 92.7485 208.465 93.522 207.909 94.8429C207.814 95.0809 208.323 95.5093 208.548 95.1999C209.959 93.2602 209.568 93.8671 209.864 92.927C209.354 89.9758 204.555 86.3344 201.901 88.4526Z" fill="#1B1B1D"/>
    <path d="M200.123 73.28C200.028 72.685 199.839 72.09 199.72 71.5069C199.706 71.3659 199.65 71.2325 199.559 71.1242C199.468 71.016 199.347 70.9378 199.211 70.9C198.748 70.7572 198.689 71.019 197.101 72.9111C195.691 74.589 196.533 74.3034 193.072 73.4466C192.882 73.4807 192.7 73.5571 192.543 73.6704C192.385 73.7835 192.253 73.9307 192.16 74.1011C191.923 74.4462 191.947 74.5771 193.001 76.2907C193.902 77.7544 194.186 77.3974 193.76 78.0281C191.52 81.3958 190.513 82.5025 194.637 80.9912C197.007 80.1344 196.912 80.0035 197.255 80.3486C198.855 81.9551 201.059 84.6683 201.19 82.3954C201.245 81.5038 201.108 80.6104 200.787 79.7774C200.621 78.9206 203.88 78.4803 204.069 77.2546C204.086 77.2015 204.09 77.1456 204.083 77.0904C204.077 77.0353 204.06 76.9821 204.031 76.9341C204.004 76.8861 203.967 76.8443 203.922 76.8115C203.877 76.7786 203.826 76.7552 203.773 76.7429C199.258 75.1364 200.656 76.7072 200.123 73.28ZM200.182 78.5993C198.997 79.4799 200.111 80.2177 200.016 81.4553C199.092 81.0626 198.049 79.0753 196.675 79.0753C194.198 79.9083 194.044 80.2653 193.606 80.2653C193.748 79.3728 195.833 77.564 194.648 76.6001C194.186 76.2431 193.037 74.5414 193.617 74.6723C195.916 75.2078 195.904 75.3149 196.343 75.0055C198.654 73.4109 198.713 70.9595 199.14 74.3153C199.507 77.3379 198.76 76.1003 202.09 77.3141C202.635 77.5402 200.929 78.0519 200.182 78.5993Z" fill="#1B1B1D"/>
    <path d="M185.334 53.9303C185.429 58.6903 188.403 61.0703 183.426 60.4277C175.795 59.4281 174.266 57.5836 174.989 63.1528C175.084 63.9025 175.119 63.6645 171.434 65.1639C169.585 65.9255 170.427 66.8656 171.434 66.4729C174.799 65.0925 176.281 64.8902 176.174 63.4146C175.937 60.8085 175.605 60.3444 176.589 60.511C183.237 61.582 184.362 61.8319 185.559 61.701C190.228 61.2012 184.279 53.7399 187.467 52.181C189.707 51.0624 190.453 52.8474 201.201 57.1433C201.794 57.3813 202.386 57.6193 202.576 57.06C202.765 56.5007 202.22 56.465 201.924 56.346C191.259 51.9549 192.349 51.7407 190.074 50.991C189.574 50.7557 189.022 50.6493 188.471 50.6813C187.919 50.7134 187.384 50.8828 186.914 51.1745C186.443 51.4662 186.052 51.8708 185.776 52.3519C185.501 52.833 185.348 53.3754 185.334 53.9303Z" fill="#1B1B1D"/>
    <path d="M189.932 39.3534C189.043 40.8171 186.981 44.0063 188.889 43.5303C189.6 43.3637 190.963 43.1019 191.259 42.9829C193.072 42.3641 193.131 42.1142 193.38 42.376C195.75 44.756 197.445 47.3621 197.326 43.0067C197.255 40.9599 196.805 40.6267 197.385 40.4006C198.156 40.0674 199.684 39.2106 200.111 39.1035C201.568 38.6632 201.64 37.7112 201.011 37.4256C200.383 37.14 198.641 36.8068 197.563 36.3427C195.845 35.5692 196.58 36.6283 195.478 32.2491C195.451 32.1188 195.385 32 195.288 31.9098C195.191 31.8196 195.068 31.7625 194.936 31.7467C194.806 31.7308 194.672 31.7571 194.557 31.8216C194.441 31.8863 194.348 31.9859 194.293 32.1063C194.15 32.2967 193.653 33.0107 192.136 35.2479C191.78 35.7834 188.379 33.9865 187.822 34.6529C186.424 36.2832 190.394 38.5918 189.932 39.3534ZM191.354 36.3308C192.539 36.6759 192.325 36.5093 194.482 33.5938C195.169 32.6537 194.731 36.902 196.331 37.0448C196.876 37.0448 197.658 37.7112 198.926 37.9968C199.028 38.0339 199.124 38.086 199.21 38.1515C199.151 38.2348 199.104 38.3419 199.021 38.3776C196.034 39.9246 195.833 39.7342 196.011 40.7576C196.461 43.5779 196.354 43.1376 196.283 43.6255C193.119 40.7457 194.375 41.1146 193.913 41.0313C193.036 40.9004 191.401 41.8881 189.825 42.2213C189.28 42.2213 189.493 42.1023 190.856 39.8413C192.325 37.4018 185.002 34.5101 191.354 36.3308Z" fill="#1B1B1D"/>
    <path d="M161.918 42.0775C161.865 42.5422 161.91 43.0128 162.048 43.4592C162.187 43.9056 162.417 44.318 162.724 44.6698C163.031 45.0217 163.408 45.3051 163.831 45.5022C164.252 45.6993 164.711 45.8055 165.177 45.8141C166.907 45.9688 167.606 44.4813 168.258 44.6241C169.715 44.9097 170.877 43.2913 170.924 42.137C170.924 41.5301 171.374 41.1255 171.611 40.5424C171.848 39.9593 171.54 39.5904 171.848 39.4952C172.302 39.182 172.667 38.7571 172.91 38.2611C173.153 37.7651 173.264 37.2148 173.235 36.663C173.235 36.5083 173.638 35.9609 173.235 35.473C173.152 35.3659 173.555 34.7233 173.649 34.6281C173.744 34.5329 185.025 35.4373 187.004 25.4532C189.896 10.8638 166.563 4.96141 162.214 18.9796C159.844 26.5242 166.006 30.5226 165.639 31.2961C164.679 33.2834 164.063 32.4861 163.707 33.3548C162.759 35.5563 163.707 35.2826 163.198 35.5563C161.491 36.4369 162.439 37.5198 161.847 37.9363C161.385 38.2774 161.071 38.7845 160.971 39.3521C160.872 39.9196 160.995 40.5037 161.314 40.9827C161.776 41.5301 162.013 41.6491 161.918 42.0775ZM165.26 44.5884C163.885 44.2552 163.719 44.2314 162.89 42.5416C162.783 42.3274 163.044 42.3631 163.269 42.4583C166.539 43.8149 167.452 44.0291 165.26 44.5884ZM164.715 28.1664C159.015 19.0867 167.085 11.792 173.33 12.1371C188.012 12.0538 191.176 31.4508 175.913 33.2001C173.922 33.4381 173.543 32.8669 172.927 33.6642C171.813 35.2469 172.536 35.9609 171.623 35.7229C169.76 35.245 167.984 34.4738 166.362 33.4381C164.857 32.5218 167.547 32.2481 166.765 30.5464C165.983 28.8447 165.994 30.1418 164.715 28.1664ZM164.774 33.5928C171.054 38.3528 173.543 35.9014 171.647 38.1148C171.291 38.5313 169.917 37.8292 169.395 37.6388C166.907 36.6987 162.676 35.3421 164.821 33.5928H164.774ZM163.328 36.663C163.518 36.5202 163.423 36.1156 163.695 36.1394C164.169 36.1394 163.541 36.6392 166.682 37.9006C169.822 39.162 170.094 39.3048 170.711 39.3643C171.327 39.4238 170.64 40.7328 169.455 40.709C167.535 40.0426 161.799 37.9244 163.376 36.663H163.328ZM162.143 39.043C162.665 38.2338 162.238 39.162 164.94 40.3282C167.867 41.6015 168.921 42.0775 169.68 41.9823C169.881 41.9823 169.869 42.1251 169.786 42.2322C169.301 42.8867 168.744 43.8506 167.831 43.2675C165.52 41.6491 160.946 40.9827 162.214 38.9954L162.143 39.043Z" fill="#1B1B1D"/>
    <path d="M185.345 113.479C184.421 112.884 184.777 112.812 184.978 111.932C185.796 108.362 185.76 108.612 185.713 108.362C185.707 108.261 185.674 108.164 185.617 108.081C185.559 107.998 185.481 107.933 185.388 107.892C185.296 107.851 185.195 107.837 185.095 107.851C184.996 107.864 184.902 107.905 184.824 107.969C183.639 108.909 182.288 109.468 181.079 110.349C180.523 110.73 178.65 108.826 178.224 108.992C177.596 109.254 177.133 109.564 177.335 110.337C178.176 113.395 177.916 113.074 177.477 113.36C176.185 114.193 175.107 114.55 175.19 115.609C175.19 116.466 177.773 116.406 178.745 116.418C179.717 116.43 179.515 116.846 179.847 117.394C181.328 119.845 182.217 121.261 182.952 118.477C183.592 116.168 182.798 116.418 186.732 116.287C188.415 116.156 187.147 114.633 185.345 113.479ZM184.504 115.204C183.118 115.383 182.537 115.418 182.383 116.263C182.256 116.951 182.062 117.625 181.802 118.274C181.742 118.229 181.686 118.177 181.636 118.12C179.266 114.621 181.103 115.525 176.754 115.168C175.889 115.168 178.271 114.359 178.97 112.788C179.231 112.205 178.01 110.028 178.698 110.408C180.783 111.515 180.108 111.111 180.368 111.265C181.151 111.753 183.473 109.837 184.362 109.575C184.682 111.539 182.43 112.729 184.552 114.228C186.045 115.264 185.843 115.038 184.504 115.204Z" fill="#1B1B1D"/>
    <path d="M172.133 129.579C168.768 127.794 166.054 129.127 161.907 126.771C160.716 125.933 159.268 125.545 157.819 125.676C156.811 125.938 148.066 122.106 146.182 117.941C145.784 116.855 145.575 115.707 145.566 114.55C145.483 113.645 149.915 117.525 154.204 115.407C154.316 115.367 154.413 115.297 154.485 115.204C154.559 115.111 154.603 114.999 154.614 114.881C154.625 114.764 154.603 114.645 154.549 114.54C154.496 114.435 154.413 114.347 154.311 114.288C152.758 113.633 151.448 112.505 150.566 111.063C150.424 110.825 150.258 110.349 150.803 110.718C155.626 114.014 161.954 110.492 160.023 109.528C158.306 109.091 156.781 108.095 155.686 106.696C155.449 106.398 155.686 106.446 155.828 106.529C159.383 108.124 164.384 107.898 167.204 105.173C168.673 103.744 163.957 103.138 162.926 97.5684C161.895 91.9992 165.296 88.3459 165.889 78.8378C166.197 73.8874 162.523 64.7125 160.201 61.2853C153.884 51.9795 144.796 47.4337 133.455 44.1969C130.77 43.5763 127.972 43.6541 125.326 44.423C124.852 44.6134 124.959 45.3988 125.527 45.3155C129.62 44.408 133.899 44.9373 137.65 46.8149C142.271 49.0045 151.408 51.0751 158.34 60.8688C173.555 82.2888 154.785 92.9988 164.182 102.781C166.161 104.839 166.445 104.506 165.509 105.065C163.831 106.008 161.922 106.459 160.001 106.366C158.081 106.274 156.224 105.642 154.643 104.542C153.908 104.066 153.15 104.542 153.541 105.434C155.188 109.433 159.193 109.956 158.162 110.313C152.711 112.158 150.507 108.802 149.737 108.374C148.102 107.493 147.805 111.063 152.308 114.502C153.245 115.216 145.376 114.609 145.447 112.027C146.099 90.2737 144.013 99.8175 150.306 98.9369C155.532 98.1872 161.563 90.7497 160.118 85.5018C159.146 82.0151 155.935 82.4197 155.129 81.8366C147.32 76.2079 143.172 74.4705 140.909 70.9005C138.231 66.6879 128.241 65.2361 124.722 70.1984C124.591 70.3888 124.485 70.4364 124.307 70.1984C123.981 69.8063 123.579 69.4854 123.125 69.2553C122.672 69.0254 122.176 68.8912 121.668 68.8611C121.161 68.831 120.652 68.9056 120.175 69.0803C119.697 69.2551 119.261 69.5263 118.891 69.8771C118.737 70.0437 118.666 70.0437 118.607 69.8057C117.991 67.2591 114.542 66.0572 111.71 65.9025C111.272 65.9025 111.189 66.0572 112.327 63.0941C112.54 62.5467 113.772 62.4277 115.597 63.7367C117.244 64.7601 116.095 60.9283 113.476 60.9878C112.291 60.9878 116.936 55.8827 117.659 55.0378C118.038 54.6094 118.145 55.3472 119.081 55.4305C119.472 55.4305 119.721 54.8117 119.247 54.4428C113.168 49.6828 119.614 39.901 125.35 43.0545C126.535 43.7328 127.115 42.4714 125.966 41.8645C121.913 39.8772 117.327 42.5904 116.047 47.041C115.882 47.5884 115.846 46.9577 113.085 47.6003C111.848 47.8935 110.711 48.5105 109.789 49.3884C108.867 50.2663 108.193 51.3738 107.835 52.5983C107.675 53.1601 107.363 53.6666 106.935 54.062C104.209 57.0132 105.513 60.7736 108.617 61.7137C108.843 61.7851 109.731 61.8922 109.802 61.4757C109.992 60.7855 109.435 60.7736 108.997 60.6427C104.849 59.3932 107.278 53.7883 107.741 55.7756C108.203 57.7629 110.881 60.2619 111.461 59.2385C112.042 58.2151 107.243 56.9775 109.02 52.515C110.419 48.945 115.716 47.755 115.704 49.1473C115.633 53.5503 117.576 53.9073 117.102 54.4071C114.732 56.8942 113.547 57.7748 112.09 60.8688C111.984 61.1358 111.787 61.3555 111.533 61.4876C109.743 62.3206 109.08 65.0576 109.767 64.653C111.236 63.6653 110.762 63.7248 110.395 65.5693C110.217 66.438 109.032 65.6407 106.046 67.2591C100.725 70.2103 103.309 77.2194 107.835 80.3253C109.554 81.5153 104.446 83.1694 109.518 95.3907C109.542 95.4301 109.556 95.4747 109.559 95.5207C109.562 95.5666 109.553 95.6125 109.535 95.6546C109.516 95.6966 109.488 95.7337 109.452 95.7623C109.416 95.7909 109.374 95.8104 109.328 95.8191C107.465 96.6616 105.447 97.1073 103.403 97.1281C102.692 97.0567 102.716 97.8421 102.929 98.4133C104.695 103.173 109.589 103.614 108.665 104.161C104.932 106.398 105.015 105.982 104.02 106.22C103.836 106.238 103.667 106.328 103.549 106.471C103.432 106.613 103.375 106.797 103.392 106.981C103.309 107.945 104.055 108.493 105.098 109.242C109.554 112.432 113.938 110.432 114.163 110.647C113.813 111.846 113.246 112.971 112.492 113.967C110.857 116.049 115.514 116.347 119.389 113.895C119.459 113.878 119.533 113.878 119.602 113.895C119.47 114.76 119.279 115.615 119.034 116.454C118.465 118.346 117.031 117.644 116.486 119.607C116 121.428 106.804 123.975 105.608 124.736C105.217 124.974 105.501 125.153 101.922 117.81C96.8504 107.445 97.1822 107.457 95.8787 107.898C92.8451 108.873 93.8998 109.385 92.0038 105.518C91.0321 103.53 68.8607 109.338 62.0588 117.465C60.625 119.25 61.49 119.691 61.9759 119.25C62.2484 119.012 64.1444 115.252 74.8094 110.623C79.8687 108.421 85.2092 106.939 90.6766 106.22C91.2928 106.148 91.0439 105.97 92.2645 108.683C92.5726 109.373 62.9476 118.548 62.2129 119.488C61.4782 120.428 59.8429 120.131 60.3406 119.75C60.4507 119.675 60.5279 119.561 60.5566 119.43C60.5852 119.299 60.563 119.162 60.4946 119.048C58.1246 113.538 55.4228 113.098 55.7546 111.908C55.7546 111.682 54.7118 109.219 54.9014 108.862C55.091 108.505 60.6842 113.503 60.4946 116.799C60.4946 117.632 61.8218 117.989 61.6085 116.466C61.0042 112.003 55.091 105.934 53.5268 107.862C53.2543 108.183 54.4037 110.528 54.4274 111.23C53.669 111.004 49.5097 107.66 48.1943 109.314C47.8981 109.671 48.0403 109.718 49.8889 113.146C50.351 114.014 49.0238 113.038 47.7085 112.253C43.7624 109.873 45.3385 112.17 47.4359 116.632C70.7923 164.934 72.6527 167.802 72.4157 169.135C72.2953 169.847 72.3597 170.577 72.6026 171.257C72.8454 171.936 73.2586 172.542 73.8022 173.014C73.986 173.205 74.1183 173.439 74.1867 173.695C74.2552 173.951 74.2575 174.221 74.1932 174.478C74.0629 177.417 76.1603 176.941 76.1366 178.584C76.1492 179.7 76.5712 180.771 77.3216 181.594C79.1228 182.915 78.3526 180.333 76.7528 195.089C76.3025 199.218 77.5823 202.586 78.2815 205.144C79.7627 210.476 85.3915 213.403 89.302 213.474C89.7049 213.474 89.8708 213.332 89.302 215.105C87.4889 220.805 89.7878 221.983 87.0623 225.481C86.5803 226.185 86.3013 227.008 86.2565 227.861C86.2717 227.976 86.3254 228.08 86.4087 228.159C86.4919 228.238 86.5995 228.285 86.7135 228.293C86.8275 228.302 86.9409 228.271 87.0346 228.205C87.1283 228.139 87.1967 228.044 87.2282 227.933C87.797 225.803 89.5982 224.875 89.6693 221.9C89.6693 221.376 89.7404 218.092 89.8589 217.592C90.9136 213.01 90.6884 213.486 91.2928 213.391C95.144 212.772 95.9617 210.606 98.1302 207.655C99.647 205.585 102.87 191.781 103.877 182.058C103.877 181.678 103.877 181.285 104.221 181.023C104.565 180.761 106.271 170.135 106.236 169.123C106.236 168.73 105.548 168.576 105.406 168.933C105.015 169.873 104.423 175.704 103.676 179.571C103.593 180.047 103.403 179.75 101.626 178.488C99.256 176.799 98.9123 177.203 95.9617 176.358C91.2217 174.966 92.4067 175.668 95.0492 173.978C98.6042 171.67 98.3672 169.516 97.9643 169.004C97.5614 168.492 96.2816 168.79 97.9643 168.302C113.642 163.744 119.65 162.031 121.795 161.162C123.276 160.591 122.98 160.424 122.624 160.043C122.624 160.043 120.373 155.45 106.034 126.14C105.821 125.688 105.691 125.855 108.535 124.95C108.724 124.95 108.783 124.95 108.819 125.153C109.526 128.264 111.183 131.078 113.559 133.197C119.922 138.564 122.257 136.696 122.743 137.517C126.784 144.431 124.722 128.223 123.928 178.143C123.928 197.124 125.599 195.993 127.85 201.551C128.028 201.967 129.035 206.311 129.734 207.084C136.666 215.331 142.212 215.188 148.303 210.202C153.41 206.025 161.978 192.519 162.642 193.03C163.305 193.542 164.395 193.589 165.438 194.303C166.848 195.267 169.052 196.207 170.676 195.731C172.015 195.339 171.659 196.267 178.615 175.74C178.983 174.645 178.295 184.665 175.973 193.792C172.773 206.334 167.678 213.498 168.863 218.282C169.337 220.138 168.519 220.805 168.863 223.851C170.048 232.657 169.467 232.098 170.415 232.181C171.363 232.264 170.309 225.339 170.226 224.934C169.503 221.233 170.439 220.174 169.953 218.127C168.697 212.903 175.606 204.502 178.675 186.152C180.026 178.119 178.995 174.99 181.732 167.219C185.145 157.604 187.349 150.833 185.749 140.694C184.564 133.28 182.277 134.958 172.133 129.579ZM61.1464 121.249C64.8436 121.249 59.0963 113.038 79.3598 153.891C79.7153 154.617 78.4118 155.022 77.6534 155.164C77.2031 154.867 78.1985 156.521 67.3439 134.566C60.4354 120.678 60.4354 121.238 61.1464 121.238V121.249ZM49.4386 110.194C51.0146 110.004 57.7336 114.609 59.357 119.203C56.5962 117.824 53.9457 116.232 51.4294 114.443C51.2042 113.479 49.64 110.884 49.4386 110.182V110.194ZM71.8706 164.506C71.4796 163.935 46.9856 113.55 46.8197 113.134C47.0093 113.062 46.3694 112.741 56.75 118.965C60.0799 120.964 58.1483 118.429 63.7771 129.901C76.978 156.795 76.7291 155.557 76.1603 155.759C69.0622 158.199 72.5935 162.876 71.8706 164.494V164.506ZM72.8542 166.219C72.8683 165.614 72.9237 165.009 73.0201 164.411C73.3163 162.995 71.764 159.651 73.423 158.592C75.5698 157.28 77.8501 156.203 80.2249 155.379C80.5092 155.158 80.8196 154.974 81.1492 154.831C82.7608 154.474 81.4217 157.961 78.4711 159.591C76.1011 160.936 75.8641 161.067 75.5323 161.471C75.2005 161.876 75.5323 162.388 75.8404 162.281C77.7838 161.709 81.007 158.223 74.3947 165.851C72.8305 167.671 73.0675 167.79 72.8542 166.208V166.219ZM81.9313 159.079C82.1327 159.579 82.0616 159.496 80.213 159.865C80.213 159.865 80.213 159.865 80.213 159.77C81.244 159.139 81.398 158.425 81.5995 158.473C81.8009 158.52 81.7654 158.711 81.9313 159.115V159.079ZM91.6957 169.718C90.3718 170.251 88.9983 170.65 87.5956 170.908C86.4862 170.964 85.4164 171.34 84.5146 171.991C83.6851 172.776 83.0689 173.181 83.4955 173.621C83.6495 173.788 83.7917 173.919 84.0169 173.681C85.4507 172.181 86.932 172.253 89.9419 171.646C90.8425 171.467 90.6529 171.015 92.0867 170.872C93.5535 170.619 95.0053 170.286 96.4357 169.873C97.6207 169.873 96.7082 172.396 90.5107 174.799C87.5008 175.989 86.1025 176.311 85.0478 177.893C84.7634 178.322 84.5264 178.964 85.0478 179.202C85.9129 179.595 85.3915 177.774 88.4843 176.644C89.0176 176.454 89.1479 176.406 89.3375 178.786C89.7404 183.951 87.8444 186.212 87.6904 188.306C87.6904 188.592 88.0222 188.96 88.3777 188.52C88.7332 188.08 89.693 185.26 89.8115 184.95C92.4659 176.977 86.2565 174.383 94.5515 176.941C98.3554 178.131 98.8294 177.929 100.287 178.929C103.747 181.309 103.214 179.036 101.543 190.317C100.734 195.184 99.5973 199.991 98.1421 204.704C97.8103 205.68 98.308 201.908 98.1421 197.909C97.9762 192.483 92.4067 183.415 91.8142 183.629C90.6292 184.022 92.9992 185.414 95.8906 193.459C97.8695 199.099 96.8267 206.858 95.4403 208.929C93.6391 211.594 92.0749 212.725 87.5363 212.034C85.5005 211.726 83.6012 210.82 82.0783 209.427C80.5556 208.036 79.4776 206.223 78.9806 204.216C78.3407 201.574 77.2979 198.528 77.7956 195.327C80.1656 178.191 78.7436 186.128 81.7061 190.222H82.2394C82.0735 188.925 81.955 189.032 80.3671 183.796C79.8694 182.13 79.8575 181.892 79.3361 181.559C77.0965 180.154 77.5112 179.928 77.0728 177.548C76.8002 176.108 75.0346 176.489 75.2597 174.466C75.3212 173.896 75.2372 173.319 75.0154 172.79C74.7936 172.261 74.4413 171.798 73.9918 171.444C73.1741 170.67 73.3637 168.385 74.7857 166.898C77.3216 164.256 77.606 163.078 80.0708 161.245C80.4619 160.948 80.5567 161.055 84.2065 160.198C85.0004 160.008 84.5146 159.817 86.1854 159.52C90.6529 158.711 91.7786 157.14 91.7312 158.139C91.629 158.944 91.3053 159.704 90.7967 160.335C90.288 160.966 89.6146 161.442 88.8517 161.709C87.8911 162.271 86.8743 162.73 85.8181 163.078C78.7081 164.696 79.0873 169.48 80.2486 168.112C81.7654 166.327 81.5402 165.958 82.109 167.005C82.5356 167.79 82.3223 167.433 80.924 168.695C79.739 169.766 75.7811 172.979 77.7008 172.693C77.9734 172.693 78.1274 172.515 80.6396 170.396C82.429 168.873 83.1518 167.505 88.9346 167.445C92.2645 167.445 94.8596 165.91 97.123 165.47C97.988 165.327 97.7629 168.112 91.6957 169.754V169.718ZM83.5192 167.076C83.3651 166.933 83.4362 167.16 82.7608 165.779C82.6067 165.446 82.8674 165.351 84.5264 164.839C84.7397 164.768 84.9293 165.16 85.4152 166.243C85.5218 166.529 85.3204 166.6 83.5192 167.112V167.076ZM120.989 160.222C120.041 160.519 98.7701 166.85 98.7346 166.862C98.4857 166.934 98.2843 166.957 98.4028 166.719C98.9123 165.625 98.4028 164.018 97.0637 164.339C92.6318 165.279 93.3902 166.303 86.9912 166.315C86.5054 166.315 86.7187 166.458 85.8062 164.649C85.7114 164.458 85.8062 164.339 85.9721 164.292C87.2447 163.91 88.4634 163.366 89.5982 162.673C93.7931 160.615 93.7457 155.272 90.4277 156.973C88.8876 157.68 87.256 158.164 85.5811 158.413C84.8363 158.648 84.1046 158.921 83.3888 159.234C83.057 159.353 82.5356 158.044 82.3816 157.651C82.2275 157.259 83.9221 153.379 81.4928 153.439C79.4191 153.998 82.1446 156.009 64.0141 120.416C63.5401 119.488 63.0542 119.988 70.7923 117.418C73.9325 116.382 92.5844 110.182 96.092 108.909C96.4238 108.79 96.092 108.29 100.192 116.704C121.534 160.995 121.866 159.984 120.989 160.258V160.222ZM147.331 78.9092C147.331 78.4332 147.094 78.4332 152.901 82.2174C153.659 82.7053 151.894 82.503 150.092 84.5974C149.749 85.002 149.737 84.9782 149.239 84.7402C147.083 83.7763 147.023 81.4201 147.331 78.9449V78.9092ZM126.416 70.2103C128.786 68.2587 136.489 68.3063 139.451 71.674C142.034 74.6252 135.635 85.4185 129.319 80.9798C126.286 78.8497 123.466 72.5903 126.416 70.2103ZM111.106 75.6129C111.106 75.0179 110.442 67.6161 111.402 67.6637C113.205 67.5993 114.985 68.0713 116.521 69.0203C119.069 70.6982 116.178 82.2888 109.968 79.9921C109.305 79.7303 111.059 78.1714 111.106 75.6129ZM107.835 68.2468C108.452 68.0564 109.02 67.9136 109.708 67.747C109.921 67.747 110.028 67.747 110.004 67.985C109.388 73.3519 111.118 74.8751 109.068 78.9925C108.831 79.4923 108.783 79.5161 108.38 79.1948C103.415 75.125 102.029 70.0675 107.835 68.2468ZM110.028 81.3368C111.105 81.5761 112.227 81.514 113.272 81.1574C114.317 80.8006 115.244 80.163 115.953 79.3138C116.628 78.6236 115.953 81.2535 119.271 81.8604C119.958 81.9913 120.219 81.1464 119.804 80.9441C118.797 80.4324 117.849 80.1944 117.304 78.4927C116.877 77.1718 120.977 78.2309 120.859 75.1369C120.859 74.3158 120.065 74.292 119.887 75.0298C119.567 76.3031 119.887 76.1127 117.991 76.4697C117.825 76.4697 117.778 76.4697 117.837 76.2674C118.88 72.9711 118.548 72.031 119.614 71.2337C120.076 70.9625 120.603 70.821 121.137 70.8239C121.673 70.8267 122.196 70.9739 122.656 71.25C123.115 71.5261 123.492 71.9209 123.746 72.3932C124.001 72.8656 124.126 73.3981 124.105 73.935C124.259 77.8263 128.016 83.5264 132.4 83.3598C138.61 83.1099 140.399 76.6839 141.525 75.9818C142.271 75.5058 143.054 75.8033 146.206 77.743C147.13 78.3023 144.44 83.9429 148.825 85.8707C149.287 86.073 148.279 86.6918 149.405 87.0607C149.583 87.0607 150.223 86.0016 151.242 85.1448C156.243 80.8965 162.156 84.3475 157.167 92.3681C156.172 93.9508 155.176 95.3193 150.827 97.1281C145.175 99.5081 144.499 84.9782 144.393 111.408C144.393 118.905 145.198 121.154 155.686 126.259C156.1 126.462 152.462 129.187 152.439 129.199C146.123 133.744 149.832 131.579 142.84 134.399C141.655 134.851 136.761 136.886 136.678 136.136C135.73 128.175 133.834 126.355 132.531 121.69C131.346 117.572 130.019 116.525 129.9 115.145C129.734 113.122 125.16 109.195 124.603 108.481C124.402 108.243 124.425 108.148 124.722 108.04C138.077 103.673 136.05 100.353 134.699 101.15C131.95 102.757 119.638 107.184 113.903 100.579C107.539 93.4629 107.397 80.5752 110.004 81.3844L110.028 81.3368ZM113.76 114.24C114.595 112.758 115.187 111.151 115.514 109.48C115.545 109.359 115.536 109.232 115.49 109.115C115.444 108.999 115.363 108.901 115.258 108.834C115.153 108.767 115.03 108.734 114.906 108.741C114.782 108.749 114.663 108.795 114.566 108.873C110.454 111.658 103.202 107.291 104.92 107.16C105.951 107.077 112.872 103.875 109.53 102.757C105.584 101.436 103.795 98.3657 104.269 98.2229C106.12 98.0999 107.936 97.6571 109.637 96.9139C111.201 96.1642 109.637 99.8889 116.924 104.399C116.593 104.77 116.41 105.251 116.41 105.75C116.41 106.248 116.593 106.729 116.924 107.1C118.963 109.599 120.479 110.67 120.373 110.908C120.195 111.289 120.373 111.813 119.911 112.098C118.145 113.3 115.799 114.657 113.76 114.24ZM121.558 135.863C116.19 135.018 110.952 129.687 109.874 125.212C109.672 124.367 109.53 124.451 110.431 124.141C113.073 123.201 114.436 122.19 114.104 122.785C113.44 123.975 113.914 125.51 113.831 126.057C113.523 128.116 114.945 129.853 116.995 130.948C117.268 131.091 117.173 131.067 118.986 131.186C120.171 130.9 120.325 130.781 120.467 131.186C120.727 131.78 120.93 132.397 121.072 133.03C121.546 135.66 122.162 136.005 121.546 135.91L121.558 135.863ZM156.243 199.063C155.175 200.514 154.02 201.897 152.782 203.205C151.112 205.144 149.773 207.31 147.13 209.345C140.944 214.105 136.311 212.915 130.919 206.572C130.103 205.179 129.522 203.658 129.201 202.074C128.431 198.944 127.056 198.076 126.096 194.53C123.584 185.259 126.321 140.468 126.57 140.242C127.589 139.302 126.001 139.766 123.714 136.767C121.854 134.387 122.719 131.84 118.974 125.724C118.9 125.558 118.788 125.412 118.649 125.297C118.509 125.181 118.345 125.099 118.169 125.057C117.446 124.938 118.038 125.879 118.37 126.616C118.868 127.699 117.849 127.009 117.659 126.997C117.173 126.938 116.841 127.497 118.5 128.473C118.702 128.592 119.247 128.604 119.389 128.794C119.528 129.059 119.629 129.344 119.685 129.639C119.685 129.806 119.685 129.853 119.531 129.865C118.228 130.02 117.659 130.293 116.581 129.377C115.964 128.854 114.862 127.664 114.886 126.854C114.945 124.474 114.542 123.284 116.581 122.094C117.375 121.654 117.517 120.904 117.564 120.024C117.647 118.405 119.271 119.286 119.934 117.18C120.882 114.181 125.219 116.823 124.591 115.145C122.672 110.087 116.652 106.815 117.481 105.363C118.263 104.09 121.107 106.458 121.854 107.314C124.153 109.921 128.371 113.467 128.751 115.942C128.988 117.418 130.019 117.941 131.05 121.416C132.91 127.652 135.019 130.305 135.268 137.195C135.659 147.905 146.668 189.008 146.68 189.044C146.988 189.686 147.722 189.424 147.687 188.746C147.26 180.761 142.828 171.955 143.919 171.896C145.716 171.771 147.514 172.124 149.133 172.919C150.223 173.74 156.954 179.75 157.546 180.309C159.999 182.57 162.736 183.355 164.502 186.069C165.758 187.937 166.09 185.152 156.231 199.111L156.243 199.063ZM120.693 114.407C121.238 111.599 121.178 111.706 121.51 112.027C122.104 112.682 122.589 113.429 122.944 114.24C123.193 114.704 122.435 114.538 122.423 114.49C120.728 114.8 120.527 114.942 120.622 114.455L120.693 114.407ZM171.553 192.495C171.503 192.595 171.434 192.683 171.351 192.757C171.286 192.691 171.226 192.618 171.174 192.542C167.95 187.782 166.327 186.592 165.569 185.236C164.609 183.534 161.836 181.773 160.165 180.749C159.063 180.071 156.918 177.858 155.224 176.513C151.396 173.479 151.301 171.563 145.838 170.813C145.009 170.694 143.741 171.063 143.539 170.896C143.338 170.73 143.539 170.444 144.499 168.588C145.304 166.911 146.269 165.317 147.379 163.828C152.285 156.878 151.289 157.235 152.96 154.367C155.899 149.274 156.669 149.893 161.374 144.847C167.82 137.921 168.14 137.767 168.567 136.672C168.756 136.16 168.306 135.922 168.069 136.172C153.328 151.809 154.738 148.667 151.716 154.331C145.021 166.898 148.931 158.151 143.219 168.492C142.615 169.575 136.109 139.718 136.738 137.719C136.915 137.148 137.579 138.064 142.663 135.898C150.353 132.602 146.3 135.28 152.735 130.52C155.994 128.14 157.475 125.486 160.781 127.473C165.047 130.044 166.588 128.984 170.593 130.174C172.714 130.805 172.501 131.507 181.4 135.113C184.007 136.172 184.375 138.481 184.683 140.754C186.211 152.737 185.145 154.189 171.482 192.542L171.553 192.495Z" fill="#1B1B1D"/>
    <path d="M168.542 23.0018C168.756 23.0018 168.91 23.0018 168.838 23.3707C168.388 25.3104 171.007 26.9407 170.486 27.8808C169.777 29.2412 169.277 30.7017 169.004 32.2124C168.945 32.5694 169.265 32.379 169.395 32.4861C169.893 32.9145 170.13 30.6773 171.41 28.2616C172.275 26.6551 169.763 25.0486 169.822 23.6682C169.893 21.8951 170.58 22.9066 172.192 23.4183C173.093 23.7039 173.78 23.4183 174.029 24.0133C174.19 24.3312 174.459 24.5805 174.787 24.716C175.115 24.8514 175.482 24.8639 175.818 24.7511C176.908 24.4655 176.624 25.3104 177.904 25.5841C179.184 25.8578 179.172 25.7983 179.172 26.2743C179.172 26.4409 179.172 26.6194 178.97 26.667C178.361 26.8757 177.779 27.1595 177.24 27.5119C176.565 27.8332 176.861 27.2858 175.735 28.0236C174.041 29.1303 174.325 28.4282 173.614 28.9875C172.429 29.9514 169.834 32.7003 170.663 33.3548C171.493 34.0093 171.588 32.2957 173.27 30.7487C174.953 29.2017 174.692 29.9514 175.261 29.5587C176.446 28.8209 176.612 28.7138 176.79 28.7019C177.809 28.6186 178.591 27.7618 179.361 27.6904C180.404 27.5952 180.132 26.6789 180.357 26.7503C180.582 26.8217 180.582 27.0478 180.665 27.2501C181.411 29.1184 183.734 24.7154 181.945 24.1323C180.155 23.5492 179.681 24.8106 179.397 24.7392C176.648 24.1204 180.558 21.1443 178.97 20.3232C178.236 19.9424 175.451 24.168 174.858 23.3231C173.922 21.9665 174.598 23.3231 170.201 21.5619C169.893 21.4429 169.727 21.0145 169.49 20.7289C169.253 20.4433 168.886 20.4433 168.447 20.3243C167.203 20.0268 166.468 22.6091 168.542 23.0018ZM181.435 25.1319C181.802 25.239 181.53 26.1077 181.198 25.9292C179.942 25.2866 180.997 24.9891 181.435 25.1319ZM168.4 21.2525C168.542 21.2525 168.791 21.669 168.921 21.8713C168.27 22.4068 167.962 21.4191 168.388 21.2525H168.4Z" fill="#1B1B1D"/>
    <path d="M176.813 151.202C172.879 153.225 167.63 156.902 155.483 157.651C155.021 157.651 154.559 157.866 154.618 158.342C154.678 158.818 164.75 159.353 177.133 152.177C178.769 151.213 177.892 150.654 176.813 151.202Z" fill="#1B1B1D"/>
    <path d="M157.333 154.451C163.672 152.463 171.825 146.121 171.304 145.43C170.273 144.11 167.666 149.417 156.989 153.606C156.61 153.749 156.776 154.332 157.333 154.451Z" fill="#1B1B1D"/>
    <path d="M152.865 73.4585C153.066 73.6727 157.747 77.9329 158.256 76.612C158.446 76.1122 158.138 75.9694 156.503 74.827C147.983 69.0198 144.368 57.2626 140.316 54.7398C140.043 54.5732 139.818 55.2277 139.924 55.43C140.856 56.4606 141.7 57.5672 142.449 58.7382C147.414 66.7112 146.181 66.1876 152.865 73.4585Z" fill="#1B1B1D"/>
    <path d="M153.47 133.816C150.78 135.423 150.72 136.196 149.322 136.803C148.398 137.208 141.027 140.099 141.655 141.182C141.999 141.742 141.939 141.289 149.95 137.708C151.089 136.996 152.174 136.2 153.197 135.328C157.25 132.388 157.818 132.436 157.617 131.758C157.262 130.675 155.057 132.876 153.47 133.816Z" fill="#1B1B1D"/>
    <path d="M150.388 94.6516C152.83 94.6516 153.647 91.8432 152.865 90.3319C152.764 90.1671 152.705 89.9803 152.693 89.7874C152.681 89.5946 152.716 89.4016 152.794 89.2252C153.292 88.0352 155.768 85.7861 156.005 88.9753C156.005 89.3561 156.622 89.4751 156.882 88.9753C157.046 88.6428 157.115 88.271 157.079 87.9016C157.043 87.5322 156.906 87.1803 156.681 86.8856C156.457 86.5908 156.155 86.3651 155.809 86.2338C155.464 86.1027 155.088 86.0713 154.726 86.1431C152.806 86.5596 150.708 89.011 151.727 90.9983C152.071 91.6766 151.728 93.0808 151.017 93.2474C149.606 93.5568 149.512 92.8904 149.168 93.533C148.824 94.1756 149.583 94.6516 150.388 94.6516Z" fill="#1B1B1D"/>
    <path d="M142.2 40.4607C142.271 39.6515 142.034 37.3786 144.036 36.8312C145.648 36.379 146.537 36.5337 147.26 35.2723C147.876 34.2013 147.26 33.8681 147.84 32.7614C149.784 29.1914 148.788 29.7388 151.395 28.5964C158.363 25.4905 152.58 21.5278 151.964 23.527C151.644 24.4909 152.26 25.0383 152.675 24.1101C152.888 23.6222 155.152 25.3834 152.485 26.8471C150.021 28.1918 148.824 28.1799 148.16 29.8816C147.497 31.5833 146.43 32.6662 146.466 34.237C146.466 35.3556 145.435 35.3199 144.238 35.5579C143.291 35.8184 142.462 36.3982 141.89 37.1999C141.318 38.0016 141.038 38.9766 141.098 39.9609C141.121 42.1029 142.046 42.3171 142.2 40.4607Z" fill="#1B1B1D"/>
    <path d="M127.269 50.064C126.503 50.0461 125.741 50.1918 125.033 50.4913C124.327 50.7907 123.692 51.2372 123.169 51.8014C122.47 52.5511 123.169 53.2294 123.88 52.6225C124.41 52.073 125.068 51.6655 125.794 51.4369C126.52 51.2083 127.293 51.1658 128.04 51.3135C136.903 52.5035 137.52 63.4872 146.585 74.34C147.663 75.6133 148.504 75.1492 148.09 74.3995C146.417 72.3249 144.869 70.1513 143.456 67.8902C135.979 54.4194 135.256 51.254 127.269 50.064Z" fill="#1B1B1D"/>
    <path d="M127.98 61.1069C127.565 61.5472 127.257 62.4992 127.874 62.2969C128.727 61.9518 129.533 60.9403 131.677 60.9641C134.652 60.9641 135.73 65.3433 135.932 63.1181C135.683 59.5838 131.369 57.4536 127.98 61.1069Z" fill="#1B1B1D"/>
    <path d="M130.03 75.1125C130.67 75.1125 130.705 74.6841 130.871 74.0296C130.682 72.7682 129.686 72.8396 129.449 73.5655C129.212 74.2914 129.331 75.0768 130.03 75.1125Z" fill="#1B1B1D"/>
    <path d="M120.432 51.6455C120.432 52.4428 120.432 53.8946 121.25 53.7637C122.328 53.5971 120.551 51.5741 122.198 49.0037C122.381 48.6474 122.641 48.3366 122.958 48.0937C123.276 47.8508 123.643 47.6819 124.034 47.5995C124.172 47.5433 124.292 47.4524 124.383 47.3355C124.474 47.2187 124.533 47.08 124.556 46.9331C124.497 45.3623 120.385 47.0878 120.432 51.6455Z" fill="#1B1B1D"/>
    <path d="M112.575 7.56803C112.931 7.66323 113.44 7.15153 114.009 7.05633C114.862 6.91353 117.126 6.84213 117.564 7.71083C118.974 10.4359 114.199 13.8393 113.618 17.5997C113.251 19.9797 115.739 20.5985 119.543 21.6576C122.826 22.562 116.711 26.7627 118.583 29.2974C118.891 29.702 119.768 30.4874 120.479 31.2371C122.269 33.1173 119.946 35.6282 121.119 35.8781C122.292 36.128 123.157 32.201 121.119 30.2137C118.856 27.9289 118.619 28.7262 121.024 24.5017C121.652 23.395 121.996 21.4553 120.621 20.8603C119.247 20.2653 119.437 20.7056 116.142 19.4204C111.118 17.4807 120.669 11.7211 118.406 7.23483C117.884 5.94963 116.782 6.09243 115.277 5.94963C112.244 5.87823 112.137 7.44903 112.575 7.56803Z" fill="#1B1B1D"/>
    <path d="M119.483 90.2974C119.483 89.869 119.223 88.6195 118.227 88.5957C117.042 88.5957 116.865 90.3688 117.718 91.2375C118.227 91.773 119.199 91.892 119.483 90.2974Z" fill="#1B1B1D"/>
    <path d="M115.158 73.1009C115.063 71.9109 114.127 71.9109 113.973 72.3631C113.226 73.7078 114.779 74.9692 115.158 73.1009Z" fill="#1B1B1D"/>
    <path d="M94.8003 114.526C67.7942 123.559 68.7303 122.856 69.5006 124.356C74.9871 135.816 74.7975 135.28 75.7811 135.387C78.4829 134.602 100.524 127.259 100.666 127.188C102.183 126.664 101.306 125.831 97.2533 117.573C95.8313 114.574 95.8787 114.169 94.8003 114.526ZM99.9195 126.248L75.8403 134.233C75.5559 134.233 75.947 134.911 70.5908 124.273C70.3182 123.737 68.8844 124.463 85.7943 118.775C88.7331 117.787 91.5297 116.799 94.67 115.764C95.4876 115.502 94.8359 114.693 98.225 121.714C100.37 126.284 100.465 126.069 99.9314 126.248H99.9195Z" fill="#1B1B1D"/>
    <path d="M93.4258 125.378C93.2717 125.378 77.926 130.138 76.8358 130.662C76.3025 130.888 75.8167 131.602 76.4684 131.769C76.6817 131.769 94.0183 126.687 94.9307 125.628C94.4567 124.748 94.0538 125.354 93.4258 125.378Z" fill="#1B1B1D"/>
    <path d="M79.1228 124.343C81.0781 123.998 81.007 123.367 82.1564 123.427C84.3487 123.129 85.1782 122.237 87.169 121.737C89.1598 121.237 89.7286 121.38 91.2809 120.547C91.6601 120.356 91.9208 119.69 91.115 119.523C90.9728 119.523 90.0604 119.797 88.745 120.13C84.0643 121.32 83.4125 122.201 82.2038 122.177C80.8055 122.177 80.8648 122.748 78.7792 123.212C74.0392 124.272 74.8094 124.724 73.5415 124.783C73.3874 124.783 73.1386 125.152 73.0912 125.295C72.9845 125.723 74.2762 125.973 74.8924 125.628C76.2106 124.939 77.6454 124.504 79.1228 124.343Z" fill="#1B1B1D"/>
    <path d="M83.1281 64.9619C84.8582 62.6533 83.8391 62.9865 89.539 64.9619C89.6576 65.0171 89.7906 65.033 89.9188 65.0073C90.047 64.9816 90.1637 64.9156 90.252 64.8189C90.3404 64.7221 90.3959 64.5998 90.4104 64.4693C90.425 64.3388 90.3979 64.2071 90.3329 64.0932C89.7092 62.7338 88.9883 61.4214 88.1762 60.1662C87.6904 59.5474 90.1907 56.8699 90.2381 55.4062C90.3092 53.2523 85.9129 56.8342 84.953 55.5728C84.1828 54.5613 83.0096 53.4427 82.2394 52.217C81.8957 51.6577 81.2321 51.4554 81.1255 52.1218C80.213 58.2027 81.6824 56.7033 78.3052 58.0123C76.421 58.7501 76.3618 58.7382 76.2551 59.3451C75.9233 61.261 80.3315 61.5347 80.3434 62.4034C80.4145 66.3185 80.2604 66.0805 80.3434 66.9016C80.3601 67.0118 80.4061 67.1153 80.4766 67.2014C80.547 67.2875 80.6393 67.3529 80.7437 67.3906C80.848 67.4284 80.9605 67.4372 81.0696 67.4161C81.1785 67.3949 81.2797 67.3447 81.3625 67.2705C82.0144 66.5519 82.605 65.7797 83.1281 64.9619ZM80.4619 60.9754C76.4092 59.4522 76.4092 59.7854 80.8648 58.167C81.8365 57.81 81.3743 55.6799 82.0498 53.8473C86.2802 57.8219 82.7134 57.4887 88.8991 56.0607C87.9866 58.5121 86.0906 59.2142 87.1808 60.4875C87.7903 61.3442 88.318 62.2566 88.7569 63.2126C89.0531 63.7124 87.5719 63.2126 85.4744 62.4272C84.2894 61.9869 84.562 61.0944 81.7654 65.0214C80.6752 66.5565 82.2512 61.6418 80.4619 60.9754Z" fill="#1B1B1D"/>
    <path d="M60.3168 44.16C60.8856 43.5412 60.8975 43.5412 61.4189 44.16C61.9496 44.7938 62.352 45.5254 62.6039 46.3139C62.8172 47.0755 62.0114 46.6709 61.7625 46.6828C60.5775 46.6828 61.0634 47.5753 61.3596 47.7181C64.2747 49.1342 65.5308 45.7665 65.6138 46.8732C65.7441 48.3726 65.7323 50.0029 65.8034 51.9664C65.8034 52.8589 66.5262 53.5372 67.1306 52.9898C67.7349 52.4424 69.3465 50.8002 71.6336 48.563C75.3782 44.8859 75.5322 44.993 75.4848 44.2671C74.9397 36.2941 74.2998 38.3171 76.9068 35.473C80.0589 32.0577 86.3868 25.1081 88.4369 20.9431C91.6008 14.648 92.8569 8.01971 89.9063 7.68651C85.9602 7.24621 79.0991 10.7091 75.6863 13.7198C73.2388 15.8246 70.9531 18.1119 68.8488 20.5623C61.7388 28.4044 63.7533 27.1311 60.5538 27.5595C54.1193 28.3925 56.3708 27.0002 48.372 35.7586C47.3885 36.8415 48.0876 37.5793 48.7275 37.5793C50.6482 37.3778 52.5807 37.3142 54.5103 37.3889C54.1754 37.7369 53.9294 38.1611 53.7933 38.6252C53.657 39.0894 53.6347 39.5798 53.7282 40.0545C53.9754 40.9977 54.4706 41.8566 55.1621 42.5416C55.5531 42.7915 55.8375 42.3512 55.6835 41.8871C55.6124 41.6491 54.3918 39.8403 54.7473 39.4C55.1028 38.9597 56.0034 39.4 58.6223 41.3992C59.3451 41.9466 57.9587 42.4702 56.7855 44.2076C56.1101 45.231 57.3069 45.7546 57.6269 45.9926C57.9468 46.2306 58.2431 46.2782 58.563 46.0521L60.3168 44.16ZM54.5103 52.1687C46.2153 65.2587 44.3667 78.9675 50.7657 96.0083C50.8842 96.3058 51.2871 97.6505 51.69 97.3768C52.9698 96.5319 46.2035 85.8219 48.4313 70.0663C50.4813 55.5721 60.0087 47.2064 60.2813 45.945C60.4235 45.3262 60.1983 45.0644 59.4636 45.35C57.6482 47.4978 55.9926 49.7768 54.5103 52.1687ZM58.2075 39.7332C55.8968 37.9839 54.9843 38.7574 55.4228 38.0077C55.6361 37.6388 55.8494 37.2223 56.193 37.377C57.8402 37.5198 58.409 38.1505 60.3998 39.5071C60.7434 39.7451 60.4709 40.0069 59.9258 40.5424C59.6058 40.8994 59.6769 40.828 58.2549 39.7332H58.2075ZM58.0653 45.112C57.1884 44.5051 56.7974 45.7427 67.3557 33.3905C67.8771 32.7955 68.5407 32.2005 68.8607 32.9978C68.8962 33.0335 58.1246 45.0882 58.0653 45.112ZM64.4051 46.302C63.3623 47.1945 64.2984 46.302 62.4972 43.922C61.6677 42.8272 61.5611 42.8272 61.7151 42.6487C62.675 41.5182 62.4735 40.9827 64.7724 45.4928C65.0094 45.8141 64.7724 45.9926 64.4406 46.2782L64.4051 46.302ZM67.1543 51.6808C66.7751 52.0735 66.9528 52.0616 66.5381 46.0997C66.5381 45.5404 71.2781 41.8157 72.8067 39.9831C74.3354 38.1505 73.9917 38.4599 74.5013 43.9339C74.7501 44.4218 74.6553 44.2314 67.1898 51.657L67.1543 51.6808ZM78.2103 13.4461C80.6028 11.6728 83.2916 10.3429 86.1498 9.51911C90.641 8.32911 90.1433 9.51911 90.3566 11.2922C90.2414 12.9762 89.8739 14.633 89.2664 16.2069C86.4105 23.2041 86.6594 22.5734 85.8773 21.1692C82.2512 14.6837 77.2386 14.053 78.2103 13.4461ZM76.6817 14.6361C78.1985 13.1962 86.8134 22.0855 85.5692 23.7515C81.9312 28.6543 69.2754 42.9343 65.9337 44.993C65.2378 43.6328 64.4457 42.3244 63.5637 41.0779C63.2675 40.6376 63.2319 40.9351 67.415 36.2584C69.785 33.5452 70.4604 33.2358 69.6309 32.2124C69.2754 31.7721 68.3274 31.1295 67.7231 31.7483C67.1187 32.3671 66.7869 32.7836 63.8126 36.2108C61.0752 39.3524 61.644 38.9954 60.6723 38.2576C56.7618 35.2945 56.0627 37.6269 58.563 34.4258C64.1705 27.4467 70.2103 20.8291 76.6461 14.6123L76.6817 14.6361ZM55.245 29.7491C55.7309 29.1779 55.7309 29.2731 61.5492 28.5591C62.4617 28.4401 59.8784 30.5464 57.9942 33.4024C57.5676 34.0212 55.956 36.187 55.328 36.2703C55.328 36.2703 49.403 36.4488 49.403 36.4131C49.1541 36.1989 52.3181 33.1644 55.245 29.7491Z" fill="#1B1B1D"/>
    <path d="M84.763 125.879C87.133 125.189 87.287 124.974 88.1284 124.962C88.3268 124.976 88.5232 124.917 88.682 124.797C88.8408 124.677 88.9512 124.503 88.9934 124.308C88.9934 122.939 84.2534 125.117 82.0138 125.498C79.9756 125.843 75.3422 127.2 74.6668 127.937C74.1928 128.461 74.4535 128.759 75.0934 128.794C77.4634 127.985 77.1434 127.878 77.9966 127.604C82.9499 126.248 79.5371 127.39 84.763 125.879Z" fill="#1B1B1D"/>
    <path d="M80.5802 88.0593C79.8455 88.1545 77.4044 88.69 77.0252 88.7971C76.3261 88.9756 74.1338 84.1085 73.5769 85.9173C72.2141 90.3679 74.0864 89.642 70.6144 89.9395C69.1924 90.0585 69.1687 90.4393 69.2042 91.1295C69.2042 91.5936 69.3701 91.6888 70.2233 92.2124C74.0746 94.5924 72.3919 92.8669 72.0719 97.2699C72.0719 97.8768 72.38 98.1624 72.8659 98.0077C73.9679 97.6388 75.7099 94.4377 76.5157 94.8542C77.6815 95.2592 78.8683 95.6008 80.0707 95.8776C80.7461 96.068 81.0305 95.711 80.9476 95.1874C80.8172 94.3544 79.9048 93.9974 78.9923 92.3076C78.7909 91.9149 78.8383 92.0934 81.1016 89.3683C81.4927 88.8685 81.6704 87.9284 80.5802 88.0593ZM77.9732 92.8193C79.0753 94.7709 79.5256 94.5924 77.3807 94.1164C74.8922 93.5571 76.018 93.3905 73.4347 96.0204C73.1266 96.3417 73.4939 95.0327 73.5887 93.7951C73.6954 92.3195 70.8514 91.8435 70.4366 91.07C70.6381 91.07 70.2826 91.07 72.1075 90.8915C74.359 90.7011 73.2925 89.4278 74.276 87.4048C75.0818 88.095 75.9113 90.1656 76.646 90.0109C82.654 88.6067 76.6697 90.5107 77.9732 92.8193Z" fill="#1B1B1D"/>
    <path d="M76.148 28.3451C81.8716 28.0476 81.4687 19.6343 75.9703 19.7652C69.9149 20.503 71.017 28.5593 76.148 28.3451ZM75.52 20.9314C75.9814 20.8492 76.4552 20.8705 76.9074 20.9939C77.3597 21.1173 77.779 21.3396 78.1356 21.645C78.4922 21.9504 78.7771 22.3312 78.9697 22.7602C79.1624 23.1891 79.2582 23.6555 79.2501 24.1261C79.2422 24.5966 79.1305 25.0595 78.9233 25.4816C78.7161 25.9037 78.4185 26.2745 78.0517 26.5675C77.685 26.8604 77.2582 27.0682 76.802 27.176C76.3459 27.2837 75.8717 27.2888 75.4133 27.1908C74.6927 27.0367 74.048 26.6358 73.5894 26.0568C73.1308 25.4778 72.8869 24.7566 72.8995 24.0169C72.9121 23.2772 73.1804 22.5649 73.6584 22.002C74.1365 21.4392 74.7946 21.0606 75.52 20.9314Z" fill="#1B1B1D"/>
    <path d="M63.0777 107.505C62.2956 107.647 62.1415 108.695 63.1488 108.695C68.2917 108.611 68.5524 99.2578 63.5991 99.3292C63.0606 99.3094 62.5229 99.3859 62.0112 99.5553C61.9401 98.877 63.1962 95.9139 61.869 93.6053C60.3996 91.0587 56.1454 91.2253 54.759 94.7358C54.2268 96.2543 53.9988 97.8635 54.0883 99.4707C54.1779 101.078 54.5829 102.652 55.2804 104.101C55.5529 104.637 56.2402 104.327 56.0743 103.613C52.5193 93.4625 59.4753 90.8445 61.0395 94.5097C62.343 97.568 59.5227 100.948 60.7432 101.65C61.6083 102.138 62.0467 100.222 63.7176 100.46C65.8861 100.841 66.2772 103.209 65.9217 104.791C65.3173 107.397 63.682 107.386 63.0777 107.505Z" fill="#1B1B1D"/>
    <path d="M50.8128 98.4615C44.1886 87.5373 42.5178 68.4378 50.7061 52.8726C52.5896 49.5563 54.6999 46.3754 57.0222 43.3526C58.1242 42.2697 57.0222 41.6985 56.4178 42.3887C49.5567 50.5402 44.1768 62.345 44.1768 72.9836C44.1768 88.5726 48.0636 96.1648 50.007 98.4972C50.955 99.592 51.4408 99.4968 50.8128 98.4615Z" fill="#1B1B1D"/>
    <path d="M45.3146 107.862C39.3896 109.73 40.065 102.828 45.9308 105.22C46.0031 105.264 46.0841 105.292 46.1682 105.301C46.2524 105.31 46.3375 105.301 46.4176 105.274C46.4977 105.246 46.5709 105.202 46.6322 105.143C46.6934 105.085 46.7412 105.013 46.7721 104.934C47.0921 104.208 46.464 104.03 45.8597 103.828C42.6246 102.745 46.227 96.5449 50.7063 104.113C51.0737 104.732 51.7017 104.304 51.5595 103.828C50.6115 100.436 46.8195 97.8777 44.4495 99.9602C43.9455 100.388 43.6084 100.981 43.4979 101.634C43.3873 102.288 43.5103 102.959 43.8452 103.53C41.0486 103.602 40.2902 104.72 39.9702 106.184C39.3303 109.635 44.8643 110.039 46.2744 108.683C46.8195 108.135 46.3692 107.529 45.3146 107.862Z" fill="#1B1B1D"/>
    <path d="M37.2685 86.7153C37.0907 86.3583 36.9722 85.6681 36.1546 86.1679C32.8247 88.2028 33.5002 87.8815 32.5996 86.9176C31.2487 85.5015 30.905 84.9541 30.2296 85.1207C29.9333 85.204 30.0044 85.8109 30.0755 86.1322C30.8932 89.9402 31.1539 88.9287 29.6134 89.4999C29.2579 89.6427 28.9498 89.8093 27.5041 90.4162C27.3679 90.4789 27.2525 90.5795 27.1717 90.706C27.0907 90.8326 27.0479 90.9798 27.0479 91.1302C27.0479 91.2806 27.0907 91.4278 27.1717 91.5544C27.2525 91.6809 27.3679 91.7816 27.5041 91.8442C31.9123 93.4983 30.9169 93.1889 31.2131 95.0572C31.5568 97.1992 31.616 97.7347 32.0663 97.7823C32.2499 97.8072 32.4365 97.7705 32.5972 97.6779C32.7579 97.5855 32.8837 97.4422 32.9551 97.2706C34.8037 92.7605 33.595 93.9505 35.3251 94.2599C38.2994 94.7954 38.4535 95.0929 38.8801 94.5693C39.3067 94.0457 38.4416 93.2722 38.015 92.7843C35.2184 89.5475 36.0479 91.6895 37.2685 86.7153ZM36.3916 93.2246C35.7584 93.1771 35.1435 92.9902 34.5904 92.6772C33.0973 92.1893 33.0973 95.1881 32.5048 95.6998C32.3613 95.0709 32.2819 94.429 32.2678 93.7839C32.2678 92.4749 31.5568 92.3797 29.4001 91.1897C28.9261 90.916 30.0044 90.8089 31.225 90.1901C32.4455 89.5713 31.4738 88.3813 31.4501 87.5483C31.4501 87.0485 32.2796 88.2504 32.801 88.9049C33.6068 89.9164 33.7016 88.3099 35.965 87.6316C35.5858 89.5951 34.2704 90.1068 35.5384 91.4634C37.387 93.4507 36.8893 93.2722 36.3916 93.2246Z" fill="#1B1B1D"/>
</svg>
