<svg width="192" height="187" viewBox="0 0 192 187" fill="none" xmlns="http://www.w3.org/2000/svg">
    <path d="M2.77404 140.182C0.29338 142.884 -1.93519 149.328 5.73874 155.752C15.7522 164.141 3.4295 176.686 21.8126 183.775C40.1958 190.864 45.1874 181.94 61.9873 184.047C78.7873 186.155 100.306 186.407 116.339 185.883C147.731 184.874 187.28 194.716 186.927 164.999C186.826 155.62 181.169 152.161 184.699 144.648C187.179 139.364 187.33 136.249 187.33 136.249C150.574 135.301 98.1879 136.945 76.2451 140.444C50.2384 144.599 23.5168 136.773 2.77404 140.182Z" fill="white"/>
    <path d="M185.99 45.4618C186.373 46.3794 191.657 46.6215 190.578 47.4786C184.598 51.9962 187.018 47.65 187.028 54.8198C187.028 55.445 186.242 55.2534 185.848 54.8198C181.29 50.7055 183.156 52.9542 178.144 54.3256C178.054 54.3767 177.951 54.3982 177.848 54.3871C177.745 54.376 177.648 54.3328 177.571 54.2636C177.494 54.1945 177.441 54.1029 177.419 54.0018C177.397 53.9008 177.407 53.7953 177.448 53.7004C179.798 48.0635 181.2 51.0282 178.336 47.0147C176.551 44.5038 176.702 44.4836 179.657 44.9979C182.027 45.3811 181.26 45.2198 183.035 42.85C186.232 38.4635 185.163 43.4954 185.99 45.4618Z" fill="#C875DD"/>
    <path d="M164.198 12.9617C166.084 13.5163 165.428 16.1583 163.956 16.5314C161.082 17.0154 161.647 12.1953 164.198 12.9617Z" fill="white"/>
    <path d="M155.909 170.213C155.909 172.623 156.767 174.538 150.867 175.476C125.859 179.51 100.972 177.171 100.447 173.309C100.336 172.533 100.306 168.266 100.316 167.883C100.326 167.5 100.316 168.226 104.007 169.093C116.34 171.947 146.683 171.817 155.798 167.289C155.894 168.26 155.932 169.237 155.909 170.213Z" fill="white"/>
    <path d="M155.395 48.2343C155.224 50.0091 155.476 52.2679 155.264 52.883C150.131 48.6175 109.836 47.1755 100.417 52.5503C99.3482 53.1654 99.9028 52.9637 99.7414 48.1335C99.7414 46.8225 100.185 46.399 100.639 46.1167C107.103 42.2545 143.114 41.3974 154.418 46.1167C155.305 46.4696 155.304 47.3873 155.395 48.2343Z" fill="white"/>
    <path d="M155.102 55.5763C155.202 56.3527 152.984 57.8351 152.974 56.9578C152.974 51.6738 102.342 51.1091 102.04 56.6351C102.04 56.9679 102.04 57.4015 101.697 57.2502C99.9119 56.383 99.68 55.3645 100.245 54.4973C103.512 49.1528 154.94 48.7595 155.102 55.5763Z" fill="white"/>
    <path d="M147.438 168.376C138.1 169.515 107.566 171.451 101.354 166.752C100.114 165.814 100.053 164.201 102.141 163.344C103.24 162.9 101.132 165.129 107.263 166.298C114.756 167.72 150.08 169.203 153.519 163.061C154.164 161.892 160.507 166.792 147.438 168.376Z" fill="white"/>
    <path d="M152.561 156.448C152.843 164.294 152.218 163.991 145.452 165.201C139.825 166.21 106.215 168.075 103.875 163.184C102.756 160.845 104.319 137.086 104.511 135.624C107.032 116.353 137.526 115.87 116.974 101.985C112.941 99.272 106.568 93.161 104.995 88.5728C103.421 83.9846 102.927 65.5006 103.109 60.9225C103.22 58.341 103.028 56.5259 104.864 56.0116C116.43 52.7746 147.67 54.2065 150.756 56.546C153.327 58.4922 152.178 82.956 148.84 91.0636C145.936 98.1224 130.89 104.717 130.951 110.032C130.951 113.057 133.976 115.234 136.517 117.18C150.141 127.607 151.552 127.507 152.561 156.448Z" fill="white"/>
    <path d="M148.618 161.32C148.566 161.288 148.507 161.271 148.446 161.271C148.386 161.271 148.326 161.288 148.275 161.32C145.855 162.379 147.045 161.945 142.709 162.187C141.65 162.248 141.7 162.52 140.772 162.298C140.198 162.157 136.174 162.54 135.559 162.56C134.784 162.442 133.995 162.442 133.22 162.56C132.03 162.711 131.798 162.207 130.85 162.681C130.416 162.893 127.361 162.337 124.608 162.781C123.267 162.63 124.305 163.125 119.566 162.681C118.157 162.442 116.728 162.347 115.3 162.399C110.258 162.399 111.549 161.764 109.976 161.874C108.968 161.945 106.87 161.552 106.951 160.372C106.933 159.922 106.865 159.476 106.749 159.041C107.152 154.564 106.033 153.081 107.757 152.728C107.979 152.728 108.544 152.506 108.604 152.244C108.665 151.982 109.018 152.174 109.431 151.659C110.167 150.772 110.964 151.831 111.741 150.883C112.517 149.935 113.102 150.54 113.394 150.006C113.687 149.471 113.606 148.997 114.04 149.148C114.705 149.411 114.897 149.078 115.199 149.038C115.346 149.058 115.491 149.088 115.633 149.128C116.581 149.199 116.561 148.301 117.499 147.616C118.164 147.122 118.416 148.784 119.253 147.403C119.596 146.838 120.262 147.948 121.058 147.071C121.502 146.627 122.42 147.898 123.075 146.385C123.357 145.77 123.579 146.184 124.225 146.123C125.082 146.053 125.102 144.53 126.715 144.822C127.081 144.896 127.459 144.896 127.825 144.822C128.046 144.822 128.581 144.974 128.833 144.822C129.559 144.49 130.699 146.517 131.475 146.264C131.97 146.2 132.472 146.2 132.967 146.264C133.623 146.264 133.502 146.839 134.258 146.89C135.014 146.94 134.621 147.485 135.216 147.505C135.811 147.525 137.233 147.081 137.727 147.948C138.221 148.816 139.381 148.453 139.986 148.785C140.591 149.118 140.177 149.169 140.651 149.975C140.833 150.288 141.66 150.277 142.013 150.176C142.819 149.934 144.393 150.953 144.544 151.034C145.109 151.327 144.171 152.133 146.177 152.416C147.962 152.658 146.46 154.039 148.194 153.495C149.152 153.293 149.404 161.774 148.618 161.32Z" fill="#AA3CC5"/>
    <path d="M147.851 81.3475C147.851 81.7609 148.003 82.1441 148.003 82.5676C148.003 83.3441 147.488 84.0702 147.488 84.9676C147.488 90.7256 139.099 97.977 134.894 100.619C134.682 100.76 134.389 100.76 134.198 100.901C133.791 101.477 133.321 102.004 132.796 102.474C129.347 104.885 130.184 105.187 129.821 105.964C129.045 107.597 128.813 105.742 128.581 110.834C128.581 111.369 128.702 113.234 128.702 113.698C128.702 113.799 127.956 126.585 129.71 128.824C129.942 129.127 130.174 129.187 130.174 129.651C130.174 129.963 129.569 132.121 130.063 133.039C130.45 133.432 130.685 133.951 130.729 134.501C130.729 134.935 130.517 134.895 130.416 135.137C130.184 135.711 130.164 136.458 129.72 136.942C129.519 137.163 129.226 137.143 128.994 137.295C128.47 137.637 128.712 138.837 128.369 139.463C127.694 140.673 127.472 139.261 127.3 139.059C127.129 138.858 126.665 138.878 126.433 138.646C126.201 138.414 126.191 137.93 125.888 137.637C125.586 137.345 125.112 137.547 125.112 136.78C125.112 135.772 125.858 135.994 125.858 135.106C125.858 134.037 126.231 134.32 126.312 133.09C126.312 132.847 126.181 132.616 126.181 132.363C126.181 131.849 126.786 131.416 126.786 130.811C126.786 130.205 126.241 129.863 126.241 129.187C126.241 128.35 126.857 128.179 126.857 127.473C126.857 126.767 126.413 126.575 126.413 126.021C126.413 125.083 127.421 123.51 127.421 120.747C127.421 119.738 127.169 119.506 127.169 118.871C127.169 117.933 127.26 115.685 127.26 115.079C127.26 105.207 125.566 105.671 124.517 104.33C124.235 103.967 124.003 103.402 123.841 103.322C123.488 103.08 123.004 102.848 122.641 102.626C122.278 102.404 122.107 102.081 121.804 101.839C121.502 101.597 121.351 101.648 121.159 101.486C120.967 101.325 120.151 99.6005 118.668 99.1669C115.825 97.6543 118.104 98.3098 116.137 97.0694C115.401 96.5955 116.016 96.1619 114.01 95.0526C113.798 94.9115 113.717 94.6695 113.515 94.5384C111.085 92.8442 111.731 93.2073 111.176 92.1686C111.025 91.8863 110.783 91.6443 110.641 91.3619C110.5 91.0795 110.248 90.4342 110.107 90.1821C109.966 89.93 109.875 88.3367 109.452 87.9737C108.262 86.9653 109.038 87.4695 109.038 86.7031C108.957 85.7552 108.181 85.8056 108.03 85.5737C107.878 85.3418 108.161 85.1401 108.161 84.5653C108.161 83.9905 106.467 80.5317 107.757 80.5317C108.766 80.6224 108.655 80.0779 109.109 79.8661C110.594 79.5097 112.11 79.3003 113.636 79.2409C113.989 79.128 114.35 79.0433 114.715 78.9888C115.199 78.9888 115.502 79.5031 115.986 79.5031C116.47 79.5031 116.813 78.9586 117.236 78.9586C117.448 78.9586 117.65 79.0695 117.862 79.0695C118.87 78.9687 118.961 78.5754 119.304 78.5754C119.681 78.6742 120.065 78.7387 120.453 78.767C121.3 78.767 121.845 78.2829 122.601 78.2829C123.146 78.2829 123.7 78.5552 124.204 78.5552C124.709 78.5552 124.9 78.4342 125.213 78.4342C126.062 78.565 126.925 78.565 127.774 78.4342C130.951 77.4258 130.547 78.2527 131.687 78.2527C131.999 78.2527 132.221 78.1216 132.584 78.1216C133.24 78.1216 133.925 78.5048 134.601 78.5048C135.277 78.5048 135.378 78.2124 135.851 78.2628C137.102 78.404 137.041 78.7065 137.636 78.7065C140.001 78.7357 142.361 78.9414 144.695 79.3216C145.389 79.1115 146.129 79.1115 146.823 79.3216C148.245 79.6947 147.851 80.4702 147.851 81.3475Z" fill="#AA3CC5"/>
    <path d="M132.806 5.34776C134.309 5.43852 131.475 8.14103 130.427 9.20994C129.821 9.82506 129.842 10.2183 129.993 10.6015C130.295 11.3377 130.396 12.1343 130.749 12.8503C131.193 13.7377 130.679 14.4032 129.539 13.7679C124.669 11.0755 126.514 11.4385 123.146 13.4553C118.174 16.4805 123.479 10.1578 121.694 8.87716C120.453 7.97969 117.66 6.32591 119.062 5.98306C120.367 5.73469 121.698 5.64664 123.025 5.72087C124.658 6.07381 125.485 -0.0875154 126.232 1.12257C128.521 4.8234 127.139 5.87213 130.729 5.30743C130.83 5.29734 132.383 5.28726 132.806 5.34776Z" fill="#C875DD"/>
    <path d="M97.2406 112.187C97.2406 112.187 98.3902 150.205 98.249 150.416C97.4524 151.364 43.6945 153.492 35.1937 153.442C22.7702 153.442 23.0929 155.356 23.1837 150.466C23.2744 145.061 22.8408 99.9247 22.1047 97.8071C21.7316 96.7987 19.5837 97.3946 20.1786 98.7358C20.4509 99.3509 15.0661 147.935 17.4459 148.812C18.8798 149.175 20.3723 149.241 21.8324 149.004C22.1551 148.893 22.0543 149.316 22.0139 150.012C21.9635 151.091 22.0139 151.222 21.7316 151.202C14.5114 150.647 13.4425 154.429 14.9249 142.61C15.298 139.585 18.9585 99.5617 18.9585 99.5214C19.14 98.634 18.656 96.9298 20.3702 95.881C20.5518 95.7701 24.0005 95.7096 24.3433 95.7197C25.1601 95.7197 23.8492 99.1079 25.9064 99.4205C29.7181 99.9852 27.8324 95.6904 28.7803 95.6904C29.8895 95.6904 29.4358 95.9113 29.5669 96.3146C29.6874 96.813 29.7114 97.3299 29.6374 97.8373C29.5063 99.7029 32.824 99.7533 33.1769 98.513C34.1853 95.0138 31.8156 95.8417 38.6727 95.7005C39.8828 95.9526 38.1988 98.9566 40.5382 99.118C44.2693 99.3802 42.0408 95.9123 43.5635 95.6904C43.745 95.6904 43.987 95.4676 44.0475 95.7903C44.1604 96.3782 44.1876 96.9802 44.1282 97.5751C43.987 99.3903 47.2744 99.4709 47.6777 98.1499C48.2223 96.3348 47.6777 95.639 48.0307 95.5785C48.3836 95.518 53.8996 95.2256 53.9601 95.518C54.0901 96.0867 54.1234 96.6726 54.0609 97.2525C53.95 98.3214 55.4424 99.2087 56.9953 98.4928C57.7012 98.1701 57.7416 97.4844 57.8827 96.123C57.9735 95.1953 57.6306 95.1146 58.5584 95.1146C58.9718 95.1146 58.9718 94.9936 59.0323 97.1314C59.0928 99.2693 62.2491 98.8558 62.5516 97.7869C63.3886 94.7617 61.8155 94.5399 64.5684 94.7617C68.7936 95.0541 69.6104 93.3298 69.318 96.9308C69.2272 98.0198 70.6289 98.9476 72.2726 98.2014C73.5533 97.6568 72.8272 94.8121 73.4222 94.792C75.2071 94.7113 73.2508 97.9079 75.439 98.2911C79.4726 98.9869 77.3449 94.5106 78.2524 94.4501C81.8423 94.1879 80.8138 94.6306 84.0003 94.2575C85.0087 94.1365 84.8675 94.5701 84.9079 96.5365C84.9079 97.9079 86.6322 98.2114 87.9331 97.6669C89.2339 97.1224 88.4171 94.4299 89.0625 94.3997C89.2268 94.4199 89.3932 94.4199 89.5566 94.3997C90.3129 94.2081 89.1028 97.4239 91.0288 97.797C91.8557 97.9684 93.2373 97.797 93.4188 96.9802C94.0843 93.955 92.965 94.3987 94.9919 94.2071C96.6154 94.0558 97.1196 94.6508 97.2406 112.187Z" fill="white"/>
    <path d="M92.3706 91.8879C93.0361 92.7147 92.6933 96.3853 92.4916 96.5567C91.9874 96.9601 90.8176 97.2324 90.7773 95.982C90.6865 93.0677 91.1605 92.1904 90.1118 92.2912C90.0378 92.3132 89.9704 92.3533 89.9158 92.4079C89.8612 92.4625 89.8211 92.5298 89.7992 92.6038C89.7992 92.8357 89.3353 92.8055 89.295 92.5332C89.2849 91.2122 91.7756 91.1013 92.3706 91.8879Z" fill="white"/>
    <path d="M88.8311 15.957C89.2547 19.8293 83.7286 17.7923 85.8866 15.0595C86.0997 14.8128 86.3799 14.6332 86.6932 14.5427C87.0064 14.4522 87.3392 14.4546 87.6511 14.5497C87.9629 14.6447 88.2405 14.8283 88.45 15.0782C88.6595 15.328 88.7919 15.6333 88.8311 15.957Z" fill="white"/>
    <path d="M87.6315 92.6449C88.6399 98.4644 85.766 97.2432 85.766 96.1239C85.766 92.6146 85.766 92.6045 85.3626 92.4331C85.3122 92.4048 85.2556 92.3892 85.1978 92.3878C85.1399 92.3864 85.0826 92.3992 85.0309 92.4251C84.9791 92.4509 84.9345 92.4891 84.9009 92.5362C84.8674 92.5833 84.8458 92.6379 84.8383 92.6953C84.8887 93.0382 84.1727 92.8466 84.5862 92.2012C85.1408 91.3037 87.3593 91.1525 87.6315 92.6449Z" fill="white"/>
    <path d="M77.6578 140.413C77.6578 140.937 78.2225 140.998 75.0259 141.018C73.473 141.018 63.4797 141.241 62.9251 141.331C61.8461 141.483 62.1184 141.562 61.9772 138.749C61.6444 132.345 61.5335 132.396 61.9772 132.325C62.9856 132.154 77.3755 131.579 77.3856 132.124C77.4259 136.087 77.6578 140.019 77.6578 140.413Z" fill="#C875DD"/>
    <path d="M76.8706 92.9695C77.0521 93.7157 77.4151 97.0031 76.5882 97.3762C73.9462 98.1325 75.7815 93.3426 75.005 92.9796C74.6823 92.8082 74.2185 92.7376 74.1983 93.0905C74.1781 93.4435 73.8252 93.3527 73.8151 93.03C73.7647 91.7292 76.6487 91.5073 76.8706 92.9695Z" fill="white"/>
    <path d="M75.7924 44.7871C75.3789 46.2997 73.8966 47.3888 73.0697 48.5585C72.2428 49.7283 73.7353 50.6963 74.4512 53.5199C74.6327 54.982 72.9588 53.7316 70.5185 52.5115C68.3201 51.2005 65.0025 60.1047 66.2227 50.6056C66.4143 49.0829 63.9538 48.7501 62.4109 47.3686C60.8681 45.9871 66.6966 46.2291 66.9588 45.2712C67.9672 41.8224 66.6563 37.9905 70.9319 44.0006C72.0411 45.5636 71.5672 44.5854 74.4714 44.5653C74.6932 44.414 75.9134 44.3838 75.7924 44.7871Z" fill="#C875DD"/>
    <path d="M72.1315 93.08C72.2122 94.0884 72.5046 97.0229 71.7988 97.3859C68.7131 98.9791 71.224 93.2212 69.7315 92.959C68.8845 92.8178 69.4996 93.4329 68.9954 93.3724C68.4912 93.3119 69.0458 92.5456 69.5198 92.2935C70.4677 91.7792 72.0509 91.9607 72.1315 93.08Z" fill="white"/>
    <path d="M61.7251 94.0176C61.7251 94.421 61.7856 97.3857 61.4326 97.5672C58.6394 98.5756 60.4242 93.7252 59.7688 93.2613C59.557 93.1302 59.0629 92.979 58.9419 93.4126C58.9419 94.2395 57.6209 92.7874 59.557 92.4042C61.1705 92.0613 61.6948 92.6059 61.7251 94.0176Z" fill="white"/>
    <path d="M60.0511 115.506C60.0511 115.506 60.1116 121.042 60.0511 121.557C60.0511 121.91 47.4058 122.232 47.3049 122.222C44.1587 121.94 44.3402 123.363 44.3402 121.336C44.3402 114.156 44.2091 114.509 44.5621 114.509C44.4612 114.509 44.3503 114.447 58.0545 113.974C60.515 113.853 60.0814 113.348 60.0511 115.506Z" fill="#C875DD"/>
    <path d="M56.5923 93.0183C56.915 93.4519 56.9957 97.2536 56.5923 97.5864C56.3852 97.7663 56.1239 97.872 55.8499 97.8866C55.5759 97.9012 55.3048 97.8239 55.0797 97.667C54.5654 97.183 55.4327 93.4519 54.4444 93.2704C53.6075 93.1091 54.1217 93.8351 53.6781 93.8956C53.2344 93.9561 53.315 93.825 53.3352 93.6334C53.557 92.0503 55.7957 91.9292 56.5923 93.0183Z" fill="white"/>
    <path d="M46.7202 97.8303C46.4956 98.0042 46.2249 98.1083 45.9417 98.1298C45.6585 98.1513 45.3752 98.0892 45.1269 97.9513C44.8244 97.7093 44.9958 96.721 44.895 94.2C44.895 93.2622 44.0781 93.4639 44.0076 93.837C43.937 94.2101 43.463 93.9883 43.4529 93.837C43.3723 92.5765 46.0748 92.3244 46.5891 93.1009C47.1034 93.8773 47.0529 97.5177 46.7202 97.8303Z" fill="white"/>
    <path d="M41.88 97.6178C41.797 97.8667 41.6204 98.0736 41.3877 98.1947C41.1549 98.3159 40.8842 98.3419 40.6326 98.2672C40.466 98.2177 40.3151 98.1256 40.195 97.9999C39.9126 97.7277 40.0942 94.6319 40.0236 93.9663C40.0236 93.6235 39.0958 93.5025 39.0152 93.9663C39.0857 94.3899 38.8538 94.522 38.5009 94.3808C38.1479 94.2396 38.5009 92.0312 41.2941 92.9085C42.2219 93.3925 42.0414 96.7909 41.88 97.6178Z" fill="white"/>
    <path d="M32.1493 93.3203C32.7644 93.7852 32.5627 98.2423 32.0282 98.3633C29.2652 99.6743 30.9694 94.5516 30.2635 93.8961C29.84 93.7953 29.6585 93.8356 29.5375 94.1785C29.4165 94.5213 28.9325 94.239 28.9425 94.1785C29.0434 92.5549 31.2719 92.5539 32.1493 93.3203Z" fill="white"/>
    <path d="M27.5101 96.1435C28.0143 99.6628 25.3924 98.7644 25.3924 97.7358C25.3924 94.035 25.705 94.0652 25.1605 93.9845C24.1521 93.8434 24.8781 94.4091 24.3235 94.3889C23.7689 94.3687 23.8597 93.9452 24.142 93.562C24.6765 92.9872 26.6328 92.6948 27.1672 93.4713C27.5101 93.8837 27.379 95.2259 27.5101 96.1435Z" fill="white"/>
    <path d="M21.9332 147.772C21.5299 147.863 18.303 148.004 18.2021 148.004C17.0828 148.004 20.9551 95.0326 21.4391 100.014C21.4492 100.115 22.4576 147.641 21.9332 147.772Z" fill="white"/>
    <path d="M144.474 67.5766C144.927 61.0825 145.301 56.7867 140.551 57.2808C138.534 57.4925 135.993 59.106 137.193 63.0993C138.393 67.0925 137.314 67.2135 137.072 70.3799C136.97 71.1044 137.107 71.8422 137.462 72.4819C137.817 73.1216 138.371 73.6283 139.039 73.9254C139.483 74.1221 139.965 74.2199 140.45 74.2128C142.608 74.4044 144.08 73.153 144.474 67.5766Z" fill="white"/>
    <path d="M144.07 126.801C141.579 124.179 137.556 120.873 135.186 120.127C132.524 119.28 132.897 123.898 134.177 124.927C139.058 128.96 140.54 129.605 140.813 135.342C141.135 142.22 139.804 143.118 145.532 143.854C146.46 143.975 147.367 144.026 147.468 140.829C147.599 135.827 147.498 130.431 144.07 126.801Z" fill="white"/>
    <path d="M187.783 50.3602C187.168 50.7736 187.975 51.3686 187.854 54.9585C187.878 55.1421 187.857 55.3288 187.793 55.5025C187.728 55.6762 187.623 55.8318 187.486 55.956C187.348 56.0801 187.183 56.1692 187.004 56.2155C186.825 56.2619 186.637 56.2641 186.456 56.222C186.215 56.167 185.998 56.0354 185.837 55.8469C183.084 53.6183 183.175 52.8217 182.046 53.2956C180.737 54.0128 179.39 54.6591 178.012 55.2317C177.828 55.2859 177.633 55.291 177.446 55.2464C177.26 55.2018 177.088 55.1091 176.948 54.9775C176.809 54.846 176.706 54.6802 176.65 54.4965C176.594 54.3129 176.588 54.1179 176.631 53.9309C177.306 50.9057 179.494 49.6351 178.859 48.8889C175.199 44.4116 174.826 43.3931 180.533 44.1494C181.673 44.3007 183.044 40.0452 185.111 40.0352C186.583 40.0352 186.442 44.9965 186.916 45.0772C193.794 46.6099 192.442 47.2452 187.783 50.3612V50.3602ZM190.577 47.4358C191.646 46.6089 186.372 46.377 185.988 45.419C185.182 43.493 186.231 38.4207 183.044 42.6963C181.279 45.0761 182.036 45.2274 179.666 44.8442C176.711 44.3804 176.55 44.3602 178.355 46.861C181.168 50.8341 179.747 48.0812 177.457 53.5467C177.42 53.6417 177.412 53.7459 177.435 53.8454C177.458 53.945 177.511 54.0351 177.587 54.104C177.662 54.1729 177.757 54.2172 177.858 54.2312C177.959 54.2451 178.062 54.2279 178.153 54.182C183.195 52.8106 181.32 50.5618 185.857 54.6761C187.491 56.6122 187.209 52.7602 186.533 50.6425C186.341 50.0274 186.815 49.6341 188.126 48.9484C188.985 48.5047 189.81 47.9985 190.597 47.4358H190.577Z" fill="#1B1B1D"/>
    <path d="M190.123 136.002C190.395 137.616 152.48 135.306 152.641 136.89C153.306 143.343 153.942 152.258 153.952 159.901C153.952 161.273 153.801 161.384 154.244 161.605C157.854 163.421 157.048 163.794 157.269 172.698C157.451 180.513 99.0444 180.825 99.0041 173.101C99.0041 164.56 99.0041 164.257 99.8814 163.38C102.342 160.839 102.302 163.38 101.979 159.861C101.979 159.004 102.281 148.546 102.302 147.154C102.483 136.162 103.703 138.281 101.717 138.231C98.5705 138.15 99.2562 138.049 99.2864 141.195C99.4074 153.619 101.495 152.288 93.3671 152.389C89.3335 152.459 25.0883 155.676 23.7875 155.021C22.8396 154.536 22.3354 154.637 22.0228 153.538C21.8413 152.923 21.9623 152.479 21.5287 152.53C20.5203 152.631 16.0329 152.631 15.801 152.651C15.4048 152.648 15.0139 152.56 14.6547 152.393C14.2955 152.226 13.9764 151.983 13.7191 151.682C13.4619 151.381 13.2724 151.028 13.1635 150.647C13.0547 150.266 13.0291 149.866 13.0884 149.474C13.0884 149.373 13.885 140.126 13.643 140.106C8.24804 139.713 -0.323364 141.115 0.00940778 139.491C0.1405 138.846 11.1623 138.957 13.6531 138.937C13.7842 138.937 18.1606 96.3821 18.2211 96.2812C19.2295 94.5972 20.8631 94.7081 22.7589 94.6174C23.3841 94.6174 22.6783 93.9921 23.5455 92.9232C24.1505 92.177 26.0564 92.0157 27.0749 92.3485C27.7102 92.5602 28.0833 93.6695 28.2245 93.2157C28.5875 91.9653 32.3488 91.1989 33.1253 93.4174C33.3471 94.0627 33.1253 94.5064 33.5085 94.5266C37.4311 94.6577 37.3908 94.5266 37.411 94.2846C37.411 92.0157 39.6496 91.4711 41.5656 92.0359C42.8563 92.419 42.3824 93.498 42.8563 92.6913C43.3303 91.8846 45.1454 91.6829 46.1941 91.8543C47.5252 92.0157 47.6765 93.7501 47.7471 93.9821C47.8479 94.577 52.1538 94.1938 52.2546 94.1837C52.5168 94.1837 52.2546 92.0661 53.6261 91.7232C57.6597 90.7148 57.2563 93.2157 57.5891 92.5098C57.6834 92.2969 57.8222 92.1067 57.9962 91.952C58.1701 91.7972 58.3751 91.6814 58.5975 91.6123C63.1756 90.6543 62.3286 93.3669 62.6311 93.6291C64.2536 93.8459 65.8983 93.8187 67.5117 93.5485C67.8042 93.4779 67.4008 92.6409 68.4495 91.7636C69.1526 91.3165 69.977 91.098 70.8092 91.1384C72.8865 91.4106 72.5134 92.7216 72.826 92.1468C73.3302 91.2795 73.8344 91.2896 75.0848 91.0678C75.6039 90.9144 76.1618 90.9646 76.6452 91.2081C77.1285 91.4517 77.5009 91.8703 77.6865 92.3787C78.2714 93.4678 76.9705 93.4678 79.3504 93.3871C83.0008 93.2963 82.9806 93.2661 83.2125 93.0443C83.4445 92.8224 82.7184 91.4611 84.826 90.7854C85.4028 90.5242 86.0513 90.4668 86.6651 90.6225C87.2789 90.7783 87.8216 91.1379 88.2041 91.6426C88.668 92.3888 87.8915 90.0997 91.915 90.6342C92.2082 90.6957 92.4818 90.8281 92.712 91.0197C92.9423 91.2113 93.1222 91.4563 93.236 91.7333C93.5285 92.2375 93.2965 93.1148 93.7806 93.0846C99.2763 92.7821 97.189 92.4896 98.5301 120.12C99.3772 137.565 98.7419 137.394 99.2864 137.263C100.103 137.031 103.028 137.363 102.826 136.698C102.715 136.315 103.018 132.664 105.418 128.258C110.772 118.486 124.224 115.098 122.56 108.846C121.552 104.913 106.628 99.8409 103.007 86.772C102.261 84.0695 101.535 68.7821 101.596 65.9183C101.767 58.436 101.767 58.6981 101.142 58.4662C98.1873 57.4074 98.1167 55.1082 98.3587 50.52C98.4495 48.6646 98.1772 47.4948 98.3587 46.8091C99.8915 40.4663 135.307 41.4747 143.565 42.5234C158.157 44.3688 156.553 44.8528 156.523 53.1116C156.523 59.3536 153.105 57.5788 153.337 59.283C153.639 61.4914 153.024 74.167 153.004 74.409C151.592 88.7585 153.72 91.3199 138.251 103.278C130.678 109.137 129.175 110.338 138.614 117.316C142.285 120.039 146.863 123.488 149.364 127.279C152.752 132.402 151.925 135.861 152.782 135.589C153.79 135.589 164.621 134.842 180.079 135.326C188.772 135.558 189.911 134.802 190.123 136.002ZM155.908 170.207C155.927 169.231 155.887 168.254 155.787 167.283C146.712 171.81 116.328 171.951 103.996 169.087C100.275 168.219 100.365 167.384 100.305 167.878C100.244 168.372 100.305 172.536 100.436 173.303C101.011 177.185 125.908 179.454 150.856 175.471C156.705 174.543 155.908 172.657 155.908 170.207ZM155.303 52.8797C155.515 52.3049 155.303 50.0057 155.434 48.2309C155.313 47.3839 155.333 46.4864 154.426 46.1133C142.728 41.1721 106.94 42.3721 100.648 46.1133C100.194 46.3856 99.6999 46.8091 99.7503 48.1301C99.9116 52.9603 99.357 53.1721 100.426 52.5469C109.996 47.1318 150.261 48.6545 155.303 52.8797ZM153.024 56.9133C153.024 57.9923 157.269 55.4208 153.851 53.5049C144.775 48.4125 92.0259 49.8746 100.618 56.5301C100.789 56.6612 101.898 57.478 101.999 57.1452C102.241 56.3788 101.596 55.1284 106.517 54.12C113.525 52.6578 148.658 51.2057 152.984 57.0141L153.024 56.9133ZM147.478 168.32C160.517 166.737 154.204 161.837 153.528 163.007C150.08 169.199 114.503 167.615 107.273 166.244C101.162 165.084 103.239 162.845 102.15 163.288C100.063 164.146 100.133 165.76 101.364 166.698C107.515 171.437 137.626 169.562 147.438 168.372L147.478 168.32ZM152.137 162.614C153.145 160.597 152.268 135.337 149.112 129.216C142.91 117.327 123.095 114.523 134.54 104.641C141.428 98.6812 149.021 95.1216 150.745 85.4813C151.602 80.7216 152.923 61.7838 151.693 57.5586C150.352 52.9503 114.241 53.9889 109.229 54.9368C106.668 55.4208 103.32 55.6931 103.37 58.1133C103.071 63.9128 103.125 69.7252 103.532 75.5182C104.117 85.0577 103.844 88.6275 108.523 94.0426C117.417 104.359 127.683 106.043 123.347 112.758C121.138 116.177 107.656 124.95 106.386 129.579C104.782 135.447 104.671 129.376 103.764 149.927C103.189 162.915 102.886 163.844 106.849 164.893C114.433 167 149.656 167.232 152.096 162.664L152.137 162.614ZM98.2478 150.362C98.6713 149.858 96.5234 95.5955 96.5234 95.4947C96.5234 95.2039 96.4298 94.9209 96.2566 94.6874C96.0834 94.4538 95.8396 94.2822 95.5614 94.1979C95.3765 94.1424 95.1819 94.1273 94.9906 94.1535C92.9738 94.3451 94.073 93.9316 93.4175 96.9266C93.236 97.7535 91.8545 97.934 91.0276 97.7424C89.0915 97.3289 90.3117 94.1535 89.5554 94.3552C89.391 94.3703 89.2256 94.3703 89.0612 94.3552C88.4159 94.3552 89.0612 97.1484 87.9318 97.6224C86.8024 98.0963 84.9671 97.8745 84.9066 96.493C84.9066 94.5266 85.0478 94.092 83.9991 94.213C80.8125 94.5861 81.8411 94.1434 78.2512 94.4056C77.4344 94.4661 79.3403 98.9222 75.4378 98.2466C73.1588 97.8634 75.2361 94.6779 73.3705 94.7484C72.7958 94.7484 73.5016 97.6123 72.231 98.1669C70.5873 98.8728 69.2058 97.9854 69.2764 96.8963C69.5789 93.2863 68.6815 95.0096 64.5269 94.7172C61.7235 94.5256 63.2764 94.7878 62.5101 97.7424C62.2176 98.8012 59.0513 99.1652 58.9907 97.0779C58.9302 94.9905 58.9302 95.0611 58.5168 95.0106C57.5891 95.0106 57.9319 95.1316 57.8311 96.019C57.6899 97.4207 57.6597 98.0358 56.9538 98.3888C55.4008 99.1047 53.9286 98.2173 54.0193 97.1484C54.342 93.9921 53.2328 95.7568 49.4916 95.3837C46.8799 95.3333 48.4832 95.3333 47.6362 98.0459C47.2328 99.377 43.9454 99.2862 44.0866 97.4711C44.1403 96.8753 44.1132 96.2749 44.0059 95.6863C43.9454 95.3636 43.7034 95.5653 43.5219 95.5854C43.3404 95.6056 43.0883 95.5854 42.9975 95.6661C42.6647 96.0594 43.8244 99.256 40.5068 99.0241C38.7824 98.903 39.1858 97.0073 39.1353 96.2409C39.0849 95.4745 39.2059 95.656 34.5068 95.6358C32.49 95.6358 34.0228 95.3031 33.1454 98.4089C32.7925 99.6493 29.4749 99.5978 29.606 97.7424C29.6785 97.2319 29.6546 96.7123 29.5354 96.2106C29.4043 95.7972 29.8581 95.5955 28.7488 95.5955C27.6396 95.5955 29.7572 99.8812 25.8749 99.3165C23.8581 99.0241 25.1085 95.6358 24.3119 95.6157C19.6228 95.4846 19.4715 95.7367 19.0077 98.0863C14.7522 142.456 14.9741 142.456 14.9237 142.516C13.4917 154.294 14.49 150.584 21.7304 151.098C22.0329 151.098 21.9623 150.987 22.0127 149.908C22.0127 149.192 22.1539 148.768 21.8312 148.9C20.371 149.137 18.8766 149.067 17.4447 148.698C15.2665 147.901 20.4093 99.1552 20.1774 98.6308C19.9455 98.1064 20.3892 96.977 21.1354 97.1787C22.9303 97.6526 22.8194 97.1081 23.243 143.958C23.3539 156.684 20.369 153.326 35.1824 153.347C41.6563 153.478 97.31 151.481 98.2074 150.412L98.2478 150.362ZM92.4091 91.8745C91.7839 91.088 89.3133 91.1989 89.3335 92.5199C89.3335 92.7821 89.8377 92.8325 89.8377 92.5905C89.8579 92.5156 89.8975 92.4473 89.9523 92.3925C90.0072 92.3376 90.0754 92.2981 90.1503 92.2779C91.1587 92.177 90.7755 93.0442 90.8159 95.9676C90.8159 97.2584 92.0965 96.8963 92.5302 96.5434C92.7822 96.3417 93.0041 92.6812 92.3688 91.8846L92.4091 91.8745ZM87.7402 96.3417C88.4159 88.0123 83.0613 93.0443 84.6142 92.8527C84.6949 92.8527 84.8562 92.9636 84.826 92.7115C84.8321 92.6662 84.8472 92.6227 84.8704 92.5834C84.8937 92.5441 84.9245 92.5098 84.9611 92.4826C84.9977 92.4553 85.0394 92.4357 85.0838 92.4248C85.1281 92.4139 85.1742 92.4119 85.2192 92.419C86.3083 92.5804 85.2192 96.4526 86.0663 96.8762C86.9134 97.2997 87.7402 96.7047 87.7402 96.3417ZM77.0008 96.8661C78.0697 88.6678 72.4327 93.1552 73.9756 93.2762C74.4596 93.2762 73.9756 92.4594 74.984 92.9938C75.3873 93.1955 74.8327 96.8661 75.4579 97.2997C76.6478 97.814 77.142 96.8459 77.0109 96.8459L77.0008 96.8661ZM72.1201 93.0947C72.0394 91.9653 70.4462 91.7938 69.5185 92.298C69.0445 92.5602 68.621 93.3064 69.0042 93.377C69.3874 93.4476 68.9033 92.8224 69.7302 92.9737C71.2025 93.2258 68.8025 98.9535 71.8075 97.3905C72.5033 97.0173 72.2109 94.093 72.1302 93.0745L72.1201 93.0947ZM61.3605 92.6913C60.5235 91.9753 58.3353 92.3484 58.5168 93.4476C58.5273 93.4946 58.5534 93.5367 58.591 93.5669C58.6286 93.597 58.6753 93.6134 58.7235 93.6134C58.7717 93.6134 58.8184 93.597 58.856 93.5669C58.8936 93.5367 58.9198 93.4946 58.9302 93.4476C59.0513 93.014 59.5555 93.1653 59.7571 93.2964C60.5134 93.8006 58.5672 98.661 61.421 97.6022C61.7538 97.3501 61.9756 93.1854 61.3706 92.6711L61.3605 92.6913ZM56.5706 97.6022C56.8429 97.3804 57.3269 92.8728 55.9353 92.4493C53.3639 91.8342 52.9101 94.0022 53.6563 93.9115C54.0899 93.851 53.5958 93.1249 54.4227 93.2863C55.058 93.3972 54.8866 92.9232 54.8966 96.8157C54.9067 98.651 56.7218 97.5821 56.5807 97.5821L56.5706 97.6022ZM46.7084 97.8442C47.0412 97.5215 47.0412 93.8106 46.5773 93.1048C46.1135 92.3989 43.3303 92.54 43.4311 93.8409C43.4311 94.0123 43.9555 94.1031 43.9958 93.8409C44.0664 93.4274 44.8429 93.3064 44.8731 94.1938C44.974 96.5737 44.7925 97.693 45.1051 97.9451C45.3558 98.0868 45.6429 98.151 45.9302 98.1295C46.2174 98.1079 46.4917 98.0017 46.7185 97.8241L46.7084 97.8442ZM41.8681 97.6325C42.0012 96.3721 42.0012 95.1012 41.8681 93.8409C41.7673 92.9031 40.9404 92.7115 40.0026 92.7115C38.1975 92.8627 38.3185 94.3148 38.4597 94.3753C38.8127 94.5165 39.0446 94.3743 38.974 93.9609C39.0547 93.5172 39.9824 93.6382 39.9824 93.9609V97.098C40.053 99.3669 42.3622 97.6123 41.8782 97.6123L41.8681 97.6325ZM30.7757 92.8627C29.9186 92.9232 29.0413 92.9333 28.9606 94.1535C28.9606 94.2543 29.4749 94.4157 29.5555 94.1535C29.6362 93.8913 29.8581 93.7703 30.2816 93.8711C31.0278 94.5669 29.2732 99.6493 32.0463 98.3384C32.6211 98.2073 32.4093 96.9972 32.4698 96.372C32.1975 96.3921 33.4782 92.6409 30.7555 92.8426L30.7757 92.8627ZM27.448 98.0459C27.5992 96.6644 27.5287 93.9115 27.2261 93.5081C26.6614 92.7518 24.7051 93.0039 24.2009 93.5989C23.9186 93.9619 23.9287 94.456 24.3724 94.4258C24.9875 94.4258 24.1707 93.8812 25.2093 94.0224C25.7539 94.093 25.4211 94.0224 25.4413 97.7636C25.3908 98.8627 27.3371 98.8627 27.4278 98.0257L27.448 98.0459ZM20.6715 104.661C20.6715 104.762 16.9909 148.022 18.2211 148.022C18.322 148.022 21.5589 147.881 21.9522 147.79C22.3455 147.7 22.2749 81.2157 20.6514 104.641L20.6715 104.661Z" fill="#1B1B1D"/>
    <path d="M174.946 50.7325C175.824 51.8417 171.377 52.3358 169.904 51.9425C168.23 51.4988 168.977 48.9173 168.422 49.1089C166.143 49.7946 163.38 51.2972 161.918 51.761C160.456 52.2249 160.657 51.1459 161.121 50.9543C166.516 48.7862 169.783 46.9207 169.814 49.0081C169.814 50.0165 169.33 51.6198 172.274 51.0249C173.877 51.0148 174.573 50.2585 174.946 50.7325Z" fill="#1B1B1D"/>
    <path d="M164.742 17.283C163.583 18.1804 160.063 16.8393 161.596 13.2494C161.848 12.8722 162.191 12.5639 162.592 12.3526C162.994 12.1413 163.442 12.0336 163.895 12.0393C166.285 12.0594 167.404 15.1855 164.742 17.283ZM165.267 15.125C166.043 12.6645 162.564 12.0998 162.11 14.2477C161.747 15.9317 162.826 16.7183 163.956 16.5267C165.085 16.3351 165.115 15.125 165.267 15.125Z" fill="#1B1B1D"/>
    <path d="M160.345 19.968C160.617 20.4621 157.986 22.4789 157.391 25.5343C156.856 28.3276 155.928 26.4016 155.475 26.7848C152.863 29.0133 152.449 35.3158 151.27 32.8352C150.846 31.9478 150.705 31.9579 150.15 32.331C149.142 33.0167 147.78 35.5074 147.246 36.6268C146.53 38.1595 145.955 37.6352 145.925 37.2923C145.895 36.9494 148.749 29.6486 151.552 31.2419C151.996 31.494 152.56 28.0654 154.577 26.0184C155.586 25.01 156.17 26.0789 156.362 25.0907C156.695 23.1344 159.337 18.1932 160.345 19.968Z" fill="#1B1B1D"/>
    <path d="M149.082 162.543C147.912 162.543 147.367 163.642 145.824 163.359C145.693 163.359 112.386 165.377 106.578 162.251C105.398 161.505 105.569 156.643 105.751 155.363C105.841 154.697 105.135 153.86 105.892 152.973C106.093 152.731 106.184 151.964 106.9 151.702C109.109 150.835 108.362 151.038 109.038 150.352C109.865 149.505 110.42 150.482 111.055 149.786C111.922 148.778 112.497 149.353 112.588 148.778C112.69 148.453 112.895 148.17 113.172 147.971C113.535 147.608 114.181 148.173 114.806 147.79C115.431 147.406 115.431 148.143 115.814 147.699C117.609 145.38 118.073 146.631 118.406 146.339C119.414 145.471 120.009 146.338 120.423 145.924C120.836 145.511 122.026 146.126 122.228 145.511C122.442 145.182 122.746 144.923 123.105 144.764C123.428 144.573 123.912 145.038 124.235 144.564C124.627 144.168 125.056 143.809 125.515 143.494C126.294 143.375 127.09 143.476 127.814 143.786C128.53 144.19 128.188 143.384 129.277 143.606C130.154 143.787 130.678 143.958 130.91 144.401C131.687 145.874 133.31 144.401 134.349 145.511C134.692 145.884 135.186 145.643 135.619 146.107C136.053 146.571 137.979 145.692 138.645 146.933C139.109 147.81 140.016 146.933 141.428 148.203C141.841 148.576 141.508 148.98 142.023 148.939C143.457 148.89 144.852 149.408 145.905 150.382C146.298 150.705 145.633 150.795 146.712 151.299C147.216 151.541 147.952 151.451 148.245 152.167C148.416 152.581 148.991 151.995 149.485 152.741C150.048 153.451 150.319 154.349 150.241 155.252C150.029 155.685 150.977 162.573 149.082 162.543ZM148.95 160.778C149.041 159.154 149.223 159.154 149.092 158.761C148.789 157.924 149.233 157.663 148.991 156.927C148.497 155.424 149.495 155.374 148.537 153.639C148.456 153.478 148.406 153.487 148.245 153.538C146.48 154.082 147.982 152.69 146.228 152.459C146.006 152.459 145.845 152.247 145.572 152.247C144.564 152.317 145.018 151.238 144.564 151.057C144.413 150.976 142.84 149.938 142.043 150.2C141.71 150.311 140.863 150.321 140.672 149.998C140.208 149.191 140.672 149.171 140.016 148.808C139.361 148.445 138.231 148.808 137.747 147.971C137.263 147.134 135.851 147.558 135.246 147.527C134.641 147.497 134.934 146.943 134.238 146.912C133.542 146.882 133.613 146.297 132.957 146.287C132.462 146.224 131.96 146.224 131.465 146.287C130.688 146.539 129.539 144.513 128.823 144.846C128.571 144.957 128.036 144.846 127.814 144.846C127.448 144.92 127.071 144.92 126.705 144.846C124.981 144.513 125.152 146.065 124.225 146.146C123.579 146.206 123.357 145.793 123.075 146.408C122.379 147.921 121.461 146.651 121.058 147.095C120.211 147.972 119.586 146.862 119.253 147.427C118.436 148.778 118.124 147.176 117.498 147.639C116.571 148.325 116.591 149.223 115.633 149.152C115.49 149.114 115.345 149.083 115.199 149.06C114.887 149.06 114.695 149.433 114.04 149.171C113.606 149 113.697 149.474 113.384 150.028C113.072 150.583 112.487 149.969 111.73 150.907C110.974 151.844 110.157 150.795 109.431 151.682C109.018 152.196 108.655 151.985 108.604 152.267C108.554 152.549 107.979 152.711 107.757 152.751C106.073 153.104 107.203 154.566 106.749 159.064C106.877 159.496 106.949 159.944 106.961 160.395C106.85 161.574 108.978 161.968 109.986 161.897C109.986 161.897 124.658 163.027 135.539 162.593C135.69 162.593 140.198 162.19 140.752 162.331C141.629 162.553 141.629 162.281 142.688 162.221C143.233 162.221 142.688 162.411 143.999 162.149C146.672 161.595 144.635 162.936 148.255 161.353C148.587 161.101 148.89 161.675 148.95 160.778Z" fill="#1B1B1D"/>
    <path d="M144.211 93.875C143.202 94.6918 143.646 94.8229 142.658 95.6599C132.019 104.635 130.839 104.917 130.94 105.744C131.041 106.571 129.831 107.568 129.75 108.375C129.105 114.99 129.982 125.427 129.982 125.518C129.982 127.373 129.77 126.86 131.061 128.614C131.616 129.371 131.162 130.126 131.011 132.062C131.011 132.496 132.544 133.636 131.747 135.441C131.303 135.905 131.293 137.105 130.628 137.75C129.962 138.396 129.821 138.153 129.76 138.607C129.367 141.632 127.421 141.844 126.513 140.18C126.241 139.746 125.767 139.828 125.414 139.314C124.537 138.013 123.891 138.042 123.861 136.862C124.005 136.12 124.289 135.412 124.698 134.776C124.698 133.878 125.223 133.636 125.152 132.981C125.067 132.647 125.059 132.298 125.129 131.961C125.198 131.623 125.344 131.306 125.555 131.034C125.898 130.519 124.829 130.731 125.132 128.775C125.182 128.327 125.326 127.893 125.555 127.504C125.697 127.292 124.678 126.799 125.818 123.683C126.412 122.06 126.765 108.184 124.9 106.419C124.797 106.284 124.721 106.13 124.678 105.966C124.315 105.088 123.992 105.794 123.307 104.393C122.923 103.616 122.51 104.129 121.512 103.04C120.937 102.425 120.352 102.517 120.029 101.69C119.323 99.9355 116.339 99.8044 115.996 98.3825C115.885 97.9187 114.917 97.8683 114.544 96.6683C114.443 96.3153 113.737 96.0834 113.424 95.9422C113.112 95.801 111.307 94.2481 111.206 94.1775C110.45 93.7036 110.349 92.6952 109.935 92.2414C109.522 91.7876 109.451 91.1221 109.3 90.9305C108.443 89.9221 109.028 88.9137 108.292 88.5506C107.757 88.3187 107.666 87.8246 107.586 87.3406C107.394 86.1002 106.971 86.6246 106.819 85.2532C106.769 84.8599 107.263 84.6885 106.92 84.2448C106.734 84.0211 106.604 83.7562 106.54 83.472C106.477 83.1878 106.483 82.8927 106.557 82.6112C106.799 82.1271 105.892 81.7439 106.164 80.7154C106.547 79.2633 107.868 79.6162 108.181 79.2431C109.061 78.6874 110.096 78.426 111.135 78.4969C111.569 78.6582 111.76 78.3658 112.426 78.3658C114.16 78.3658 114.715 77.4986 115.522 78.0734C116.147 78.5271 116.076 77.7708 117.488 77.8717C118.335 77.9221 118.728 77.428 119.344 77.4784C120.17 77.5389 119.918 77.7406 120.634 77.67C121.169 77.3521 121.769 77.1589 122.389 77.1048C123.008 77.0506 123.632 77.137 124.214 77.3574C125.34 77.2668 126.472 77.3244 127.582 77.5288C128.187 77.5288 127.996 76.8935 130.285 76.8633C130.779 76.8633 131.626 77.2364 132.019 77.0549C132.715 76.7322 134.5 77.3876 134.742 77.1759C135.367 76.6313 137.636 77.5087 138.06 77.4179C139.673 77.065 144.302 78.265 145.058 78.0229C145.814 77.7809 147.801 78.386 148.89 78.8297C149.777 79.2028 148.859 90.2145 144.211 93.875ZM148.002 82.5708C148.002 82.1574 147.851 81.7641 147.851 81.3507C147.851 80.4734 148.285 79.6767 146.843 79.3339C146.15 79.1163 145.408 79.1163 144.715 79.3339C144.11 79.3339 140.681 78.6381 138.775 78.6381C138.15 78.6381 138.029 78.7187 137.696 78.7187C137.102 78.7187 137.172 78.4061 135.912 78.265C135.428 78.2145 135.206 78.507 134.671 78.507C134.137 78.507 133.33 78.1339 132.654 78.1339C132.291 78.1339 132.07 78.2549 131.757 78.2549C131.233 78.2549 130.749 77.9624 130.083 77.9423C128.903 77.9423 127.643 78.7288 126.876 78.5473C126.004 78.3758 125.107 78.3758 124.234 78.5473C123.73 78.5473 123.226 78.265 122.631 78.265C121.875 78.265 121.33 78.7591 120.483 78.7591C120.095 78.7303 119.71 78.6662 119.334 78.5675C118.95 78.5675 118.92 78.9608 117.892 79.0515C117.68 79.0515 117.478 78.9507 117.266 78.9507C116.853 78.9507 116.52 79.4851 116.016 79.4851C115.512 79.4851 115.229 78.9809 114.745 78.9809C114.38 79.0318 114.019 79.1128 113.666 79.2229C112.141 79.2881 110.625 79.4974 109.139 79.8481C108.675 80.0599 108.765 80.6145 107.787 80.5238C106.497 80.5238 108.191 84.0532 108.191 84.5574C108.191 85.0616 107.949 85.3036 108.06 85.5658C108.171 85.828 108.937 85.7372 109.068 86.6851C109.068 87.4414 108.302 86.9675 109.481 87.9658C109.905 88.3187 109.925 89.7708 110.137 90.1641C110.349 90.5574 110.54 91.1019 110.671 91.354C110.802 91.6061 111.055 91.8784 111.206 92.1506C111.71 93.1086 111.155 92.8868 113.555 94.5194C113.757 94.6605 113.828 94.9026 114.039 95.0336C116.349 96.2941 115.199 96.4051 116.167 97.0504C117.67 98.0588 116.772 97.9086 117.327 98.3825C119.031 99.5019 119.344 99.0178 120.695 100.732C120.876 100.954 120.967 101.287 121.189 101.468C121.411 101.65 121.643 101.659 121.844 101.82C122.096 102.112 122.372 102.378 122.671 102.617C123.004 102.819 123.528 103.061 123.871 103.303C124.033 103.424 124.265 103.988 124.547 104.311C124.628 104.412 126.675 105.512 127.007 109.515C127.248 111.354 127.346 113.208 127.3 115.061C127.3 115.687 127.199 117.925 127.199 118.863C127.199 119.488 127.451 119.719 127.451 120.738C127.451 123.491 126.443 125.084 126.443 126.012C126.443 126.556 126.886 126.91 126.886 127.455C126.886 127.999 126.271 128.342 126.271 129.179C126.271 129.855 126.816 130.186 126.816 130.802C126.816 131.417 126.211 131.81 126.211 132.355C126.211 132.597 126.342 132.839 126.342 133.081C126.271 134.321 125.888 134.089 125.888 135.097C125.888 135.975 125.142 135.734 125.142 136.772C125.142 137.539 125.626 137.376 125.918 137.628C126.211 137.881 126.181 138.334 126.463 138.637C126.745 138.939 127.118 138.809 127.33 139.051C127.542 139.293 127.733 140.665 128.399 139.455C128.732 138.84 128.5 137.64 129.024 137.287C129.266 137.135 129.549 137.166 129.75 136.934C130.194 136.46 130.224 135.692 130.446 135.128C130.547 134.896 130.759 134.937 130.759 134.493C130.716 133.943 130.48 133.425 130.093 133.03C129.599 132.113 130.204 130.006 130.204 129.653C130.204 128.866 128.933 128.845 128.933 126.002C128.933 125.538 128.57 126.003 128.57 116.756C128.57 116.413 128.732 114.183 128.732 113.649C128.732 113.114 128.591 111.33 128.611 110.796C128.833 105.693 129.085 107.549 129.851 105.925C132.715 99.875 147.629 93.9748 147.518 84.9305C147.498 84.1036 148.244 82.5708 148.002 82.5708Z" fill="#1B1B1D"/>
    <path d="M144.685 153.671C146.097 153.187 146.621 154.679 144.685 155.002C144.352 155.062 144.221 154.941 144.211 155.062C141.852 154.629 142.85 155.223 140.641 155.929C140.127 155.667 137.969 156.524 137.213 156.262C137.023 156.159 136.814 156.097 136.598 156.079C136.383 156.062 136.166 156.09 135.962 156.161C135.357 156.272 135.115 156.03 134.621 156.232C134.459 156.272 134.29 156.272 134.127 156.232C133.587 156.187 133.044 156.242 132.524 156.393C131.858 156.272 131.868 157.2 131.193 156.928C130.517 156.655 130.426 156.101 129.69 156.262C127.673 156.706 127.885 157.271 126.826 156.423C125.616 155.415 125.394 157.432 124.537 156.928C123.68 156.423 121.926 157.392 121.563 156.867C121.048 156.111 121.068 156.746 120.685 156.534C120.494 156.434 120.413 157.22 119.768 157.119C118.9 156.837 119.707 155.98 118.83 156.282C117.68 156.676 117.458 155.778 116.319 155.677C115.805 155.627 115.875 155.203 115.048 155.758C114.594 156.06 114.635 157.049 112.235 155.566C111.6 155.163 111.65 155.788 111.176 155.788C110.168 155.788 110.662 155.133 109.905 154.941C109.695 154.914 109.495 154.831 109.328 154.699C109.161 154.568 109.033 154.393 108.958 154.195C108.847 154.003 109.068 153.862 109.109 153.691C109.179 153.358 110.309 153.892 111.126 154.195C111.509 154.336 111.64 153.731 112.447 154.276C112.699 154.447 112.931 154.689 113.314 154.608C113.697 154.528 113.899 155.244 114.242 154.86C115.542 153.429 117.862 154.86 117.963 154.971C118.225 155.223 118.477 154.971 118.739 154.971C119.354 154.487 119.606 155.284 120.373 155.234C121.714 155.163 121.381 154.739 122.238 155.344C122.853 155.808 123.61 155.183 124.507 155.526C124.85 155.657 125.394 154.255 126.947 155.012C128.268 155.657 129.751 154.346 130.92 155.203C131.475 155.617 131.273 154.951 132.06 155.052C132.201 155.052 135.841 154.79 136.87 154.901C139.018 155.123 137.304 154.901 140.551 154.568C140.994 154.568 141.559 154.044 142.073 153.792C143.394 153.207 143.788 153.983 144.685 153.671Z" fill="#1B1B1D"/>
    <path d="M144.453 81.9848C144.685 82.1058 144.393 82.8218 143.939 82.9125C143.485 83.0033 143.303 82.9831 142.84 83.0234C140.137 82.1159 141.266 82.9125 140.137 82.0655C139.401 81.531 139.29 82.3075 138.372 82.1562C137.455 82.005 138.735 80.1898 140.198 80.8453C140.782 81.0974 140.833 81.289 141.337 81.3293C142.214 81.3293 142.648 81.9949 143.556 81.6621C143.979 81.5108 144.211 81.8436 144.453 81.9848Z" fill="#1B1B1D"/>
    <path d="M138.614 85.301C140.54 85.1498 140.631 86.4809 139.492 86.5515C139.492 86.6523 137.818 86.5515 138.221 85.6237C138.247 85.537 138.298 85.46 138.368 85.4026C138.439 85.3451 138.524 85.3098 138.614 85.301Z" fill="#1B1B1D"/>
    <path d="M134.207 83.8403C133.713 83.8403 133.43 83.4772 133.007 83.6386C132.583 83.7999 131.434 83.4167 133.138 82.3781C133.803 81.9747 133.823 82.6504 134.58 82.3781C135.689 82.2268 135.881 83.7193 134.207 83.8403Z" fill="#1B1B1D"/>
    <path d="M133.471 4.57859C136.496 5.38531 130.728 9.83235 130.94 10.3164C131.433 11.4619 131.727 12.6831 131.807 13.9265C131.918 17.2643 126.342 12.3332 125.404 13.0996C124.173 14.0136 122.835 14.7755 121.421 15.3685C120.574 15.6407 119.959 14.5416 120.039 14.108C120.554 7.20043 122.893 11.6071 118.365 7.56345C117.165 6.49455 117.357 5.09287 119.686 4.88111C120.724 4.76219 121.769 4.71838 122.812 4.75001C123.901 5.0727 124.466 -1.46173 126.755 0.302969C127.854 1.15002 128.54 4.47775 129.054 4.46766C131.575 4.40716 132.402 4.26598 133.471 4.57859ZM130.446 9.2374C134.752 4.79035 134.036 5.34497 128.661 5.36514C127.905 5.36514 127.552 3.21725 126.251 1.11977C125.828 0.423976 125.243 2.46095 124.708 3.79203C123.7 6.35337 124.164 5.64749 121.602 5.72816C117.397 5.85925 118.083 6.2727 121.713 8.87437C123.508 10.155 118.204 16.4071 123.165 13.4525C126.523 11.4357 124.688 11.0727 129.559 13.7752C130.698 14.4105 131.212 13.7752 130.779 12.8475C130.416 12.1315 130.325 11.3248 130.012 10.6088C129.841 10.2357 129.831 9.83235 130.426 9.20714L130.446 9.2374Z" fill="#1B1B1D"/>
    <path d="M131.464 85.8473C131.212 86.3111 130.91 86.2305 129.79 86.3414C128.782 86.2103 128.681 87.1078 127.995 86.5531C126.412 85.2523 132.402 84.0422 131.464 85.8473Z" fill="#1B1B1D"/>
    <path d="M129.225 80.5209C129.376 80.4301 130.526 80.8133 129.487 81.6201C128.54 82.2352 127.34 81.378 127.531 80.9948C128.076 79.9764 128.479 80.9646 129.225 80.5209Z" fill="#1B1B1D"/>
    <path d="M127.441 22.5283C129.055 22.8005 126.362 27.2577 125.424 30.1518C124.537 32.7333 127.885 30.5249 126.524 35.3249C126.392 35.8089 125.515 35.8291 125.566 35.1837C125.616 34.5383 126.171 33.2173 125.374 32.6224C124.779 32.1787 123.882 32.0577 124.154 30.9484C124.809 28.2157 126.312 25.6442 126.897 24.0106C127.26 23.0022 125.989 23.8594 124.88 23.3249C122.863 22.3165 124.446 16.8812 125.092 17.0426C125.999 17.2745 124.739 18.9787 124.819 21.2174C124.88 23.0426 126.06 22.2963 127.441 22.5283Z" fill="#1B1B1D"/>
    <path d="M122.601 84.1037C121.462 83.66 121.068 83.7609 120.978 83.1558C120.816 82.0365 120.211 83.8012 119.213 83.3676C118.215 82.934 117.912 83.2062 117.69 83.3676C117.075 83.7608 115.986 81.9558 118.699 81.9356C119.052 81.9356 119.374 82.3894 119.778 81.9356C120.564 81.26 120.615 81.4012 121.875 82.0567C122.167 82.2079 121.956 82.7625 122.722 82.8432C123.841 82.934 123.509 84.4566 122.601 84.1037Z" fill="#1B1B1D"/>
    <path d="M118.445 86.4676C118.526 86.6087 118.365 86.6692 118.324 86.7701C118.173 87.1331 118.213 87.0827 115.602 87.486C115.097 87.1734 114.896 86.9818 114.654 87.1734C114.25 87.486 113.464 86.4575 114.654 85.9129C115.471 85.5499 115.41 86.5583 116.782 86.0138C117.467 85.7516 118.183 85.7919 118.445 86.4676Z" fill="#1B1B1D"/>
    <path d="M112.417 83.014C111.781 82.6611 111.852 83.6191 110.954 83.5485C109.149 83.3972 110.127 82.3989 110.662 82.3182C111.196 82.2376 111.096 81.5216 112.114 81.6527C114.302 81.7535 113.284 83.4275 112.417 83.014Z" fill="#1B1B1D"/>
    <path d="M105.74 37.9978C104.933 38.2599 101.626 30.3843 100.607 33.7726C100.558 33.8852 100.476 33.9801 100.371 34.0444C100.266 34.1088 100.144 34.1396 100.022 34.1326C99.8991 34.126 99.7816 34.0823 99.6845 34.0074C99.5875 33.9325 99.5154 33.8298 99.478 33.7131C99.0545 32.3921 96.8461 27.2996 95.6562 27.9954C93.831 29.0543 94.8394 26.6442 92.7419 23.9618C90.7957 21.461 90.7251 21.6728 91.0175 21.219C92.0259 19.8879 94.8495 24.7786 95.2125 26.4627C95.4041 27.2996 97.1083 24.8391 99.9419 31.8879C100.295 32.7753 100.769 31.0711 102.322 32.2106C103.421 32.9769 107.041 37.5642 105.74 37.9978Z" fill="#1B1B1D"/>
    <path d="M95.2239 140.954C95.6273 141.761 94.2155 141.822 89.355 141.771C83.9298 141.711 83.8593 141.973 80.5517 141.993C78.3635 141.993 78.787 141.61 78.8979 144.01C79.0593 147.832 79.4324 149.314 78.3534 149.183C77.7786 149.112 77.9198 148.023 77.9399 147.529C77.9601 147.035 77.8794 147.912 77.7685 144.423C77.6979 141.963 77.7685 142.044 77.3551 142.054C66.0206 142.307 73.382 141.862 63.2375 142.406C61.6845 142.487 61.9971 142.145 62.098 144.323C62.2492 147.873 62.4106 149.455 62.098 149.667C61.7854 149.879 61.3013 149.969 61.0896 149.435C60.8778 148.9 61.0896 142.538 60.5753 142.569L45.3182 143.284C44.7938 143.284 45.5199 149.748 45.3182 150.685C45.1165 151.623 44.3098 151.432 44.2392 150.857C44.1686 150.453 43.9367 143.536 43.9266 143.516C43.9165 143.495 35.214 143.667 33.8426 143.717C27.9939 143.939 26.6224 144.354 26.7838 143.355C26.9956 142.186 39.2779 142.911 43.2812 142.285C43.8661 142.195 43.9367 142.428 43.9064 141.591C43.5031 132.515 43.6644 133.119 43.3518 133.159C43.251 133.159 27.893 133.895 26.9451 133.643C26.6224 133.563 26.4308 132.838 26.9451 132.757C28.6392 132.475 40.4375 132.232 41.1938 132.151C44.2997 131.828 43.3518 133.069 43.4022 128.652C43.4022 127.331 43.2308 127.846 43.2005 123.944C43.2005 123.51 43.2005 123.469 42.7871 123.549C42.6056 123.549 27.0056 124.327 26.7334 124.196C22.4578 122.441 41.2039 122.774 42.8678 122.431C43.2308 122.36 43.019 122.562 43.0291 116.844C43.0291 114.384 43.1703 114.576 42.7266 114.606C34.2157 114.606 24.8376 116.158 26.2897 114.272C26.7233 113.788 41.8291 113.838 42.8678 113.264C43.0896 113.082 42.777 107.284 42.7165 106.659C42.5753 105.307 42.7871 106.064 38.1283 106.064C29.5468 106.064 25.7754 107.183 25.6443 105.852C25.5132 104.682 42.7871 105.339 42.7165 104.522C42.3434 101.164 43.2308 101.153 43.7249 101.949C43.7249 102.05 43.8358 104.531 43.7955 104.622C43.8459 104.521 55.5232 104.249 59.3249 103.946C59.7988 103.946 59.5366 103.694 59.5366 102.655C59.5247 102.052 59.5517 101.45 59.6173 100.85C60.1417 100.144 60.6761 100.951 60.6257 101.072C60.5823 101.836 60.6096 102.603 60.7064 103.361C60.7064 104.37 60.7064 103.472 69.1064 103.442C75.6005 103.442 76.1652 103.443 76.2559 103.241C76.5282 102.697 75.8223 98.8132 77.2038 100.124C77.5265 100.487 77.2038 103.351 77.587 103.331C81.6206 103.119 94.0945 102.655 94.0038 103.331C93.8323 104.702 92.9147 103.543 77.6677 104.41C77.2744 104.41 77.4055 105.096 77.4156 105.126C77.5668 105.469 77.5467 108.958 77.7181 111.479C77.7181 111.943 93.1769 111.64 93.2777 111.63C93.9937 111.559 93.7819 112.488 93.671 112.559C92.9349 112.992 77.8089 112.618 77.8089 113.455C77.8089 121.442 77.7584 120.898 78.0408 120.878C78.666 120.828 94.034 120.272 94.3769 120.806C95.1231 122.692 87.8727 121.18 78.3131 122.027C77.8089 122.077 78.0105 122.259 77.9803 122.47C77.8895 123.055 78.1215 126.504 78.1215 126.504C78.4744 129.993 77.8996 130.538 78.4946 130.538C79.4021 130.457 92.7332 130.124 92.834 130.124C93.4088 130.124 95.3953 129.842 95.0424 130.951C94.8912 131.425 80.0878 131.495 78.5853 131.707C78.1517 131.778 78.2525 131.707 78.5853 139.22C78.6962 141.388 78.1013 140.743 83.1332 140.652C94.8004 140.5 94.9113 140.329 95.2239 140.954ZM75.0559 141.015C78.2525 141.015 77.6878 140.934 77.6878 140.41C77.6878 139.885 77.4559 136.084 77.3652 132.121C77.3652 131.939 61.6946 131.596 61.6744 132.706C61.6744 132.806 61.977 141.116 62.0778 141.216C62.1786 141.317 75.0257 140.843 75.0257 141.015H75.0559ZM77.0727 130.73C77.4559 130.73 77.2542 130.729 76.9719 122.753C76.9719 122.43 77.0223 122.037 76.4979 122.289C76.3971 122.339 65.819 122.29 61.866 122.653C60.8576 122.754 61.624 123.166 61.6543 130.89C61.6543 131.143 61.3114 131.274 64.8106 130.89C66.7064 130.749 76.9921 130.831 77.0425 130.73H77.0727ZM74.7131 121.16C77.6475 121.1 76.871 122.552 76.871 113.577C76.871 113.234 76.6996 113.213 76.2055 113.243C70.6895 113.475 61.2005 113.053 61.2308 114.112C61.5938 123.762 59.2139 121.322 66.9786 121.17C70.1148 121.16 67.9366 121.291 74.6828 121.16H74.7131ZM76.5383 112.085C76.75 112.085 76.7803 104.512 76.3063 104.522C66.6358 104.834 72.0711 104.309 62.4408 104.914C59.9803 105.075 61.0291 104.501 61.0291 109.583C61.0291 109.583 61.0291 109.371 61.1602 112.195C61.1602 113.133 61.1602 111.943 73.261 112.195C73.4021 112.164 76.4576 112.215 76.508 112.114L76.5383 112.085ZM57.3787 141.65C61.7854 141.428 60.9585 141.892 60.8576 139.411C60.5249 131.99 60.7871 132.353 60.2324 132.353C51.9232 132.958 53.4358 132.454 45.1064 133.019C44.8039 133.019 44.7535 132.564 45.2174 141.499C45.2678 142.507 45.0661 142.043 48.0308 142.013C48.0207 142.084 56.5417 141.721 57.3383 141.721L57.3787 141.65ZM60.2627 131.294C60.8173 131.294 60.3938 127.139 60.3333 126.06C60.1316 122.027 60.6963 122.732 58.8509 122.813C58.7501 122.813 49.6039 123.156 48.9484 123.237C42.5249 123.973 44.9148 121.301 44.814 131.838C44.7636 132.07 60.2223 131.223 60.2223 131.324L60.2627 131.294ZM60.1215 121.492V115.442C60.1215 113.324 60.5652 113.828 58.1551 113.919C53.0526 114.101 43.7653 114.454 44.6627 114.454C44.3098 114.454 44.4409 114.101 44.4409 121.28C44.4409 122.158 44.4409 122.4 44.6224 122.38L60.1215 121.492ZM59.8997 107.769C59.3753 104.532 60.7064 105.176 58.1854 105.217C58.1854 105.217 45.3888 105.581 44.33 105.772C43.9871 105.833 43.9165 105.711 44.0678 108.262C44.3703 113.304 44.0678 113.375 44.5821 113.304C49.0896 113.012 59.9501 112.87 59.9602 112.447C59.9198 112.628 59.7383 108.142 59.8593 107.799L59.8997 107.769Z" fill="#1B1B1D"/>
    <path d="M94.7997 143.551C95.5862 145.436 91.9358 145.568 92.9543 143.551C93.0332 143.372 93.1624 143.22 93.3263 143.113C93.4901 143.006 93.6814 142.949 93.877 142.949C94.0726 142.949 94.2639 143.006 94.4277 143.113C94.5915 143.22 94.7208 143.372 94.7997 143.551Z" fill="#1B1B1D"/>
    <path d="M93.3079 134.349C91.997 134.349 91.8054 131.778 93.7617 132.332C94.6995 132.645 94.4373 134.319 93.3079 134.349Z" fill="#1B1B1D"/>
    <path d="M92.1072 123.427C92.4602 122.026 94.84 123.094 93.8921 124.596C93.4585 125.282 91.6333 125.283 92.1072 123.427Z" fill="#1B1B1D"/>
    <path d="M93.6502 114.927C93.6145 115.194 93.4792 115.438 93.2714 115.609C93.0635 115.78 92.7986 115.866 92.5299 115.85C92.2611 115.835 92.0079 115.719 91.8209 115.526C91.6339 115.332 91.5269 115.075 91.5215 114.806C91.6627 113.142 93.6401 113.576 93.6502 114.927Z" fill="#1B1B1D"/>
    <path d="M93.1056 105.199C94.2753 107.529 90.0804 107.488 91.2501 105.199C91.4821 104.746 92.8434 104.675 93.1056 105.199Z" fill="#1B1B1D"/>
    <path d="M92.2885 99.9667C91.2801 99.9667 90.3826 101.559 89.707 101.559C89.2733 101.559 89.0717 100.873 88.6078 100.873C87.9725 100.873 87.5994 101.882 87.2868 101.882C86.3792 101.801 87.0448 100.874 86.2784 100.693C85.3204 100.441 84.433 101.902 83.6767 101.902C82.386 101.902 83.8885 100.249 83.0515 100.249C81.2868 100.531 80.5103 101.509 80.3389 100.823C80.0465 99.7035 83.9389 98.4027 84.3725 99.8144C84.5843 100.53 85.0683 99.5421 85.9557 99.5522C86.8431 99.5623 87.2767 100.087 87.5187 100.087C87.7607 100.087 87.9423 99.7045 88.5271 99.7045C89.7977 99.7045 89.1725 100.601 90.5439 99.5421C92.9742 97.5657 93.67 99.9667 92.2885 99.9667Z" fill="#1B1B1D"/>
    <path d="M91.25 50.4701C91.492 50.5608 92.4701 50.8331 92.3088 51.297C91.7743 52.8499 83.9491 47.697 84.171 49.2802C84.7659 53.5356 78.2618 51.4281 77.9391 50.9743C76.85 49.4314 83.687 52.2549 83.092 49.8247C82.134 45.9222 87.2164 48.9474 91.25 50.4701Z" fill="#1B1B1D"/>
    <path d="M88.0643 18.8802C87.479 19.0668 86.8472 19.0445 86.2766 18.817C85.706 18.5896 85.232 18.1711 84.9356 17.6331C84.6392 17.0951 84.5388 16.4709 84.6514 15.867C84.7641 15.2632 85.0829 14.7172 85.5533 14.3222C88.8306 11.1659 91.6037 18.1037 88.0643 18.8802ZM88.8508 15.9558C88.8112 15.6324 88.6785 15.3274 88.469 15.0779C88.2594 14.8283 87.982 14.6449 87.6703 14.5499C87.3586 14.4549 87.026 14.4524 86.7129 14.5426C86.3998 14.6329 86.1196 14.812 85.9063 15.0583C83.708 17.7911 89.2743 19.8482 88.8508 15.9558Z" fill="#1B1B1D"/>
    <path d="M77.0924 143.558C77.5159 146.19 73.9764 144.697 75.4588 143.164C75.5953 143.012 75.7783 142.91 75.9791 142.874C76.1798 142.838 76.387 142.869 76.568 142.963C76.6487 143.256 77.0419 143.246 77.0924 143.558Z" fill="#1B1B1D"/>
    <path d="M75.3384 134.48C74.8141 134.228 74.9552 132.463 76.1048 132.584C77.5065 132.554 77.325 135.115 75.3384 134.48Z" fill="#1B1B1D"/>
    <path d="M75.7912 43.7235C78.3122 43.905 75.4484 47.0411 73.9459 49.068C73.3408 49.8747 76.7895 54.3117 74.5509 55.1184C73.7744 55.3907 70.5173 53.6159 69.8719 53.2831C69.2265 52.9504 64.124 61.1688 65.2434 50.7016C65.3745 49.542 61.3711 48.5235 61.3005 47.0008C61.2501 45.6899 63.882 45.4983 65.6064 44.984C67.6232 44.3991 65.1627 34.5067 71.7375 43.6832C72.1812 44.3084 73.1795 43.5319 75.7912 43.7235ZM75.7912 44.7319C75.9022 44.3285 74.682 44.3588 74.4702 44.5C71.445 44.5 72.0501 45.5084 70.9307 43.9353C66.6551 37.8849 67.9055 41.7571 66.9576 45.2058C66.7761 45.8613 65.556 45.6798 63.2165 46.3252C61.1089 46.91 62.5106 47.4445 64.7089 48.7353C67.4417 50.3386 65.7879 49.9554 65.8787 53.7773C65.9392 56.2579 66.8871 54.7251 69.2165 52.5571C70.7089 51.1957 76.124 57.105 74.0064 52.1336C72.998 49.7638 72.4333 49.4411 73.0685 48.5235C73.7038 47.6058 75.7912 45.6899 75.7912 44.7823V44.7319Z" fill="#1B1B1D"/>
    <path d="M76.507 124.306C76.6986 125.315 74.4902 125.748 74.6718 124.115C74.7928 122.693 76.5171 123.096 76.507 124.306Z" fill="#1B1B1D"/>
    <path d="M75.5705 114.324C76.7301 114.718 76.1856 115.888 75.5705 116.099C73.715 116.684 73.9369 113.77 75.5705 114.324Z" fill="#1B1B1D"/>
    <path d="M75.5697 107.001C75.4704 107.116 75.3465 107.207 75.2071 107.268C75.0677 107.328 74.9165 107.357 74.7646 107.351C74.6127 107.345 74.4641 107.305 74.3297 107.234C74.1954 107.163 74.0788 107.063 73.9886 106.94C73.868 106.776 73.8002 106.578 73.7939 106.375C74.2881 104.569 76.4269 105.66 75.5697 107.001Z" fill="#1B1B1D"/>
    <path d="M74.6318 100.517C74.3394 100.647 74.0731 100.829 73.8452 101.052C73.6032 101.304 73.4318 101.748 73.0789 101.748C72.7259 101.748 72.5142 101.456 72.3427 101.456C71.5562 101.648 71.7276 102.212 71.1427 102.212C70.2755 102.212 70.8503 101.263 70.4469 101.263C70.0436 101.263 69.5797 102.04 69.0654 102.04C68.5511 102.04 68.3293 101.606 67.9058 101.606C67.2604 101.606 67.0285 102.474 66.3629 102.474C65.1629 102.474 66.8873 99.9928 64.5982 101.556C61.9159 103.391 64.8201 98.4499 66.615 100.295C66.736 100.416 66.8066 100.679 67.0184 100.679C67.2301 100.679 67.4923 100.417 67.8755 100.417C68.2587 100.417 68.531 100.75 68.8839 100.75C69.2368 100.75 69.8116 99.9534 70.4873 99.9534C70.931 99.9534 71.2536 100.346 71.5461 100.346C71.8385 100.346 71.8688 100.185 72.131 100.185C72.6049 100.185 72.6452 100.417 73.1394 99.9938C74.4704 98.7736 75.3881 99.8617 74.6318 100.517Z" fill="#1B1B1D"/>
    <path d="M58.7393 144.888C58.7393 142.771 61.4519 144.031 60.1611 145.534C60.0399 145.651 59.8865 145.728 59.7207 145.757C59.5549 145.785 59.3843 145.763 59.2311 145.694C59.0779 145.624 58.9491 145.51 58.8614 145.367C58.7737 145.223 58.7312 145.056 58.7393 144.888Z" fill="#1B1B1D"/>
    <path d="M59.5665 124.831C59.5419 125.056 59.4351 125.264 59.2666 125.416C59.098 125.567 58.8795 125.651 58.6529 125.651C58.4263 125.651 58.2078 125.567 58.0394 125.416C57.8709 125.264 57.7644 125.056 57.7403 124.831C57.7302 123.691 59.5967 123.631 59.5665 124.831Z" fill="#1B1B1D"/>
    <path d="M57.2773 115.804C57.2773 114.362 59.2941 114.875 59.1933 115.692C59.032 117.144 57.2874 117.317 57.2773 115.804Z" fill="#1B1B1D"/>
    <path d="M58.9718 133.77C60.8474 133.77 59.4054 136.925 58.2054 135.11C58.0928 134.905 58.064 134.664 58.1252 134.438C58.1863 134.212 58.3325 134.019 58.5331 133.899C58.6656 133.819 58.8173 133.775 58.9718 133.77Z" fill="#1B1B1D"/>
    <path d="M58.8508 106.429C59.4961 108.446 56.5718 108.224 57.3281 106.338C57.5398 105.824 58.6592 105.895 58.8508 106.429Z" fill="#1B1B1D"/>
    <path d="M57.7716 100.56C57.7111 101.296 57.338 101.075 56.5514 101.912C56.2287 102.255 55.7346 102.92 55.3212 102.274C54.3934 100.822 53.0724 103.061 52.6792 103.071C51.6708 103.071 52.5985 101.518 51.6708 101.518C50.743 101.518 49.5329 104.302 49.0792 101.983C48.8371 100.732 47.5968 102.931 46.4674 102.931C46.8506 102.931 45.459 102.719 47.9094 100.914C49.2506 99.9054 49.8254 101.146 50.1077 101.146C50.6422 101.146 51.1161 99.6836 52.6489 100.752C52.8102 100.863 52.9716 101.104 53.1834 101.104C53.3951 101.104 53.7985 100.682 54.5649 100.682C55.0691 100.682 55.3615 100.884 55.6842 100.884C56.0069 100.884 56.4909 100.146 57.217 100.086C57.3178 100.146 57.7716 100.439 57.7716 100.56Z" fill="#1B1B1D"/>
    <path d="M42.8379 144.623C44.3908 145.632 41.9706 147.84 41.416 145.44C41.5572 144.442 42.3639 144.23 42.8379 144.623Z" fill="#1B1B1D"/>
    <path d="M41.3552 125.01C42.0611 123.649 44.3804 126.281 42.0107 126.472C41.214 126.593 41.1636 125.444 41.3552 125.01Z" fill="#1B1B1D"/>
    <path d="M42.2323 134.27C43.6239 134.38 43.7045 136.286 41.9298 136.185C41.7335 136.05 41.5822 135.859 41.4956 135.637C41.4089 135.415 41.3909 135.172 41.4437 134.939C41.479 134.785 41.5446 134.64 41.6363 134.512C41.7472 134.36 42.0306 134.34 42.2323 134.27Z" fill="#1B1B1D"/>
    <path d="M41.5164 115.715C44.1786 115.796 41.0122 119.245 40.75 116.593C40.7803 116.019 40.9113 115.705 41.5164 115.715Z" fill="#1B1B1D"/>
    <path d="M40.6385 108.275C40.2956 107.881 40.225 106.459 41.4956 106.792C43.3712 107.266 41.6569 109.454 40.6385 108.275Z" fill="#1B1B1D"/>
    <path d="M39.2673 101.851C38.2589 101.851 37.7648 102.95 37.2505 103.071C37.1396 103.394 36.2421 103.072 36.3026 102.437C36.3631 101.802 36.5144 101.429 35.8892 101.651C35.6573 101.772 34.548 102.809 34.4068 102.89C33.9531 103.152 33.7211 102.628 33.3984 102.628C33.2976 102.628 31.6136 104.16 31.6136 102.527C31.6136 101.448 32.1178 100.934 29.6875 103.142C29.0018 103.767 27.943 103.022 30.0203 101.469C31.3111 100.461 32.2892 100.017 32.7026 101.701C33.9026 100.471 33.59 101.347 34.3665 101.347C34.5581 101.347 36.6556 99.2303 37.2707 100.985C37.785 102.185 37.6035 100.813 39.0354 100.802C40.1749 100.792 40.1043 101.851 39.2673 101.851Z" fill="#1B1B1D"/>
</svg>
