<svg width="226" height="184" viewBox="0 0 226 184" fill="none" xmlns="http://www.w3.org/2000/svg">
    <path d="M145.488 155.408C145.488 155.408 140.238 161.453 141.269 168.172C142.3 174.892 151.876 207.212 151.876 207.212C155.756 207.852 159.697 208.043 163.621 207.781C169.891 207.33 177.642 206.868 182.098 206.987C186.554 207.105 186.839 204.367 190.987 205.387C195.135 206.406 198.631 205.956 202.281 206.074C205.932 206.193 217.783 206.643 218.874 206.074C219.964 205.505 220.474 199.805 220.58 197.517C220.687 195.23 220.924 181.209 217.736 175.627C214.548 170.045 206.441 155.325 199.484 154.982C192.527 154.638 148.333 151.865 145.488 155.408Z" fill="#AA3CC5"/>
    <path d="M153.856 181.945C147.504 170.869 140.495 160.183 132.866 149.945C124.949 149.436 17.4194 150.846 14.1839 150.739C13.4135 150.739 1.46705 179.847 0.921875 182.443C0.921875 182.988 1.18261 207.331 1.18261 207.331C1.18261 207.331 9.83432 207.888 10.3202 206.845C10.581 206.288 11.1854 200.694 11.6832 195.669C61.3416 195.586 73.2407 195.894 142.774 195.859L145.145 207.71C145.145 207.71 155.361 209.061 153.962 207.201C153.962 206.146 153.856 181.945 153.856 181.945Z" fill="white"/>
    <path d="M9.77412 106.07C9.95189 105.644 36.4759 91.2796 36.6063 91.6233C37.1402 91.6349 37.6646 91.7667 38.1406 92.0088C38.6166 92.2509 39.032 92.5971 39.3559 93.0218C40.4225 94.4558 67.0058 143.522 67.0058 143.522C65.4295 147.077 67.6339 143.214 50.1053 173.269L49.0387 172.653L10.6037 110.254C10.6037 110.254 9.12228 107.659 9.77412 106.07Z" fill="white"/>
    <path d="M124.783 167.842C122.579 162.604 120.185 154.047 117.281 145.869C117.115 145.395 116.57 143.795 113.868 143.819C111.165 143.842 67.5158 144.613 67.2077 145.146C64.7662 149.377 50.722 173.59 50.7102 173.59C50.568 173.827 120.256 173.72 120.279 173.72C121.642 173.72 125.02 173.922 125.542 172.997C126.205 171.907 125.636 169.916 124.783 167.842Z" fill="white"/>
    <path d="M174.051 13.9357C173.956 13.3194 173.837 13.0824 172.474 11.1506C171.787 10.1787 171.775 10.641 170.388 9.19505C169.002 7.74915 165.091 6.94324 161.618 5.42623C155.692 2.83071 156.688 1.87073 148.202 1.36111C147.136 1.30185 136.635 2.77146 134.454 4.1344C133.198 4.91661 130.045 6.23214 129.192 8.23507C128.015 8.79569 127.015 9.66894 126.3 10.7595C125.613 12.2172 125.115 15.3816 125.838 16.2349C126.561 17.0883 137.133 18.4512 138.282 19.3045C139.432 20.1578 146.424 22.066 149.032 24.377C151.639 26.6881 156.024 29.8288 157.944 32.7443C159.864 35.6598 161.014 38.6701 161.784 39.5116C162.845 40.9896 163.436 42.7533 163.479 44.5723C166.549 43.0671 166.963 42.036 166.928 38.7294C168.231 37.5442 168.552 36.7976 168.682 34.1191C169.867 33.005 171.645 34.5576 176.433 31.2628C178.317 29.9592 177.523 26.7474 177.618 26.06C177.203 19.8378 175.414 22.0541 174.051 13.9357Z" fill="#592466"/>
    <path d="M220.154 116.571C225.973 130.674 223.875 154.389 220.735 169.37C218.459 180.178 219.396 178.851 217.179 173.198C215.271 168.303 215.129 172.451 216.326 166.43C218.696 154.425 220.284 136.707 218.554 125.637C217.369 118.36 216.373 111.64 211.17 106.058C209.274 104.02 207.615 103.261 208.255 103.403C213.825 104.541 217.973 111.273 220.154 116.571Z" fill="white"/>
    <path d="M215.33 116.345C220.959 134.371 215.709 164.937 214.441 168.22C211.594 164.495 208.539 160.934 205.291 157.553C203.703 155.941 203.727 155.906 203.964 155.669C207.081 152.67 205.588 147.373 202.779 147.219C202.245 147.219 203.111 145.536 201.25 142.193C200.242 140.38 199.365 139.527 199.045 137.014C197.137 121.998 193.831 117.661 194.305 116.724C195.49 114.164 194.885 113.631 197.481 108.558C200.705 102.253 198.145 101.447 204.9 103.119C206.381 103.824 207.801 104.653 209.143 105.596C211.869 107.824 213.978 112.019 215.33 116.345Z" fill="white"/>
    <path d="M204.391 151.866C204.357 152.447 204.203 153.016 203.94 153.536C203.677 154.055 203.31 154.516 202.862 154.888C202.416 155.311 201.945 155.707 201.452 156.073C198.275 158.088 190.927 159.498 187.621 159.723C172.451 160.754 172.747 158.657 165.743 158.396C160.362 158.183 158.798 158.645 154.756 157.839C153.153 157.539 151.614 156.966 150.205 156.144C152.089 155.516 172.143 152.873 178.068 150.218C181.837 148.512 185.523 139.339 186.661 135.499C187.301 133.318 188.273 131.659 189.185 129.134C189.304 128.826 192.101 120.257 193.404 118.729C196.213 124.168 197.351 137.691 198.382 140.061C199.129 141.827 200.124 142.941 200.835 144.802C201.034 145.672 201.165 146.555 201.226 147.445C201.487 149.021 204.142 147.741 204.391 151.866ZM188.059 153.442C191.793 153.655 200.089 151.961 199.84 150.716C199.591 149.472 194.258 152.375 188.45 152.269C187.828 152.209 187.201 152.209 186.578 152.269C186.127 152.34 182.619 152.992 183.022 153.383C183.058 153.428 183.082 153.481 183.093 153.537C181.493 154.284 187.111 153.395 188.059 153.442Z" fill="#592466"/>
    <path d="M201.487 89.7389C202.021 94.207 197.529 105.146 196.237 107.706C193.274 113.632 195.68 110.017 191.781 118.598C188.652 125.495 189.849 123.599 187.04 130.912C180.676 147.374 180.356 148.689 173.399 150.455C173.399 150.455 153.464 154.437 138.567 156.736C137.927 156.843 138.353 156.736 138.199 154.781C137.915 151.32 138.199 150.668 137.773 148.357C137.31 145.845 136.303 144.636 136.979 144.458C144.386 142.597 140.534 143.036 150.015 140.037C151.07 139.706 152.386 139.457 152.611 139.362C153.452 138.864 153.512 139.018 157.209 137.845C163.657 135.794 162.377 135.617 168.871 136.02C169.701 136.02 169.997 135.368 169.677 135.072C169.085 134.526 165.837 134.432 165.032 134.526C162.661 134.526 162.661 134.882 162.223 133.341C161.286 129.786 170.519 132.535 170.685 130.675C170.78 129.158 166.276 130.675 166.845 129.726C172.486 120.636 170.886 118.645 181.162 110.977C183.295 109.389 185.345 108.512 183.923 107.801C183.425 107.552 177.665 112.079 177.085 112.542C175.212 113.869 174.039 115.824 173.351 116.287C173.671 113.922 174.478 111.65 175.722 109.614C178.448 105.111 185.322 98.5447 185.452 98.4736C186.08 98.0944 185.748 96.8618 185.013 97.4425C184.492 97.8573 178.128 104.198 178.033 104.269C178.199 100.951 183.034 90.2367 183.034 90.213C183.224 89.4071 182.335 89.3241 182.05 89.8219C181.147 91.6283 180.336 93.4796 179.621 95.3685C174.667 108.405 178.91 102.041 174.548 109.282C172.862 111.866 171.964 114.884 171.965 117.97C169.666 121.525 165.849 130.046 165.043 129.987C161.227 129.703 160.137 132.879 161.369 134.728C161.618 135.107 151.781 138.023 151.758 138.034C142.833 140.559 145.073 141.175 143.758 138.532C142.573 136.221 143.39 136.482 142.253 134.266C141.115 132.049 141.269 129.999 139.456 127.001C132.937 116.18 134.715 112.779 135.971 97.087C136.148 95.5522 136.243 94.0091 136.256 92.4648C136.256 92.0145 135.473 91.9078 135.391 92.3345C134.881 94.847 134.561 100.145 134.205 103.807C133.459 112.494 132.226 117.116 136.955 125.59C140.167 131.338 139.325 126.574 134.679 142.538C134.3 143.83 133.779 145.845 132.451 145.88C123.491 146.129 120.837 147.065 114.069 135.368C111.924 131.646 107.409 128.873 98.8163 115.481C97.8682 113.999 99.5748 115.623 104.493 111.842C104.624 111.747 106.129 110.894 106.864 110.325C109.092 108.607 106.39 107.718 110.644 111.51C114.899 115.303 115.48 115.682 117.246 117.733C119.474 120.316 121.654 121.501 124.653 124.322C127.651 127.143 124.653 125.353 131.551 130.959C131.637 131.042 131.751 131.088 131.871 131.088C131.99 131.088 132.105 131.042 132.191 130.959C132.191 130.355 131.811 130.189 131.562 129.94C130.282 128.66 124.795 122.959 124.523 122.473C128.434 122.165 130.448 126.029 131.539 124.998C131.859 124.678 131.539 124.263 131.29 124.121C128.256 121.952 128.042 121.644 125.613 121.158C124.214 120.861 123.728 121.561 123.894 120.778C124.463 118.041 124.949 117.021 124.665 114.142C124.226 109.579 126.194 110.776 127.177 99.6114C128.445 85.2946 130.259 84.8916 138.91 79.6058C140.617 78.5628 141.553 77.8043 142.099 77.4251C142.644 77.0458 143.011 76.5006 143.059 77.6028C143.047 78.1447 143.154 78.6825 143.373 79.1781C143.592 79.6738 143.918 80.1152 144.327 80.4709C149.15 84.7612 163.728 78.9539 171.076 71.6652C175.971 66.8178 166.442 65.4667 187.597 73.9525C189.347 74.5138 190.992 75.3586 192.468 76.4532C196.035 78.7288 200.112 77.8873 201.487 89.7389Z" fill="#592466"/>
    <path d="M171.74 67.2919C171.941 68.5956 171.135 70.1482 170.839 69.4845C169.654 66.8179 169.405 65.7631 167.07 63.5587C165.139 61.7928 164.819 63.1439 165.423 63.689C166.94 64.834 168.139 66.3475 168.907 68.086C169.761 70.6578 170.626 70.6341 169.974 71.2741C169.322 71.9141 168.694 72.0089 167.888 72.8504C167.426 73.3363 165.352 68.7378 164.333 68.1097C162.567 66.9245 162.46 65.9646 161.595 66.0475C161.002 66.0475 161.239 66.8416 161.453 67.0786C163.586 69.4489 163.598 68.7497 165.079 71.2622C166.727 74.0355 166.976 73.6326 166.324 74.1422C164.881 75.2273 163.323 76.1494 161.678 76.8918C161.168 77.117 161.109 77.0696 161.002 76.7259C157.222 64.2342 153.583 71.4045 160.137 65.2535C161.625 64.0635 162.76 62.49 163.42 60.7024C163.598 60.2402 163.716 58.8417 162.638 58.8773C161.962 58.8773 162.164 58.5336 161.192 56.8862C160.884 56.3647 161.654 55.0136 163.562 55.0847C165.47 55.1558 165.103 56.981 166.62 59.9202C167.533 61.7335 171.242 64.0327 171.74 67.2919Z" fill="#592466"/>
    <path d="M161.772 40.614C162.195 40.9877 162.523 41.4566 162.729 41.9821C162.935 42.5076 163.013 43.0746 162.957 43.6362C162.685 44.9162 162.293 45.0702 162.507 45.8525C163.076 47.8791 160.646 49.5857 159.034 49.2302C156.948 48.7798 157.197 48.9339 156.285 47.0258C154.732 43.8258 156.071 46.765 157.47 41.5503C159.105 35.3045 155.265 31.5712 151.544 32.4956C150.48 32.6563 149.516 33.2104 148.842 34.0482C148.344 34.6289 148.214 35.2334 147.905 35.3637C147.36 35.5771 146.009 35.9563 142.608 37.0111C141.743 37.2837 142.525 36.063 141.221 36.1697C140.629 36.1697 139.787 36.8689 138.72 35.8378C137.369 34.5104 136.931 32.4482 138.981 31.4882C140.024 31.0142 139.965 30.3623 139.479 30.0305C138.294 29.2127 137.215 28.6201 137.286 26.2972C137.286 24.4602 138.27 23.6662 138.021 23.4647C137.851 23.3518 137.644 23.3109 137.444 23.3509C137.244 23.3909 137.068 23.5085 136.955 23.678C136.113 25.1358 136.682 24.6261 135.627 25.598C135.201 25.9891 134.051 25.3728 133.932 24.9817C133.814 24.5906 133.138 24.401 133.008 24.6143C132.838 24.9698 132.688 25.3337 132.558 25.7046C132.426 26.0005 132.223 26.2591 131.967 26.4571C131.71 26.6551 131.409 26.7865 131.089 26.8393C130.77 26.8922 130.442 26.8649 130.136 26.76C129.829 26.655 129.554 26.4756 129.334 26.238C129.18 26.0957 129.061 25.918 128.895 25.7876C128.184 25.1832 127.829 26.2972 127.841 26.6054C127.841 27.4587 127.189 29.0942 126.039 28.6675C124.89 28.2409 124.356 27.4231 123.93 28.6675C123.752 29.2009 123.408 30.706 122.152 30.5164C121.488 30.4097 119.781 29.9238 119.485 29.3312C119.142 28.7905 118.951 28.167 118.932 27.5267C118.913 26.8863 119.067 26.2527 119.379 25.6928C120.019 24.2113 118.573 24.5076 118.193 25.598C117.257 28.5727 118.502 28.3476 117.802 29.5327C115.752 32.9934 114.899 28.549 112.457 30.4453C109.53 32.6971 105.488 28.7505 107.859 24.0454C108.084 23.6187 108.795 22.7062 109.506 22.5995C109.607 22.5841 109.7 22.5357 109.771 22.462C109.841 22.3882 109.885 22.2931 109.896 22.1916C109.907 22.0901 109.884 21.9879 109.83 21.9009C109.777 21.8139 109.696 21.747 109.601 21.7106C108.653 21.2721 107.539 22.4691 107.148 23.121C106.306 24.6143 106.496 24.8987 105.962 25.0054C103.865 25.4913 102.407 22.8721 102.857 19.3403C103.248 16.65 107.159 17.1122 108.025 17.0648C108.89 17.0174 108.522 15.7967 108.274 15.5478C107.598 14.8841 105.642 10.4634 108.771 8.43677C109.182 8.23778 109.616 8.09048 110.063 7.99826C110.411 7.81144 110.797 7.70683 111.191 7.69245C111.586 7.67806 111.978 7.7543 112.339 7.9153C112.967 8.27085 113.82 9.31379 114.235 8.36566C114.439 8.03026 114.747 7.77308 115.112 7.63086C117.281 7.76123 117.933 8.81603 118.667 10.3212C119.153 11.3286 118.667 11.9212 118.383 13.6752C118.134 14.9907 116.759 14.3982 116.641 15.2041C116.439 16.567 118.822 15.9152 119.307 14.5522C120.113 12.3241 122.863 10.9967 124.167 11.3878C124.356 11.4471 125.897 12.6797 125.162 13.3789C122.792 15.7492 124.866 19.6484 125.47 17.8588C125.523 17.5788 125.463 17.2895 125.304 17.0529C125.167 16.7198 125.108 16.3598 125.131 16.0003C125.154 15.6408 125.258 15.2912 125.437 14.9782C125.615 14.6651 125.862 14.3968 126.159 14.1936C126.457 13.9904 126.797 13.8577 127.153 13.8056C127.591 13.783 128.029 13.8591 128.433 14.0284C128.838 14.1976 129.199 14.4557 129.49 14.7834C129.781 15.1112 129.995 15.5002 130.116 15.9218C130.237 16.3433 130.261 16.7866 130.187 17.2189C130.057 18.2262 130.092 17.9299 133.055 18.6055C140.877 20.4069 136.232 19.1151 143.959 22.2321C144.943 22.5561 145.871 23.0319 146.708 23.6424C149.422 26.1076 150.134 25.7994 151.971 27.3876C159.342 33.7164 160.113 39.5474 161.772 40.614Z" fill="#AA3CC5"/>
    <path d="M161.712 60.3818C161.819 60.5833 162.056 60.8203 162.009 60.9744C161.44 62.8114 154.898 69.1283 147.218 69.5905C146.625 69.5905 146.945 69.3891 145.215 66.1299C144.634 65.0513 147.585 60.7136 148.107 58.2604C148.192 57.9534 148.167 57.6262 148.036 57.3359C147.87 57.1344 147.561 57.4663 147.324 57.7507C147.087 58.0352 146.388 59.0781 143.935 61.8988C141.482 64.7195 136.682 66.9832 133.399 66.6395C129.108 66.1891 125.92 60.7136 123.846 56.9567C123.349 56.0559 123.183 56.1152 123.621 55.9374C126.548 54.7523 125.79 52.9508 125.114 53.6738C123.929 55.0011 121.879 55.89 120.528 54.373C120.137 53.9345 120.682 53.5315 121.583 52.2042C122.179 51.385 122.52 50.4077 122.563 49.3953C122.604 48.3831 122.346 47.3811 121.82 46.5154C121.725 46.2072 121.82 46.0769 122.021 46.0176C122.471 45.9109 122.697 46.302 122.946 46.5746C123.383 47.2463 123.968 47.8091 124.656 48.2199C125.344 48.6308 126.117 48.8788 126.916 48.9449C128.081 49.0471 129.245 48.7429 130.21 48.0839C131.176 47.425 131.884 46.4519 132.214 45.3302C132.329 44.7363 132.392 44.1336 132.403 43.5287C132.664 40.9925 132.617 41.3362 139.36 39.0844C140.545 38.6696 140.83 38.4799 140.865 38.9184C141.007 41.1821 143.544 40.1036 143.627 40.9569C143.691 41.2984 143.833 41.6207 144.041 41.8989C144.249 42.177 144.519 42.4037 144.828 42.5616C145.138 42.7194 145.479 42.8042 145.827 42.8093C146.174 42.8145 146.518 42.7399 146.833 42.5913C147.252 42.3922 147.602 42.0698 147.834 41.668C148.557 40.4829 148.438 37.7214 149.244 35.837C149.536 35.2548 149.974 34.7585 150.516 34.3969C151.057 34.0353 151.683 33.8209 152.333 33.7748C152.983 33.7292 153.633 33.8539 154.22 34.1365C154.807 34.4192 155.31 34.8501 155.68 35.3867C156.343 36.6102 156.662 37.9903 156.604 39.3807C156.498 43.3865 154.921 44.3702 154.305 44.8443C153.829 45.1486 153.271 45.2983 152.706 45.2728C152.142 45.2474 151.599 45.048 151.153 44.7021C150.358 44.1806 150.489 45.8872 151.33 46.1361C152.172 46.385 152.456 46.2191 152.278 46.8354C151.971 48.0343 151.851 49.2737 151.923 50.5094C151.958 50.9233 152.132 51.3132 152.417 51.6158C152.701 51.9185 153.08 52.1162 153.491 52.1769C153.901 52.2388 154.321 52.1606 154.681 51.9548C155.042 51.749 155.323 51.4277 155.478 51.0427C155.964 49.3242 154.293 47.3213 153.997 46.4917C153.89 46.2309 154.222 46.2546 154.471 46.1124C154.72 45.9702 155.052 47.2146 161.712 60.3818ZM154.352 36.3348C154.684 36.0859 154.352 34.8889 152.942 35.043C150.75 34.8889 150.086 37.4725 150.264 39.5584C150.43 41.3362 152.112 40.3525 152.954 41.4547C153.203 41.7628 153.096 41.9999 152.302 42.5095C152.204 42.5667 152.122 42.6472 152.063 42.7439C152.004 42.8406 151.97 42.9504 151.963 43.0636C151.957 43.1767 151.979 43.2897 152.027 43.3924C152.075 43.495 152.147 43.5842 152.238 43.652C152.347 43.7337 152.477 43.7814 152.613 43.789C152.749 43.7966 152.884 43.7638 153.001 43.6947C155.514 42.1895 154.021 39.7836 152.148 39.831C150.963 39.831 151.33 37.8874 151.757 37.034C152.527 35.363 153.547 36.9274 154.352 36.3348ZM137.002 53.6738C137.156 52.7256 135.437 52.1449 134.631 52.1449C134.11 52.1449 134.134 52.8086 134.56 53.0219C134.987 53.2353 134.904 53.2115 134.359 53.8989C132.854 55.6668 130.738 56.8012 128.433 57.0752C127.722 57.253 128.338 57.5967 128.16 57.8455C129.345 58.0944 129.701 57.3122 131.348 60.7848C131.538 61.1877 130.483 61.1285 130.993 61.8158C131.502 62.5032 134.228 62.1477 135.473 60.4766C136.717 58.8055 136.373 57.2411 136.267 54.3493C136.196 53.5315 136.907 54.3256 137.002 53.6738Z" fill="white"/>
    <path d="M159.58 76.0984C160.066 77.8524 160.256 77.5206 159.58 77.888C156.671 79.407 153.471 80.2878 150.194 80.4717C148.167 80.4717 150.668 79.8435 147.563 72.8155C147.314 72.2466 146.377 72.5666 146.828 73.7044C147.621 75.7 148.07 77.816 148.155 79.962C148.155 80.2346 148.226 80.5309 147.8 80.5428C146.898 80.5055 146.024 80.2183 145.275 79.7131C144.932 79.4929 144.645 79.1944 144.439 78.8421C144.233 78.4899 144.114 78.0939 144.09 77.6865C143.995 76.1932 144.683 75.7191 144.635 74.5458C144.635 73.6807 144.102 72.7088 142.526 71.5118C140.653 70.1015 144.043 66.5697 144.374 67.3282C145.216 69.2481 145.003 68.5133 144.766 69.26C144.693 69.4015 144.654 69.5583 144.653 69.7176C144.653 69.8768 144.69 70.034 144.761 70.1762C144.833 70.3184 144.937 70.4416 145.066 70.5357C145.194 70.6298 145.343 70.6922 145.5 70.7177C151.426 72.4955 149.66 66.7593 152.754 75.6954C153.299 77.2717 153.263 78.0658 153.939 77.9947C155.669 77.6865 151.497 70.2081 152.031 70.1133C155.871 69.3904 154.816 67.743 156.665 70.5163C157.959 72.1899 158.946 74.0799 159.58 76.0984Z" fill="#592466"/>
    <path d="M145.488 37.1411C147.859 36.3826 147.764 36.4063 147.681 36.6907C147.362 37.9601 147.171 39.2585 147.112 40.5662C147.084 40.8801 146.934 41.1703 146.693 41.3735C146.452 41.5766 146.14 41.6763 145.826 41.6506C145.671 41.6376 145.519 41.594 145.38 41.5223C145.241 41.4506 145.118 41.3522 145.017 41.2328C144.916 41.1133 144.84 40.9751 144.793 40.8262C144.746 40.6772 144.728 40.5204 144.742 40.3647C144.742 38.7292 142.514 39.9144 142.016 38.9544C141.518 37.9944 142.348 38.1366 145.488 37.1411Z" fill="#AA3CC5"/>
    <path d="M138.116 36.8924C138.863 37.5798 139.574 37.4257 140.095 37.6035C139.479 38.042 132.676 40.3413 132.321 40.4835C131.515 40.839 131.55 40.8035 131.42 40.6138C130.758 39.6629 129.796 38.9624 128.688 38.6254C127.579 38.2883 126.39 38.3344 125.311 38.7561C124.232 39.1778 123.326 39.9506 122.74 40.9499C122.154 41.9492 121.922 43.1167 122.081 44.2642C122.211 45.4493 122.223 44.5012 121.026 45.2953C120.876 45.1823 120.733 45.0596 120.599 44.9278C118.916 43.1738 117.506 43.8849 117.257 43.1501C117.067 42.6318 116.928 42.0958 116.842 41.5501C116.842 41.242 116.724 40.9457 116.914 41.0168C117.34 41.1827 117.257 41.7516 117.66 41.7161C118.063 41.6805 118.039 41.1709 117.968 40.9812C117.376 39.5828 116.653 40.3413 116.641 39.6539C116.392 32.0451 117.625 31.8555 118.525 30.6229C118.928 30.054 118.952 31.1681 122.081 31.8081C122.656 31.8525 123.229 31.6977 123.704 31.3697C124.179 31.0417 124.526 30.5604 124.688 30.0066C124.89 29.4496 124.83 29.7814 126.383 30.0066C127.699 30.2318 128.173 29.0229 128.824 27.6363C129.097 27.0674 131.313 29.5207 133.387 26.5222C133.66 26.1311 134.572 27.2452 135.971 26.8185C136.267 26.7237 135.888 26.9133 136.623 28.857C137.251 30.4925 138.401 30.3622 137.808 30.7533C135.651 32.1399 136.22 35.1739 138.116 36.8924ZM128.22 35.3636C128.73 35.3636 128.564 34.7354 128.161 34.6643C127.041 34.4114 125.896 34.2881 124.747 34.2969C124.086 34.2655 123.427 34.3946 122.826 34.6732C122.226 34.9518 121.702 35.3717 121.299 35.8969C120.943 36.3354 120.516 36.6435 120.505 36.9517C120.511 37.1618 120.591 37.363 120.73 37.5206C121.05 37.9235 121.548 38.0776 122.152 37.1176C123.716 34.6406 126.561 35.5176 128.22 35.3636Z" fill="white"/>
    <path d="M136.647 151.675C136.872 155.23 136.86 154.614 136.848 154.721C136.848 155.218 136.754 154.721 131.752 155.005C128.102 155.23 128.481 154.614 125.933 155.29C124.421 155.874 122.814 156.175 121.192 156.178C119.21 156.193 117.23 156.062 115.266 155.787C114.002 155.779 112.739 155.688 111.486 155.515C110.153 155.007 108.75 154.708 107.326 154.626C105.844 154.496 100.855 157.221 99.1245 156.747C97.8564 156.392 100.44 155.906 104.92 153.31C105.927 152.741 105.856 153.097 109.791 153.073C110.668 153.073 112.387 152.599 111.604 152.173C111.32 152.03 111.782 152.256 108.44 151.876C107.201 151.587 105.905 151.661 104.707 152.09C94.6801 157.565 94.0401 155.064 95.569 154.46C105.69 150.608 101.625 150.691 107.421 150.193C109.104 150.051 110.206 149.008 108.807 149.091C103.166 149.245 104.173 149.186 99.9423 151.39C99.8677 151.402 99.7917 151.402 99.7171 151.39C99.9186 149.743 101.447 149.945 103.841 147.74C105.169 146.555 107.255 146.662 109.009 145.868C109.578 145.607 109.163 145.251 108.819 145.275C106.259 145.524 104.244 145.702 102.396 147.373C101.519 148.167 100.76 148.143 99.243 149.553C95.3557 153.109 93.4357 151.924 94.3483 151.355C95.705 150.555 96.9553 149.588 98.0697 148.475C99.1859 147.586 100.375 146.793 101.625 146.105C103.13 145.073 104.564 143.236 110.988 143.556C115.634 143.782 118.336 146.472 123.503 146.733C125.566 146.828 124.143 147.313 128.137 147.219C129.963 147.279 131.79 147.193 133.601 146.958C135.841 146.448 135.971 146.579 135.971 146.958C136.505 148.47 136.735 150.073 136.647 151.675Z" fill="white"/>
    <path d="M125.198 174.301C125.21 174.375 125.21 174.451 125.198 174.526C124.013 177.56 127.059 176.541 69.0923 176.292C48.66 176.197 50.7104 176.588 50.817 175.628C50.9 174.846 47.1904 174.941 96.4933 175.119C131.562 175.213 121.275 174.988 125.198 174.301Z" fill="white"/>
    <path d="M108.807 70.42C108.878 70.657 108.902 70.8229 108.38 70.9178C106.982 71.1666 102.455 72.1029 88.2325 74.4732C88.0547 74.4732 87.8533 74.5325 87.7703 74.2955C87.6872 74.001 87.6872 73.6892 87.7703 73.3947C87.9599 72.8496 88.7658 72.7074 89.3584 72.5651C91.3495 72.0911 106.283 69.6852 107.456 69.5074C108.12 69.2941 108.582 69.7326 108.807 70.42Z" fill="#1B1B1D"/>
    <path d="M105.11 107.245C107.717 110.303 106.959 108.62 103.925 111.192C103.332 111.69 100.547 113.562 100.049 112.946C94.2774 106.214 96.5648 106.25 91.5515 103.986C90.3663 103.441 87.8419 102.801 87.202 100.17C87.08 99.7356 87.0772 99.2763 87.194 98.8405C87.3108 98.4046 87.5428 98.0082 87.8656 97.693C89.0428 97.0229 90.1786 96.2829 91.2671 95.4767C93.1278 94.1375 93.5307 93.6516 94.2063 94.1375C95.9366 95.3227 96.3988 95.4886 96.4937 96.2234C96.7544 98.0959 97.1099 98.5937 96.6833 98.9493C96.5506 99.0187 96.4044 99.0584 96.2548 99.0655C96.1052 99.0727 95.9558 99.0472 95.8171 98.9908C95.6783 98.9344 95.5536 98.8485 95.4514 98.739C95.3492 98.6295 95.2722 98.499 95.2255 98.3567C94.7278 96.7686 95.2255 97.373 95.0596 96.5908C95.0448 96.4808 94.9936 96.3788 94.9141 96.3012C94.8347 96.2236 94.7316 96.1748 94.6213 96.1626C94.5109 96.1503 94.3996 96.1753 94.3051 96.2336C94.2106 96.2918 94.1383 96.38 94.0996 96.4841C93.8152 97.5508 92.9145 97.6693 92.7841 97.8945C91.8834 98.9019 89.8093 99.2456 90.1649 100.17C90.3071 100.549 90.6863 100.419 91.35 100.3C91.35 100.3 91.2434 101.201 91.4804 101.308C92.6656 101.865 92.5589 98.0367 94.1115 99.3759C94.5535 99.818 95.0371 100.215 95.5574 100.561C97.821 101.746 97.2996 103.82 98.3781 103.429C99.1129 103.157 98.0462 101.059 97.1929 100.289C96.6714 99.85 98.2121 100.051 97.987 98.5226C97.7783 97.7502 97.6786 96.9523 97.6907 96.1523C97.9771 94.9564 97.9771 93.7097 97.6907 92.5138C97.0744 91.8857 97.6907 89.4561 96.15 88.022C95.83 87.7257 95.83 87.6902 96.15 87.5006C96.7307 87.1569 96.6833 86.5643 96.8018 86.031C96.9203 85.4976 96.3396 85.2132 97.3114 85.0117C97.5247 85.0117 97.6907 85.0117 97.7025 85.1776C97.9988 90.7005 100.464 90.5464 99.7766 98.1315C99.4566 101.557 101.803 103.37 105.11 107.245Z" fill="white"/>
    <path d="M96.8017 94.3618C96.8017 94.9899 95.2729 92.7262 93.424 93.0936C91.1959 93.5203 90.7692 95.3099 88.1619 96.2817C86.1352 97.0165 86.7634 98.0239 86.2538 97.6921C85.9708 97.4726 85.7491 97.1839 85.61 96.8539C85.4709 96.5238 85.4192 96.1635 85.4597 95.8077C85.4597 95.0136 85.8864 95.0492 89.4774 92.5485C92.6181 90.3559 92.1085 88.4715 96.304 92.5485C96.5062 92.8008 96.6548 93.0918 96.7404 93.4037C96.826 93.7155 96.8469 94.0416 96.8017 94.3618Z" fill="white"/>
    <path d="M96.1732 90.4985C96.1732 90.5933 96.1732 90.7711 96.0073 90.6644C94.7391 89.6807 93.9332 88.78 92.0251 89.1711C91.3851 89.3133 90.3896 90.4629 89.9866 90.7711C89.5837 91.0792 84.606 94.6229 84.5586 94.6229C83.7408 93.4377 83.9423 93.7103 83.7764 93.1177C85.0919 90.1311 85.6608 91.2926 87.5926 89.2896C88.7778 88.1045 89.0148 88.2467 89.9629 87.2393C90.9111 86.2319 92.1318 86.8245 93.3288 87.6897C94.8221 88.7919 95.3436 88.0215 96.1732 90.4985Z" fill="white"/>
    <path d="M94.5971 153.05C95.6282 152.848 95.9363 152.682 95.9245 153.05C95.8984 153.127 95.8536 153.196 95.7941 153.251C93.9334 154.247 93.9215 154.282 93.8978 153.998C93.8267 152.979 93.6371 153.239 94.5971 153.05Z" fill="white"/>
    <path d="M94.632 84.9495C95.6039 85.5183 95.9831 85.6013 95.8172 85.9924C95.8172 86.8457 94.9639 86.8694 94.0869 86.7628C93.3551 86.3353 92.5805 85.9857 91.7758 85.7198C90.9225 85.5776 90.3062 85.9924 89.5477 85.2695C88.5877 84.3569 88.2559 84.0843 88.0662 84.1673C87.4381 84.5347 89.2514 86.0043 88.5521 86.182C87.8529 86.3598 86.2648 86.4546 86.9166 86.8576C87.8173 87.4028 89.441 86.7746 84.0841 90.579C83.9774 89.8561 86.0396 83.7169 86.0396 83.6813C86.3357 83.0983 86.8192 82.6317 87.4125 82.3565C88.0058 82.0814 88.6743 82.0137 89.3107 82.1643C90.2943 82.4369 90.4247 82.4962 94.632 84.9495Z" fill="white"/>
    <path d="M56.897 137.063C57.1459 137.501 57.1459 137.312 54.4437 139.86C52.7963 141.424 53.5193 141.566 51.1726 138.343C45.5549 130.615 45.8868 131.481 46.349 131.137C51.8956 126.918 51.3978 127.119 51.6467 127.581C52.6778 129.525 55.0837 133.946 56.897 137.063Z" fill="#592466"/>
    <path d="M47.8182 135.581C53.0804 142.941 52.713 141.507 51.1485 142.917C50.7337 143.308 49.4893 144.493 49.1575 144.754C48.4345 143.912 42.0465 135.273 41.7265 134.941C41.4065 134.609 41.4894 134.775 45.0449 132.073C45.4123 131.847 45.0449 131.764 47.8182 135.581Z" fill="#592466"/>
    <path d="M49.9168 175.437C49.9168 176.622 48.2931 176.444 48.2812 175.437C48.3218 175.23 48.4258 175.042 48.5788 174.897C48.7318 174.753 48.9261 174.66 49.1346 174.631C49.3378 174.655 49.5266 174.748 49.6691 174.895C49.8116 175.041 49.8991 175.233 49.9168 175.437Z" fill="white"/>
    <path d="M9.07603 107.886C9.36047 110.967 49.5731 173.39 48.7909 173.686C46.4206 174.622 51.6235 181.07 24.8387 137.349C8.41234 110.54 6.95458 109.557 8.96936 107.814C9.00999 107.83 9.04652 107.854 9.07603 107.886Z" fill="white"/>
    <path d="M47.558 119.297C48.2928 118.894 48.1387 119.297 48.7432 119.996C47.558 120.435 41.9403 125.59 41.6322 124.962C41.0633 123.575 41.3003 123.895 41.9759 123.362C45.4365 120.767 46.8824 119.676 47.558 119.297Z" fill="#592466"/>
    <path d="M46.338 142.786C48.7083 145.951 48.7083 145.251 47.3098 146.555C43.6476 150.111 43.8965 149.992 43.6239 149.648C34.7945 138.721 34.913 139.764 35.6715 139.195C41.7158 134.621 39.9736 135.912 40.5781 135.462C40.9692 135.166 40.5544 134.917 46.338 142.786Z" fill="#592466"/>
    <path d="M46.8699 117.758C47.1034 117.968 47.2657 118.245 47.3321 118.552C46.4551 119.251 43.6462 121.373 41.0981 123.198C40.8374 122.795 40.6241 122.107 40.9915 121.847C43.7766 119.832 46.064 118.208 46.8699 117.758Z" fill="#592466"/>
    <path d="M40.3047 124.122C40.9329 125.651 41.3477 125.639 40.7314 126.113C37.5907 128.555 37.7803 128.543 37.6025 128.021C37.4248 127.5 36.6189 125.461 37.2233 125.212C40.0203 124.063 39.8544 123.162 40.3047 124.122Z" fill="#592466"/>
    <path d="M36.5831 127.96C36.9387 129.335 37.626 128.434 31.9847 132.843C30.2188 134.229 29.9343 134.609 29.9225 134.123C29.8158 131.468 29.9225 132.487 35.0187 128.635C36.5238 127.498 36.4646 127.533 36.5831 127.96Z" fill="#592466"/>
    <path d="M36.1802 126.266C36.358 127.119 36.9032 126.183 30.6336 131.006C30.3018 131.255 30.124 131.208 30.124 130.817C30.124 129.774 30.124 129.56 30.4203 129.312C32.0911 127.979 33.8404 126.748 35.6588 125.626C36.1091 125.341 36.0736 125.792 36.1802 126.266Z" fill="#592466"/>
    <path d="M218.447 110.278C225.285 121.644 225.913 133.188 224.693 153.181C224.136 162.307 222.085 170.449 219.881 179.255C219.442 181.056 221.137 182.728 221.196 191.498C221.327 194.921 221.144 198.348 220.651 201.738C220.497 202.472 219.549 202.65 219.324 202.034C218.862 200.849 222.725 189.495 215.851 174.04C213.232 168.114 203.372 156.488 202.542 156.962C199.982 158.396 199.295 158.74 193.167 160.079C177.168 163.575 170.282 158.894 160.8 159.688C153.903 160.245 150.039 157.318 147.633 156.618C147.262 156.541 146.879 156.541 146.507 156.618C145.452 156.796 145.322 156.867 144.812 157.803C141.376 163.635 141.435 160.814 150.644 175.202C155.123 182.218 154.59 181.199 154.531 182.088C154.531 181.649 154.626 181.376 154.377 207.296C154.377 207.889 153.452 207.936 153.275 207.486C152.943 206.585 153.843 188.381 153.049 188.393C140.38 188.642 141.956 187.207 142.62 190.834C145.844 208.434 145.595 207.106 145.583 207.343C145.586 207.423 145.574 207.502 145.546 207.577C145.519 207.651 145.477 207.72 145.423 207.778C145.369 207.837 145.304 207.884 145.232 207.917C145.16 207.95 145.082 207.969 145.002 207.972C144.85 207.982 144.7 207.934 144.583 207.837C144.466 207.74 144.391 207.601 144.374 207.45C144.113 206.265 142.466 196.701 142.454 196.653C142.335 195.93 120.552 196.653 12.8324 196.392C11.8725 196.392 12.2162 195.8 11.4102 201.927C10.7347 207.012 10.8651 207.201 10.0591 207.201C9.25324 207.201 9.34805 207.201 11.6947 190.052C12.0147 187.682 13.3658 188.404 3.83703 188.298C1.53781 188.298 1.4667 188.167 1.4667 188.606C1.68003 195.717 1.60892 193.987 1.73929 205.412C1.73929 207 2.02373 207.592 1.25337 207.782C0.483012 207.972 0.423753 208.209 0.40005 188.345C0.40005 187.539 0.151166 188.144 0.115611 186.864C-0.168829 177.88 -0.951039 185.679 12.5954 150.989C13.2235 149.401 13.9702 149.804 20.2516 149.804C20.2516 149.887 29.0337 149.721 29.0574 149.721C30.6218 149.721 31.1314 150.041 30.7521 149.413C7.39253 110.492 5.46071 110.776 8.30511 106.64C10.0354 104.116 11.6354 103.677 31.1551 93.4846C39.6172 89.0758 37.3654 87.9498 49.6674 110.539C62.5383 134.183 67.3264 142.823 67.3738 143.036C67.516 143.854 67.0893 143.558 79.0239 143.51C81.1335 143.51 103.391 143.51 104.671 143.024C105.299 142.787 107.871 142.728 109.672 142.503C113.714 142.017 118.099 144.707 119.154 144.684C115.254 139.576 118.668 144.684 114.14 137.668C108.641 129.123 106.591 129.656 98.6503 117.247C97.0385 114.723 96.837 114.154 97.3822 113.146C97.6903 112.554 97.9984 112.364 97.3822 111.57C96.517 110.456 95.9362 109.401 95.5096 108.785C94.0518 106.699 94.1229 106.616 92.9141 105.941C92.0845 105.474 91.2157 105.077 90.3186 104.756C89.1075 104.38 88.0488 103.626 87.2979 102.604C86.5471 101.582 86.1436 100.347 86.1468 99.0786C86.1468 98.1897 84.7838 98.6993 84.5113 96.2697C84.4046 95.3571 83.492 95.3808 82.935 93.8994C82.4491 92.6194 83.3972 92.2046 83.1602 91.3039C82.6506 89.4076 83.575 88.6609 84.9379 83.7307C85.3163 82.641 86.0789 81.7266 87.0831 81.1588C88.043 80.4596 88.7186 81.23 88.529 80.5426C87.6993 77.4137 87.1423 75.5175 86.8934 74.2493C86.7899 73.8346 86.8296 73.397 87.006 73.0076C87.1824 72.6182 87.4852 72.2999 87.8653 72.1042C89.2282 71.3101 104.078 69.165 106.555 68.5487C110.194 67.7191 109.352 69.4613 111.675 77.5204C113.56 84.0507 111.249 82.6759 99.1125 84.6314C98.6266 84.7143 98.6029 85.5084 98.7332 86.3617C99.5273 91.3394 100.973 91.6239 100.712 96.5423C100.452 101.461 100.784 100.453 105.323 105.68C106.306 106.865 106.295 107.138 106.828 107.185C109.127 107.375 108.191 108.548 114.152 112.957C116.392 114.604 118.182 118.278 122.733 120.886C124.238 112.957 122.946 114.675 123.622 111.108C124.345 107.28 124.522 111.238 125.767 100.714C125.98 98.8889 126.241 89.1232 129.796 85.0462C133.648 80.6492 133.044 82.5929 141.423 76.43C143.295 75.0552 143.722 74.5456 142.964 73.6093C142.039 72.4242 140.913 72.2938 140.818 70.919C140.805 69.9866 141.024 69.0655 141.454 68.2382C141.884 67.4108 142.513 66.7031 143.284 66.1784C143.698 65.9413 143.829 66.048 142.975 64.7799C142.786 64.5073 142.549 64.685 142.288 64.8984C140.38 66.4391 135.77 68.5605 132.345 67.7309C127.817 66.6287 124.463 60.7029 122.425 56.543C122.117 55.9267 121.536 56.6733 120.149 55.5474C118.763 54.4215 119.948 53.5682 119.201 53.426C113.892 52.4778 112.6 45.5683 116.025 43.7432C116.179 43.6602 116.274 43.6009 116.262 43.4706L115.906 42.155C115.847 41.9654 115.776 41.3965 115.681 41.5151C115.586 41.6336 115.598 42.4632 115.681 42.7713C115.764 43.0795 115.681 43.2928 115.598 43.3402C115.541 43.3735 115.477 43.3931 115.412 43.3975C115.346 43.402 115.28 43.3912 115.219 43.3659C115.158 43.3406 115.104 43.3016 115.061 43.2519C115.018 43.2023 114.987 43.1432 114.97 43.0795C114.774 42.564 114.732 42.0024 114.85 41.4636C114.968 40.9247 115.24 40.4319 115.634 40.0455C115.742 39.0381 115.742 38.0188 115.634 37.0114C115.634 32.8041 116.748 32.0574 116.096 32.0811C115.409 31.9878 114.768 31.6858 114.259 31.216C113.5 30.7893 113.382 31.5123 112.28 31.9389C111.652 32.1609 110.985 32.2482 110.321 32.1951C109.657 32.142 109.012 31.9497 108.428 31.6308C107.888 31.2733 107.424 30.813 107.062 30.2762C106.7 29.7393 106.447 29.1364 106.318 28.5019C105.678 26.6531 106.318 25.9775 105.785 26.0605C101.601 26.6175 101.044 19.5421 102.384 17.6458C103.569 16.0221 104.872 16.0221 107.124 15.7377C107.669 15.6547 106.401 14.7185 106.223 11.6963C105.998 8.04598 109.886 6.00749 112.683 6.63563C113.204 6.75415 113.583 7.44154 113.939 7.05044C114.887 6.00749 117.992 6.29193 119.296 8.65041C119.913 9.49188 120.243 10.5111 120.232 11.5541C121.358 10.8667 122.282 9.83558 124.131 10.1437C124.56 10.1556 124.974 10.3002 125.317 10.5585C125.411 10.6533 125.577 10.6415 125.672 10.4519C126.573 8.5793 127.284 9.42077 127.805 8.36597C129.595 4.81047 133.992 2.44014 136.03 1.94237C153.891 -2.502 156.451 1.75275 162.246 4.08752C171.194 7.64302 170.981 6.55267 174.904 12.0163C175.733 13.2014 175.425 14.3037 175.947 16.4014C176.93 20.4191 179.407 20.6087 178.933 27.6486C178.732 30.6115 177.203 31.4056 175.828 32.3893C174.252 33.4678 171.799 34.7596 169.819 34.3448C169.12 34.2144 169.819 35.8026 167.817 39.1684C167.236 40.1521 167.817 41.3728 166.904 42.6173C164.344 46.1728 163.811 44.4187 163.846 45.6631C163.965 49.2186 162.863 49.3371 160.954 50.3208C160.016 50.6583 158.989 50.6583 158.051 50.3208C158.477 51.5475 159.005 52.7362 159.627 53.8763C160.528 55.5474 160.469 55.1682 161.097 54.6348C161.554 54.2114 162.122 53.9273 162.735 53.8161C163.348 53.7048 163.981 53.7709 164.557 54.0067C167.224 54.8245 166.288 58.4511 168.931 60.9755C170.589 62.3301 171.911 64.05 172.794 66.0006C173.091 66.7354 183.639 70.8479 184.018 70.9901C195.182 75.47 188.332 72.7086 193.807 75.5886C195.348 76.4063 198.074 76.9634 200.148 80.3292C203.786 86.1247 203.597 94.2905 200.658 100.643C200.053 101.804 211.585 98.8771 218.447 110.278ZM220.734 169.371C223.875 154.39 225.973 130.663 220.153 116.572C217.973 111.274 213.825 104.542 208.302 103.404C207.626 103.262 209.321 104.021 211.217 106.059C216.432 111.653 217.487 118.48 218.601 125.638C220.331 136.708 218.743 154.426 216.373 166.432C215.188 172.452 215.318 168.304 217.226 173.199C219.395 178.899 218.459 180.179 220.734 169.371ZM214.441 168.186C215.709 164.855 220.971 134.337 215.33 116.311C213.979 111.985 211.869 107.79 209.084 105.538C207.742 104.595 206.322 103.766 204.841 103.061C198.086 101.401 200.646 102.196 197.422 108.501C194.826 113.573 195.431 114.106 194.246 116.666C193.807 117.603 197.114 121.94 198.986 136.956C199.306 139.469 200.172 140.322 201.191 142.136C203.052 145.478 202.186 147.137 202.72 147.161C205.552 147.315 207.046 152.612 203.905 155.611C203.668 155.848 203.644 155.884 205.232 157.495C208.502 160.894 211.576 164.475 214.441 168.221V168.186ZM202.862 154.852C203.31 154.48 203.677 154.02 203.94 153.5C204.203 152.98 204.356 152.412 204.391 151.83C204.142 147.706 201.452 148.986 201.226 147.481C201.165 146.591 201.034 145.707 200.835 144.838C200.124 142.942 199.129 141.827 198.382 140.097C197.351 137.727 196.213 124.169 193.404 118.764C192.101 120.293 189.304 128.862 189.185 129.17C188.273 131.694 187.301 133.354 186.661 135.534C185.476 139.374 181.837 148.571 178.068 150.254C172.142 152.932 152.089 155.575 150.205 156.18C151.614 157.001 153.153 157.575 154.756 157.875C158.797 158.681 160.362 158.218 165.743 158.432C172.747 158.692 172.451 160.802 187.621 159.759C190.927 159.534 198.287 158.124 201.452 156.109C201.946 155.731 202.417 155.323 202.862 154.888V154.852ZM196.261 107.659C197.552 105.099 202.032 94.1601 201.511 89.692C200.112 77.8404 196.035 78.6819 192.563 76.4419C191.087 75.3473 189.441 74.5025 187.692 73.9412C166.537 65.4554 176.065 66.8302 171.171 71.6538C163.823 78.9426 149.245 84.6906 144.421 80.4596C144.013 80.1038 143.687 79.6624 143.468 79.1667C143.249 78.6711 143.141 78.1333 143.153 77.5915C143.153 76.4893 142.893 76.9278 142.193 77.4137C141.494 77.8996 140.712 78.5989 139.005 79.5944C130.353 84.8803 128.54 85.2832 127.272 99.6C126.288 110.764 124.321 109.567 124.759 114.13C125.044 117.01 124.558 118.029 123.989 120.767C123.823 121.549 124.309 120.85 125.708 121.146C128.078 121.632 128.351 121.94 131.385 124.109C131.598 124.251 131.953 124.666 131.633 124.986C130.59 126.029 128.528 122.154 124.617 122.462C124.89 122.948 130.377 128.648 131.657 129.928C131.906 130.177 132.321 130.343 132.285 130.948C132.199 131.031 132.085 131.077 131.965 131.077C131.846 131.077 131.731 131.031 131.645 130.948C124.724 125.342 127.604 127.001 124.748 124.311C121.891 121.62 119.568 120.305 117.34 117.721C115.574 115.671 115.041 115.351 110.739 111.499C106.437 107.647 109.186 108.56 106.958 110.314C106.235 110.883 104.73 111.736 104.588 111.831C99.6695 115.612 97.9629 113.988 98.911 115.469C107.503 128.862 112.019 131.635 114.164 135.356C120.931 147.078 123.645 146.118 132.546 145.869C133.873 145.869 134.395 143.819 134.774 142.527C139.515 126.563 140.261 131.327 137.05 125.579C132.309 117.105 133.494 112.483 134.3 103.796C134.608 100.133 134.928 94.8357 135.485 92.3231C135.568 91.8964 136.398 92.0031 136.35 92.4535C136.337 93.9981 136.242 95.541 136.066 97.0756C134.881 112.732 133.032 116.169 139.55 126.989C141.364 129.988 141.162 131.967 142.347 134.254C143.533 136.542 142.703 136.21 143.852 138.521C145.168 141.164 142.928 140.547 151.852 138.023C151.852 138.023 161.713 135.096 161.464 134.716C160.279 132.808 161.322 129.632 165.138 129.976C165.944 129.976 169.76 121.454 172.059 117.958C172.059 114.873 172.956 111.854 174.643 109.271C179.005 102.03 174.762 108.394 179.716 95.3571C180.421 93.493 181.22 91.6655 182.11 89.8817C182.394 89.3839 183.295 89.4669 183.093 90.2728C183.093 90.2728 178.258 101.01 178.092 104.329C178.187 104.258 184.551 97.9171 185.073 97.5023C185.807 96.9215 186.139 98.1541 185.511 98.5334C185.381 98.6045 178.507 105.17 175.781 109.674C174.538 111.71 173.73 113.982 173.411 116.346C174.098 115.884 175.271 113.976 177.144 112.601C177.725 112.186 183.484 107.659 183.982 107.861C185.404 108.572 183.354 109.449 181.221 111.037C170.945 118.705 172.545 120.696 166.904 129.786C166.335 130.699 170.839 129.217 170.744 130.734C170.625 132.595 161.346 129.81 162.282 133.401C162.673 134.894 162.756 134.586 165.091 134.586C165.897 134.491 169.144 134.586 169.737 135.131C170.057 135.428 169.737 136.139 168.931 136.079C162.436 135.676 163.716 135.854 157.269 137.905C153.571 139.09 153.512 138.924 152.67 139.422C152.492 139.516 151.129 139.765 150.075 140.097C140.593 143.096 144.433 142.657 137.038 144.518C136.362 144.696 137.37 145.904 137.832 148.417C138.259 150.728 137.974 151.38 138.259 154.841C138.413 156.796 137.986 156.903 138.626 156.796C153.523 154.497 173.434 150.527 173.458 150.515C180.415 148.749 180.735 147.433 187.099 130.971C189.932 123.659 188.735 125.555 191.84 118.657C195.704 110.029 193.298 113.585 196.261 107.659ZM175.781 30.6234C177.831 29.5804 177.523 26.736 177.594 26.0486C177.203 19.8265 175.331 22.0428 174.039 13.9244C173.944 13.3081 173.825 13.0711 172.462 11.1393C171.775 10.1674 171.763 10.6296 170.377 9.18374C168.99 7.73783 165.079 6.93192 161.606 5.41491C155.68 2.8194 156.676 1.85941 148.19 1.34979C147.124 1.29053 136.623 2.76014 134.442 4.12308C133.091 4.96455 129.559 6.4223 129.038 8.68597C129.939 8.75708 130.057 8.43708 131.408 8.49634C136.327 8.70967 144.445 9.51558 148.558 12.1704C157.399 17.954 163.348 22.6117 166.169 34.2974C166.404 35.5418 166.72 36.7697 167.117 37.9714C167.789 36.5362 168.127 34.9676 168.107 33.3831C168.086 31.7986 167.707 30.2393 166.999 28.8219C165.991 26.6294 166.596 25.3731 165.944 23.4294C163.289 15.477 158.94 14.3274 159.591 13.5688C160.243 12.8103 164.522 16.6858 166.003 20.0636C167.876 24.342 167.129 23.4176 167.485 23.8442C167.894 22.8463 168.164 21.7975 168.291 20.7272C168.492 18.4517 168.291 17.9303 168.836 17.8947C169.95 17.8117 169.428 23.0976 167.911 25.9894C167.497 26.7597 167.911 27.3049 168.314 28.3597C169.974 32.3537 169.025 32.4722 169.701 32.7685C171.621 33.6811 175.413 30.8486 175.781 30.6234ZM170.839 69.4731C171.135 70.1368 171.941 68.5842 171.739 67.2806C171.242 64.0214 167.532 61.7221 166.62 59.9444C165.103 57.0052 165.588 55.2037 163.562 55.1089C161.535 55.0141 160.919 56.3889 161.191 56.9104C162.163 58.5577 161.962 58.9251 162.637 58.9014C163.716 58.9014 163.597 60.2644 163.42 60.7266C162.76 62.5141 161.625 64.0877 160.137 65.2776C153.583 71.4286 157.221 64.2584 161.002 76.75C161.109 77.0937 161.168 77.1411 161.677 76.9159C163.323 76.1736 164.881 75.2515 166.323 74.1664C166.975 73.6686 166.726 74.0597 165.079 71.2864C163.597 68.7739 163.586 69.4968 161.452 67.1028C161.239 66.8657 161.002 66.131 161.594 66.0717C162.46 65.9887 162.566 66.9724 164.332 68.1339C165.316 68.7857 167.39 73.3842 167.888 72.8745C168.694 72.0331 169.156 72.1042 169.974 71.2983C170.791 70.4924 169.76 70.682 168.907 68.1102C168.126 66.4059 166.927 64.9262 165.423 63.808C164.818 63.2628 165.138 61.9118 167.07 63.6777C169.405 65.7635 169.618 66.8183 170.839 69.485V69.4731ZM166.43 40.1877C165.79 36.5611 165.908 36.7625 165.245 37.4855C164.719 38.4097 164.042 39.2391 163.242 39.9388C163.088 40.0336 163.147 40.164 163.242 40.318C163.879 41.297 164.205 42.4454 164.178 43.6128C164.119 44.3357 166.406 42.155 166.43 40.1995V40.1877ZM165.387 35.6722C165.257 35.1152 165.185 34.7122 164.308 31.8323C164.119 31.1804 162.72 33.3493 162.436 33.8115C159.746 38.161 159.935 33.9181 161.606 38.7418C162.258 40.6143 164.818 36.5492 165.387 35.684V35.6722ZM161.594 33.4085C163.337 30.5641 163.965 30.7182 163.609 29.853C161.239 24.899 162.827 25.539 159.283 30.0308C157.233 32.6145 156.795 30.1967 159.698 34.89C159.744 34.9682 159.8 35.0399 159.864 35.1033C160.561 34.6807 161.153 34.1053 161.594 33.4204V33.4085ZM162.993 43.6602C163.05 43.0985 162.972 42.5313 162.766 42.0057C162.56 41.4801 162.231 41.0112 161.808 40.638C160.149 39.5714 159.378 33.7404 152.078 27.4116C150.241 25.8235 149.529 26.1316 146.815 23.6665C145.978 23.056 145.05 22.5801 144.066 22.2561C136.339 19.1391 140.984 20.431 133.162 18.6295C130.199 17.954 130.164 18.2503 130.294 17.2429C130.368 16.8106 130.344 16.3673 130.223 15.9458C130.102 15.5242 129.888 15.1352 129.597 14.8074C129.306 14.4797 128.944 14.2217 128.54 14.0524C128.135 13.8831 127.698 13.807 127.26 13.8296C126.904 13.882 126.564 14.0148 126.267 14.218C125.969 14.4213 125.722 14.6896 125.544 15.0025C125.366 15.3155 125.261 15.665 125.238 16.0244C125.215 16.3838 125.274 16.7438 125.411 17.0769C125.57 17.314 125.629 17.6032 125.577 17.8829C124.973 19.6725 122.84 15.7377 125.269 13.4029C126.004 12.7037 124.463 11.4711 124.274 11.4118C122.934 10.997 120.22 12.3481 119.414 14.5762C118.928 15.9392 116.546 16.591 116.748 15.2281C116.866 14.4222 118.241 15.0147 118.49 13.6992C118.798 11.9452 119.26 11.3289 118.774 10.3452C118.051 8.86374 117.4 7.78524 115.219 7.65487C114.854 7.79709 114.546 8.05427 114.342 8.38967C113.927 9.33781 113.074 8.29486 112.446 7.93931C112.085 7.7784 111.693 7.70221 111.298 7.71659C110.904 7.73097 110.518 7.83554 110.17 8.02227C109.723 8.11449 109.289 8.26179 108.878 8.46078C105.749 10.4874 107.693 14.9081 108.38 15.5718C108.629 15.8207 109.08 17.0295 108.132 17.0888C107.183 17.148 103.391 16.674 102.964 19.3643C102.455 22.9198 103.972 25.5153 106.069 25.0294C106.555 24.9227 106.366 24.6383 107.255 23.145C107.646 22.4931 108.76 21.2961 109.708 21.7346C109.803 21.771 109.884 21.8379 109.937 21.9249C109.991 22.0119 110.014 22.1141 110.003 22.2156C109.992 22.3171 109.948 22.4122 109.877 22.486C109.807 22.5598 109.714 22.6081 109.613 22.6235C108.902 22.7302 108.191 23.6428 107.966 24.0694C105.595 28.8101 109.601 32.7211 112.54 30.4219C114.982 28.5256 115.835 32.97 117.886 29.5093C118.585 28.3242 117.34 28.5493 118.277 25.5746C118.62 24.4605 120.066 24.1879 119.462 25.6694C119.15 26.2292 118.995 26.8628 119.014 27.5033C119.033 28.1438 119.224 28.7673 119.568 29.3078C119.853 29.936 121.571 30.4219 122.235 30.493C123.491 30.6826 123.835 29.1775 124.013 28.6442C124.439 27.459 124.937 28.2175 126.122 28.6442C127.308 29.0708 127.959 27.459 127.924 26.582C127.924 26.2738 128.268 25.1598 128.979 25.7642C129.145 25.8946 129.263 26.0723 129.417 26.2146C129.637 26.4529 129.912 26.6327 130.219 26.7378C130.525 26.8429 130.853 26.87 131.172 26.8166C131.492 26.7633 131.793 26.6317 132.049 26.4336C132.306 26.2355 132.509 25.977 132.641 25.6812C132.771 25.3103 132.922 24.9464 133.091 24.5909C133.222 24.3776 133.909 24.5909 134.016 24.9583C134.122 25.3257 135.284 25.9657 135.71 25.5746C136.765 24.6027 136.196 25.1124 137.038 23.6546C137.151 23.4851 137.327 23.3675 137.527 23.3275C137.727 23.2875 137.935 23.3284 138.104 23.4413C138.353 23.6428 137.429 24.4368 137.37 26.2738C137.299 28.6442 138.377 29.1893 139.562 30.0071C140.048 30.3389 140.107 30.9908 139.064 31.4648C137.014 32.4248 137.453 34.487 138.804 35.8144C139.87 36.8455 140.712 36.2055 141.304 36.1463C142.608 36.0396 141.826 37.2603 142.691 36.9877C146.092 35.9329 147.432 35.5537 147.989 35.3403C148.297 35.21 148.427 34.6055 148.925 34.0248C149.599 33.187 150.564 32.6329 151.627 32.4722C155.372 31.5478 159.212 35.2811 157.553 41.5269C156.19 46.7416 154.851 43.8024 156.368 47.0024C157.28 48.9105 157.032 48.7564 159.117 49.2068C160.729 49.5623 163.159 47.8557 162.59 45.8291C162.377 45.0706 162.72 44.9165 162.993 43.6602ZM162.009 60.9992C162.009 60.8451 161.808 60.6081 161.713 60.4066C154.981 47.3698 154.934 45.8646 154.531 46.0898C154.128 46.315 153.95 46.2083 154.057 46.469C154.4 47.2987 156.024 49.3016 155.538 51.0201C155.382 51.4049 155.102 51.7261 154.741 51.9318C154.38 52.1376 153.961 52.216 153.55 52.1544C153.14 52.0928 152.762 51.8948 152.477 51.5923C152.193 51.2898 152.019 50.9004 151.983 50.4868C151.911 49.2511 152.031 48.0117 152.338 46.8127C152.516 46.1965 152.22 46.3742 151.39 46.1135C150.561 45.8528 150.418 44.158 151.212 44.6794C151.659 45.0252 152.202 45.2245 152.766 45.25C153.33 45.2754 153.889 45.1258 154.365 44.8217C154.981 44.3476 156.557 43.3639 156.664 39.3581C156.722 37.9677 156.402 36.5876 155.74 35.364C155.37 34.8277 154.867 34.397 154.28 34.1144C153.693 33.8318 153.043 33.7069 152.393 33.7522C151.743 33.7977 151.117 34.0119 150.575 34.3735C150.033 34.7352 149.595 35.2318 149.304 35.8144C148.498 37.6988 148.617 40.484 147.894 41.6454C147.662 42.0477 147.312 42.3693 146.892 42.5673C146.471 42.7654 146.001 42.8304 145.543 42.7536C145.085 42.6757 144.661 42.4598 144.33 42.1346C143.998 41.8094 143.774 41.3906 143.687 40.9343C143.592 40.0573 141.067 41.1595 140.925 38.8958C140.925 38.4573 140.653 38.647 139.42 39.0618C132.676 41.3136 132.724 40.9699 132.463 43.5061C132.452 44.111 132.389 44.7137 132.273 45.3076C131.944 46.4294 131.236 47.4026 130.27 48.0616C129.305 48.7206 128.14 49.0247 126.976 48.9223C126.177 48.8561 125.404 48.6081 124.716 48.1972C124.028 47.7864 123.443 47.2236 123.005 46.552C122.757 46.2794 122.531 45.8883 122.081 45.995C121.868 45.995 121.785 46.1846 121.88 46.4927C122.406 47.3579 122.664 48.3606 122.623 49.3727C122.58 50.3851 122.239 51.3623 121.642 52.1815C120.742 53.5089 120.197 53.9119 120.588 54.3504C121.939 55.8674 123.93 54.9785 125.174 53.6512C125.85 52.9282 126.608 54.6704 123.681 55.9148C123.242 56.0926 123.408 56.0333 123.906 56.9341C125.98 60.6436 129.168 66.1665 133.459 66.6169C136.742 66.9487 141.684 64.5191 143.995 61.8762C146.306 59.2333 147.076 58.0955 147.384 57.7281C147.692 57.3607 147.929 57.1118 148.095 57.3133C148.227 57.6037 148.252 57.9308 148.166 58.2377C147.704 60.691 144.694 65.0287 145.275 66.1072C147.005 69.3664 146.685 69.6627 147.278 69.5679C154.875 69.1294 161.452 62.8125 162.009 60.9755V60.9992ZM161.191 25.1005C160.67 24.2235 161.417 25.2546 158.549 21.545C158.3 21.2013 158.217 21.545 158.063 21.8413C156.972 23.702 156.32 24.7687 155.989 25.3968C154.4 28.5849 154.057 27.6605 154.649 28.3242C157.02 30.9315 156.854 30.9908 157.103 30.6945C158.793 29.0926 160.178 27.1972 161.191 25.1005ZM159.532 77.8878C160.255 77.5204 160.066 77.8878 159.532 76.0982C158.91 74.0819 157.935 72.1919 156.652 70.5161C154.803 67.7309 155.858 69.3309 152.018 70.1131C151.485 70.2079 155.657 77.6863 153.926 77.9945C153.239 78.113 153.275 77.2715 152.741 75.6952C149.648 66.7591 151.414 72.4953 145.488 70.7175C145.331 70.6926 145.181 70.6305 145.053 70.5363C144.924 70.4421 144.82 70.3186 144.748 70.1759C144.676 70.034 144.638 69.8767 144.639 69.7173C144.64 69.5578 144.679 69.4009 144.753 69.2598C144.99 68.5368 145.204 69.2598 144.362 67.328C144.03 66.5695 140.641 70.1012 142.513 71.5116C144.09 72.6968 144.575 73.6805 144.623 74.5456C144.623 75.7308 143.983 76.193 144.078 77.6863C144.101 78.0937 144.221 78.4897 144.427 78.8419C144.633 79.1942 144.919 79.4927 145.263 79.7129C146.011 80.2181 146.885 80.5053 147.787 80.5426C148.214 80.5426 148.167 80.2344 148.143 79.9618C148.054 77.8151 147.601 75.6992 146.804 73.7042C146.401 72.519 147.289 72.2464 147.538 72.8153C150.643 79.8433 148.143 80.4122 150.169 80.4714C153.439 80.2904 156.632 79.4093 159.532 77.8878ZM157.636 20.4428C157.375 20.111 157.837 20.4428 154.958 17.954C154.507 17.5629 154.815 18.0606 153.772 19.8147C152.938 21.5081 151.946 23.1192 150.809 24.6264C150.525 24.9464 150.561 25.0768 150.975 25.2783C154.104 26.7834 152.848 28.9167 155.206 24.7568C156.451 22.4694 157.233 21.225 157.636 20.4428ZM153.559 51.2571C154.507 51.4586 154.744 50.4275 154.46 49.6453C154.193 48.6713 153.756 47.7523 153.168 46.9313C152.896 47.6915 152.764 48.4944 152.777 49.3016C152.824 50.5223 152.812 51.1386 153.571 51.3045L153.559 51.2571ZM153.808 17.3851C154.009 17.0177 154.14 17.0888 151.283 15.0148C149.992 14.0903 150.62 14.7896 149.209 17.5154C146.614 22.5168 146.472 21.9361 147.064 22.3865C147.657 22.8368 149.079 24.0694 149.636 24.4013C149.968 24.0102 151.141 22.1969 151.39 21.8057C152.343 20.4323 153.157 18.9673 153.82 17.4325L153.808 17.3851ZM152.113 187.065C153.678 187.065 153.452 187.693 153.381 183.012C153.381 182.277 41.0157 183.012 4.05036 182.704C0.305237 182.704 1.26522 181.768 1.33633 186.662C1.36003 187.468 138.116 186.781 152.113 187.065ZM152.516 181.139C153.192 181.139 152.646 180.831 148.297 174.1C137.121 156.82 138.033 157.875 137.429 157.839C136.824 157.803 136.244 157.14 135.983 156.571C135.604 155.824 135.817 156.452 128.564 156.192C127.651 156.002 126.952 156.322 124.925 156.986C122.342 157.827 121.37 157.235 121.607 157.969C121.725 158.361 125.731 168.743 126.668 172.191C126.684 173.33 126.415 174.455 125.885 175.462C124.048 178.662 127.829 178.046 62.5975 177.537C47.937 177.418 48.1504 177.868 46.7756 175.64C29.9344 148.381 32.8973 151.202 30.0884 151.226C30.0884 151.226 17.7746 151.226 14.5391 151.072C13.7687 151.072 14.4206 150.325 7.83104 166.017C1.02819 182.265 1.40744 181.199 1.90521 181.246C2.24891 181.305 152.066 181.139 152.516 181.139ZM147.112 19.4354C150.525 12.7985 149.921 14.5762 147.894 13.0474C147.411 12.7211 146.899 12.4394 146.365 12.2059C146.033 12.0518 145.915 12.0992 145.772 12.4192C141.755 21.6754 141.577 20.0399 145.488 21.6754C145.784 21.7939 146.033 21.5332 147.112 19.4354ZM147.681 36.6914C147.764 36.407 147.882 36.3833 145.488 37.1418C142.347 38.1373 141.601 38.161 142.015 38.9551C142.43 39.7492 144.741 38.7299 144.741 40.3654C144.728 40.5212 144.745 40.6781 144.792 40.8272C144.839 40.9763 144.915 41.1146 145.016 41.2341C145.117 41.3537 145.24 41.4521 145.379 41.5237C145.518 41.5953 145.67 41.6387 145.826 41.6513C145.981 41.6647 146.138 41.6472 146.287 41.5999C146.436 41.5526 146.574 41.4764 146.694 41.3757C146.813 41.275 146.911 41.1517 146.983 41.0129C147.055 40.8741 147.099 40.7226 147.112 40.5669C147.171 39.2597 147.361 37.9607 147.681 36.6914ZM141.755 19.4591C142.122 17.1955 145.476 11.9452 144.801 11.7555C143.924 11.5067 143.615 11.4 141.838 10.8548C140.961 10.7956 142.49 10.7126 138.282 18.4399C138.152 18.6888 137.962 18.5821 139.538 19.1273C141.743 19.9569 141.624 19.9569 141.719 19.4591H141.755ZM142.075 160.186C143.26 157.448 143.971 157.211 143.26 157.246C139.527 157.851 139.325 157.721 139.704 158.242C142.134 162.177 141.482 161.406 142.039 160.186H142.075ZM143.141 140.939C142.571 139.937 142.171 138.848 141.956 137.715C141.648 135.594 141.186 135.499 140.451 133.389C139.562 130.877 140.013 131.019 139.266 133.389C135.71 145.596 134.099 143.83 139.811 142.408C140.946 142.005 142.047 141.515 143.106 140.939H143.141ZM141.956 195.006C142.312 195.006 142.11 194.852 141.127 188.772C141.044 188.239 17.3242 188.464 13.6146 188.404C13.1761 188.404 13.2472 188.404 12.8561 191.332C12.2991 195.527 12.2991 195.148 12.7495 195.148C66.6153 195.018 61.9338 195.361 141.909 195.006H141.956ZM140.498 10.9378C140.676 10.4756 140.38 10.7126 137.903 10.2741C136.955 10.0963 136.718 10.5585 136.374 11.4593C133.245 18.7954 133.636 17.6577 136.813 18.4043C137.251 18.511 137.085 18.4043 138.721 15.2518C139.498 13.897 140.096 12.4469 140.498 10.9378ZM140.096 37.604C139.574 37.4262 138.91 37.604 138.116 36.8929C136.22 35.1744 135.651 32.1522 137.82 30.7538C138.436 30.3626 137.287 30.493 136.635 28.8575C135.9 26.9138 136.279 26.7242 135.983 26.819C134.596 27.2457 133.613 26.1316 133.399 26.5227C131.325 29.5212 129.109 27.0679 128.836 27.6368C128.185 28.9997 127.651 30.2086 126.395 30.0071C124.842 29.7464 124.902 29.4145 124.7 30.0071C124.538 30.5633 124.189 31.0464 123.712 31.3747C123.234 31.703 122.658 31.8563 122.081 31.8085C118.928 31.2278 118.905 30.1138 118.526 30.6234C117.625 31.8085 116.392 32.0456 116.641 39.6543C116.641 40.3417 117.376 39.5832 117.968 40.9817C118.04 41.1714 118.075 41.681 117.66 41.7165C117.246 41.7521 117.34 41.1832 116.914 41.0173C116.724 40.9462 116.807 41.2425 116.843 41.5506C116.928 42.0958 117.067 42.6327 117.257 43.1506C117.506 43.8854 118.917 43.1506 120.6 44.9283C120.733 45.0599 120.876 45.1831 121.026 45.2957C122.211 44.5017 122.211 45.438 122.081 44.2646C121.928 43.1204 122.164 41.9581 122.749 40.9634C123.335 39.9687 124.237 39.199 125.312 38.7773C126.387 38.3571 127.572 38.3098 128.677 38.6428C129.783 38.9759 130.744 39.6701 131.408 40.6143C131.539 40.804 131.503 40.8395 132.309 40.484C132.676 40.3417 139.479 38.0425 140.096 37.604ZM136.848 154.722C136.848 154.615 136.848 155.255 136.647 151.676C136.734 150.087 136.509 148.497 135.983 146.995C135.9 146.639 135.817 146.509 133.613 146.995C131.802 147.229 129.974 147.316 128.149 147.256C124.155 147.35 125.577 146.864 123.515 146.77C118.348 146.509 115.646 143.819 111 143.593C104.576 143.273 103.142 145.11 101.637 146.141C100.387 146.83 99.1976 147.623 98.0814 148.512C96.967 149.624 95.7166 150.592 94.36 151.392C93.4474 151.961 95.3674 153.181 99.2547 149.59C100.772 148.18 101.53 148.204 102.407 147.41C104.256 145.739 106.271 145.561 108.831 145.312C109.175 145.312 109.589 145.644 109.02 145.904C107.266 146.699 105.181 146.556 103.853 147.777C101.483 149.981 99.9303 149.78 99.7288 151.427C99.8034 151.439 99.8793 151.439 99.954 151.427C104.185 149.223 103.178 149.282 108.819 149.128C110.217 149.128 109.115 150.088 107.432 150.23C101.601 150.728 105.666 150.645 95.5807 154.497C94.0281 155.089 94.6918 157.59 104.718 152.127C105.916 151.698 107.213 151.624 108.452 151.913C111.794 152.292 111.332 152.067 111.616 152.21C112.398 152.636 110.68 153.11 109.803 153.11C105.868 153.11 105.939 152.778 104.932 153.347C100.452 155.943 97.8207 156.429 99.1362 156.784C100.867 157.258 105.856 154.532 107.338 154.663C108.761 154.745 110.164 155.044 111.497 155.552C112.75 155.725 114.014 155.816 115.278 155.824C117.242 156.093 119.222 156.224 121.204 156.215C122.825 156.212 124.432 155.911 125.945 155.327C128.493 154.651 128.113 155.267 131.764 155.042C136.753 154.722 136.801 155.232 136.848 154.722ZM135.829 10.4045C135.983 10.0845 136.102 10.0489 132.795 9.56299C132.214 9.42077 131.906 9.69336 131.681 10.1911C131.164 11.1867 130.728 12.2201 130.377 13.2844C130.164 14.0548 131.906 14.5525 131.562 16.9466C131.562 17.3732 131.835 17.2547 132.985 17.4799C133.542 17.5866 132.747 17.3377 133.684 15.1688L135.829 10.4045ZM127.236 47.8083C133.577 47.6542 132.167 37.367 125.506 39.8795C124.993 40.063 124.525 40.3548 124.134 40.7352C123.744 41.1156 123.439 41.5756 123.242 42.0839C123.045 42.5921 122.96 43.1368 122.993 43.6809C123.026 44.225 123.175 44.7556 123.432 45.2365C123.759 45.9803 124.29 46.6165 124.963 47.0715C125.636 47.5266 126.424 47.782 127.236 47.8083ZM130.851 9.76447C130.188 9.53928 131.195 9.6578 127.936 9.85928C126.217 9.96594 125.956 12.7274 126.869 12.6089C129.891 12.1822 128.896 14.7185 130.851 9.76447ZM125.162 174.502C125.174 174.428 125.174 174.352 125.162 174.277C121.24 174.965 131.539 175.214 96.4222 175.095C47.1193 174.917 50.8288 174.822 50.7459 175.605C50.6392 176.565 48.5889 176.174 69.0211 176.268C127.023 176.541 123.93 177.584 125.162 174.526V174.502ZM121.607 49.6808C121.939 48.709 121.145 47.4764 120.588 46.5402C119.961 45.5848 118.988 44.9095 117.874 44.6557C118.007 45.358 118.242 46.0369 118.573 46.6705C118.763 47.0735 118.798 46.9787 119.758 46.5165C120.137 46.5165 120.943 47.2631 121.05 48.1638C121.065 48.2568 121.06 48.3519 121.035 48.4428C121.01 48.5336 120.966 48.6178 120.905 48.6897C120.844 48.7616 120.768 48.8193 120.683 48.8588C120.597 48.8984 120.504 48.9189 120.41 48.9188C120.284 48.9196 120.16 48.8837 120.054 48.8157C119.675 48.5668 119.912 48.5905 119.557 48.5668V48.7564C121.192 50.7712 120.765 52.1341 121.595 49.7045L121.607 49.6808ZM120.291 173.72C127.651 173.72 125.53 172.393 120.291 157.898C120.125 157.46 120.197 157.626 117.364 157.436C116.144 157.214 114.907 157.095 113.666 157.081C113.169 157.081 113.275 156.784 114.318 160.778C116.807 170.26 117.328 170.805 115.373 170.793C113.939 170.793 102.075 170.686 98.6266 170.556C97.4414 170.556 97.9036 170.651 96.7659 160.257C96.3511 156.512 96.4459 156.512 96.114 156.618C94.9289 156.95 94.1111 155.884 94.2415 156.725C94.3576 157.581 94.4098 158.445 94.3955 159.309C94.3955 159.901 94.5378 160.494 94.5852 161.098C95.5214 172.049 96.0903 170.757 91.9185 170.805C55.9725 171.267 57.6436 171.303 58.2006 170.046C60.7605 164.322 66.2123 153.205 66.4256 152.778C69.7085 146.13 68.6182 146.853 71.6285 146.853H92.523C93.7081 146.853 93.4593 147.445 93.6015 150.278C93.6015 150.704 93.8267 150.278 95.2963 149.46C95.8414 149.152 95.5214 148.761 95.5096 147.741C95.5096 146.947 96.197 146.924 97.2755 146.841C98.9214 146.634 100.443 145.859 101.578 144.648C101.435 144.648 67.5871 144.53 67.2789 145.063C64.8375 149.294 50.7933 173.507 50.7814 173.507C50.5681 173.851 120.256 173.744 120.28 173.744L120.291 173.72ZM119.237 52.3593C121.038 51.9445 120.422 52.5134 118.502 48.8038C117.992 47.8201 117.731 48.1638 117.317 47.8557C116.677 47.3935 117.542 47.0972 117.4 46.6705C116.795 45.1298 116.76 44.5491 116.38 44.8454C114.046 46.6824 115.266 51.0319 119.237 52.3593ZM112.896 169.691C115.764 169.691 115.622 169.774 115.491 169.311C112.031 156.618 112.54 156.962 111.77 156.962C111.26 156.962 109.826 156.441 108.404 156.097C106.65 155.694 106.52 156.18 103.901 156.962C103.569 157.069 100.582 157.886 100.227 157.934C96.0666 158.455 97.0977 151.439 98.5673 169.252C98.6029 169.714 97.7851 169.631 112.896 169.714V169.691ZM110.229 82.0122C111.9 81.4433 111.142 79.6418 110.775 77.9945C109.838 74.036 109.98 74.0716 109.352 74.1782C103.142 75.2804 104.517 74.996 89.2045 77.6508C88.4342 77.7811 89.003 77.9115 89.5008 80.4122C89.6786 81.3011 90.4489 81.4077 90.9111 81.5974C94.7748 83.6358 94.4666 84.3351 96.6118 84.0862C98.3777 83.9558 107.302 82.9958 110.229 82.0122ZM108.38 70.919C108.902 70.8242 108.878 70.6583 108.807 70.4212C108.594 69.7813 108.12 69.2361 107.468 69.4613C106.283 69.639 91.3615 72.0449 89.3704 72.519C88.7779 72.6612 87.9719 72.8034 87.7823 73.3486C87.6993 73.6431 87.6993 73.9548 87.7823 74.2493C87.8653 74.4864 88.0667 74.4745 88.2445 74.4271C102.431 72.1042 106.982 71.1679 108.38 70.919ZM103.877 111.215C106.958 108.643 107.717 110.326 105.062 107.268C101.755 103.393 99.4088 101.579 99.7169 98.1423C100.404 90.5691 97.9273 90.6639 97.6429 85.1884C97.6429 84.9632 97.4651 84.9751 97.2518 85.0225C96.28 85.224 96.8251 85.6625 96.7422 86.0417C96.6592 86.421 96.6711 87.2269 96.0903 87.5113C95.7585 87.701 95.7585 87.7365 96.0903 88.0328C97.6547 89.4669 97.0148 91.8965 97.631 92.5246C97.9175 93.7205 97.9175 94.9671 97.631 96.163C97.6191 96.9631 97.7188 97.7609 97.9273 98.5334C98.1525 100.062 96.6118 99.8608 97.1333 100.299C97.9984 101.034 99.0651 103.167 98.3184 103.44C97.2399 103.831 97.7614 101.769 95.4977 100.572C94.9779 100.225 94.4936 99.8284 94.0518 99.3867C92.4993 98.0475 92.6178 101.876 91.4208 101.319C91.1837 101.212 91.2904 100.335 91.2904 100.311C90.6267 100.43 90.2475 100.56 90.1052 100.181C89.7497 99.2563 91.8237 98.9126 92.7245 97.9052C92.9022 97.7156 93.7555 97.5615 94.04 96.4949C94.0786 96.3908 94.1509 96.3026 94.2455 96.2443C94.34 96.1861 94.4513 96.1611 94.5616 96.1733C94.672 96.1856 94.7751 96.2344 94.8545 96.312C94.9339 96.3896 94.9851 96.4915 95 96.6016C95.1422 97.3838 94.6681 96.7793 95.1659 98.3675C95.2125 98.5098 95.2896 98.6402 95.3918 98.7497C95.4939 98.8592 95.6187 98.9452 95.7574 99.0016C95.8962 99.058 96.0455 99.0835 96.1951 99.0763C96.3447 99.0691 96.4909 99.0295 96.6236 98.96C97.0503 98.5926 96.6948 98.1067 96.434 96.2342C96.3392 95.4994 95.877 95.3927 94.1467 94.1483C93.4711 93.6623 93.0681 94.1483 91.2074 95.4875C90.1189 96.2936 88.9831 97.0337 87.806 97.7038C87.4832 98.019 87.2512 98.4154 87.1344 98.8512C87.0176 99.2871 87.0203 99.7463 87.1423 100.181C87.7823 102.764 90.2712 103.452 91.4919 103.997C96.5051 106.261 94.2178 106.225 99.9895 112.957C100.499 113.585 103.284 111.689 103.877 111.215ZM93.4237 93.0935C95.2726 92.7261 96.837 94.9897 96.8014 94.3616C96.8533 94.0339 96.8358 93.6989 96.7501 93.3784C96.6643 93.0579 96.5122 92.7589 96.3036 92.5009C92.1082 88.4239 92.6178 90.3083 89.4771 92.5009C85.9216 95.0016 85.4475 94.966 85.4594 95.7601C85.4103 96.1235 85.4578 96.4934 85.5972 96.8325C85.7366 97.1717 85.963 97.4681 86.2534 97.6919C86.7631 98.0238 86.1349 97.0164 88.1616 96.2816C90.7689 95.3097 91.1956 93.5201 93.4237 93.0935ZM96.0074 90.7231C96.1496 90.8298 96.2088 90.652 96.1733 90.5572C95.3792 88.0684 94.7985 88.8506 93.2815 87.7721C92.0963 86.9069 90.9111 86.2314 89.9156 87.3217C88.9201 88.4121 88.7304 88.1395 87.5453 89.372C85.6135 91.375 85.0446 90.2135 83.729 93.2001C83.895 93.7927 83.729 93.4964 84.5113 94.7053C84.5113 94.7053 89.5838 91.1498 89.9393 90.8298C90.2949 90.5098 91.3378 89.372 91.9778 89.2298C93.9333 88.7795 94.7392 89.6683 96.0074 90.6639V90.7231ZM95.9244 153.158C95.9244 152.743 95.6281 152.909 94.597 153.158C93.5659 153.407 93.8267 153.087 93.8978 154.153C93.8978 154.438 93.8978 154.402 95.794 153.407C95.8726 153.322 95.9188 153.213 95.9244 153.098V153.158ZM95.7822 86.0536C95.9837 85.6625 95.6044 85.5795 94.597 85.0106C90.3897 82.5573 90.2593 82.4981 89.2401 82.2255C88.6037 82.0749 87.9352 82.1426 87.3419 82.4177C86.7486 82.6928 86.2651 83.1594 85.969 83.7425C85.969 83.7425 83.9424 89.8817 84.049 90.5809C89.406 86.7765 87.7823 87.4047 86.8816 86.8595C86.2297 86.4565 87.7705 86.3736 88.5171 86.1839C89.2638 85.9943 87.4031 84.5366 88.0312 84.1692C88.2208 84.0507 88.5527 84.3588 89.5126 85.2714C90.2712 85.9943 90.8874 85.5795 91.7408 85.7217C92.5455 85.9872 93.3194 86.338 94.0518 86.7647C94.9289 86.8713 95.7348 86.8476 95.7822 85.9943V86.0536ZM93.8148 169.762C94.5259 169.762 94.3481 169.833 94.0518 166.941C94.0518 166.289 94.3481 166.538 90.2593 166.491C89.3941 166.491 89.6667 166.254 89.6549 169.56C89.643 169.845 89.5956 169.703 93.8148 169.703V169.762ZM93.5659 165.377C94.1229 165.377 93.8741 165.294 93.6963 162.912C93.6963 162.343 94.0281 162.473 90.0223 162.414C89.5126 162.414 89.4889 162.556 89.4889 162.757C89.5838 165.946 88.6475 165.377 93.5659 165.317V165.377ZM93.2222 161.359C93.7437 161.359 93.5185 161.122 93.3289 158.858C93.3289 158.491 93.4948 158.538 89.7734 158.515C89.3112 158.515 89.3349 158.313 89.4415 160.885C89.4297 161.418 89.1097 161.217 93.2222 161.3V161.359ZM92.8667 157.472C93.2815 157.472 93.1985 157.472 93.0207 154.888C93.0207 154.426 92.9259 154.497 89.4652 154.544C89.0623 154.544 89.2638 154.426 89.3112 157.092C89.2875 157.436 89.2282 157.282 92.8667 157.436V157.472ZM92.4519 153.371C92.7482 153.371 92.9733 153.371 92.6415 151.072C92.5348 150.29 92.997 150.657 89.2282 150.704C88.9556 150.704 89.0267 150.704 89.1097 152.98C89.1452 153.537 88.8253 153.395 92.4519 153.371ZM91.4089 149.602C92.5941 149.602 92.44 149.863 92.4045 148.571C92.4045 147.824 92.6059 148.002 89.2045 148.014C88.8964 148.014 88.9675 148.18 88.9912 149.365C89.003 149.709 89.1808 149.602 91.4208 149.602H91.4089ZM83.9661 169.75C89.6075 169.62 88.7067 170.188 88.7067 168.494C88.7067 165.957 89.6193 166.372 84.3927 166.432C83.8357 166.432 83.9779 166.337 83.8594 168.529C83.7409 169.655 83.5987 169.774 83.9779 169.762L83.9661 169.75ZM88.1497 165.317C88.7304 165.317 88.529 165.057 88.4816 162.592C88.4816 162.07 84.9261 162.26 84.3927 162.283C83.8594 162.307 84.1557 162.426 84.0253 164.855C83.9898 165.59 83.8594 165.211 88.1616 165.329L88.1497 165.317ZM87.9719 161.252C88.4579 161.252 88.4697 161.323 88.363 158.704C88.363 158.278 88.2919 158.372 84.9024 158.313C84.3453 158.313 84.3809 158.135 84.2624 160.743C84.2505 161.276 83.8476 161.181 87.9838 161.264L87.9719 161.252ZM88.043 157.258C88.3749 157.258 88.3156 157.258 88.2564 154.888C88.2564 154.248 88.529 154.438 84.9853 154.39C84.4757 154.39 84.6416 154.532 84.4757 156.844C84.4757 157.282 84.6535 157.175 86.4194 157.175C86.4312 157.294 86.2534 157.282 88.0549 157.27L88.043 157.258ZM87.8534 153.371C88.2682 153.371 88.1379 153.252 88.126 151.001C88.126 150.574 88.043 150.657 85.092 150.704C84.7838 150.704 84.8431 151.013 84.7127 153.075C84.689 153.549 84.9735 153.312 87.8653 153.383L87.8534 153.371ZM86.7986 149.602C88.3749 149.507 87.9838 149.78 87.9838 148.227C87.9838 147.896 87.9245 147.907 85.3883 147.99C84.8549 147.99 84.9735 147.99 84.9261 149.176C84.9261 149.59 84.7838 149.733 86.8105 149.614L86.7986 149.602ZM83.2431 149.602C83.8002 149.602 84.1913 149.697 84.1439 148.654C84.1439 147.824 84.1439 148.038 83.575 148.038C80.6121 148.038 81.0861 147.528 80.7543 149.223C80.6002 149.851 80.778 149.661 83.2076 149.602H83.2431ZM83.9068 151.89C83.9068 150.408 84.6416 150.704 80.7898 150.704C80.5291 150.704 80.4343 150.704 80.1143 152.909C80.0432 153.43 79.8654 153.335 83.1483 153.347C83.9068 153.371 83.812 153.407 83.8713 151.89H83.9068ZM83.6698 154.651C83.6698 154.426 83.4446 154.461 80.2091 154.39C79.7824 154.39 79.8417 154.627 79.5691 156.192C79.3558 157.377 78.8343 157.152 83.255 157.175C83.6105 157.175 83.5394 157.104 83.6342 154.651H83.6698ZM83.4209 158.621C83.4209 158.147 83.4209 158.289 79.6165 158.206C79.2254 158.206 79.1306 158.337 79.095 158.538C78.6565 161.098 78.538 161.122 78.941 161.11C79.9484 161.11 81.3824 161.11 82.9231 161.169C83.4446 161.193 83.2194 160.992 83.4209 158.621ZM83.1246 162.497C83.1246 162.129 83.255 162.331 78.6921 162.212C78.3721 162.212 78.5025 161.975 77.9454 165.045C77.8625 165.472 77.9454 165.306 82.6861 165.329C83.1365 165.329 82.9705 165.483 83.1246 162.497ZM82.7454 169.466C82.8639 166.538 83.0535 166.42 82.5676 166.443C76.8906 166.74 77.8269 165.258 77.1869 169.418C77.104 169.94 77.0803 169.833 79.9128 169.833C79.901 169.655 82.7098 170.082 82.7454 169.466ZM79.9721 148.322C80.055 147.848 79.7943 148.038 77.4832 147.967C77.1277 147.967 77.1632 148.026 76.7958 149.353C76.6655 149.827 76.7129 149.638 79.4387 149.638C79.901 149.638 79.8061 149.211 79.9721 148.322ZM79.415 151.143C79.4862 150.704 79.415 150.775 76.5706 150.787C76.2269 150.787 76.2981 151.012 75.6699 153.087C75.5751 153.407 75.5633 153.288 78.7514 153.347C79.1069 153.347 79.0595 153.383 79.415 151.143ZM78.7395 154.9C78.8699 154.224 78.941 154.39 75.5751 154.355C75.1603 154.355 75.3144 154.355 74.6033 156.725C74.4018 157.377 76.1914 156.926 77.9691 157.092C78.538 157.104 78.3721 157.081 78.7869 154.9H78.7395ZM78.2299 158.361C78.2299 158.112 78.3247 158.218 74.5559 158.112C74.1766 158.112 74.2596 158.112 73.5485 160.648C73.4063 161.146 73.264 161.051 75.6344 161.051C76.2578 161.086 76.8835 161.086 77.5069 161.051C77.6965 161.063 77.7084 160.992 78.2299 158.361ZM77.0447 165.092C77.7084 161.335 78.4906 162.295 73.4892 162.129C72.9796 162.129 73.0507 162.236 72.3041 164.997C72.1974 165.365 71.9248 165.424 75.1721 165.365C76.8788 165.341 76.8906 165.412 76.9499 165.092H77.0447ZM76.3573 168.885C76.9262 165.803 77.7795 166.443 72.6952 166.514C72.2685 166.514 71.8655 166.313 71.7115 166.858C70.6804 170.627 69.673 169.951 75.5633 169.868C76.2388 169.833 76.0966 169.821 76.2625 168.885H76.3573ZM76.1558 148.666C76.3336 147.907 76.7129 147.943 73.7855 147.943C73.264 147.943 73.3114 148.097 72.8137 149.448C72.6952 149.768 72.707 149.768 75.3855 149.721C75.6699 149.721 75.8595 149.744 76.061 148.666H76.1558ZM75.2551 151.712C75.6462 150.337 75.6225 150.918 72.8848 150.764C72.1974 150.764 72.4463 150.681 71.5337 152.956C71.3441 153.418 71.5337 153.181 74.4136 153.324C74.7573 153.359 74.7929 152.956 75.1603 151.712H75.2551ZM74.3425 154.71C74.5203 154.082 73.9514 154.473 71.2967 154.343C70.7396 154.343 70.8463 154.663 70.1115 156.606C69.9337 157.045 70.0522 156.867 73.2877 157.009C73.6788 157.033 73.6314 156.808 74.2477 154.71H74.3425ZM73.2522 158.266C73.3589 157.91 73.0626 157.981 69.8152 157.969C69.436 157.969 69.4597 158.325 68.5471 160.683C68.4049 161.051 68.5471 160.968 70.4433 160.968C70.9601 161.014 71.4792 161.014 71.9959 160.968C72.4818 160.992 72.3041 161.146 73.1574 158.289L73.2522 158.266ZM71.83 149.472C72.3633 148.05 72.47 147.919 72.1144 147.919C69.8626 147.919 69.7441 147.801 69.5663 148.216C68.796 149.946 68.6182 149.792 70.2182 149.709C71.4863 149.733 71.6167 149.815 71.7352 149.495L71.83 149.472ZM72.0433 162.295C72.1263 162.011 72.3633 162.094 68.4878 162.011C67.836 162.011 68.073 161.726 66.8641 164.962C66.6271 165.578 66.5678 165.365 70.55 165.353C71.2137 165.377 70.9174 165.637 71.9485 162.319L72.0433 162.295ZM71.1426 151.19C71.3796 150.562 71.273 150.894 68.7723 150.787C68.2508 150.787 68.3337 150.965 67.3145 152.992C67.0893 153.466 68.6182 153.134 69.8863 153.241C70.3722 153.312 70.3604 153.134 71.0478 151.214L71.1426 151.19ZM70.5737 166.917C70.7515 166.301 70.7041 166.526 68.0256 166.526C66.3427 166.526 66.3545 166.277 66.1293 166.87C64.6716 170.603 64.0434 169.975 68.7841 169.975C68.7841 169.845 68.9856 169.975 69.2819 169.975C69.8626 169.845 69.7322 169.88 70.5737 166.917ZM69.6493 154.9C69.9456 154.165 69.7204 154.39 68.7011 154.355C67.1723 154.355 66.7456 154.212 66.6153 154.449C64.8257 157.78 65.0627 156.678 68.393 156.938C69.033 156.95 68.9145 156.701 69.6493 154.864V154.9ZM68.3693 158.278C68.5234 157.839 68.0849 157.969 67.4686 157.958C64.9086 157.958 64.956 157.827 64.8257 158.112C63.119 161.798 62.5857 160.873 67.0064 160.98C67.4686 160.992 67.3975 160.849 68.3693 158.242V158.278ZM66.793 162.366C66.959 161.963 66.9945 162.035 63.1664 161.999C62.8583 161.999 62.9175 162.106 61.4124 165.187C61.1635 165.709 61.7798 165.353 65.1931 165.472C65.7856 165.46 65.6316 165.282 66.793 162.331V162.366ZM66.0345 144.85C66.6627 143.795 67.1012 144.565 56.6362 125.531C54.4199 121.502 51.7296 116.88 48.4467 110.812C39.949 95.0964 38.5505 92.3231 37.2587 92.335C35.3506 92.7024 38.0409 91.4698 23.7834 98.8889C13.0102 104.495 11.9317 104.815 11.1732 105.573C7.86659 108.572 12.7495 110.669 49.4422 172.417C50.1177 173.566 55.5221 162.39 66.0345 144.814V144.85ZM65.0864 166.882C65.3827 166.123 63.3442 166.68 61.1753 166.526C60.6657 166.526 60.7013 166.645 59.3028 169.643C59.0183 170.26 59.3976 169.963 63.5457 169.999C64.0079 169.963 63.8894 169.987 65.0864 166.846V166.882ZM48.2807 175.451C48.2807 176.482 49.94 176.636 49.9163 175.451C49.9038 175.243 49.8187 175.046 49.6757 174.894C49.5327 174.742 49.341 174.646 49.1341 174.621C48.9269 174.648 48.7333 174.739 48.5803 174.881C48.4274 175.024 48.3226 175.21 48.2807 175.415V175.451ZM48.7904 173.72C49.5726 173.424 9.3599 111.001 9.07546 107.92C9.04595 107.888 9.00942 107.864 8.9688 107.849C6.95402 109.591 8.38807 110.527 24.8382 137.383C51.6229 181.068 46.4082 174.609 48.7904 173.685V173.72Z" fill="#1B1B1D"/>
    <path d="M199.84 150.715C200.088 151.9 191.792 153.654 188.059 153.441C187.111 153.441 181.493 154.282 183.117 153.548C183.105 153.491 183.081 153.439 183.046 153.393C182.619 153.002 186.127 152.351 186.601 152.279C187.224 152.22 187.851 152.22 188.474 152.279C194.257 152.374 199.555 149.352 199.84 150.715Z" fill="#1B1B1D"/>
    <path d="M189.102 199.722C190.358 203.705 190.655 204.25 189.6 204.463C189.538 204.486 189.471 204.496 189.405 204.493C189.339 204.489 189.274 204.472 189.215 204.443C189.155 204.415 189.102 204.374 189.058 204.325C189.014 204.275 188.981 204.218 188.96 204.155C187.87 201.121 183.733 186.437 178.803 180.037C169.476 167.901 162.46 170.224 161.986 168.256C161.76 167.344 162.827 167.723 163.728 167.984C166.219 168.543 168.615 169.465 170.839 170.721C179.905 176.209 178.886 180.203 179.265 176.434C179.467 174.526 182.157 166.502 183.686 167.273C184.93 167.913 180.64 171.302 180.237 178.769C180.154 181.139 182.987 180.487 189.102 199.722Z" fill="#1B1B1D"/>
    <path d="M152.895 35.0449C154.258 34.8908 154.638 36.0878 154.306 36.3367C153.5 36.9293 152.481 35.4123 151.71 36.9886C151.284 37.8419 150.869 39.833 152.101 39.7856C153.974 39.7856 155.467 42.1559 152.955 43.6492C152.808 43.7495 152.628 43.7878 152.453 43.7559C152.323 43.732 152.203 43.6699 152.108 43.5777C152.013 43.4854 151.948 43.367 151.92 43.2375C151.893 43.108 151.904 42.9733 151.953 42.8503C152.002 42.7274 152.087 42.6218 152.196 42.547C152.682 42.2151 153.263 41.9188 152.907 41.4566C152.066 40.3544 150.383 41.3381 150.217 39.5604C150.086 37.4745 150.75 34.8908 152.895 35.0449Z" fill="#1B1B1D"/>
    <path d="M134.572 52.1466C135.437 52.1466 137.155 52.7274 136.942 53.6755C136.847 54.2918 136.136 53.5333 136.172 54.351C136.278 57.2428 136.622 58.7954 135.378 60.4783C134.133 62.1613 131.561 62.6235 130.957 61.8176C130.353 61.0117 131.502 61.1895 131.313 60.7865C129.665 57.314 129.298 58.0962 128.124 57.8473C128.302 57.5984 127.686 57.2547 128.397 57.0769C130.702 56.803 132.819 55.6685 134.323 53.9007C134.868 53.2133 134.939 53.2251 134.524 53.0237C134.11 52.8222 134.05 52.1348 134.572 52.1466ZM132.96 60.9287C134.572 60.0635 135.84 59.4354 135.33 54.8962C135.579 53.9244 134.809 54.8962 134.513 55.2518C133.515 56.3818 132.216 57.204 130.767 57.6221C130.329 57.7999 130.767 57.9658 131.55 59.2102C132.676 61.0472 132.367 61.2487 132.96 60.9287Z" fill="#1B1B1D"/>
    <path d="M128.22 35.3643C126.561 35.5066 123.717 34.6295 122.152 37.1184C121.548 38.0784 121.05 37.9243 120.73 37.5213C120.591 37.3638 120.511 37.1625 120.505 36.9525C120.505 36.6443 120.943 36.3362 121.299 35.8977C121.702 35.3722 122.226 34.9522 122.827 34.6736C123.427 34.3949 124.086 34.2659 124.748 34.2977C125.896 34.2894 127.041 34.4126 128.161 34.6651C128.564 34.748 128.73 35.3643 128.22 35.3643Z" fill="#1B1B1D"/>
    <path d="M126.822 44.3475C126.929 44.5253 127.296 45.4497 126.751 45.7934C126.206 46.1371 125.566 45.6867 125.234 45.0705C124.902 44.4542 124.642 43.6957 125.234 43.4349C125.827 43.1742 125.957 43.032 126.111 42.5461C126.206 42.2498 126.49 42.3209 126.621 42.5461C126.917 42.9727 126.621 43.3164 126.621 43.7312C126.597 43.9327 126.656 43.992 126.822 44.3475Z" fill="#1B1B1D"/>
    <path d="M87.8528 57.6683C88.718 61.9823 87.8528 63.3571 87.8528 63.5941C87.8528 63.8312 87.3906 63.8549 87.2246 64.0682C87.118 63.9734 86.8691 63.9615 87.1298 63.3334C89.5002 57.6209 80.8248 40.116 75.2782 44.6907C75.1241 44.8211 76.0841 49.4314 75.0648 53.7098C73.8797 58.4505 68.4635 55.4046 71.7819 48.2818C73.6189 44.3352 74.2234 44.9278 73.9152 44.0863C71.6397 37.7931 62.7273 33.1828 57.1214 42.6167C56.4577 43.7307 56.3155 44.2404 56.0192 44.3826C55.4622 44.667 55.237 43.9915 55.4978 43.4819C57.6666 39.4641 60.0725 36.4894 64.6354 36.2168C66.8284 36.2661 68.9566 36.9693 70.7473 38.2363C72.5379 39.5033 73.9093 41.2762 74.6856 43.3278C75.0648 44.2522 75.1241 42.8537 77.1981 42.9604C82.4129 43.2448 86.7269 51.9558 87.8528 57.6683ZM72.3034 54.7172C74.6737 57.0876 74.6737 46.6463 74.1997 45.9352C73.4886 46.5633 70.1227 52.5484 72.3034 54.7172Z" fill="#1B1B1D"/>
    <path d="M60.4529 136.755C61.318 138.687 62.4558 140.382 61.0691 140.311C59.3506 140.311 59.801 139.813 60.7373 142.527C61.0217 143.345 60.5477 143.321 59.0069 143.523C56.9448 143.795 57.8218 143.819 60.0143 145.206C60.8558 145.739 60.4647 146.58 59.884 146.628C52.6426 147.339 54.7641 146.557 57.9284 150.005C58.4499 150.586 58.284 151.191 56.7433 151.285C55.5882 151.27 54.4341 151.357 53.2944 151.546C52.3463 151.724 52.8559 151.143 53.9344 157.839C54.0648 158.633 53.413 158.953 52.8441 158.444C50.2367 156.074 48.933 154.509 48.3049 153.916C47.4397 153.099 47.6531 154.343 46.3494 157.958C46.0175 158.882 45.2472 159.001 44.939 158.1C43.3272 153.561 43.6828 155.208 43.1494 154.142C42.9361 153.715 43.4694 153.158 43.825 153.585C44.5479 154.438 45.1642 156.939 45.5316 157.709C45.9227 156.951 46.5627 154.497 46.9657 153.265C47.2857 152.281 47.5819 151.925 48.2338 152.577C49.336 153.679 52.1804 156.844 52.7374 157.152C52.7374 156.05 51.7774 152.53 51.7656 151.226C51.7656 150.871 51.896 150.776 52.4885 150.681C54.0055 150.432 56.9211 150.681 56.5181 150.231C55.8663 149.567 54.3255 148.157 53.9344 147.694C53.5433 147.232 53.5315 146.723 54.3018 146.414C55.6529 145.881 59.3388 146.035 58.6988 145.632C56.8262 144.447 55.9848 144.044 55.9966 143.665C55.9966 142.954 57.3596 143.037 59.161 142.717C59.6943 142.622 59.6825 142.717 58.6633 140.097C58.2603 139.066 59.1492 139.422 60.4054 139.457C61.0336 139.457 59.9432 137.905 59.5758 136.909C59.4336 136.518 59.3625 136.281 59.6351 136.175C59.9077 136.068 60.2514 136.293 60.4529 136.755Z" fill="#1B1B1D"/>
    <path d="M39.4744 101.223C38.4196 98.4968 37.8507 94.5147 36.7367 97.2524C35.4093 100.523 35.433 100.429 34.8641 99.6227C32.1856 95.842 32.8493 95.368 31.1901 101.258C30.3723 104.186 30.2538 104.565 30.0049 104.316C24.6717 99.9546 25.525 99.6583 25.5132 106.52C25.5132 106.947 25.5132 106.911 24.1502 106.426C18.6037 104.517 18.1414 103.735 19.7296 107.824C20.7014 110.325 20.5592 109.72 15.6526 109.116C15.0245 109.045 14.6096 109.234 15.0956 110.088C18.2007 115.492 18.1414 115.433 18.3548 115.611C18.5681 115.788 19.0659 115.611 18.9592 115.267C18.6985 114.52 19.1844 115.753 17.1696 112.079C15.5696 109.187 15.5815 110.23 20.8318 110.609C21.9221 110.692 21.0214 109.021 20.417 107.551C20.1911 107.073 20.0469 106.56 19.9903 106.034C20.2629 106.034 21.8747 106.663 22.1473 106.757C25.7739 108.026 26.3309 108.689 26.3428 107.208C26.3428 103.451 26.3428 102.289 26.6865 102.609C29.5072 104.98 30.479 106.331 30.9412 105.347C31.1783 104.837 31.7708 102.633 32.8612 98.7575C32.9049 98.6601 32.9607 98.5685 33.0271 98.485L33.2642 98.7338C36.1204 102.835 35.4567 102.609 37.3174 98.1768C37.6967 97.2761 38.23 100.44 39.5455 103.226C39.5718 103.314 39.6257 103.391 39.6994 103.446C39.7731 103.501 39.8625 103.53 39.9544 103.53C40.0463 103.53 40.1357 103.501 40.2094 103.446C40.2831 103.391 40.337 103.314 40.3633 103.226C40.5174 102.609 40.15 103.012 39.4744 101.223Z" fill="#1B1B1D"/>
</svg>
