<svg width="257" height="203" viewBox="0 0 257 203" fill="none" xmlns="http://www.w3.org/2000/svg">
    <rect width="280" height="0.00122257" transform="translate(0.0996094 202.094) rotate(-46.2)" fill="black"/>
    <path d="M153.51 222.624C153.51 222.624 151.1 238.565 150.987 239.712C150.874 240.859 162.686 240.401 171.402 240.629C180.117 240.858 186.884 240.056 201.45 240.745C216.016 241.433 223.578 239.404 226.912 239.942C229.086 240.28 231.303 240.202 233.448 239.712C233.448 239.712 229.205 217.348 229.319 215.738C229.434 214.129 176.678 190.851 168.88 195.669C161.081 200.486 153.51 222.624 153.51 222.624Z" fill="white"/>
    <path d="M68.8857 164.144C68.0838 164.947 67.0688 165.504 65.9606 165.749C65.5084 164.724 65.4729 163.563 65.8617 162.512L68.8857 164.144Z" fill="white"/>
    <path d="M64.4682 162.738V165.642H35.1301C34.4959 163.913 35.2937 162.598 36.8983 162.59C41.8732 162.547 46.6895 162.738 64.4682 162.738Z" fill="white"/>
    <path d="M19.3028 166.442C162.349 168.171 144.29 164.855 150.578 170.039C148.878 172.617 153.115 172.417 120.925 171.921C111.568 171.777 67.8454 172.356 37.7271 171.955C21.9881 171.746 20.603 172.065 18.3198 171.9C18.3248 165.52 17.9989 166.429 19.3028 166.442Z" fill="white"/>
    <path d="M120.154 57.2728C119.549 39.7681 103.174 28.2949 87.4853 30.9283C80.6218 32.1207 74.4405 35.806 70.1278 41.2768C65.815 46.7477 63.6748 53.6186 64.1178 60.5708C65.6095 81.0056 87.4574 92.3735 104.423 83.6567C89.9892 58.3193 84.6186 49.3361 84.1771 48.4761C83.0624 46.7821 81.6675 45.2902 80.0521 44.0644C79.2314 43.3655 80.2183 42.7477 81.5159 41.941C81.9129 41.6949 82.2986 41.3156 82.5307 41.5605C83.0152 42.6513 83.4313 43.7726 83.7763 44.9155C85.2008 48.1818 87.2912 50.9115 91.6509 57.2601C93.0817 59.3366 105.589 78.2518 107.984 81.7198C116.209 75.5678 120.507 67.4902 120.154 57.2728Z" fill="#C875DD"/>
    <path d="M188.102 185.295C192.104 188.314 191.675 187.904 191.653 188.24C188.384 189.324 189.634 189.52 186.162 187.597L188.102 185.295Z" fill="#AA3CC5"/>
    <path d="M205.883 170.121C206.86 172.531 204.615 173.521 203.98 171.671C204.626 171.142 205.224 170.659 205.883 170.121Z" fill="#AA3CC5"/>
    <path d="M201.622 170.672C202.4 172.067 202.778 173.716 204.762 174.224C204.008 175.023 198.76 180.686 196.79 182.897C195.987 183.799 196.039 183.505 192.268 181.121L201.622 170.672Z" fill="#AA3CC5"/>
    <path d="M200.596 169.749L190.829 180.538C189.417 179.343 187.894 178.286 186.28 177.382C186.039 177.281 185.777 177.239 185.517 177.259C185.256 177.278 185.004 177.359 184.781 177.495C184.558 177.632 184.371 177.819 184.234 178.042C184.098 178.265 184.017 178.517 183.997 178.777C183.751 181.378 185.088 182.484 186.893 184.565C183.975 187.687 185.795 186.648 182.405 183.386C177.954 179.105 177.819 176.457 174.19 175.805C172.648 175.528 170.885 176.71 171.563 178.186C171.959 179.048 171.511 178.416 170.512 177.868C166.794 175.83 164.6 178.087 165.394 179.854C165.543 180.188 165.72 180.511 165.943 180.955C165.445 180.943 164.953 181.073 164.526 181.33C164.099 181.588 163.755 181.961 163.533 182.408C158.835 179.568 153.928 177.087 148.855 174.987L167.225 149.779C179.056 155.175 190.249 161.873 200.596 169.749Z" fill="#AA3CC5"/>
    <path d="M211.576 179.05C213.362 183.286 215.635 189.634 214.854 194.167C214.738 194.826 211.695 196.119 210.922 196.313C210.148 196.507 210.655 196.575 207.087 198.152C206.162 192.17 206.98 195.077 204.06 185.169C203.94 184.762 203.864 184.699 200.963 180.248C202.485 178.343 204.27 176.664 206.265 175.263C207.695 174.145 210.941 177.54 211.576 179.05ZM211.685 192.543C211.66 192.163 211.486 191.809 211.201 191.557C210.916 191.306 210.543 191.177 210.163 191.2C209.975 191.211 209.791 191.26 209.622 191.343C209.453 191.426 209.301 191.541 209.177 191.683C209.052 191.824 208.956 191.988 208.895 192.167C208.834 192.345 208.809 192.534 208.821 192.722C208.822 192.917 208.863 193.11 208.942 193.289C209.02 193.468 209.134 193.629 209.277 193.763C209.42 193.896 209.588 193.999 209.772 194.065C209.956 194.131 210.151 194.158 210.346 194.146C210.541 194.134 210.732 194.082 210.906 193.994C211.08 193.905 211.235 193.782 211.36 193.632C211.485 193.482 211.578 193.308 211.634 193.121C211.689 192.934 211.706 192.737 211.683 192.543H211.685Z" fill="white"/>
    <path d="M116.72 96.1956C113.022 94.5466 112.625 94.7204 111.809 93.405C111.536 92.9661 90.5885 58.0278 90.5695 57.9961C90.2373 57.4398 89.9371 56.8651 89.6702 56.2748C89.6106 56.1035 89.603 56.03 89.66 55.9983C89.9137 55.8613 89.3518 54.7818 100.533 72.5186C107.037 82.8274 116.804 96.0434 116.72 96.1956Z" fill="white"/>
    <path d="M125.315 108.956C125.918 109.733 125.896 110.297 125.084 110.81C121.913 112.807 121.603 111.795 121.214 110.623C121.445 110.331 121.584 109.978 121.614 109.607C121.644 109.236 121.564 108.865 121.384 108.539C120.75 107.378 118.419 107.352 118.696 106.332C119.011 105.179 118.174 104.574 117.134 103.961C118.448 102.406 117.869 101.474 116.947 100.317C119.588 99.7792 116.91 100.464 122.215 104.915C122.734 105.35 123.39 106.474 125.315 108.956Z" fill="white"/>
    <path d="M138.432 115.832C141.309 118.284 140.805 118.71 137.686 122.774C137.255 123.336 134.303 126.473 133.981 126.802C130.531 130.319 130.163 130.775 128.748 131.314C124.416 132.963 123.801 133.13 122.801 132.25C120.283 130.03 119.846 127.752 118.345 126.242C117.977 125.917 117.729 125.478 117.64 124.995C117.551 124.513 117.626 124.014 117.853 123.579C118.471 122.128 122.073 115.714 122.612 116.657C123.305 117.872 122.985 116.875 120.915 120.002C120.013 121.363 118.424 123.702 119.494 124.822C119.753 125.142 120.107 125.371 120.505 125.477C120.903 125.583 121.324 125.559 121.708 125.409C122.551 125.114 123.314 124.628 123.939 123.99C125.555 122.021 126.656 122.376 129.231 119.743C133.464 115.416 134.695 113.965 134.383 111.861C134.204 110.654 133.375 110.155 131.711 110.794L131.191 109.843C132.885 108.991 134.823 109.152 135.448 111.365C136.272 112.96 137.274 114.46 138.432 115.832ZM124.86 130.391C125.058 130.386 125.253 130.338 125.43 130.25C125.608 130.162 125.765 130.037 125.89 129.883C126.015 129.729 126.105 129.55 126.154 129.358C126.203 129.166 126.211 128.966 126.175 128.771C126.139 128.576 126.062 128.39 125.948 128.228C125.835 128.066 125.687 127.93 125.516 127.83C125.345 127.73 125.154 127.668 124.957 127.649C124.759 127.629 124.56 127.653 124.373 127.718C124.196 127.778 124.033 127.874 123.894 127.999C123.756 128.125 123.644 128.277 123.566 128.447C123.468 128.66 123.426 128.894 123.444 129.128C123.462 129.362 123.54 129.587 123.67 129.782C123.801 129.977 123.979 130.135 124.188 130.242C124.396 130.348 124.629 130.399 124.864 130.39L124.86 130.391Z" fill="white"/>
    <path d="M174.01 59.7656C174.215 60.9637 174.031 62.1961 173.484 63.2818C173.482 60.0003 173.342 60.1728 174.01 59.7656Z" fill="white"/>
    <path d="M164.305 58.418C164.494 60.9721 164.494 63.5367 164.305 66.0909C162.818 64.4749 162.745 60.0441 164.305 58.418Z" fill="white"/>
    <path d="M243.959 158.293C244.593 178.104 244.333 172.979 218.048 187.515C216.008 188.642 216.368 189.192 216.114 187.531C215.722 184.979 213.844 179.101 212.256 177.047C209.169 173.054 207.317 174.196 209.453 172.651C213.367 169.82 231.088 158.941 236.884 157.015C238.008 156.64 238.249 155.583 236.884 153.254C235.914 151.605 234.807 152.285 233.012 152.923C233.122 152.288 233.193 151.648 233.221 151.005C233.277 149.292 232.102 149.349 231.496 149.707C227.929 151.804 227.612 151.959 225.646 153.172C225.646 148.205 225.844 148.036 225.504 147.828C224.844 147.421 224.606 147.778 224.117 148.106C214.725 154.416 215.39 154.875 213.47 156.218C212.808 152.962 212.599 152.011 212.467 150.984C212.25 149.31 212.927 146.086 212.065 143.705C211.26 141.487 209.811 139.95 210.035 135.244C210.309 129.388 210.475 129.088 210.323 128.851C209.784 128.011 209.265 128.704 209.241 128.868C208.638 132.977 207.809 138.726 210.079 142.804C211.956 146.176 210.28 147.676 211.475 153.861C212.188 157.54 212.236 157.736 211.909 158.174C208.311 162.994 206.779 164.335 206.017 167.731C205.836 168.532 204.558 169.454 203.515 170.342C200.82 160.419 194.502 154.443 186.555 146.781C191.87 138.312 190.795 138.756 197.083 130.836C205.491 120.24 209.349 118.337 207.829 115.715C204.506 109.975 204.942 110.909 204.101 109.965C205.867 108.849 204.585 109.865 212.62 103.876C215.269 101.903 211.311 95.875 212.268 96.4687C213.698 97.1612 214.997 98.0973 216.107 99.2352C219.136 102.987 219.94 101.719 223.923 103.432C231.694 106.774 229.26 105.763 232.251 119.265C232.997 122.634 233.754 122.064 235.123 126.313C239.128 138.744 237.368 132.509 238.599 140.298C240.241 150.729 243.747 151.751 243.959 158.293Z" fill="#592466"/>
    <path d="M235.023 153.428C235.648 153.165 236.24 154.619 236.557 155.89C227.508 159.472 216.877 166.397 207.696 172.439C207.577 172.044 207.581 171.621 207.705 171.228C207.83 170.834 208.07 170.487 208.395 170.232C211.547 167.927 220.206 159.656 235.023 153.428Z" fill="white"/>
    <path d="M230.554 202.062C233.448 209.262 236.149 215.655 235.12 216.718C230.778 221.231 219.09 225.309 213.228 227.519C208.351 229.356 199.375 233.851 192.078 233.194C183.833 232.451 182.006 234.473 180.947 232.192C179.932 230.011 179.032 224.433 176.851 212.063C175.217 202.795 174.941 202.782 174.005 200.417C173.567 198.529 173.407 196.587 173.53 194.652C177.04 198.412 177.351 199.399 190.712 198.176C194.039 197.871 196.605 198.333 202.828 195.795C203.348 195.583 203.162 195.442 203.794 196.901C204.046 197.734 204.583 198.451 205.312 198.926C206.04 199.402 206.913 199.605 207.776 199.5C208.349 199.43 208.896 199.227 209.376 198.906C213.123 196.915 215.826 196.877 216.279 194.263C216.767 191.438 215.978 190.514 217.012 189.95C222.905 186.739 222.949 186.322 223.506 187.22C227.504 193.65 226.953 193.106 230.554 202.062Z" fill="#592466"/>
    <path d="M232.064 151.075C232.04 152.195 231.943 153.105 231.441 153.522C230.667 154.156 228.363 155.031 222.875 158.294C219.174 160.493 213.339 165.116 211.514 166.215C211.852 165.256 223.356 155.238 231.749 150.881C231.799 150.856 231.857 150.85 231.911 150.867C231.965 150.883 232.01 150.92 232.037 150.969C232.055 151.001 232.064 151.038 232.064 151.075Z" fill="white"/>
    <path d="M224.292 149.416C224.68 149.137 224.729 149.02 224.452 153.71C218.382 158.232 212.033 163.146 206.957 169.092C207.023 167.453 207.597 165.874 208.6 164.575C214.187 156.167 217.333 154.415 224.292 149.416Z" fill="white"/>
    <path d="M216.825 49.7519C217.713 56.8236 211.868 58.8848 214.248 64.017C215.081 65.8815 215.589 67.8746 215.751 69.9102C215.808 71.3949 215.542 72.8742 214.971 74.2458C214.13 76.6559 209.952 81.6029 205.965 81.9441C205.048 82.0227 204.222 82.3246 203.8 82.3462C202.693 82.3969 202.704 81.7005 201.57 79.9133C202.551 79.8041 203.459 79.3392 204.121 78.6062C204.783 77.8732 205.154 76.9231 205.163 75.9354C205.17 75.2808 205.017 74.6345 204.719 74.0517C205.644 72.6168 206.477 71.1246 207.213 69.5842C209.046 65.066 207.139 59.8932 202.502 60.3981C199.888 60.6835 199.931 61.8911 199.148 61.8809C189.254 61.026 193.01 61.442 190.596 61.2074C190.365 59.6874 190.586 58.1331 191.23 56.7373C192.245 54.7382 196.717 48.6852 190.519 44.4511C186.333 41.5932 182.819 42.1133 180.695 39.6804C179.172 37.9325 179.821 36.8594 179.403 35.9854C179.35 35.8664 179.259 35.7683 179.145 35.7065C179.03 35.6448 178.898 35.6228 178.769 35.6442C178.641 35.6655 178.523 35.7289 178.434 35.8244C178.346 35.9199 178.291 36.0421 178.28 36.1718C178.384 37.0095 178.237 37.8592 177.857 38.6132C177.478 39.3672 176.883 39.9916 176.148 40.4072C170.496 43.2828 166.712 43.865 165.511 49.2204C164.762 52.5679 164.795 55.309 163.856 56.4722C161.485 59.415 161.243 64.844 163.785 67.7716C163.948 67.9605 164.063 68.186 164.121 68.4288C164.178 68.6717 164.177 68.9248 164.116 69.1669C163.592 72.3272 164.01 75.5719 165.317 78.4964C165.951 79.6824 163.945 80.1809 163.877 82.3436C163.833 83.7491 164.494 84.415 166.242 86.149C168.876 88.7696 166.512 91.6998 165.255 94.5335C163.195 99.1735 169.526 99.124 167.919 104.965C167.74 105.643 167.401 106.268 166.93 106.787C166.46 107.307 165.871 107.705 165.214 107.95C166.208 103.664 164.294 103.227 161.526 100.944C156.243 96.5846 159.823 93.5542 160.653 91.6427C161.081 90.5623 161.133 89.3691 160.8 88.2555C160.468 87.142 159.77 86.1729 158.819 85.5046C156.655 83.8112 154.842 80.6452 156.402 78.3873C157.701 76.5049 159.272 74.9473 157.274 71.3449C155.782 68.6545 153.215 64.9138 156.567 61.097C158.615 58.7669 160.524 57.7711 160.359 55.408C160.166 52.644 155.483 51.4986 158.544 45.613C159.062 44.7096 159.77 43.9295 160.62 43.3266C161.469 42.7237 162.439 42.3123 163.463 42.1209C164.415 41.8633 165.26 41.3093 165.875 40.5391C166.491 39.7689 166.846 38.8226 166.887 37.8373C166.955 36.1296 167.591 34.4933 168.694 33.1876C169.797 31.8819 171.304 30.9814 172.976 30.6287C174.086 30.3954 175.233 30.411 176.336 30.6744C178.619 31.2439 178.701 33.1694 179.66 33.2113C180.532 33.2468 180.154 30.9851 183.31 30.0668C184.382 29.7019 185.512 29.5397 186.644 29.5886C187.983 29.7285 189.25 30.2644 190.284 31.1279C191.317 31.9915 192.07 33.1434 192.446 34.4366C193.396 37.9236 194.569 38.9168 196.563 39.4889C197.634 39.8623 198.605 40.4759 199.402 41.2825C200.2 42.0892 200.802 43.0676 201.162 44.1428C201.521 45.2185 201.63 46.362 201.479 47.4858C201.328 48.6097 200.922 49.6842 200.292 50.6272C196.994 55.3801 200.211 59.0332 200.739 56.6295C200.866 56.0219 199.343 54.5695 201.036 52.4347C202.456 50.6113 203.171 48.3367 203.048 46.0286C202.926 43.7206 201.976 41.5341 200.371 39.8707C198.23 37.4999 195.628 38.3904 194.564 35.648C200.272 30.5653 207.44 35.7545 209.796 43.8003C211.15 48.4251 207.259 54.69 209.161 54.8968C209.328 54.915 209.497 54.8783 209.641 54.7923C209.786 54.7062 209.898 54.5755 209.962 54.4199C210.004 54.3165 210.022 54.2052 210.016 54.0939C210.103 52.0149 211.229 50.2098 211.521 48.1968C212.213 43.4249 210.47 42.1222 210.886 41.6008C214.209 43.6342 216.334 45.8185 216.825 49.7519Z" fill="#AA3CC5"/>
    <path d="M209.938 94.9318C211.181 97.7123 213.251 101.732 211.247 103.096C207.555 105.607 209.734 104.344 203.256 108.645C202.952 108.81 202.717 109.079 202.597 109.404C202.477 109.728 202.48 110.085 202.604 110.408L202 110.514C201.499 109.493 201.218 108.378 201.177 107.241C201.136 106.104 201.335 104.972 201.762 103.918C203.095 100.357 205.012 99.0619 206.819 91.4766C208.14 92.3398 209.214 93.5301 209.938 94.9318Z" fill="white"/>
    <path d="M206.438 116.224C207.741 118.544 202.772 117.603 185.627 145.595C185.326 146.086 185.462 145.944 183.355 144.616C181.617 143.52 181.072 144.941 179.019 147.511C176.817 150.269 182.326 135.333 182.811 133.924C189.321 115.036 193.311 109.811 194.955 106.873C199.695 114.238 202.946 113.376 202.599 112.099C202.443 111.556 202.244 111.026 202.003 110.515L202.606 110.41C202.688 110.587 202.803 110.749 202.944 110.885C204.362 112.486 205.539 114.284 206.438 116.224Z" fill="#592466"/>
    <path d="M201.198 62.4158C205.039 60.1174 208.262 65.8254 204.974 70.5821C203.864 72.1867 203.603 72.6396 203.088 72.4379C201.026 71.6273 200.239 72.6713 199.493 72.8742C198.304 73.1964 198.543 70.18 198.881 68.9686C199.062 67.8004 199.15 66.6195 199.143 65.4373C199.176 65.1037 199.27 64.7802 199.32 64.4517C199.728 63.6004 200.382 62.8913 201.198 62.4158Z" fill="white"/>
    <path d="M204.684 192.887C204.733 193.098 204.764 193.313 204.782 193.53C201.511 194.652 198.402 196.158 194.925 196.41C176.324 197.761 180.41 199.424 170.063 188.556C168.566 186.946 167.093 185.314 165.644 183.661C164.856 182.753 165.263 182.025 166.456 182.473C171.077 184.215 170.299 187.166 174.637 190.677C175.615 191.467 176.487 193.999 179.004 194.959C180.736 195.62 180.799 194.191 179.72 193.818C178.561 193.301 177.583 192.45 176.91 191.375C173.554 187.082 174.649 189.49 171.871 185.168C169.267 181.117 164.936 178.899 167.527 178.623C169.469 178.415 170.699 179.511 174.827 183.993C182.346 192.166 180.253 192.068 183.543 194.156C184.239 194.599 184.558 194.462 184.902 193.57C180.413 189.024 176.489 183.953 173.216 178.467C172.601 177.316 173.57 177.121 174.038 177.213C175.275 177.574 176.346 178.358 177.065 179.427C178.37 181.254 179.858 182.943 181.505 184.469C183.187 186.226 183.704 188.107 185.944 189.056C189.592 190.602 190.942 191.997 190.976 189.982C191.864 189.695 192.734 189.356 193.583 188.967C193.762 188.858 193.89 188.682 193.939 188.478C193.989 188.274 193.955 188.059 193.847 187.88C193.625 187.516 189.843 184.728 189.145 184.237C187.041 182.763 184.768 179.797 185.763 179.036C186.188 178.709 188.052 180.292 190.282 181.965C190.561 182.174 192.93 183.41 194.603 184.402C195.09 184.686 195.631 184.865 196.191 184.93C196.751 184.994 197.319 184.941 197.858 184.775C198.927 184.662 200.005 184.649 201.077 184.738C202.334 184.19 202.401 185.034 204.684 192.887Z" fill="white"/>
    <path d="M199.926 79.7527C203.938 85.8642 207.122 88.6776 204.08 95.8101C200.782 103.548 199.063 104.401 200.148 110.642C198.24 109.353 196.793 107.49 196.017 105.322C193.906 99.3288 201.217 93.8986 197.419 88.382C194.294 83.8448 191.94 83.8613 191.484 79.3367C191.248 77.0015 192.511 76.2125 194.148 73.0756C196.587 68.3912 190.421 63.6218 191.006 62.5918L198.316 63.1322C197.318 65.4052 198.041 66.3312 197.591 68.8973C196.746 73.7174 198.593 73.6451 198.352 74.7043C197.308 78.0581 199.468 79.0564 199.926 79.7527Z" fill="#AA3CC5"/>
    <path d="M203.735 76.188C203.728 76.6388 203.582 77.0764 203.316 77.4404C203.05 77.8044 202.678 78.0769 202.25 78.2202C201.823 78.3634 201.361 78.3704 200.93 78.2402C200.498 78.11 200.118 77.849 199.841 77.4932C199.545 76.9931 199.411 76.4139 199.456 75.8346C199.501 75.2553 199.724 74.7041 200.094 74.2561C200.396 73.9913 200.758 73.8028 201.148 73.7063C201.538 73.6099 201.945 73.6083 202.336 73.7018C202.812 73.9014 203.209 74.2543 203.462 74.7046C203.716 75.155 203.812 75.677 203.735 76.188Z" fill="white"/>
    <path d="M200.927 166.466C200.172 166.915 201.442 164.916 179.139 149.775C181.942 145.668 182.035 145.521 182.982 146.084C187.229 148.602 192.816 154.475 196.609 159.276C198.426 161.425 199.884 163.852 200.927 166.466Z" fill="white"/>
    <path d="M199.271 166.881C197.689 165.708 196.316 165.051 194.822 164.021C187.162 158.822 179.171 154.128 170.9 149.967C171.249 149.072 171.817 147.91 172.582 148.008C177.562 149.104 200.041 165.922 199.271 166.881Z" fill="white"/>
    <path d="M194.411 87.0367C196.746 89.5355 197.427 91.924 196.586 92.7117C195.183 94.0259 194.811 93.9282 190.002 95.51C183.592 97.6194 185.704 96.5843 185.13 104.812C184.989 106.822 186.685 111.342 181.451 114.549C181.425 113.065 180.324 111.736 181.083 110.237C184.606 103.296 184.568 107.549 182.92 93.0733C182.778 91.8251 189.643 86.6917 188.85 85.2723C188.076 83.8871 185.849 88.0197 176.991 89.0421C176.066 89.1916 175.118 89.0683 174.261 88.6871C173.405 88.3059 172.679 87.6834 172.171 86.8959C166.014 77.5359 164.895 75.3111 165.634 69.3176C170.474 70.9171 172.398 66.3012 171.675 68.0834C171.398 68.5793 171.307 69.1578 171.419 69.7147C171.531 70.2717 171.837 70.7705 172.284 71.1214C172.581 71.3522 172.928 71.5108 173.299 71.5818C173.971 71.76 174.663 71.8529 175.359 71.8583C175.473 71.8773 175.591 71.8705 175.702 71.8383C175.814 71.8062 175.917 71.7495 176.004 71.6724C176.091 71.5954 176.159 71.4999 176.205 71.3929C176.25 71.2859 176.271 71.1702 176.266 71.0541C176.349 69.7933 171.751 70.9615 173.057 68.4157C174.58 65.7576 175.392 62.7512 175.413 59.6875C176.946 60.4549 175.959 59.6063 176.294 63.0768C176.844 68.7849 182.358 71.148 185.74 67.869C188.835 64.8704 187.078 63.092 189.327 62.7775C189.95 65.3867 193.15 67.7536 193.239 70.4021C193.334 73.2004 190.244 74.6401 189.955 78.7372C189.647 82.9776 193.811 86.391 194.411 87.0367Z" fill="white"/>
    <path d="M189.358 45.322C190.416 45.9389 191.243 46.885 191.713 48.016C192.183 49.1471 192.27 50.4007 191.96 51.5856C190.691 55.3174 188.843 56.2244 189.086 60.7401C189.116 61.3033 188.93 61.5582 188.363 61.5709C188.289 60.9506 188.248 60.3227 188.134 59.7139C186.918 53.2536 180.619 52.5585 178.002 56.2891C177.494 57.0146 177.101 57.8188 176.621 58.6471C176.101 58.3027 175.493 58.1141 174.87 58.1038C174.246 58.0934 173.633 58.2617 173.102 58.5888C171.95 55.835 170.125 54.1276 166.982 54.4371C167.037 53.3919 168.175 53.0672 169.053 53.1344C170.495 53.2435 171.808 54.0426 172.224 52.9137C172.851 51.2076 170.259 50.4884 168.209 51.3789C167.536 51.7175 166.885 52.0993 166.26 52.5205C166.376 50.9514 166.768 49.4153 167.415 47.9819C167.756 47.0668 168.303 46.2422 169.013 45.5717C169.723 44.9011 170.578 44.4026 171.511 44.1144C177.695 41.3314 178.078 40.8037 178.793 39.4668C181.249 43.1834 183.494 42.1331 189.358 45.322Z" fill="white"/>
    <path d="M186.936 61.5199C186.981 66.9742 181.055 70.3686 178.437 65.518C177.467 63.9492 177.154 62.0616 177.566 60.2637C177.977 58.4659 179.08 56.9025 180.636 55.912C183.563 54.3746 186.897 56.9369 186.936 61.5199ZM181.058 63.042C181.933 63.1929 181.906 60.9085 181.717 60.4645C181.389 59.6946 180.331 59.4903 180.228 60.3288C180.033 61.9067 179.988 62.853 181.058 63.0357V63.042Z" fill="white"/>
    <path d="M184.58 74.4375C184.124 75.5258 183.692 76.3973 182.528 76.6687C179.622 77.341 176.755 78.2391 173.715 78.0501C172.7 77.9866 172.488 77.804 172.039 76.448C176.32 76.7938 180.622 76.1043 184.58 74.4375Z" fill="white"/>
    <path d="M196.407 94.6314C187.527 98.6258 186.419 96.3717 186.657 100.386C186.87 103.982 186.277 103.684 186.686 107.811C187.01 111.04 184.538 114.093 183.037 115.244C179.629 117.858 181.307 119.255 179.758 126.153C179.139 128.913 177.408 130.544 177.632 132.591C177.948 135.468 176.787 136.341 176.428 139.394C176.158 141.697 176.602 140.789 175.808 141.677C175.604 141.491 175.223 141.304 175.222 141.116C175.039 139.861 175.126 138.581 175.476 137.362C177.676 132.28 175.11 133.066 177.42 128.877C179.875 124.429 178.764 120.475 179.957 117.103C180.74 114.886 180.031 115.183 179.589 112.513C178.819 107.855 183.178 106.264 182.549 102.873C182.448 102.333 182.38 101.759 182.253 101.224C182.171 100.815 182.015 100.424 181.794 100.071C181.361 99.5615 181.113 98.9211 181.09 98.2534C181.067 97.5856 181.27 96.9297 181.667 96.392C182.166 95.6867 181.835 95.0436 181.651 94.332C179.975 94.9485 179.588 95.4736 178.151 99.8333C177.517 101.736 176.502 105.498 178.627 106.505C178.894 105.77 178.535 106.829 180.402 101.363C180.671 100.577 181.417 100.714 181.511 101.265C181.534 101.426 181.513 101.589 181.451 101.739C178.897 108.057 181.03 106.91 177.918 107.913C177.394 107.08 173.332 131.157 173.332 146.917L176.868 148.665C177.883 144.899 178.164 143.026 178.965 140.472C180.397 135.906 186.817 118.943 191.835 109.829C192.715 108.232 192.762 108.598 191.668 108.733C187.592 109.24 190.272 103.752 188.75 100.603C187.149 102.899 186.634 99.7217 188.377 99.4617C191.25 99.0418 190.725 102.932 190.695 106.098C190.672 108.572 195.051 107.126 194.421 104.601C193.437 100.653 195.72 97.8507 196.407 94.6314Z" fill="white"/>
    <path d="M171.484 101.183C172.535 100.098 177.402 94.6058 178.356 95.4417C177.304 98.2145 174.89 103.167 176.684 106.58C177.445 108.041 174.241 106.754 171.899 145.844C171.838 146.859 172.007 145.566 169.705 149.345C166.668 148.234 167.413 147.387 163.012 153.193C157.386 160.62 158.046 160.215 157.75 160.071C157.17 154.72 156.87 149.343 156.852 143.961C156.891 141.592 158.355 136.065 159.037 132.337C159.35 128.645 159.912 124.978 160.719 121.361C161.285 118.34 161.163 119.332 161.1 118.259C160.085 117.911 160.032 117.438 158.102 127.804C157.5 131.036 158.591 129.145 156.252 138.483C154.41 145.84 155.862 153.056 156.263 157.407C156.39 158.831 156.271 160.965 156.354 161.117C157.138 162.534 155.263 163.487 151.769 168.506C148.86 166.99 149.62 167.589 147.783 165.589C141.331 158.574 140.405 157.865 139.061 155.282C136.981 151.283 134.045 151.493 133.771 146.417C133.66 144.388 133.3 142.843 131.658 141.919C128.219 139.983 127.472 137.48 125.885 134.036C129.944 132.422 129.976 133.082 132.847 130.197C141.743 121.266 137.265 125.031 141.13 120.811C145.334 122.857 142.93 125.872 146.734 127.936C148.51 128.9 148.577 129.568 150.174 132.766C147.587 135.711 148.868 133.688 144.267 141.503C143.401 143.234 143.113 145.198 143.448 147.105C143.488 147.236 143.56 147.356 143.657 147.454C143.754 147.552 143.873 147.625 144.005 147.667C145.003 147.882 144.346 145.764 144.893 143.752C145.117 142.929 149.341 135.992 149.775 135.278C150.167 135.427 150.409 134.363 148.253 145.097C147.794 147.38 147.28 147.333 147.807 150.2C147.837 150.357 148.534 151.132 148.977 150.026C148.954 149.267 148.976 148.507 149.04 147.75C150.816 138.544 151.105 138.11 151.36 136.415C152.359 129.809 151.971 128.057 153.636 125.143C155.6 121.709 155.583 118.256 156.368 113.823C157.003 110.239 163.148 105.917 163.918 105.549C164.051 105.989 164.066 106.456 163.962 106.904C163.858 107.352 163.638 107.765 163.325 108.101C161.624 110.402 165.735 110.728 168.408 107.415C172.768 110.52 172.29 109.74 170.716 110.379C168.764 111.285 166.924 112.413 165.232 113.742C164.521 114.188 163.947 114.824 163.575 115.577C163.203 116.33 163.047 117.172 163.124 118.009C163.209 119.835 164.351 146.694 166.168 146.422C168.288 146.1 164.418 137.988 164.56 117.193C164.571 115.572 168.712 113.007 169.92 112.463C176.77 109.412 173.218 109.749 169.955 106.806C169.734 106.561 169.573 106.268 169.485 105.95C169.396 105.632 169.384 105.298 169.447 104.974C169.514 104.238 169.73 103.522 170.08 102.871C170.43 102.219 170.907 101.645 171.484 101.183Z" fill="#592466"/>
    <path d="M175.607 82.7806C176.232 82.0635 176.998 81.4838 177.858 81.0781C178.718 80.6724 179.652 80.4496 180.603 80.4238C179.494 82.4698 177.034 84.5945 175.607 82.7806Z" fill="#592466"/>
    <path d="M166.417 56.1616C168.923 54.8779 172.307 57.0888 172.301 62.2806C172.301 65.6839 169.219 69.2318 166.268 67.9646C165.602 67.6792 165.71 67.7743 165.852 64.4129C166.188 56.5168 164.875 56.9493 166.417 56.1616ZM169.851 61.3191C169.838 60.964 169.783 60.6088 169.686 60.2663C169.634 60.1417 169.549 60.0339 169.44 59.9545C169.33 59.8751 169.202 59.8272 169.067 59.8161C168.932 59.805 168.797 59.831 168.677 59.8914C168.556 59.9518 168.454 60.0442 168.382 60.1585C167.374 62.2527 169.363 64.7034 169.851 61.3191Z" fill="white"/>
    <path d="M167.899 188.579C170.862 191.738 172.465 192.151 172.227 195.776C172.046 198.567 172.838 200.193 171.288 205.684C168.561 215.349 167.99 228.735 167.663 230.699C167.515 231.587 167.111 231.979 166.239 231.864C160.834 231.15 154.031 226.945 149.766 223.023C149.46 222.753 149.23 222.407 149.1 222.019C148.97 221.632 148.946 221.217 149.028 220.817C150.284 199.309 157.948 184.328 158.474 181.199C165.537 184.817 163.376 183.759 167.899 188.579Z" fill="#592466"/>
    <path d="M130.48 110.857C131.66 113.14 132.629 113.856 131.888 114.652C123.922 123.221 128.579 120.321 122.135 114.525C121.751 114.181 118.833 112.867 117.771 110.9C119.73 110.9 119.636 110.819 119.928 111.212C120.42 111.872 121.083 113.381 122.499 113.262C123.306 113.203 124.093 112.984 124.814 112.617C125.535 112.25 126.175 111.743 126.698 111.126C126.989 110.824 127.168 110.432 127.206 110.015C127.244 109.598 127.138 109.18 126.906 108.831C125.15 106.36 123.161 104.063 120.967 101.971C118.569 99.5613 118.894 97.6865 117.281 94.5978C116.147 92.4287 111.721 87.6213 112.479 86.4023C112.813 85.867 113.367 86.33 113.539 86.5152C115.102 88.3726 116.786 90.1247 118.579 91.7603C125.005 96.3863 127.958 105.963 130.48 110.857Z" fill="white"/>
    <path d="M120.217 109.361C120.37 110.556 111.898 109.187 113.274 107.543C113.363 107.44 113.475 107.359 113.601 107.307C113.727 107.255 113.864 107.234 114 107.245C116.359 107.862 120.042 108.015 120.217 109.361Z" fill="white"/>
    <path d="M116.567 106.523C115.044 106.331 111.074 105.403 110.508 103.977C110.196 103.19 111.196 102.532 111.677 102.758C112.253 103.027 115.355 104.317 117.169 105.211C117.324 105.302 117.439 105.448 117.492 105.619C117.546 105.79 117.534 105.975 117.459 106.138C117.384 106.302 117.251 106.431 117.087 106.502C116.922 106.573 116.737 106.58 116.567 106.523Z" fill="white"/>
    <path d="M117.402 98.8345C117.634 99.5955 116.051 99.1389 114.929 98.8345C113.009 98.3046 111.173 97.5065 109.475 96.4637C109.178 96.2181 108.942 95.9066 108.785 95.554C108.629 95.2014 108.557 94.8173 108.575 94.432C108.593 94.0468 108.7 93.6709 108.888 93.3343C109.076 92.9976 109.34 92.7093 109.659 92.4922C109.979 92.9526 110.376 93.3129 110.131 93.9674C109.68 95.1737 116.784 96.7897 117.402 98.8345Z" fill="white"/>
    <path d="M112.945 99.4829C116.439 101.235 117.02 101.965 116.069 103.035C113.075 102.304 113.131 101.95 110.395 100.854C107.766 99.8 108.807 97.4813 110.12 98.2424C110.587 98.5113 112.548 99.2838 112.945 99.4829Z" fill="white"/>
    <path d="M244.978 172.023L245.613 167.203C251.432 167.203 256.74 168.091 256.83 166.569C256.923 164.98 249.21 166.753 245.654 165.602C245.654 159.597 245.63 155.858 242.977 149.761C241.137 145.535 241.597 147.939 239.782 137.755C239.098 133.916 240.267 136.718 236.127 124.551C235.659 123.126 235.02 121.763 234.224 120.492C232.222 115.487 233.075 113.705 231.568 108.099C230.344 103.549 226.97 103.504 225.926 102.858C222.991 101.039 221.183 101.561 218.895 100.004C217.119 98.8004 216.905 96.5983 211.813 94.9912C211.107 94.7679 210.768 93.6263 209.511 92.2501C208.019 90.6125 207.119 90.3867 206.761 89.4075C206.203 87.3676 205.331 85.427 204.177 83.655C208.503 83.3633 211.094 82.1443 214.726 77.5664C218.012 73.4211 218.024 69.9912 215.472 63.6591C214.604 61.5027 214.764 61.5928 216.475 57.9092C218.14 54.3258 218.588 52.2468 218.124 49.0807C217.047 41.7592 210.02 40.0049 209.625 39.2933C206.549 33.8022 200.552 29.9435 195.124 33.1755C194.745 33.3644 194.353 33.5243 193.95 33.6537C193.59 32.5862 193.02 31.6014 192.274 30.7572C191.528 29.9131 190.621 29.2267 189.605 28.7385C188.59 28.2502 187.488 27.97 186.362 27.9142C185.237 27.8584 184.112 28.0283 183.054 28.4138C181.639 28.9295 180.388 29.8142 179.43 30.976C176.512 27.7846 169.207 28.5596 166.636 33.4013C165.969 34.8198 165.574 36.3513 165.474 37.9158C165.085 42.0522 157.876 39.6713 156.293 47.4622C155.532 51.2358 156.818 52.4916 158.338 54.4704C161.062 58.022 150.882 59.671 154.086 68.4779C155.334 71.9028 158.155 73.9538 155.723 76.662C154.908 77.6989 154.439 78.9656 154.383 80.2833C154.326 81.6011 154.684 82.9033 155.408 84.0064C157.626 87.5796 160.677 87.8904 159.294 90.856C158.079 93.4627 156.519 94.5612 157.399 97.7957C158.279 101.03 160.508 102.199 163.211 104.228C159.843 106.931 156.175 109.381 155.228 112.824C154.118 116.85 154.466 120.74 152.541 124.305C151.453 126.013 150.836 127.978 150.755 130.002C149.819 129.389 150.171 127.972 148.009 126.885C144.352 125.052 146.082 121.272 142.047 119.796C141.201 119.486 142.778 117.841 139.916 115.237C139.075 114.581 138.388 113.749 137.903 112.799C137.543 111.975 136.835 111.296 136.508 110.46C135.456 107.734 133.52 107.681 130.85 108.557C128.996 104.191 126.801 99.9761 124.287 95.9527C121.946 92.5837 120.433 92.1308 118.981 90.7013C113.9 85.6934 113.4 84.1243 111.59 85.2342C111.121 85.5222 111.477 86.6777 108.533 82.5147C109.086 82.1227 110.134 81.3984 110.35 81.2246C113.555 78.6546 116.181 75.4355 118.054 71.7788C119.928 68.122 121.006 64.1103 121.219 60.0071C121.432 55.904 120.775 51.8021 119.29 47.971C117.806 44.1399 115.528 40.6662 112.605 37.7781C109.683 34.8899 106.183 32.6526 102.334 31.2131C98.4862 29.7736 94.3769 29.1644 90.2765 29.4256C86.1761 29.6869 82.1774 30.8125 78.5429 32.7287C74.9084 34.645 71.7204 37.3083 69.1882 40.544C52.1541 62.4439 72.06 97.249 105.159 84.6939L109.091 91.3342C106.774 92.6027 107.036 95.5011 108.233 97.2541C107.926 97.5069 107.694 97.8375 107.56 98.2112C107.426 98.5849 107.396 98.9878 107.471 99.3775C107.805 101.317 108.746 101.359 109.652 102.117C107.622 105.491 111.883 105.923 111.789 107.181C111.614 109.509 113.739 109.808 115.285 110.531C116.923 111.292 116.573 112.336 119.949 114.404C122.646 116.053 121.471 114.811 119.495 118.162C116.443 123.345 116.097 124.391 116.398 125.448C116.994 126.597 117.679 127.698 118.449 128.738C119.167 130.431 121.62 134.046 123.424 134.129C124.766 134.193 125.128 135.152 125.61 136.552C127.919 143.281 131.987 142.354 132.163 145.376C132.313 147.94 132.596 150.095 134.341 151.998C140.695 158.925 134.959 154.096 145.259 165.356C145.159 165.898 89.6801 165.189 77.3558 165.453C67.3667 165.667 68.7747 166.16 69.9328 164.788C70.4871 164.131 70.501 163.743 69.7463 163.325C66.0285 161.265 70.4896 161.523 37.3766 161.339C34.9944 161.325 33.6042 162.654 33.8452 165.437C24.8886 165.437 27.2277 165.543 26.5884 163.314C26.4374 162.79 26.6822 152.871 25.585 3.94271C25.585 3.19559 25.4506 2.0654 28.0598 1.82946C31.6381 1.50601 86.3796 1.67344 140.724 1.60368C191.221 1.53899 241.366 1.22314 250.037 1.21172C250.186 1.22445 250.335 1.18936 250.462 1.11155C250.589 1.03374 250.688 0.917289 250.745 0.779181C250.783 0.687615 250.801 0.589054 250.798 0.489973C250.768 -0.51845 242.625 0.345369 229.501 0.326342C222.591 0.317463 28.4225 0.794402 27.2112 0.794402C26.4806 0.778384 25.7722 1.04639 25.2352 1.54202C24.6981 2.03765 24.3743 2.72227 24.3318 3.45182C25.6002 33.2478 24.4967 157.316 25.3123 164.926C24.4497 165.267 25.1854 165.3 21.8355 165.245C18.0174 165.18 17.0635 164.821 17.0661 166.143C17.0787 171.822 16.6069 172.432 18.0149 172.947C18.3269 173.06 36.5343 173.487 148.108 173.487C147.44 174.485 146.851 175.324 147.929 175.841C156.103 179.774 157.241 180.235 157.144 180.748C156.351 184.934 149.465 195.292 147.612 221.066C147.454 223.243 148.352 223.739 151.092 226.16C152.911 227.768 152.205 226.096 151.624 230.083C151.399 231.618 151.297 233.168 151.068 234.7C150.074 241.395 149.955 239.426 150.561 240.812C151.46 240.331 151.638 240.775 152.188 236.576C153.412 227.221 152.856 229.536 153.381 227.903C156.87 229.992 162.599 233.452 166.635 233.192C171.224 232.895 167.142 228.071 173.358 202.601C174.287 204.454 178.712 232.44 179.687 233.457C181.87 235.74 187.128 234.14 192.844 234.634C199.408 235.201 208.288 231.071 210.989 229.931C214.499 228.814 217.948 227.515 221.324 226.042C225.218 224.393 223.219 225.055 229.738 222.411C231.632 231.118 231.006 230.985 231.634 233.717C232.187 235.874 232.541 238.077 232.693 240.299C232.758 241.805 234.065 240.566 234.029 240.12C233.429 232.709 230.439 221.778 231.575 221.058C238.621 216.583 237.701 217.827 233.043 204.346C232.111 201.651 230.737 199.145 229.858 196.406C228.842 193.757 227.612 191.195 226.18 188.745C224.748 185.955 223.973 186.027 224.593 185.711C231.984 181.958 230.802 182.847 232.433 181.986C233.956 181.181 235.377 180.188 236.908 179.407C239.81 178.146 242.282 176.068 244.023 173.427C244.329 172.92 244.581 173.216 248.851 173.388C256.09 173.681 256.906 173.906 256.934 172.994C256.967 171.933 255.878 172.627 244.978 172.023ZM206.821 91.4763C208.141 92.3412 209.215 93.5334 209.937 94.9367C211.18 97.7171 213.251 101.737 211.246 103.1C207.554 105.612 209.733 104.35 203.255 108.65C203.056 108.75 202.885 108.896 202.755 109.077C202.626 109.258 202.542 109.467 202.512 109.688C202.48 109.908 202.502 110.132 202.577 110.341C202.652 110.551 202.777 110.739 202.94 110.889C204.359 112.489 205.536 114.288 206.435 116.228C207.738 118.548 202.769 117.605 185.624 145.599C185.324 146.09 185.457 145.946 183.352 144.62C181.614 143.524 181.069 144.944 179.016 147.514C176.813 150.273 182.323 135.337 182.808 133.928C189.317 115.039 193.307 109.814 194.952 106.877C199.692 114.241 202.943 113.38 202.595 112.103C202.035 110.062 200.212 108.044 201.761 103.917C203.097 100.355 205.013 99.0566 206.821 91.4763ZM231.441 153.527C230.666 154.161 228.363 155.037 222.876 158.299C219.174 160.498 213.338 165.12 211.514 166.22C211.85 165.267 223.264 155.29 231.75 150.886C231.8 150.86 231.858 150.855 231.911 150.871C231.965 150.888 232.01 150.924 232.038 150.973C232.055 151.006 232.064 151.043 232.064 151.08C232.038 152.195 231.944 153.111 231.441 153.522V153.527ZM235.017 153.431C235.644 153.169 236.234 154.623 236.552 155.894C227.503 159.476 216.872 166.401 207.691 172.443C207.572 172.048 207.575 171.625 207.7 171.232C207.825 170.838 208.065 170.491 208.39 170.236C211.547 167.927 220.205 159.655 235.022 153.426L235.017 153.431ZM224.452 153.716C218.383 158.238 212.034 163.152 206.958 169.098C207.024 167.459 207.598 165.88 208.6 164.581C214.202 156.15 217.405 154.366 224.292 149.422C224.681 149.139 224.731 149.02 224.452 153.711V153.716ZM211.576 179.054C213.362 183.29 215.635 189.64 214.854 194.17C214.738 194.83 211.695 196.123 210.922 196.317C210.148 196.511 210.655 196.581 207.087 198.156C206.162 192.174 206.981 195.083 204.061 185.173C203.94 184.766 203.863 184.703 200.963 180.252C202.485 178.347 204.27 176.668 206.265 175.267C207.695 174.145 210.941 177.539 211.576 179.049V179.054ZM203.976 171.676C204.626 171.147 205.224 170.661 205.878 170.126C206.863 172.531 204.621 173.52 203.976 171.671V171.676ZM204.761 174.229C204.006 175.028 198.758 180.692 196.788 182.903C195.986 183.805 196.038 183.509 192.266 181.127L201.621 170.68C202.399 172.061 202.777 173.718 204.761 174.224V174.229ZM179.138 149.78C181.941 145.672 182.034 145.525 182.981 146.088C187.229 148.606 192.816 154.479 196.608 159.28C198.425 161.43 199.881 163.86 200.921 166.475C200.17 166.914 201.44 164.92 179.137 149.775L179.138 149.78ZM180.406 101.366C178.539 106.832 178.898 105.773 178.631 106.509C176.507 105.502 177.526 101.744 178.155 99.8367C179.592 95.4808 179.979 94.9519 181.655 94.3354C181.838 95.047 182.17 95.6901 181.671 96.3954C181.273 96.9325 181.069 97.5887 181.092 98.2568C181.115 98.9249 181.364 99.5655 181.798 100.074C182.229 100.952 182.485 101.904 182.553 102.88C183.187 106.272 178.823 107.862 179.593 112.52C180.035 115.184 180.744 114.893 179.961 117.111C178.771 120.482 179.882 124.436 177.424 128.884C175.114 133.07 177.678 132.288 175.48 137.369C175.13 138.588 175.043 139.868 175.226 141.124C175.226 141.311 175.607 141.504 175.812 141.684C176.606 140.796 176.162 141.707 176.432 139.401C176.791 136.348 177.954 135.475 177.636 132.598C177.412 130.551 179.143 128.92 179.762 126.16C181.311 119.258 179.635 117.861 183.041 115.251C184.542 114.1 187.014 111.047 186.69 107.818C186.286 103.775 186.933 103.064 186.643 100.315C186.245 96.5311 187.947 98.4465 196.41 94.6386C195.724 97.8579 193.441 100.66 194.427 104.611C195.061 107.135 190.677 108.581 190.7 106.108C190.73 102.937 191.255 99.0515 188.382 99.4714C186.637 99.7251 187.157 102.896 188.755 100.613C190.277 103.761 187.595 109.245 191.673 108.743C192.767 108.608 192.721 108.235 191.84 109.838C186.822 118.952 180.403 135.92 178.97 140.482C178.169 143.035 177.894 144.909 176.874 148.675L173.337 146.927C173.337 131.166 177.396 107.09 177.923 107.923C181.036 106.92 178.902 108.066 181.457 101.748C181.812 100.84 180.732 100.378 180.4 101.361L180.406 101.366ZM165.959 83.4939C165.091 82.5007 165.374 82.2343 166.49 80.6576C169.231 85.3509 172.368 92.7612 179.641 89.9567C180.996 89.4341 181.11 91.2252 181.601 93.0708C173.791 95.0178 176.454 94.7971 169.897 100.662C168.952 101.509 168.914 99.3572 167.107 97.6448C165.468 96.096 167.069 95.0013 168.412 91.4103C170.095 86.9099 167.414 85.1581 165.959 83.4939ZM189.09 60.7403C189.119 61.3035 188.935 61.5585 188.367 61.5712C188.294 60.9509 188.254 60.323 188.139 59.7142C186.922 53.2539 180.623 52.5601 178.006 56.2893C177.499 57.0149 177.106 57.8191 176.625 58.6474C176.105 58.3031 175.498 58.1146 174.874 58.1043C174.251 58.094 173.637 58.2622 173.106 58.5891C171.956 55.8352 170.129 54.1279 166.986 54.4374C167.042 53.3922 168.18 53.0675 169.057 53.1347C170.5 53.2438 171.813 54.0429 172.229 52.914C172.857 51.2079 170.263 50.4887 168.214 51.3791C167.54 51.7191 166.89 52.0996 166.264 52.5208C166.382 50.9521 166.773 49.4162 167.42 47.9822C167.761 47.067 168.308 46.2423 169.018 45.5717C169.728 44.9012 170.583 44.4027 171.516 44.1147C177.699 41.3317 178.083 40.804 178.798 39.4671C181.249 43.1748 183.491 42.1308 189.363 45.3134C190.421 45.9301 191.248 46.8763 191.718 48.0073C192.188 49.1384 192.274 50.3921 191.965 51.577C190.696 55.3177 188.85 56.2246 189.09 60.7403ZM186.934 61.5192C186.98 66.9735 181.053 70.3692 178.435 65.5173C177.464 63.9489 177.15 62.0608 177.562 60.2626C177.974 58.4643 179.078 56.9009 180.635 55.9113C183.564 54.3752 186.9 56.9363 186.938 61.5192H186.934ZM173.478 63.2798C173.478 59.9996 173.339 60.1708 174.003 59.7636C174.21 60.9613 174.027 62.1937 173.482 63.2798H173.478ZM166.415 56.1612C168.919 54.8775 172.305 57.0885 172.298 62.2803C172.298 65.6835 169.217 69.2314 166.266 67.9642C165.6 67.6788 165.708 67.7739 165.85 64.4125C166.19 56.5164 164.877 56.9489 166.419 56.1612H166.415ZM171.663 68.0847C171.386 68.5806 171.295 69.1591 171.407 69.716C171.518 70.273 171.825 70.7718 172.272 71.1227C172.569 71.3535 172.916 71.5121 173.287 71.5831C173.959 71.7613 174.651 71.8542 175.346 71.8596C175.461 71.8786 175.578 71.8718 175.69 71.8396C175.802 71.8075 175.905 71.7508 175.992 71.6737C176.079 71.5967 176.147 71.5012 176.192 71.3942C176.238 71.2872 176.259 71.1715 176.253 71.0554C176.337 69.7946 171.738 70.9628 173.044 68.417C174.568 65.7589 175.379 62.7525 175.401 59.6888C176.933 60.4562 175.948 59.6076 176.281 63.0781C176.832 68.7862 182.345 71.1493 185.728 67.8703C188.823 64.8717 187.066 63.0933 189.315 62.7788C189.938 65.388 193.138 67.7549 193.227 70.4034C193.322 73.2017 190.232 74.6426 189.943 78.7385C189.643 82.9878 193.808 86.3949 194.408 87.0367C196.743 89.5356 197.423 91.9241 196.583 92.7118C195.18 94.0259 194.807 93.9282 189.998 95.51C183.589 97.6194 185.702 96.5844 185.126 104.812C184.987 106.822 186.681 111.342 181.448 114.55C181.421 113.065 180.32 111.735 181.08 110.237C184.602 103.296 184.564 107.549 182.917 93.0733C182.775 91.8251 189.639 86.6917 188.847 85.2723C188.074 83.8871 185.846 88.0198 176.988 89.0421C176.063 89.1917 175.114 89.0683 174.258 88.6871C173.402 88.3059 172.676 87.6835 172.168 86.8959C166.012 77.536 164.892 75.3111 165.63 69.3176C170.465 70.9159 172.39 66.2975 171.667 68.0809L171.663 68.0847ZM199.266 166.886C197.684 165.713 196.312 165.056 194.817 164.026C187.157 158.827 179.166 154.133 170.895 149.972C171.244 149.077 171.813 147.915 172.577 148.013C177.561 149.104 200.04 165.923 199.27 166.882L199.266 166.886ZM204.077 95.8131C200.779 103.551 199.06 104.406 200.145 110.645C198.237 109.356 196.79 107.493 196.013 105.325C193.903 99.3318 201.214 93.9016 197.416 88.3851C194.291 83.8478 191.938 83.8643 191.481 79.3397C191.245 77.0045 192.507 76.2168 194.145 73.0786C196.588 68.3904 190.422 63.621 191.007 62.591L198.317 63.1314C197.317 65.4045 198.042 66.3292 197.591 68.8965C196.747 73.7167 198.594 73.6443 198.352 74.7035C197.298 78.0573 199.459 79.0556 199.916 79.752C203.939 85.8634 207.123 88.6781 204.081 95.8093L204.077 95.8131ZM203.084 72.4406C201.021 71.63 200.235 72.6727 199.489 72.8769C198.299 73.1991 198.539 70.1827 198.876 68.9714C199.058 67.8031 199.145 66.6222 199.139 65.44C199.172 65.1064 199.266 64.7829 199.315 64.4544C199.725 63.6056 200.379 62.8988 201.194 62.4249C205.035 60.1264 208.258 65.8345 204.97 70.5912C203.864 72.1869 203.603 72.6385 203.088 72.4368L203.084 72.4406ZM203.732 76.1901C203.725 76.6406 203.578 77.0776 203.312 77.4411C203.046 77.8046 202.674 78.0767 202.247 78.2199C201.819 78.363 201.358 78.3702 200.927 78.2405C200.496 78.1107 200.115 77.8504 199.838 77.4954C199.542 76.9952 199.408 76.416 199.453 75.8367C199.499 75.2575 199.721 74.7063 200.092 74.2583C200.394 73.9934 200.755 73.8047 201.145 73.7083C201.535 73.6118 201.942 73.6104 202.333 73.704C202.81 73.9024 203.207 74.2543 203.461 74.704C203.715 75.1537 203.812 75.6754 203.736 76.1863L203.732 76.1901ZM161.537 100.945C156.254 96.5856 159.835 93.554 160.664 91.6437C161.092 90.5633 161.144 89.3701 160.812 88.2566C160.479 87.1431 159.781 86.174 158.83 85.5057C156.666 83.8123 154.853 80.6462 156.414 78.3884C157.712 76.506 159.283 74.9483 157.285 71.3459C155.793 68.6542 153.226 64.9136 156.578 61.0981C158.626 58.7679 160.535 57.7722 160.37 55.409C160.177 52.6451 155.493 51.4996 158.555 45.614C159.073 44.7107 159.781 43.9306 160.631 43.3277C161.48 42.7248 162.45 42.3134 163.474 42.122C164.426 41.8644 165.271 41.3103 165.887 40.5401C166.502 39.7699 166.857 38.8236 166.899 37.8384C166.942 36.7052 167.237 35.5959 167.761 34.5904C168.285 33.5848 169.026 32.7082 169.93 32.0238C170.834 31.3385 171.878 30.8621 172.987 30.6289C174.097 30.3957 175.245 30.4116 176.347 30.6754C178.631 31.245 178.712 33.1705 179.671 33.2123C180.543 33.2478 180.165 30.9862 183.321 30.0678C184.393 29.703 185.524 29.5408 186.655 29.5896C187.994 29.7294 189.262 30.2652 190.295 31.1288C191.329 31.9923 192.081 33.1443 192.457 34.4377C193.407 37.9246 194.58 38.9178 196.574 39.4899C197.646 39.8619 198.618 40.475 199.415 41.2819C200.213 42.0887 200.814 43.0679 201.174 44.1439C201.534 45.2193 201.643 46.363 201.492 47.4871C201.341 48.6112 200.934 49.6858 200.303 50.6282C197.005 55.3811 200.222 59.0343 200.75 56.6306C200.877 56.023 199.355 54.5706 201.047 52.4358C202.467 50.6124 203.182 48.3377 203.06 46.0297C202.937 43.7216 201.987 41.5351 200.382 39.8717C198.241 37.4997 195.639 38.3914 194.575 35.649C200.283 30.5663 207.451 35.7556 209.807 43.8014C211.161 48.4262 207.27 54.6911 209.172 54.8978C209.34 54.9176 209.509 54.8815 209.654 54.7953C209.798 54.7091 209.911 54.5775 209.973 54.4209C210.014 54.3174 210.033 54.2062 210.027 54.0949C210.114 52.0159 211.24 50.2109 211.532 48.1979C212.224 43.4259 210.481 42.1232 210.898 41.6019C214.211 43.6441 216.335 45.8271 216.828 49.7619C217.596 55.9075 213.403 58.088 213.696 62.0266C213.844 64.0015 215.298 65.0544 215.753 69.9202C215.81 71.4048 215.544 72.8841 214.973 74.2557C214.132 76.6658 209.954 81.6128 205.967 81.954C205.05 82.0327 204.224 82.3345 203.802 82.3561C202.696 82.4056 202.706 81.7092 201.572 79.9232C202.554 79.8141 203.461 79.3491 204.123 78.6161C204.786 77.8832 205.156 76.933 205.165 75.9453C205.172 75.2908 205.02 74.6444 204.721 74.0617C205.646 72.6263 206.479 71.1342 207.215 69.5942C209.048 65.0747 207.142 59.9032 202.504 60.408C199.889 60.6934 199.933 61.8997 199.15 61.8908C189.256 61.0359 193.014 61.4507 190.598 61.2173C190.368 59.6973 190.589 58.1432 191.233 56.7473C192.247 54.7482 196.719 48.6951 190.521 44.461C186.335 41.6019 182.822 42.1232 180.697 39.6903C179.175 37.9424 179.823 36.8693 179.406 35.9953C179.353 35.8766 179.262 35.779 179.147 35.7179C179.032 35.6567 178.901 35.6356 178.773 35.6579C178.645 35.6795 178.527 35.7424 178.439 35.837C178.35 35.9316 178.295 36.0528 178.282 36.1818C178.386 37.0194 178.239 37.8691 177.86 38.6231C177.48 39.3772 176.885 40.0016 176.151 40.4172C170.497 43.2927 166.715 43.875 165.513 49.2304C164.764 52.5778 164.797 55.319 163.858 56.4821C161.489 59.425 161.246 64.854 163.787 67.7815C163.95 67.9705 164.065 68.1959 164.123 68.4388C164.181 68.6816 164.179 68.9348 164.118 69.1768C163.595 72.3372 164.012 75.5817 165.319 78.5063C165.954 79.6923 163.948 80.1921 163.88 82.3536C163.835 83.759 164.496 84.4249 166.244 86.1589C168.879 88.7796 166.514 91.7097 165.257 94.5434C163.197 99.1834 169.528 99.134 167.921 104.975C167.742 105.653 167.403 106.278 166.933 106.797C166.462 107.317 165.873 107.715 165.217 107.96C166.22 103.666 164.303 103.229 161.537 100.945ZM164.306 66.0907C162.819 64.4747 162.746 60.044 164.306 58.4178C164.495 60.9719 164.495 63.5366 164.306 66.0907ZM64.1182 60.5704C63.6749 53.6181 65.815 46.7471 70.1278 41.2761C74.4406 35.8053 80.622 32.12 87.4856 30.9278C103.174 28.2945 119.55 39.7728 120.155 57.2724C120.386 61.7153 119.541 66.1484 117.691 70.1946C115.842 74.2407 113.042 77.7802 109.53 80.5118C109.264 80.7325 108.47 81.3198 107.967 81.6952C105.532 78.1651 93.0783 59.3311 91.6551 57.2597C87.2966 50.9111 85.205 48.1814 83.7805 44.9151C83.4342 43.7722 83.0194 42.6522 82.5349 41.56C82.2989 41.3152 81.9133 41.6945 81.5201 41.9406C80.2225 42.7473 79.2369 43.365 80.0563 44.064C81.6704 45.29 83.0641 46.7819 84.1775 48.4757C84.6189 49.3344 89.9896 58.3189 104.423 83.6537C87.4552 92.3731 65.6099 81.0052 64.1182 60.5704ZM89.6687 56.2741C89.609 56.1029 89.6014 56.0293 89.6585 55.9976C89.9122 55.8606 89.3439 54.7748 100.532 72.518C107.035 82.8216 116.802 96.0427 116.718 96.195C113.021 94.546 112.623 94.7197 111.807 93.4044C104.466 81.5824 90.4513 58.0259 89.6687 56.2741ZM109.661 92.4911C109.98 92.9515 110.379 93.3118 110.133 93.9663C109.682 95.1675 116.784 96.7848 117.403 98.8245C117.636 99.5855 116.053 99.1289 114.931 98.8245C113.011 98.2946 111.174 97.4965 109.477 96.4537C109.181 96.208 108.947 95.897 108.791 95.5453C108.636 95.1936 108.565 94.8106 108.583 94.4266C108.601 94.0426 108.707 93.668 108.894 93.3321C109.081 92.9963 109.344 92.7084 109.661 92.4911ZM121.384 108.536C120.75 107.375 118.418 107.348 118.696 106.329C119.011 105.176 118.173 104.571 117.133 103.958C118.446 102.403 117.869 101.47 116.947 100.314C119.586 99.7758 116.91 100.461 122.215 104.912C122.733 105.348 123.389 106.471 125.315 108.953C125.917 109.729 125.897 110.294 125.084 110.806C121.913 112.804 121.602 111.792 121.214 110.62C121.444 110.328 121.583 109.975 121.613 109.605C121.643 109.235 121.563 108.865 121.384 108.54V108.536ZM110.12 98.2384C110.584 98.5074 112.548 99.2786 112.945 99.479C116.439 101.231 117.019 101.961 116.069 103.031C113.075 102.3 113.131 101.946 110.395 100.85C107.766 99.7999 108.811 97.4812 110.12 98.2422V98.2384ZM110.509 103.974C110.196 103.188 111.197 102.53 111.678 102.755C112.254 103.024 115.356 104.313 117.17 105.209C117.937 105.589 117.44 106.743 116.568 106.52C115.052 106.332 111.075 105.404 110.509 103.978V103.974ZM113.273 107.539C113.362 107.435 113.474 107.354 113.6 107.302C113.726 107.25 113.863 107.229 113.999 107.241C116.357 107.858 120.042 108.013 120.214 109.356C120.37 110.556 111.896 109.185 113.273 107.543V107.539ZM117.769 110.896C119.729 110.896 119.633 110.815 119.925 111.208C120.419 111.869 121.082 113.377 122.498 113.258C123.304 113.2 124.091 112.982 124.812 112.615C125.533 112.249 126.173 111.743 126.696 111.126C126.987 110.824 127.167 110.433 127.204 110.015C127.242 109.598 127.136 109.18 126.904 108.831C125.148 106.36 123.16 104.063 120.965 101.972C118.567 99.5614 118.893 97.6867 117.279 94.598C116.145 92.4289 111.719 87.6215 112.478 86.4025C112.812 85.8672 113.366 86.3289 113.537 86.5154C115.101 88.3724 116.785 90.1245 118.578 91.7604C125.001 96.3865 127.971 105.999 130.476 110.857C131.656 113.14 132.625 113.856 131.884 114.652C123.917 123.219 128.575 120.321 122.131 114.525C121.749 114.182 118.832 112.868 117.769 110.9V110.896ZM122.801 132.243C120.283 130.023 119.846 127.745 118.345 126.236C117.977 125.911 117.729 125.471 117.64 124.989C117.55 124.506 117.625 124.007 117.852 123.572C118.47 122.121 122.073 115.708 122.612 116.65C123.304 117.865 122.985 116.868 120.915 119.995C120.013 121.356 118.423 123.695 119.495 124.815C119.754 125.135 120.108 125.364 120.505 125.47C120.903 125.575 121.324 125.552 121.707 125.402C122.55 125.107 123.314 124.621 123.939 123.983C125.555 122.014 126.656 122.37 129.231 119.736C133.463 115.408 134.696 113.958 134.383 111.854C134.204 110.648 133.368 110.148 131.71 110.787L131.19 109.836C132.885 108.985 134.823 109.146 135.447 111.358C136.272 112.956 137.274 114.456 138.432 115.831C141.309 118.283 140.805 118.708 137.686 122.773C137.255 123.335 134.304 126.472 133.981 126.8C130.533 130.318 130.163 130.773 128.747 131.312C124.413 132.955 123.799 133.126 122.801 132.247V132.243ZM139.065 155.28C136.986 151.28 134.048 151.491 133.774 146.414C133.664 144.385 133.304 142.84 131.661 141.916C128.222 139.981 127.475 137.477 125.888 134.033C129.947 132.42 129.979 133.078 132.851 130.195C141.746 121.263 137.269 125.028 141.134 120.808C145.337 122.854 142.935 125.869 146.738 127.933C148.514 128.897 148.58 129.565 150.178 132.763C147.589 135.709 148.871 133.684 144.271 141.5C143.404 143.231 143.117 145.195 143.451 147.102C143.492 147.233 143.564 147.353 143.661 147.451C143.758 147.549 143.877 147.622 144.008 147.664C145.008 147.879 144.349 145.761 144.896 143.749C145.12 142.927 149.344 135.989 149.778 135.275C150.17 135.424 150.412 134.36 148.256 145.094C147.797 147.377 147.283 147.33 147.811 150.197C147.84 150.355 148.538 151.129 148.98 150.023C148.958 149.264 148.98 148.504 149.044 147.748C150.82 138.541 151.108 138.107 151.364 136.413C152.362 129.807 151.974 128.055 153.639 125.14C155.602 121.706 155.587 118.253 156.372 113.82C157.006 110.237 163.152 105.914 163.922 105.546C164.054 105.986 164.07 106.453 163.965 106.901C163.861 107.349 163.641 107.762 163.328 108.098C161.627 110.399 165.738 110.725 168.412 107.412C172.772 110.517 172.293 109.737 170.719 110.376C168.768 111.282 166.928 112.411 165.236 113.739C164.525 114.187 163.953 114.823 163.581 115.576C163.209 116.329 163.052 117.17 163.127 118.006C163.212 119.833 164.354 146.691 166.172 146.419C168.293 146.099 164.421 137.986 164.563 117.19C164.575 115.569 168.715 113.005 169.924 112.46C176.774 109.41 173.222 109.746 169.958 106.803C169.737 106.558 169.576 106.265 169.488 105.947C169.4 105.629 169.387 105.295 169.451 104.971C169.519 104.235 169.735 103.52 170.086 102.869C170.437 102.218 170.915 101.644 171.493 101.183C172.543 100.097 177.41 94.6056 178.364 95.4415C177.313 98.2143 174.899 103.166 176.692 106.58C177.461 108.041 174.251 106.754 171.908 145.844C171.847 146.858 172.016 145.566 169.713 149.345C166.675 148.233 167.42 147.387 163.021 153.193C157.394 160.62 158.055 160.214 157.758 160.071C157.179 154.72 156.879 149.343 156.86 143.961C156.898 141.592 158.363 136.065 159.046 132.337C159.359 128.645 159.921 124.977 160.728 121.361C161.293 118.34 161.172 119.332 161.108 118.258C160.093 117.911 160.04 117.439 158.111 127.804C157.508 131.036 158.599 129.146 156.26 138.483C154.418 145.84 155.871 153.056 156.271 157.407C156.398 158.831 156.279 160.965 156.363 161.117C157.148 162.534 155.272 163.487 151.777 168.506C148.869 166.99 149.629 167.589 147.792 165.588C141.334 158.578 140.409 157.862 139.065 155.28ZM65.8636 162.51L68.8876 164.142C68.0864 164.946 67.0711 165.503 65.9625 165.747C65.5102 164.722 65.4748 163.561 65.8636 162.51ZM36.8984 162.591C41.8732 162.549 46.6896 162.738 64.4683 162.738V165.643H35.1301C34.4997 163.914 35.2938 162.605 36.8984 162.591ZM120.925 171.922C111.569 171.778 67.8449 172.357 37.7267 171.956C21.9877 171.747 20.6025 172.066 18.3193 171.901C18.3193 165.519 17.9933 166.427 19.2973 166.447C162.344 168.175 144.283 164.86 150.572 170.044C148.878 172.618 153.116 172.416 120.925 171.922ZM148.861 174.98L167.231 149.772C179.058 155.171 190.247 161.87 200.591 169.746L190.824 180.536C189.412 179.341 187.889 178.284 186.276 177.38C186.034 177.279 185.773 177.237 185.512 177.256C185.252 177.276 184.999 177.357 184.776 177.493C184.554 177.63 184.366 177.817 184.23 178.04C184.094 178.263 184.013 178.515 183.992 178.775C183.746 181.376 185.083 182.482 186.888 184.563C183.971 187.685 185.791 186.646 182.4 183.384C177.951 179.103 177.816 176.454 174.186 175.803C172.643 175.525 170.88 176.708 171.559 178.184C171.955 179.045 171.507 178.414 170.507 177.866C166.79 175.826 164.595 178.085 165.389 179.852C165.539 180.186 165.715 180.509 165.938 180.953C165.44 180.941 164.949 181.071 164.522 181.328C164.095 181.585 163.75 181.959 163.528 182.406C158.834 179.563 153.931 177.081 148.861 174.981V174.98ZM188.102 185.294C192.104 188.313 191.675 187.903 191.654 188.239C188.386 189.322 189.633 189.519 186.163 187.596L188.102 185.294ZM171.287 205.683C168.56 215.347 167.989 228.733 167.662 230.698C167.514 231.586 167.11 231.978 166.238 231.863C160.833 231.148 154.03 226.944 149.766 223.021C149.459 222.752 149.229 222.405 149.099 222.018C148.97 221.631 148.945 221.216 149.027 220.816C150.283 199.308 157.948 184.327 158.474 181.198C165.536 184.816 163.375 183.758 167.898 188.578C170.861 191.736 172.465 192.149 172.226 195.775C172.045 198.567 172.837 200.192 171.287 205.683ZM170.061 188.559C168.564 186.949 167.091 185.317 165.642 183.664C164.854 182.756 165.261 182.026 166.453 182.475C171.074 184.217 170.297 187.169 174.635 190.68C175.613 191.47 176.484 194.002 179.002 194.962C180.734 195.623 180.797 194.193 179.718 193.82C178.559 193.304 177.58 192.453 176.908 191.377C173.552 187.085 174.646 189.492 171.868 185.171C169.264 181.119 164.934 178.902 167.525 178.626C169.467 178.418 170.696 179.513 174.825 183.996C182.343 192.169 180.25 192.072 183.541 194.159C184.237 194.602 184.555 194.464 184.899 193.573C180.411 189.027 176.487 183.956 173.214 178.47C172.599 177.319 173.568 177.124 174.036 177.216C175.273 177.577 176.345 178.36 177.063 179.43C178.368 181.256 179.856 182.946 181.502 184.472C183.184 186.229 183.702 188.11 185.942 189.059C189.59 190.605 190.94 192 190.974 189.985C191.862 189.697 192.732 189.359 193.581 188.97C193.693 188.9 193.787 188.804 193.853 188.689C193.92 188.574 193.956 188.444 193.96 188.311C193.963 188.178 193.932 188.047 193.871 187.929C193.809 187.811 193.719 187.71 193.608 187.637C192.146 186.473 190.673 185.313 189.142 184.24C187.039 182.766 184.766 179.8 185.761 179.039C186.185 178.712 188.051 180.294 190.28 181.968C190.559 182.179 192.927 183.413 194.6 184.405C195.088 184.689 195.628 184.869 196.189 184.933C196.749 184.997 197.316 184.944 197.855 184.778C198.925 184.664 200.003 184.652 201.075 184.741C202.343 184.204 202.404 185.048 204.687 192.902C204.735 193.114 204.767 193.328 204.785 193.545C201.513 194.668 198.404 196.173 194.928 196.426C176.324 197.764 180.411 199.422 170.061 188.558V188.559ZM230.553 202.064C233.448 209.264 236.149 215.658 235.12 216.72C230.778 221.233 219.089 225.311 213.228 227.521C208.35 229.357 199.375 233.853 192.077 233.196C183.832 232.452 182.006 234.474 180.947 232.194C179.932 230.013 179.033 224.435 176.851 212.065C175.217 202.796 174.941 202.783 174.004 200.419C173.567 198.53 173.407 196.588 173.53 194.654C177.04 198.413 177.349 199.4 190.711 198.178C194.038 197.873 196.605 198.336 202.828 195.797C203.348 195.585 203.16 195.445 203.794 196.903C204.046 197.735 204.583 198.453 205.311 198.928C206.04 199.404 206.912 199.607 207.776 199.502C208.348 199.432 208.896 199.229 209.375 198.908C213.122 196.917 215.825 196.879 216.278 194.264C216.765 191.439 215.979 190.516 217.011 189.952C222.905 186.741 222.949 186.323 223.506 187.222C227.504 193.65 226.952 193.106 230.553 202.063V202.064ZM218.049 187.516C216.009 188.644 216.37 189.193 216.115 187.533C215.723 184.982 213.845 179.102 212.257 177.049C209.17 173.056 207.31 174.197 209.454 172.652C213.368 169.821 231.089 158.943 236.886 157.016C238.009 156.642 238.252 155.584 236.886 153.255C235.915 151.606 234.808 152.286 233.013 152.924C233.123 152.29 233.194 151.649 233.222 151.006C233.278 149.294 232.104 149.351 231.497 149.709C227.93 151.805 227.613 151.96 225.647 153.174C225.647 148.207 225.846 148.039 225.505 147.83C224.845 147.423 224.607 147.779 224.119 148.108C214.726 154.417 215.392 154.876 213.471 156.22C212.809 152.963 212.6 152.012 212.468 150.986C212.252 149.312 212.928 146.087 212.066 143.706C211.262 141.489 209.812 139.953 210.036 135.246C210.309 129.389 210.476 129.09 210.324 128.853C209.785 128.013 209.266 128.705 209.242 128.869C208.641 132.979 207.81 138.728 210.081 142.806C211.957 146.177 210.28 147.678 211.476 153.863C212.189 157.541 212.237 157.738 211.91 158.176C208.312 162.996 206.78 164.336 206.018 167.732C205.839 168.534 204.56 169.456 203.516 170.344C200.816 160.404 194.479 154.422 186.556 146.782C191.871 138.313 190.798 138.758 197.084 130.838C205.494 120.241 209.35 118.338 207.83 115.716C204.507 109.978 204.943 110.91 204.102 109.967C205.868 108.85 204.586 109.866 212.621 103.878C215.27 101.904 211.312 95.8766 212.269 96.4702C213.699 97.1628 214.999 98.0989 216.108 99.2367C219.137 102.989 219.942 101.72 223.925 103.434C231.695 106.775 229.261 105.764 232.252 119.267C232.998 122.636 233.755 122.065 235.124 126.314C239.13 138.745 237.369 132.511 238.601 140.299C240.25 150.73 243.754 151.752 243.966 158.295C244.6 178.112 244.334 172.982 218.049 187.516Z" fill="#1B1B1D"/>
    <path d="M221.344 106.308C213.705 109.938 213.236 114.967 210.367 122.976C210.535 123.206 210.733 123.661 210.892 123.648C213.249 123.461 213.29 113.581 218.615 109.79C219.763 108.786 221.044 107.944 222.42 107.286C223.1 107.034 222.572 105.726 221.344 106.308Z" fill="#1B1B1D"/>
    <path d="M211.682 192.541C211.659 192.161 211.485 191.806 211.2 191.555C210.915 191.303 210.541 191.175 210.162 191.198C209.782 191.222 209.427 191.395 209.176 191.68C208.924 191.965 208.796 192.339 208.819 192.718C208.843 193.098 209.016 193.453 209.301 193.704C209.442 193.829 209.607 193.925 209.785 193.986C209.963 194.047 210.151 194.073 210.339 194.061C210.527 194.049 210.711 194.001 210.88 193.918C211.05 193.835 211.201 193.72 211.326 193.579C211.45 193.438 211.546 193.273 211.607 193.095C211.668 192.917 211.694 192.729 211.682 192.541Z" fill="#1B1B1D"/>
    <path d="M200.084 66.4554C199.629 67.767 200.797 68.2972 201.248 68.8655C201.947 69.7433 200.806 69.7014 200.291 70.3876C199.668 71.2273 200.544 71.4645 200.66 71.5407C201.079 71.4895 201.484 71.3523 201.848 71.1375C202.211 70.9227 202.527 70.635 202.774 70.2925C202.951 69.7988 202.97 69.2627 202.831 68.7573C202.691 68.252 202.399 67.8021 201.994 67.4689C201.318 66.9121 201.276 66.6609 201.768 65.9468C202.304 65.1692 202.825 64.417 203.392 65.1768C204.091 66.1142 205.027 65.2402 204.491 64.3206C203.627 62.8441 201.281 63.0128 200.084 66.4554Z" fill="#1B1B1D"/>
    <path d="M182.711 48.9492C180.661 49.3057 176.866 49.5454 177.459 51.5343C177.529 51.7697 177.683 51.9712 177.892 52.1016C178.1 52.2321 178.349 52.2824 178.591 52.2434C179.453 52.1806 180.298 51.9784 181.095 51.6447C183.244 50.7098 185.956 50.5716 187.478 52.5795C187.599 52.7406 188.043 52.7609 188.282 52.6848C188.372 52.6095 188.441 52.5126 188.483 52.4032C188.526 52.2939 188.539 52.1756 188.523 52.0595C187.123 49.6557 186.23 49.4553 182.711 48.9492Z" fill="#1B1B1D"/>
    <path d="M173.945 83.0706C177.983 88.8522 182.524 80.8317 186.168 74.8256C186.802 76.3478 187.73 75.3748 187.31 73.9263C186.441 70.9517 183.96 71.0202 183.915 71.5162C183.936 71.8079 184.028 72.087 184.185 72.3331C184.246 72.4511 184.401 72.5221 184.558 72.654C184.41 72.802 184.244 72.9299 184.062 73.0345C173.281 77.3473 169.095 73.3732 170.617 76.571C170.624 76.5964 173.673 82.6812 173.945 83.0706ZM175.608 82.7814C176.232 82.0643 176.999 81.4845 177.858 81.0789C178.718 80.6732 179.653 80.4504 180.603 80.4246C179.495 82.4706 177.035 84.5953 175.608 82.7814ZM184.581 74.4362C184.125 75.5245 183.693 76.396 182.529 76.6674C179.623 77.3397 176.756 78.2378 173.716 78.0488C172.701 77.9853 172.489 77.8027 172.04 76.4467C176.321 76.7925 180.623 76.1029 184.581 74.4362Z" fill="#1B1B1D"/>
    <path d="M180.227 60.3213C180.031 61.9056 179.987 62.8582 181.056 63.0345C181.932 63.1842 181.905 60.9009 181.716 60.457C181.393 59.687 180.335 59.4828 180.227 60.3213Z" fill="#1B1B1D"/>
    <path d="M169.854 61.318C169.841 60.9629 169.785 60.6077 169.689 60.2652C169.637 60.1407 169.552 60.0328 169.442 59.9534C169.333 59.874 169.204 59.8261 169.07 59.815C168.935 59.8039 168.8 59.8299 168.679 59.8903C168.559 59.9507 168.457 60.0431 168.385 60.1574C167.376 62.2504 169.365 64.7023 169.854 61.318Z" fill="#1B1B1D"/>
    <path d="M124.926 127.646C124.642 127.617 124.356 127.677 124.107 127.819C123.859 127.96 123.661 128.175 123.541 128.435C123.422 128.694 123.385 128.984 123.437 129.265C123.489 129.545 123.626 129.803 123.83 130.003C123.96 130.129 124.113 130.229 124.281 130.296C124.449 130.363 124.629 130.396 124.81 130.394C124.991 130.391 125.17 130.352 125.336 130.28C125.502 130.208 125.652 130.104 125.777 129.973C125.958 129.788 126.082 129.555 126.136 129.302C126.189 129.049 126.171 128.786 126.082 128.543C125.993 128.3 125.838 128.087 125.633 127.928C125.429 127.769 125.184 127.672 124.926 127.646Z" fill="#1B1B1D"/>
</svg>
